<svg xmlns="http://www.w3.org/2000/svg" width="170" height="21" viewBox="0 0 170 21">
    <g fill="none" fill-rule="evenodd">
        <path d="M0 .008h170V20.56H0z"/>
        <path fill="#282828" d="M65.642.044c.972 0 1.955.123 2.861.48 2.057.81 2.916 2.757 2.939 4.692 0 .134.027.321-.099.42-.064.051-.155.059-.24.06-1.06.012-2.12.007-3.181 0a.448.448 0 0 1-.422-.335c-.073-.277-.105-.555-.217-.81-.258-.587-.852-.966-1.477-1.06-.794-.12-1.612-.041-2.42-.04-.431.004-.87.062-1.26.252-.611.299-.933.904-1.008 1.537-.065.543-.048 1.16.15 1.712.016.045.034.09.053.134.666 1.53 2.43 1.338 3.9 1.495 1.59.175 3.291.379 4.668 1.248 1.185.748 1.794 1.971 1.995 3.246.242 1.537.222 3.609-.743 5.204-.693 1.145-1.912 1.778-3.181 2.024-1.71.331-3.48.17-5.224.166-1.243-.006-2.551-.185-3.638-.838-1.377-.827-1.996-2.344-2.095-3.85a8.42 8.42 0 0 1-.018-.522c-.002-.295.134-.438.339-.442 1.062-.01 2.125-.012 3.188 0 .228.006.384.186.424.379.053.258.098.519.208.757.29.625.948.972 1.602 1.065.897.128 1.79.046 2.685.044.451-.002.917-.047 1.338-.225.754-.32 1.115-1.038 1.215-1.766.095-.688.092-1.523-.267-2.197-.406-.761-1.196-1-1.964-1.12a9.104 9.104 0 0 0-.473-.058l-1.622-.177-.09-.011c-.328-.04-.655-.085-.98-.139-1.314-.216-2.69-.554-3.743-1.414-.987-.807-1.465-2.002-1.628-3.204-.186-1.373-.147-2.96.55-4.27C58.799.549 61.012.05 63.057.045h2.586zM27.262.469a.284.284 0 0 0-.284-.285h-3.492A.284.284 0 0 0 23.2.47V20.06c0 .157.128.284.285.284h3.492a.284.284 0 0 0 .284-.284V.469zM130.424.469a.284.284 0 0 0-.284-.285h-3.492a.284.284 0 0 0-.285.285V20.06c0 .157.128.284.285.284h3.492a.284.284 0 0 0 .284-.284V.469zM82.645 3.593h-4.858a.239.239 0 0 1-.238-.239V.423c0-.132.107-.239.238-.239h14.448c.131 0 .238.107.238.239v2.931a.239.239 0 0 1-.238.239h-4.957a.287.287 0 0 0-.286.277v16.191a.284.284 0 0 1-.284.284h-3.493a.284.284 0 0 1-.284-.284V3.88a.287.287 0 0 0-.286-.286zM37.285.184c2.885 0 4.39-.008 7.276-.002 1.032.002 2.084.145 3.029.57 1.345.606 2.243 1.79 2.62 3.142.39 1.392.282 2.87.276 4.345-.01 1.632-.493 3.49-1.776 4.581-.171.145-.373.268-.5.401l-.038.113.013.119 2.2 6.493c.036.084.093.195.041.289-.052.093-.197.103-.316.104-1.08.005-2.162.013-3.242 0-.212-.004-.483-.1-.568-.318-.707-1.882-1.242-3.824-1.863-5.736l-.057-.1-.093-.067-.112-.024h-4.241l-.106.02-.09.06a.364.364 0 0 0-.08.196v5.698a.277.277 0 0 1-.278.277h-3.406a.277.277 0 0 1-.277-.277V.462c0-.153.124-.278.277-.278h1.31zm2.373 10.222l.02.105.06.09.09.06.106.02h4.211c.473 0 .969-.075 1.377-.318.512-.303.815-.867.929-1.442.176-.895.077-1.82.075-2.735-.003-.53-.078-1.08-.336-1.55-.41-.75-1.232-1.038-2.03-1.041-1.409-.006-2.818 0-4.226 0l-.106.02a.364.364 0 0 0-.15.15l-.02.105v6.536zM3.812 20.068V3.879a.287.287 0 0 0-.285-.286H.284a.239.239 0 0 1-.238-.239V.423C.046.29.153.184.284.184h15.778c.132 0 .239.107.239.239v2.931a.239.239 0 0 1-.239.239H8.06a.287.287 0 0 0-.285.284V8.34a.287.287 0 0 0 .286.285h7.087c.132 0 .238.107.238.238v2.932a.239.239 0 0 1-.238.238H8.06a.287.287 0 0 0-.286.276v7.76a.277.277 0 0 1-.278.277H4.09a.277.277 0 0 1-.278-.277zM169.672 3.6h-8.204a.287.287 0 0 0-.286.286V8.28c0 .158.128.286.286.286h7.354c.132 0 .239.107.239.239v2.931a.239.239 0 0 1-.239.239h-7.354a.287.287 0 0 0-.286.286v4.392c0 .158.128.287.286.287h8.204c.132 0 .239.107.239.238v2.932a.239.239 0 0 1-.239.238H158.41c-.01 0-.021 0-.032-.002h-.87a.277.277 0 0 1-.276-.276V.46c0-.153.124-.277.276-.277h3.398c.021 0 .042.003.062.007h8.705c.132 0 .239.107.239.239V3.36a.239.239 0 0 1-.239.239zM117.43.184c.157 0 .284.128.284.285V20.06a.284.284 0 0 1-.284.284h-3.493a.284.284 0 0 1-.284-.284V5.601s-.013-.136-.134-.138c-.147-.002-.226.138-.226.138l-4.281 8.348s-.05.14-.204.14c-.224 0-.587-.002-.794 0-.142 0-.193-.138-.193-.138l-4.5-8.35s-.07-.138-.206-.138c-.157 0-.154.138-.154.138v14.46a.284.284 0 0 1-.284.284h-3.492a.284.284 0 0 1-.284-.284V.469c0-.157.127-.285.284-.285 0 0 5.258-.017 6.345 0 .138.002.18.103.18.103l2.692 6.664 2.775-6.664s.035-.103.19-.103c1.101.005 6.063 0 6.063 0zM150.465 20.347h-10.884c-.01 0-.021 0-.032-.002h-.54a.284.284 0 0 1-.285-.284V.468c0-.157.128-.284.284-.284h3.487c.157 0 .284.127.284.284v16.2c.008.15.133.27.286.27h7.4c.132 0 .239.107.239.24v2.93a.239.239 0 0 1-.239.24z"/>
    </g>
</svg>
