<svg width="24" height="24" viewBox="0 0 24 24" fill="none" xmlns="http://www.w3.org/2000/svg">
<path fill-rule="evenodd" clip-rule="evenodd" d="M2 12C2 6.48 6.48 2 12 2C17.52 2 22 6.48 22 12C22 17.52 17.52 22 12 22C6.48 22 2 17.52 2 12ZM4 12C4 16.41 7.59 20 12 20C16.41 20 20 16.41 20 12C20 7.59 16.41 4 12 4C7.59 4 4 7.59 4 12Z" fill="#141414"/>
<path d="M11.9903 16.09C13.3703 16.09 14.3603 15.32 14.3603 14.13C14.3603 13.33 13.9303 12.75 13.2303 12.45V12.43C13.8203 12.11 14.1503 11.55 14.1503 10.89C14.1503 9.72 13.1703 9.05 11.9003 9.05C10.8403 9.05 10.0503 9.56 9.73031 10.27L10.8203 10.86C11.0303 10.51 11.3303 10.28 11.8703 10.28C12.3503 10.28 12.8203 10.62 12.8203 11.11C12.8203 11.55 12.5603 11.92 11.8603 11.92H11.2603V13.02H11.7603C12.5803 13.02 12.9603 13.45 12.9603 13.95C12.9603 14.51 12.4803 14.86 11.8803 14.86C11.2303 14.86 10.8403 14.57 10.6503 14.08L9.48031 14.57C9.82031 15.44 10.7203 16.09 11.9903 16.09Z" fill="#141414"/>
</svg>
