<svg width="24" height="24" viewBox="0 0 24 24" fill="none" xmlns="http://www.w3.org/2000/svg">
<path fill-rule="evenodd" clip-rule="evenodd" d="M2 12C2 6.48 6.48 2 12 2C17.52 2 22 6.48 22 12C22 17.52 17.52 22 12 22C6.48 22 2 17.52 2 12ZM4 12C4 16.41 7.59 20 12 20C16.41 20 20 16.41 20 12C20 7.59 16.41 4 12 4C7.59 4 4 7.59 4 12Z" fill="#141414"/>
<path d="M9.63031 16H14.2603V14.77H11.6903L11.6803 14.74L13.0403 13.42C13.9203 12.55 14.1903 11.88 14.1903 11.09C14.1903 9.84 13.1803 9.05 11.9603 9.05C10.8003 9.05 10.0703 9.62 9.63031 10.35L10.6103 11.04C10.9503 10.55 11.3703 10.31 11.8503 10.31C12.4003 10.31 12.8203 10.7 12.8203 11.25C12.8203 11.8 12.4503 12.29 11.8703 12.87L9.62031 15.11L9.63031 16Z" fill="#141414"/>
</svg>
