<svg width="458" height="418" viewBox="0 0 458 418" fill="none" xmlns="http://www.w3.org/2000/svg">
<g style="mix-blend-mode:difference">
<path fill-rule="evenodd" clip-rule="evenodd" d="M363.226 39.7654C374.37 31.4485 398.259 35.4438 401.205 62.2288C393.999 84.2414 427.499 102.5 411.64 125.591C401.205 150.5 409.868 188.128 397.499 198C386.252 201.388 368.73 222.059 354.099 217.06C339.339 199.866 333.105 142.58 322.563 121.888C312.929 103.685 313.762 88.7164 326.158 84.2414C335.446 77.5154 353.678 45.5115 363.226 39.7654Z" fill="#E6C100"/>
<path fill-rule="evenodd" clip-rule="evenodd" d="M163.464 190.241C166.694 187.756 169.251 192.628 172.204 189.903C173.359 188.84 174.846 188.322 176.414 188.494C180.189 190.065 172.124 193.398 175.242 195.517C176.508 196.931 179.569 197.869 179.147 200.112C177.354 202.394 174.348 198.493 172.469 197.695C170.331 195.83 168.75 198.746 166.906 199.533C165.705 200.155 162.536 200.405 163.316 198.231C166.322 194.592 168.333 193.63 163.464 190.241Z" fill="black"/>
<path fill-rule="evenodd" clip-rule="evenodd" d="M40.7305 201.307C40.2265 195.769 48.2392 194.934 50.6716 199.008C54.1724 205.445 40.5785 208.696 40.7305 201.307Z" fill="black"/>
<path fill-rule="evenodd" clip-rule="evenodd" d="M31.811 196.555C37.711 196.731 32.8751 208.925 27.9952 204.627C24.0265 201.626 27.0893 195.62 31.811 196.555Z" fill="black"/>
<path fill-rule="evenodd" clip-rule="evenodd" d="M63.9692 199.931C63.8842 202.788 59.5441 204.773 57.6894 202.11C54.7672 196.436 62.9702 193.057 63.9692 199.931Z" fill="black"/>
<path fill-rule="evenodd" clip-rule="evenodd" d="M173.013 342.734C173.018 342.814 173.024 342.894 173.03 342.974C181.383 342.429 187.139 346.013 182.814 334.57C176.31 302.589 174.255 310.166 145.415 313.195C141.235 315.514 143.815 334.09 143.025 339.561C143.492 343.023 144.03 345.747 148.04 345.136C156.373 344.504 164.688 343.503 173.013 342.734ZM133.785 321.665C133.526 313.348 134.701 306.946 144.115 306.454C153.513 305.979 164.082 303.375 172.993 307.13C174.467 308.588 176.101 308.819 178.079 308.715C186.225 306.453 191.114 341.101 188.78 346.268C188.071 348.339 185.668 347.907 183.925 347.949C175.203 347.601 166.633 349.124 158.011 350.02C132.215 355.629 134.585 342.061 133.785 321.665Z" fill="black"/>
<path fill-rule="evenodd" clip-rule="evenodd" d="M49.7942 327.232C51.1167 320.339 55.0459 312.962 61.8485 310.261C68.9476 306.648 70.7657 323.209 76.9956 319.161C93.2526 296.553 89.5985 319.389 97.0555 316.453C100.522 313.521 107.303 304.269 111.392 310.538C111.665 313.881 114.564 318.124 112.874 321.132C110.465 321.747 108.777 319.083 107.793 317.257C103.815 314.949 98.0467 329.343 91.6404 322.536C89.7582 321.418 88.3613 315.965 85.7819 318.153C71.3665 340.802 66.7551 312.311 61.1813 319.129C58.1893 321.702 53.6348 334.616 49.7942 327.232Z" fill="black"/>
<path fill-rule="evenodd" clip-rule="evenodd" d="M96.287 337.369C99.9253 338.02 108.336 335.448 109.038 340.153C108.92 341.098 108.242 341.619 106.613 341.696C90.5379 341.655 74.5132 343.671 58.439 343.234C52.245 337.815 92.3523 337.869 96.2844 337.117L96.287 337.369Z" fill="black"/>
<path fill-rule="evenodd" clip-rule="evenodd" d="M84.6314 350.565C113.478 351.16 70.573 357.303 63.7895 354.612C61.477 350.891 81.7029 350.678 84.6314 350.593C84.6314 350.583 84.6314 350.574 84.6314 350.565Z" fill="black"/>
<path fill-rule="evenodd" clip-rule="evenodd" d="M172.273 332.632C172.767 342.07 149.973 334.291 157.422 330.342C162.042 332.834 166.369 333.196 170.533 329.556C172.441 329.05 172.046 331.345 172.273 332.632Z" fill="black"/>
<path fill-rule="evenodd" clip-rule="evenodd" d="M164.287 320.186C164.664 311.707 176.618 321.341 171.912 323.869C168.249 325.53 164.178 325.167 164.287 320.186Z" fill="black"/>
<path fill-rule="evenodd" clip-rule="evenodd" d="M150.871 321.273C150.332 317.385 156.339 318.095 156.978 320.948C157.592 325.191 150.398 325.768 150.871 321.273Z" fill="black"/>
<path fill-rule="evenodd" clip-rule="evenodd" d="M106.517 110.714C100.743 108.576 101.612 97.9137 93.9342 101.776C92.2888 102.068 84.6507 104.814 85.918 101.411C94.9777 94.9635 97.8196 99.7354 92.8551 88.1871C92.6944 87.4119 92.5847 86.5185 93.4064 86.054C99.0605 83.6188 99.8808 96.2058 105.664 92.9903C116.238 87.2676 119.739 96.7136 107.347 98.3186C102.549 100.92 116.756 110.739 106.517 110.714Z" fill="black"/>
<path fill-rule="evenodd" clip-rule="evenodd" d="M89.5214 15.124C92.7224 15.8884 114.174 19.6858 113.196 22.7447C111.611 27.3549 108.128 26.1362 104.395 24.9117C101.748 24.1251 77.127 16.7618 89.5214 15.124Z" fill="black"/>
</g>
<g clip-path="url(#clip0)" filter="url(#filter0_d)">
<rect width="373" height="352" transform="translate(23 26)" fill="white"/>
<text fill="#141414" xml:space="preserve" style="white-space: pre" font-family="Averta PE" font-size="32" font-weight="600" letter-spacing="0px"><tspan x="55" y="197.52">15 Million+</tspan></text>
<text fill="#808080" xml:space="preserve" style="white-space: pre" font-family="Averta PE" font-size="16" letter-spacing="0px"><tspan x="55" y="225.648">Rides taken in 2019</tspan></text>
<text fill="#141414" xml:space="preserve" style="white-space: pre" font-family="Averta PE" font-size="32" font-weight="600" letter-spacing="0px"><tspan x="55" y="101.52">1 Million+</tspan></text>
<text fill="#808080" xml:space="preserve" style="white-space: pre" font-family="Averta PE" font-size="16" letter-spacing="0px"><tspan x="55" y="129.648">Vehicles connected</tspan></text>
<text fill="#141414" xml:space="preserve" style="white-space: pre" font-family="Averta PE" font-size="32" font-weight="600" letter-spacing="0px"><tspan x="55" y="293.52">70+</tspan></text>
<text fill="#808080" xml:space="preserve" style="white-space: pre" font-family="Averta PE" font-size="16" letter-spacing="0px"><tspan x="55" y="321.648">Cities worldwide</tspan></text>
<path fill-rule="evenodd" clip-rule="evenodd" d="M402.95 358.337C401.736 368.499 408.075 389.039 392.32 389.044C386.161 387.709 358.074 392.798 358.634 386.307C352.064 377.09 366.09 380.008 361.254 373.409C353.364 362.675 360.385 345.111 349.499 348.595C334.47 351.938 327.786 342.536 327 328.61C327.432 317.074 348.391 324.437 355.991 323.092C369.438 322.998 382.455 326.226 395.548 328.811C408.463 331.888 401.629 349.152 402.95 358.337Z" fill="#E6C100"/>
</g>
<path fill-rule="evenodd" clip-rule="evenodd" d="M19.5595 275.847C21.2495 297.923 21.3455 320 23.5101 342.052C25.1852 348.488 23.1171 365.126 27.7308 368.608C80.195 370.815 133.055 369.047 185.537 366.281C192.353 366.195 203.098 362.401 204.923 371.657C205.923 377.713 196.919 376.931 193.243 379.763C189.997 381.404 186.203 380.947 182.718 380.406C153.147 377.729 123.291 380.511 93.6178 380.642C72.6603 380.699 52.0125 385.43 31.0533 382.642C26.7737 382.513 29.4055 387.904 23.1798 385.278C18.4476 384.658 18.4902 384.654 17.7525 380.331C15.3896 369.525 14.258 358.526 13.3095 347.536C10.944 313.01 7.53273 278.47 7.53998 243.816C7.01005 227.005 6.40715 210.284 8.20986 193.524C8.68732 191.342 7.96879 188.064 10.4333 187C22.882 189.447 16.3466 261.848 19.5595 275.847Z" fill="#12AF9C"/>
<path d="M185.57 370.712C133.079 373.547 80.4737 375.261 27.9996 373L17.7545 385.11C18.4924 389.54 18.4497 389.544 23.1829 390.179C29.4097 392.87 26.7774 387.346 31.0578 387.478C52.021 390.335 72.6726 385.487 93.6341 385.428C123.313 385.294 153.175 382.444 182.751 385.186C186.237 385.741 190.032 386.209 193.278 384.528C196.955 381.626 205.961 382.427 204.96 376.222C203.135 366.736 192.387 370.625 185.57 370.712Z" fill="#12AF9C"/>
<defs>
<filter id="filter0_d" x="3" y="18" width="421" height="400" filterUnits="userSpaceOnUse" color-interpolation-filters="sRGB">
<feFlood flood-opacity="0" result="BackgroundImageFix"/>
<feColorMatrix in="SourceAlpha" type="matrix" values="0 0 0 0 0 0 0 0 0 0 0 0 0 0 0 0 0 0 127 0"/>
<feOffset dx="4" dy="16"/>
<feGaussianBlur stdDeviation="12"/>
<feColorMatrix type="matrix" values="0 0 0 0 0 0 0 0 0 0 0 0 0 0 0 0 0 0 0.12 0"/>
<feBlend mode="normal" in2="BackgroundImageFix" result="effect1_dropShadow"/>
<feBlend mode="normal" in="SourceGraphic" in2="effect1_dropShadow" result="shape"/>
</filter>
<clipPath id="clip0">
<rect width="373" height="352" fill="white" transform="translate(23 26)"/>
</clipPath>
</defs>
</svg>
