<svg width="215" height="48" viewBox="0 0 215 48" fill="none" xmlns="http://www.w3.org/2000/svg">
<path d="M60.112 30H61.92L64.288 21.456H64.32L66.64 30H68.448L72.048 18.64H70L67.552 26.816H67.52L65.312 18.64H63.264L61.04 26.832H61.008L58.576 18.64H56.512L60.112 30ZM75.7173 30.128C76.6133 30.128 77.4773 29.76 78.1013 29.008L78.1333 29.024V30H79.9253V22.192H78.1333V25.936C78.1333 27.616 77.1733 28.496 76.1333 28.496C75.0613 28.496 74.5813 28.016 74.5813 26.464V22.192H72.7893V26.944C72.7893 29.264 73.9893 30.128 75.7173 30.128ZM82.1993 30H83.9913V26.08C83.9913 24.544 84.7913 23.696 86.0073 23.696C87.0793 23.696 87.7033 24.224 87.7033 25.872V30H89.4953V25.408C89.4953 23.056 88.3433 22.08 86.6313 22.08C85.6073 22.08 84.6633 22.496 84.0233 23.264H83.9913V22.192H82.1993V30ZM94.9956 30.128C96.1156 30.128 96.9636 29.696 97.5396 28.944H97.5556V30H99.2676V18.224H97.4916V23.152H97.4756C96.8836 22.448 96.0036 22.08 94.9796 22.08C92.8356 22.08 91.2036 23.776 91.2036 26.128C91.2036 28.544 92.8356 30.128 94.9956 30.128ZM95.2676 28.496C93.9556 28.496 93.0276 27.52 93.0276 26.144C93.0276 24.64 94.0356 23.696 95.2836 23.696C96.6276 23.696 97.5556 24.752 97.5556 26.144C97.5556 27.552 96.5476 28.496 95.2676 28.496ZM108.742 26C108.742 23.728 107.254 22.08 105.062 22.08C102.774 22.08 101.142 23.696 101.142 26.096C101.142 28.544 102.822 30.128 105.19 30.128C106.87 30.128 107.846 29.504 108.502 28.656L107.254 27.584C106.854 28.08 106.214 28.496 105.286 28.496C104.07 28.496 103.222 27.824 102.998 26.688H108.694C108.71 26.56 108.742 26.288 108.742 26ZM105.046 23.696C106.07 23.696 106.71 24.336 106.934 25.28H103.03C103.286 24.256 104.054 23.696 105.046 23.696ZM110.59 30H112.382V26.304C112.382 25.024 113.15 24.048 114.51 24.048C114.638 24.048 114.846 24.064 115.054 24.08V22.08H114.83C113.886 22.08 113.022 22.544 112.414 23.36H112.382V22.192H110.59V30ZM121.064 30H123V22.4H123.016L126.12 27.808H127.384L130.488 22.4H130.52V30H132.456V18.64H130.52L126.776 25.44H126.744L123 18.64H121.064V30ZM138.308 30.128C139.396 30.128 140.228 29.712 140.788 28.96L140.82 28.976V30H142.532V22.192H140.74V23.136L140.708 23.152C140.148 22.448 139.284 22.08 138.292 22.08C136.148 22.08 134.532 23.776 134.532 26.128C134.532 28.544 136.148 30.128 138.308 30.128ZM138.596 28.496C137.268 28.496 136.356 27.52 136.356 26.144C136.356 24.64 137.348 23.696 138.596 23.696C139.876 23.696 140.82 24.752 140.82 26.144C140.82 27.552 139.812 28.496 138.596 28.496ZM144.793 30H146.585V26.304C146.585 25.024 147.353 24.048 148.713 24.048C148.841 24.048 149.049 24.064 149.257 24.08V22.08H149.033C148.089 22.08 147.225 22.544 146.617 23.36H146.585V22.192H144.793V30ZM150.746 30H152.538V27.936L153.802 26.56L155.898 30H157.914L155.05 25.328L157.866 22.192H155.738L152.57 25.808L152.538 25.792V18.224H150.746V30ZM166.007 26C166.007 23.728 164.519 22.08 162.327 22.08C160.039 22.08 158.407 23.696 158.407 26.096C158.407 28.544 160.087 30.128 162.455 30.128C164.135 30.128 165.111 29.504 165.767 28.656L164.519 27.584C164.119 28.08 163.479 28.496 162.551 28.496C161.335 28.496 160.487 27.824 160.263 26.688H165.959C165.975 26.56 166.007 26.288 166.007 26ZM162.311 23.696C163.335 23.696 163.975 24.336 164.199 25.28H160.295C160.551 24.256 161.319 23.696 162.311 23.696ZM170.176 30.128C171.2 30.128 171.696 29.92 172.16 29.664L171.696 28.112C171.28 28.336 170.848 28.448 170.544 28.448C170.032 28.448 169.792 28.16 169.792 27.36V23.712H172.08V22.192H169.792V19.408L168 19.6V22.192H167.04V23.712H168V27.536C168 29.28 168.832 30.128 170.176 30.128ZM173.699 33.168H175.491V29.056L175.523 29.04C176.099 29.744 176.915 30.128 177.971 30.128C180.147 30.128 181.763 28.544 181.763 26.128C181.763 23.776 180.147 22.08 177.987 22.08C176.963 22.08 176.099 22.448 175.523 23.12H175.491V22.192H173.699V33.168ZM177.699 28.496C176.419 28.496 175.411 27.552 175.411 26.144C175.411 24.752 176.339 23.696 177.683 23.696C178.931 23.696 179.939 24.64 179.939 26.144C179.939 27.52 179.011 28.496 177.699 28.496ZM183.749 30H185.541V18.224H183.749V30ZM191.292 30.128C192.38 30.128 193.212 29.712 193.772 28.96L193.804 28.976V30H195.516V22.192H193.724V23.136L193.692 23.152C193.132 22.448 192.268 22.08 191.276 22.08C189.132 22.08 187.516 23.776 187.516 26.128C187.516 28.544 189.132 30.128 191.292 30.128ZM191.58 28.496C190.252 28.496 189.34 27.52 189.34 26.144C189.34 24.64 190.332 23.696 191.58 23.696C192.86 23.696 193.804 24.752 193.804 26.144C193.804 27.552 192.796 28.496 191.58 28.496ZM201.297 30.128C202.993 30.128 204.001 29.52 204.657 28.672L203.425 27.584C203.025 28.112 202.321 28.496 201.457 28.496C200.081 28.496 199.137 27.536 199.137 26.096C199.137 24.672 200.065 23.696 201.457 23.696C202.305 23.696 202.977 24.064 203.425 24.592L204.641 23.536C203.857 22.576 202.577 22.08 201.361 22.08C198.993 22.08 197.313 23.712 197.313 26.112C197.313 28.496 198.993 30.128 201.297 30.128ZM213.429 26C213.429 23.728 211.941 22.08 209.749 22.08C207.461 22.08 205.829 23.696 205.829 26.096C205.829 28.544 207.509 30.128 209.877 30.128C211.557 30.128 212.533 29.504 213.189 28.656L211.941 27.584C211.541 28.08 210.901 28.496 209.973 28.496C208.757 28.496 207.909 27.824 207.685 26.688H213.381C213.397 26.56 213.429 26.288 213.429 26ZM209.733 23.696C210.757 23.696 211.397 24.336 211.621 25.28H207.717C207.973 24.256 208.741 23.696 209.733 23.696Z" fill="#121212"/>
<path fill-rule="evenodd" clip-rule="evenodd" d="M19.622 25.0538C21.1555 26.5931 21.1555 29.0827 19.622 30.622C18.0827 32.1555 15.5931 32.1555 14.0538 30.622L7.15011 23.7184C5.61663 22.179 5.61663 19.6895 7.15011 18.1501C8.68947 16.6166 11.179 16.6166 12.7184 18.1501L19.622 25.0538ZM34.8357 18.1619C36.3751 16.6285 38.8646 16.6285 40.404 18.1619C41.9373 19.7 41.939 22.188 40.408 23.7283L33.5043 30.6319C31.8999 32.16 29.3786 32.16 27.7743 30.6319L20.8706 23.7283C19.3385 22.1891 19.3385 19.7011 20.8706 18.1619C22.41 16.6285 24.8995 16.6285 26.4389 18.1619L30.6363 22.3613L34.8357 18.1619Z" fill="#121212"/>
</svg>
