<svg width="217" height="52" viewBox="0 0 217 52" fill="none" xmlns="http://www.w3.org/2000/svg">
<path d="M62.112 32H63.92L66.288 23.456H66.32L68.64 32H70.448L74.048 20.64H72L69.552 28.816H69.52L67.312 20.64H65.264L63.04 28.832H63.008L60.576 20.64H58.512L62.112 32ZM77.7173 32.128C78.6133 32.128 79.4773 31.76 80.1013 31.008L80.1333 31.024V32H81.9253V24.192H80.1333V27.936C80.1333 29.616 79.1733 30.496 78.1333 30.496C77.0613 30.496 76.5813 30.016 76.5813 28.464V24.192H74.7893V28.944C74.7893 31.264 75.9893 32.128 77.7173 32.128ZM84.1993 32H85.9913V28.08C85.9913 26.544 86.7913 25.696 88.0073 25.696C89.0793 25.696 89.7033 26.224 89.7033 27.872V32H91.4953V27.408C91.4953 25.056 90.3433 24.08 88.6313 24.08C87.6073 24.08 86.6633 24.496 86.0233 25.264H85.9913V24.192H84.1993V32ZM96.9956 32.128C98.1156 32.128 98.9636 31.696 99.5396 30.944H99.5556V32H101.268V20.224H99.4916V25.152H99.4756C98.8836 24.448 98.0036 24.08 96.9796 24.08C94.8356 24.08 93.2036 25.776 93.2036 28.128C93.2036 30.544 94.8356 32.128 96.9956 32.128ZM97.2676 30.496C95.9556 30.496 95.0276 29.52 95.0276 28.144C95.0276 26.64 96.0356 25.696 97.2836 25.696C98.6276 25.696 99.5556 26.752 99.5556 28.144C99.5556 29.552 98.5476 30.496 97.2676 30.496ZM110.742 28C110.742 25.728 109.254 24.08 107.062 24.08C104.774 24.08 103.142 25.696 103.142 28.096C103.142 30.544 104.822 32.128 107.19 32.128C108.87 32.128 109.846 31.504 110.502 30.656L109.254 29.584C108.854 30.08 108.214 30.496 107.286 30.496C106.07 30.496 105.222 29.824 104.998 28.688H110.694C110.71 28.56 110.742 28.288 110.742 28ZM107.046 25.696C108.07 25.696 108.71 26.336 108.934 27.28H105.03C105.286 26.256 106.054 25.696 107.046 25.696ZM112.59 32H114.382V28.304C114.382 27.024 115.15 26.048 116.51 26.048C116.638 26.048 116.846 26.064 117.054 26.08V24.08H116.83C115.886 24.08 115.022 24.544 114.414 25.36H114.382V24.192H112.59V32ZM123.064 32H125V24.4H125.016L128.12 29.808H129.384L132.488 24.4H132.52V32H134.456V20.64H132.52L128.776 27.44H128.744L125 20.64H123.064V32ZM140.308 32.128C141.396 32.128 142.228 31.712 142.788 30.96L142.82 30.976V32H144.532V24.192H142.74V25.136L142.708 25.152C142.148 24.448 141.284 24.08 140.292 24.08C138.148 24.08 136.532 25.776 136.532 28.128C136.532 30.544 138.148 32.128 140.308 32.128ZM140.596 30.496C139.268 30.496 138.356 29.52 138.356 28.144C138.356 26.64 139.348 25.696 140.596 25.696C141.876 25.696 142.82 26.752 142.82 28.144C142.82 29.552 141.812 30.496 140.596 30.496ZM146.793 32H148.585V28.304C148.585 27.024 149.353 26.048 150.713 26.048C150.841 26.048 151.049 26.064 151.257 26.08V24.08H151.033C150.089 24.08 149.225 24.544 148.617 25.36H148.585V24.192H146.793V32ZM152.746 32H154.538V29.936L155.802 28.56L157.898 32H159.914L157.05 27.328L159.866 24.192H157.738L154.57 27.808L154.538 27.792V20.224H152.746V32ZM168.007 28C168.007 25.728 166.519 24.08 164.327 24.08C162.039 24.08 160.407 25.696 160.407 28.096C160.407 30.544 162.087 32.128 164.455 32.128C166.135 32.128 167.111 31.504 167.767 30.656L166.519 29.584C166.119 30.08 165.479 30.496 164.551 30.496C163.335 30.496 162.487 29.824 162.263 28.688H167.959C167.975 28.56 168.007 28.288 168.007 28ZM164.311 25.696C165.335 25.696 165.975 26.336 166.199 27.28H162.295C162.551 26.256 163.319 25.696 164.311 25.696ZM172.176 32.128C173.2 32.128 173.696 31.92 174.16 31.664L173.696 30.112C173.28 30.336 172.848 30.448 172.544 30.448C172.032 30.448 171.792 30.16 171.792 29.36V25.712H174.08V24.192H171.792V21.408L170 21.6V24.192H169.04V25.712H170V29.536C170 31.28 170.832 32.128 172.176 32.128ZM175.699 35.168H177.491V31.056L177.523 31.04C178.099 31.744 178.915 32.128 179.971 32.128C182.147 32.128 183.763 30.544 183.763 28.128C183.763 25.776 182.147 24.08 179.987 24.08C178.963 24.08 178.099 24.448 177.523 25.12H177.491V24.192H175.699V35.168ZM179.699 30.496C178.419 30.496 177.411 29.552 177.411 28.144C177.411 26.752 178.339 25.696 179.683 25.696C180.931 25.696 181.939 26.64 181.939 28.144C181.939 29.52 181.011 30.496 179.699 30.496ZM185.749 32H187.541V20.224H185.749V32ZM193.292 32.128C194.38 32.128 195.212 31.712 195.772 30.96L195.804 30.976V32H197.516V24.192H195.724V25.136L195.692 25.152C195.132 24.448 194.268 24.08 193.276 24.08C191.132 24.08 189.516 25.776 189.516 28.128C189.516 30.544 191.132 32.128 193.292 32.128ZM193.58 30.496C192.252 30.496 191.34 29.52 191.34 28.144C191.34 26.64 192.332 25.696 193.58 25.696C194.86 25.696 195.804 26.752 195.804 28.144C195.804 29.552 194.796 30.496 193.58 30.496ZM203.297 32.128C204.993 32.128 206.001 31.52 206.657 30.672L205.425 29.584C205.025 30.112 204.321 30.496 203.457 30.496C202.081 30.496 201.137 29.536 201.137 28.096C201.137 26.672 202.065 25.696 203.457 25.696C204.305 25.696 204.977 26.064 205.425 26.592L206.641 25.536C205.857 24.576 204.577 24.08 203.361 24.08C200.993 24.08 199.313 25.712 199.313 28.112C199.313 30.496 200.993 32.128 203.297 32.128ZM215.429 28C215.429 25.728 213.941 24.08 211.749 24.08C209.461 24.08 207.829 25.696 207.829 28.096C207.829 30.544 209.509 32.128 211.877 32.128C213.557 32.128 214.533 31.504 215.189 30.656L213.941 29.584C213.541 30.08 212.901 30.496 211.973 30.496C210.757 30.496 209.909 29.824 209.685 28.688H215.381C215.397 28.56 215.429 28.288 215.429 28ZM211.733 25.696C212.757 25.696 213.397 26.336 213.621 27.28H209.717C209.973 26.256 210.741 25.696 211.733 25.696Z" fill="#121212"/>
<path d="M21.7206 33.5607C21.3689 33.913 20.9512 34.1925 20.4914 34.3832C20.0316 34.5739 19.5387 34.6721 19.0409 34.6721C18.5431 34.6721 18.0502 34.5739 17.5904 34.3832C17.1305 34.1925 16.7128 33.913 16.3612 33.5607L15.902 33.0026L9.1 24.7531C8.76345 24.3776 8.50531 23.9386 8.34073 23.4619C8.17614 22.9852 8.10843 22.4805 8.14157 21.9773C8.17471 21.4741 8.30803 20.9826 8.5337 20.5317C8.75937 20.0807 9.07285 19.6793 9.45574 19.3512C9.83863 19.023 10.2832 18.7746 10.7634 18.6206C11.2436 18.4666 11.7497 18.4101 12.252 18.4543C12.7544 18.4985 13.2428 18.6427 13.6887 18.8783C14.1346 19.1139 14.5289 19.4361 14.8485 19.8262L21.7206 28.2061C22.4307 28.9162 22.8296 29.8792 22.8296 30.8834C22.8296 31.8876 22.4307 32.8506 21.7206 33.5607Z" fill="#141414"/>
<path d="M42.5617 24.5357L35.8902 32.7102C35.7897 32.8487 35.6782 32.9788 35.5567 33.0992C34.8287 33.8255 33.8424 34.2334 32.8141 34.2334C31.7858 34.2334 30.7995 33.8255 30.0716 33.0992C29.9486 32.9794 29.8362 32.8493 29.7357 32.7102H29.7164C29.7164 32.7102 23.2743 24.7169 23.2743 24.7145C22.5777 23.9589 22.2098 22.9575 22.2515 21.9307C22.2932 20.9038 22.7411 19.9356 23.4967 19.239C24.2522 18.5424 25.2536 18.1745 26.2804 18.2161C27.3073 18.2578 28.2755 18.7057 28.9721 19.4613C29.0833 19.5725 29.2862 19.8141 29.2862 19.8141L32.8141 24.3689L36.4773 19.7488C36.5522 19.6594 36.6344 19.5676 36.719 19.4806C37.3893 18.7046 38.3405 18.2265 39.3633 18.1518C40.386 18.077 41.3966 18.4116 42.1727 19.0819C42.9488 19.7523 43.4268 20.7034 43.5015 21.7262C43.5763 22.749 43.2417 23.7596 42.5714 24.5357H42.5617Z" fill="#141414"/>
</svg>
