<?xml version="1.0" encoding="UTF-8" standalone="no"?>
<!-- Created with Keyshape -->
<svg xmlns="http://www.w3.org/2000/svg" shape-rendering="geometricPrecision" text-rendering="geometricPrecision" viewBox="0 0 824 1048" style="white-space: pre;">
    <style>
@keyframes a0_t { 0% { transform: translate(0px,0px); } 100% { transform: translate(0px,0px); } }
@keyframes a0_w { 0% { width: 824px; } 100% { width: 824px; } }
@keyframes a0_h { 0% { height: 1048px; } 100% { height: 1048px; } }
@keyframes a1_t { 0% { transform: translate(78.666667px,238.00002px); } 100% { transform: translate(78.666667px,238.00002px); } }
@keyframes a2_t { 0% { transform: translate(74.424479px,377.333667px); } 100% { transform: translate(74.424479px,377.333667px); } }
@keyframes a3_t { 0% { transform: translate(74.502604px,526.000333px); } 100% { transform: translate(74.502604px,526.000333px); } }
@keyframes a4_t { 0% { transform: translate(74.338542px,674.000333px); } 100% { transform: translate(74.338542px,674.000333px); } }
@keyframes a5_t { 0% { transform: translate(73.861979px,822.667px); } 100% { transform: translate(73.861979px,822.667px); } }
@keyframes a6_t { 0% { transform: translate(68.486979px,971.333667px); } 100% { transform: translate(68.486979px,971.333667px); } }
@keyframes dark-gray_h { 0% { height: 0px; animation-timing-function: cubic-bezier(0,0,0.435,1); } 3.75% { height: 512.995px; } 75% { height: 512.995px; animation-timing-function: cubic-bezier(0.565,0,1,1); } 78.75% { height: 0px; } 100% { height: 0px; } }
@keyframes teal_h { 0% { height: 0px; } 1.25% { height: 0px; animation-timing-function: cubic-bezier(0,0,0.58,1); } 5% { height: 84564.7px; } 75% { height: 84354.6px; animation-timing-function: cubic-bezier(0.42,0,1,1); } 78.75% { height: 0px; } 100% { height: 0px; } }
@keyframes orange_h { 0% { height: 0px; } 2.5% { height: 0px; animation-timing-function: cubic-bezier(0,0,0.58,1); } 11.25% { height: 84564.7px; } 75% { height: 84564.1px; animation-timing-function: cubic-bezier(0.42,0,1,1); } 83.75% { height: 0px; } 100% { height: 0px; } }
@keyframes yellow_h { 0% { height: 0px; } 1.25% { height: 0px; animation-timing-function: cubic-bezier(0,0,0.58,1); } 8.75% { height: 84671.3px; } 75% { height: 84670.7px; animation-timing-function: cubic-bezier(0.42,0,1,1); } 82.5% { height: 0px; } 100% { height: 0px; } }
@keyframes light-gray_h { 0% { height: 0px; } 5% { height: 0px; animation-timing-function: cubic-bezier(0,0,0.58,1); } 12.5% { height: 84324.6px; } 75% { height: 84325.1px; animation-timing-function: cubic-bezier(0.42,0,1,1); } 82.5% { height: 0px; } 100% { height: 0px; } }
@keyframes light-blue_h { 0% { height: 0px; } 3.75% { height: 0px; animation-timing-function: cubic-bezier(0,0,0.58,1); } 11.25% { height: 85568px; } 75% { height: 85567.1px; animation-timing-function: cubic-bezier(0.42,0,1,1); } 82.5% { height: 0px; } 100% { height: 0px; } }
@keyframes pink_h { 0% { height: 0px; } 7.5% { height: 0px; animation-timing-function: cubic-bezier(0,0,0.58,1); } 15% { height: 112052px; } 75% { height: 112052px; animation-timing-function: cubic-bezier(0.42,0,1,1); } 82.5% { height: 0px; } 100% { height: 0px; } }
    </style>
    <rect width="824" height="1048" fill="#ffffff" stroke="none" transform="translate(390,503) translate(-390,-503)" style="animation: 8s linear infinite both a0_t, 8s linear infinite both a0_w, 8s linear infinite both a0_h;"/>
    <path fill="#1f1f1f" stroke="none" d="M3.52,0L8.36,0L8.36,-19L8.4,-19L16.16,-5.48L19.32,-5.48L27.08,-19L27.16,-19L27.16,0L32,0L32,-28.4L27.16,-28.4L17.8,-11.4L17.72,-11.4L8.36,-28.4L3.52,-28.4ZM40.3619,-22.4C42.0419,-22.4,43.4019,-23.76,43.4019,-25.4C43.4019,-27,42.0419,-28.36,40.3619,-28.36C38.6819,-28.36,37.3619,-27,37.3619,-25.4C37.3619,-23.76,38.6819,-22.4,40.3619,-22.4ZM38.1219,0L42.6019,0L42.6019,-19.52L38.1219,-19.52ZM48.9969,0L53.4769,0L53.4769,-29.44L48.9969,-29.44ZM77.4319,-10C77.4319,-15.68,73.7119,-19.8,68.2319,-19.8C62.5119,-19.8,58.4319,-15.76,58.4319,-9.76C58.4319,-3.64,62.6319,0.32,68.5519,0.32C72.7519,0.32,75.1919,-1.24,76.8319,-3.36L73.7119,-6.04C72.7119,-4.8,71.1119,-3.76,68.7919,-3.76C65.7519,-3.76,63.6319,-5.44,63.0719,-8.28L77.3119,-8.28C77.3519,-8.6,77.4319,-9.28,77.4319,-10ZM68.1919,-15.76C70.7519,-15.76,72.3519,-14.16,72.9119,-11.8L63.1519,-11.8C63.7919,-14.36,65.7119,-15.76,68.1919,-15.76ZM88.3163,0.32C93.2762,0.32,95.5963,-2.32,95.5963,-5.6C95.5963,-9.48,92.9962,-10.24,88.8363,-11.88C86.9563,-12.6,85.7562,-13.28,85.7562,-14.24C85.7562,-15.44,86.9962,-15.92,87.8763,-15.92C89.3962,-15.92,91.1963,-15.32,92.7562,-13.84L94.9962,-17.36C92.8363,-19.12,90.5963,-19.8,88.1162,-19.8C84.1162,-19.8,81.2363,-17.48,81.2363,-14.28C81.2363,-10.44,83.9962,-9,87.1963,-7.88C89.7562,-7,91.0362,-6.52,91.0362,-5.52C91.0362,-4.36,90.0363,-3.6,88.3163,-3.6C85.9163,-3.6,84.2363,-4.36,82.6762,-5.88L80.4362,-2.52C82.4762,-0.72,85.1562,0.32,88.3163,0.32ZM117.148,0L121.988,0L121.988,-24.08L130.148,-24.08L130.148,-28.4L109.108,-28.4L109.108,-24.08L117.148,-24.08ZM131.826,0L136.306,0L136.306,-9.24C136.306,-12.44,138.226,-14.88,141.626,-14.88C141.946,-14.88,142.466,-14.84,142.986,-14.8L142.986,-19.8L142.426,-19.8C140.066,-19.8,137.906,-18.64,136.386,-16.6L136.306,-16.6L136.306,-19.52L131.826,-19.52ZM154.379,0.32C157.099,0.32,159.179,-0.72,160.579,-2.6L160.659,-2.56L160.659,0L164.939,0L164.939,-19.52L160.459,-19.52L160.459,-17.16L160.379,-17.12C158.979,-18.88,156.819,-19.8,154.339,-19.8C148.979,-19.8,144.939,-15.56,144.939,-9.68C144.939,-3.64,148.979,0.32,154.379,0.32ZM155.099,-3.76C151.779,-3.76,149.499,-6.2,149.499,-9.64C149.499,-13.4,151.979,-15.76,155.099,-15.76C158.299,-15.76,160.659,-13.12,160.659,-9.64C160.659,-6.12,158.139,-3.76,155.099,-3.76ZM176.176,0L180.456,0L188.216,-19.52L183.456,-19.52L178.376,-5.6L178.336,-5.6L173.256,-19.52L168.456,-19.52ZM208.572,-10C208.572,-15.68,204.853,-19.8,199.372,-19.8C193.652,-19.8,189.572,-15.76,189.572,-9.76C189.572,-3.64,193.773,0.32,199.693,0.32C203.893,0.32,206.333,-1.24,207.973,-3.36L204.853,-6.04C203.852,-4.8,202.253,-3.76,199.932,-3.76C196.893,-3.76,194.773,-5.44,194.212,-8.28L208.452,-8.28C208.492,-8.6,208.572,-9.28,208.572,-10ZM199.333,-15.76C201.893,-15.76,203.492,-14.16,204.053,-11.8L194.292,-11.8C194.932,-14.36,196.852,-15.76,199.333,-15.76ZM213.497,0L217.977,0L217.977,-29.44L213.497,-29.44ZM241.932,-10C241.932,-15.68,238.212,-19.8,232.732,-19.8C227.012,-19.8,222.932,-15.76,222.932,-9.76C222.932,-3.64,227.132,0.32,233.052,0.32C237.252,0.32,239.692,-1.24,241.332,-3.36L238.212,-6.04C237.212,-4.8,235.612,-3.76,233.292,-3.76C230.252,-3.76,228.132,-5.44,227.572,-8.28L241.812,-8.28C241.852,-8.6,241.932,-9.28,241.932,-10ZM232.692,-15.76C235.252,-15.76,236.852,-14.16,237.412,-11.8L227.652,-11.8C228.292,-14.36,230.212,-15.76,232.692,-15.76ZM254.856,0.32C257.656,0.32,259.776,-0.76,261.216,-2.64L261.256,-2.64L261.256,0L265.536,0L265.536,-29.44L261.096,-29.44L261.096,-17.12L261.056,-17.12C259.576,-18.88,257.376,-19.8,254.816,-19.8C249.456,-19.8,245.376,-15.56,245.376,-9.68C245.376,-3.64,249.456,0.32,254.856,0.32ZM255.536,-3.76C252.256,-3.76,249.936,-6.2,249.936,-9.64C249.936,-13.4,252.456,-15.76,255.576,-15.76C258.936,-15.76,261.256,-13.12,261.256,-9.64C261.256,-6.12,258.736,-3.76,255.536,-3.76ZM282.092,7.92L286.572,7.92L286.572,-2.36L286.652,-2.4C288.092,-0.64,290.132,0.32,292.772,0.32C298.212,0.32,302.252,-3.64,302.252,-9.68C302.252,-15.56,298.212,-19.8,292.812,-19.8C290.252,-19.8,288.092,-18.88,286.652,-17.2L286.572,-17.2L286.572,-19.52L282.092,-19.52ZM292.092,-3.76C288.892,-3.76,286.372,-6.12,286.372,-9.64C286.372,-13.12,288.692,-15.76,292.052,-15.76C295.172,-15.76,297.692,-13.4,297.692,-9.64C297.692,-6.2,295.372,-3.76,292.092,-3.76ZM324.776,-10C324.776,-15.68,321.056,-19.8,315.576,-19.8C309.856,-19.8,305.776,-15.76,305.776,-9.76C305.776,-3.64,309.976,0.32,315.896,0.32C320.096,0.32,322.536,-1.24,324.176,-3.36L321.056,-6.04C320.056,-4.8,318.456,-3.76,316.136,-3.76C313.096,-3.76,310.976,-5.44,310.416,-8.28L324.656,-8.28C324.696,-8.6,324.776,-9.28,324.776,-10ZM315.536,-15.76C318.096,-15.76,319.696,-14.16,320.256,-11.8L310.496,-11.8C311.136,-14.36,313.056,-15.76,315.536,-15.76ZM329.42,0L333.9,0L333.9,-9.24C333.9,-12.44,335.82,-14.88,339.22,-14.88C339.54,-14.88,340.06,-14.84,340.58,-14.8L340.58,-19.8L340.02,-19.8C337.66,-19.8,335.5,-18.64,333.98,-16.6L333.9,-16.6L333.9,-19.52L329.42,-19.52ZM363.894,0L368.174,0L378.774,-28.4L373.614,-28.4L366.094,-6.96L366.054,-6.96L358.494,-28.4L353.294,-28.4ZM397.369,-10C397.369,-15.68,393.649,-19.8,388.169,-19.8C382.449,-19.8,378.369,-15.76,378.369,-9.76C378.369,-3.64,382.569,0.32,388.489,0.32C392.689,0.32,395.129,-1.24,396.769,-3.36L393.649,-6.04C392.649,-4.8,391.049,-3.76,388.729,-3.76C385.689,-3.76,383.569,-5.44,383.009,-8.28L397.249,-8.28C397.289,-8.6,397.369,-9.28,397.369,-10ZM388.129,-15.76C390.689,-15.76,392.289,-14.16,392.849,-11.8L383.089,-11.8C383.729,-14.36,385.649,-15.76,388.129,-15.76ZM402.014,0L406.494,0L406.494,-9.92C406.494,-13.76,408.494,-15.76,411.734,-15.76C414.414,-15.76,415.974,-14.4,415.974,-10.52L415.974,0L420.454,0L420.454,-11.68C420.454,-17.52,417.454,-19.8,413.174,-19.8C410.534,-19.8,408.174,-18.88,406.534,-17.08L406.494,-17.08L406.494,-29.44L402.014,-29.44ZM428.456,-22.4C430.136,-22.4,431.496,-23.76,431.496,-25.4C431.496,-27,430.136,-28.36,428.456,-28.36C426.776,-28.36,425.456,-27,425.456,-25.4C425.456,-23.76,426.776,-22.4,428.456,-22.4ZM426.216,0L430.696,0L430.696,-19.52L426.216,-19.52ZM445.611,0.32C449.851,0.32,452.371,-1.2,454.011,-3.32L450.931,-6.04C449.931,-4.72,448.171,-3.76,446.011,-3.76C442.571,-3.76,440.211,-6.16,440.211,-9.76C440.211,-13.32,442.531,-15.76,446.011,-15.76C448.131,-15.76,449.811,-14.84,450.931,-13.52L453.971,-16.16C452.011,-18.56,448.811,-19.8,445.771,-19.8C439.851,-19.8,435.651,-15.72,435.651,-9.72C435.651,-3.76,439.851,0.32,445.611,0.32ZM458.372,0L462.852,0L462.852,-29.44L458.372,-29.44ZM486.807,-10C486.807,-15.68,483.087,-19.8,477.607,-19.8C471.887,-19.8,467.807,-15.76,467.807,-9.76C467.807,-3.64,472.007,0.32,477.927,0.32C482.127,0.32,484.567,-1.24,486.207,-3.36L483.087,-6.04C482.087,-4.8,480.487,-3.76,478.167,-3.76C475.127,-3.76,473.007,-5.44,472.447,-8.28L486.687,-8.28C486.727,-8.6,486.807,-9.28,486.807,-10ZM477.567,-15.76C480.127,-15.76,481.727,-14.16,482.287,-11.8L472.527,-11.8C473.167,-14.36,475.087,-15.76,477.567,-15.76Z" transform="translate(68,108.12)"/>
    <path fill="#b2b2b2" stroke="none" d="M-12.4619,0L-10.7819,0L-10.7819,-13.74L-12.1819,-13.74L-16.0219,-10.9L-15.2019,-9.64L-12.4619,-11.72ZM-2.74437,0.12C0.535625,0.12,2.41562,-2.8,2.41562,-6.86C2.41562,-11.36,0.235625,-13.86,-2.74437,-13.86C-6.00437,-13.86,-7.90438,-10.94,-7.90438,-6.86C-7.90438,-2.38,-5.72437,0.12,-2.74437,0.12ZM-2.74437,-1.44C-4.76438,-1.44,-6.18437,-3.38,-6.18437,-6.86C-6.18437,-10.16,-4.92438,-12.3,-2.74437,-12.3C-0.704375,-12.3,0.695625,-10.36,0.695625,-6.86C0.695625,-3.58,-0.544375,-1.44,-2.74437,-1.44ZM5.26,0L7,0L7,-3.94L9.06,-6.36L13.68,0L15.86,0L10.22,-7.72L15.72,-14.2L13.48,-14.2L7.04,-6.42L7,-6.42L7,-14.2L5.26,-14.2Z" transform="translate(78.6667,238)" style="animation: 8s linear infinite both a1_t;"/>
    <path fill="#b2b2b2" stroke="none" d="M-6.47969,0.12C-3.77969,0.12,-1.63969,-1.4,-1.63969,-3.78C-1.63969,-5.64,-2.75969,-6.96,-4.27969,-7.42L-4.27969,-7.46C-3.31969,-7.78,-2.31969,-8.88,-2.31969,-10.36C-2.31969,-12.46,-3.99969,-13.86,-6.47969,-13.86C-8.81969,-13.86,-10.6197,-12.56,-10.6197,-10.36C-10.6197,-8.9,-9.63969,-7.82,-8.67969,-7.46L-8.67969,-7.42C-10.1797,-6.94,-11.2997,-5.62,-11.2997,-3.78C-11.2997,-1.54,-9.31969,0.12,-6.47969,0.12ZM-6.47969,-8.16C-7.95969,-8.16,-8.99969,-8.96,-8.99969,-10.22C-8.99969,-11.4,-8.01969,-12.36,-6.47969,-12.36C-5.01969,-12.36,-3.93969,-11.48,-3.93969,-10.22C-3.93969,-8.96,-4.97969,-8.16,-6.47969,-8.16ZM-6.47969,-1.4C-8.21969,-1.4,-9.57969,-2.48,-9.57969,-3.96C-9.57969,-5.54,-8.35969,-6.6,-6.47969,-6.6C-4.61969,-6.6,-3.35969,-5.54,-3.35969,-3.96C-3.35969,-2.58,-4.59969,-1.4,-6.47969,-1.4ZM1.01781,0L2.75781,0L2.75781,-3.94L4.81781,-6.36L9.43781,0L11.6178,0L5.97781,-7.72L11.4778,-14.2L9.23781,-14.2L2.79781,-6.42L2.75781,-6.42L2.75781,-14.2L1.01781,-14.2Z" transform="translate(74.4245,377.334)" style="animation: 8s linear infinite both a2_t;"/>
    <path fill="#b2b2b2" stroke="none" d="M-5.89781,-8.66C-7.21781,-8.66,-8.41781,-8.2,-9.27781,-7.44C-8.49781,-10.44,-6.21781,-12.1,-3.71781,-12.74L-4.21781,-14.16C-7.83781,-13.5,-11.1978,-10.14,-11.1978,-5.26C-11.1978,-2,-9.09781,0.12,-6.37781,0.12C-3.63781,0.12,-1.61781,-1.78,-1.61781,-4.3C-1.61781,-7.04,-3.41781,-8.66,-5.89781,-8.66ZM-6.27781,-1.44C-8.09781,-1.44,-9.55781,-2.92,-9.55781,-5.08L-9.55781,-5.2C-8.93781,-6.2,-7.79781,-7.12,-6.27781,-7.12C-4.47781,-7.12,-3.29781,-5.98,-3.29781,-4.32C-3.29781,-2.76,-4.47781,-1.44,-6.27781,-1.44ZM1.09594,0L2.83594,0L2.83594,-3.94L4.89594,-6.36L9.51594,0L11.6959,0L6.05594,-7.72L11.5559,-14.2L9.31594,-14.2L2.87594,-6.42L2.83594,-6.42L2.83594,-14.2L1.09594,-14.2Z" transform="translate(74.5026,526)" style="animation: 8s linear infinite both a3_t;"/>
    <path fill="#b2b2b2" stroke="none" d="M-5.13375,0L-3.45375,0L-3.45375,-2.42L-1.45375,-2.42L-1.45375,-3.94L-3.45375,-3.94L-3.45375,-13.74L-4.87375,-13.74L-11.5138,-3.62L-11.5138,-2.42L-5.13375,-2.42ZM-9.55375,-3.9L-5.07375,-10.88L-5.07375,-3.9ZM0.931875,0L2.67188,0L2.67188,-3.94L4.73187,-6.36L9.35188,0L11.5319,0L5.89187,-7.72L11.3919,-14.2L9.15188,-14.2L2.71187,-6.42L2.67188,-6.42L2.67188,-14.2L0.931875,-14.2Z" transform="translate(74.3385,674)" style="animation: 8s linear infinite both a4_t;"/>
    <path fill="#b2b2b2" stroke="none" d="M-10.8572,0L-2.21719,0L-2.21719,-1.54L-8.29719,-1.54L-8.31719,-1.6L-4.73719,-5.2C-3.03719,-6.92,-2.37719,-8.26,-2.37719,-9.8C-2.37719,-12.34,-4.37719,-13.84,-6.57719,-13.84C-8.71719,-13.84,-10.0972,-12.76,-10.8572,-11.24L-9.61719,-10.38C-8.97719,-11.62,-7.97719,-12.26,-6.67719,-12.26C-5.15719,-12.26,-4.09719,-11.14,-4.09719,-9.62C-4.09719,-8.26,-5.01719,-7.16,-6.17719,-5.96L-10.8772,-1.16ZM0.455312,0L2.19531,0L2.19531,-3.94L4.25531,-6.36L8.87531,0L11.0553,0L5.41531,-7.72L10.9153,-14.2L8.67531,-14.2L2.23531,-6.42L2.19531,-6.42L2.19531,-14.2L0.455312,-14.2Z" transform="translate(73.862,822.667)" style="animation: 8s linear infinite both a5_t;"/>
    <path fill="#b2b2b2" stroke="none" d="M-0.00218725,0.12C3.27781,0.12,5.15781,-2.8,5.15781,-6.86C5.15781,-11.36,2.97781,-13.86,-0.00218725,-13.86C-3.26219,-13.86,-5.16219,-10.94,-5.16219,-6.86C-5.16219,-2.38,-2.98219,0.12,-0.00218725,0.12ZM-0.00218725,-1.44C-2.02219,-1.44,-3.44219,-3.38,-3.44219,-6.86C-3.44219,-10.16,-2.18219,-12.3,-0.00218725,-12.3C2.03781,-12.3,3.43781,-10.36,3.43781,-6.86C3.43781,-3.58,2.19781,-1.44,-0.00218725,-1.44Z" transform="translate(68.487,971.334)" style="animation: 8s linear infinite both a6_t;"/>
    <path d="M0,0L690.667,0" fill="none" stroke="#b2b2b2" transform="translate(61.3333,986.667)"/>
    <path d="M0,0L690.667,0" fill="none" stroke="#b2b2b2" transform="translate(61.3333,244)"/>
    <path d="M0,0L690.667,0" fill="none" stroke="#b2b2b2" transform="translate(61.3333,392.533)"/>
    <path d="M0,0L690.667,0" fill="none" stroke="#b2b2b2" transform="translate(61.3333,541.067)"/>
    <path d="M0,0L690.667,0" fill="none" stroke="#b2b2b2" transform="translate(61.3333,689.6)"/>
    <path d="M0,0L690.667,0" fill="none" stroke="#b2b2b2" transform="translate(61.3333,838.133)"/>
    <rect id="dark-gray" width="50" height="0" fill="#374649" stroke="none" transform="translate(178.667,994.667) scale(1,-1.44842) translate(-24,5.64675)" style="animation: 8s linear infinite both dark-gray_h;"/>
    <rect id="teal" width="50" height="0" fill="#02b8aa" stroke="none" transform="translate(262.056,986.187) scale(1,-0.00702946) translate(-24.6667,-42.8114)" style="animation: 8s linear infinite both teal_h;"/>
    <rect id="orange" width="50" height="0" fill="#fd625d" stroke="none" transform="translate(344.778,986.187) scale(1,-0.00702946) translate(-24.6667,-42.8114)" style="animation: 8s linear infinite both orange_h;"/>
    <rect id="yellow" width="50" height="0" fill="#f2c80f" stroke="none" transform="translate(427.5,986.262) scale(1,-0.00526616) translate(-24.6667,-42.8114)" style="animation: 8s linear infinite both yellow_h;"/>
    <rect id="light-gray" width="50" height="0" fill="#5f6b6d" stroke="none" transform="translate(510.222,986.337) scale(1,-0.00352659) translate(-24.6667,-42.8114)" style="animation: 8s linear infinite both light-gray_h;"/>
    <rect id="light-blue" width="50" height="0" fill="#8ad4eb" stroke="none" transform="translate(592.944,986.413) scale(1,-0.00173957) translate(-24.6667,-42.8114)" style="animation: 8s linear infinite both light-blue_h;"/>
    <rect id="pink" width="50" height="0" fill="#ec008c" stroke="none" transform="translate(675.667,986.431) scale(1,-0.0013284) translate(-24.6667,-42.8114)" style="animation: 8s linear infinite both pink_h;"/>
</svg>
