<?xml version="1.0" encoding="UTF-8" standalone="no"?>
<!-- Created with Keyshape -->
<svg xmlns="http://www.w3.org/2000/svg" width="51" height="51" viewBox="0 0 51 51" fill="none">
    <style>
@keyframes a0_t { 0% { transform: translate(25.5006px,25.5px) rotate(0deg) translate(-15.1461px,-15.1462px); animation-timing-function: cubic-bezier(0,0,0.58,1); } 7.1428% { transform: translate(25.5006px,25.5px) rotate(-103.25163deg) translate(-15.1461px,-15.1462px); animation-timing-function: cubic-bezier(0,0,0.58,1); } 12.8571% { transform: translate(25.5006px,25.5px) rotate(44.965806deg) translate(-15.1461px,-15.1462px); animation-timing-function: cubic-bezier(0,0,0.58,1); } 18.5714% { transform: translate(25.5006px,25.5px) rotate(-63.885306deg) translate(-15.1461px,-15.1462px); animation-timing-function: cubic-bezier(0,0,0.58,1); } 22.8571% { transform: translate(25.5006px,25.5px) rotate(-22.746762deg) translate(-15.1461px,-15.1462px); } 27.1428% { transform: translate(25.5006px,25.5px) rotate(-54.183433deg) translate(-15.1461px,-15.1462px); animation-timing-function: cubic-bezier(0,0,0.58,1); } 30% { transform: translate(25.5006px,25.5px) rotate(-37.255561deg) translate(-15.1461px,-15.1462px); } 32.8571% { transform: translate(25.5006px,25.5px) rotate(-44.931778deg) translate(-15.1461px,-15.1462px); } 57.1428% { transform: translate(25.5006px,25.5px) rotate(-44.93deg) translate(-15.1461px,-15.1462px); animation-timing-function: cubic-bezier(0,0,0.58,1); } 65.7142% { transform: translate(25.5006px,25.5px) rotate(-22.746762deg) translate(-15.1461px,-15.1462px); animation-timing-function: cubic-bezier(0,0,0.58,1); } 72.1428% { transform: translate(25.5006px,25.5px) rotate(-103.25163deg) translate(-15.1461px,-15.1462px); animation-timing-function: cubic-bezier(0,0,0.58,1); } 85.7142% { transform: translate(25.5006px,25.5px) rotate(0deg) translate(-15.1461px,-15.1462px); } 100% { transform: translate(25.5006px,25.5px) rotate(0deg) translate(-15.1461px,-15.1462px); } }
    </style>
    <path d="M35.2408,4.18462C39.3609,7.95515,41.9979,13.074,42.6761,18.6177C43.3542,24.1614,42.0288,29.765,38.939,34.4175C35.8492,39.07,31.1984,42.4651,25.8257,43.9903C20.4529,45.5155,14.712,45.0704,9.63855,42.7353C12.131,45.0344,15.0926,46.7651,18.3191,47.8081C21.5456,48.8511,24.9599,49.1815,28.3265,48.7764C31.693,48.3713,34.9316,47.2404,37.8185,45.4619C40.7055,43.6833,43.1721,41.2994,45.048,38.4747C46.9239,35.65,48.1644,32.4519,48.684,29.1011C49.2035,25.7503,48.9897,22.3266,48.0573,19.0665C47.1248,15.8064,45.496,12.7875,43.2832,10.2182C41.0704,7.64885,38.3264,5.59037,35.2405,4.18483L35.2408,4.18462Z" fill="#2781FF" fill-opacity="0.2"/>
    <path d="M25.5,0C20.4566,0,15.5264,1.49555,11.333,4.29752C7.13952,7.0995,3.87112,11.0821,1.94108,15.7416C0.0110487,20.4011,-0.493936,25.5283,0.489987,30.4748C1.47391,35.4213,3.90255,39.965,7.46879,43.5312C11.035,47.0975,15.5787,49.5261,20.5252,50.51C25.4717,51.4939,30.5989,50.989,35.2584,49.0589C39.918,47.1289,43.9005,43.8605,46.7025,39.667C49.5045,35.4736,51,30.5434,51,25.5C51,18.737,48.3134,12.251,43.5312,7.46878C38.7491,2.6866,32.263,0,25.5,0L25.5,0ZM25.5,48.96C20.8601,48.96,16.3243,47.5841,12.4663,45.0063C8.60836,42.4284,5.60143,38.7645,3.8258,34.4777C2.05017,30.191,1.58558,25.474,2.49079,20.9232C3.396,16.3724,5.63035,12.1922,8.91129,8.91127C12.1922,5.63033,16.3724,3.39599,20.9232,2.49078C25.474,1.58557,30.191,2.05015,34.4778,3.82579C38.7645,5.60142,42.4285,8.60834,45.0063,12.4663C47.5841,16.3243,48.96,20.86,48.96,25.5C48.9529,31.7198,46.479,37.6828,42.0809,42.0809C37.6829,46.479,31.7198,48.9529,25.5,48.96L25.5,48.96Z" fill="#2781FF"/>
    <path d="M45.8998,26.52C46.4631,26.52,46.9198,26.0633,46.9198,25.5C46.9198,24.9367,46.4631,24.48,45.8998,24.48C45.3364,24.48,44.8798,24.9367,44.8798,25.5C44.8798,26.0633,45.3364,26.52,45.8998,26.52Z" fill="#2781FF"/>
    <path d="M5.09983,26.52C5.66316,26.52,6.11983,26.0633,6.11983,25.5C6.11983,24.9367,5.66316,24.48,5.09983,24.48C4.5365,24.48,4.07983,24.9367,4.07983,25.5C4.07983,26.0633,4.5365,26.52,5.09983,26.52Z" fill="#2781FF"/>
    <path d="M25.4999,6.12C26.0632,6.12,26.5199,5.66333,26.5199,5.1C26.5199,4.53667,26.0632,4.08,25.4999,4.08C24.9365,4.08,24.4799,4.53667,24.4799,5.1C24.4799,5.66333,24.9365,6.12,25.4999,6.12Z" fill="#2781FF"/>
    <path d="M25.4999,46.92C26.0632,46.92,26.5199,46.4633,26.5199,45.9C26.5199,45.3367,26.0632,44.88,25.4999,44.88C24.9365,44.88,24.4799,45.3367,24.4799,45.9C24.4799,46.4633,24.9365,46.92,25.4999,46.92Z" fill="#2781FF"/>
    <g transform="translate(25.5006,25.5) translate(-15.1461,-15.1462)" style="animation: 7s linear infinite both a0_t;">
        <path d="M10.3545,40.6462L33.4342,33.4339L40.6467,10.3538L17.5669,17.566L10.3545,40.6462ZM37.5369,13.4628L31.8045,31.8054L13.4618,37.5378L19.1942,19.1951L37.5369,13.4628Z" fill="#2781FF" transform="translate(-10.3545,-10.3538)"/>
        <path d="M25.5,30.6C26.68,30.6,27.8234,30.1908,28.7354,29.4423C29.6475,28.6937,30.2718,27.6521,30.5019,26.4948C30.7321,25.3376,30.5539,24.1363,29.9977,23.0958C29.4414,22.0552,28.5416,21.2397,27.4515,20.7882C26.3614,20.3367,25.1485,20.2771,24.0194,20.6196C22.8903,20.9622,21.9149,21.6856,21.2594,22.6667C20.6039,23.6477,20.3088,24.8258,20.4245,26C20.5402,27.1742,21.0594,28.272,21.8937,29.1063C22.3668,29.5805,22.929,29.9566,23.5479,30.2129C24.1667,30.4693,24.8302,30.6008,25.5,30.6L25.5,30.6ZM23.3362,23.336C23.7642,22.9081,24.3094,22.6167,24.903,22.4987C25.4966,22.3807,26.1118,22.4414,26.6709,22.673C27.23,22.9046,27.7078,23.2968,28.044,23.8C28.3802,24.3032,28.5597,24.8948,28.5597,25.5C28.5597,26.1052,28.3802,26.6968,28.044,27.2C27.7078,27.7031,27.23,28.0954,26.6709,28.327C26.1118,28.5586,25.4966,28.6193,24.903,28.5013C24.3094,28.3832,23.7642,28.0919,23.3362,27.664C23.0497,27.3812,22.8221,27.0442,22.6668,26.6728C22.5115,26.3013,22.4316,25.9027,22.4315,25.5C22.4315,25.0974,22.5115,24.6988,22.6667,24.3273C22.822,23.9558,23.0495,23.6188,23.336,23.336L23.3362,23.336Z" fill="#2781FF" transform="translate(-10.3545,-10.3538)"/>
    </g>
</svg>
