<?xml version="1.0" encoding="UTF-8" standalone="no"?>
<!-- Created with Keyshape -->
<svg xmlns="http://www.w3.org/2000/svg" xmlns:xlink="http://www.w3.org/1999/xlink" viewBox="0 0 200 200" text-rendering="geometricPrecision" shape-rendering="geometricPrecision" style="white-space: pre;">
    <defs>
        <clipPath id="ClipPath-5">
            <rect id="_a0" width="25" height="2.5" fill="none" stroke="#000000" transform="translate(0.85973,5.12753) scale(0.142857,0.142857) translate(-12.5,36.625)"/>
        </clipPath>
        <clipPath id="ClipPath-2">
            <rect id="_a1" width="0.25" height="39.75" fill="none" stroke="#000000" transform="translate(8.14544,17.449) scale(0.142857,0.142857) translate(-53.25,-19.875)"/>
        </clipPath>
        <clipPath id="ClipPath-1">
            <path id="_a2" fill="none" stroke="#000000" d="M1.61102,15.1181L1.70201,15.1181L1.68571,15.1181L5.8631,15.0991L5.8631,15.0238L5.85022,15.0238L5.85022,15.0782L18.568,15.0782L18.568,16.8125L5.85022,16.8125L5.85022,19.1247L19.9966,19.1247L19.9966,25.1447L1.61905,25.1447Z" fill-rule="evenodd" transform="translate(11.8954,37.3835) translate(-14.6667,-37.8333)"/>
        </clipPath>
        <clipPath id="ClipPath-3">
            <path id="_a3" fill="none" stroke="#000000" d="M64.75,-12.25L25.75,-12.25L25.75,6L48,6L48,25.8L48.1,25.9L48.1,25.65L62.4962,25.8204L65,25.85L65,25.35L64.75,25.35L64.75,25.9L64.5,25.9L64.5,6L64.75,6Z" fill-rule="evenodd" transform="translate(17.574,18.8954) scale(0.142857,0.142857) translate(-8.25,-37.75)"/>
        </clipPath>
        <clipPath id="ClipPath-4">
            <rect id="_a4" width="0.5" height="15.75" fill="none" stroke="#000000" transform="translate(20.9312,21.3775) scale(0.142857,0.142857) translate(-11.5,-7.875)"/>
        </clipPath>
    </defs>
    <rect class="st0" width="2" height="10" fill="#d4e6ff" clip-path="url(#ClipPath-5)" transform="translate(10.7319,10.4823) scale(7,7) translate(22,13)"/>
    <path class="st0" d="M1,15L15,15L15,15L15,20L15,20L3,20C1.9,20,1,19.1,1,18L1,15L1,15Z" fill="#d4e6ff" clip-path="url(#ClipPath-2)" transform="translate(7.73189,10.4823) scale(7,7)"/>
    <path class="st1" d="M15.5,23L14,23L14,20L14.5,20C14.8,20,15,19.8,15,19.5C15,19.2,14.8,19,14.5,19L1.5,19C1.2,19,1,18.8,1,18.5L1,16L14.5,16C14.8,16,15,15.8,15,15.5C15,15.2,14.8,15,14.5,15L1,15L1,1.5C1,1.2,1.2,1,1.5,1L21.5,1C21.8,1,22,1.2,22,1.5L22,9.5C22,9.8,22.2,10,22.5,10C22.8,10,23,9.8,23,9.5L23,1.5C23,0.7,22.3,0,21.5,0L1.5,0C0.7,0,0,0.7,0,1.5L0,18.5C0,19.3,0.7,20,1.5,20L9,20L9,23L7.5,23C7.2,23,7,23.2,7,23.5C7,23.8,7.2,24,7.5,24L15.5,24C15.8,24,16,23.8,16,23.5C16,23.2,15.8,23,15.5,23ZM13,23L10,23L10,20L13,20L13,23Z" fill="#2781ff" clip-path="url(#ClipPath-1)" transform="translate(10.7319,10.4823) scale(7,7)"/>
    <path class="st1" d="M24,12L18,12C17.4,12,17,12.4,17,13L17,23C17,23.6,17.4,24,18,24L24,24C24.6,24,25,23.6,25,23L25,13C25,12.4,24.6,12,24,12ZM24,23L18,23L18,13L24,13L24,23Z" fill="#2781ff" clip-path="url(#ClipPath-3)" transform="translate(10.7319,10.4823) scale(7,7)"/>
    <path class="st1" d="M20.4641,22L21.3917,22C21.6712,22,21.8571,21.8,21.8571,21.5C21.8571,21.2,21.6712,21,21.3917,21L20.4641,21C20.1859,21,20,21.2,20,21.5C20,21.8,20.1859,22,20.4641,22Z" fill="#2781ff" clip-path="url(#ClipPath-4)" transform="translate(10.7319,10.4823) scale(7,7)"/>
    <script xlink:href="keyshapejs-1.1.0.min.js"/>
    <script><![CDATA[if(KeyshapeJS.version.indexOf('1.')!=0)throw Error('Expected KeyshapeJS v1.*.*');window.ks=document.ks=KeyshapeJS;(function(ks){
ks.animate("#_a0",[{p:'anchorX',t:[1200,1700],v:[-12.5,-12.5],e:[[1,0,0,0.58,1],[0]]},{p:'anchorY',t:[1200,1700],v:[36.625,-37.875],e:[[1,0,0,0.58,1],[0]]},{p:'height',t:[1200,1700],v:[2.5,77],e:[[1,0,0,0.58,1],[0]]}],
"#_a1",[{p:'width',t:[0,800],v:[0.25,104.5],e:[[1,0.42,0,0.58,1],[0]]}],
"#_a2",[{p:'d',t:[0,500,600,700,1100,1200,1300,1900],v:["path('M1.61102,15.1181L1.70201,15.1181L1.68571,15.1181L5.8631,15.0991L5.8631,15.0238L5.85022,15.0238L5.85022,15.0782L18.568,15.0782L18.568,16.8125L5.85022,16.8125L5.85022,19.1247L19.9966,19.1247L19.9966,25.1447L1.61905,25.1447Z')","path('M1.61102,1.82857L1.70201,1.82857L1.68571,1.82857L5.8631,1.80952L5.8631,1.73423L5.85022,1.73423L5.85022,15.0782L18.568,15.0782L18.568,16.8125L5.85022,16.8125L5.85022,19.1247L19.9966,19.1247L19.9966,25.1447L1.61905,25.1447Z')","path('M1.61102,0L1.70201,0L1.68571,0L5.8631,1.80952L5.8631,1.73423L5.85022,1.73423L5.85022,15.0782L18.568,15.0782L18.568,16.8125L5.85022,16.8125L5.85022,19.1247L19.9966,19.1247L19.9966,25.1447L1.61905,25.1447Z')","path('M1.61102,0L5.8683,0L5.852,0L5.8631,1.80952L5.8631,1.73423L5.85022,1.73423L5.85022,15.0782L18.568,15.0782L18.568,16.8125L5.85022,16.8125L5.85022,19.1247L19.9966,19.1247L19.9966,25.1447L1.61905,25.1447Z')","path('M1.61102,0L22.9087,0L22.8924,0L22.9035,1.80952L22.9035,1.73423L5.85022,1.73423L5.85022,15.0782L18.568,15.0782L18.568,16.8125L5.85022,16.8125L5.85022,19.1247L19.9966,19.1247L19.9966,25.1447L1.61905,25.1447Z')","path('M1.61102,0L27.1428,0L27.1428,0L22.9035,1.80952L22.9035,1.73423L5.85022,1.73423L5.85022,15.0782L18.568,15.0782L18.568,16.8125L5.85022,16.8125L5.85022,19.1247L19.9966,19.1247L19.9966,25.1447L1.61905,25.1447Z')","path('M1.61102,0L27.1428,0L27.1428,1.80952L22.9035,1.80952L22.9035,1.73423L5.85022,1.73423L5.85022,15.0782L18.568,15.0782L18.568,16.8125L5.85022,16.8125L5.85022,19.1247L19.9966,19.1247L19.9966,25.1447L1.61905,25.1447Z')","path('M1.61102,0L27.1428,0L27.1428,11.6579L22.9035,11.6579L22.9035,1.73423L5.85022,1.73423L5.85022,15.0782L18.568,15.0782L18.568,16.8125L5.85022,16.8125L5.85022,19.1247L19.9966,19.1247L19.9966,25.1447L1.61905,25.1447Z')"],e:[[1,0.42,0,1,1],[1,0.25,0,0.75,1],[0],[0],[0],[0],[1,0,0,0.58,1],[0]]}],
"#_a3",[{p:'d',t:[0,200,300,400,500,700,900,1100,1200,1300,1500,1800],v:["path('M64.75,-12.25L25.75,-12.25L25.75,6L48,6L48,25.8L48.1,25.9L48.1,25.65L62.4962,25.8204L65,25.85L65,25.35L64.75,25.35L64.75,25.9L64.5,25.9L64.5,6L64.75,6Z')","path('M64.75,-12.25L25.75,-12.25L25.75,6L48,6L48,57.25L48.1,57.25L48.1,57L62.4962,57.1704L65,57.2L65,56.7L64.75,56.7L64.75,57.25L64.5,57.25L64.5,6L64.75,6Z')","path('M64.75,-12.25L25.75,-12.25L25.75,6L48,6L48,57.25L48.1,57.25L48.1,57L62.4962,73.1851L65,76L65,75.5L64.75,75.5L64.75,57.25L64.5,57.25L64.5,6L64.75,6Z')","path('M64.75,-12.25L25.75,-12.25L25.75,6L48,6L48,57.25L48.1,57.25L48.1,57L47.887,73.1851L47.85,76L47.85,75.5L64.75,75.5L64.75,57.25L64.5,57.25L64.5,6L64.75,6Z')","path('M64.75,-12.25L25.75,-12.25L25.75,6L48,6L48,57.25L16.5,57.25L16.5,57L16.287,73.1851L16.25,76L16.25,75.5L64.75,75.5L64.75,57.25L64.5,57.25L64.5,6L64.75,6Z')","path('M64.75,-12.25L25.75,-12.25L25.75,6L48,6L48,57.25L16.5,57.25L16.5,57L2.44453,73.1851L0,76L0,75.5L64.75,75.5L64.75,57.25L64.5,57.25L64.5,6L64.75,6Z')","path('M64.75,-12.25L25.75,-12.25L25.75,6L48,6L48,57.25L16.5,57.25L16.5,57L2.44453,57L0,57L0,75.5L64.75,75.5L64.75,57.25L64.5,57.25L64.5,6L64.75,6Z')","path('M64.75,-12.25L25.75,-12.25L25.75,6L48,6L48,57.25L16.5,57.25L16.5,4.3L2.44453,4.3L0,4.3L0,75.5L64.75,75.5L64.75,57.25L64.5,57.25L64.5,6L64.75,6Z')","path('M64.75,-12.25L25.75,-12.25L25.75,6L48,6L48,57.25L16.5,57.25L16.5,4.3L2.44453,-12.8789L0,-15.8667L0,75.5L64.75,75.5L64.75,57.25L64.5,57.25L64.5,6L64.75,6Z')","path('M64.75,-12.25L25.75,-12.25L25.75,6L48,6L48,57.25L16.5,57.25L16.5,-2.26667L2.44453,-13.8518L0,-15.8667L0,75.5L64.75,75.5L64.75,57.25L64.5,57.25L64.5,6L64.75,6Z')","path('M64.75,-12.25L25.75,-12.25L25.75,6L48,6L48,57.25L16.5,57.25L16.5,-2.26667L37.8333,-15.9333L0,-15.8667L0,75.5L64.75,75.5L64.75,57.25L64.5,57.25L64.5,6L64.75,6Z')","path('M64.75,-12.25L25.75,-12.25L25.75,6L48,6L48,57.25L16.5,57.25L33.2333,-2.26667L37.8333,-15.9333L0,-15.8667L0,75.5L64.75,75.5L64.75,57.25L64.5,57.25L64.5,6L64.75,6Z')"],e:[[0],[0],[0],[0],[0],[0],[0],[0],[0],[0],[1,0,0,0.58,1],[0]]}],
"#_a4",[{p:'width',t:[1300,1800],v:[0.5,23.25],e:[[1,0.42,0,0.58,1],[0]]}],
{autoremove:false}).range(0,1900);
if(document.location.search.substr(1).split('&').indexOf('global=paused')>=0)ks.globalPause()})(KeyshapeJS);
]]></script>
</svg>
