<?xml version="1.0" encoding="UTF-8" standalone="no"?>
<!-- Created with Keyshape -->
<svg xmlns="http://www.w3.org/2000/svg" width="95" height="63" viewBox="0 0 95 63" fill="none">
    <defs>
        <clipPath id="ClipPath-3">
            <rect width="8.06667" height="48.9333" fill="none" fill-opacity="0.2" stroke="#000000" transform="translate(79.3,41.6) scale(1,0.00272851) translate(-4.03333,-14757.7)" style="animation: 2.1s 1.9s linear both a0_h;"/>
        </clipPath>
        <clipPath id="ClipPath-1">
            <rect width="0.2" height="3.65" fill="none" stroke="none" transform="translate(70.075,7.025) translate(-4.825,-1.825)" style="animation: 2.1s 1.9s linear both a3_w;"/>
        </clipPath>
        <clipPath id="ClipPath-2">
            <rect width="0.266667" height="7.26667" fill="none" fill-opacity="0.21" stroke="#000000" transform="translate(33.7333,13.4333) translate(-15.9333,-3.63333)" style="animation: 2.1s 1.9s linear both a4_w;"/>
        </clipPath>
    </defs>
    <style>
@keyframes a0_h { 0% { height: 48.9333px; } 76.1905% { height: 48.9333px; animation-timing-function: cubic-bezier(0,0,0.58,1); } 100% { height: 17664.1px; } }
@keyframes a1_t { 0% { transform: translate(74.2133px,27.7px) scale(1,1) translate(-70.28px,-25.5px); } 38.0952% { transform: translate(74.2133px,27.7px) scale(1,1) translate(-70.28px,-25.5px); animation-timing-function: cubic-bezier(0.42,0,1,1); } 52.3809% { transform: translate(74.2133px,27.7px) scale(1.1,1.1) translate(-70.28px,-25.5px); animation-timing-function: cubic-bezier(0.42,0,0.58,1); } 61.9047% { transform: translate(74.2133px,27.7px) scale(1,1) translate(-70.28px,-25.5px); } 100% { transform: translate(74.2133px,27.7px) scale(1,1) translate(-70.28px,-25.5px); } }
@keyframes a2_t { 0% { transform: translate(74.2135px,47.0798px) scale(0,0) translate(-70.2802px,-44.8798px); } 9.5238% { transform: translate(74.2135px,47.0798px) scale(0,0) translate(-70.2802px,-44.8798px); animation-timing-function: cubic-bezier(0.42,0,1,1); } 33.3333% { transform: translate(74.2135px,47.0798px) scale(1,1) translate(-70.2802px,-44.8798px); } 38.0952% { transform: translate(74.2135px,47.0798px) scale(0.9,0.9) translate(-70.2802px,-44.8798px); animation-timing-function: cubic-bezier(0.42,0,1,1); } 42.8571% { transform: translate(74.2135px,47.0798px) scale(1,1) translate(-70.2802px,-44.8798px); } 100% { transform: translate(74.2135px,47.0798px) scale(1,1) translate(-70.2802px,-44.8798px); } }
@keyframes a3_w { 0% { width: 0.2px; } 9.5238% { width: 0.2px; animation-timing-function: cubic-bezier(0,0,0.58,1); } 28.5714% { width: 9.75px; } 100% { width: 9.75px; } }
@keyframes a4_w { 0% { width: 0.266667px; } 61.9048% { width: 0.266667px; animation-timing-function: cubic-bezier(0,0,0.58,1); } 76.1905% { width: 31.7333px; } 100% { width: 31.7333px; } }
@keyframes a5_t { 0% { transform: translate(29.4333px,31.7401px) scale(1,1) translate(-25.5px,-29.5401px); } 38.0952% { transform: translate(29.4333px,31.7401px) scale(1,1) translate(-25.5px,-29.5401px); animation-timing-function: cubic-bezier(0.42,0,1,1); } 52.3809% { transform: translate(29.4333px,31.7401px) scale(1.1,1.1) translate(-25.5px,-29.5401px); animation-timing-function: cubic-bezier(0,0,0.58,1); } 61.9047% { transform: translate(29.4333px,31.7401px) scale(1,1) translate(-25.5px,-29.5401px); } 100% { transform: translate(29.4333px,31.7401px) scale(1,1) translate(-25.5px,-29.5401px); } }
@keyframes a6_t { 0% { transform: translate(9.03329px,15.4202px) scale(1,1) translate(-5.09996px,-13.2202px); animation-timing-function: cubic-bezier(0.42,0,1,1); } 19.0476% { transform: translate(9.03329px,15.4202px) scale(2,2) translate(-5.09996px,-13.2202px); animation-timing-function: cubic-bezier(0.42,0,1,1); } 28.5714% { transform: translate(9.03329px,15.4202px) scale(1,1) translate(-5.09996px,-13.2202px); } 100% { transform: translate(9.03329px,15.4202px) scale(1,1) translate(-5.09996px,-13.2202px); } }
@keyframes a7_t { 0% { transform: translate(13.1133px,15.4202px) scale(1,1) translate(-9.18002px,-13.2202px); } 19.0476% { transform: translate(13.1133px,15.4202px) scale(1,1) translate(-9.18002px,-13.2202px); animation-timing-function: cubic-bezier(0.42,0,1,1); } 38.0952% { transform: translate(13.1133px,15.4202px) scale(2,2) translate(-9.18002px,-13.2202px); animation-timing-function: cubic-bezier(0.42,0,1,1); } 47.619% { transform: translate(13.1133px,15.4202px) scale(1,1) translate(-9.18002px,-13.2202px); } 100% { transform: translate(13.1133px,15.4202px) scale(1,1) translate(-9.18002px,-13.2202px); } }
@keyframes a8_t { 0% { transform: translate(17.1933px,15.4202px) scale(1,1) translate(-13.26px,-13.2202px); } 33.3333% { transform: translate(17.1933px,15.4202px) scale(1,1) translate(-13.26px,-13.2202px); animation-timing-function: cubic-bezier(0.42,0,1,1); } 52.3809% { transform: translate(17.1933px,15.4202px) scale(2,2) translate(-13.26px,-13.2202px); animation-timing-function: cubic-bezier(0.42,0,1,1); } 61.9047% { transform: translate(17.1933px,15.4202px) scale(1,1) translate(-13.26px,-13.2202px); } 100% { transform: translate(17.1933px,15.4202px) scale(1,1) translate(-13.26px,-13.2202px); } }
* { animation-delay: 5s; }
    </style>
    <path d="M82.5204,0L76.4004,0L76.4004,48.96L82.5204,48.96L82.5204,0Z" fill="#2781FF" fill-opacity="0.2" clip-path="url(#ClipPath-3)" transform="translate(3.93333,2.2)"/>
    <path d="M81.5,0L59.06,0C58.2487,0.000864002,57.4709,0.323533,56.8972,0.897207C56.3235,1.47088,56.0009,2.2487,56,3.06L56,47.94C56.0009,48.7513,56.3235,49.5291,56.8972,50.1028C57.4709,50.6765,58.2487,50.9991,59.06,51L81.5,51C82.3113,50.9991,83.0891,50.6765,83.6628,50.1028C84.2365,49.5291,84.5591,48.7513,84.56,47.94L84.56,3.06C84.5591,2.2487,84.2365,1.47088,83.6628,0.897207C83.0891,0.323533,82.3113,0.000864002,81.5,0L81.5,0ZM82.52,47.94C82.52,48.2105,82.4125,48.47,82.2212,48.6612C82.03,48.8525,81.7705,48.96,81.5,48.96L59.06,48.96C58.7895,48.96,58.53,48.8525,58.3388,48.6612C58.1475,48.47,58.04,48.2105,58.04,47.94L58.04,40.8L82.52,40.8L82.52,47.94ZM82.52,38.76L58.04,38.76L58.04,3.06C58.04,2.78948,58.1475,2.53004,58.3388,2.33875C58.53,2.14746,58.7895,2.04,59.06,2.04L81.5,2.04C81.7705,2.04,82.03,2.14746,82.2212,2.33875C82.4125,2.53004,82.52,2.78948,82.52,3.06L82.52,38.76Z" fill="#2781FF" transform="translate(74.2133,27.7) translate(-70.28,-25.5)" style="animation: 2.1s 1.9s linear both a1_t;"/>
    <path d="M70.2802,46.9198C71.4069,46.9198,72.3202,46.0065,72.3202,44.8798C72.3202,43.7532,71.4069,42.8398,70.2802,42.8398C69.1536,42.8398,68.2402,43.7532,68.2402,44.8798C68.2402,46.0065,69.1536,46.9198,70.2802,46.9198Z" fill="#2781FF" transform="translate(74.2135,47.0798) scale(0,0) translate(-70.2802,-44.8798)" style="animation: 2.1s 1.9s linear both a2_t;"/>
    <path d="M73.3392,6.12012L67.2192,6.12012C66.9487,6.12012,66.6893,6.22758,66.498,6.41887C66.3067,6.61016,66.1992,6.8696,66.1992,7.14012C66.1992,7.41064,66.3067,7.67008,66.498,7.86137C66.6893,8.05265,66.9487,8.16012,67.2192,8.16012L73.3392,8.16012C73.6097,8.16012,73.8692,8.05265,74.0605,7.86137C74.2518,7.67008,74.3592,7.41064,74.3592,7.14012C74.3592,6.8696,74.2518,6.61016,74.0605,6.41887C73.8692,6.22758,73.6097,6.12012,73.3392,6.12012Z" fill="#2781FF" clip-path="url(#ClipPath-1)" transform="translate(3.93333,2.2)"/>
    <path d="M48.96,16.2802L18.36,16.2802L18.36,10.1602L47.94,10.1602C48.2105,10.1602,48.4699,10.2676,48.6612,10.4589C48.8525,10.6502,48.96,10.9096,48.96,11.1802L48.96,16.2802Z" fill="#2781FF" fill-opacity="0.2" clip-path="url(#ClipPath-2)" transform="translate(3.93333,2.2)"/>
    <path d="M47.94,8.12012L3.06,8.12012C2.2487,8.12098,1.47088,8.44365,0.897207,9.01732C0.323533,9.591,0.000864002,10.3688,0,11.1801L0,47.9001C0.000864002,48.7114,0.323533,49.4892,0.897207,50.0629C1.47088,50.6366,2.2487,50.9593,3.06,50.9601L47.94,50.9601C48.7513,50.9593,49.5291,50.6366,50.1028,50.0629C50.6765,49.4892,50.9991,48.7114,51,47.9001L51,11.1801C50.9991,10.3688,50.6765,9.591,50.1028,9.01732C49.5291,8.44365,48.7513,8.12098,47.94,8.12012ZM2.04,11.1801C2.04,10.9096,2.14746,10.6502,2.33875,10.4589C2.53004,10.2676,2.78948,10.1601,3.06,10.1601L16.32,10.1601L16.32,16.2801L2.04,16.2801L2.04,11.1801ZM48.96,47.9001C48.96,48.1706,48.8525,48.4301,48.6612,48.6214C48.47,48.8127,48.2105,48.9201,47.94,48.9201L3.06,48.9201C2.78948,48.9201,2.53004,48.8127,2.33875,48.6214C2.14746,48.4301,2.04,48.1706,2.04,47.9001L2.04,18.3201L48.96,18.3201L48.96,47.9001ZM48.96,16.2801L18.36,16.2801L18.36,10.1601L47.94,10.1601C48.2105,10.1601,48.47,10.2676,48.6612,10.4589C48.8525,10.6502,48.96,10.9096,48.96,11.1801L48.96,16.2801Z" fill="#2781FF" transform="translate(29.4333,31.7401) translate(-25.5,-29.5401)" style="animation: 2.1s 1.9s linear both a5_t;"/>
    <path d="M6.11996,12.2002L4.07996,12.2002L4.07996,14.2402L6.11996,14.2402L6.11996,12.2002Z" fill="#2781FF" transform="translate(9.03329,15.4202) translate(-5.09996,-13.2202)" style="animation: 2.1s 1.9s linear both a6_t;"/>
    <path d="M10.2,12.2002L8.16003,12.2002L8.16003,14.2402L10.2,14.2402L10.2,12.2002Z" fill="#2781FF" transform="translate(13.1133,15.4202) translate(-9.18002,-13.2202)" style="animation: 2.1s 1.9s linear both a7_t;"/>
    <path d="M14.28,12.2002L12.24,12.2002L12.24,14.2402L14.28,14.2402L14.28,12.2002Z" fill="#2781FF" transform="translate(17.1933,15.4202) translate(-13.26,-13.2202)" style="animation: 2.1s 1.9s linear both a8_t;"/>
</svg>
