<svg xmlns="http://www.w3.org/2000/svg" xmlns:xlink="http://www.w3.org/1999/xlink" viewBox="0 0 100 100" fill="none">
    <style type="text/css">
      <![CDATA[
        @keyframes a0_t { 0% { transform: translate(29.3665px,40.8333px); animation-timing-function: cubic-bezier(0,0,0.58,1); } 5.8823% { transform: translate(29.3665px,35.1667px); } 58.8235% { transform: translate(29.3665px,35.1667px); animation-timing-function: cubic-bezier(0,0,0.58,1); } 64.7058% { transform: translate(29.3665px,40.83px); } 100% { transform: translate(29.3665px,40.83px); } }
        @-webkit-keyframes a0_t { 0% { transform: translate(29.3665px,40.8333px); animation-timing-function: cubic-bezier(0,0,0.58,1); } 5.8823% { transform: translate(29.3665px,35.1667px); } 58.8235% { transform: translate(29.3665px,35.1667px); animation-timing-function: cubic-bezier(0,0,0.58,1); } 64.7058% { transform: translate(29.3665px,40.83px); } 100% { transform: translate(29.3665px,40.83px); } }
        @keyframes a1_t { 0% { transform: translate(59.00003px,42.00003px); } 5.8823% { transform: translate(59.00003px,42.00003px); animation-timing-function: cubic-bezier(0,0,0.58,1); } 13.7254% { transform: translate(59.00003px,30.66663px); } 49.0196% { transform: translate(59.00003px,30.66333px); animation-timing-function: cubic-bezier(0,0,0.58,1); } 58.8235% { transform: translate(59.00003px,42.79163px); } 100% { transform: translate(59.00003px,42.79163px); } }
        @-webkit-keyframes a1_t { 0% { transform: translate(59.00003px,42.00003px); } 5.8823% { transform: translate(59.00003px,42.00003px); animation-timing-function: cubic-bezier(0,0,0.58,1); } 13.7254% { transform: translate(59.00003px,30.66663px); } 49.0196% { transform: translate(59.00003px,30.66333px); animation-timing-function: cubic-bezier(0,0,0.58,1); } 58.8235% { transform: translate(59.00003px,42.79163px); } 100% { transform: translate(59.00003px,42.79163px); } }
      ]]>
    </style>
    <path class="cls-1" d="M27.4086,-18.8411C26.9288,-19.164,26.4332,-19.4628,25.9236,-19.7364C25.4142,-20.01,24.8913,-20.2582,24.3571,-20.4799C23.8229,-20.7016,23.278,-20.8965,22.7245,-21.0641C22.171,-21.2317,21.6094,-21.3716,21.042,-21.4833C20.4605,-21.5996,19.8738,-21.6871,19.2838,-21.7455C18.6938,-21.804,18.1013,-21.8332,17.5085,-21.8332C16.9156,-21.8332,16.323,-21.804,15.7331,-21.7455C15.143,-21.6871,14.5563,-21.5996,13.9749,-21.4833C12.015,-21.0795,10.1388,-20.3426,8.42797,-19.3048C6.71704,-18.267,5.19669,-16.9435,3.933,-15.392C2.66929,-13.8404,1.68092,-12.0837,1.01084,-10.1982C0.340744,-8.3126,-0.00115254,-6.32617,1.9988e-06,-4.32508L1.9988e-06,10L3.18335,10L3.18335,-4.32508C3.18335,-8.12429,4.69261,-11.768,7.37907,-14.4545C10.0655,-17.1409,13.7092,-18.6501,17.5085,-18.6501C21.3077,-18.6501,24.9513,-17.1409,27.6378,-14.4545C30.3243,-11.768,31.8335,-8.12429,31.8335,-4.32508L31.8335,10L35.0168,10L35.0168,-4.32508C35.0229,-5.74811,34.8555,-7.1666,34.5184,-8.54912C34.1812,-9.93164,33.6767,-11.2679,33.0161,-12.5283C32.3556,-13.7887,31.5437,-14.9639,30.5987,-16.0278C29.6536,-17.0918,28.5823,-18.0365,27.4086,-18.8411Z" fill="#2781ff" transform="translate(29.3665,40.8333)" style="animation: 5.1s linear infinite both a0_t; -webkit-animation: 5.1s linear infinite both a0_t;"/>
    <rect width="55.8333" height="49" fill="#ffffff" stroke="none" transform="translate(46.875,68.3333) translate(-27.9167,-24.5)"/>
    <path fill="#ffffff" stroke="none" d="M2.15543,0L0,0L0,17.3333L7.33333,17.3333L7.33333,0L5.31118,0C5.18423,0.756725,4.5261,1.33334,3.7333,1.33334C2.9405,1.33334,2.28238,0.756725,2.15543,0Z" fill-rule="evenodd" transform="translate(62.6667,50.6667) translate(-3.66667,-8.66667)" style="animation: 5.1s linear infinite both a1_t; -webkit-animation: 5.1s linear infinite both a1_t;"/>
    <path id="shade" class="cls-2" d="M14,1L14,11.5C14,11.5657,13.9871,11.6307,13.9619,11.6913C13.9368,11.752,13.9,11.8071,13.8536,11.8536C13.8071,11.9,13.752,11.9368,13.6913,11.9619C13.6307,11.9871,13.5657,12,13.5,12L1,12L1,14L16,14L16,1Z" fill="#d4e6ff" transform="translate(16.9327,42.0357) scale(3.52262,3.52262)"/>
    <path class="cls-3" d="M11,10.34L10.15,8.34C10.3988,8.1279,10.6035,7.86887,10.7522,7.5777C10.9009,7.28653,10.9909,6.96891,11.0169,6.64298C11.0429,6.31706,11.0044,5.9892,10.9037,5.67813C10.803,5.36706,10.6421,5.07886,10.43,4.83C10.3084,4.69638,10.1729,4.57611,10.0258,4.47123C9.87868,4.36636,9.7208,4.27748,9.55484,4.2061C9.38887,4.13473,9.21576,4.08127,9.03844,4.04662C8.86113,4.01198,8.68063,3.99635,8.5,4C8.44267,3.99993,8.38534,4.00176,8.32813,4.0055C8.27092,4.00923,8.21385,4.01487,8.15701,4.02239C8.10017,4.02991,8.0436,4.03932,7.98738,4.0506C7.93117,4.06188,7.87534,4.07502,7.82,4.09C7.62051,4.14334,7.42864,4.2219,7.24901,4.32376C7.06939,4.42563,6.90348,4.54998,6.7553,4.6938C6.60712,4.83762,6.47788,4.99974,6.3707,5.17624C6.26352,5.35275,6.17927,5.54219,6.12,5.74C6.04595,5.97165,6.00651,6.21298,6.00297,6.45615C5.99943,6.69933,6.03183,6.9417,6.09911,7.17541C6.16639,7.40912,6.26782,7.63161,6.40011,7.83569C6.5324,8.03976,6.69411,8.22318,6.88,8.38L6.03,10.38C6.00808,10.4417,5.99875,10.5071,6.00253,10.5724C6.00632,10.6378,6.02316,10.7017,6.05206,10.7604C6.08095,10.8191,6.12132,10.8715,6.17077,10.9143C6.22023,10.9572,6.27777,10.9897,6.34,11.01L6.5,11.01L10.5,11.01C10.5657,11.01,10.6307,10.9971,10.6913,10.9719C10.752,10.9468,10.8071,10.91,10.8536,10.8636C10.9,10.8171,10.9368,10.762,10.9619,10.7013C10.9871,10.6407,11,10.5757,11,10.51C11.0014,10.4959,11.0024,10.4817,11.0031,10.4675C11.0038,10.4534,11.0041,10.4392,11.0041,10.425C11.0041,10.4108,11.0038,10.3966,11.0031,10.3825C11.0024,10.3683,11.0014,10.3541,11,10.34ZM9.81,10L7.2,10L8,8.06L7.49,7.63C7.37921,7.53049,7.28364,7.41523,7.20636,7.28793C7.12908,7.16063,7.07093,7.02266,7.03377,6.87844C6.99661,6.73423,6.98085,6.58534,6.98699,6.43655C6.99312,6.28775,7.02109,6.14066,7.07,6C7.10359,5.88139,7.15217,5.76755,7.21456,5.66123C7.27696,5.55492,7.35265,5.45699,7.43982,5.36982C7.52699,5.28265,7.62492,5.20696,7.73123,5.14456C7.83755,5.08217,7.95139,5.03359,8.07,5C8.10562,4.99514,8.14139,4.99149,8.17725,4.98905C8.21312,4.98662,8.24905,4.9854,8.285,4.9854C8.32095,4.9854,8.35688,4.98662,8.39275,4.98905C8.42861,4.99149,8.46438,4.99514,8.5,5C8.80648,4.99722,9.10647,5.08839,9.35957,5.26125C9.61267,5.4341,9.80675,5.68035,9.91568,5.96683C10.0246,6.25332,10.0432,6.5663,9.96885,6.86365C9.89453,7.161,9.73091,7.42845,9.5,7.63L9,8.06Z" fill="#2781ff" transform="translate(16.886,42.0357) scale(3.52262,3.52262)"/>
    <path class="cls-3" d="M15.5,0L1.5,0C1.30302,0,1.10796,0.0387986,0.925975,0.114181C0.743986,0.189563,0.578628,0.300052,0.43934,0.43934C0.300052,0.578628,0.189563,0.743986,0.114181,0.925975C0.0387986,1.10796,0,1.30302,0,1.5L0,13.5C0,13.697,0.0387986,13.892,0.114181,14.074C0.189563,14.256,0.300052,14.4214,0.43934,14.5607C0.578628,14.6999,0.743986,14.8104,0.925975,14.8858C1.10796,14.9612,1.30302,15,1.5,15L15.5,15C15.697,15,15.892,14.9612,16.074,14.8858C16.256,14.8104,16.4214,14.6999,16.5607,14.5607C16.6999,14.4214,16.8104,14.256,16.8858,14.074C16.9612,13.892,17,13.697,17,13.5L17,1.5C17,1.30302,16.9612,1.10796,16.8858,0.925975C16.8104,0.743986,16.6999,0.578628,16.5607,0.43934C16.4214,0.300052,16.256,0.189563,16.074,0.114181C15.892,0.0387986,15.697,0,15.5,0ZM16,13.5C16,13.5657,15.9871,13.6307,15.9619,13.6913C15.9368,13.752,15.9,13.8071,15.8536,13.8536C15.8071,13.9,15.752,13.9368,15.6913,13.9619C15.6307,13.9871,15.5657,14,15.5,14L1.5,14C1.43434,14,1.36932,13.9871,1.30866,13.9619C1.248,13.9368,1.19288,13.9,1.14645,13.8536C1.10002,13.8071,1.06319,13.752,1.03806,13.6913C1.01293,13.6307,1,13.5657,1,13.5L1,1.5C1,1.43434,1.01293,1.36932,1.03806,1.30866C1.06319,1.248,1.10002,1.19288,1.14645,1.14645C1.19288,1.10002,1.248,1.06319,1.30866,1.03806C1.36932,1.01293,1.43434,1,1.5,1L15.5,1C15.5657,1,15.6307,1.01293,15.6913,1.03806C15.752,1.06319,15.8071,1.10002,15.8536,1.14645C15.9,1.19288,15.9368,1.248,15.9619,1.30866C15.9871,1.36932,16,1.43434,16,1.5Z" fill="#2781ff" transform="translate(16.9327,42.0357) scale(3.52262,3.52262)"/>
</svg>
