<?xml version="1.0" encoding="UTF-8" standalone="no"?>
<!-- Created with Keyshape -->
<svg xmlns="http://www.w3.org/2000/svg" shape-rendering="geometricPrecision" text-rendering="geometricPrecision" viewBox="0 0 824 1048" style="white-space: pre;">
    <style>
@keyframes a0_t { 0% { transform: translate(0px,0px); } 100% { transform: translate(0px,0px); } }
@keyframes a0_w { 0% { width: 824px; } 100% { width: 824px; } }
@keyframes a0_h { 0% { height: 1048px; } 100% { height: 1048px; } }
@keyframes a1_t { 0% { transform: translate(78.666667px,980.666687px); } 100% { transform: translate(78.666667px,980.666687px); } }
@keyframes a2_t { 0% { transform: translate(120.062931px,980.667px); } 100% { transform: translate(120.062931px,980.667px); } }
@keyframes a3_t { 0% { transform: translate(161.459195px,980.667px); } 100% { transform: translate(161.459195px,980.667px); } }
@keyframes a4_t { 0% { transform: translate(202.855459px,980.667px); } 100% { transform: translate(202.855459px,980.667px); } }
@keyframes a5_t { 0% { transform: translate(244.251723px,980.667px); } 100% { transform: translate(244.251723px,980.667px); } }
@keyframes a6_t { 0% { transform: translate(285.647987px,980.667px); } 100% { transform: translate(285.647987px,980.667px); } }
@keyframes a7_t { 0% { transform: translate(327.04425px,980.667px); } 100% { transform: translate(327.04425px,980.667px); } }
@keyframes a8_t { 0% { transform: translate(413.126px,522.338px) rotate(217.114564deg); animation-timing-function: cubic-bezier(0.25,0,0.75,1); } 7.7777% { transform: translate(413.126px,522.338px) rotate(-0.119713deg); } 22.2222% { transform: translate(413.126px,522.338px) rotate(-0.119713deg); } 81.1111% { transform: translate(413.126px,522.338px) rotate(-0.119713deg); animation-timing-function: cubic-bezier(0.25,0,0.75,1); } 88.8888% { transform: translate(413.126px,522.338px) rotate(217.114564deg); } 100% { transform: translate(413.126px,522.338px) rotate(217.114564deg); } }
@keyframes a9_t { 0% { transform: scale(1,1); } 1.1111% { transform: scale(1.1,1.1); animation-timing-function: cubic-bezier(0.25,0,0.75,1); } 7.7777% { transform: scale(1,1); } 22.2222% { transform: scale(1,1); } 100% { transform: scale(1,1); } }
@keyframes light-purple_t { 0% { transform: translate(-1.13253px,1.6587px); } 100% { transform: translate(-1.13253px,1.6587px); } }
@keyframes light-purple_o { 0% { opacity: 0; } 1.1111% { opacity: 1; } 100% { opacity: 1; } }
@keyframes light-purple_d { 0% { d: path('M1.13253,265.331C0.74969,265.332,0.366656,265.333,-0.0165664,265.333C-74.4092,265.333,-141.65,234.712,-189.826,185.385L0.7788,-1.6587Z'); } 77.7778% { d: path('M1.13253,265.331C0.74969,265.332,0.366656,265.333,-0.0165664,265.333C-74.4092,265.333,-141.65,234.712,-189.826,185.385L1.47878,-1.76675Z'); } 100% { d: path('M1.13253,265.331C0.74969,265.332,0.366656,265.333,-0.0165664,265.333C-74.4092,265.333,-141.65,234.712,-189.826,185.385L1.47878,-1.76675Z'); } }
@keyframes a10_t { 0% { transform: translate(412.787px,522.356px) rotate(-240.096958deg); animation-timing-function: cubic-bezier(0.25,0,1,1); } 13.3333% { transform: translate(412.787px,522.356px) rotate(-360.151353deg); } 22.2222% { transform: translate(412.787px,522.356px) rotate(-360.151353deg); } 75.5555% { transform: translate(412.787px,522.356px) rotate(-360.151353deg); animation-timing-function: cubic-bezier(0,0,0.75,1); } 88.8888% { transform: translate(412.787px,522.356px) rotate(-240.096958deg); } 100% { transform: translate(412.787px,522.356px) rotate(-240.096958deg); } }
@keyframes a11_t { 0% { transform: scale(1,1); } 1.1111% { transform: scale(1.1,1.1); animation-timing-function: cubic-bezier(0,0,0.355,1); } 13.3333% { transform: scale(1,1); } 22.2222% { transform: scale(1,1); } 100% { transform: scale(1,1); } }
@keyframes light-gray_t { 0% { transform: translate(-0.792967px,1.64037px); } 100% { transform: translate(-0.792967px,1.64037px); } }
@keyframes light-gray_o { 0% { opacity: 0; } 1.1111% { opacity: 1; } 100% { opacity: 1; } }
@keyframes light-gray_f { 0% { fill: #cccccc; } 14.4444% { fill: #cccccc; } 100% { fill: #cccccc; } }
@keyframes light-gray_d { 0% { d: path('M-189.459,185.761C-236.392,137.899,-265.333,72.3293,-265.333,0C-265.333,-0.454757,-265.332,-0.909247,-265.33,-1.36347L0.792967,-1.64037C0.28821,-1.13561,-91.3434,88.5502,-189.459,185.761Z'); } 77.7778% { d: path('M-189.459,185.761C-236.392,137.899,-265.333,72.3293,-265.333,0C-265.333,-0.454757,-265.332,-0.909247,-265.33,-1.36347L0.67067,-1.57004C0.165913,-1.06528,-91.3434,88.5502,-189.459,185.761Z'); } 100% { d: path('M-189.459,185.761C-236.392,137.899,-265.333,72.3293,-265.333,0C-265.333,-0.454757,-265.332,-0.909247,-265.33,-1.36347L0.67067,-1.57004C0.165913,-1.06528,-91.3434,88.5502,-189.459,185.761Z'); } }
@keyframes a12_t { 0% { transform: translate(412.78px,522.857px) rotate(279.057126deg); animation-timing-function: cubic-bezier(0.22,0,0.295,0.965); } 8.8888% { transform: translate(412.78px,522.857px) rotate(-0.319829deg); } 22.2222% { transform: translate(412.78px,522.857px) rotate(-0.319829deg); } 77.7777% { transform: translate(412.78px,522.857px) rotate(-0.319829deg); } 80% { transform: translate(412.78px,522.857px) rotate(-0.319829deg); animation-timing-function: cubic-bezier(0.705,0.035,0.78,1); } 88.8888% { transform: translate(412.78px,522.857px) rotate(279.057126deg); } 100% { transform: translate(412.78px,522.857px) rotate(279.057126deg); } }
@keyframes a13_t { 0% { transform: scale(1,1); } 1.1111% { transform: scale(1.1,1.1); animation-timing-function: cubic-bezier(0.695,0,1,1); } 8.8888% { transform: scale(1,1); } 22.2222% { transform: scale(1,1); } 100% { transform: scale(1,1); } }
@keyframes coral_t { 0% { transform: translate(-0.7863px,1.13933px); } 100% { transform: translate(-0.7863px,1.13933px); } }
@keyframes coral_o { 0% { opacity: 0; } 1.1111% { opacity: 1; } 100% { opacity: 1; } }
@keyframes coral_f { 0% { fill: #ed5a58; } 14.4444% { fill: #ed5a58; } 100% { fill: #ed5a58; } }
@keyframes coral_d { 0% { d: path('M-163.691,-208.837L0.7863,-1.6437L-265.331,-1.13933C-264.976,-85.4501,-225.299,-160.48,-163.691,-208.837Z'); } 11.1111% { d: path('M-163.691,-208.837L0.7863,-1.6437L-265.331,-1.13933C-264.976,-85.4501,-225.299,-160.48,-163.691,-208.837Z'); } 100% { d: path('M-163.691,-208.837L0.7863,-1.6437L-265.331,-1.13933C-264.976,-85.4501,-225.299,-160.48,-163.691,-208.837Z'); } }
@keyframes a14_t { 0% { transform: translate(412.79px,522.353px) rotate(-130.975423deg); animation-timing-function: cubic-bezier(1,0,0.305,1); } 12.2222% { transform: translate(412.79px,522.353px) rotate(-0.269479deg); } 22.2222% { transform: translate(412.79px,522.353px) rotate(-0.269479deg); } 76.6666% { transform: translate(412.79px,522.353px) rotate(-0.269479deg); animation-timing-function: cubic-bezier(0.695,0,0,1); } 88.8888% { transform: translate(412.79px,522.353px) rotate(-130.975423deg); } 100% { transform: translate(412.79px,522.353px) rotate(-130.975423deg); } }
@keyframes a15_t { 0% { transform: scale(1,1); } 1.1111% { transform: scale(1.1,1.1); animation-timing-function: cubic-bezier(0.5,0,0.5,1); } 12.2222% { transform: scale(1,1); } 22.2222% { transform: scale(1,1); } 100% { transform: scale(1,1); } }
@keyframes yellow_t { 0% { transform: translate(-0.7963px,1.6437px); } 100% { transform: translate(-0.7963px,1.6437px); } }
@keyframes yellow_o { 0% { opacity: 0; } 1.1111% { opacity: 1; } 100% { opacity: 1; } }
@keyframes yellow_f { 0% { fill: #f6bf67; } 14.4444% { fill: #f6bf67; } 100% { fill: #f6bf67; } }
@keyframes yellow_d { 0% { d: path('M-98.658,-246.385L0.7963,-1.6437L-164.147,-208.479C-144.392,-224.054,-122.37,-236.881,-98.658,-246.385Z'); } 11.1111% { d: path('M-98.658,-246.385L0.7963,-1.6437L-164.147,-208.479C-144.392,-224.054,-122.37,-236.881,-98.658,-246.385Z'); } 77.7778% { d: path('M-98.658,-246.385L0.893317,-1.55291L-164.147,-208.479C-144.392,-224.054,-122.37,-236.881,-98.658,-246.385Z'); } 100% { d: path('M-98.658,-246.385L0.893317,-1.55291L-164.147,-208.479C-144.392,-224.054,-122.37,-236.881,-98.658,-246.385Z'); } }
@keyframes a16_t { 0% { transform: translate(413.26px,522.348px) rotate(146.310719deg); animation-timing-function: cubic-bezier(0.5,-0.03,0.37,1); } 10% { transform: translate(413.26px,522.348px) rotate(-0.336577deg); } 22.2222% { transform: translate(413.26px,522.348px) rotate(-0.336577deg); } 78.8888% { transform: translate(413.26px,522.348px) rotate(-0.336577deg); animation-timing-function: cubic-bezier(0.63,0,0.5,1.03); } 88.8888% { transform: translate(413.26px,522.348px) rotate(146.310719deg); } 100% { transform: translate(413.26px,522.348px) rotate(146.310719deg); } }
@keyframes teal_t { 0% { transform: scale(1,1) translate(-1.2663px,1.6487px); } 1.1111% { transform: scale(1.1,1.1) translate(-1.2663px,1.6487px); animation-timing-function: cubic-bezier(0.25,0,0.75,1); } 10% { transform: scale(1,1) translate(-1.2663px,1.6487px); } 22.2222% { transform: scale(1,1) translate(-1.2663px,1.6487px); } 100% { transform: scale(1,1) translate(-1.2663px,1.6487px); } }
@keyframes teal_o { 0% { opacity: 0; } 1.1111% { opacity: 1; } 100% { opacity: 1; } }
@keyframes teal_f { 0% { fill: #59c5b4; } 14.4444% { fill: #59c5b4; } 100% { fill: #59c5b4; } }
@keyframes teal_d { 0% { d: path('M1.2663,-265.33L0.7813,-1.6487L-98.861,-246.304C-68.3079,-258.578,-34.9428,-265.333,0,-265.333C0.422331,-265.333,0.844432,-265.332,1.2663,-265.33Z'); } 11.1111% { d: path('M1.2663,-265.33L0.7813,-1.6487L-98.861,-246.304C-68.3079,-258.578,-34.9428,-265.333,0,-265.333C0.422331,-265.333,0.844432,-265.332,1.2663,-265.33Z'); } 77.7778% { d: path('M1.2663,-265.33L1.58378,-1.27748L-98.861,-246.304C-68.3079,-258.578,-34.9428,-265.333,0,-265.333C0.422331,-265.333,0.844432,-265.332,1.2663,-265.33Z'); } 100% { d: path('M1.2663,-265.33L1.58378,-1.27748L-98.861,-246.304C-68.3079,-258.578,-34.9428,-265.333,0,-265.333C0.422331,-265.333,0.844432,-265.332,1.2663,-265.33Z'); } }
@keyframes a17_t { 0% { transform: translate(412.773px,523.263px) rotate(-174.215483deg); animation-timing-function: cubic-bezier(0,0,0.303891,1); } 8.8888% { transform: translate(412.773px,523.263px) rotate(-0.373012deg); } 22.2222% { transform: translate(412.773px,523.263px) rotate(-0.373012deg); } 80% { transform: translate(412.773px,523.263px) rotate(-0.373012deg); animation-timing-function: cubic-bezier(0.696109,0,1,1); } 88.8888% { transform: translate(412.773px,523.263px) rotate(-174.215483deg); } 100% { transform: translate(412.773px,523.263px) rotate(-174.215483deg); } }
@keyframes a18_t { 0% { transform: scale(1,1); animation-timing-function: cubic-bezier(0.355,0,0.5,0.965); } 4.4444% { transform: scale(1.2,1.2); animation-timing-function: cubic-bezier(0.375,0,0.565,1); } 8.8888% { transform: scale(1,1); } 22.2222% { transform: scale(1,1); } 100% { transform: scale(1,1); } }
@keyframes blue_t { 0% { transform: translate(-0.7788px,0.733359px); } 100% { transform: translate(-0.7788px,0.733359px); } }
@keyframes blue_o { 0% { opacity: 0; } 1.1111% { opacity: 1; } 100% { opacity: 1; } }
@keyframes blue_f { 0% { fill: #0026e6; } 14.4444% { fill: #0026e6; } 100% { fill: #0026e6; } }
@keyframes blue_d { 0% { d: path('M265.332,-0.733359C264.938,-146.491,147.015,-264.613,1.33297,-265.33L0.7788,-1.6587Z'); } 11.1111% { d: path('M265.332,-0.733359C264.938,-146.491,147.015,-264.613,1.33297,-265.33L0.7788,-1.6587Z'); } 77.7778% { d: path('M265.332,-0.733359C264.938,-146.491,147.015,-264.613,1.33297,-265.33L0.862639,0.31666Z'); } 100% { d: path('M265.332,-0.733359C264.938,-146.491,147.015,-264.613,1.33297,-265.33L0.862639,0.31666Z'); } }
@keyframes a19_t { 0% { transform: translate(412.66px,521.662px) rotate(-215.050669deg); animation-timing-function: cubic-bezier(0,0,0.4,0.96); } 14.4444% { transform: translate(412.66px,521.662px) rotate(-0.201614deg); } 74.4444% { transform: translate(412.66px,521.662px) rotate(-0.201614deg); animation-timing-function: cubic-bezier(0.6,0.04,1,1); } 88.8888% { transform: translate(412.66px,521.662px) rotate(-215.050669deg); } 100% { transform: translate(412.66px,521.662px) rotate(-215.050669deg); } }
@keyframes dark-gray_t { 0% { transform: scale(1,1) translate(-0.6663px,2.33403px); animation-timing-function: cubic-bezier(0,0,1,1); } 1.1111% { transform: scale(1.1,1.1) translate(-0.6663px,2.33403px); animation-timing-function: cubic-bezier(0.37,0,0.585,0.965); } 14.4444% { transform: scale(1,1) translate(-0.6663px,2.33403px); } 22.2222% { transform: scale(1,1) translate(-0.6663px,2.33403px); } 100% { transform: scale(1,1) translate(-0.6663px,2.33403px); } }
@keyframes dark-gray_o { 0% { opacity: 0; } 1.1111% { opacity: 1; } 100% { opacity: 1; } }
@keyframes dark-gray_d { 0% { d: path('M0.6663,265.332C146.899,264.973,265.333,146.317,265.333,0C265.333,-0.778799,265.33,-1.55681,265.323,-2.33403L0.7788,-1.6587Z'); } 77.7778% { d: path('M0.6663,265.332C146.899,264.973,265.333,146.317,265.333,0C265.333,-0.778799,265.33,-1.55681,265.323,-2.33403L0.783925,-2.55052Z'); } 100% { d: path('M0.6663,265.332C146.899,264.973,265.333,146.317,265.333,0C265.333,-0.778799,265.33,-1.55681,265.323,-2.33403L0.783925,-2.55052Z'); } }
@keyframes dark-gray-circle_t { 0% { transform: translate(78.666667px,932.666667px) scale(1,1); } 5.5555% { transform: translate(78.666667px,932.666667px) scale(1,1); } 6.6666% { transform: translate(78.666667px,932.666667px) scale(1.2,1.2); } 10% { transform: translate(78.666667px,932.666667px) scale(1,1); } 100% { transform: translate(78.666667px,932.666667px) scale(1,1); } }
@keyframes dark-gray-circle_f { 0% { fill: #121212; } 14.4444% { fill: #121212; } 100% { fill: #121212; } }
@keyframes blue-circle_t { 0% { transform: translate(120.062931px,932.666626px) scale(1,1); } 3.3333% { transform: translate(120.062931px,932.666626px) scale(1,1); } 4.4444% { transform: translate(120.062931px,932.666626px) scale(1.2,1.2); } 7.7777% { transform: translate(120.062931px,932.666626px) scale(1,1); } 100% { transform: translate(120.062931px,932.666626px) scale(1,1); } }
@keyframes blue-circle_f { 0% { fill: #0026e6; } 14.4444% { fill: #0026e6; } 100% { fill: #0026e6; } }
@keyframes teal-circle_t { 0% { transform: translate(161.459195px,932.666626px) scale(1,1); } 8.8888% { transform: translate(161.459195px,932.666626px) scale(1,1); } 10% { transform: translate(161.459195px,932.666626px) scale(1.2,1.2); } 13.3333% { transform: translate(161.459195px,932.666626px) scale(1,1); } 100% { transform: translate(161.459195px,932.666626px) scale(1,1); } }
@keyframes teal-circle_f { 0% { fill: #59c5b4; } 14.4444% { fill: #59c5b4; } 100% { fill: #59c5b4; } }
@keyframes yellow-circle_t { 0% { transform: translate(202.855459px,932.666626px) scale(1,1); } 4.4444% { transform: translate(202.855459px,932.666626px) scale(1,1); } 5.5555% { transform: translate(202.855459px,932.666626px) scale(1.2,1.2); } 8.8888% { transform: translate(202.855459px,932.666626px) scale(1,1); } 100% { transform: translate(202.855459px,932.666626px) scale(1,1); } }
@keyframes yellow-circle_f { 0% { fill: #f6bf67; } 14.4444% { fill: #f6bf67; } 100% { fill: #f6bf67; } }
@keyframes coral-circle_t { 0% { transform: translate(244.251723px,932.666626px) scale(1,1); } 7.7777% { transform: translate(244.251723px,932.666626px) scale(1,1); } 8.8888% { transform: translate(244.251723px,932.666626px) scale(1.2,1.2); } 12.2222% { transform: translate(244.251723px,932.666626px) scale(1,1); } 100% { transform: translate(244.251723px,932.666626px) scale(1,1); } }
@keyframes coral-circle_f { 0% { fill: #ed5a58; } 14.4444% { fill: #ed5a58; } 100% { fill: #ed5a58; } }
@keyframes light-gray-circle_t { 0% { transform: translate(285.647987px,932.666626px) scale(1,1); } 4.4444% { transform: translate(285.647987px,932.666626px) scale(1,1); } 5.5555% { transform: translate(285.647987px,932.666626px) scale(1.2,1.2); } 8.8888% { transform: translate(285.647987px,932.666626px) scale(1,1); } 100% { transform: translate(285.647987px,932.666626px) scale(1,1); } }
@keyframes light-gray-circle_f { 0% { fill: #cccccc; } 14.4444% { fill: #cccccc; } 100% { fill: #cccccc; } }
@keyframes light-purple-circle_t { 0% { transform: translate(327.04425px,932.666626px) scale(1,1); } 10% { transform: translate(327.04425px,932.666626px) scale(1,1); } 11.1111% { transform: translate(327.04425px,932.666626px) scale(1.2,1.2); } 14.4444% { transform: translate(327.04425px,932.666626px) scale(1,1); } 100% { transform: translate(327.04425px,932.666626px) scale(1,1); } }
@keyframes light-purple-circle_f { 0% { fill: #a9afe2; } 14.4444% { fill: #a9afe2; } 100% { fill: #a9afe2; } }
    </style>
    <rect width="824" height="1048" fill="#ffffff" stroke="none" transform="translate(390,503) translate(-390,-503)" style="animation: 9s linear infinite both a0_t, 9s linear infinite both a0_w, 9s linear infinite both a0_h;"/>
    <path fill="#1f1f1f" stroke="none" d="M3.48,0L8.32,0L8.32,-10.12L12.12,-10.12L18.92,0L24.72,0L17.36,-10.6C21.52,-11.8,23.68,-14.76,23.68,-19.2C23.68,-24.48,20.72,-28.4,13.96,-28.4L3.48,-28.4ZM8.32,-14.48L8.32,-24.08L13.24,-24.08C16.72,-24.08,18.68,-22.28,18.68,-19.28C18.68,-16.48,16.8,-14.48,12.92,-14.48ZM46.76,-10C46.76,-15.68,43.04,-19.8,37.56,-19.8C31.84,-19.8,27.76,-15.76,27.76,-9.76C27.76,-3.64,31.96,0.32,37.88,0.32C42.08,0.32,44.52,-1.24,46.16,-3.36L43.04,-6.04C42.04,-4.8,40.44,-3.76,38.12,-3.76C35.08,-3.76,32.96,-5.44,32.4,-8.28L46.64,-8.28C46.68,-8.6,46.76,-9.28,46.76,-10ZM37.52,-15.76C40.08,-15.76,41.68,-14.16,42.24,-11.8L32.48,-11.8C33.12,-14.36,35.04,-15.76,37.52,-15.76ZM55.9263,0L60.2062,0L67.9662,-19.52L63.2062,-19.52L58.1263,-5.6L58.0863,-5.6L53.0062,-19.52L48.2062,-19.52ZM88.3225,-10C88.3225,-15.68,84.6025,-19.8,79.1225,-19.8C73.4025,-19.8,69.3225,-15.76,69.3225,-9.76C69.3225,-3.64,73.5225,0.32,79.4425,0.32C83.6425,0.32,86.0825,-1.24,87.7225,-3.36L84.6025,-6.04C83.6025,-4.8,82.0025,-3.76,79.6825,-3.76C76.6425,-3.76,74.5225,-5.44,73.9625,-8.28L88.2025,-8.28C88.2425,-8.6,88.3225,-9.28,88.3225,-10ZM79.0825,-15.76C81.6425,-15.76,83.2425,-14.16,83.8025,-11.8L74.0425,-11.8C74.6825,-14.36,76.6025,-15.76,79.0825,-15.76ZM92.9669,0L97.4469,0L97.4469,-9.8C97.4469,-13.64,99.4469,-15.76,102.487,-15.76C105.167,-15.76,106.727,-14.44,106.727,-10.32L106.727,0L111.207,0L111.207,-11.48C111.207,-17.36,108.327,-19.8,104.047,-19.8C101.487,-19.8,99.1269,-18.76,97.5269,-16.84L97.4469,-16.84L97.4469,-19.52L92.9669,-19.52ZM123.606,0.32C125.846,0.32,128.006,-0.6,129.566,-2.48L129.646,-2.44L129.646,0L134.126,0L134.126,-19.52L129.646,-19.52L129.646,-10.16C129.646,-5.96,127.246,-3.76,124.646,-3.76C121.966,-3.76,120.766,-4.96,120.766,-8.84L120.766,-19.52L116.286,-19.52L116.286,-7.64C116.286,-1.84,119.286,0.32,123.606,0.32ZM157.651,-10C157.651,-15.68,153.931,-19.8,148.451,-19.8C142.731,-19.8,138.651,-15.76,138.651,-9.76C138.651,-3.64,142.851,0.32,148.771,0.32C152.971,0.32,155.411,-1.24,157.051,-3.36L153.931,-6.04C152.931,-4.8,151.331,-3.76,149.011,-3.76C145.971,-3.76,143.851,-5.44,143.291,-8.28L157.531,-8.28C157.571,-8.6,157.651,-9.28,157.651,-10ZM148.411,-15.76C150.971,-15.76,152.571,-14.16,153.131,-11.8L143.371,-11.8C144.011,-14.36,145.931,-15.76,148.411,-15.76ZM173.014,7.92L177.494,7.92L177.494,-2.36L177.574,-2.4C179.014,-0.64,181.054,0.32,183.694,0.32C189.134,0.32,193.174,-3.64,193.174,-9.68C193.174,-15.56,189.134,-19.8,183.734,-19.8C181.174,-19.8,179.014,-18.88,177.574,-17.2L177.494,-17.2L177.494,-19.52L173.014,-19.52ZM183.014,-3.76C179.814,-3.76,177.294,-6.12,177.294,-9.64C177.294,-13.12,179.614,-15.76,182.974,-15.76C186.094,-15.76,188.614,-13.4,188.614,-9.64C188.614,-6.2,186.294,-3.76,183.014,-3.76ZM215.697,-10C215.697,-15.68,211.978,-19.8,206.497,-19.8C200.777,-19.8,196.697,-15.76,196.697,-9.76C196.697,-3.64,200.898,0.32,206.818,0.32C211.018,0.32,213.458,-1.24,215.098,-3.36L211.978,-6.04C210.977,-4.8,209.378,-3.76,207.057,-3.76C204.018,-3.76,201.898,-5.44,201.337,-8.28L215.577,-8.28C215.617,-8.6,215.697,-9.28,215.697,-10ZM206.458,-15.76C209.018,-15.76,210.617,-14.16,211.178,-11.8L201.417,-11.8C202.057,-14.36,203.977,-15.76,206.458,-15.76ZM220.342,0L224.822,0L224.822,-9.24C224.822,-12.44,226.742,-14.88,230.142,-14.88C230.462,-14.88,230.982,-14.84,231.502,-14.8L231.502,-19.8L230.942,-19.8C228.582,-19.8,226.422,-18.64,224.902,-16.6L224.822,-16.6L224.822,-19.52L220.342,-19.52ZM254.816,0L259.096,0L269.696,-28.4L264.536,-28.4L257.016,-6.96L256.976,-6.96L249.416,-28.4L244.216,-28.4ZM288.291,-10C288.291,-15.68,284.571,-19.8,279.091,-19.8C273.371,-19.8,269.291,-15.76,269.291,-9.76C269.291,-3.64,273.491,0.32,279.411,0.32C283.611,0.32,286.051,-1.24,287.691,-3.36L284.571,-6.04C283.571,-4.8,281.971,-3.76,279.651,-3.76C276.611,-3.76,274.491,-5.44,273.931,-8.28L288.171,-8.28C288.211,-8.6,288.291,-9.28,288.291,-10ZM279.051,-15.76C281.611,-15.76,283.211,-14.16,283.771,-11.8L274.011,-11.8C274.651,-14.36,276.571,-15.76,279.051,-15.76ZM292.936,0L297.416,0L297.416,-9.92C297.416,-13.76,299.416,-15.76,302.656,-15.76C305.336,-15.76,306.896,-14.4,306.896,-10.52L306.896,0L311.376,0L311.376,-11.68C311.376,-17.52,308.376,-19.8,304.096,-19.8C301.456,-19.8,299.096,-18.88,297.456,-17.08L297.416,-17.08L297.416,-29.44L292.936,-29.44ZM319.378,-22.4C321.057,-22.4,322.418,-23.76,322.418,-25.4C322.418,-27,321.057,-28.36,319.378,-28.36C317.698,-28.36,316.378,-27,316.378,-25.4C316.378,-23.76,317.698,-22.4,319.378,-22.4ZM317.138,0L321.617,0L321.617,-19.52L317.138,-19.52ZM336.533,0.32C340.772,0.32,343.293,-1.2,344.932,-3.32L341.853,-6.04C340.853,-4.72,339.092,-3.76,336.932,-3.76C333.492,-3.76,331.133,-6.16,331.133,-9.76C331.133,-13.32,333.453,-15.76,336.932,-15.76C339.052,-15.76,340.733,-14.84,341.853,-13.52L344.892,-16.16C342.932,-18.56,339.733,-19.8,336.693,-19.8C330.772,-19.8,326.573,-15.72,326.573,-9.72C326.573,-3.76,330.772,0.32,336.533,0.32ZM349.294,0L353.774,0L353.774,-29.44L349.294,-29.44ZM377.729,-10C377.729,-15.68,374.009,-19.8,368.529,-19.8C362.809,-19.8,358.729,-15.76,358.729,-9.76C358.729,-3.64,362.929,0.32,368.849,0.32C373.049,0.32,375.489,-1.24,377.129,-3.36L374.009,-6.04C373.009,-4.8,371.409,-3.76,369.089,-3.76C366.049,-3.76,363.929,-5.44,363.369,-8.28L377.609,-8.28C377.649,-8.6,377.729,-9.28,377.729,-10ZM368.489,-15.76C371.049,-15.76,372.649,-14.16,373.209,-11.8L363.449,-11.8C364.089,-14.36,366.009,-15.76,368.489,-15.76Z" transform="translate(68,108.12)"/>
    <path fill="#b2b2b2" stroke="none" d="M8.94,0L11.28,0L19.32,-21.3L16.53,-21.3L10.14,-3.78L10.11,-3.78L3.72,-21.3L0.9,-21.3ZM33.27,-7.56C33.27,-11.73,30.54,-14.79,26.55,-14.79C22.38,-14.79,19.35,-11.7,19.35,-7.29C19.35,-2.82,22.41,0.18,26.73,0.18C29.67,0.18,31.5,-0.93,32.76,-2.55L31.05,-3.99C30.15,-2.88,28.77,-2.04,26.82,-2.04C24.06,-2.04,22.14,-3.84,21.81,-6.57L33.21,-6.57C33.21,-6.75,33.27,-7.17,33.27,-7.56ZM26.52,-12.57C28.92,-12.57,30.48,-10.95,30.84,-8.55L21.87,-8.55C22.32,-11.04,24.18,-12.57,26.52,-12.57ZM36.8425,0L39.2725,0L39.2725,-7.35C39.2725,-10.65,41.0725,-12.57,43.9825,-12.57C46.1125,-12.57,47.5825,-11.37,47.5825,-8.07L47.5825,0L50.0125,0L50.0125,-8.76C50.0125,-12.93,47.8525,-14.79,44.7025,-14.79C42.3625,-14.79,40.4425,-13.8,39.3025,-12.06L39.2725,-12.06L39.2725,-22.08L36.8425,-22.08ZM55.69,-17.28C56.68,-17.28,57.46,-18.06,57.46,-19.02C57.46,-19.98,56.68,-20.76,55.69,-20.76C54.7,-20.76,53.92,-19.98,53.92,-19.02C53.92,-18.06,54.7,-17.28,55.69,-17.28ZM54.46,0L56.89,0L56.89,-14.61L54.46,-14.61ZM67.9837,0.18C70.8337,0.18,72.7838,-0.9,74.0137,-2.37L72.3337,-3.9C71.4337,-2.79,69.9037,-2.04,68.1637,-2.04C65.1937,-2.04,63.1838,-4.17,63.1838,-7.29C63.1838,-10.38,65.1937,-12.57,68.1937,-12.57C69.9337,-12.57,71.3737,-11.79,72.3037,-10.71L73.9538,-12.18C72.5137,-13.89,70.2637,-14.79,68.0738,-14.79C63.7238,-14.79,60.6937,-11.7,60.6937,-7.29C60.6937,-2.85,63.7238,0.18,67.9837,0.18ZM77.4287,0L79.8587,0L79.8587,-22.08L77.4287,-22.08ZM97.5825,-7.56C97.5825,-11.73,94.8525,-14.79,90.8625,-14.79C86.6925,-14.79,83.6625,-11.7,83.6625,-7.29C83.6625,-2.82,86.7225,0.18,91.0425,0.18C93.9825,0.18,95.8125,-0.93,97.0725,-2.55L95.3625,-3.99C94.4625,-2.88,93.0825,-2.04,91.1325,-2.04C88.3725,-2.04,86.4525,-3.84,86.1225,-6.57L97.5225,-6.57C97.5225,-6.75,97.5825,-7.17,97.5825,-7.56ZM90.8325,-12.57C93.2325,-12.57,94.7925,-10.95,95.1525,-8.55L86.1825,-8.55C86.6325,-11.04,88.4925,-12.57,90.8325,-12.57ZM105.565,0.18C109.075,0.18,110.815,-1.71,110.815,-3.99C110.845,-6.84,108.805,-7.38,105.715,-8.58C104.125,-9.15,102.955,-9.72,102.955,-10.86C102.955,-11.97,104.065,-12.63,105.205,-12.63C106.465,-12.63,107.815,-12.24,109.075,-11.07L110.335,-12.99C108.715,-14.31,107.065,-14.79,105.295,-14.79C102.535,-14.79,100.495,-13.11,100.495,-10.86C100.495,-8.19,102.505,-7.23,104.875,-6.39C107.005,-5.61,108.355,-5.25,108.355,-3.96C108.355,-2.85,107.335,-1.98,105.565,-1.98C103.525,-1.98,102.235,-2.64,101.095,-3.75L99.865,-1.89C101.275,-0.66,103.135,0.18,105.565,0.18Z" transform="translate(68,898)"/>
    <path fill="#b2b2b2" stroke="none" d="M0.24125,0L1.92125,0L1.92125,-13.74L0.52125,-13.74L-3.31875,-10.9L-2.49875,-9.64L0.24125,-11.72Z" transform="translate(78.6667,980.667)" style="animation: 9s linear infinite both a1_t;"/>
    <path fill="#b2b2b2" stroke="none" d="M-4.39625,0L4.24375,0L4.24375,-1.54L-1.83625,-1.54L-1.85625,-1.6L1.72375,-5.2C3.42375,-6.92,4.08375,-8.26,4.08375,-9.8C4.08375,-12.34,2.08375,-13.84,-0.11625,-13.84C-2.25625,-13.84,-3.63625,-12.76,-4.39625,-11.24L-3.15625,-10.38C-2.51625,-11.62,-1.51625,-12.26,-0.21625,-12.26C1.30375,-12.26,2.36375,-11.14,2.36375,-9.62C2.36375,-8.26,1.44375,-7.16,0.283751,-5.96L-4.41625,-1.16Z" transform="translate(120.063,980.667)" style="animation: 9s linear infinite both a2_t;"/>
    <path fill="#b2b2b2" stroke="none" d="M-0.108125,0.12C2.43188,0.12,4.33187,-1.4,4.33187,-3.68C4.33187,-5.32,3.41187,-6.56,1.95187,-7.12L1.95187,-7.18C3.25187,-7.74,3.97188,-8.98,3.97188,-10.26C3.97188,-12.54,2.09188,-13.86,-0.248125,-13.86C-2.22813,-13.86,-3.62812,-12.94,-4.34812,-11.68L-2.98813,-10.92C-2.44813,-11.72,-1.64812,-12.3,-0.288125,-12.3C1.15188,-12.3,2.27187,-11.4,2.27187,-10.04C2.27187,-8.94,1.55188,-7.84,-0.208125,-7.84L-1.54813,-7.84L-1.54813,-6.4L-0.408125,-6.4C1.63188,-6.4,2.61188,-5.24,2.61188,-3.92C2.61188,-2.42,1.37188,-1.44,-0.228125,-1.44C-1.82812,-1.44,-2.86812,-2.16,-3.34812,-3.26L-4.80813,-2.6C-4.12813,-1.02,-2.44813,0.12,-0.108125,0.12Z" transform="translate(161.459,980.667)" style="animation: 9s linear infinite both a3_t;"/>
    <path fill="#b2b2b2" stroke="none" d="M1.32719,0L3.00719,0L3.00719,-2.42L5.00719,-2.42L5.00719,-3.94L3.00719,-3.94L3.00719,-13.74L1.58719,-13.74L-5.05281,-3.62L-5.05281,-2.42L1.32719,-2.42ZM-3.09281,-3.9L1.38719,-10.88L1.38719,-3.9Z" transform="translate(202.855,980.667)" style="animation: 9s linear infinite both a4_t;"/>
    <path fill="#b2b2b2" stroke="none" d="M0.136562,-8.72C-0.423438,-8.72,-1.24344,-8.58,-1.96344,-8.32L-1.74344,-12.18L3.93656,-12.18L3.93656,-13.74L-3.32344,-13.74L-3.72344,-6.8L-2.74344,-6.5C-2.04344,-7.04,-1.22344,-7.26,-0.323438,-7.26C1.35656,-7.26,2.85656,-6.22,2.85656,-4.36C2.85656,-2.66,1.57656,-1.44,-0.343437,-1.44C-1.74344,-1.44,-2.90344,-2.1,-3.52344,-3.1L-4.78344,-2.16C-3.82344,-0.72,-2.10344,0.12,-0.203437,0.12C2.57656,0.12,4.57656,-1.68,4.57656,-4.34C4.57656,-7.1,2.57656,-8.72,0.136562,-8.72Z" transform="translate(244.252,980.667)" style="animation: 9s linear infinite both a5_t;"/>
    <path fill="#b2b2b2" stroke="none" d="M0.563125,-8.66C-0.756875,-8.66,-1.95687,-8.2,-2.81687,-7.44C-2.03688,-10.44,0.243125,-12.1,2.74312,-12.74L2.24312,-14.16C-1.37687,-13.5,-4.73688,-10.14,-4.73688,-5.26C-4.73688,-2,-2.63687,0.12,0.0831251,0.12C2.82312,0.12,4.84313,-1.78,4.84313,-4.3C4.84313,-7.04,3.04313,-8.66,0.563125,-8.66ZM0.183125,-1.44C-1.63688,-1.44,-3.09687,-2.92,-3.09687,-5.08L-3.09687,-5.2C-2.47688,-6.2,-1.33687,-7.12,0.183125,-7.12C1.98312,-7.12,3.16313,-5.98,3.16313,-4.32C3.16313,-2.76,1.98312,-1.44,0.183125,-1.44Z" transform="translate(285.648,980.667)" style="animation: 9s linear infinite both a6_t;"/>
    <path fill="#b2b2b2" stroke="none" d="M-4.39844,-13.74L-4.39844,-12.2L2.24156,-12.2L-2.99844,-0.1L-1.31844,0.24L4.12156,-12.56L4.12156,-13.74Z" transform="translate(327.044,980.667)" style="animation: 9s linear infinite both a7_t;"/>
    <g id="light-purple" style="animation: 9s linear infinite both a8_t;">
        <g style="animation: 9s linear infinite both a9_t;">
            <path fill="#a9afe2" stroke="none" d="M1.13253,265.331C0.74969,265.332,0.366656,265.333,-0.0165664,265.333C-74.4092,265.333,-141.65,234.712,-189.826,185.385L0.7788,-1.6587Z" fill-rule="evenodd" opacity="0" transform="translate(413.126,522.338) rotate(217.115) translate(-1.13253,1.6587)" style="animation: 9s linear infinite both light-purple_t, 9s linear infinite both light-purple_o, 9s linear infinite both light-purple_d;"/>
        </g>
    </g>
    <g id="light-gray" style="animation: 9s linear infinite both a10_t;">
        <g style="animation: 9s linear infinite both a11_t;">
            <path fill="#cccccc" stroke="none" d="M-189.459,185.761C-236.392,137.899,-265.333,72.3293,-265.333,0C-265.333,-0.454757,-265.332,-0.909247,-265.33,-1.36347L0.792967,-1.64037C0.28821,-1.13561,-91.3434,88.5502,-189.459,185.761Z" fill-rule="evenodd" opacity="0" transform="translate(412.787,522.356) rotate(-240.097) translate(-0.792967,1.64037)" style="animation: 9s linear infinite both light-gray_t, 9s linear infinite both light-gray_o, 9s linear infinite both light-gray_f, 9s linear infinite both light-gray_d;"/>
        </g>
    </g>
    <g id="coral" style="animation: 9s linear infinite both a12_t;">
        <g style="animation: 9s linear infinite both a13_t;">
            <path fill="#ed5a58" stroke="none" d="M-163.691,-208.837L0.7863,-1.6437L-265.331,-1.13933C-264.976,-85.4501,-225.299,-160.48,-163.691,-208.837Z" fill-rule="evenodd" opacity="0" transform="translate(412.78,522.857) rotate(279.057) translate(-0.7863,1.13933)" style="animation: 9s linear infinite both coral_t, 9s linear infinite both coral_o, 9s linear infinite both coral_f, 9s linear infinite both coral_d;"/>
        </g>
    </g>
    <g id="yellow" style="animation: 9s linear infinite both a14_t;">
        <g style="animation: 9s linear infinite both a15_t;">
            <path fill="#f6bf67" stroke="none" d="M-98.658,-246.385L0.7963,-1.6437L-164.147,-208.479C-144.392,-224.054,-122.37,-236.881,-98.658,-246.385Z" fill-rule="evenodd" opacity="0" transform="translate(412.79,522.353) rotate(-130.975) translate(-0.7963,1.6437)" style="animation: 9s linear infinite both yellow_t, 9s linear infinite both yellow_o, 9s linear infinite both yellow_f, 9s linear infinite both yellow_d;"/>
        </g>
    </g>
    <g id="teal" style="animation: 9s linear infinite both a16_t;">
        <path fill="#59c5b4" stroke="none" d="M1.2663,-265.33L0.7813,-1.6487L-98.861,-246.304C-68.3079,-258.578,-34.9428,-265.333,0,-265.333C0.422331,-265.333,0.844432,-265.332,1.2663,-265.33Z" fill-rule="evenodd" opacity="0" transform="translate(413.26,522.348) rotate(146.311) translate(-1.2663,1.6487)" style="animation: 9s linear infinite both teal_t, 9s linear infinite both teal_o, 9s linear infinite both teal_f, 9s linear infinite both teal_d;"/>
    </g>
    <g id="blue" style="animation: 9s linear infinite both a17_t;">
        <g style="animation: 9s linear infinite both a18_t;">
            <path fill="#0026e6" stroke="none" d="M265.332,-0.733359C264.938,-146.491,147.015,-264.613,1.33297,-265.33L0.7788,-1.6587Z" fill-rule="evenodd" opacity="0" transform="translate(412.773,523.263) rotate(-174.215) translate(-0.7788,0.733359)" style="animation: 9s linear infinite both blue_t, 9s linear infinite both blue_o, 9s linear infinite both blue_f, 9s linear infinite both blue_d;"/>
        </g>
    </g>
    <g id="dark-gray" style="animation: 9s linear infinite both a19_t;">
        <path fill="#121212" stroke="none" d="M0.6663,265.332C146.899,264.973,265.333,146.317,265.333,0C265.333,-0.778799,265.33,-1.55681,265.323,-2.33403L0.7788,-1.6587Z" fill-rule="evenodd" opacity="0" transform="translate(412.66,521.662) rotate(-215.051) translate(-0.6663,2.33403)" style="animation: 9s linear infinite both dark-gray_t, 9s linear infinite both dark-gray_o, 9s linear infinite both dark-gray_d;"/>
    </g>
    <ellipse id="dark-gray-circle" rx="10.6667" ry="10.6667" fill="#121212" stroke="none" transform="translate(78.6667,932.667)" style="animation: 9s linear infinite both dark-gray-circle_t, 9s linear infinite both dark-gray-circle_f;"/>
    <ellipse id="blue-circle" rx="10.6667" ry="10.6667" fill="#0026e6" stroke="none" transform="translate(120.063,932.667)" style="animation: 9s linear infinite both blue-circle_t, 9s linear infinite both blue-circle_f;"/>
    <ellipse id="teal-circle" rx="10.6667" ry="10.6667" fill="#59c5b4" stroke="none" transform="translate(161.459,932.667)" style="animation: 9s linear infinite both teal-circle_t, 9s linear infinite both teal-circle_f;"/>
    <ellipse id="yellow-circle" rx="10.6667" ry="10.6667" fill="#f6bf67" stroke="none" transform="translate(202.855,932.667)" style="animation: 9s linear infinite both yellow-circle_t, 9s linear infinite both yellow-circle_f;"/>
    <ellipse id="coral-circle" rx="10.6667" ry="10.6667" fill="#ed5a58" stroke="none" transform="translate(244.252,932.667)" style="animation: 9s linear infinite both coral-circle_t, 9s linear infinite both coral-circle_f;"/>
    <ellipse id="light-gray-circle" rx="10.6667" ry="10.6667" fill="#cccccc" stroke="none" transform="translate(285.648,932.667)" style="animation: 9s linear infinite both light-gray-circle_t, 9s linear infinite both light-gray-circle_f;"/>
    <ellipse id="light-purple-circle" rx="10.6667" ry="10.6667" fill="#a9afe2" stroke="none" transform="translate(327.044,932.667)" style="animation: 9s linear infinite both light-purple-circle_t, 9s linear infinite both light-purple-circle_f;"/>
</svg>
