<svg width="32" height="35" viewBox="0 0 32 35" fill="none" xmlns="http://www.w3.org/2000/svg">
<g clip-path="url(#clip0)">
<path d="M30.0793 32.7161H28.1593V11.5864C28.1593 11.0441 27.957 10.524 27.5969 10.1405C27.2369 9.75704 26.7485 9.5416 26.2393 9.5416H24.9593C24.4501 9.5416 23.9617 9.75704 23.6017 10.1405C23.2416 10.524 23.0393 11.0441 23.0393 11.5864V32.7161H19.1993V19.7656C19.1993 19.2233 18.997 18.7032 18.6369 18.3197C18.2769 17.9363 17.7885 17.7208 17.2793 17.7208H15.9993C15.4901 17.7208 15.0017 17.9363 14.6417 18.3197C14.2816 18.7032 14.0793 19.2233 14.0793 19.7656V32.7161H10.2393V26.5816C10.2393 26.0393 10.037 25.5192 9.67694 25.1357C9.31687 24.7523 8.82851 24.5368 8.3193 24.5368H7.0393C6.53008 24.5368 6.04172 24.7523 5.68165 25.1357C5.32158 25.5192 5.1193 26.0393 5.1193 26.5816V32.7161H2.5593V3.40719C2.5593 3.22642 2.49187 3.05305 2.37185 2.92522C2.25182 2.7974 2.08904 2.72559 1.9193 2.72559C1.74956 2.72559 1.58677 2.7974 1.46675 2.92522C1.34673 3.05305 1.2793 3.22642 1.2793 3.40719V33.3977C1.2793 33.5784 1.34673 33.7518 1.46675 33.8796C1.58677 34.0074 1.74956 34.0793 1.9193 34.0793H30.0793C30.249 34.0793 30.4118 34.0074 30.5318 33.8796C30.6519 33.7518 30.7193 33.5784 30.7193 33.3977C30.7193 33.2169 30.6519 33.0435 30.5318 32.9157C30.4118 32.7879 30.249 32.7161 30.0793 32.7161ZM6.3993 32.7161V26.5816C6.3993 26.4009 6.46673 26.2275 6.58675 26.0997C6.70677 25.9719 6.86956 25.9 7.0393 25.9H8.3193C8.48904 25.9 8.65182 25.9719 8.77184 26.0997C8.89187 26.2275 8.9593 26.4009 8.9593 26.5816V32.7161H6.3993ZM15.3593 32.7161V19.7656C15.3593 19.5849 15.4267 19.4115 15.5467 19.2837C15.6668 19.1558 15.8296 19.084 15.9993 19.084H17.2793C17.449 19.084 17.6118 19.1558 17.7318 19.2837C17.8519 19.4115 17.9193 19.5849 17.9193 19.7656V32.7161H15.3593ZM24.3193 32.7161V11.5864C24.3193 11.4056 24.3867 11.2323 24.5067 11.1044C24.6268 10.9766 24.7896 10.9048 24.9593 10.9048H26.2393C26.409 10.9048 26.5718 10.9766 26.6918 11.1044C26.8119 11.2323 26.8793 11.4056 26.8793 11.5864V32.7161H24.3193Z" fill="#141414"/>
</g>
<defs>
<clipPath id="clip0">
<rect width="32" height="34.0801" fill="white"/>
</clipPath>
</defs>
</svg>
