<svg width="32" height="32" viewBox="0 0 32 32" fill="none" xmlns="http://www.w3.org/2000/svg">
<path d="M27.88 21.8241V16.0001C27.88 15.4909 27.6777 15.0025 27.3176 14.6425C26.9576 14.2824 26.4692 14.0801 25.96 14.0801H16.36V7.61611C17.137 7.45751 17.8274 7.01605 18.2974 6.37733C18.7674 5.73861 18.9835 4.94813 18.9038 4.15913C18.8241 3.37014 18.4543 2.63885 17.866 2.10703C17.2778 1.57521 16.513 1.28076 15.72 1.28076C14.927 1.28076 14.1622 1.57521 13.574 2.10703C12.9857 2.63885 12.6159 3.37014 12.5362 4.15913C12.4565 4.94813 12.6726 5.73861 13.1426 6.37733C13.6126 7.01605 14.303 7.45751 15.08 7.61611V14.0801H5.48001C4.97079 14.0801 4.48243 14.2824 4.12236 14.6425C3.76229 15.0025 3.56001 15.4909 3.56001 16.0001V21.8241C2.78302 21.9827 2.0926 22.4242 1.6226 23.0629C1.1526 23.7016 0.936507 24.4921 1.01621 25.2811C1.09592 26.0701 1.46574 26.8014 2.05399 27.3332C2.64224 27.865 3.407 28.1595 4.20001 28.1595C4.99302 28.1595 5.75778 27.865 6.34603 27.3332C6.93427 26.8014 7.3041 26.0701 7.3838 25.2811C7.46351 24.4921 7.24741 23.7016 6.77741 23.0629C6.30741 22.4242 5.61699 21.9827 4.84001 21.8241V16.0001C4.84001 15.8304 4.90744 15.6676 5.02746 15.5476C5.14748 15.4275 5.31027 15.3601 5.48001 15.3601H15.08V21.8241C14.303 21.9827 13.6126 22.4242 13.1426 23.0629C12.6726 23.7016 12.4565 24.4921 12.5362 25.2811C12.6159 26.0701 12.9857 26.8014 13.574 27.3332C14.1622 27.865 14.927 28.1595 15.72 28.1595C16.513 28.1595 17.2778 27.865 17.866 27.3332C18.4543 26.8014 18.8241 26.0701 18.9038 25.2811C18.9835 24.4921 18.7674 23.7016 18.2974 23.0629C17.8274 22.4242 17.137 21.9827 16.36 21.8241V15.3601H25.96C26.1297 15.3601 26.2925 15.4275 26.4126 15.5476C26.5326 15.6676 26.6 15.8304 26.6 16.0001V21.8241C25.823 21.9827 25.1326 22.4242 24.6626 23.0629C24.1926 23.7016 23.9765 24.4921 24.0562 25.2811C24.1359 26.0701 24.5057 26.8014 25.094 27.3332C25.6822 27.865 26.447 28.1595 27.24 28.1595C28.033 28.1595 28.7978 27.865 29.386 27.3332C29.9743 26.8014 30.3441 26.0701 30.4238 25.2811C30.5035 24.4921 30.2874 23.7016 29.8174 23.0629C29.3474 22.4242 28.657 21.9827 27.88 21.8241ZM13.8 4.48011C13.8 4.10037 13.9126 3.72916 14.1236 3.41341C14.3346 3.09767 14.6344 2.85158 14.9853 2.70626C15.3361 2.56094 15.7221 2.52292 16.0946 2.597C16.467 2.67108 16.8091 2.85395 17.0777 3.12246C17.3462 3.39098 17.529 3.73309 17.6031 4.10554C17.6772 4.47798 17.6392 4.86403 17.4939 5.21486C17.3485 5.5657 17.1024 5.86556 16.7867 6.07653C16.471 6.2875 16.0997 6.40011 15.72 6.40011C15.2108 6.40011 14.7224 6.19782 14.3624 5.83775C14.0023 5.47768 13.8 4.98932 13.8 4.48011ZM6.12001 24.9601C6.12001 25.3398 6.0074 25.7111 5.79643 26.0268C5.58546 26.3425 5.28559 26.5886 4.93476 26.734C4.58393 26.8793 4.19788 26.9173 3.82543 26.8432C3.45299 26.7691 3.11088 26.5863 2.84236 26.3178C2.57385 26.0492 2.39098 25.7071 2.3169 25.3347C2.24282 24.9622 2.28084 24.5762 2.42616 24.2254C2.57148 23.8745 2.81757 23.5747 3.13331 23.3637C3.44905 23.1527 3.82027 23.0401 4.20001 23.0401C4.70922 23.0401 5.19758 23.2424 5.55765 23.6025C5.91772 23.9625 6.12001 24.4509 6.12001 24.9601ZM17.64 24.9601C17.64 25.3398 17.5274 25.7111 17.3164 26.0268C17.1055 26.3425 16.8056 26.5886 16.4548 26.734C16.1039 26.8793 15.7179 26.9173 15.3454 26.8432C14.973 26.7691 14.6309 26.5863 14.3624 26.3178C14.0938 26.0492 13.911 25.7071 13.8369 25.3347C13.7628 24.9622 13.8008 24.5762 13.9462 24.2254C14.0915 23.8745 14.3376 23.5747 14.6533 23.3637C14.9691 23.1527 15.3403 23.0401 15.72 23.0401C16.2292 23.0401 16.7176 23.2424 17.0777 23.6025C17.4377 23.9625 17.64 24.4509 17.64 24.9601ZM27.24 26.8801C26.8603 26.8801 26.4891 26.7675 26.1733 26.5565C25.8576 26.3456 25.6115 26.0457 25.4662 25.6949C25.3208 25.344 25.2828 24.958 25.3569 24.5855C25.431 24.2131 25.6138 23.871 25.8824 23.6025C26.1509 23.334 26.493 23.1511 26.8654 23.077C27.2379 23.0029 27.6239 23.0409 27.9748 23.1863C28.3256 23.3316 28.6255 23.5777 28.8364 23.8934C29.0474 24.2092 29.16 24.5804 29.16 24.9601C29.16 25.4693 28.9577 25.9577 28.5977 26.3178C28.2376 26.6778 27.7492 26.8801 27.24 26.8801Z" fill="black"/>
</svg>
