<svg width="33" height="32" viewBox="0 0 33 32" fill="none" xmlns="http://www.w3.org/2000/svg">
<g clip-path="url(#clip0)">
<path d="M10.5704 15.36H15.6904C15.8601 15.36 16.0229 15.4274 16.1429 15.5474C16.263 15.6674 16.3304 15.8302 16.3304 16V17.28C16.3304 17.4497 16.263 17.6125 16.1429 17.7325C16.0229 17.8525 15.8601 17.92 15.6904 17.92H9.29039C9.12065 17.92 8.95787 17.9874 8.83784 18.1074C8.71782 18.2274 8.65039 18.3902 8.65039 18.56C8.65039 18.7297 8.71782 18.8925 8.83784 19.0125C8.95787 19.1325 9.12065 19.2 9.29039 19.2H12.4904V19.84C12.4904 20.0097 12.5578 20.1725 12.6778 20.2925C12.7979 20.4125 12.9607 20.48 13.1304 20.48C13.3001 20.48 13.4629 20.4125 13.5829 20.2925C13.703 20.1725 13.7704 20.0097 13.7704 19.84V19.2H15.6904C16.1996 19.2 16.688 18.9977 17.048 18.6376C17.4081 18.2775 17.6104 17.7892 17.6104 17.28V16C17.6104 15.4907 17.4081 15.0024 17.048 14.6423C16.688 14.2822 16.1996 14.08 15.6904 14.08H10.5704C10.4007 14.08 10.2379 14.0125 10.1178 13.8925C9.99782 13.7725 9.93039 13.6097 9.93039 13.44V12.16C9.93039 11.9902 9.99782 11.8274 10.1178 11.7074C10.2379 11.5874 10.4007 11.52 10.5704 11.52H16.9704C17.1401 11.52 17.3029 11.4525 17.4229 11.3325C17.543 11.2125 17.6104 11.0497 17.6104 10.88C17.6104 10.7102 17.543 10.5474 17.4229 10.4274C17.3029 10.3074 17.1401 10.24 16.9704 10.24H13.7704V9.59996C13.7704 9.43022 13.703 9.26744 13.5829 9.14741C13.4629 9.02739 13.3001 8.95996 13.1304 8.95996C12.9607 8.95996 12.7979 9.02739 12.6778 9.14741C12.5578 9.26744 12.4904 9.43022 12.4904 9.59996V10.24H10.5704C10.0612 10.24 9.57282 10.4422 9.21275 10.8023C8.85268 11.1624 8.65039 11.6507 8.65039 12.16V13.44C8.65039 13.9492 8.85268 14.4375 9.21275 14.7976C9.57282 15.1577 10.0612 15.36 10.5704 15.36Z" fill="#141414"/>
<path d="M27.2107 25.6001H25.2907V0.640096C25.2906 0.52433 25.2592 0.410748 25.1997 0.311447C25.1402 0.212146 25.0548 0.130845 24.9528 0.0762037C24.8507 0.021562 24.7358 -0.00437421 24.6201 0.00115743C24.5045 0.00668907 24.3925 0.0434814 24.2961 0.107616L20.8107 2.4321L17.3253 0.107616C17.2201 0.0374468 17.0965 0 16.9701 0C16.8436 0 16.72 0.0374468 16.6149 0.107616L13.1307 2.4321L9.64526 0.107616C9.54009 0.0374468 9.41649 0 9.29006 0C9.16363 0 9.04004 0.0374468 8.93486 0.107616L5.4507 2.4321L1.96526 0.107616C1.86889 0.0434814 1.75692 0.00668907 1.64128 0.00115743C1.52565 -0.00437421 1.41068 0.021562 1.30862 0.0762037C1.20656 0.130845 1.12124 0.212146 1.06173 0.311447C1.00222 0.410748 0.970763 0.52433 0.970703 0.640096V28.8001C0.970553 29.5378 1.22528 30.2529 1.69179 30.8244C2.15829 31.3958 2.80791 31.7886 3.5307 31.9361V32.0001H25.2907C25.9697 32.0001 26.6208 31.7304 27.1009 31.2503C27.581 30.7702 27.8507 30.119 27.8507 29.4401V26.2401C27.8507 26.0704 27.7833 25.9076 27.6633 25.7875C27.5432 25.6675 27.3804 25.6001 27.2107 25.6001ZM2.2507 28.8001V1.83562L5.09614 3.73258C5.20131 3.80274 5.32491 3.84019 5.45134 3.84019C5.57777 3.84019 5.70137 3.80274 5.80654 3.73258L9.2907 1.4081L12.7761 3.7313C12.8813 3.80146 13.0049 3.83891 13.1313 3.83891C13.2578 3.83891 13.3814 3.80146 13.4865 3.7313L16.9707 1.4081L20.4561 3.7313C20.5613 3.80146 20.6849 3.83891 20.8113 3.83891C20.9378 3.83891 21.0614 3.80146 21.1665 3.7313L24.0107 1.83562V25.6001H6.7307C6.56097 25.6001 6.39818 25.6675 6.27815 25.7875C6.15813 25.9076 6.0907 26.0704 6.0907 26.2401V28.8001C6.0907 29.3093 5.88842 29.7977 5.52835 30.1577C5.16828 30.5178 4.67992 30.7201 4.1707 30.7201C3.66149 30.7201 3.17313 30.5178 2.81306 30.1577C2.45299 29.7977 2.2507 29.3093 2.2507 28.8001ZM26.5707 29.4401C26.5707 29.7796 26.4358 30.1051 26.1958 30.3452C25.9558 30.5852 25.6302 30.7201 25.2907 30.7201H6.71662C7.13901 30.169 7.3688 29.4945 7.3707 28.8001V26.8801H26.5707V29.4401Z" fill="#141414"/>
</g>
<defs>
<clipPath id="clip0">
<rect x="0.851562" width="32" height="32" fill="white"/>
</clipPath>
</defs>
</svg>
