<svg width="29" height="27" viewBox="0 0 29 27" fill="none" xmlns="http://www.w3.org/2000/svg">
<g clip-path="url(#clip0)">
<path d="M9.44994 11.5994C9.55871 11.6996 9.7062 11.7559 9.86 11.7559C10.0138 11.7559 10.1613 11.6996 10.2701 11.5994L13.7501 8.39324C13.8588 8.29304 13.9199 8.15714 13.9199 8.01545C13.9199 7.87376 13.8588 7.73786 13.7501 7.63766L10.2701 4.4315C10.1607 4.33416 10.0142 4.2803 9.86209 4.28151C9.71001 4.28273 9.56454 4.33893 9.457 4.438C9.34947 4.53708 9.28847 4.6711 9.28715 4.81121C9.28583 4.95132 9.34429 5.0863 9.44994 5.18708L11.9399 7.48109H8.7C6.39262 7.48109 4.17974 8.32557 2.54817 9.82875C0.916604 11.3319 0 13.3707 0 15.4965C0 17.6223 0.916604 19.6611 2.54817 21.1642C4.17974 22.6674 6.39262 23.5119 8.7 23.5119H13.34C13.4938 23.5119 13.6414 23.4556 13.7501 23.3554C13.8589 23.2552 13.92 23.1193 13.92 22.9775C13.92 22.8358 13.8589 22.6999 13.7501 22.5997C13.6414 22.4995 13.4938 22.4432 13.34 22.4432H8.7C6.70027 22.4432 4.78244 21.7113 3.36841 20.4085C1.95439 19.1058 1.16 17.3389 1.16 15.4965C1.16 13.6541 1.95439 11.8872 3.36841 10.5844C4.78244 9.28169 6.70027 8.54981 8.7 8.54981H11.9399L9.44994 10.8438C9.34121 10.944 9.28012 11.0799 9.28012 11.2216C9.28012 11.3633 9.34121 11.4992 9.44994 11.5994Z" fill="white"/>
<path d="M29.0001 15.4965C29.0001 13.3707 28.0835 11.332 26.4519 9.8288C24.8203 8.32562 22.6075 7.48114 20.3001 7.48114H15.6601C15.5063 7.48114 15.3587 7.53744 15.25 7.63765C15.1412 7.73786 15.0801 7.87378 15.0801 8.0155C15.0801 8.15722 15.1412 8.29314 15.25 8.39335C15.3587 8.49356 15.5063 8.54986 15.6601 8.54986H20.3001C22.2998 8.54986 24.2176 9.28174 25.6317 10.5845C27.0457 11.8873 27.8401 13.6542 27.8401 15.4965C27.8401 17.3389 27.0457 19.1058 25.6317 20.4086C24.2176 21.7113 22.2998 22.4432 20.3001 22.4432H17.0602L19.5501 20.1492C19.6055 20.0999 19.6497 20.041 19.6801 19.9758C19.7105 19.9106 19.7265 19.8405 19.7272 19.7695C19.7279 19.6986 19.7132 19.6282 19.684 19.5625C19.6549 19.4968 19.6118 19.4372 19.5573 19.387C19.5029 19.3368 19.4381 19.2972 19.3668 19.2703C19.2956 19.2434 19.2192 19.2299 19.1422 19.2305C19.0652 19.2311 18.989 19.2459 18.9183 19.2739C18.8475 19.3019 18.7835 19.3426 18.73 19.3936L15.25 22.5998C15.1413 22.7 15.0802 22.8359 15.0802 22.9776C15.0802 23.1193 15.1413 23.2552 15.25 23.3554L18.73 26.5615C18.8394 26.6589 18.9859 26.7127 19.138 26.7115C19.2901 26.7103 19.4355 26.6541 19.5431 26.555C19.6506 26.456 19.7116 26.3219 19.7129 26.1818C19.7143 26.0417 19.6558 25.9067 19.5501 25.806L17.0602 23.512H20.3001C22.6075 23.512 24.8203 22.6675 26.4519 21.1643C28.0835 19.6611 29.0001 17.6224 29.0001 15.4965Z" fill="white"/>
</g>
<defs>
<clipPath id="clip0">
<rect width="29" height="26.718" fill="white"/>
</clipPath>
</defs>
</svg>
