<svg width="32" height="32" viewBox="0 0 32 32" fill="none" xmlns="http://www.w3.org/2000/svg">
<path d="M15.9999 17.92C15.7031 17.9205 15.4077 17.9599 15.1211 18.0369C14.6099 18.1772 14.1424 18.4444 13.762 18.8136C13.3816 19.1828 13.1006 19.6421 12.9451 20.1489C12.7571 20.7457 12.7489 21.3846 12.9218 21.9859C13.0946 22.5872 13.4407 23.1243 13.9169 23.5301L12.8338 26.0371C12.8016 26.1332 12.7928 26.2356 12.808 26.3359C12.8232 26.4361 12.862 26.5313 12.9212 26.6136C12.9803 26.6959 13.0582 26.763 13.1484 26.8093C13.2386 26.8556 13.3385 26.8798 13.4399 26.88H18.5599C18.6613 26.8799 18.7612 26.8558 18.8515 26.8096C18.9417 26.7634 19.0197 26.6964 19.079 26.6142C19.1383 26.5319 19.1772 26.4367 19.1925 26.3365C19.2078 26.2362 19.199 26.1338 19.167 26.0376L18.0837 23.5306C18.5801 23.1065 18.9343 22.5403 19.0985 21.9084C19.2626 21.2765 19.2287 20.6094 19.0014 19.9974C18.7741 19.3854 18.3643 18.858 17.8275 18.4864C17.2907 18.1149 16.6527 17.9171 15.9999 17.92ZM17.6714 25.6H14.3283L15.4016 23.1229L14.7539 22.5626C14.4651 22.3172 14.2557 21.9916 14.152 21.627C14.0483 21.2624 14.0551 20.8753 14.1715 20.5146C14.2637 20.2171 14.4292 19.9476 14.6526 19.7306C14.8761 19.5137 15.1505 19.3564 15.4506 19.273C15.6297 19.225 15.8144 19.2004 15.9999 19.2C16.5089 19.2005 16.9969 19.403 17.3569 19.7629C17.7168 20.1229 17.9193 20.6109 17.9199 21.12C17.9193 21.395 17.8587 21.6666 17.7423 21.9157C17.6258 22.1649 17.4564 22.3856 17.2458 22.5625L16.5981 23.1228L17.6714 25.6Z" fill="#1F1F1F"/>
<path d="M24.9601 12.8H10.2401V7.04C10.2401 5.51235 10.847 4.04727 11.9272 2.96706C13.0074 1.88686 14.4725 1.28 16.0001 1.28C17.5278 1.28 18.9928 1.88686 20.0731 2.96706C21.1533 4.04727 21.7601 5.51235 21.7601 7.04V8.32C21.7601 8.48974 21.8275 8.65252 21.9476 8.77255C22.0676 8.89257 22.2304 8.96 22.4001 8.96C22.5699 8.96 22.7326 8.89257 22.8527 8.77255C22.9727 8.65252 23.0401 8.48974 23.0401 8.32V7.04C23.0401 5.17288 22.2984 3.38222 20.9782 2.06197C19.6579 0.741712 17.8672 0 16.0001 0C14.133 0 12.3423 0.741712 11.0221 2.06197C9.70183 3.38222 8.96012 5.17288 8.96012 7.04V12.8H7.04012C6.5309 12.8 6.04254 13.0023 5.68247 13.3624C5.3224 13.7224 5.12012 14.2108 5.12012 14.72V30.08C5.12012 30.5892 5.3224 31.0776 5.68247 31.4376C6.04254 31.7977 6.5309 32 7.04012 32H24.9601C25.4693 32 25.9577 31.7977 26.3178 31.4376C26.6778 31.0776 26.8801 30.5892 26.8801 30.08V14.72C26.8801 14.2108 26.6778 13.7224 26.3178 13.3624C25.9577 13.0023 25.4693 12.8 24.9601 12.8ZM25.6001 30.08C25.5999 30.2497 25.5324 30.4123 25.4124 30.5323C25.2925 30.6523 25.1298 30.7198 24.9601 30.72H7.04012C6.87044 30.7198 6.70777 30.6523 6.58779 30.5323C6.46781 30.4123 6.40032 30.2497 6.40012 30.08V14.72C6.40032 14.5503 6.46781 14.3877 6.58779 14.2677C6.70777 14.1477 6.87044 14.0802 7.04012 14.08H24.9601C25.1298 14.0802 25.2925 14.1477 25.4124 14.2677C25.5324 14.3877 25.5999 14.5503 25.6001 14.72V30.08Z" fill="#1F1F1F"/>
</svg>
