<svg width="33" height="32" viewBox="0 0 33 32" fill="none" xmlns="http://www.w3.org/2000/svg">
<g clip-path="url(#clip0)">
<path d="M30.3475 18.7883L26.0055 17.9198C24.493 17.9198 20.1236 13.0357 15.7655 12.8202V12.7998H14.4855V12.8239C9.73694 13.1353 5.08632 14.3184 0.766186 16.3139C0.683547 16.3534 0.610404 16.4102 0.551762 16.4805C0.493119 16.5508 0.450363 16.633 0.426417 16.7214C0.402472 16.8097 0.397903 16.9023 0.413024 16.9926C0.428145 17.0829 0.462598 17.1688 0.514026 17.2446L1.39108 18.5598L0.44273 22.3367C0.389063 22.5512 0.391888 22.776 0.450929 22.9891C0.509971 23.2022 0.623215 23.3964 0.779626 23.5527L1.17207 23.9452C1.29098 24.064 1.43214 24.1583 1.58748 24.2225C1.74282 24.2868 1.9093 24.3199 2.07742 24.3198H5.58948C5.73686 25.0426 6.12947 25.6924 6.70084 26.159C7.27221 26.6256 7.98726 26.8805 8.72497 26.8805C9.46268 26.8805 10.1777 26.6256 10.7491 26.159C11.3205 25.6924 11.7131 25.0426 11.8605 24.3198H20.9495C21.0969 25.0426 21.4895 25.6924 22.0608 26.159C22.6322 26.6256 23.3473 26.8805 24.085 26.8805C24.8227 26.8805 25.5377 26.6256 26.1091 26.159C26.6805 25.6924 27.0731 25.0426 27.2205 24.3198H31.1255C31.465 24.3198 31.7905 24.185 32.0306 23.9449C32.2706 23.7049 32.4055 23.3793 32.4055 23.0398V21.299C32.4056 20.7071 32.2006 20.1335 31.8254 19.6757C31.4501 19.218 30.9279 18.9044 30.3475 18.7883ZM22.465 17.3713C22.7447 17.5714 22.9934 17.7466 23.2417 17.9198H15.7655V14.1073C18.0796 14.2513 20.6016 16.0382 22.465 17.3713ZM14.4855 17.9198H8.77028L6.8618 15.4186C9.34208 14.68 11.9012 14.2382 14.4855 14.1023V17.9198ZM8.72548 25.5998C8.34574 25.5998 7.97453 25.4872 7.65879 25.2762C7.34304 25.0653 7.09695 24.7654 6.95163 24.4146C6.80631 24.0637 6.76829 23.6777 6.84237 23.3052C6.91646 22.9328 7.09932 22.5907 7.36784 22.3222C7.63635 22.0536 7.97847 21.8708 8.35091 21.7967C8.72335 21.7226 9.1094 21.7606 9.46023 21.906C9.81107 22.0513 10.1109 22.2974 10.3219 22.6131C10.5329 22.9289 10.6455 23.3001 10.6455 23.6798C10.6455 24.189 10.4432 24.6774 10.0831 25.0375C9.72306 25.3975 9.2347 25.5998 8.72548 25.5998ZM24.0855 25.5998C23.7057 25.5998 23.3345 25.4872 23.0188 25.2762C22.703 25.0653 22.457 24.7654 22.3116 24.4146C22.1663 24.0637 22.1283 23.6777 22.2024 23.3052C22.2765 22.9328 22.4593 22.5907 22.7278 22.3222C22.9964 22.0536 23.3385 21.8708 23.7109 21.7967C24.0834 21.7226 24.4694 21.7606 24.8202 21.906C25.1711 22.0513 25.4709 22.2974 25.6819 22.6131C25.8929 22.9289 26.0055 23.3001 26.0055 23.6798C26.0055 24.189 25.8032 24.6774 25.4431 25.0375C25.0831 25.3975 24.5947 25.5998 24.0855 25.5998ZM31.1255 23.0398H27.2206C27.0733 22.3169 26.6807 21.6671 26.1093 21.2004C25.5379 20.7337 24.8228 20.4788 24.085 20.4788C23.3473 20.4788 22.6322 20.7337 22.0608 21.2004C21.4894 21.6671 21.0968 22.3169 20.9495 23.0398H11.8606C11.7133 22.3169 11.3207 21.6671 10.7493 21.2004C10.1779 20.7337 9.4628 20.4788 8.72503 20.4788C7.98727 20.4788 7.27217 20.7337 6.70078 21.2004C6.12939 21.6671 5.7368 22.3169 5.58948 23.0398H2.07742L1.69431 22.6046L2.64241 18.8286L2.75582 18.2998L2.45579 17.8502L1.99678 17.1614C2.7338 16.8395 3.97899 16.3315 5.55083 15.8196L8.08548 19.1998H25.8784L30.0965 20.0436C30.3864 20.1022 30.6472 20.2591 30.8347 20.4879C31.0222 20.7167 31.1249 21.0032 31.1255 21.299V23.0398Z" fill="#141414"/>
</g>
<defs>
<clipPath id="clip0">
<rect x="0.404297" width="32" height="32" fill="white"/>
</clipPath>
</defs>
</svg>
