<svg width="32" height="32" viewBox="0 0 32 32" fill="none" xmlns="http://www.w3.org/2000/svg">
<path d="M30.72 5.12C31.0595 5.12 31.385 4.98514 31.6251 4.7451C31.8651 4.50505 32 4.17948 32 3.84V1.28C32 0.940523 31.8651 0.61495 31.6251 0.374903C31.385 0.134857 31.0595 0 30.72 0L28.16 0C27.8205 0 27.4949 0.134857 27.2549 0.374903C27.0149 0.61495 26.88 0.940523 26.88 1.28V2.56H5.12V1.28C5.12 0.940523 4.98514 0.61495 4.7451 0.374903C4.50505 0.134857 4.17948 0 3.84 0L1.28 0C0.940523 0 0.61495 0.134857 0.374903 0.374903C0.134857 0.61495 6.14899e-08 0.940523 6.14899e-08 1.28L6.14899e-08 3.84C6.14899e-08 4.17948 0.134857 4.50505 0.374903 4.7451C0.61495 4.98514 0.940523 5.12 1.28 5.12H2.56V14.72C2.56 14.8897 2.62743 15.0525 2.74745 15.1725C2.86748 15.2926 3.03026 15.36 3.2 15.36C3.36974 15.36 3.53252 15.2926 3.65255 15.1725C3.77257 15.0525 3.84 14.8897 3.84 14.72V5.12C4.17948 5.12 4.50505 4.98514 4.7451 4.7451C4.98514 4.50505 5.12 4.17948 5.12 3.84H26.88C26.88 4.17948 27.0149 4.50505 27.2549 4.7451C27.4949 4.98514 27.8205 5.12 28.16 5.12V26.88C27.8205 26.88 27.4949 27.0149 27.2549 27.2549C27.0149 27.4949 26.88 27.8205 26.88 28.16H17.28C17.1103 28.16 16.9475 28.2274 16.8275 28.3475C16.7074 28.4675 16.64 28.6303 16.64 28.8C16.64 28.9697 16.7074 29.1325 16.8275 29.2525C16.9475 29.3726 17.1103 29.44 17.28 29.44H26.88V30.72C26.88 31.0595 27.0149 31.385 27.2549 31.6251C27.4949 31.8651 27.8205 32 28.16 32H30.72C31.0595 32 31.385 31.8651 31.6251 31.6251C31.8651 31.385 32 31.0595 32 30.72V28.16C32 27.8205 31.8651 27.4949 31.6251 27.2549C31.385 27.0149 31.0595 26.88 30.72 26.88H29.44V5.12H30.72ZM3.84 3.84H1.28V1.28H3.84V3.84ZM30.72 28.16V30.72H28.16V28.16H30.72ZM28.16 3.84V1.28H30.72V3.84H28.16ZM22.4776 12.2374L19.7623 9.52256C19.4022 9.16254 18.9139 8.96028 18.4047 8.96028C17.8956 8.96028 17.4072 9.16254 17.0472 9.52256L0.562304 26.0069C0.383973 26.1853 0.242526 26.397 0.146045 26.63C0.0495627 26.863 -6.37655e-05 27.1128 6.14899e-08 27.365V30.72C6.14899e-08 31.0595 0.134857 31.385 0.374903 31.6251C0.61495 31.8651 0.940523 32 1.28 32H4.63526C5.14451 31.9999 5.63286 31.7975 5.99296 31.4374L22.4776 14.9531C22.6559 14.7748 22.7974 14.5631 22.8939 14.3301C22.9904 14.0972 23.0401 13.8474 23.0401 13.5953C23.0401 13.3431 22.9904 13.0934 22.8939 12.8604C22.7974 12.6274 22.6559 12.4157 22.4776 12.2374ZM5.08787 30.5325C5.02862 30.5922 4.95809 30.6395 4.88039 30.6717C4.80269 30.7039 4.71937 30.7203 4.63526 30.72H1.28V27.365C1.27979 27.2808 1.29626 27.1974 1.32844 27.1197C1.36063 27.0419 1.4079 26.9713 1.46752 26.9119L15.6893 12.69L19.31 16.3107L5.08787 30.5325ZM21.5725 14.0475L20.215 15.4056L16.5944 11.785L17.9521 10.4275C18.0721 10.3075 18.2349 10.2401 18.4046 10.2401C18.5743 10.2401 18.7371 10.3075 18.8571 10.4275L21.5724 13.1425C21.6923 13.2625 21.7598 13.4253 21.7598 13.595C21.7598 13.7647 21.6924 13.9275 21.5725 14.0475Z" fill="#141414"/>
</svg>
