<svg width="33" height="32" viewBox="0 0 33 32" fill="none" xmlns="http://www.w3.org/2000/svg">
<g clip-path="url(#clip0)">
<path d="M20.6916 29.44H18.7716V25.6H19.4116C19.5813 25.6 19.7441 25.5326 19.8641 25.4125C19.9841 25.2925 20.0516 25.1297 20.0516 24.96C20.0516 24.7903 19.9841 24.6275 19.8641 24.5075C19.7441 24.3874 19.5813 24.32 19.4116 24.32H2.77156C2.60182 24.32 2.43904 24.2526 2.31901 24.1325C2.19899 24.0125 2.13156 23.8497 2.13156 23.68V20.48H19.4116C19.5813 20.48 19.7441 20.4126 19.8641 20.2925C19.9841 20.1725 20.0516 20.0097 20.0516 19.84C20.0516 19.6703 19.9841 19.5075 19.8641 19.3875C19.7441 19.2674 19.5813 19.2 19.4116 19.2H2.13156V1.92C2.13156 1.75026 2.19899 1.58747 2.31901 1.46745C2.43904 1.34743 2.60182 1.28 2.77156 1.28H28.3716C28.5413 1.28 28.7041 1.34743 28.8241 1.46745C28.9441 1.58747 29.0116 1.75026 29.0116 1.92V12.16C29.0116 12.3297 29.079 12.4925 29.199 12.6125C29.319 12.7326 29.4818 12.8 29.6516 12.8C29.8213 12.8 29.9841 12.7326 30.1041 12.6125C30.2241 12.4925 30.2916 12.3297 30.2916 12.16V1.92C30.291 1.41095 30.0886 0.922906 29.7286 0.562954C29.3687 0.203001 28.8806 0.000542119 28.3716 0L2.77156 0C2.26251 0.000542119 1.77447 0.203001 1.41452 0.562954C1.05456 0.922906 0.852105 1.41095 0.851562 1.92V23.68C0.852105 24.189 1.05456 24.6771 1.41452 25.037C1.77447 25.397 2.26251 25.5995 2.77156 25.6H12.3716V29.44H10.4516C10.2818 29.44 10.119 29.5074 9.99901 29.6275C9.87899 29.7475 9.81156 29.9103 9.81156 30.08C9.81156 30.2497 9.87899 30.4125 9.99901 30.5325C10.119 30.6526 10.2818 30.72 10.4516 30.72H20.6916C20.8613 30.72 21.0241 30.6526 21.1441 30.5325C21.2641 30.4125 21.3316 30.2497 21.3316 30.08C21.3316 29.9103 21.2641 29.7475 21.1441 29.6275C21.0241 29.5074 20.8613 29.44 20.6916 29.44ZM17.4916 29.44H13.6516V25.6H17.4916V29.44Z" fill="#141414"/>
<path d="M31.5713 15.3599H23.8913C23.5519 15.3599 23.2263 15.4947 22.9862 15.7348C22.7462 15.9748 22.6113 16.3004 22.6113 16.6399V29.4399C22.6113 29.7793 22.7462 30.1049 22.9862 30.345C23.2263 30.585 23.5519 30.7199 23.8913 30.7199H31.5713C31.9108 30.7199 32.2364 30.585 32.4764 30.345C32.7165 30.1049 32.8513 29.7793 32.8513 29.4399V16.6399C32.8513 16.3004 32.7165 15.9748 32.4764 15.7348C32.2364 15.4947 31.9108 15.3599 31.5713 15.3599ZM31.5713 29.4399H23.8913V16.6399H31.5713V29.4399Z" fill="#141414"/>
<path d="M27.0912 28.1599H28.3712C28.5409 28.1599 28.7037 28.0925 28.8237 27.9724C28.9437 27.8524 29.0112 27.6896 29.0112 27.5199C29.0112 27.3501 28.9437 27.1874 28.8237 27.0673C28.7037 26.9473 28.5409 26.8799 28.3712 26.8799H27.0912C26.9214 26.8799 26.7586 26.9473 26.6386 27.0673C26.5186 27.1874 26.4512 27.3501 26.4512 27.5199C26.4512 27.6896 26.5186 27.8524 26.6386 27.9724C26.7586 28.0925 26.9214 28.1599 27.0912 28.1599Z" fill="#141414"/>
</g>
<defs>
<clipPath id="clip0">
<rect x="0.851562" width="32" height="32" fill="white"/>
</clipPath>
</defs>
</svg>
