<svg width="32" height="32" viewBox="0 0 32 32" fill="none" xmlns="http://www.w3.org/2000/svg">
<g clip-path="url(#clip0)">
<path d="M30.72 5.12049C31.0595 5.12049 31.385 4.98563 31.6251 4.74558C31.8651 4.50554 32 4.17997 32 3.84049V1.28049C32 0.941011 31.8651 0.615438 31.6251 0.375392C31.385 0.135345 31.0595 0.000488281 30.72 0.000488281L28.16 0.000488281C27.8205 0.000488281 27.4949 0.135345 27.2549 0.375392C27.0149 0.615438 26.88 0.941011 26.88 1.28049V2.56049H5.12V1.28049C5.12 0.941011 4.98514 0.615438 4.7451 0.375392C4.50505 0.135345 4.17948 0.000488281 3.84 0.000488281L1.28 0.000488281C0.940523 0.000488281 0.61495 0.135345 0.374903 0.375392C0.134857 0.615438 6.14899e-08 0.941011 6.14899e-08 1.28049L6.14899e-08 3.84049C6.14899e-08 4.17997 0.134857 4.50554 0.374903 4.74558C0.61495 4.98563 0.940523 5.12049 1.28 5.12049H2.56V14.7205C2.56 14.8902 2.62743 15.053 2.74745 15.173C2.86748 15.2931 3.03026 15.3605 3.2 15.3605C3.36974 15.3605 3.53252 15.2931 3.65255 15.173C3.77257 15.053 3.84 14.8902 3.84 14.7205V5.12049C4.17948 5.12049 4.50505 4.98563 4.7451 4.74558C4.98514 4.50554 5.12 4.17997 5.12 3.84049H26.88C26.88 4.17997 27.0149 4.50554 27.2549 4.74558C27.4949 4.98563 27.8205 5.12049 28.16 5.12049V26.8805C27.8205 26.8805 27.4949 27.0153 27.2549 27.2554C27.0149 27.4954 26.88 27.821 26.88 28.1605H17.28C17.1103 28.1605 16.9475 28.2279 16.8275 28.3479C16.7074 28.468 16.64 28.6307 16.64 28.8005C16.64 28.9702 16.7074 29.133 16.8275 29.253C16.9475 29.3731 17.1103 29.4405 17.28 29.4405H26.88V30.7205C26.88 31.06 27.0149 31.3855 27.2549 31.6256C27.4949 31.8656 27.8205 32.0005 28.16 32.0005H30.72C31.0595 32.0005 31.385 31.8656 31.6251 31.6256C31.8651 31.3855 32 31.06 32 30.7205V28.1605C32 27.821 31.8651 27.4954 31.6251 27.2554C31.385 27.0153 31.0595 26.8805 30.72 26.8805H29.44V5.12049H30.72ZM3.84 3.84049H1.28V1.28049H3.84V3.84049ZM30.72 28.1605V30.7205H28.16V28.1605H30.72ZM28.16 3.84049V1.28049H30.72V3.84049H28.16ZM22.4776 12.2379L19.7623 9.52305C19.4022 9.16302 18.9139 8.96077 18.4047 8.96077C17.8956 8.96077 17.4072 9.16302 17.0472 9.52305L0.562304 26.0074C0.383973 26.1857 0.242526 26.3975 0.146045 26.6305C0.0495627 26.8635 -6.37655e-05 27.1133 6.14899e-08 27.3655V30.7205C6.14899e-08 31.06 0.134857 31.3855 0.374903 31.6256C0.61495 31.8656 0.940523 32.0005 1.28 32.0005H4.63526C5.14451 32.0004 5.63286 31.798 5.99296 31.4379L22.4776 14.9536C22.6559 14.7753 22.7974 14.5636 22.8939 14.3306C22.9904 14.0976 23.0401 13.8479 23.0401 13.5958C23.0401 13.3436 22.9904 13.0939 22.8939 12.8609C22.7974 12.6279 22.6559 12.4162 22.4776 12.2379ZM5.08787 30.533C5.02862 30.5927 4.95809 30.64 4.88039 30.6722C4.80269 30.7044 4.71937 30.7208 4.63526 30.7205H1.28V27.3655C1.27979 27.2813 1.29626 27.1979 1.32844 27.1202C1.36063 27.0424 1.4079 26.9718 1.46752 26.9124L15.6893 12.6905L19.31 16.3111L5.08787 30.533ZM21.5725 14.048L20.215 15.4061L16.5944 11.7854L17.9521 10.428C18.0721 10.308 18.2349 10.2406 18.4046 10.2406C18.5743 10.2406 18.7371 10.308 18.8571 10.428L21.5724 13.143C21.6923 13.263 21.7598 13.4258 21.7598 13.5955C21.7598 13.7652 21.6924 13.9279 21.5725 14.048Z" fill="#141414"/>
</g>
<defs>
<clipPath id="clip0">
<rect width="32" height="32" fill="white" transform="translate(0 0.000488281)"/>
</clipPath>
</defs>
</svg>
