<svg width="33" height="32" viewBox="0 0 33 32" fill="none" xmlns="http://www.w3.org/2000/svg">
<g clip-path="url(#clip0)">
<path d="M13.6145 17.6872C14.8823 17.0229 15.8909 15.9528 16.479 14.6479C17.0671 13.343 17.2008 11.8786 16.8588 10.4887C16.5168 9.09888 15.7187 7.8638 14.5921 6.98088C13.4656 6.09796 12.0756 5.61816 10.6442 5.61816C9.21291 5.61816 7.8229 6.09796 6.69635 6.98088C5.56979 7.8638 4.77172 9.09888 4.42967 10.4887C4.08762 11.8786 4.22134 13.343 4.80946 14.6479C5.39758 15.9528 6.40615 17.0229 7.67399 17.6872C5.92455 18.3031 4.40908 19.4463 3.33627 20.9592C2.26346 22.4721 1.68606 24.2805 1.68359 26.1352C1.68359 26.3049 1.75102 26.4677 1.87105 26.5877C1.99107 26.7077 2.15386 26.7752 2.32359 26.7752C2.49333 26.7752 2.65612 26.7077 2.77614 26.5877C2.89617 26.4677 2.96359 26.3049 2.96359 26.1352C2.96359 24.0983 3.77273 22.1449 5.21301 20.7046C6.65329 19.2643 8.60673 18.4552 10.6436 18.4552C12.6805 18.4552 14.6339 19.2643 16.0742 20.7046C17.5145 22.1449 18.3236 24.0983 18.3236 26.1352C18.3236 26.3049 18.391 26.4677 18.511 26.5877C18.6311 26.7077 18.7939 26.7752 18.9636 26.7752C19.1333 26.7752 19.2961 26.7077 19.4161 26.5877C19.5362 26.4677 19.6036 26.3049 19.6036 26.1352C19.6012 24.2806 19.024 22.4724 17.9514 20.9595C16.8789 19.4466 15.3637 18.3033 13.6145 17.6872ZM5.52359 12.0552C5.52359 11.0425 5.82388 10.0526 6.38647 9.21065C6.94906 8.36867 7.7487 7.71243 8.68425 7.32491C9.61981 6.93739 10.6493 6.836 11.6425 7.03355C12.6356 7.23111 13.5479 7.71874 14.264 8.43479C14.98 9.15083 15.4677 10.0631 15.6652 11.0563C15.8628 12.0495 15.7614 13.079 15.3739 14.0145C14.9863 14.9501 14.3301 15.7497 13.4881 16.3123C12.6461 16.8749 11.6562 17.1752 10.6436 17.1752C9.28569 17.1752 7.98339 16.6357 7.02321 15.6756C6.06302 14.7154 5.52359 13.4131 5.52359 12.0552Z" fill="#141414"/>
<path d="M26.8235 14.4477C27.7613 13.8548 28.4812 12.9733 28.8747 11.936C29.2682 10.8986 29.3141 9.76149 29.0055 8.69579C28.6968 7.63009 28.0504 6.69348 27.1635 6.02694C26.2765 5.3604 25.197 5 24.0875 5C22.9781 5 21.8986 5.3604 21.0116 6.02694C20.1247 6.69348 19.4782 7.63009 19.1696 8.69579C18.861 9.76149 18.9069 10.8986 19.3004 11.936C19.6939 12.9733 20.4137 13.8548 21.3515 14.4477C19.6628 15.0357 18.2073 16.1502 17.1992 17.6272C17.5325 17.909 17.8476 18.2117 18.1426 18.5334C18.9566 17.2435 20.168 16.2531 21.594 15.7117C23.02 15.1702 24.5834 15.107 26.0484 15.5315C27.5135 15.9561 28.8008 16.8454 29.7164 18.0654C30.632 19.2854 31.1261 20.77 31.1243 22.2953C31.1243 22.4651 31.1918 22.6279 31.3118 22.7479C31.4318 22.8679 31.5946 22.9353 31.7643 22.9353C31.9341 22.9353 32.0969 22.8679 32.2169 22.7479C32.3369 22.6279 32.4043 22.4651 32.4043 22.2953C32.4015 20.5704 31.863 18.8888 30.8633 17.4831C29.8636 16.0773 28.452 15.0167 26.8235 14.4477ZM20.2443 10.1353C20.2443 9.37587 20.4695 8.63344 20.8915 8.00196C21.3134 7.37047 21.9132 6.87829 22.6148 6.58765C23.3165 6.29701 24.0886 6.22096 24.8335 6.36913C25.5784 6.5173 26.2626 6.88302 26.7996 7.42006C27.3367 7.95709 27.7024 8.64131 27.8506 9.3862C27.9987 10.1311 27.9227 10.9032 27.632 11.6049C27.3414 12.3065 26.8492 12.9062 26.2177 13.3282C25.5862 13.7501 24.8438 13.9753 24.0843 13.9753C23.0659 13.9753 22.0892 13.5708 21.369 12.8506C20.6489 12.1305 20.2443 11.1538 20.2443 10.1353Z" fill="#141414"/>
</g>
<defs>
<clipPath id="clip0">
<rect x="0.404297" width="32" height="32" fill="white"/>
</clipPath>
</defs>
</svg>
