<svg width="24" height="30" viewBox="0 0 24 30" fill="none" xmlns="http://www.w3.org/2000/svg">
<path d="M14.8736 15.5808C16.437 14.822 17.6968 13.5553 18.4471 11.9879C19.1975 10.4204 19.3941 8.64481 19.0048 6.95117C18.6155 5.25753 17.6633 3.74599 16.3038 2.66353C14.9442 1.58108 13.2578 0.991699 11.52 0.991699C9.78219 0.991699 8.09575 1.58108 6.73624 2.66353C5.37673 3.74599 4.42452 5.25753 4.0352 6.95117C3.64589 8.64481 3.84248 10.4204 4.59285 11.9879C5.34323 13.5553 6.60303 14.822 8.1664 15.5808C5.80558 16.3021 3.73835 17.7617 2.26844 19.7449C0.798529 21.7281 0.00344335 24.1305 0 26.599L0 28.519C0 28.6888 0.0674284 28.8516 0.187452 28.9716C0.307475 29.0916 0.470261 29.159 0.64 29.159C0.809739 29.159 0.972525 29.0916 1.09255 28.9716C1.21257 28.8516 1.28 28.6888 1.28 28.519V26.599C1.28 23.8832 2.35885 21.2786 4.27923 19.3583C6.1996 17.4379 8.80418 16.359 11.52 16.359C14.2358 16.359 16.8404 17.4379 18.7608 19.3583C20.6811 21.2786 21.76 23.8832 21.76 26.599V28.519C21.76 28.6888 21.8274 28.8516 21.9475 28.9716C22.0675 29.0916 22.2303 29.159 22.4 29.159C22.5697 29.159 22.7325 29.0916 22.8526 28.9716C22.9726 28.8516 23.04 28.6888 23.04 28.519V26.599C23.0366 24.1305 22.2415 21.7281 20.7716 19.7449C19.3017 17.7617 17.2344 16.3021 14.8736 15.5808ZM5.12 8.67905C5.12 7.41325 5.49535 6.17587 6.19859 5.1234C6.90184 4.07092 7.90138 3.25062 9.07083 2.76622C10.2403 2.28182 11.5271 2.15508 12.7686 2.40202C14.0101 2.64897 15.1504 3.25851 16.0455 4.15356C16.9405 5.04862 17.5501 6.18899 17.797 7.43047C18.044 8.67195 17.9172 9.95877 17.4328 11.1282C16.9484 12.2977 16.1281 13.2972 15.0757 14.0005C14.0232 14.7037 12.7858 15.079 11.52 15.079C9.82324 15.077 8.19655 14.4021 6.99676 13.2023C5.79697 12.0025 5.12203 10.3758 5.12 8.67905Z" fill="black"/>
</svg>
