<svg width="35" height="34" viewBox="0 0 35 34" fill="none" xmlns="http://www.w3.org/2000/svg">
<path d="M2.57227 0V14.96C2.57227 21.25 9.96727 31.28 16.8523 31.28C23.7373 31.28 31.1323 21.25 31.1323 14.96V0H2.57227ZM29.7723 14.96C29.7723 20.7314 22.7177 29.92 16.8523 29.92C10.9869 29.92 3.93227 20.7314 3.93227 14.96V1.36H29.7723V14.96Z" fill="#141414"/>
<path d="M16.8523 27.2001C17.0327 27.2001 17.2057 27.1284 17.3332 27.0009C17.4607 26.8734 17.5323 26.7004 17.5323 26.5201C17.5323 26.3397 17.4607 26.1668 17.3332 26.0392C17.2057 25.9117 17.0327 25.8401 16.8523 25.8401C12.8394 25.8401 8.01234 19.5754 8.01234 15.6401V5.44008H14.1323C14.3127 5.44008 14.4857 5.36844 14.6132 5.24091C14.7407 5.11339 14.8123 4.94043 14.8123 4.76008C14.8123 4.57973 14.7407 4.40677 14.6132 4.27925C14.4857 4.15172 14.3127 4.08008 14.1323 4.08008H7.33234C7.152 4.08008 6.97904 4.15172 6.85151 4.27925C6.72399 4.40677 6.65234 4.57973 6.65234 4.76008V15.6401C6.65234 20.3098 12.0253 27.2001 16.8523 27.2001Z" fill="#141414"/>
</svg>
