<svg width="32" height="41" viewBox="0 0 32 41" fill="none" xmlns="http://www.w3.org/2000/svg">
<path d="M31.0672 27.0852C30.6864 26.798 30.2264 26.6352 29.7497 26.6189C29.273 26.6026 28.803 26.7337 28.4035 26.9943L19.0837 32.6033L17.092 32.2052C17.4269 31.8863 17.6735 31.486 17.8076 31.0434C17.9418 30.6008 17.959 30.131 17.8575 29.6798C17.7561 29.2286 17.5394 28.8114 17.2287 28.4688C16.918 28.1262 16.5239 27.87 16.0846 27.7252L9.80234 25.6336C9.68705 25.5951 9.56318 25.5902 9.44522 25.6195L5.08549 26.7101C5.04765 26.4056 4.9005 26.1252 4.67141 25.9211C4.44231 25.7169 4.14688 25.603 3.84004 25.6003H0.640007C0.470266 25.6003 0.307478 25.6678 0.187454 25.7878C0.0674291 25.9078 0 26.0706 0 26.2403C0 26.4101 0.0674291 26.5729 0.187454 26.6929C0.307478 26.8129 0.470266 26.8804 0.640007 26.8804H3.84004V38.4005H0.640007C0.470266 38.4005 0.307478 38.4679 0.187454 38.5879C0.0674291 38.708 0 38.8707 0 39.0405C0 39.2102 0.0674291 39.373 0.187454 39.493C0.307478 39.6131 0.470266 39.6805 0.640007 39.6805H3.84004C4.17952 39.6805 4.5051 39.5456 4.74515 39.3056C4.9852 39.0655 5.12005 38.74 5.12005 38.4005V38.156L7.08487 37.1729L17.5695 40.8107C18.111 40.9818 18.6883 41.0058 19.2421 40.88C19.7959 40.7543 20.3063 40.4834 20.7209 40.0952L31.2733 30.641C31.5194 30.4076 31.7117 30.1233 31.8365 29.8079C31.9613 29.4924 32.0158 29.1536 31.996 28.8149C31.9763 28.4762 31.8828 28.146 31.7222 27.8472C31.5615 27.5485 31.3375 27.2884 31.0659 27.0852H31.0672ZM30.4067 29.6964L19.8543 39.1506C19.6078 39.3842 19.3038 39.5483 18.9733 39.6261C18.6427 39.7039 18.2975 39.6926 17.9727 39.5934L7.25 35.875C7.16927 35.8469 7.08373 35.8353 6.99844 35.8408C6.91314 35.8463 6.8298 35.8688 6.75335 35.907L5.12005 36.7237V28.0196L9.5745 26.906L15.6776 28.9399C16.0143 29.0482 16.2979 29.2792 16.472 29.5871C16.6462 29.8949 16.6981 30.257 16.6174 30.6014C16.5368 30.9457 16.3295 31.2471 16.0368 31.4456C15.7441 31.6441 15.3874 31.7252 15.0376 31.6727L12.8897 31.3604C12.8063 31.3482 12.7214 31.3525 12.6397 31.3732C12.558 31.3939 12.4811 31.4305 12.4136 31.4809C12.3461 31.5314 12.2892 31.5947 12.2462 31.6672C12.2032 31.7397 12.175 31.8199 12.1631 31.9034C12.1512 31.9868 12.1559 32.0718 12.177 32.1534C12.198 32.235 12.235 32.3117 12.2857 32.379C12.3365 32.4462 12.4 32.5029 12.4727 32.5455C12.5454 32.5882 12.6258 32.6161 12.7093 32.6276L19.0684 33.8999C19.2244 33.9309 19.3864 33.9026 19.5228 33.8206L29.0806 28.0669C29.2353 27.962 29.4151 27.9003 29.6015 27.888C29.788 27.8757 29.9743 27.9134 30.1414 27.9971C30.3084 28.0808 30.4501 28.2076 30.5519 28.3643C30.6537 28.521 30.7118 28.702 30.7203 28.8887C30.7296 29.038 30.7063 29.1875 30.6522 29.327C30.598 29.4664 30.5143 29.5924 30.4067 29.6964Z" fill="black"/>
<path d="M15.3526 0.640007V19.5752L7.48502 11.7076C7.36431 11.5911 7.20264 11.5266 7.03484 11.528C6.86703 11.5295 6.70651 11.5968 6.58784 11.7154C6.46918 11.8341 6.40187 11.9946 6.40041 12.1624C6.39896 12.3302 6.46347 12.4919 6.58005 12.6126L15.5401 21.5727C15.6602 21.6927 15.8229 21.7601 15.9926 21.7601C16.1623 21.7601 16.3251 21.6927 16.4451 21.5727L25.4052 12.6126C25.4663 12.5536 25.5151 12.483 25.5486 12.4049C25.5822 12.3268 25.5998 12.2428 25.6006 12.1578C25.6013 12.0728 25.5851 11.9886 25.5529 11.9099C25.5208 11.8313 25.4732 11.7598 25.4131 11.6997C25.353 11.6396 25.2816 11.5921 25.2029 11.5599C25.1243 11.5277 25.04 11.5115 24.955 11.5123C24.87 11.513 24.7861 11.5307 24.708 11.5642C24.6299 11.5978 24.5593 11.6465 24.5002 11.7076L16.6326 19.5752V0.640007C16.6326 0.470266 16.5652 0.307478 16.4452 0.187454C16.3252 0.0674291 16.1624 0 15.9926 0C15.8229 0 15.6601 0.0674291 15.5401 0.187454C15.42 0.307478 15.3526 0.470266 15.3526 0.640007Z" fill="black"/>
</svg>
