<svg width="32" height="32" viewBox="0 0 32 32" fill="none" xmlns="http://www.w3.org/2000/svg">
<path d="M19.84 12.8H17.92V7.04C17.92 5.17288 17.1783 3.38222 15.858 2.06197C14.5378 0.741712 12.7471 0 10.88 0C9.01288 0 7.22222 0.741712 5.90197 2.06197C4.58171 3.38222 3.84 5.17288 3.84 7.04V12.8H1.92C1.41078 12.8 0.922425 13.0023 0.562355 13.3624C0.202285 13.7224 0 14.2108 0 14.72V30.08C0 30.5892 0.202285 31.0776 0.562355 31.4376C0.922425 31.7977 1.41078 32 1.92 32H19.84C20.3492 32 20.8376 31.7977 21.1976 31.4376C21.5577 31.0776 21.76 30.5892 21.76 30.08V14.72C21.76 14.2108 21.5577 13.7224 21.1976 13.3624C20.8376 13.0023 20.3492 12.8 19.84 12.8ZM5.12 7.04C5.12 5.51235 5.72686 4.04727 6.80707 2.96706C7.88727 1.88686 9.35235 1.28 10.88 1.28C12.4076 1.28 13.8727 1.88686 14.9529 2.96706C16.0331 4.04727 16.64 5.51235 16.64 7.04V12.8H5.12V7.04ZM20.48 30.08C20.4798 30.2497 20.4123 30.4123 20.2923 30.5323C20.1723 30.6523 20.0097 30.7198 19.84 30.72H1.92C1.75032 30.7198 1.58766 30.6523 1.46768 30.5323C1.3477 30.4123 1.2802 30.2497 1.28 30.08V14.72C1.2802 14.5503 1.3477 14.3877 1.46768 14.2677C1.58766 14.1477 1.75032 14.0802 1.92 14.08H19.84C20.0097 14.0802 20.1723 14.1477 20.2923 14.2677C20.4123 14.3877 20.4798 14.5503 20.48 14.72V30.08ZM10.88 17.92C10.5832 17.9206 10.2878 17.9599 10.0013 18.037C9.49006 18.1773 9.02256 18.4444 8.64216 18.8137C8.26175 19.1829 7.98077 19.6422 7.82528 20.149C7.63721 20.7457 7.62907 21.3846 7.8019 21.9859C7.97472 22.5872 8.32085 23.1243 8.79706 23.5301L7.71379 26.0371C7.68165 26.1333 7.67282 26.2357 7.68801 26.3359C7.70321 26.4362 7.74201 26.5314 7.80121 26.6137C7.86041 26.696 7.93831 26.7631 8.02851 26.8094C8.11871 26.8557 8.21861 26.8799 8.32 26.88H13.44C13.5414 26.88 13.6414 26.8559 13.7316 26.8097C13.8219 26.7635 13.8999 26.6965 13.9591 26.6142C14.0184 26.5319 14.0573 26.4368 14.0726 26.3365C14.0879 26.2363 14.0792 26.1338 14.0471 26.0376L12.9638 23.5306C13.4603 23.1066 13.8145 22.5403 13.9786 21.9084C14.1428 21.2766 14.1089 20.6095 13.8816 19.9975C13.6543 19.3855 13.2445 18.858 12.7077 18.4865C12.1708 18.1149 11.5329 17.9172 10.88 17.92V17.92ZM12.5516 25.6H9.20845L10.2817 23.1229L9.63405 22.5627C9.34528 22.3172 9.1358 21.9916 9.03213 21.627C8.92846 21.2625 8.93525 20.8754 9.05165 20.5147C9.14386 20.2172 9.30929 19.9476 9.53278 19.7307C9.75626 19.5137 10.0306 19.3564 10.3308 19.2731C10.5099 19.225 10.6945 19.2004 10.88 19.2C11.389 19.2006 11.8771 19.403 12.237 19.763C12.597 20.1229 12.7994 20.611 12.8 21.12C12.7994 21.395 12.7388 21.6666 12.6224 21.9158C12.506 22.1649 12.3365 22.3857 12.126 22.5626L11.4783 23.1228L12.5516 25.6Z" fill="white"/>
</svg>
