<svg width="33" height="32" viewBox="0 0 33 32" fill="none" xmlns="http://www.w3.org/2000/svg">
<g clip-path="url(#clip0)">
<path fill-rule="evenodd" clip-rule="evenodd" d="M32.372 15.3606C32.2134 11.2317 30.4617 7.32477 27.4845 4.45969C24.5072 1.59462 20.5359 -0.00585938 16.404 -0.00585938C12.2721 -0.00585938 8.30085 1.59462 5.32361 4.45969C2.34637 7.32477 0.594639 11.2317 0.436041 15.3606H0.404297V16.6406H0.436425C0.599194 20.7621 2.34867 24.6613 5.31919 27.5231C8.2897 30.3849 12.2514 31.9878 16.3761 31.9968C16.3855 31.9968 16.3948 32.0006 16.4046 32.0006C16.4143 32.0006 16.4232 31.9968 16.433 31.9968C20.5578 31.9876 24.5195 30.3844 27.4899 27.5224C30.4604 24.6604 32.2096 20.761 32.372 16.6393H32.4043V15.3606H32.372ZM27.8005 6.72426C25.7571 7.53046 23.6371 8.12689 21.4731 8.50436C21.1143 6.0014 20.2095 3.60798 18.8227 1.49367C22.3529 2.08456 25.5456 3.94467 27.8005 6.72426ZM11.9361 15.3606C11.9584 13.5462 12.1053 11.7354 12.3758 9.94116C13.7174 10.1356 15.0711 10.2352 16.4267 10.2393C17.7674 10.2356 19.1062 10.1374 20.4331 9.94551C20.703 11.7382 20.8497 13.5472 20.8721 15.3599L11.9361 15.3606ZM20.8726 16.6406C20.8505 18.4543 20.7038 20.2644 20.4336 22.058C17.7619 21.6649 15.047 21.6664 12.3758 22.0624C12.1051 20.2673 11.9582 18.4558 11.9361 16.6406H20.8726ZM16.4043 1.28055C17.6665 1.28055 19.3171 4.0355 20.2181 8.69866C18.9683 8.86974 17.7085 8.95723 16.447 8.96055C15.1574 8.95728 13.8694 8.86748 12.5917 8.69175C13.4933 4.03178 15.1423 1.28055 16.4043 1.28055ZM13.9861 1.49303C12.601 3.60447 11.6971 5.99464 11.3383 8.49425C9.17523 8.11525 7.05528 7.52173 5.00986 6.72247C7.26456 3.94352 10.4568 2.08403 13.9864 1.49367L13.9861 1.49303ZM4.28078 7.69553C6.47781 8.63604 8.7755 9.32135 11.1288 9.73802C10.8439 11.5992 10.6877 13.4779 10.6614 15.3606H1.71335C1.83173 12.615 2.72156 9.95845 4.28078 7.69553ZM1.71335 16.6393H10.6606C10.6871 18.5225 10.8432 20.4018 11.1278 22.2636C8.77579 22.6806 6.47923 23.3653 4.28282 24.3042C2.72296 22.0415 1.83243 19.385 1.71335 16.6393ZM5.01294 25.278C7.05739 24.4794 9.17631 23.8865 11.3383 23.508C11.6975 26.005 12.6002 28.3928 13.9827 30.503C10.4563 29.9116 7.26689 28.0537 5.01294 25.278ZM16.4043 30.7206C15.1421 30.7206 13.4931 27.9693 12.5914 23.3118C13.8691 23.1361 15.1571 23.0463 16.4468 23.043C17.7083 23.0454 18.9682 23.1322 20.2181 23.303C19.3173 27.9656 17.6668 30.7206 16.4043 30.7206ZM18.8262 30.503C20.2102 28.3896 21.1135 25.9981 21.4721 23.4974C23.6351 23.8751 25.7543 24.4712 27.7971 25.2766C25.543 28.0529 22.3533 29.9112 18.8264 30.503H18.8262ZM28.5246 24.3042C26.3297 23.361 24.0332 22.6744 21.6808 22.258C21.9649 20.3978 22.1208 18.5203 22.1474 16.6388H31.0946C30.9756 19.3847 30.085 22.0415 28.5249 24.3043L28.5246 24.3042ZM22.1474 15.3606C22.1208 13.4798 21.965 11.6031 21.6811 9.74366C24.0346 9.3278 26.332 8.64055 28.5273 7.69566C30.0868 9.95844 30.9768 12.615 31.0952 15.3606H22.1474Z" fill="#141414"/>
</g>
<defs>
<clipPath id="clip0">
<rect x="0.404297" width="32" height="32" fill="white"/>
</clipPath>
</defs>
</svg>
