<svg width="32" height="18" viewBox="0 0 32 18" fill="none" xmlns="http://www.w3.org/2000/svg">
<path d="M30.08 5.12H29.44V1.92C29.44 1.41078 29.2377 0.922425 28.8776 0.562355C28.5176 0.202285 28.0292 0 27.52 0H1.92C1.41078 0 0.922425 0.202285 0.562355 0.562355C0.202285 0.922425 0 1.41078 0 1.92L0 16C0 16.5092 0.202285 16.9976 0.562355 17.3576C0.922425 17.7177 1.41078 17.92 1.92 17.92H27.52C28.0292 17.92 28.5176 17.7177 28.8776 17.3576C29.2377 16.9976 29.44 16.5092 29.44 16V12.8H30.08C30.5892 12.8 31.0776 12.5977 31.4376 12.2376C31.7977 11.8776 32 11.3892 32 10.88V7.04C32 6.53078 31.7977 6.04242 31.4376 5.68235C31.0776 5.32228 30.5892 5.12 30.08 5.12ZM30.72 10.88C30.72 11.0497 30.6526 11.2125 30.5325 11.3325C30.4125 11.4526 30.2497 11.52 30.08 11.52H28.16V16C28.16 16.1697 28.0926 16.3325 27.9725 16.4525C27.8525 16.5726 27.6897 16.64 27.52 16.64H1.92C1.75026 16.64 1.58747 16.5726 1.46745 16.4525C1.34743 16.3325 1.28 16.1697 1.28 16V1.92C1.28 1.75026 1.34743 1.58747 1.46745 1.46745C1.58747 1.34743 1.75026 1.28 1.92 1.28H27.52C27.6897 1.28 27.8525 1.34743 27.9725 1.46745C28.0926 1.58747 28.16 1.75026 28.16 1.92V6.4H30.08C30.2497 6.4 30.4125 6.46743 30.5325 6.58745C30.6526 6.70747 30.72 6.87026 30.72 7.04V10.88Z" fill="white"/>
<path d="M16.6395 2.56006L11.5195 8.96006L14.0795 10.2401L12.7317 15.3601L17.9195 8.96006L15.3595 7.68006L16.6395 2.56006Z" fill="white"/>
</svg>
