<svg width="32" height="32" viewBox="0 0 32 32" fill="none" xmlns="http://www.w3.org/2000/svg">
<g clip-path="url(#clip0)">
<g clip-path="url(#clip1)">
<path d="M16 0C12.8355 0 9.74207 0.938384 7.11088 2.69649C4.4797 4.45459 2.42894 6.95345 1.21793 9.87706C0.00693253 12.8007 -0.309921 16.0177 0.307443 19.1214C0.924806 22.2251 2.44866 25.0761 4.6863 27.3137C6.92394 29.5513 9.77487 31.0752 12.8786 31.6926C15.9823 32.3099 19.1993 31.9931 22.1229 30.7821C25.0466 29.5711 27.5454 27.5203 29.3035 24.8891C31.0616 22.2579 32 19.1645 32 16C32 11.7565 30.3143 7.68687 27.3137 4.68629C24.3131 1.68571 20.2435 0 16 0V0ZM16 30.72C13.0887 30.72 10.2427 29.8567 7.82201 28.2392C5.40132 26.6218 3.51462 24.3228 2.4005 21.6331C1.28638 18.9434 0.994873 15.9837 1.56285 13.1283C2.13082 10.2729 3.53277 7.65002 5.59139 5.59139C7.65002 3.53276 10.2729 2.13082 13.1283 1.56284C15.9837 0.994866 18.9434 1.28637 21.6331 2.40049C24.3228 3.51462 26.6218 5.40131 28.2392 7.82201C29.8567 10.2427 30.72 13.0887 30.72 16C30.7156 19.9026 29.1633 23.6442 26.4038 26.4037C23.6442 29.1633 19.9026 30.7156 16 30.72Z" fill="#141414"/>
<path d="M17.92 8.96018H16.64V8.32018C16.64 8.15044 16.5726 7.98765 16.4526 7.86763C16.3325 7.7476 16.1698 7.68018 16 7.68018C15.8303 7.68018 15.6675 7.7476 15.5475 7.86763C15.4274 7.98765 15.36 8.15044 15.36 8.32018V8.96018H15.1296C14.2735 8.96326 13.4462 9.27011 12.7952 9.8261C12.1442 10.3821 11.7116 11.1511 11.5745 11.9962C11.4375 12.8413 11.6048 13.7076 12.0468 14.4408C12.4887 15.1741 13.1766 15.7267 13.9879 16.0002L17.6064 17.2072C18.1347 17.3806 18.5837 17.7368 18.8727 18.2118C19.1617 18.6867 19.2717 19.2492 19.183 19.798C19.0943 20.3469 18.8126 20.8461 18.3887 21.2057C17.9648 21.5654 17.4264 21.762 16.8704 21.7602H14.08C13.7405 21.7602 13.415 21.6253 13.1749 21.3853C12.9349 21.1452 12.8 20.8197 12.8 20.4802V19.8402C12.8 19.6704 12.7326 19.5077 12.6126 19.3876C12.4925 19.2676 12.3298 19.2002 12.16 19.2002C11.9903 19.2002 11.8275 19.2676 11.7075 19.3876C11.5874 19.5077 11.52 19.6704 11.52 19.8402V20.4802C11.52 21.1591 11.7897 21.8103 12.2698 22.2904C12.7499 22.7705 13.4011 23.0402 14.08 23.0402H15.36V23.6802C15.36 23.8499 15.4274 24.0127 15.5475 24.1327C15.6675 24.2527 15.8303 24.3202 16 24.3202C16.1698 24.3202 16.3325 24.2527 16.4526 24.1327C16.5726 24.0127 16.64 23.8499 16.64 23.6802V23.0402H16.8704C17.7266 23.0371 18.5538 22.7302 19.2048 22.1743C19.8559 21.6183 20.2884 20.8493 20.4255 20.0042C20.5626 19.1591 20.3952 18.2928 19.9533 17.5595C19.5113 16.8263 18.8235 16.2737 18.0122 16.0002L14.3936 14.7931C13.8654 14.6197 13.4164 14.2635 13.1274 13.7886C12.8383 13.3136 12.7283 12.7511 12.817 12.2023C12.9057 11.6535 13.1874 11.1543 13.6113 10.7946C14.0353 10.4349 14.5737 10.2383 15.1296 10.2402H17.92C18.2595 10.2402 18.5851 10.375 18.8251 10.6151C19.0652 10.8551 19.2 11.1807 19.2 11.5202V12.1602C19.2 12.3299 19.2674 12.4927 19.3875 12.6127C19.5075 12.7327 19.6703 12.8002 19.84 12.8002C20.0098 12.8002 20.1725 12.7327 20.2926 12.6127C20.4126 12.4927 20.48 12.3299 20.48 12.1602V11.5202C20.48 10.8412 20.2103 10.1901 19.7302 9.70998C19.2501 9.22989 18.599 8.96018 17.92 8.96018Z" fill="#141414"/>
</g>
</g>
<defs>
<clipPath id="clip0">
<rect width="32" height="32" fill="white" transform="translate(0 0.000488281)"/>
</clipPath>
<clipPath id="clip1">
<rect width="32" height="32" fill="white"/>
</clipPath>
</defs>
</svg>
