<svg width="32" height="32" viewBox="0 0 32 32" fill="none" xmlns="http://www.w3.org/2000/svg">
<g clip-path="url(#clip0)">
<path d="M26.88 21.824V16C26.88 15.4908 26.6777 15.0024 26.3176 14.6423C25.9576 14.2823 25.4692 14.08 24.96 14.08H15.36V7.61599C16.137 7.45739 16.8274 7.01593 17.2974 6.37721C17.7674 5.73849 17.9835 4.948 17.9038 4.15901C17.8241 3.37002 17.4543 2.63872 16.866 2.10691C16.2778 1.57509 15.513 1.28064 14.72 1.28064C13.927 1.28064 13.1622 1.57509 12.574 2.10691C11.9857 2.63872 11.6159 3.37002 11.5362 4.15901C11.4565 4.948 11.6726 5.73849 12.1426 6.37721C12.6126 7.01593 13.303 7.45739 14.08 7.61599V14.08H4.48001C3.97079 14.08 3.48243 14.2823 3.12236 14.6423C2.76229 15.0024 2.56001 15.4908 2.56001 16V21.824C1.78302 21.9826 1.0926 22.424 0.622601 23.0628C0.152602 23.7015 -0.063493 24.492 0.0162115 25.281C0.0959161 26.07 0.465742 26.8013 1.05399 27.3331C1.64224 27.8649 2.407 28.1593 3.20001 28.1593C3.99302 28.1593 4.75778 27.8649 5.34603 27.3331C5.93427 26.8013 6.3041 26.07 6.3838 25.281C6.46351 24.492 6.24741 23.7015 5.77741 23.0628C5.30741 22.424 4.61699 21.9826 3.84001 21.824V16C3.84001 15.8302 3.90744 15.6675 4.02746 15.5474C4.14748 15.4274 4.31027 15.36 4.48001 15.36H14.08V21.824C13.303 21.9826 12.6126 22.424 12.1426 23.0628C11.6726 23.7015 11.4565 24.492 11.5362 25.281C11.6159 26.07 11.9857 26.8013 12.574 27.3331C13.1622 27.8649 13.927 28.1593 14.72 28.1593C15.513 28.1593 16.2778 27.8649 16.866 27.3331C17.4543 26.8013 17.8241 26.07 17.9038 25.281C17.9835 24.492 17.7674 23.7015 17.2974 23.0628C16.8274 22.424 16.137 21.9826 15.36 21.824V15.36H24.96C25.1297 15.36 25.2925 15.4274 25.4126 15.5474C25.5326 15.6675 25.6 15.8302 25.6 16V21.824C24.823 21.9826 24.1326 22.424 23.6626 23.0628C23.1926 23.7015 22.9765 24.492 23.0562 25.281C23.1359 26.07 23.5057 26.8013 24.094 27.3331C24.6822 27.8649 25.447 28.1593 26.24 28.1593C27.033 28.1593 27.7978 27.8649 28.386 27.3331C28.9743 26.8013 29.3441 26.07 29.4238 25.281C29.5035 24.492 29.2874 23.7015 28.8174 23.0628C28.3474 22.424 27.657 21.9826 26.88 21.824ZM12.8 4.47999C12.8 4.10025 12.9126 3.72903 13.1236 3.41329C13.3346 3.09755 13.6344 2.85146 13.9853 2.70614C14.3361 2.56082 14.7221 2.5228 15.0946 2.59688C15.467 2.67096 15.8091 2.85382 16.0777 3.12234C16.3462 3.39086 16.529 3.73297 16.6031 4.10541C16.6772 4.47786 16.6392 4.8639 16.4939 5.21474C16.3485 5.56557 16.1024 5.86544 15.7867 6.07641C15.471 6.28738 15.0997 6.39999 14.72 6.39999C14.2108 6.39999 13.7224 6.1977 13.3624 5.83763C13.0023 5.47756 12.8 4.9892 12.8 4.47999ZM5.12001 24.96C5.12001 25.3397 5.0074 25.7109 4.79643 26.0267C4.58546 26.3424 4.28559 26.5885 3.93476 26.7338C3.58393 26.8792 3.19788 26.9172 2.82543 26.8431C2.45299 26.769 2.11088 26.5862 1.84236 26.3176C1.57385 26.0491 1.39098 25.707 1.3169 25.3346C1.24282 24.9621 1.28084 24.5761 1.42616 24.2252C1.57148 23.8744 1.81757 23.5745 2.13331 23.3636C2.44905 23.1526 2.82027 23.04 3.20001 23.04C3.70922 23.04 4.19758 23.2423 4.55765 23.6023C4.91772 23.9624 5.12001 24.4508 5.12001 24.96ZM16.64 24.96C16.64 25.3397 16.5274 25.7109 16.3164 26.0267C16.1055 26.3424 15.8056 26.5885 15.4548 26.7338C15.1039 26.8792 14.7179 26.9172 14.3454 26.8431C13.973 26.769 13.6309 26.5862 13.3624 26.3176C13.0938 26.0491 12.911 25.707 12.8369 25.3346C12.7628 24.9621 12.8008 24.5761 12.9462 24.2252C13.0915 23.8744 13.3376 23.5745 13.6533 23.3636C13.9691 23.1526 14.3403 23.04 14.72 23.04C15.2292 23.04 15.7176 23.2423 16.0777 23.6023C16.4377 23.9624 16.64 24.4508 16.64 24.96ZM26.24 26.88C25.8603 26.88 25.4891 26.7674 25.1733 26.5564C24.8576 26.3454 24.6115 26.0456 24.4662 25.6947C24.3208 25.3439 24.2828 24.9579 24.3569 24.5854C24.431 24.213 24.6138 23.8709 24.8824 23.6023C25.1509 23.3338 25.493 23.151 25.8654 23.0769C26.2379 23.0028 26.6239 23.0408 26.9748 23.1861C27.3256 23.3315 27.6255 23.5776 27.8364 23.8933C28.0474 24.209 28.16 24.5802 28.16 24.96C28.16 25.4692 27.9577 25.9576 27.5977 26.3176C27.2376 26.6777 26.7492 26.88 26.24 26.88Z" fill="black"/>
</g>
<defs>
<clipPath id="clip0">
<rect width="32" height="32" fill="white"/>
</clipPath>
</defs>
</svg>
