<svg width="32" height="32" viewBox="0 0 32 32" fill="none" xmlns="http://www.w3.org/2000/svg">
<g clip-path="url(#clip0)">
<path d="M16 0C12.8355 0 9.74207 0.938384 7.11088 2.69649C4.4797 4.45459 2.42894 6.95345 1.21793 9.87706C0.00693253 12.8007 -0.309921 16.0177 0.307443 19.1214C0.924806 22.2251 2.44866 25.0761 4.6863 27.3137C6.92394 29.5513 9.77487 31.0752 12.8786 31.6926C15.9823 32.3099 19.1993 31.9931 22.1229 30.7821C25.0466 29.5711 27.5454 27.5203 29.3035 24.8891C31.0616 22.2579 32 19.1645 32 16C32 11.7565 30.3143 7.68687 27.3137 4.68629C24.3131 1.68571 20.2435 0 16 0V0ZM16 30.72C13.0887 30.72 10.2427 29.8567 7.82201 28.2392C5.40132 26.6218 3.51462 24.3228 2.4005 21.6331C1.28638 18.9434 0.994873 15.9837 1.56285 13.1283C2.13082 10.2729 3.53277 7.65002 5.59139 5.59139C7.65002 3.53276 10.2729 2.13082 13.1283 1.56284C15.9837 0.994866 18.9434 1.28637 21.6331 2.40049C24.3228 3.51462 26.6218 5.40131 28.2392 7.82201C29.8567 10.2427 30.72 13.0887 30.72 16C30.7156 19.9026 29.1633 23.6442 26.4038 26.4037C23.6442 29.1633 19.9026 30.7156 16 30.72Z" fill="#141414"/>
<path d="M17.9195 8.96005H16.6395V8.32005C16.6395 8.15032 16.5721 7.98753 16.4521 7.86751C16.3321 7.74748 16.1693 7.68005 15.9995 7.68005C15.8298 7.68005 15.667 7.74748 15.547 7.86751C15.427 7.98753 15.3595 8.15032 15.3595 8.32005V8.96005H15.1291C14.273 8.96314 13.4458 9.26999 12.7947 9.82598C12.1437 10.382 11.7111 11.151 11.574 11.9961C11.437 12.8412 11.6043 13.7075 12.0463 14.4407C12.4882 15.174 13.1761 15.7265 13.9874 16.0001L17.6059 17.2071C18.1342 17.3805 18.5832 17.7367 18.8722 18.2117C19.1612 18.6866 19.2713 19.2491 19.1825 19.7979C19.0938 20.3468 18.8121 20.8459 18.3882 21.2056C17.9643 21.5653 17.4259 21.7619 16.8699 21.7601H14.0795C13.7401 21.7601 13.4145 21.6252 13.1744 21.3852C12.9344 21.1451 12.7995 20.8195 12.7995 20.4801V19.8401C12.7995 19.6703 12.7321 19.5075 12.6121 19.3875C12.4921 19.2675 12.3293 19.2001 12.1595 19.2001C11.9898 19.2001 11.827 19.2675 11.707 19.3875C11.587 19.5075 11.5195 19.6703 11.5195 19.8401V20.4801C11.5195 21.159 11.7892 21.8102 12.2693 22.2902C12.7494 22.7703 13.4006 23.0401 14.0795 23.0401H15.3595V23.6801C15.3595 23.8498 15.427 24.0126 15.547 24.1326C15.667 24.2526 15.8298 24.3201 15.9995 24.3201C16.1693 24.3201 16.3321 24.2526 16.4521 24.1326C16.5721 24.0126 16.6395 23.8498 16.6395 23.6801V23.0401H16.8699C17.7261 23.037 18.5533 22.7301 19.2044 22.1741C19.8554 21.6181 20.288 20.8491 20.425 20.004C20.5621 19.1589 20.3947 18.2926 19.9528 17.5594C19.5108 16.8261 18.823 16.2736 18.0117 16.0001L14.3931 14.793C13.8649 14.6196 13.4159 14.2634 13.1269 13.7885C12.8379 13.3135 12.7278 12.751 12.8165 12.2022C12.9053 11.6533 13.1869 11.1542 13.6109 10.7945C14.0348 10.4348 14.5732 10.2382 15.1291 10.2401H17.9195C18.259 10.2401 18.5846 10.3749 18.8246 10.615C19.0647 10.855 19.1995 11.1806 19.1995 11.5201V12.1601C19.1995 12.3298 19.267 12.4926 19.387 12.6126C19.507 12.7326 19.6698 12.8001 19.8395 12.8001C20.0093 12.8001 20.1721 12.7326 20.2921 12.6126C20.4121 12.4926 20.4795 12.3298 20.4795 12.1601V11.5201C20.4795 10.8411 20.2098 10.19 19.7297 9.70986C19.2496 9.22977 18.5985 8.96005 17.9195 8.96005Z" fill="#141414"/>
</g>
<defs>
<clipPath id="clip0">
<rect width="32" height="32" fill="white"/>
</clipPath>
</defs>
</svg>
