<svg width="32" height="32" viewBox="0 0 32 32" fill="none" xmlns="http://www.w3.org/2000/svg">
<g clip-path="url(#clip0)">
<path d="M14.8736 14.5815C16.437 13.8226 17.6968 12.556 18.4471 10.9886C19.1975 9.42111 19.3941 7.64549 19.0048 5.95185C18.6155 4.25821 17.6633 2.74668 16.3038 1.66422C14.9442 0.581765 13.2578 -0.00761414 11.52 -0.00761414C9.78219 -0.00761414 8.09575 0.581765 6.73624 1.66422C5.37673 2.74668 4.42452 4.25821 4.0352 5.95185C3.64589 7.64549 3.84248 9.42111 4.59285 10.9886C5.34323 12.556 6.60303 13.8226 8.1664 14.5815C5.80558 15.3028 3.73835 16.7623 2.26844 18.7456C0.798529 20.7288 0.00344335 23.1312 0 25.5997L0 27.5197C0 27.6895 0.0674284 27.8523 0.187452 27.9723C0.307475 28.0923 0.470261 28.1597 0.64 28.1597C0.809739 28.1597 0.972525 28.0923 1.09255 27.9723C1.21257 27.8523 1.28 27.6895 1.28 27.5197V25.5997C1.28 22.8839 2.35885 20.2793 4.27923 18.359C6.1996 16.4386 8.80418 15.3597 11.52 15.3597C14.2358 15.3597 16.8404 16.4386 18.7608 18.359C20.6811 20.2793 21.76 22.8839 21.76 25.5997V27.5197C21.76 27.6895 21.8274 27.8523 21.9475 27.9723C22.0675 28.0923 22.2303 28.1597 22.4 28.1597C22.5697 28.1597 22.7325 28.0923 22.8526 27.9723C22.9726 27.8523 23.04 27.6895 23.04 27.5197V25.5997C23.0366 23.1312 22.2415 20.7288 20.7716 18.7456C19.3017 16.7623 17.2344 15.3028 14.8736 14.5815ZM5.12 7.67973C5.12 6.41393 5.49535 5.17656 6.19859 4.12408C6.90184 3.07161 7.90138 2.25131 9.07083 1.7669C10.2403 1.2825 11.5271 1.15576 12.7686 1.40271C14.0101 1.64965 15.1504 2.25919 16.0455 3.15425C16.9405 4.04931 17.5501 5.18968 17.797 6.43116C18.044 7.67263 17.9172 8.95946 17.4328 10.1289C16.9484 11.2984 16.1281 12.2979 15.0757 13.0011C14.0232 13.7044 12.7858 14.0797 11.52 14.0797C9.82324 14.0777 8.19655 13.4028 6.99676 12.203C5.79697 11.0032 5.12203 9.37649 5.12 7.67973Z" fill="black"/>
<path d="M31.813 6.58685C31.693 6.46687 31.5302 6.39947 31.3605 6.39947C31.1908 6.39947 31.0281 6.46687 30.908 6.58685L24.9202 12.5747L21.5295 9.74845C21.3989 9.63965 21.2305 9.58716 21.0613 9.60252C20.8921 9.61788 20.7359 9.69984 20.6271 9.83037C20.5183 9.9609 20.4658 10.1293 20.4811 10.2985C20.4965 10.4678 20.5785 10.624 20.709 10.7328L24.549 13.9328C24.6718 14.0351 24.8284 14.0877 24.9881 14.0804C25.1477 14.073 25.2988 14.0062 25.4117 13.8931L31.8117 7.49309C31.8714 7.43372 31.9188 7.36317 31.9512 7.28546C31.9835 7.20775 32.0003 7.12442 32.0004 7.04024C32.0005 6.95605 31.984 6.87268 31.9519 6.79488C31.9197 6.71708 31.8725 6.64639 31.813 6.58685Z" fill="black"/>
</g>
<defs>
<clipPath id="clip0">
<rect width="32" height="32" fill="white"/>
</clipPath>
</defs>
</svg>
