<?xml version="1.0" encoding="UTF-8"?>
<svg width="56px" height="22px" viewBox="0 0 56 22" version="1.1" xmlns="http://www.w3.org/2000/svg" xmlns:xlink="http://www.w3.org/1999/xlink">
    <!-- Generator: Sketch 49.3 (51167) - http://www.bohemiancoding.com/sketch -->
    <title>Combined Shape</title>
    <desc>Created with Sketch.</desc>
    <defs></defs>
    <g id="Page-1" stroke="none" stroke-width="1" fill="none" fill-rule="evenodd">
        <g id="wunder_landingpage_mobile_01" transform="translate(-48.000000, -3050.000000)" fill="#334146">
            <g id="Footer" transform="translate(0.000000, 3000.000000)">
                <path d="M86.6503067,58.3244357 L93.5702984,51.7102839 C95.9555451,49.4304569 99.8247236,49.4294837 102.210581,51.7098946 C104.596846,53.9906949 104.596235,57.6875065 102.210174,59.9681121 L91.4112967,70.2897161 C90.1063645,71.5368683 88.3574866,72.102072 86.6503067,71.9849129 C84.9431269,72.102072 83.194249,71.5368683 81.8893168,70.2897161 L71.0904395,59.9681121 C68.7043782,57.6875065 68.7037673,53.9906949 71.0900322,51.7098946 C73.4758899,49.4294837 77.3450684,49.4304569 79.7303151,51.7102839 L86.6503067,58.3244357 Z M49.789826,59.9681121 C47.4037647,57.6875065 47.4031538,53.9906949 49.7894187,51.7098946 C52.1752764,49.4294837 56.0444549,49.4304569 58.4297016,51.7102839 L69.2285789,62.0318879 C71.6146402,64.3124935 71.6152511,68.0093051 69.2289862,70.2901054 C66.8431285,72.5705163 62.9741536,72.5695431 60.5887033,70.2897161 L49.789826,59.9681121 Z" id="Combined-Shape"></path>
            </g>
        </g>
    </g>
</svg>
