<svg height="41" viewBox="0 0 41 41" width="41" xmlns="http://www.w3.org/2000/svg"><g fill="#04de47" fill-rule="evenodd" transform="translate(7.719943 1.006608)"><path d="m6.56838085 22.4503528-.70649605-.1892123c-2.45648154-.6608838-3.91428956-3.1843485-3.25889243-5.6411405l.77528383-2.8915959c.34263427.2200441.67211659.4599037.98676363.7183533.81314207.7191441 1.77595648 1.248777 2.818878 1.5506318 1.16505516.261649 2.36104969.35881 3.55308817.2886482v-.0007102l1.0517141 3.9255872c-1.017656 1.8577055-3.17200955 2.7818873-5.22033925 2.2394384z" opacity=".15"/><path d="m25.5579314 33.1479508c-.0487642-.1819741-.1678628-.3371303-.3310911-.4313305-.1632284-.0942002-.3572132-.1197266-.5392733-.0709629l-2.0592278.5514431-2.2161321-8.2662482c3.0316947-.9921303 4.7606833-4.1777872 3.9396641-7.2588205l-2.8912189-10.94476718c-.2031591-.75775974-.9824295-1.2074552-1.7405868-1.00444462l-4.2763547 1.14521744-9.58068901-2.55692308c-.36416064-.09775705-.75226255-.04686848-1.07887255.14146356-.32660999.18833204-.56495466.49866928-.66256701.86269695l-2.89121887 10.93667023c-.82117158 3.0810515.90787112 6.266808 3.93966412 7.2588205l-2.21584788 8.2661062-2.05965413-.5514431c-.37779079-.0980506-.76399033.1268082-.86500813.5036377-.10101779.3768296.12096336.7645594.49719245.8684357l5.49136877 1.4706569c.37779078.0980506.76399033-.1268082.86500812-.5036377.10101779-.3768296-.12096335-.7645594-.49719244-.8684357l-2.05894351-.551443 2.21584788-8.2662482c2.15003003.4423841 4.37052659-.3201409 5.79451829-1.9898544 1.1582442 2.5663368 3.9445862 3.9841344 6.7022612 3.4103672l2.21599 8.2662482-2.0592278.5514431c-.2469966.0641047-.4406382.2556588-.5073235.5018545s.0038261.5092264.1847335.6891167c.1809074.1798902.4444301.2490156.6904057.1811021l5.4912267-1.4706569c.1820982-.0487379.3373588-.1677977.4316104-.3309759.0942517-.1631781.1197699-.357101.0709383-.5390882zm-5.4704766-26.05305747 1.7390235 6.64572717c-.526688.2920208-1.0258697.631058-1.4914443 1.0129677-.6621725.5972668-1.4496201 1.0389374-2.3046751 1.2926667-1.1912364.2428756-2.4102226.3209295-3.6227286.2319697-.7332153-.0173302-1.4780847-.0264215-2.1942452.0234385l-1.7356124-6.63322669zm-14.59267506-1.41198974 7.19869866 1.92152769-2.5835214.69136359c-.77895637.35184653-1.18811266 1.21599038-.96644 2.04113483l1.216151 4.5361236v-.0007102c-.94255134.0428221-1.88660122-.0404467-2.80708174-.2475954-.85501922-.2538138-1.64244903-.6954744-2.30467509-1.2926667-.46571571-.381768-.96515098-.7204829-1.49215489-1.0119733zm1.07360111 16.76744921-.70649605-.1892123c-2.45648154-.6608838-3.91428956-3.1843485-3.25889243-5.6411405l.77528383-2.8915959c.34263427.2200441.67211659.4599037.98676363.7183533.81314207.7191441 1.77595648 1.248777 2.818878 1.5506318 1.16505516.261649 2.36104969.35881 3.55308817.2886482v-.0007102l1.0517141 3.9255872c-1.017656 1.8577055-3.17200955 2.7818873-5.22033925 2.2394384zm12.44547285 1.4205128c-2.4581477.6554291-4.9832256-.8016547-5.6444358-3.2570938l-.7816794-2.9180174c.5632355-.0244329 1.1644181-.0126426 1.7860664.0022728 1.3481967.0969499 2.7033367.0026391 4.0250803-.2801251 1.0426516-.3019642 2.0051748-.8316457 2.8180253-1.5507739.3148379-.2583308.6444078-.498185.9870479-.7183533l.7749995 2.8917379c.6557625 2.4568982-.8020624 4.9806926-3.2587503 5.6415667z" fill-rule="nonzero"/><path d="m16.3442054 2.84102564c.3924633 0 .7106176-.31799263.7106176-.71025641v-1.42051282c0-.39226378-.3181543-.71025641-.7106176-.71025641s-.7106176.31799263-.7106176.71025641v1.42051282c0 .39226378.3181543.71025641.7106176.71025641z"/><path d="m19.6892247 4.64195179 2.0099109-2.00888923c.2754402-.27772214.2744586-.72573612-.0021958-1.00224993-.2766544-.2765138-.7248963-.27749485-1.0027596-.00219468l-2.0100531 2.00888923c-.2775107.27740895-.2774789.72714591.0000711 1.00451563s.7275157.27733792 1.0050265-.00007102z"/><path d="m13.5880039 4.64195179c.2778634.27530017.7261052.27431913 1.0027596-.00219468.2766545-.27651381.277636-.72452778.0021958-1.00224993l-2.0099109-2.00903128c-.2775107-.27740894-.7274764-.27744074-1.0050265-.00007102-.27755.27736972-.2775818.72710668-.000071 1.00451563z"/></g></svg>