<svg height="41" viewBox="0 0 41 41" width="41" xmlns="http://www.w3.org/2000/svg"><g fill="#04de47" fill-rule="evenodd" transform="translate(12.211268 3.278873)"><path d="m7.76470588 1.4c-.47578061.00496783-.94943461.06377513-1.4117647.17528 2.61772227.60332445 4.56836892 2.77640207 4.86945882 5.42472h2.8235294c-.3519964-3.17959725-3.055659-5.59003693-6.28122352-5.6z" opacity=".15"/><path d="m11.2224 8.4c-.3010899 2.6483179-2.25173655 4.8213956-4.86945882 5.42472.46233009.1115049.93598409.1703122 1.4117647.17528 3.22556452-.0099631 5.92922712-2.4204027 6.28122352-5.6z" opacity=".15"/><path d="m8.22098824 15.37396-.95195295 16.05142c-.04226852.6688699-.37684555 1.286123-.91609411 1.69008.40286149.3117631.89863983.4821777 1.40964706.48454 1.23415607.0000812 2.25496966-.952837 2.32941176-2.17448l.9947294-16.77396c-.8995889.4211018-1.87257068.6663724-2.86574116.7224z" opacity=".15"/><path d="m7.76470588 0c-3.3110272-.00232804-6.25875121 2.07913338-7.33962155 5.18268979s-.05671692 6.54533831 2.55006861 8.56979021l1.05261177 17.75578c.11652829 1.9608484 1.75406673 3.4918066 3.73482353 3.49174h.00409411c1.98075679.0000666 3.61829525-1.5308916 3.73482355-3.49174l1.0526117-17.75564c2.6068846-2.0244058 3.6311281-5.46622554 2.55028-8.56984124-1.0808482-3.10361571-4.0286153-5.1851234-7.33969172-5.18277876zm0 1.4c3.22556452.00996307 5.92922712 2.42040275 6.28122352 5.6h-12.56244705c.35199644-3.17959725 3.05565902-5.59003693 6.28122353-5.6zm2.32785882 30.02552c-.0737074 1.2214066-1.09405536 2.1745097-2.32792941 2.1745097-1.23387404 0-2.25422203-.9531031-2.32792941-2.1745097l-.99458823-16.7741c2.10074041.9980365 4.54443605.9980365 6.64517645 0zm-2.32785882-17.42552c-3.22556451-.0099631-5.92922709-2.4204027-6.28122353-5.6h12.56244705c-.3519964 3.1795973-3.055659 5.5900369-6.28122352 5.6z" fill-rule="nonzero"/></g></svg>