<svg height="41" viewBox="0 0 41 41" width="41" xmlns="http://www.w3.org/2000/svg"><g fill="#04de47" fill-rule="evenodd" transform="translate(3.211268 2.523944)"><path d="m10.2083333 29.52c-.0005623.3974148-.32669214.7194448-.72916663.72h-4.375c-.4024745-.0005552-.72860439-.3225852-.72916667-.72v-6.48c0-.79529-.65291807-1.44-1.45833333-1.44h-.72916667c-.40247449-.0005552-.72860438-.3225852-.72916667-.72v-3.6c-.00414808-2.5121749 1.64364786-4.7362593 4.06965501-5.4929475 2.42600716-.7566881 5.06867266.1291722 6.52674086 2.1878595-1.1839451 1.3045974-1.8410608 2.9933315-1.8463959 4.745088z" opacity=".15"/><path d="m33.5416667 20.88c-.0005623.3974148-.3266922.7194448-.7291667.72h-.7291667c-.8054152 0-1.4583333.64471-1.4583333 1.44v6.48c-.0005623.3974148-.3266922.7194448-.7291667.72h-4.375c-.4024745-.0005552-.7286043-.3225852-.7291666-.72v-10.8c-.0053351-1.7517565-.6624508-3.4404906-1.8463959-4.745088 1.4580682-2.0586873 4.1007337-2.9445476 6.5267409-2.1878595 2.4260071.7566882 4.073803 2.9807726 4.069655 5.4929475z" opacity=".15"/><g fill-rule="nonzero"><path d="m17.5 10.08c2.4162458 0 4.375-1.93412988 4.375-4.32s-1.9587542-4.32-4.375-4.32-4.375 1.93412988-4.375 4.32 1.9587542 4.32 4.375 4.32zm0-7.2c1.6108305 0 2.9166667 1.28941992 2.9166667 2.88s-1.3058362 2.88-2.9166667 2.88-2.9166667-1.28941992-2.9166667-2.88c.0018484-1.58982346 1.3066024-2.87817485 2.9166667-2.88z"/><path d="m27.7083333 8.64c2.4162458 0 4.375-1.93412988 4.375-4.32s-1.9587542-4.32-4.375-4.32c-2.4162457 0-4.375 1.93412988-4.375 4.32s1.9587543 4.32 4.375 4.32zm0-7.2c1.6108306 0 2.9166667 1.28941992 2.9166667 2.88s-1.3058361 2.88-2.9166667 2.88c-1.6108305 0-2.9166666-1.28941992-2.9166666-2.88.0018484-1.58982346 1.3066024-2.87817485 2.9166666-2.88z"/><path d="m7.29166667 8.64c2.41624578 0 4.37500003-1.93412988 4.37500003-4.32s-1.95875425-4.32-4.37500003-4.32-4.375 1.93412988-4.375 4.32 1.95875422 4.32 4.375 4.32zm0-7.2c1.61083052 0 2.91666663 1.28941992 2.91666663 2.88s-1.30583611 2.88-2.91666663 2.88-2.91666667-1.28941992-2.91666667-2.88c.00184839-1.58982346 1.30660239-2.87817485 2.91666667-2.88z"/><path d="m27.7083333 10.08c-2.3014312.0041029-4.4645132 1.0857253-5.8298333 2.915136l.0016042.00144c-2.5799423-1.9692252-6.1812869-1.9692252-8.7612292 0l.0024792-.00216c-1.8674431-2.4971694-5.14858515-3.52661566-8.13327-2.5517835-2.98468485.9748321-4.99698899 3.7331783-4.9880842 6.8373675v3.6c0 1.1929351.97937711 2.16 2.1875 2.16h.72916667v6.48c0 1.1929351.97937711 2.16 2.1875 2.16h4.375c1.20812293 0 2.18750003-.9670649 2.18750003-2.16v-3.732192c.2335499.0851351.4802215.1298547.7291666.132192h.7291667v7.92c0 1.1929351.9793771 2.16 2.1875 2.16h4.375c1.2081229 0 2.1875-.9670649 2.1875-2.16v-7.92h.7291667c.2489451-.0023373.4956167-.0470569.7291666-.132192v3.732192c0 1.1929351.9793771 2.16 2.1875 2.16h4.375c1.2081229 0 2.1875-.9670649 2.1875-2.16v-6.48h.7291667c1.2081229 0 2.1875-.9670649 2.1875-2.16v-3.6c0-1.9095587-.768227-3.7409069-2.1356797-5.0911688-1.3674528-1.3502619-3.2221167-2.1088312-5.155987-2.1088312zm-17.5 19.44c-.0005623.3974148-.32669214.7194448-.72916663.72h-4.375c-.4024745-.0005552-.72860439-.3225852-.72916667-.72v-6.48c0-.79529-.65291807-1.44-1.45833333-1.44h-.72916667c-.40247449-.0005552-.72860438-.3225852-.72916667-.72v-3.6c-.00414808-2.5121749 1.64364786-4.7362593 4.06965501-5.4929475 2.42600716-.7566881 5.06867266.1291722 6.52674086 2.1878595-1.1839451 1.3045974-1.8410608 2.9933315-1.8463959 4.745088zm12.3958334-5.04h-.7291667c-.8054153 0-1.4583333.64471-1.4583333 1.44v7.92c-.0004822.3974477-.3266589.7195239-.7291667.72h-4.375c-.4025078-.0004761-.7286845-.3225523-.7291667-.72v-7.92c0-.79529-.652918-1.44-1.4583333-1.44h-.7291667c-.4025077-.0004761-.7286845-.3225523-.7291666-.72v-5.04c0-3.1811602 2.6116723-5.76 5.8333333-5.76s5.8333333 2.5788398 5.8333333 5.76v5.04c-.0004821.3974477-.3266589.7195239-.7291666.72zm10.9375-3.6c-.0005623.3974148-.3266922.7194448-.7291667.72h-.7291667c-.8054152 0-1.4583333.64471-1.4583333 1.44v6.48c-.0005623.3974148-.3266922.7194448-.7291667.72h-4.375c-.4024745-.0005552-.7286043-.3225852-.7291666-.72v-10.8c-.0053351-1.7517565-.6624508-3.4404906-1.8463959-4.745088 1.4580682-2.0586873 4.1007337-2.9445476 6.5267409-2.1878595 2.4260071.7566882 4.073803 2.9807726 4.069655 5.4929475z"/></g></g></svg>