<?xml version="1.0" encoding="UTF-8"?>
<svg width="41px" height="41px" viewBox="0 0 41 41" version="1.1" xmlns="http://www.w3.org/2000/svg" xmlns:xlink="http://www.w3.org/1999/xlink">
    <!-- Generator: sketchtool 52.4 (67378) - http://www.bohemiancoding.com/sketch -->
    <title>22B635A3-1483-4845-B2E8-DB8689FC9552</title>
    <desc>Created with sketchtool.</desc>
    <g id="Page-1" stroke="none" stroke-width="1" fill="none" fill-rule="evenodd">
        <g id="Wunder-Careers-04-Cultures" transform="translate(-584.000000, -1749.000000)" fill="#04DE47">
            <g id="Team-Spirit-Copy" transform="translate(208.000000, 1007.000000)">
                <g id="Enginiering-Copy-5" transform="translate(351.000000, 514.000000)">
                    <g id="Group-18" transform="translate(25.211268, 228.278873)">
                        <g id="microphone-wireless" transform="translate(12.000000, 3.000000)">
                            <path d="M7.76470588,1.4 C7.28892527,1.40496783 6.81527127,1.46377513 6.35294118,1.57528 C8.97066345,2.17860445 10.9213101,4.35168207 11.2224,7 L14.0459294,7 C13.693933,3.82040275 10.9902704,1.40996307 7.76470588,1.4 Z" id="Path" opacity="0.149999991"></path>
                            <path d="M11.2224,8.4 C10.9213101,11.0483179 8.97066345,13.2213956 6.35294118,13.82472 C6.81527127,13.9362249 7.28892527,13.9950322 7.76470588,14 C10.9902704,13.9900369 13.693933,11.5795973 14.0459294,8.4 L11.2224,8.4 Z" id="Path" opacity="0.149999991"></path>
                            <path d="M8.22098824,15.37396 L7.26903529,31.42538 C7.22676677,32.0942499 6.89218974,32.711503 6.35294118,33.11546 C6.75580267,33.4272231 7.25158101,33.5976377 7.76258824,33.6 C8.99674431,33.6000812 10.0175579,32.647163 10.092,31.42552 L11.0867294,14.65156 C10.1871405,15.0726618 9.21415872,15.3179324 8.22098824,15.37396 Z" id="Path" opacity="0.149999991"></path>
                            <path d="M7.76470588,-6.21725148e-16 C4.45367868,-0.00232804213 1.50595467,2.07913338 0.425084329,5.18268979 C-0.65578601,8.2862462 0.368367405,11.7280281 2.97515294,13.75248 L4.02776471,31.50826 C4.144293,33.4691084 5.78183144,35.0000666 7.76258824,35 L7.76668235,35 C9.74743914,35.0000666 11.3849776,33.4691084 11.5015059,31.50826 L12.5541176,13.75262 C15.1610022,11.7282142 16.1852457,8.28639446 15.1043976,5.18277876 C14.0235494,2.07916305 11.0757823,-0.0023446379 7.76470588,-6.21725148e-16 Z M7.76470588,1.4 C10.9902704,1.40996307 13.693933,3.82040275 14.0459294,7 L1.48348235,7 C1.83547879,3.82040275 4.53914137,1.40996307 7.76470588,1.4 Z M10.0925647,31.42552 C10.0188573,32.6469266 8.99850934,33.6000297 7.76463529,33.6000297 C6.53076125,33.6000297 5.51041326,32.6469266 5.43670588,31.42552 L4.44211765,14.65142 C6.54285806,15.6494565 8.9865537,15.6494565 11.0872941,14.65142 L10.0925647,31.42552 Z M7.76470588,14 C4.53914137,13.9900369 1.83547879,11.5795973 1.48348235,8.4 L14.0459294,8.4 C13.693933,11.5795973 10.9902704,13.9900369 7.76470588,14 Z" id="Shape" fill-rule="nonzero"></path>
                        </g>
                    </g>
                </g>
            </g>
        </g>
    </g>
</svg>