<svg height="40" viewBox="0 0 40 40" width="40" xmlns="http://www.w3.org/2000/svg"><g fill="#04de47" fill-rule="evenodd" transform="translate(3 3)"><rect height="2.692308" opacity=".15" rx=".673077" width="31.28" x="1.36" y="25.576923"/><path d="m17 1.34615385c-.4689127.01470504-.9315973.11060985-1.367072.28336538 2.0072508.7295829 3.3588775 2.60079003 3.407072 4.71678846 0 3.02803846-1.50008 5.83571151-3.4 6.77963461.4205057.2157959.8863631.3307518 1.36.3355962 2.491248 0 4.76-3.3913654 4.76-7.11523081-.0578765-2.62776175-2.113332-4.78692003-4.76-5.00015384z" opacity=".15"/><path d="m31.96 24.2307692h-.68v-2.2631538c.0002685-1.0772606-.6482397-2.0509748-1.648592-2.4753077l-7.488024-3.1769231c-.266124-.1120834-.4890541-.3054797-.636208-.5519231-.4721679-.8037963-.8025241-1.6813464-.976888-2.5949807 1.7003184-1.8701565 2.6251479-4.30646863 2.589712-6.82217311-.0652744-3.36763093-2.7244485-6.12513694-6.12-6.34630769-3.4098141.19078015-6.0860589 2.96598811-6.12 6.34630769-.0356106 2.51587142.8891786 4.95239771 2.589576 6.82271151-.1744232.9134484-.5047777 1.7908117-.976888 2.5944423-.1471539.2464434-.370084.4398397-.636208.5519231l-7.487888 3.1769231c-1.00035227.4243329-1.64886048 1.3980471-1.648592 2.4753077v2.2631538h-.68c-1.12666089 0-2.04.9040404-2.04 2.0192308v1.3461538c.00165341 1.0582293.83064178 1.9345945 1.897336 2.0057693 1.33725865.6586839 2.26010324 1.9279928 2.46636 3.3923077 0 .3717301.30444637.6730769.68.6730769s.68-.3013468.68-.6730769c-.08878561-1.2839515-.65854529-2.4888689-1.597728-3.3788462h26.03176c-.9391827.8899773-1.5089424 2.0948947-1.597728 3.3788462 0 .3717301.3044464.6730769.68.6730769s.68-.3013468.68-.6730769c.2152323-1.5161231 1.1935826-2.8203057 2.5976-3.4627116l.007072-.0045769c.8713737-.2464727 1.4729479-1.0337637 1.475328-1.9307885v-1.3461538c0-.5355333-.214928-1.0491325-.5975022-1.4278118-.3825742-.3786792-.9014562-.591419-1.4424978-.591419zm-14.96-22.88461535c2.646668.21323381 4.7021235 2.37239209 4.76 5.00015384 0 3.72386541-2.268752 7.11523081-4.76 7.11523081s-4.76-3.3913654-4.76-7.11523081c.0316366-2.63832455 2.1011211-4.8122197 4.76-5.00015384zm-12.92 20.62146155c-.00023872-.5384648.3241039-1.025137.824296-1.2368462l7.488296-3.176923c.5310161-.2239052.9757745-.6100324 1.269288-1.1019616.4322174-.7302629.7677614-1.5125119.998376-2.3275 1.4239752.9114641 3.2556488.9114641 4.679624 0 .2306371.8147026.5660371 1.5967095.997968 2.3268269.2936668.4922791.738653.8787275 1.269968 1.1029039l7.487888 3.1769231c.5001012.2116707.8244258.6982099.824296 1.2365769v2.2631538h-12.24v-2.8158846c.9367317-.3278129 1.498633-1.2759292 1.3306211-2.2452049-.168012-.9692758-1.017067-1.6777749-2.0106211-1.6777749s-1.8426091.7084991-2.0106211 1.6777749c-.1680119.9692757.3938894 1.917392 1.3306211 2.2452049v2.8158846h-12.24000013zm12.24-2.4483846c0-.3717302.3044464-.673077.68-.673077s.68.3013468.68.673077c0 .3717301-.3044464.6730769-.68.6730769-.3753672-.0004451-.6795504-.3015313-.68-.6730769zm-14.96 6.7307692c.00044963-.3715456.30463277-.6726319.68-.6730769h29.92c.3753672.000445.6795504.3015313.68.6730769v1.3461538c-.0004496.3715457-.3046328.6726319-.68.673077h-29.92c-.37536723-.0004451-.67955037-.3015313-.68-.673077z" fill-rule="nonzero"/></g></svg>