<?xml version="1.0" encoding="UTF-8"?>
<svg width="41px" height="41px" viewBox="0 0 41 41" version="1.1" xmlns="http://www.w3.org/2000/svg" xmlns:xlink="http://www.w3.org/1999/xlink">
    <!-- Generator: sketchtool 52.4 (67378) - http://www.bohemiancoding.com/sketch -->
    <title>E9D520DB-01B9-4B28-95B6-06E613E9BFB9</title>
    <desc>Created with sketchtool.</desc>
    <g id="Page-1" stroke="none" stroke-width="1" fill="none" fill-rule="evenodd">
        <g id="Wunder-Careers-04-Cultures" transform="translate(-935.000000, -1295.000000)" fill="#04DE47">
            <g id="Team-Spirit-Copy" transform="translate(208.000000, 1007.000000)">
                <g id="Enginiering-Copy-3" transform="translate(702.000000, 68.000000)">
                    <g id="Group-18" transform="translate(25.211268, 220.523944)">
                        <g id="hot-drink" transform="translate(3.000000, 2.000000)">
                            <path d="M24.7916667,11.4798391 L24.7916667,17.2173913 C24.7853176,22.7616617 20.2186082,27.254623 14.5833333,27.2608696 L8.75,27.2608696 C7.72982618,27.261356 6.71538315,27.1108367 5.74072917,26.8143652 C7.46663421,28.0373601 9.53970419,28.6954905 11.6666667,28.6956522 L17.5,28.6956522 C23.1352749,28.6894056 27.7019843,24.1964443 27.7083333,18.6521739 L27.7083333,11.4798391 L24.7916667,11.4798391 Z" id="Path" opacity="0.149999991"></path>
                            <path d="M30.625,10.0434783 L1.45833333,10.0450565 C0.652918073,10.0450565 0,10.6874306 0,11.4798391 L0,18.6521739 C6.47630098e-16,24.9914423 5.22334459,30.1304348 11.6666667,30.1304348 L17.5,30.1304348 C23.9433221,30.1304348 29.1666667,24.9914423 29.1666667,18.6521739 L30.625,18.6521739 C32.188037,18.6521739 33.6323427,17.8317699 34.4138612,16.5 C35.1953797,15.1682302 35.1953797,13.527422 34.4138612,12.1956521 C33.6323427,10.8638823 32.188037,10.0434782 30.625,10.0434783 Z M27.7083333,18.6521739 C27.7019843,24.1964443 23.1352749,28.6894056 17.5,28.6956522 L11.6666667,28.6956522 C6.03139181,28.6894056 1.4646824,24.1964443 1.45833333,18.6521739 L1.45833333,15.7826087 L22.6041667,15.7826087 C23.0068743,15.7826087 23.3333333,15.4614217 23.3333333,15.0652174 C23.3333333,14.6690131 23.0068743,14.3478261 22.6041667,14.3478261 L1.45833333,14.3478261 L1.45833333,11.4798391 L27.7083333,11.4798391 L27.7083333,18.6521739 Z M30.625,17.2173913 L29.1666667,17.2173913 L29.1666667,11.4782609 L30.625,11.4782609 C32.2358305,11.4782609 33.5416667,12.763009 33.5416667,14.3478261 C33.5416667,15.9326432 32.2358305,17.2173913 30.625,17.2173913 Z" id="Shape" fill-rule="nonzero"></path>
                            <path d="M24.0625,31.5652174 L6.5625,31.5652174 C6.15979237,31.5652174 5.83333333,31.8864044 5.83333333,32.2826087 C5.83333333,32.678813 6.15979237,33 6.5625,33 L24.0625,33 C24.4652076,33 24.7916667,32.678813 24.7916667,32.2826087 C24.7916667,31.8864044 24.4652076,31.5652174 24.0625,31.5652174 Z" id="Path"></path>
                            <path d="M19.7351875,8.60869565 C19.7792491,8.60866331 19.8232041,8.6044349 19.8664375,8.59606957 C20.2489898,8.50685331 20.490772,8.13531228 20.4130208,7.75614783 C20.1005678,6.53319854 20.6238704,5.25136882 21.7093333,4.58083043 C23.0695448,3.70226448 23.6611122,2.03487903 23.1520625,0.514369565 C23.1077276,0.336040218 22.9910672,0.183368416 22.8292622,0.0919251714 C22.6674571,0.000481926366 22.4746378,-0.0217470432 22.2957292,0.0304173913 C21.9235496,0.157758152 21.7189131,0.55050058 21.8311042,0.922134783 C22.2102708,2.25447391 21.6852708,2.71819565 20.8166875,3.48738261 C19.3491625,4.5095683 18.6550932,6.30299883 19.0599792,8.02660435 C19.1123058,8.35577906 19.3966353,8.6008971 19.7351875,8.60869565 Z" id="Path"></path>
                            <path d="M13.9018542,8.60869565 C13.9459158,8.60866331 13.9898707,8.6044349 14.0331042,8.59606957 C14.4156565,8.50685331 14.6574387,8.13531228 14.5796875,7.75614783 C14.2672344,6.53319854 14.7905371,5.25136882 15.876,4.58083043 C17.2362115,3.70226448 17.8277789,2.03487903 17.3187292,0.514369565 C17.2743942,0.336040218 17.1577339,0.183368416 16.9959289,0.0919251714 C16.8341238,0.000481926366 16.6413045,-0.0217470432 16.4623958,0.0304173913 C16.0902162,0.157758152 15.8855797,0.55050058 15.9977708,0.922134783 C16.3769375,2.25447391 15.8519375,2.71819565 14.9833542,3.48738261 C13.5158292,4.5095683 12.8217599,6.30299883 13.2266458,8.02660435 C13.2789725,8.35577906 13.563302,8.6008971 13.9018542,8.60869565 Z" id="Path"></path>
                            <path d="M8.06852083,8.60869565 C8.11258243,8.60866331 8.15653739,8.6044349 8.19977083,8.59606957 C8.58232313,8.50685331 8.82410534,8.13531228 8.74635417,7.75614783 C8.43413605,6.53355349 8.95714527,5.25215525 10.0420833,4.58154783 C11.4022948,3.70298187 11.9938622,2.03559643 11.4848125,0.515086957 C11.4404776,0.336757609 11.3238172,0.184085808 11.1620122,0.0926425627 C11.0002071,0.00119931767 10.8073878,-0.0210296519 10.6284792,0.0311347826 C10.2562996,0.158475544 10.0516631,0.551217972 10.1638542,0.922852174 C10.5430208,2.2551913 10.0180208,2.71891304 9.1494375,3.4881 C7.6819696,4.51026327 6.98790754,6.30361848 7.39272917,8.02717826 C7.4453497,8.3563344 7.72993427,8.60121886 8.06852083,8.60869565 Z" id="Path"></path>
                        </g>
                    </g>
                </g>
            </g>
        </g>
    </g>
</svg>