<svg height="41" viewBox="0 0 41 41" width="41" xmlns="http://www.w3.org/2000/svg"><g fill="#04de47" fill-rule="evenodd" transform="translate(3.211268 2.523944)"><path d="m24.7916667 11.4798391v5.7375522c-.0063491 5.5442704-4.5730585 10.0372317-10.2083334 10.0434783h-5.8333333c-1.02017382.0004864-2.03461685-.1500329-3.00927083-.4465044 1.72590504 1.2229949 3.79897502 1.8811253 5.92593753 1.881287h5.8333333c5.6352749-.0062466 10.2019843-4.4992079 10.2083333-10.0434783v-7.1723348z" opacity=".15"/><path d="m30.625 10.0434783-29.16666667.0015782c-.80541526 0-1.45833333.6423741-1.45833333 1.4347826v7.1723348c0 6.3392684 5.22334459 11.4782609 11.6666667 11.4782609h5.8333333c6.4433221 0 11.6666667-5.1389925 11.6666667-11.4782609h1.4583333c1.563037 0 3.0073427-.820404 3.7888612-2.1521739.7815185-1.3317698.7815185-2.972578 0-4.3043479-.7815185-1.3317698-2.2258242-2.1521739-3.7888612-2.1521738zm-2.9166667 8.6086956c-.006349 5.5442704-4.5730584 10.0372317-10.2083333 10.0434783h-5.8333333c-5.63527489-.0062466-10.2019843-4.4992079-10.20833337-10.0434783v-2.8695652h21.14583337c.4027076 0 .7291666-.321187.7291666-.7173913s-.326459-.7173913-.7291666-.7173913h-21.14583337v-2.867987h26.24999997zm2.9166667-1.4347826h-1.4583333v-5.7391304h1.4583333c1.6108305 0 2.9166667 1.2847481 2.9166667 2.8695652s-1.3058362 2.8695652-2.9166667 2.8695652z" fill-rule="nonzero"/><path d="m24.0625 31.5652174h-17.5c-.40270763 0-.72916667.321187-.72916667.7173913s.32645904.7173913.72916667.7173913h17.5c.4027076 0 .7291667-.321187.7291667-.7173913s-.3264591-.7173913-.7291667-.7173913z"/><path d="m19.7351875 8.60869565c.0440616-.00003234.0880166-.00426075.13125-.01262608.3825523-.08921626.6243345-.46075729.5465833-.83992174-.312453-1.22294929.2108496-2.50477901 1.2963125-3.1753174 1.3602115-.87856595 1.9517789-2.5459514 1.4427292-4.06646086-.0443349-.17832935-.1609953-.33100115-.3228003-.4224444-.1618051-.09144324-.3546244-.11367221-.533533-.06150778-.3721796.12734076-.5768161.52008319-.464625.89171739.3791666 1.33233913-.1458334 1.79606087-1.0144167 2.56524783-1.467525 1.02218569-2.1615943 2.81561622-1.7567083 4.53922174.0523266.32917471.3366561.57429275.6752083.5820913z"/><path d="m13.9018542 8.60869565c.0440616-.00003234.0880165-.00426075.13125-.01262608.3825523-.08921626.6243345-.46075729.5465833-.83992174-.3124531-1.22294929.2108496-2.50477901 1.2963125-3.1753174 1.3602115-.87856595 1.9517789-2.5459514 1.4427292-4.06646086-.044335-.17832935-.1609953-.33100115-.3228003-.4224444-.1618051-.09144324-.3546244-.11367221-.5335331-.06150778-.3721796.12734076-.5768161.52008319-.464625.89171739.3791667 1.33233913-.1458333 1.79606087-1.0144166 2.56524783-1.467525 1.02218569-2.1615943 2.81561622-1.7567084 4.53922174.0523267.32917471.3366562.57429275.6752084.5820913z"/><path d="m8.06852083 8.60869565c.0440616-.00003234.08801656-.00426075.13125-.01262608.3825523-.08921626.62433451-.46075729.54658334-.83992174-.31221812-1.22259434.2107911-2.50399258 1.29572913-3.1746 1.3602115-.87856596 1.9517789-2.5459514 1.4427292-4.06646087-.0443349-.17832935-.1609953-.33100115-.3228003-.4224444-.1618051-.09144324-.3546244-.11367221-.533533-.06150778-.3721796.12734076-.5768161.52008319-.464625.89171739.3791666 1.33233913-.1458334 1.79606087-1.0144167 2.56524783-1.4674679 1.02216327-2.16152996 2.81551848-1.75670833 4.53907826.05262053.32915614.3372051.5740406.67579166.58151739z"/></g></svg>