<svg height="60" viewBox="0 0 60 60" width="60" xmlns="http://www.w3.org/2000/svg"><g fill="#04de47" fill-rule="evenodd" transform="translate(6 6)"><path d="m36.4866 44.5938c-1.7710379-2.11927-2.6611119-4.8374571-2.4866-7.5938v-17c.0051432-3.2884322-1.4634987-6.4061419-4.0022696-8.4962268-2.5387709-2.09008491-5.8805063-2.93259749-9.1067304-2.2959732 4.1425479.894072 7.1020318 4.5542737 7.109 8.7922v17c-.0743937 2.1657685.3590267 4.318898 1.2656 6.2872-.7410015-.1859691-1.5016337-.282391-2.2656-.2872-1.7803475.0962593-3.5300957.5034735-5.17 1.2032-.9049544.3867295-1.8562085.6545596-2.83.7968-.9358362-.132867-1.8491835-.3927275-2.7148-.7724-1.5407022-.6396473-3.1696028-1.0416294-4.831-1.1922-.420992 1.2944142-1.0751523 2.5009269-1.9302 3.56-.53254975.6336411-.94784927 1.3571644-1.2264 2.1366.86862332-.2130821 1.724187-.4762554 2.5624-.7882 1.3155107-.550169 2.7160177-.8694441 4.14-.9438 1.5842454.0956205 3.1392671.4695325 4.5938 1.1046 1.0801842.4787759 2.2302082.7810868 3.4062.8954 1.2114159-.1219318 2.3965424-.4312859 3.513-.917 1.4226049-.615309 2.940347-.9816372 4.487-1.083 1.3541265.0734348 2.6851932.3816191 3.9338.9108.9100891.3455283 1.8427288.6284542 2.7914.8468-.2667864-.7955967-.687663-1.5308564-1.2386-2.1638z" opacity=".15"/><path d="m23 17c-3.8659932 0-7 3.1340068-7 7s3.1340068 7 7 7 7-3.1340068 7-7c0-1.8565154-.7374979-3.6369928-2.0502525-4.9497475-1.3127547-1.3127546-3.0932321-2.0502525-4.9497475-2.0502525zm0 12c-2.7614237 0-5-2.2385763-5-5s2.2385763-5 5-5 5 2.2385763 5 5c-.0031962 2.7600988-2.2399012 4.9968038-5 5z" fill-rule="nonzero"/><circle cx="23" cy="24" r="1"/><circle cx="15" cy="32" r="1"/><circle cx="19" cy="34" r="1"/><path d="m29 37h-12c-.5522847 0-1 .4477153-1 1s.4477153 1 1 1h12c.5522847 0 1-.4477153 1-1s-.4477153-1-1-1z"/><path d="m43 39c-1.9136183.0288535-3.805975-.4041869-5.5166-1.2624 3.4848-.7408 4.5166-3.1662 4.5166-6.7376v-12c.0017637-1.6561231 1.3438769-2.9982363 3-3h2c.5522847 0 1-.4477153 1-1s-.4477153-1-1-1h-2c-2.7602357.0028662-4.9971338 2.2397643-5 5v12c.1845589 1.1956574-.1447249 2.4136309-.9066083 3.353414-.7618834.9397832-1.8854157 1.5138584-3.0933917 1.580586v-15.934c-.000616-5.1857066-3.0831031-9.8750297-7.8434-11.932l3.6756-5.5134c.3001878-.45931559.1741884-1.07473062-.2823581-1.37911327-.4565466-.30438264-1.07309-.18402589-1.3816419.26971327l-3.9772 5.9658c-2.0920425-.54799759-4.2899575-.54799759-6.382 0l-3.977-5.9656c-.1966464-.30088746-.5396496-.473087-.898421-.45103859-.3587714.0220484-.6781079.23495222-.8364314.55765447-.1583235.32270224-.1312731.70554966.0708524 1.00278412l3.6754 5.5132c-4.7602969 2.0569703-7.842784 6.7462934-7.8434 11.932v16.3948c-1.13272495.5073411-2.43998155.4410784-3.5156-.1782-1.3315109-.5667425-2.27252252-1.7850881-2.4844-3.2166.15075-1.6734041.80133017-3.262782 1.8672-4.5616 1.25100937-1.551657 1.99548323-3.4499815 2.1328-5.4384 0-4.5176-5.2578-7-7-7-.55228475 0-1 .4477153-1 1s.44771525 1 1 1c.7852 0 5 1.8018 5 5-.15962964 1.5924755-.78689398 3.102113-1.8028 4.3388-1.29153881 1.6194443-2.05808216 3.5944831-2.1972 5.6612.20313515 2.1877327 1.56790919 4.0968575 3.5722 4.997.92554342.4879718 1.95377577.7490742 3 .7618.22748326-.0025717.45458716-.0192705.68-.05-2.15801739 2.2199549-5.15874202 3.4167248-8.2522 3.2912-.55228475 0-1 .4477153-1 1s.44771525 1 1 1c2.88182067.0226459 5.70348047-.8243678 8.0964-2.4304-1.0588 2.1308-2.711 2.954-3.0388 6.24-.03562613.2807678.04761555.5636574.22963158.780383.18201604.2167255.44626782.3475945.72896842.361017.0288 0 .058-.0014.0876-.0042 3.3282-.3144 5.6376-1.9468 7.8962-1.9468 2.5 0 5.375 2 8 2s5.625-2 8-2c2.1562 0 4.4156 1.6486 7.9 1.9522.0273333.0024.0544.0036.0812.0036.2830643-.0128973.5479447-.1431904.7309316-.3595408.182987-.2163505.2675205-.499179.2332684-.7804592-.4142-4.3736-3.08-4.311-3.7766-8.557 2.0778183 1.1872058 4.4386058 1.7889454 6.8312 1.7412 1.5959773.1384884 2.8615116 1.4040227 3 3 0 .5522847.4477153 1 1 1s1-.4477153 1-1c-.1337452-2.7040884-2.2959116-4.8662548-5-5zm-5.275 7.7576c-.9486712-.2183458-1.8813109-.5012717-2.7914-.8468-1.2485442-.5291584-2.5795412-.8373422-3.9336-.9108-1.546653.1013628-3.0643951.467691-4.487 1.083-1.1164576.4857141-2.3015841.7950682-3.513.917-1.1759918-.1143132-2.3260158-.4166241-3.4062-.8954-1.4545329-.6350675-3.0095546-1.0089795-4.5938-1.1046-1.4239823.0743559-2.8244893.393631-4.14.9438-.8384873.311771-1.69431879.5747442-2.5632.7876.27855073-.7794356.69385025-1.5029589 1.2264-2.1366 1.7458853-2.1330202 2.6295301-4.8426074 2.4768-7.5948v-17c0-6.0751322 4.9248678-11 11-11s11 4.9248678 11 11v17c-.1745119 2.7563429.7155621 5.47453 2.4866 7.5938.5508656.6329606.9716735 1.3682191 1.2384 2.1638z" fill-rule="nonzero"/></g></svg>