<svg height="60" viewBox="0 0 60 60" width="60" xmlns="http://www.w3.org/2000/svg"><g fill="#04de47" fill-rule="evenodd" transform="translate(7 5)"><path d="m22 2.8626v12.1374c0 .5522847.4477153 1 1 1s1-.4477153 1-1v-12.1374l17.9354 10.1374-18.9354 10.7026-18.9354-10.7026z" opacity=".15"/><path d="m46 13-23-13-23 13v24c0 .0158.0114.0284.012.0442.00274704.1581695.04393117.3132964.12.452l.0064.0064c.04907492.0623952.10540477.1187251.1678.1678.05972476.0769934.1302522.1449611.2094.2018l.0062.006 22 12c.2982455.1627353.6587545.1627353.957 0l22-12 .0062-.006c.0763867-.0553511.144649-.1211226.2028-.1954.0652033-.0506721.1238532-.1092548.1746-.1744l.0062-.0062c.0759824-.1385216.117164-.2934331.12-.4514 0-.0158.0122-.0286.0122-.0446zm-2 22.277-12.504-7.1452c-.3104804-.1818281-.6947068-.1828421-1.0061425-.0026553-.3114358.1801869-.502062.5137923-.4991774.8735856s.1988351.6902994.5131199.8654697l12.445 7.1118-18.9488 10.3358v-21.88l20-11.3054zm-22-32.4144v12.1374c0 .5522847.4477153 1 1 1s1-.4477153 1-1v-12.1374l17.9354 10.1374-18.9354 10.7026-18.9354-10.7026zm0 22.5722v21.88l-18.949-10.3348 12.445-7.1114c.3142848-.1751703.5102353-.5056764.5131199-.8654697s-.1877416-.6933987-.4991774-.8735856c-.3114357-.1801868-.6956621-.1791728-1.0061425.0026553l-12.5038 7.1446v-21.1464z" fill-rule="nonzero"/></g></svg>