<svg height="60" viewBox="0 0 60 60" width="60" xmlns="http://www.w3.org/2000/svg"><g fill="#04de47" fill-rule="evenodd" transform="translate(11 5)"><path d="m19 2.9056c-.3426.3762-.7438.83-1.1724 1.3272 3.594 4.5154 8.1724 11.493 8.1724 17.7672 0 11.7446-6.3884 18-11 18-.3035728-.001241-.6065286-.0274629-.9058-.0784 1.3462302 1.2384665 3.0796045 1.9728309 4.9058 2.0784 4.6116 0 11-6.2554 11-18 0-8.1614-7.7544-17.5308-11-21.0944z" opacity=".15"/><path d="m19 20c-2.7614237 0-5 2.2385763-5 5s2.2385763 5 5 5 5-2.2385763 5-5-2.2385763-5-5-5zm0 8c-1.6568542 0-3-1.3431458-3-3s1.3431458-3 3-3 3 1.3431458 3 3c-.0018737 1.6560775-1.3439225 2.9981263-3 3z" fill-rule="nonzero"/><circle cx="19" cy="13" r="1"/><path d="m31.8572 21.9234c-1.4008-10.6846-12.8572-21.9234-12.8572-21.9234s-11.4564 11.2388-12.8572 21.9234c-2.4028 2.5466-6.1428 6.7352-6.1428 8.0766 0 2.5 2.5834 20 4 20 1.1878-1.1878 1.329-9.7656 6.0584-11.625.5761075.8221083 1.2259997 1.5899558 1.9416 2.294v5.331c0 1.1045695.8954305 2 2 2h2.1836c.4180155 1.1977265 1.5478238 2.0000554 2.8164 2.0000554s2.3983845-.8023289 2.8164-2.0000554h2.1836c1.1045695 0 2-.8954305 2-2v-5.331c.7156003-.7040442 1.3654925-1.4718917 1.9416-2.294 4.7294 1.8594 4.8706 10.4372 6.0584 11.625 1.4168 0 4-17.5 4-20 0-1.3414-3.74-5.53-6.1428-8.0766zm-27.9068 21.4154c-.87639199-4.35837-1.52652898-8.7591946-1.9478-13.1848 1.14263132-1.8722814 2.49562069-3.6077555 4.0326-5.1726.03449467 4.0687824 1.04375573 8.0700265 2.9432 11.6684-2.5249474 1.4428957-4.34372386 3.8625051-5.028 6.689zm10.0496 2.6612v-3.701c.6286524.422966 1.2987828.7807486 2 1.0678v2.6332zm5 2c-.5520106-.0006612-.9993388-.4479894-1-1v-3.0764c.6627738.1018871 1.3372262.1018871 2 0v3.0764c-.0006612.5520106-.4479894.9993388-1 1zm5-2h-2v-2.6334c.7012172-.2870514 1.3713476-.644834 2-1.0678zm-5-4c-4.6116 0-11-6.2554-11-18 0-8.1614 7.7544-17.5308 11-21.0944 3.2456 3.5636 11 12.933 11 21.0944 0 11.7446-6.3884 18-11 18zm15.0496 1.3388c-.6842761-2.8264949-2.5030526-5.2461043-5.028-6.689 1.8994443-3.5983735 2.9087053-7.5996176 2.9432-11.6684 1.5369398 1.5648792 2.8899255 3.3003485 4.0326 5.1726-.421271 4.4256054-1.071408 8.82643-1.9478 13.1848z" fill-rule="nonzero"/></g></svg>