<svg height="60" viewBox="0 0 60 60" width="60" xmlns="http://www.w3.org/2000/svg"><g fill="#04de47" fill-rule="evenodd" transform="translate(6 8)"><path d="m7 24c-1.30824052-.0150405-2.51880502-.6951304-3.2122-1.8046-.43480589-.6565009-.69904371-1.4110635-.7688-2.1954h7.962c-.0698163.7843543-.3341234 1.5389182-.769 2.1954-.69335679 1.1094103-1.90383084 1.7894917-3.212 1.8046z" opacity=".15"/><path d="m41 24c-1.3082405-.0150405-2.518805-.6951304-3.2122-1.8046-.4348059-.6565009-.6990437-1.4110635-.7688-2.1954h7.9622c-.0698163.7843543-.3341234 1.5389182-.769 2.1954-.693395 1.1094696-1.9039595 1.7895595-3.2122 1.8046z" opacity=".15"/><path d="m30 40c.5522847 0 1-.4477153 1-1s-.4477153-1-1-1h-12c-.5522847 0-1 .4477153-1 1s.4477153 1 1 1z"/><path d="m36 42h-24c-.5522847 0-1 .4477153-1 1s.4477153 1 1 1h24c.5522847 0 1-.4477153 1-1s-.4477153-1-1-1z"/><path d="m46.456 16.8964-4.61-10.8964h2.154c.5522847 0 1-.44771525 1-1s-.4477153-1-1-1h-19v-3c0-.55228475-.4477153-1-1-1s-1 .44771525-1 1v3h-19c-.55228475 0-1 .44771525-1 1s.44771525 1 1 1h2.154l-4.61 10.8964c-.89153259 1.9281835-.77153701 4.1725356.32050825 5.994666 1.09204527 1.8221304 3.01472985 2.9860889 5.13549175 3.108934 2.1207619-.1228451 4.0434465-1.2868036 5.1354917-3.108934 1.0920453-1.8221304 1.2120409-4.0664825.3205083-5.994666l-4.61-10.8964h15.154v29c0 .5522847.4477153 1 1 1s1-.4477153 1-1v-29h15.154l-4.61 10.8964c-.8915326 1.9281835-.771537 4.1725356.3205083 5.994666 1.0920452 1.8221304 3.0147298 2.9860889 5.1354917 3.108934 2.1207619-.1228451 4.0434465-1.2868036 5.1354917-3.108934 1.0920453-1.8221304 1.2120409-4.0664825.3205083-5.994666zm-39.456 7.1036c-1.30824052-.0150405-2.51880502-.6951304-3.2122-1.8046-.43480589-.6565009-.69904371-1.4110635-.7688-2.1954h7.962c-.0698163.7843543-.3341234 1.5389182-.769 2.1954-.69335679 1.1094103-1.90383084 1.7894917-3.212 1.8046zm3.7066-6h-7.4132c.0368-.1074.048-.2188.0926-.3242l3.614-8.5424 3.614 8.5424c.0446.1054.0558.2168.0926.3242zm30.2934-8.8666 3.614 8.5424c.0446.1054.0558.2168.0926.3242h-7.4132c.0368-.1074.048-.2188.0926-.3242zm0 14.8666c-1.3082405-.0150405-2.518805-.6951304-3.2122-1.8046-.4348059-.6565009-.6990437-1.4110635-.7688-2.1954h7.9622c-.0698163.7843543-.3341234 1.5389182-.769 2.1954-.693395 1.1094696-1.9039595 1.7895595-3.2122 1.8046z" fill-rule="nonzero"/></g></svg>