<svg height="60" viewBox="0 0 60 60" width="60" xmlns="http://www.w3.org/2000/svg"><g fill="#04de47" fill-rule="evenodd" transform="translate(4 4)"><circle cx="26" cy="26" opacity=".15" r="13"/><path d="m43.6778 8.3222-1.4218 1.4218c8.1778179 8.2078841 8.9457464 21.2273675 1.7895274 30.3396995-7.1562191 9.1123321-19.9866498 11.4525692-29.8991443 5.4535261-9.91249454-5.9990431-13.79053596-18.45125-9.03711831-29.0177578 4.75341766-10.5665078 16.64380611-15.92517588 27.70853521-12.4874678l.594-1.914c-12.0778351-3.75600186-25.05910668 2.09365406-30.24605988 13.6295618-5.18695319 11.5359078-.94762998 25.1285538 9.87752418 31.670548 10.8251542 6.5419943 24.8302482 3.9750456 32.6315425-5.9809305 7.8012942-9.955976 6.944287-24.1685558-1.9968068-33.1149793z"/><path d="m26 41c-5.8992637-.0016536-11.2497982-3.4609901-13.6724989-8.8398223-2.42270068-5.3788322-1.4676612-11.6782867 2.4404621-16.0973236s10.0435743-6.13702098 15.6782368-4.3900541l.5938-1.9128c-8.2126417-2.55577766-17.0409266 1.4203796-20.5696503 9.2643322-3.52872368 7.8439526-.64764056 17.0877506 6.7128409 21.5377838 7.3604815 4.4500332 16.8845263 2.7061836 22.1907509-4.0631194 5.3062246-6.7693031 4.7251267-16.4342276-1.3539415-22.5189966l-1.42 1.419c4.2925032 4.2870871 5.5783647 10.7384997 3.257544 16.3437196-2.3208208 5.60522-7.7908566 9.2593781-13.857544 9.2572804z"/><path d="m30.9476 21.0528c2.3584449 2.3618251 2.7201928 6.0606966.8640303 8.8347083-1.8561625 2.7740118-5.4133213 3.8506421-8.4962294 2.5715181-3.0829081-1.2791239-4.8330207-4.5577849-4.1801221-7.8310407.6528986-3.2732559 3.5269857-5.6295527 6.8647212-5.6279857.7019701.0096705 1.3983406.1265528 2.065.3466l.5904-1.9024c-.8574484-.2820207-1.7528482-.4318047-2.6554-.4442-4.2936743.0001326-7.9893295 3.0332746-8.8268467 7.2444744-.8375173 4.2111998 1.4163642 8.4275769 5.3832583 10.0705592 3.966894 1.6429823 8.5419627.2549753 10.9272723-3.31517 2.3853095-3.5701453 1.9165163-8.3280914-1.1196839-11.3640636z"/><circle cx="39" cy="5" r="2"/></g></svg>