<svg height="60" viewBox="0 0 60 60" width="60" xmlns="http://www.w3.org/2000/svg"><g fill="#04de47" fill-rule="evenodd" transform="translate(9 7)"><path d="m34 2v14c0 8.4874-10.3744 22-19 22-2.7854536-.1743794-5.44803717-1.2093627-7.62-2.962 3.7714 4.9854 8.9462 8.962 13.62 8.962 8.6256 0 19-13.5126 19-22v-20z" opacity=".15"/><path d="m0 0v22c0 9.25 10.875 24 21 24s21-14.75 21-24v-22zm40 22c0 8.4874-10.3744 22-19 22s-19-13.5126-19-22v-20h38z" fill-rule="nonzero"/><path d="m21 40c.5522847 0 1-.4477153 1-1s-.4477153-1-1-1c-5.9014 0-13-9.2128-13-15v-15h9c.5522847 0 1-.44771525 1-1s-.4477153-1-1-1h-10c-.55228475 0-1 .44771525-1 1v16c0 6.8672 7.9014 17 15 17z"/></g></svg>