<?xml version="1.0" encoding="UTF-8"?>
<svg width="60px" height="60px" viewBox="0 0 60 60" version="1.1" xmlns="http://www.w3.org/2000/svg" xmlns:xlink="http://www.w3.org/1999/xlink">
    <!-- Generator: Sketch 52.4 (67378) - http://www.bohemiancoding.com/sketch -->
    <title>assets/homepage/values_04</title>
    <desc>Created with Sketch.</desc>
    <g id="Page-1" stroke="none" stroke-width="1" fill="none" fill-rule="evenodd">
        <g id="Wunder-Careers-04-Cultures-Mobile" transform="translate(-158.000000, -2085.000000)" fill="#04DE47">
            <g id="Wunder-Values" transform="translate(20.000000, 668.000000)">
                <g id="Impact" transform="translate(0.000000, 1365.000000)">
                    <g id="Group-10-Copy-2">
                        <g id="Impact" transform="translate(75.000000, 52.000000)">
                            <g id="Group-25" transform="translate(63.000000, 0.000000)">
                                <g id="radar" transform="translate(4.000000, 4.000000)">
                                    <circle id="Oval" opacity="0.149999991" cx="26" cy="26" r="13"></circle>
                                    <path d="M43.6778,8.3222 L42.256,9.744 C50.4338179,17.9518841 51.2017464,30.9713675 44.0455274,40.0836995 C36.8893083,49.1960316 24.0588776,51.5362687 14.1463831,45.5372256 C4.23388856,39.5381825 0.355847138,27.0859756 5.10926479,16.5194678 C9.86268245,5.95296 21.7530709,0.594291922 32.8178,4.032 L33.4118,2.118 C21.3339649,-1.63800186 8.35269332,4.21165406 3.16574012,15.7475618 C-2.02121307,27.2834696 2.21811014,40.8761156 13.0432643,47.4181098 C23.8684185,53.9601041 37.8735125,51.3931554 45.6748068,41.4371793 C53.476101,31.4812033 52.6190938,17.2686235 43.678,8.3222 L43.6778,8.3222 Z" id="Path"></path>
                                    <path d="M26,41 C20.1007363,40.9983464 14.7502018,37.5390099 12.3275011,32.1601777 C9.90480042,26.7813455 10.8598399,20.481891 14.7679632,16.0628541 C18.6760865,11.6438172 24.8115375,9.92583312 30.4462,11.6728 L31.04,9.76 C22.8273583,7.20422234 13.9990734,11.1803796 10.4703497,19.0243322 C6.94162602,26.8682848 9.82270914,36.1120828 17.1831906,40.562116 C24.5436721,45.0121492 34.0677169,43.2682996 39.3739415,36.4989966 C44.6801661,29.7296935 44.0990682,20.064769 38.02,13.98 L36.6,15.399 C40.8925032,19.6860871 42.1783647,26.1374997 39.857544,31.7427196 C37.5367232,37.3479396 32.0666874,41.0020977 26,41 Z" id="Path"></path>
                                    <path d="M30.9476,21.0528 C33.3060449,23.4146251 33.6677928,27.1134966 31.8116303,29.8875083 C29.9554678,32.6615201 26.398309,33.7381504 23.3154009,32.4590264 C20.2324928,31.1799025 18.4823802,27.9012415 19.1352788,24.6279857 C19.7881774,21.3547298 22.6622645,18.998433 26,19 C26.7019701,19.0096705 27.3983406,19.1265528 28.065,19.3466 L28.6554,17.4442 C27.7979516,17.1621793 26.9025518,17.0123953 26,17 C21.7063257,17.0001326 18.0106705,20.0332746 17.1731533,24.2444744 C16.335636,28.4556742 18.5895175,32.6720513 22.5564116,34.3150336 C26.5233056,35.9580159 31.0983743,34.5700089 33.4836839,30.9998636 C35.8689934,27.4297183 35.4002002,22.6717722 32.364,19.6358 L30.9476,21.0528 Z" id="Path"></path>
                                    <circle id="Oval" cx="39" cy="5" r="2"></circle>
                                </g>
                            </g>
                        </g>
                    </g>
                </g>
            </g>
        </g>
    </g>
</svg>