<svg viewBox="0 0 597.21 58.43" xmlns="http://www.w3.org/2000/svg"><g fill="#334146"><path d="m42.17 42.35a12.29 12.29 0 0 0 0-17.29l-21.37-21.42a12.19 12.19 0 0 0 -17.24 0 12.26 12.26 0 0 0 0 17.28l21.37 21.43a12.21 12.21 0 0 0 17.24 0zm64.33-38.71a12.21 12.21 0 0 0 -17.24 0l-13 13-13-13a12.21 12.21 0 0 0 -17.26 0 12.27 12.27 0 0 0 0 17.29l21.39 21.42a12.86 12.86 0 0 0 17.74 0l21.37-21.42a12.29 12.29 0 0 0 0-17.29z"/><path d="m126.42 1.7h12.65l6.42 24.87h.19l5.92-24.87h12.47l5.8 24.81h.18l6.42-24.81h12.66l-13.78 44.36h-10.78l-6.55-27h-.12l-6.92 27h-10.78zm62.25 31.68v-17.93h11.1v15.24c0 4.38 1.18 6.19 4 6.19 2.36 0 4.17-1.88 4.17-6.06v-15.37h11.16v30.61h-11.17v-3.24l-.12-.07a10.41 10.41 0 0 1 -8.36 3.94c-6.23 0-10.78-3.37-10.78-13.31zm35.18-17.93h11.15v3.24h.13a11 11 0 0 1 8.6-3.87c6.17 0 10.85 2.81 10.85 12.75v18.49h-11.16v-15.8c0-4.38-1.25-5.57-4-5.57s-4.43 1.82-4.43 6v15.37h-11.14zm56.6-15.38v18.37l-.12.07a10.66 10.66 0 0 0 -8.17-3.69c-7.67 0-13.53 6.5-13.53 15.94s5.8 15.93 14.22 15.93c3.49 0 6.17-1.13 8-3.44h.15v2.81h10.6v-45.99zm-5.17 36.87c-3.12 0-5.43-2.44-5.43-6.18s2.31-6.13 5.43-6.13 5.61 2.5 5.61 6.13-2.37 6.18-5.61 6.18zm51.66-6.43c0-9.19-6.55-15.69-15.34-15.69-9.22 0-15.83 6.69-15.83 15.94 0 9.43 6.85 15.93 16 15.93 7 0 11.59-2.25 14.15-5.37l-6-6.63a9.26 9.26 0 0 1 -6.85 3.19c-3.37 0-5.92-1.44-6.42-4.38h20a25.29 25.29 0 0 0 .29-2.99zm-20.26-3.07a4.73 4.73 0 0 1 4.86-4.12c2.43 0 4.11 1.5 4.61 4.12zm24.5-12h11.16v4.12h.12a10.31 10.31 0 0 1 8.48-4.75h.06v11.95c-.93-.07-1.87-.07-2.37-.07-4.3 0-6.29 2.44-6.29 6v13.37h-11.16zm34.82-13.75h12l11.09 22.06h.13l11-22.06h12v44.36h-11.72v-21.8h-.18l-7.42 13.81h-7.54l-7.42-13.94h-.19v21.93h-11.75zm51 29.05c0-9.43 6.86-15.93 16.77-15.93s16.71 6.5 16.71 15.93-6.92 15.94-16.71 15.94-16.77-6.5-16.77-15.94zm22.26 0c0-3.56-2.25-6.06-5.49-6.06s-5.55 2.5-5.55 6.06 2.37 6.13 5.55 6.13 5.44-2.56 5.44-6.13zm26.05 12.44-.13.06v2.81h-10.58v-45.99h11.16v18.44h.12a10.57 10.57 0 0 1 8.17-3.69c7.66 0 13.52 6.5 13.52 15.93s-5.86 15.94-14.21 15.94c-3.49 0-6.23-1.13-8.1-3.5zm11.09-12.44c0-3.62-2.3-6.12-5.42-6.12-3.3 0-5.67 2.5-5.67 6.12s2.37 6.19 5.67 6.19c3.07 0 5.37-2.44 5.37-6.19zm14.9-24.8c0-3.32 2.68-5.94 6.42-5.94s6.28 2.56 6.28 5.94a6 6 0 0 1 -6.33 6.06 6.08 6.08 0 0 1 -6.42-6.06zm.74 9.49h11.16v30.62h-11.2zm17.09-15.37h11.16v46h-11.16zm16.4 5.88c0-3.32 2.68-5.94 6.47-5.94s6.36 2.56 6.36 5.94-2.67 6.06-6.36 6.06a6.08 6.08 0 0 1 -6.47-6.06zm.74 9.49h11.16v30.62h-11.16zm18.08 21v-12.12h-3.3v-8.88h3.3v-9.62l11.16-1.12v10.74h6.6v8.88h-6.6v9.75c0 1.43.18 3.06 2 3.06a7.41 7.41 0 0 0 2.25-.44l2.74 7.75a16 16 0 0 1 -9 2.25c-5.16 0-9.15-3.25-9.15-10.25zm31.54 7.37-11.66-28.37h11.91l5 14.44h.19l4.86-14.44h11l-15.65 43h-10.83z"/></g></svg>