<svg height="19" viewBox="0 0 35 19" width="35" xmlns="http://www.w3.org/2000/svg"><g fill="#04de47" fill-rule="evenodd"><path d="m25.2952292 13.0291769c-.6738959-.0909077-1.3760834-.1473231-2.0752084-.2069538l-.2512708 2.8976461c.7834167.067377 1.5710625.1302231 2.3264792.2320923l2.6395833-7.27509996c.2854471-.78866698.2156494-1.6626301-.1913333-2.39575385z" opacity=".15"/><path d="m21.5190208 12.6332462c-1.5770416-.111077-3.1685208-.1673462-4.748625-.1673462-1.645 0-3.3104166.0624077-4.97.1857615l-.6951875-10.1018615c-.1210532.14659323-.1802783.33472651-.1650833.5244l.8604167 12.5003923c1.6591458-.1233538 3.325-.1857615 4.97-.1857615 1.58025 0 3.1717291.0562692 4.748625.1673461l1.0816458-12.47613075c.0169362-.21058887-.0574578-.41828463-.2041667-.57z" opacity=".15"/><path d="m7.93420833 13.0725846-2.46458333-6.79147691c-.40669394.73325404-.47617213 1.60721235-.19045833 2.39575385l2.65547916 7.31850766c.7826875-.1100538 1.6016875-.1780154 2.41616667-.2508l-.2008125-2.9021769c-.74695833.0663539-1.49785417.1292-2.21579167.2301923z" opacity=".15"/><path d="m1.04139583 14.6076385c-.39553116.9349964-.40465746 1.9890887-.025375 2.930823 1.78182485-.5724328 3.60403356-1.0099326 5.45125-1.3088077l-.9935625-2.7381923c-1.49995367.2756712-2.98049622.6485121-4.4323125 1.116177z" opacity=".15"/><path d="m27.7595208 13.4370923-.99575 2.7441846c1.9531023.3013326 3.8797335.7551078 5.7623125 1.3571846.379154-.9416578.370028-1.9956092-.025375-2.9305307-1.5519833-.4979025-3.1360585-.8890906-4.7411875-1.1708385z" opacity=".15"/><path d="m31.5409505 9.85442308c-.4590686-.3449148-.9422943-.65629492-1.4459375-.93173077.3826041-1.24689173.186481-2.60005738-.5342833-3.68632706-.7207643-1.08626969-1.8900297-1.79089217-3.1853417-1.91954987-.51625-.05290769-1.0591875-.10727692-1.5976041-.1615.0772018-1.04993285-.6057955-2.0049825-1.6226875-2.26903846-1.8367045-.54957604-3.7391303-.84770308-5.6555625-.88627692-1.9165155.0384687-3.8190387.3364973-5.6558542.88598462-1.0036608.26181485-1.6822707 1.19866109-1.6197708 2.23615384-.65114588.06533077-1.30652088.13153846-1.92820838.19467692-1.32462747.13425458-2.51531639.86808864-3.23253121 1.99224287-.71721482 1.12415422-.88223754 2.51524691-.44801046 3.7765956-.40114078.23185459-.78742866.48861161-1.15660416.76876923-2.10277084 1.65387692-4.43377084 5.32438462-3.0331875 8.30621542.31416494.6697471 1.07856157.9980926 1.77916666.7642384 4.97138981-1.4396614 10.12704085-2.1386449 15.30141665-2.0745077 5.1702555-.0688631 10.3221713.6302269 15.288 2.0745077.7006371.2336927 1.4649556-.094682 1.7791667-.7643846 1.4016042-2.9818308-.9298333-6.6521923-3.0321667-8.30606922zm-6.881-5.24253846c.5435209.05466153 1.0749375.10844615 1.5666875.15886923.8937268.09207942 1.6949895.59249286 2.1712267 1.35599864.4762373.76350578.5741099 1.70458995.2652108 2.55010905l-2.6395833 7.27509996c-.7555625-.1023077-1.5430625-.1645692-2.3264792-.2320923zm-12.4598541-2.30923077.29575-.07512308c1.6257571-.48048193 3.3089408-.73815304 5.0036875-.76599231 1.6945201.02806908 3.3774516.28588663 5.0029583.76643077l.2958958.07526923c.3426734.09396569.5673195.42246451.531125.77666154l-1.0816458 12.4761308c-1.5770417-.111077-3.1685208-.1673462-4.748625-.1673462-1.645 0-3.3104167.0624077-4.97.1857616l-.8604167-12.50039235c-.0338106-.3524478.1907632-.67801158.5317084-.77081539zm-3.75681255 2.4681c.5823125-.05963077 1.2166875-.12379231 1.86666665-.18912308l.7679584 11.16293843c-.8144792.073077-1.63333338.1407462-2.41616671.2508l-2.653875-7.31850766c-.30887711-.84536204-.21112877-1.78628032.26488304-2.54974449.4760118-.76346418 1.27699197-1.26399548 2.17053362-1.3563632zm-6.6985625 12.76770765c-1.01762499-2.1667307.86814584-5.1605461 2.61420834-6.5341.24192586-.1854335.49344936-.3579401.75352083-.5168l2.08352083 5.7420923c-1.84721643.2988751-3.66942515.7363749-5.45125 1.3088077zm31.51006255 0c-1.8825871-.6019779-3.8092182-1.0556552-5.7623125-1.3568923l2.1246458-5.8556538c.354964.2044922.6967872.4310853 1.0234583.6784461 1.7460625 1.3732616 3.6318334 4.367077 2.6142084 6.5341z" fill-rule="nonzero"/></g></svg>