<svg height="35" viewBox="0 0 14 35" width="14" xmlns="http://www.w3.org/2000/svg"><g fill="#04de47" fill-rule="evenodd"><path d="m9.8 31.5c-.0012346 1.1592862-.9407138 2.0987654-2.1 2.1h2.8c1.1592862-.0012346 2.0987654-.9407138 2.1-2.1v-.7h-2.8z" opacity=".15"/><path d="m11.57464 13.96458-3.17464-3.1745v-10.09008h-1.4v10.09008l1.77464 3.17464c.65861781.6550305 1.02783347 1.5463102 1.02536 2.4752v.36008h2.8000123l-.0000123-.36022c.0024735-.9288898-.3667422-1.8201695-1.02536-2.4752z" opacity=".15"/><path d="m9.8 18.20014h2.8v11.2h-2.8z" opacity=".15"/><path d="m12.56444 12.97534-2.76444-2.76444v-8.1109c-.0012346-1.1592862-.9407138-2.0987654-2.1-2.1h-1.4c-1.1592862.0012346-2.0987654.9407138-2.1 2.1v8.1102l-2.76444 2.76514c-.92211439.9169567-1.43904558 2.1647199-1.43556 3.46514v15.05952c.00223731 1.9320691 1.56793086 3.4977627 3.5 3.5h7c1.9320691-.0022373 3.4977627-1.5679309 3.5-3.5v-15.05952c.0034856-1.3004201-.5134456-2.5481833-1.43556-3.46514zm-6.96444 6.461 6.85034 9.96366h-6.85034zm.84966-1.23634h6.15034v8.946zm-.14966-16.8h1.4c.38659932 0 .7.31340068.7.7v2.1h-2.8v-2.1c0-.38659932.31340068-.7.7-.7zm4.2 32.2h-7c-1.1592862-.0012346-2.0987654-.9407138-2.1-2.1v-15.05952c-.00251089-.9289383.36670764-1.8202754 1.02536-2.47534l3.17464-3.17464v-5.1905h2.8v5.1898l3.17464 3.17464c.6588252.6552355 1.028058 1.5468593 1.02536 2.47604v.35952h-7c-.77319865 0-1.4.6268014-1.4 1.4v11.2c0 .7731986.62680135 1.4 1.4 1.4h7v.7c-.0012346 1.1592862-.9407138 2.0987654-2.1 2.1z" fill-rule="nonzero"/></g></svg>