<svg height="35" viewBox="0 0 24 35" width="24" xmlns="http://www.w3.org/2000/svg"><path d="m20.4705882 0c-1.948305.00223731-3.5271556 1.56793086-3.5294117 3.5v4.21778c-.7447366-.56907754-1.6898877-.81531295-2.6205149-.68270942-.9306273.13260352-1.7676291.63277493-2.3206616 1.38676942-.5530325-.75399449-1.3900343-1.2541659-2.32066157-1.38676942-.93062724-.13260353-1.87577833.11363188-2.6205149.68270942v-1.41778c0-1.93299662-1.58017147-3.5-3.52941177-3.5-1.94924029 0-3.52941176 1.56700338-3.52941176 3.5v13.3c.00275806 3.0975819 1.48513819 6.0107343 3.99614118 7.85316l-.03261177.056-1.37647059 2.32484c-.4622857.7773482-.5178493 1.7281564-.14920793 2.5532567.36864138.8251002 1.11616767 1.4230561 2.00737264 1.6057233 2.71567508.5914743 5.4813804.9286291 8.26065887 1.00702 2.3671956-.0394894 4.72149-.3549772 7.0143529-.93996.8635945-.2135037 1.5748768-.8187518 1.9188385-1.6327881.3439616-.8140363.2802334-1.7413211-.1719209-2.5015519l-1.4306823-2.41724-.0326118-.056c2.5108034-1.842279 3.9931596-4.7551247 3.9961412-7.85246v-16.1c-.0022561-1.93206914-1.5811067-3.49776269-3.5294118-3.5zm-5.6470588 8.4c1.1695442 0 2.1176471.94020203 2.1176471 2.1v3.5h-4.2352941v-3.5c0-1.15979797.9481028-2.1 2.117647-2.1zm-5.64705881 0c1.16954421 0 2.11764701.94020203 2.11764701 2.1v3.5h-2.11764701c-.7640269-.0008556-1.50749446.2453933-2.11764706.7014v-4.2014c0-1.15979797.94810288-2.1 2.11764706-2.1zm11.07331761 22.23452c.2266446.3795649.2592272.8429769.0878922 1.2500595s-.5264632.7100211-.9579628.8171805c-2.1816174.5567797-4.4214889.8582468-6.6738352.89824-2.6835946-.0808984-5.35384606-.4083598-7.97647064-.97818-.44525948-.0915627-.81851175-.3907442-1.002153-.8032788-.18364124-.4125347-.15505894-.8876254.07674124-1.2755812l1.37717647-2.32484c.32284737.171933.65528953.3255275.99571765.46004.1008.04102.20442353.07448.30677647.112.24663529.0896.49651765.17164.75190588.24206.12254118.03416.24536471.06566.36974118.09436.25623529.0609.5165647.10864.78.1484.11562353.01778.22955294.03962.34644706.05264.38178862.0462421.76596761.0704096 1.15058823.07238h4.23529416c.3847647-.0020006.7690856-.0262149 1.1510117-.07252.1168941-.01302.2308236-.03486.3464471-.05264.2634353-.03962.5237647-.0875.78-.1484.1243765-.0287.2472-.0602.3697412-.09436.2553882-.07.5052705-.15246.7519058-.24206.102353-.03766.2061177-.07112.3067765-.112.3404281-.1345125.6728703-.288107.9957177-.46004zm2.3384471-11.03452c.0001529 3.0547526-1.6727892 5.8685451-4.3682824 7.3472l-.0751058.04032c-1.2404394.6545693-2.6221132 1.0019365-4.0272 1.01248h-4.23529416c-1.43430935-.0081983-2.84404865-.3699884-4.10230588-1.0528-2.69549313-1.4786549-4.36843524-4.2924474-4.36828235-7.3472v-13.3c.00000003-1.15979795.9481029-2.09999994 2.11764705-2.09999994 1.16954416 0 2.11764703.94020199 2.11764706 2.09999994v11.2c.00225611 1.9320691 1.58110675 3.4977627 3.52941177 3.5h7.05882351c.3898481 0 .7058824-.3134007.7058824-.7s-.3160343-.7-.7058824-.7h-7.05882351c-1.16954415 0-2.117647-.940202-2.117647-2.1s.94810285-2.1 2.117647-2.1h12.00000001c.7796961 0 1.4117647.6268014 1.4117647 1.4zm-4.2352941-5.6v-10.5c0-1.15979797.9481029-2.1 2.117647-2.1 1.1695442 0 2.1176471.94020203 2.1176471 2.1v10.5z" fill="#04de47" fill-rule="evenodd"/></svg>