<svg height="31" viewBox="0 0 31 31" width="31" xmlns="http://www.w3.org/2000/svg"><g fill="#04de47"><path d="m28.4570312 10.8985206h-8.5155868c.0269623-.2987159.041626-.6012161.041626-.90702746 0-5.5093346-4.4823609-9.99149314-9.99165348-9.99149314-1.75491333 0-3.48120876.46167344-4.99227906 1.33487957-.28948974.16721473-.3885879.53759411-.22137451.82708607.16744995.28972851.53782657.38859093.82731632.2213762 1.32706453-.76701179 2.84381103-1.1723951 4.38633725-1.1723951 4.84162138 0 8.78071598 3.93888811 8.78071598 8.7805464 0 4.84165836-3.9390946 8.78078296-8.78071598 8.78078296-2.02666472 0-3.93058016-.6714605-5.50598145-1.9415355-.1579895-.127244-.36730193-.1653226-.55792995-.1069039l-1.60709382.4202837.62959286-1.3836013c.09058382-.198671.0669327-.4304537-.06149292-.6071289-1.09741211-1.5072976-1.67757414-3.2922615-1.67757414-5.16189706 0-1.54655875.40750887-3.06710104 1.17853548-4.39701378.16768644-.28949196.06906128-.6598714-.22019197-.82755913-.28925325-.16768772-.65962981-.0692983-.82755281.22019365-.8776932 1.51415642-1.3417282 3.24472228-1.3417282 5.00437926 0 2.00775916.58820345 3.93037366 1.70453645 5.58241716l-1.01368716 2.2272432c-.09696957.2126253-.06267546.46191.08774568.6407139.15042114.1788038.39024356.254961.61634824.1958327l2.57489778-.673116c1.72605899 1.3038963 3.85205842 2.0186387 6.02157593 2.0186387.47231288 0 .93658448-.0338213 1.39139558-.0974433v5.3019127c0 1.4020492 1.1406937 2.5429881 2.5427323 2.5429881h8.5633621l3.8288803 3.1326151c.1102142.090348.2462082.1367046.3833847.1367046.0882186 0 .1766739-.0191575.2592163-.0581822.2114411-.1002816.3462524-.3131433.3462524-.5472912v-2.6638463h1.1503906c1.4022751 0 2.5429688-1.1409389 2.5429688-2.5429881v-11.7461834c0-1.4022858-1.1406937-2.5429882-2.5429688-2.5429882zm1.3320313 14.2891716c0 .7343729-.5974274 1.3320414-1.3320312 1.3320414h-1.7558594c-.3344269 0-.6054688.2710439-.6054688.6054733v1.9916763l-2.990448-2.4467273c-.1648483-.1504223-.3091202-.1504223-.633377-.1504223h-8.5463333c-.7343674 0-1.3317948-.5976685-1.3317948-1.3320414v-5.5490689c3.5814896-.9671018 6.371849-3.8795233 7.1625061-7.5291559h8.7007752c.7346038 0 1.3320312.5974319 1.3320312 1.3320414z"/><path d="m24.1785989 21.3373037c.2165931-.1027658.3668108-.3241266.3668108-.5814179 0-.3550317-.2859627-.643228-.6387997-.643228h-.2615086l-2.0601289-4.727726c-.1020582-.2339239-.3316269-.3849318-.5851505-.3849318s-.4830922.1510079-.5849009.3849318l-2.0601289 4.727726h-.2615086c-.3528371 0-.6387997.2881963-.6387997.643228 0 .2572913.1502177.4786521.3668108.5814179l-.7673082 1.7608368c-.1417337.3253828.0052401.7047869.3281334.8475031.3231427.1427162.6999348-.0052764.8416684-.3306594l.9656854-2.2158703h3.6209461l.9656855 2.2158703c.1050526.2412105.3393623.3849318.5853999.3849318.0855892 0 .1726756-.017337.2562685-.0542724.3228932-.1427162.4701166-.5221203.3281334-.8475031zm-4.4286782-1.2246459 1.2499013-2.868395 1.2499014 2.868395z"/><path d="m3.5 4c.1314453 0 .26035155-.05351565.3535156-.1464844.09296875-.09296875.1464844-.221875.1464844-.3535156 0-.13144535-.05351565-.2603516-.1464844-.35351565-.09316405-.09296875-.2220703-.14648435-.3535156-.14648435-.13203125 0-.2605469.0535156-.35351565.14648435-.09296875.09316405-.14648435.2220703-.14648435.35351565 0 .1316406.0535156.26054685.14648435.3535156.09296875.09316405.221875.1464844.35351565.1464844z"/><path d="m6.32024971 13.821192c-.2985981.1667893-.4079235.5484425-.24417615.8525877.11221505.2082414.32340095.3262203.54108859.3262203.10017484 0 .20179455-.0250184.29594922-.077508 1.3747553-.7679666 2.43237048-1.9624724 3.05099828-3.3711062.61886865 1.4086338 1.67624295 2.6031396 3.05099825 3.3711062.0941547.0524896.1957744.077508.2959493.077508.2176876 0 .4288735-.1179789.5410886-.3262203.1637473-.3041452.0544219-.6857984-.2441762-.8525877-1.6092992-.8989453-2.6924397-2.5055187-2.9614189-4.3208241h2.7369887c.3404982 0 .6164606-.281089.6164606-.62791268 0-.34682361-.2759624-.62791267-.6164606-.62791267h-2.8029692v-2.61662987c0-.34682361-.2759624-.62791268-.61646055-.62791268-.34049817 0-.61646057.28108907-.61646057.62791268v2.61662987h-2.22696384c-.34049818 0-.61646058.28108906-.61646058.62791267 0 .34682368.2759624.62791268.61646058.62791268h2.16098332c-.26897913 1.8153054-1.3521196 3.4221241-2.96141885 4.3208241z"/></g></svg>