<svg height="20" viewBox="0 0 35 20" width="35" xmlns="http://www.w3.org/2000/svg"><g fill="#04de47" fill-rule="evenodd"><path d="m26.502 13.8896552c.0621341.1918676.0951573.3917263.098.5931034 0 .5487238-.2212494 1.0749733-.6150758 1.4629796s-.9279696.6059859-1.4849242.6059859c-.2043978-.0028007-.4072543-.0353358-.602-.0965517.2854192.946414 1.2113512 1.560994 2.2088267 1.4660911s1.7869293-.87269 1.8832557-1.8554244c.0963265-.9827345-.5274722-1.8949827-1.4880824-2.1761839z" opacity=".15"/><path d="m8.204 13.8896552c.06213414.1918676.09515729.3917263.098.5931034 0 1.1426581-.94020203 2.0689655-2.1 2.0689655-.20439778-.0028007-.40725432-.0353358-.602-.0965517.28541921.946414 1.21135119 1.560994 2.20882667 1.4660911s1.78692934-.87269 1.88325577-1.8554244c.09632644-.9827345-.52747222-1.8949827-1.48808244-2.1761839z" opacity=".15"/><path d="m1.4 5.517241h19.6v1.37931h-19.6z" opacity=".15"/><path d="m28 13.793103h5.6v1.37931h-5.6z" opacity=".15"/><path d="m1.4 13.793103h4.2v1.37931h-4.2z" opacity=".15"/><path d="m9.8 13.793103h14v1.37931h-14z" opacity=".15"/><path d="m34.50566 9.09586207c-1.204-1.39544828-4.242-5.12386207-4.95488-7.98262069-.1394774-.64016249-.7081031-1.1013574-1.37256-1.11324138h-26.07822c-1.15979797 0-2.1.92630741-2.1 2.06896552v12.41379308c0 1.1426581.94020203 2.0689655 2.1 2.0689655h2.17c.33233277 1.605839 1.76597809 2.7593662 3.42944 2.7593662s3.0971072-1.1535272 3.42944-2.7593662h11.34112c.3323328 1.605839 1.7659781 2.7593662 3.42944 2.7593662s3.0971072-1.1535272 3.42944-2.7593662h3.57112c1.159798 0 2.1-.9263074 2.1-2.0689655v-4.0544827c.0016385-.48798405-.1736706-.96050129-.49434-1.33241383zm-19.10566-2.19931035v-5.51724138h5.6v5.51724138zm-7 0v-5.51724138h5.6v5.51724138zm-6.3-5.51724138h4.9v5.51724138h-5.6v-4.8275862c.00053979-.38066553.31362449-.68912336.7-.68965518zm5.6 16.55172416c-1.15979797 0-2.1-.9263074-2.1-2.0689655s.94020203-2.0689656 2.1-2.0689656 2.1.9263075 2.1 2.0689656c-.0012346 1.1421539-.9407138 2.0677491-2.1 2.0689655zm18.2 0c-1.159798 0-2.1-.9263074-2.1-2.0689655s.940202-2.0689656 2.1-2.0689656 2.1.9263075 2.1 2.0689656c-.0012346 1.1421539-.9407138 2.0677491-2.1 2.0689655zm7.7-3.4482759c-.0005398.3806656-.3136245.6891234-.7.6896552h-3.57c-.3312347-1.60712-1.7654829-2.7620776-3.43-2.7620776s-3.0987653 1.1549576-3.43 2.7620776h-11.34084c-.3320588-1.6061588-1.76585469-2.760043-3.42958-2.760043s-3.09752116 1.1538842-3.42958 2.760043h-2.17c-.38637551-.0005318-.69946021-.3089896-.7-.6896552v-6.20689653h27.3c.3865993 0 .7-.30876914.7-.68965517 0-.38088604-.3134007-.68965518-.7-.68965518h-6.3v-5.51724138h5.76198c.0143966.01861934.0244362.04014465.0294.06303449.75124 3.01489655 3.61046 6.64910345 5.24776 8.54689655.1054048.12255812.162506.27840422.16086.43903452z" fill-rule="nonzero"/><path d="m18.9 11.0344828h-4.2c-.3865993 0-.7.3087691-.7.6896551 0 .3808861.3134007.6896552.7.6896552h4.2c.3865993 0 .7-.3087691.7-.6896552 0-.380886-.3134007-.6896551-.7-.6896551z"/></g></svg>