<svg height="33" viewBox="0 0 35 33" width="35" xmlns="http://www.w3.org/2000/svg"><g fill="#04de47" fill-rule="evenodd"><path d="m22.95048 29.8h-17.35048v.7c0 .38584.48846.7 1.08892.7h18.51108v-1.4z" opacity=".15"/><path d="m27.95394 11.63262v17.46738c-.0004629.3864074-.3135926.6995371-.7.7h-.65394v1.4h2.1c.3864074-.0004629.6995371-.3135926.7-.7v-17.5h.04606z" opacity=".15"/><circle cx="17.5" cy="10.90028" opacity=".15" r="2.1"/><path d="m34.77292 15.98382-16.8-15.4c-.2678981-.24472358-.6782219-.24472358-.94612 0l-16.8 15.4c-.28503966.2612638-.30431379.7041303-.04304998.98917.26126382.2850397.7041303.3043138.98916998.04305l3.02708-2.77466v16.25862c0 1.159798.94020203 2.1 2.1 2.1h22.4c1.159798 0 2.1-.940202 2.1-2.1v-16.25862l3.0268 2.77466c.1843883.1690081.4449349.226808.6834944.151627.2385594-.075181.4188889-.271921.47306-.51611s-.026046-.4987289-.2104344-.667737zm-15.17292 15.21618v-9.8h5.6v9.8zm9.8-18.2v17.5c-.0004629.3864074-.3135926.6995371-.7.7h-2.1v-9.8c0-.7731986-.6268014-1.4-1.4-1.4h-5.6c-.7731986 0-1.4.6268014-1.4 1.4v9.8h-11.9c-.38640744-.0004629-.69953714-.3135926-.7-.7v-17.5h-.0462l11.9462-10.95052 11.94606 10.95052z" fill-rule="nonzero"/><path d="m14.7 20h-5.6c-.38659932 0-.7.3134007-.7.7s.31340068.7.7.7h5.6c.3865993 0 .7-.3134007.7-.7s-.3134007-.7-.7-.7z"/><path d="m14.7 24.2h-5.6c-.38659932 0-.7.3134007-.7.7s.31340068.7.7.7h5.6c.3865993 0 .7-.3134007.7-.7s-.3134007-.7-.7-.7z"/><path d="m14 10.9c0 1.9329966 1.5670034 3.5 3.5 3.5s3.5-1.5670034 3.5-3.5c0-1.93299662-1.5670034-3.5-3.5-3.5s-3.5 1.56700338-3.5 3.5zm3.5-2.1c1.159798 0 2.1.94020203 2.1 2.1 0 1.159798-.940202 2.1-2.1 2.1s-2.1-.940202-2.1-2.1c.0013116-1.15925426.9407457-2.09868841 2.1-2.1z" fill-rule="nonzero"/></g></svg>