<svg width="64" height="64" viewBox="0 0 64 64" fill="none" xmlns="http://www.w3.org/2000/svg">
<path opacity="0.2" d="M48.3834 43.7754C48.3834 44.0314 48.6394 44.5434 48.6394 44.7994C48.6394 46.8474 46.8474 48.6394 44.7994 48.6394C44.5434 48.6394 44.0314 48.6394 43.7754 48.3834C44.2874 50.4314 46.5914 51.4554 48.6394 50.9434C50.6874 50.4314 51.7114 48.1274 51.1994 46.0794C50.6874 45.0554 49.6634 44.0314 48.3834 43.7754Z" fill="#E11668"/>
<path opacity="0.2" d="M15.1041 43.7754C15.1041 44.0314 15.3601 44.5434 15.3601 44.7994C15.3601 46.8474 13.5681 48.6394 11.5201 48.6394C11.2641 48.6394 10.7521 48.6394 10.4961 48.3834C11.0081 50.4314 13.3121 51.4554 15.3601 50.9434C17.4081 50.4314 18.4321 48.1274 17.9201 46.0794C17.1521 45.0554 16.1281 44.0314 15.1041 43.7754Z" fill="#E11668"/>
<path opacity="0.2" d="M38.4005 28.1602H2.56055V30.7202H38.4005V28.1602Z" fill="#E11668"/>
<path opacity="0.2" d="M61.4392 43.5195H51.1992V46.0795H61.4392V43.5195Z" fill="#E11668"/>
<path opacity="0.2" d="M10.2405 43.5195H2.56055V46.0795H10.2405V43.5195Z" fill="#E11668"/>
<path opacity="0.2" d="M43.5199 43.5195H17.9199V46.0795H43.5199V43.5195Z" fill="#E11668"/>
<path d="M62.976 34.8159C60.672 32.2559 55.296 25.3439 54.016 19.9679C53.76 18.6879 52.736 17.9199 51.456 17.9199H3.84C1.792 17.9199 0 19.7119 0 21.7599V44.7999C0 46.8479 1.792 48.6399 3.84 48.6399H7.68C8.448 52.2239 11.776 54.2719 15.104 53.7599C17.664 53.2479 19.456 51.1999 20.224 48.6399H40.96C41.728 52.2239 45.056 54.2719 48.384 53.7599C50.944 53.2479 52.736 51.1999 53.504 48.6399H60.16C62.208 48.6399 64 46.8479 64 44.7999V37.3759C64 36.3519 63.744 35.5839 62.976 34.8159ZM28.16 30.7199V20.4799H38.4V30.7199H28.16ZM15.36 30.7199V20.4799H25.6V30.7199H15.36ZM3.84 20.4799H12.8V30.7199H2.56V21.7599C2.56 20.9919 3.072 20.4799 3.84 20.4799ZM14.08 51.1999C12.032 51.1999 10.24 49.4079 10.24 47.3599C10.24 45.3119 12.032 43.5199 14.08 43.5199C16.128 43.5199 17.92 45.3119 17.92 47.3599C17.92 49.4079 16.128 51.1999 14.08 51.1999ZM47.36 51.1999C45.312 51.1999 43.52 49.4079 43.52 47.3599C43.52 45.3119 45.312 43.5199 47.36 43.5199C49.408 43.5199 51.2 45.3119 51.2 47.3599C51.2 49.4079 49.408 51.1999 47.36 51.1999ZM61.44 44.7999C61.44 45.5679 60.928 46.0799 60.16 46.0799H53.76C52.992 42.4959 49.664 40.4479 46.336 40.9599C43.776 41.4719 41.728 43.5199 41.216 46.0799H20.224C19.456 42.4959 16.128 40.4479 12.8 40.9599C10.24 41.4719 8.192 43.5199 7.68 46.0799H3.84C3.072 46.0799 2.56 45.5679 2.56 44.7999V33.2799H52.48C53.248 33.2799 53.76 32.7679 53.76 31.9999C53.76 31.2319 53.248 30.7199 52.48 30.7199H40.96V20.4799H51.456C52.736 26.1119 58.112 32.7679 60.928 36.3519C61.184 36.6079 61.184 36.8639 61.184 37.1199V44.7999H61.44Z" fill="#E11668"/>
<path d="M34.5596 38.4004H26.8796C26.1116 38.4004 25.5996 38.9124 25.5996 39.6804C25.5996 40.4484 26.1116 40.9604 26.8796 40.9604H34.5596C35.3276 40.9604 35.8396 40.4484 35.8396 39.6804C35.8396 38.9124 35.3276 38.4004 34.5596 38.4004Z" fill="#E11668"/>
</svg>
