<svg width="64" height="64" viewBox="0 0 64 64" fill="none" xmlns="http://www.w3.org/2000/svg">
<g clip-path="url(#clip0)">
<path opacity="0.2" d="M2.55859 38.4003C2.55859 35.5843 4.35059 33.2803 6.39859 33.2803C8.44659 33.2803 10.2386 35.5843 10.2386 38.4003C10.2386 41.2163 8.44659 43.5203 6.39859 43.5203C4.35059 43.5203 2.55859 41.2163 2.55859 38.4003Z" fill="#E11668"/>
<path opacity="0.2" d="M49.9201 10.2402C50.6881 10.2402 51.2001 10.7522 51.2001 11.5202V31.2322L48.6401 28.9282C47.8721 28.4162 47.1041 28.1602 46.0801 28.1602V10.2402H49.9201Z" fill="#E11668"/>
<path opacity="0.2" d="M17.9199 61.4402V11.5202C17.9199 10.7522 18.4319 10.2402 19.1999 10.2402H23.0399V61.4402H17.9199Z" fill="#E11668"/>
<path opacity="0.2" d="M51.199 48.6396H40.959V61.4396H51.199V48.6396Z" fill="#E11668"/>
<path d="M62.72 61.44H61.44V41.472C61.44 40.448 60.928 39.168 60.16 38.4L53.76 33.28V11.52C53.76 9.472 51.968 7.68 49.92 7.68H46.08V3.84C46.08 1.792 44.288 0 42.24 0H26.88C24.832 0 23.04 1.792 23.04 3.84V7.68H19.2C17.152 7.68 15.36 9.472 15.36 11.52V61.44H7.68003V45.824C11.008 44.8 13.056 41.728 12.8 38.4C13.056 34.56 10.24 31.232 6.40003 30.72C2.56003 31.232 -0.255972 34.56 2.78763e-05 38.4C-0.255972 41.728 1.79203 44.8 5.12003 45.824V61.44H1.28003C0.512028 61.44 2.78763e-05 61.952 2.78763e-05 62.72C2.78763e-05 63.488 0.512028 64 1.28003 64H62.72C63.488 64 64 63.488 64 62.72C64 61.952 63.488 61.44 62.72 61.44ZM2.56003 38.4C2.56003 35.584 4.35203 33.28 6.40003 33.28C8.44803 33.28 10.24 35.584 10.24 38.4C10.24 41.216 8.44803 43.52 6.40003 43.52C4.35203 43.52 2.56003 41.216 2.56003 38.4ZM49.92 10.24C50.688 10.24 51.2 10.752 51.2 11.52V31.232L48.64 28.928C47.872 28.416 47.104 28.16 46.08 28.16V10.24H49.92ZM25.6 3.84C25.6 3.072 26.112 2.56 26.88 2.56H42.24C43.008 2.56 43.52 3.072 43.52 3.84V29.184L32 38.656C31.232 39.424 30.72 40.448 30.72 41.728V61.44H25.6V3.84ZM17.92 61.44V11.52C17.92 10.752 18.432 10.24 19.2 10.24H23.04V61.44H17.92ZM40.96 61.44V48.64H51.2V61.44H40.96ZM53.76 61.44V48.64C53.76 47.104 52.736 46.08 51.2 46.08H40.96C39.424 46.08 38.4 47.104 38.4 48.64V61.44H33.28V41.472C33.28 41.216 33.536 40.704 33.792 40.448L45.312 30.72C45.824 30.208 46.592 30.208 46.848 30.72L58.368 40.448C58.624 40.704 58.88 40.96 58.88 41.472V61.44H53.76Z" fill="#E11668"/>
<path d="M31.9988 12.8002H37.1188C37.8868 12.8002 38.3988 12.2882 38.3988 11.5202C38.3988 10.7522 37.8868 10.2402 37.1188 10.2402H31.9988C31.2308 10.2402 30.7188 10.7522 30.7188 11.5202C30.7188 12.2882 31.2308 12.8002 31.9988 12.8002Z" fill="#E11668"/>
<path d="M31.9988 20.4799H37.1188C37.8868 20.4799 38.3988 19.9679 38.3988 19.1999C38.3988 18.4319 37.8868 17.9199 37.1188 17.9199H31.9988C31.2308 17.9199 30.7188 18.4319 30.7188 19.1999C30.7188 19.9679 31.2308 20.4799 31.9988 20.4799Z" fill="#E11668"/>
<path d="M31.9988 28.1596H37.1188C37.8868 28.1596 38.3988 27.6476 38.3988 26.8796C38.3988 26.1116 37.8868 25.5996 37.1188 25.5996H31.9988C31.2308 25.5996 30.7188 26.1116 30.7188 26.8796C30.7188 27.6476 31.2308 28.1596 31.9988 28.1596Z" fill="#E11668"/>
</g>
<defs>
<clipPath id="clip0">
<rect width="64" height="64" fill="white"/>
</clipPath>
</defs>
</svg>
