<svg width="64" height="64" viewBox="0 0 64 64" fill="none" xmlns="http://www.w3.org/2000/svg">
<path opacity="0.2" d="M31.9994 12.7998H30.7194V21.7598C30.7194 22.5278 30.2074 23.0398 29.4394 23.0398H15.3594V24.3198C15.3594 25.0878 15.8714 25.5998 16.6394 25.5998H31.9994C32.7674 25.5998 33.2794 25.0878 33.2794 24.3198V14.0798C33.2794 13.3118 32.7674 12.7998 31.9994 12.7998Z" fill="#E11668"/>
<path opacity="0.2" d="M35.8397 5.12012C37.6317 7.42412 38.3997 9.98412 38.3997 12.8001V58.8801H7.67969V61.4401H40.9597V15.3601C40.9597 11.2641 38.9117 7.68012 35.8397 5.12012Z" fill="#E11668"/>
<path d="M32.0008 10.2402H16.6408C14.5928 10.2402 12.8008 12.0322 12.8008 14.0802V24.3202C12.8008 26.3682 14.5928 28.1602 16.6408 28.1602H32.0008C34.0488 28.1602 35.8408 26.3682 35.8408 24.3202V14.0802C35.8408 12.0322 34.0488 10.2402 32.0008 10.2402ZM33.2808 24.3202C33.2808 25.0882 32.7688 25.6002 32.0008 25.6002H16.6408C15.8728 25.6002 15.3608 25.0882 15.3608 24.3202V14.0802C15.3608 13.3122 15.8728 12.8002 16.6408 12.8002H32.0008C32.7688 12.8002 33.2808 13.3122 33.2808 14.0802V24.3202Z" fill="#E11668"/>
<path d="M62.72 15.36H58.88C56.064 15.36 53.76 17.664 53.76 20.48V40.96C53.76 42.496 52.736 43.52 51.2 43.52C49.664 43.52 48.64 42.496 48.64 40.96V33.28C48.64 31.232 46.848 29.44 44.8 29.44H43.52V15.36C43.52 6.912 36.608 0 28.16 0H20.48C12.032 0 5.12 6.912 5.12 15.36V61.44H1.28C0.512 61.44 0 61.952 0 62.72C0 63.488 0.512 64 1.28 64H47.36C48.128 64 48.64 63.488 48.64 62.72C48.64 61.952 48.128 61.44 47.36 61.44H43.52V32H44.8C45.568 32 46.08 32.512 46.08 33.28V40.96C46.08 43.776 48.384 46.08 51.2 46.08C54.016 46.08 56.32 43.776 56.32 40.96V20.48C56.32 18.944 57.344 17.92 58.88 17.92H62.72C63.488 17.92 64 17.408 64 16.64C64 15.872 63.488 15.36 62.72 15.36ZM7.68 61.44V15.36C7.68 8.192 13.312 2.56 20.48 2.56H28.16C35.328 2.56 40.96 8.192 40.96 15.36V61.44H7.68Z" fill="#E11668"/>
<path d="M29.4376 43.5199H21.7576L27.9016 35.3279C28.4136 34.8159 28.1576 34.0479 27.6456 33.5359C27.1336 33.0239 26.3656 33.2799 25.8536 33.7919L18.1736 44.0319C17.6616 44.5439 17.9176 45.3119 18.4296 45.8239C18.6856 46.0799 18.9416 46.0799 19.1976 46.0799H26.8776L20.7336 54.2719C20.2216 54.7839 20.4776 55.5519 20.9896 56.0639C21.5016 56.5759 22.2696 56.3199 22.7816 55.8079L30.4616 45.5679C30.9736 45.0559 30.7176 44.2879 30.2056 43.7759C29.9496 43.5199 29.6936 43.5199 29.4376 43.5199Z" fill="#E11668"/>
</svg>
