<svg width="64" height="64" viewBox="0 0 64 64" fill="none" xmlns="http://www.w3.org/2000/svg">
<path d="M57.5988 46.0801H31.9988C31.2308 46.0801 30.7188 46.5921 30.7188 47.3601C30.7188 48.1281 31.2308 48.6401 31.9988 48.6401H57.5988C58.3668 48.6401 58.8788 48.1281 58.8788 47.3601C58.8788 46.5921 58.3668 46.0801 57.5988 46.0801Z" fill="#E11668"/>
<path d="M37.1198 10.2397C37.8268 10.2397 38.3998 9.66661 38.3998 8.95969C38.3998 8.25276 37.8268 7.67969 37.1198 7.67969C36.4129 7.67969 35.8398 8.25276 35.8398 8.95969C35.8398 9.66661 36.4129 10.2397 37.1198 10.2397Z" fill="#E11668"/>
<path d="M42.2409 10.2397H57.6009C58.3689 10.2397 58.8809 9.72769 58.8809 8.95969C58.8809 8.19169 58.3689 7.67969 57.6009 7.67969H42.2409C41.4729 7.67969 40.9609 8.19169 40.9609 8.95969C40.9609 9.72769 41.4729 10.2397 42.2409 10.2397Z" fill="#E11668"/>
<path d="M16.6394 10.2397H31.9994C32.7674 10.2397 33.2794 9.72769 33.2794 8.95969C33.2794 8.19169 32.7674 7.67969 31.9994 7.67969H16.6394C15.8714 7.67969 15.3594 8.19169 15.3594 8.95969C15.3594 9.72769 15.8714 10.2397 16.6394 10.2397Z" fill="#E11668"/>
<path d="M40.96 12.7998H32.256C29.696 12.7998 27.136 13.8238 25.344 15.3598C23.04 17.6638 19.712 20.4798 17.92 20.4798H7.68C7.68 18.9438 6.656 17.9198 5.12 17.9198H2.56C1.024 17.9198 0 18.9438 0 20.4798V30.7198C0 32.2558 1.024 33.2798 2.56 33.2798H5.12L10.24 28.1598H18.944C20.992 28.1598 22.784 29.1838 23.552 30.9758C26.112 36.0958 35.072 40.9598 38.144 40.9598H56.064C61.696 40.9598 63.744 34.5598 63.744 30.7198C64 23.2958 53.504 12.7998 40.96 12.7998ZM61.44 30.7198H49.92C43.52 30.7198 38.4 25.5998 38.4 19.1998V15.3598H40.96C52.224 15.3598 61.44 24.5758 61.44 30.7198ZM56.32 38.3998H38.4C33.28 37.1198 28.928 34.0478 26.112 29.6958C24.832 27.1358 22.016 25.5998 19.2 25.5998H10.24C9.472 25.5998 8.96 25.8558 8.448 26.3678L4.096 30.7198H2.56V20.4798H5.12C5.12 22.0158 6.144 23.0398 7.68 23.0398H17.92C19.456 23.0398 21.76 22.2718 27.136 17.4078C28.416 16.1278 30.464 15.3598 32.256 15.3598H35.84V19.1998C35.84 26.8798 42.24 33.2798 49.92 33.2798H61.184C60.416 35.8398 59.136 38.3998 56.32 38.3998Z" fill="#E11668"/>
<path opacity="0.2" d="M49.9184 30.7199H58.3664C56.3184 24.8319 48.1264 17.9199 38.3984 17.9199V19.1999C38.3984 25.5999 43.5184 30.7199 49.9184 30.7199Z" fill="#E11668"/>
</svg>
