<svg width="64" height="64" viewBox="0 0 64 64" fill="none" xmlns="http://www.w3.org/2000/svg">
<path opacity="0.2" d="M2.56055 29.4395L17.6645 31.9995H17.9205V34.5595L2.81655 31.9995H2.56055V29.4395Z" fill="#E11668"/>
<path opacity="0.2" d="M46.0801 31.9995C46.0801 31.9995 46.3361 31.9995 46.0801 31.9995L61.4401 29.4395V31.9995H61.1841L46.0801 34.5595V31.9995Z" fill="#E11668"/>
<path opacity="0.2" d="M35.8402 40.9595H28.1602V24.3195C28.1602 22.2715 29.9522 20.4795 32.0002 20.4795C34.0482 20.4795 35.8402 22.2715 35.8402 24.3195V40.9595Z" fill="#E11668"/>
<path d="M60.16 20.9916C59.904 20.9916 59.904 20.9916 59.648 20.9916L46.848 22.5276C45.056 22.7836 43.52 24.5756 43.52 26.3676V33.2796H38.4V24.3196C38.4 21.2476 36.352 18.6876 33.28 18.1756V15.1036C36.352 14.5916 38.4 11.7756 38.4 8.95957V3.83957C38.4 3.07157 37.888 2.55957 37.12 2.55957H26.88C26.112 2.55957 25.6 3.07157 25.6 3.83957V8.95957C25.6 12.0316 27.648 14.5916 30.72 15.1036V17.9196C27.648 18.4316 25.6 21.2476 25.6 24.0636V33.2796H20.48V26.3676C20.48 24.3196 18.944 22.7836 17.152 22.5276L4.352 20.9916C4.096 20.9916 4.096 20.9916 3.84 20.9916C1.792 20.9916 0 22.7836 0 24.8316V37.6316C0 39.6796 1.536 41.2156 3.328 41.4716L16.128 43.0076C16.384 43.0076 16.384 43.0076 16.64 43.0076C18.688 43.0076 20.48 41.2156 20.48 39.1676V35.8396H25.6V48.6396C25.6 50.1756 26.624 51.1996 28.16 51.1996H35.84C37.376 51.1996 38.4 50.1756 38.4 48.6396V35.8396H43.52V39.1676C43.52 41.2156 45.312 43.0076 47.36 43.0076C47.616 43.0076 47.616 43.0076 47.872 43.0076L60.672 41.4716C62.72 41.2156 64 39.6796 64 37.6316V24.8316C64 22.7836 62.208 20.9916 60.16 20.9916ZM2.56 29.4396L17.664 31.9996H17.92V34.5596L2.816 31.9996H2.56V29.4396ZM3.84 23.5516L16.896 25.0876C17.664 25.0876 17.92 25.5996 17.92 26.3676V29.4396L2.816 26.8796H2.56V24.8316C2.56 24.0636 3.072 23.5516 3.84 23.5516ZM16.64 40.4476L3.584 38.9116C3.072 38.9116 2.56 38.3996 2.56 37.6316V34.5596L17.664 37.1196H17.92V39.1676C17.92 39.9356 17.408 40.4476 16.64 40.4476ZM28.16 8.95957V5.11957H35.84V8.95957C35.84 11.0076 34.048 12.7996 32 12.7996C29.952 12.7996 28.16 11.0076 28.16 8.95957ZM35.84 48.6396H28.16V43.5196H35.84V48.6396ZM35.84 40.9596H28.16V24.3196C28.16 22.2716 29.952 20.4796 32 20.4796C34.048 20.4796 35.84 22.2716 35.84 24.3196V40.9596ZM46.08 31.9996C46.08 31.9996 46.336 31.9996 46.08 31.9996L61.44 29.4396V31.9996H61.184L46.08 34.5596V31.9996ZM47.104 25.0876L59.904 23.5516C59.904 23.5516 59.904 23.5516 60.16 23.5516C60.928 23.5516 61.44 24.0636 61.44 24.8316V26.8796H61.184L46.08 29.4396V26.3676C46.08 25.8556 46.592 25.3436 47.104 25.0876ZM60.416 38.9116L47.616 40.4476C47.616 40.4476 47.616 40.4476 47.36 40.4476C46.592 40.4476 46.08 39.9356 46.08 39.1676V37.1196H46.336L61.44 34.5596V37.6316C61.44 38.1436 60.928 38.6556 60.416 38.9116Z" fill="#E11668"/>
<path d="M32.0007 53.7598C31.2327 53.7598 30.7207 54.2718 30.7207 55.0398V57.5998C30.7207 58.3678 31.2327 58.8798 32.0007 58.8798C32.7687 58.8798 33.2807 58.3678 33.2807 57.5998V55.0398C33.2807 54.2718 32.7687 53.7598 32.0007 53.7598Z" fill="#E11668"/>
</svg>
