<svg width="64" height="64" viewBox="0 0 64 64" fill="none" xmlns="http://www.w3.org/2000/svg">
<g clip-path="url(#clip0)">
<path opacity="0.2" d="M28.1588 35.8392H16.6388L12.7988 30.7192C17.6628 29.1832 22.7828 28.4152 28.1588 28.1592V35.8392Z" fill="#E11668"/>
<path opacity="0.2" d="M43.5205 43.5195H20.4805V46.0795H43.5205V43.5195Z" fill="#E11668"/>
<path opacity="0.2" d="M61.4392 43.5195H51.1992V46.0795H61.4392V43.5195Z" fill="#E11668"/>
<path opacity="0.2" d="M13.0545 43.5195H2.81445V46.0795H13.0545V43.5195Z" fill="#E11668"/>
<path d="M59.9043 37.6316L51.2003 35.8396C48.1283 35.8396 39.4243 26.1116 30.7203 25.5996H28.1603C18.6883 26.1116 9.4723 28.6716 0.768297 32.5116C0.000296861 33.0236 -0.255703 33.7916 0.000296876 34.3036C0.000296876 34.3036 0.000296876 34.3036 0.000296876 34.5596L1.7923 37.1196L0.000296876 44.7996C-0.255703 45.5676 0.000296861 46.5916 0.768297 47.3596L1.5363 48.1276C2.0483 48.3836 2.5603 48.6396 3.3283 48.6396H10.2403C11.0083 52.2236 14.3363 54.2716 17.6643 53.7596C20.2243 53.2476 22.0163 51.1996 22.7843 48.6396H40.9603C41.7283 52.2236 45.0563 54.2716 48.3843 53.7596C50.9443 53.2476 52.7363 51.1996 53.5043 48.6396H61.4403C62.9763 48.6396 64.0003 47.6156 64.0003 46.0796V42.4956C64.0003 40.1916 62.2083 38.1436 59.9043 37.6316ZM44.0323 34.8156C44.5443 35.3276 45.0563 35.5836 45.5683 35.8396H30.7203V28.1596C35.3283 28.4156 40.4483 31.9996 44.0323 34.8156ZM28.1603 35.8396H16.6403L12.8003 30.7196C17.6643 29.1836 22.7843 28.4156 28.1603 28.1596V35.8396ZM16.6403 51.1996C14.5923 51.1996 12.8003 49.4076 12.8003 47.3596C12.8003 45.3116 14.5923 43.5196 16.6403 43.5196C18.6883 43.5196 20.4803 45.3116 20.4803 47.3596C20.4803 49.4076 18.6883 51.1996 16.6403 51.1996ZM47.3603 51.1996C45.3123 51.1996 43.5203 49.4076 43.5203 47.3596C43.5203 45.3116 45.3123 43.5196 47.3603 43.5196C49.4083 43.5196 51.2003 45.3116 51.2003 47.3596C51.2003 49.4076 49.4083 51.1996 47.3603 51.1996ZM61.4403 46.0796H53.5043C52.7363 42.4956 49.4083 40.4476 46.0803 40.9596C43.5203 41.4716 41.4723 43.5196 40.9603 46.0796H22.7843C22.0163 42.4956 18.6883 40.4476 15.3603 40.9596C12.8003 41.4716 10.7523 43.5196 10.2403 46.0796H3.3283L2.5603 45.3116L4.3523 37.8876L4.6083 36.8636L4.0963 35.8396L3.0723 34.5596C4.6083 33.7916 6.9123 33.0236 10.2403 31.9996L15.3603 38.3996H50.9443L59.3923 40.1916C60.6723 40.4476 61.4403 41.4716 61.4403 42.7516V46.0796Z" fill="#E11668"/>
<path opacity="0.2" d="M48.3834 43.7754C48.3834 44.0314 48.6394 44.5434 48.6394 44.7994C48.6394 46.8474 46.8474 48.6394 44.7994 48.6394C44.5434 48.6394 44.0314 48.6394 43.7754 48.3834C44.2874 50.4314 46.5914 51.4554 48.6394 50.9434C50.6874 50.4314 51.7114 48.1274 51.1994 46.0794C50.6874 45.0554 49.6634 44.0314 48.3834 43.7754Z" fill="#E11668"/>
<path opacity="0.2" d="M17.6627 43.7754C17.9187 44.0314 17.9187 44.5434 17.9187 44.7994C17.9187 46.8474 16.1267 48.6394 14.0787 48.6394C13.8227 48.6394 13.3107 48.6394 13.0547 48.3834C13.5667 50.4314 15.8707 51.4554 17.9187 50.9434C19.9667 50.4314 20.9907 48.1274 20.4787 46.0794C19.9667 45.0554 18.9427 44.0314 17.6627 43.7754Z" fill="#E11668"/>
</g>
<defs>
<clipPath id="clip0">
<rect width="64" height="64" fill="white"/>
</clipPath>
</defs>
</svg>
