<svg enable-background="new -295 280.3 250 35" height="35" viewBox="-295 280.3 250 35" width="250" xmlns="http://www.w3.org/2000/svg"><g fill="#1d1d1b"><path d="m-52.9 313.2c-4.2 0-6.8-1-9.9-3.7-1.7-1.5-3.2-3.3-4.2-5-1.1-2.1-1.3-2.2-4.1-2.2h-3c-.1 0-.2.1-.2.2v6.5c0 1.5.6 1.9 2.9 1.9h2.1c0 .5 0 1.1-.2 1.3s-.5.3-.9.3h-13.7c0-.3-.1-.8 0-1.3 3.7-.3 4.8-.8 4.8-3.6v-20.4c0-1.9-.8-2.2-2.6-2.2h-2c-.1-.5-.1-.9.1-1.1.2-.3.8-.5 1.6-.6 2.1-.2 4.7-.2 10.9-.2 8.1 0 13 3.7 13 9.9 0 3.6-2.1 6.5-5.8 8.1-.1 0-.1.1-.1.1 0 .1 0 .1.1.2 0 0 3.3 3.1 5 4.4 5.8 4.6 7.8 5.1 11.6 5.1.1.5 0 .8-.2 1.1-.8.8-2.5 1.2-5.2 1.2zm-21.1-27.9c-.1 0-.2.1-.2.2v14.5c0 .1.1.2.2.2h2.1c4.1 0 8.1-.5 8.1-6.9 0-5.4-2.9-8-8.7-8zm-114.2 3.3c0-.1-.1-.1-.2-.1-.1 0-.2.1-.2.2l-1.4 19.8c-.1.7-.1 1.3.3 1.7.5.5 1.6.7 4.5.7h2.2c.1.7.1 1.1-.1 1.3s-.4.3-.9.3h-14.3c-.1-.4-.1-.9 0-1.3 4.7-.3 5.3-1.2 5.4-3.2l1.8-20.8c0-.5.1-1-.3-1.4-.5-.5-1.6-.8-4.3-.9-.1-.5 0-.8.2-1.1.3-.3.8-.5 1.5-.5h8.8l11 21.1c0 .1.1.1.2.1.1 0 .1 0 .2-.1l10.1-21.1h10.2c.1.4.1.9 0 1.3-2.3.2-3.5.5-4 1.1-.4.4-.3.9-.3 1.4l2.1 21.6c.1 1.6 1.1 1.7 4.3 2.1.1.7 0 1.1-.2 1.4-.2.2-.4.3-.9.3h-15.4c-.1-.4-.1-.9 0-1.3l2.2-.1c2.1-.1 3.3-.3 3.9-1 .5-.5.4-1.3.4-2.1l-2-19.3c0-.1-.1-.2-.2-.2-.1 0-.1 0-.2.1l-10.6 22.3c-.7 1.5-1.1 1.7-1.9 1.7zm71.5 23.9c-.1-.4-.1-.9 0-1.3 4.6-.3 5.6-.6 5.6-3.7v-20.4c0-1.8-.6-2.1-2.6-2.1h-1.9c-.1-.6 0-.9.2-1.1.3-.3.8-.4 1.6-.4h20.8c.1 1.8.4 3.8.7 5.8.1.6 0 1.1-.2 1.4-.2.2-.5.4-1 .4-.1 0-.1 0-.2 0l-.5-1.9c-.8-2.7-1.7-3.5-4.3-3.5h-7.1c-.1 0-.2.1-.2.2v11.4c0 .1.1.2.2.2h4.6c1.5 0 1.8-.6 1.9-1.8l.3-2.1h.4c.4 0 .7.1.8.2.2.2.3.6.2 1.2-.1 2.8-.1 5.7 0 8.6-.2.1-.4.1-.6.1s-.4 0-.6-.1c-.6-3.3-1.1-3.9-2.5-3.9h-4.6c-.1 0-.2.1-.2.2v7.8c0 1.7.5 2.5 3.6 2.5h3.8c3.3 0 3.8-.2 5.7-4.3l1.2-2.6c.6 0 .9.1 1.1.4s.2.7 0 1.2c-1 3-1.8 5.5-2.3 7.8zm-28.2 0c-.1-.4-.1-.9 0-1.3 4.1-.3 5.3-.8 5.3-3.9v-20.2c0-1.7-.7-2.1-2.6-2.1h-2c-.1-.5-.1-.9.1-1.1.2-.3.8-.5 1.6-.5h13.6c.1.4.1 1 0 1.3-4.5.3-5.6.7-5.6 3.7v19.6c0 1.8 1.2 2.1 2.2 2.1h2.8c3.3 0 3.8-.2 5.7-4.3l1.2-2.6c.6 0 1 .1 1.1.4.2.3.2.7 0 1.2-1.1 3-1.8 5.5-2.3 7.8h-21.1zm-73.3 0c-.1-.4-.1-.9 0-1.4 3.4-.6 4.4-1 4.4-3v-21.1c0-1.8-.6-2.1-2.6-2.1h-2c-.1-.5-.1-.9.1-1.1.2-.3.8-.5 1.6-.5h12.5c.1.4.1 1 0 1.3-3.8.3-4.5 1.2-4.5 3.1v21c0 1.7.7 2.1 2.5 2.1h2.2c.1.7.1 1.1 0 1.3-.2.2-.5.3-.9.3zm-18.6 0c-.1-.4-.1-.9 0-1.3 3.3-.1 4.5-.3 4.9-.9.2-.3.1-.7 0-1.1l-2.8-6.7c0-.1-.1-.1-.2-.1h-11.4c-.1 0-.2.1-.2.1l-1.8 4.8c-.6 1.6-.8 2.4-.5 3 .3.4.9.6 2.1.6h3.6c.1.6.1 1-.1 1.3-.2.2-.4.3-.8.3h-12.5c-.1-.4-.1-.9 0-1.3 3.4-.4 3.8-.8 5-3.6l8.7-20.7c1.5-3.4 2-4 3.9-4h1.6c.1.9.5 1.7 1.1 3.2l10.2 23.3c.5 1.2 1.1 1.7 3.4 1.7h.9c.1.6.1 1.1-.1 1.3s-.4.3-.9.3zm-4-24c-.1 0-.2.1-.2.1l-4.6 11.5v.2s.1.1.2.1h9.4c.1 0 .1 0 .2-.1 0-.1 0-.1 0-.2l-4.8-11.5s-.1-.1-.2-.1zm-51.9 24c-.1-.4-.1-.9 0-1.3 4.6-.3 5.6-.6 5.6-3.7v-20.9c0-1.9-.6-2.2-2.6-2.2h-2c-.1-.6-.1-1 .1-1.2.4-.5 1.9-.7 5.9-.7h9c12 0 18 5 18 15 0 9.8-6.1 15-17.6 15zm10.9-27.8c-.1 0-.2.1-.2.2v22.2c0 2.9 1.2 3.3 5.3 3.3 11.1 0 12.6-6.1 12.6-12.1 0-8.8-4.7-13.6-13.1-13.6z"/><path d="m-258.8 297.5c0-9.8-6-14.8-17.8-14.8h-9c-3.3 0-5.3.1-5.8.6-.1.2-.2.4-.1.9v.2l-.3.2c-.3-1.9-.1-2.3 6.2-2.3h9c12.7 0 18.2 5.7 18.2 15.2l-.2.2z"/><path d="m-258.8 297.5c0 9.7-6 14.8-17.4 14.8h-16.3-.2l-.1.4h16.6c12.6 0 17.8-6.1 17.8-15.2z"/><path d="m-292.5 312.3c0-.3 0-.6 0-1 4.3-.2 5.6-.6 5.6-3.9v-20.8c0-2-.7-2.4-2.8-2.4h-1.8l-.3.4h2.1c2 0 2.4.3 2.4 2v20.8c0 3-.8 3.3-5.6 3.5-.1.6-.1 1.3 0 1.7z"/><path d="m-277.2 310.7h.5c6.3 0 12.8-1.5 12.8-12.3 0-8.9-4.7-13.8-13.3-13.8l-.3.2.3.2c8.5 0 12.9 4.9 12.9 13.4 0 9.5-4.8 11.9-12.4 11.9-.2 0-.4 0-.5 0l-.2.2z"/><path d="m-282.1 298.3v-13.4c0-.2.2-.4.4-.4h4.5v.4h-4.6v13.4l-.2.1z"/><path d="m-281.8 298.3v8.8c0 2.6.9 3.1 4.6 3.1v.4c-3.8 0-4.9-.6-4.9-3.5v-8.8z"/><path d="m-256.3 312.3c0-.3 0-.6 0-1 3.3-.4 3.8-.9 5-3.7l8.7-20.7c1.4-3.4 1.9-3.9 3.7-3.9h1.4l.2-.1.1-.3h-1.6c-2.1 0-2.7.7-4.1 4.1l-8.7 20.7c-1.2 2.8-1.6 3.1-5 3.5-.1.6-.1 1.3 0 1.7z"/><path d="m-256.3 312.3h12.3c.3 0 .6-.1.7-.2.1-.2.2-.5.1-1v-.2l.4-.2c.3 1.3 0 2-1.1 2h-12.6z"/><path d="m-248.1 306.3-.4 1c-.7 1.7-.9 2.5-.5 3.1s1.2.7 2.2.7h3.5l.3-.4h-3.8c-2.4 0-2.4-.7-1.4-3.3l.4-1.2-.1-.2z"/><path d="m-248.1 306.3 1.4-3.8c.1-.2.2-.3.4-.3h5.6l.1.2-.1.2h-5.6l-1.4 3.6z"/><path d="m-233 306.3-1.6-3.8c-.1-.1-.2-.2-.4-.2h-5.8v.4h5.8l1.5 3.6.3.2z"/><path d="m-233 306.3 1.2 2.9c.2.4.3.8 0 1.2-.4.6-1.6.9-4.9 1v.9.2l-.4.2c-.1-.4-.1-1.2 0-1.7 4.8-.1 5.3-.5 4.8-1.7l-1.3-3.1z"/><path d="m-236.6 312.3h14c.3 0 .6-.1.7-.2.1-.2.2-.5.1-1v-.2l.3-.2c.3 1.3 0 2-1.1 2h-14.3z"/><path d="m-221.8 311.1h-.7c-2.3 0-3-.4-3.6-1.8l-10.2-23.3c-.6-1.4-1-2.2-1.1-3l.3-.4c.1 1 .4 1.7 1.1 3.3l10.2 23.3c.5 1.1 1 1.5 3.2 1.5h1z"/><path d="m-240.8 288.3c-.2 0-.3.1-.4.2l-4.6 11.5v.4c.1.1.2.2.3.2h4.6l.1-.2-.1-.2h-4.6l4.6-11.5.1-.2z"/><path d="m-240.8 288.3c.2 0 .3.1.4.2l4.8 11.5c.1.1 0 .3 0 .4-.1.1-.2.2-.3.2h-4.9v-.4h4.8l-4.8-11.5z"/><path d="m-204.4 283.6h-12.3c-.7 0-1.2.1-1.4.4-.1.2-.2.4-.1.8l.1.2-.4.2c-.3-1.1 0-2 1.9-2h12.6l-.2.4z"/><path d="m-218.1 312.3c-.1-.3 0-.6 0-1 3.2-.5 4.4-1 4.4-3.2v-21.1c0-1.9-.7-2.3-2.8-2.3h-1.8l-.3.4h2.1c2 0 2.4.3 2.4 1.9v21.1c0 1.8-.8 2.3-4.4 2.8-.2.6-.2 1.3 0 1.7l.3-.2z"/><path d="m-204.1 311.1c.1.5.1.8 0 1-.1.1-.4.2-.8.2h-13.1l-.3.4h13.4c1.3 0 1.5-.7 1.1-2l-.4.2z"/><path d="m-208.9 298.3v10.5c0 1.9.8 2.3 2.7 2.3h2.1l.3-.4h-2.4c-1.9 0-2.3-.3-2.3-1.9v-10.5l-.2-.2z"/><path d="m-204.4 284.6c-3.4.3-4.5 1.1-4.5 3.3v10.5h.4v-10.5c0-1.9.6-2.7 4.4-3l-.2-.4z"/><path d="m-204.4 283.6v1l.3.4c.1-.4.1-1.3 0-1.7z"/><path d="m-185.2 283.6h-8.6c-.7 0-1.2.1-1.4.4-.1.2-.2.4-.1.8l.1.2-.4.2c-.3-1 0-2 1.9-2h8.9v.4z"/><path d="m-198.1 312.3c0-.3 0-.6 0-1 4.5-.3 5.3-1.1 5.5-3.4l1.8-20.8c.1-.5.1-1.1-.3-1.5-.5-.6-1.6-.8-4.3-.9l-.3.4c4.4.1 4.6.6 4.5 2l-1.8 20.8c-.1 1.9-.5 2.7-5.4 3-.1.6-.1 1.1 0 1.7l.4-.2z"/><path d="m-183.1 311.1c.1.5.1.8-.1 1-.1.1-.4.2-.7.2h-14.2l-.3.4h14.5c1.2 0 1.4-.7 1.1-2l-.3.2z"/><path d="m-188.3 288.3c-.3 0-.4.2-.4.4l-1.4 19.8c-.1.7-.1 1.4.3 1.8.5.6 1.6.8 4.6.8h2.1l.3-.4h-2.4c-4.7 0-4.7-.4-4.5-2.2l1.4-19.8.1-.1z"/><path d="m-175.9 312.4-12.1-23.9c-.1-.1-.2-.2-.4-.2v.4l12.2 24.1.2-.1z"/><path d="m-163.3 288.3c-.2 0-.4.1-.4.2l-10.6 22.3c-.7 1.4-1 1.6-1.6 1.6l-.2.4c1 0 1.4-.3 2.2-1.9l10.6-22.3.1-.2z"/><path d="m-167.6 312.3c-.1-.3-.1-.6 0-.9l2.1-.1c2.1-.1 3.4-.3 4.1-1.1.5-.6.5-1.4.4-2.2l-2-19.3c0-.2-.2-.3-.3-.3l-.1.4 2 19.3c.2 2.2-.4 2.7-4.1 2.9l-2.4.1c-.2.6-.2 1.1 0 1.7l.3-.2z"/><path d="m-151.4 311.1c0 .4 0 .9-.2 1-.1.1-.4.2-.7.2h-15.3l-.3.4h15.6c1.2 0 1.4-.7 1.2-2l-.3.1z"/><path d="m-153.5 284.6c-2.3.2-3.5.5-4 1.1-.4.5-.4 1.1-.3 1.6l1.1 11.1h.4l-1.1-11.2c-.1-1.3.1-2 4.2-2.3l-.1-.4z"/><path d="m-156.7 298.3 1 10.4c.2 1.7 1.2 1.9 4.3 2.3l.4-.4c-3.4-.4-4.1-.6-4.2-2l-1-10.4-.2-.3z"/><path d="m-153.5 283.6c.1.3.1.6 0 1l.3.4c.2-.6.2-1.1 0-1.7l-.4.2z"/><path d="m-163.4 283.6h9.9l.3-.4h-10.4v.4z"/><path d="m-173.8 304.9c.2 0 .3-.1.4-.2l10.1-21-.2-.4-10.3 21.2-.2.1z"/><path d="m-185.2 283.6 11 21c.1.1.2.2.4.2v-.4l-11.1-21.2z"/><path d="m-144.7 312.3c0-.3-.1-.6 0-1 4-.3 5.3-.9 5.3-4.1v-20.2c0-1.9-.9-2.3-2.8-2.3h-1.8-.2l-.1.4h2.1c1.9 0 2.4.3 2.4 1.9v20.2c0 2.9-1 3.4-5.3 3.7-.1.6-.1 1.1 0 1.7l.4-.2z"/><path d="m-144.7 312.3h20.9c.5-2.3 1.2-4.7 2.2-7.7.1-.3.2-.8 0-1s-.5-.3-.9-.3h-.3v-.4c1.3 0 1.9.5 1.5 1.9-.9 2.7-1.7 5.2-2.3 8h-21.6z"/><path d="m-122.4 303.3-1.1 2.5c-1.9 4-2.4 4.4-5.9 4.4l-.2-.2.2-.2c3.3 0 3.7-.2 5.6-4.2l1.2-2.7z"/><path d="m-134.7 298.3v9.6c0 2 1.4 2.3 2.4 2.3h2.8v-.4h-2.8c-1.2 0-2-.4-2-1.9v-9.6l-.2-.3z"/><path d="m-134.7 298.3v-9.9c0-3.2 1.4-3.7 5.6-3.9h.2l.2.4c-4.6.3-5.5.7-5.5 3.5v9.9z"/><path d="m-129.1 284.6c0-.3 0-.7 0-.9l-.1-.2.4-.2c.1.4.1 1.3 0 1.7z"/><path d="m-129.1 283.6h-13.4c-.7 0-1.2.1-1.4.4-.1.2-.2.4-.1.8l-.3.4c-.3-1.1 0-2 1.9-2h13.6z"/><path d="m-93.2 283.6h-20.7c-.7 0-1.2.1-1.4.4-.1.2-.2.4-.2.8v.2l-.4.2c-.2-1.1 0-2 1.9-2h21l-.1.3z"/><path d="m-116.5 312.3c-.1-.3-.1-.6 0-.9 4.3-.2 5.6-.6 5.6-3.9v-20.4c0-1.9-.7-2.3-2.8-2.3h-1.8l-.4.4h2.1c2 0 2.4.3 2.4 1.9v20.4c0 3-.8 3.3-5.5 3.5-.2.6-.2 1.1 0 1.7l.3-.1z"/><path d="m-91.4 303.3c.3 0 .7.1.8.3.2.3.1.7 0 1-1 2.9-1.7 5.4-2.2 7.7h-23.8l-.3.4h24.4c.6-2.7 1.4-5.4 2.3-8 .4-1.3-.2-1.9-1.5-1.9v.3z"/><path d="m-102.2 310.2h3.8c3.5 0 4.1-.4 5.9-4.4l1.1-2.5-.3-.4-1.2 2.7c-1.9 4-2.3 4.2-5.6 4.2h-3.8l-.1.2z"/><path d="m-106 304.8v2.8c0 2 .9 2.6 3.8 2.6v-.4c-3 0-3.4-.7-3.4-2.3v-2.8l-.1-.1z"/><path d="m-103.4 299.4h-2.2c-.2 0-.4.2-.4.4v5h.4v-5h2.2l.1-.2z"/><path d="m-98.3 303.4c-.5-3.1-1.1-3.9-2.6-3.9h-2.4v.4h2.4c1.1 0 1.7.4 2.3 3.8l.3-.1z"/><path d="m-97.6 303.4c-.1 0-.2 0-.4 0-.1 0-.3 0-.4 0l-.4.3c.5.2 1.1.2 1.5 0l-.1-.2z"/><path d="m-98.6 293.7h.2c.5 0 .6.1.7.2.2.2.2.5.2 1.1-.1 2.7-.1 5.6 0 8.4l.4.3c-.1-2.9-.1-5.9 0-8.7.1-1.4-.4-1.7-1.3-1.7h-.5l.1.3z"/><path d="m-103.3 297.5h2.3c1.6 0 2-.7 2.1-1.9l.3-1.9-.3-.4-.3 2.3c-.1 1.1-.4 1.6-1.7 1.6h-2.3l-.1.1z"/><path d="m-106 291.3v5.8c0 .2.2.4.4.4h2.3v-.4h-2.3v-5.8l-.1-.1z"/><path d="m-103.3 285.4h-2.3c-.2 0-.4.2-.4.4v5.5h.4v-5.5h2.3l.1-.2z"/><path d="m-93.6 290.8-.5-1.7c-.8-2.8-1.8-3.7-4.5-3.7h-4.7v.4h4.7c2.4 0 3.4.7 4.1 3.4l.6 2 .3-.1z"/><path d="m-93.2 283.6c.1 1.7.4 3.7.7 5.6.1.4.1.9-.2 1.3-.2.2-.5.3-.9.3l-.3.4c1.4.1 1.9-.6 1.7-2-.3-1.9-.6-4-.7-6z"/><path d="m-64.1 301.2c3.7-1.5 6-4.5 6-8.3 0-6.1-4.7-10.1-13.2-10.1-6.2 0-8.8 0-11 .2-1.8.1-2.1 1-1.8 2.1l.3-.4c-.1-.4 0-.6.1-.8.2-.3.7-.5 1.4-.5 2.1-.2 4.7-.2 10.9-.2 8 0 12.8 3.6 12.8 9.7 0 3.5-2.1 6.4-5.7 7.9-.1.1-.2.2-.2.3z"/><path d="m-83.7 284.8h1.8c1.9 0 2.8.4 2.8 2.4v20.4c0 3.1-1.3 3.5-4.8 3.8v1l-.1.3-.3.1c-.1-.5-.1-1.2 0-1.7 3.8-.3 4.7-.7 4.7-3.4v-20.4c0-1.7-.6-2-2.4-2h-2.1z"/><path d="m-69.4 311.1c0 .4 0 .8-.2 1-.1.1-.4.2-.8.2h-13.6l-.3.4h13.9c1.3 0 1.4-.7 1.3-2z"/><path d="m-74.4 306.5v2.5c0 1.6.7 2.1 3.1 2.1h1.9l.4-.4h-2.3c-2.3 0-2.7-.4-2.7-1.7v-2.5l-.2-.1z"/><path d="m-71 302.1h-3c-.2 0-.4.2-.4.4v4h.4v-4h3l.1-.2z"/><path d="m-52.8 313c-.1 0-.1 0 0 0-4.2 0-6.8-.9-9.8-3.6-1.7-1.5-3.1-3.2-4.1-5-1.2-2.1-1.4-2.3-4.2-2.3v.4c2.7 0 2.8.1 3.9 2.1s2.7 3.8 4.2 5.1c3.3 2.8 6 3.7 10.1 3.7l.2-.2z"/><path d="m-47.8 311.1c0 .3 0 .6-.2.8-.4.5-1.5 1.1-4.8 1.1v.4c4.7 0 5.8-1.1 5.4-2.7l-.2.1z"/><path d="m-64.5 301.2c0 .1 0 .3.1.4 0 0 3.3 3.1 5 4.4 5.7 4.6 7.8 5.1 11.5 5.2l.3-.4c-3.8 0-5.8-.4-11.6-5.1-1.7-1.4-5-4.4-5-4.4l-.1-.1z"/><path d="m-72.6 300.3h.7c4 0 8.3-.5 8.3-7.1 0-5.5-2.9-8.2-8.9-8.2h-.1l-.1.2.1.2h.1c5 0 8.5 1.9 8.5 7.8 0 6-3.5 6.7-7.9 6.7h-.7l-.1.2z"/><path d="m-74.4 293.3v-7.8c0-.2.2-.4.4-.4h1.4v.4h-1.4v7.8l-.2.1z"/><path d="m-74.4 293.3v6.7c0 .2.2.4.4.4h1.4v-.4h-1.4v-6.7z"/></g></svg>