<svg height="83" viewBox="0 0 225 83" width="225" xmlns="http://www.w3.org/2000/svg"><g fill="#e32119" fill-rule="evenodd" transform="translate(12 9)"><path d="m95.6486842 21.8967407c-.518421-1.5182222-1.0368421-3.0364444-2.0736842-4.3016296s-2.3328947-2.2773333-3.8881579-2.7834074c-2.0736842-.7591111-4.1473684-1.0121481-5.9618421-.7591111-2.3328947.253037-4.6657895 1.2651852-6.7394737 2.5303704-1.8144737 1.2651851-3.3697368 3.0364444-4.4065789 5.0607407-.7776316-1.7712593-2.3328948-3.0364444-4.1473685-3.7955556-2.0736842-.7591111-4.1473684-1.0121481-6.4802631-.7591111-1.2960526.2530371-2.3328947.5060741-3.6289474 1.0121482-1.0368421.5060741-2.0736842 1.0121481-2.8513158 1.7712592-.7776315.5060741-1.5552631 1.2651852-2.3328947 2.2773334-.5184211.7591111-1.0368421 1.5182222-1.5552632 2.5303703h-.2592105v-4.8077037l-11.1460526 1.5182223v35.1721481l11.6644737-1.5182222v-19.2308148c0-2.0242963.518421-3.7955556 1.5552631-5.5668148.7776316-1.5182223 2.3328948-2.5303704 4.1473684-2.7834074 1.8144737-.2530371 3.1105264.253037 3.8881579 1.2651851.7776316 1.0121482 1.2960527 2.5303704 1.2960527 4.5546667v19.9899259l11.4052631-1.5182222v-18.9777778c0-1.0121481 0-2.0242963.2592106-3.0364444.2592105-1.0121482.518421-1.7712593 1.0368421-2.5303704.518421-.7591111 1.0368421-1.5182222 1.8144736-2.0242963.7776316-.5060741 1.5552632-.7591111 2.5921053-1.0121481.7776316-.2530371 1.8144737 0 2.5921053.253037.518421.253037 1.0368421.7591111 1.5552631 1.2651852.5184211.7591111.7776316 1.5182222.7776316 2.2773333.2592105 1.0121482.2592105 1.7712593.2592105 2.7834074v19.2308149l11.4052632-1.5182223v-21.7611852c0-1.5182222-.2592105-3.0364444-.7776316-4.8077037"/><path d="m177.559211 25.4392593-7.776316-21.50814819-12.701316 1.77125926 14.515789 32.64177773-1.036842 3.0364445c-.518421 1.2651852-1.036842 2.5303704-2.073684 3.7955555-.777631 1.0121482-2.073684 1.5182223-3.888158 1.7712593-.518421 0-1.296052 0-1.814473 0-.777632 0-4.406579-.5060741-4.925-.5060741v9.8684445c.777631 0 3.628947.5060741 4.665789.5060741 3.110526 0 6.221053-.5060741 9.072368-1.7712593 1.555264-.7591111 3.110527-1.7712593 4.147369-2.7834074 1.296052-1.2651852 2.332895-2.5303704 3.110526-4.0485926 1.036842-1.7712593 1.814474-3.5425185 2.332895-5.3137778l15.552631-42.76325924-12.182894 1.51822222z"/><path d="m156.563158 40.6214815v-21.7611852c0-1.7712593-.259211-3.2894815-.777632-5.0607407-.518421-1.5182223-1.036842-3.0364445-2.073684-4.30162967-1.036842-1.26518519-2.332895-2.27733334-3.888158-2.78340741-1.814473-.75911111-3.888158-.75911111-5.961842-.50607408-2.332895.25303704-4.665789 1.01214815-6.739474 2.53037037-1.814473 1.26518519-3.369736 3.03644449-4.406579 5.06074079-.777631-1.7712593-2.332894-3.0364445-4.147368-3.7955556-2.073684-.75911111-4.147368-1.01214815-6.480263-.75911111-1.296053.25303704-2.332895.50607407-3.628947 1.01214811-1.036843.5060741-2.073685 1.0121482-2.851316 1.7712593-.777632.5060741-1.555263 1.2651852-2.332895 2.2773333-.518421.7591111-1.036842 1.5182223-1.555263 2.5303704h-.259211v-5.3137778l-11.146052 1.5182222v35.1721482l11.664473-1.5182222v-19.2308148c0-2.0242963.518421-3.7955556 1.555264-5.5668149.777631-1.5182222 2.332894-2.5303703 4.147368-2.7834074 1.814474-.253037 3.110526.2530371 3.888158 1.2651852.777631 1.0121482 1.296052 2.5303704 1.296052 4.5546667v20.2429629l11.405264-1.5182222v-18.9777778c0-1.0121481 0-2.0242962.25921-3.0364444.259211-1.0121481.518421-1.7712593 1.036842-2.5303704s1.036842-1.5182222 1.814474-2.0242963c.777632-.506074 1.555263-.7591111 2.592105-1.0121481.777632-.253037 1.814474 0 2.592105.253037.518422.2530371 1.036843.7591111 1.555264 1.2651852.518421.7591111.777631 1.5182222.777631 2.2773333.259211 1.0121482.259211 1.7712593.259211 2.7834075v19.2308148z"/><path d="m10.8868421 38.3441481c0-1.0121481.2592105-1.7712592.7776316-2.7834074.518421-.7591111 1.0368421-1.7712592 1.5552631-2.2773333.7776316-.7591111 1.5552632-1.2651852 2.3328948-1.7712593 1.0368421-.506074 2.0736842-.7591111 3.1105263-1.0121481 2.3328947-.253037 3.8881579 0 5.1842105 1.2651852 1.0368421 1.2651852 1.8144737 2.7834074 1.8144737 4.5546667zm20.4776316-12.3988148c-1.5552632-1.5182222-3.3697369-2.5303703-5.4434211-3.0364444-2.3328947-.5060741-4.6657894-.7591111-6.9986842-.253037-2.5921052.253037-5.1842105 1.0121481-7.5171052 2.2773333-2.33289478 1.2651852-4.14736846 2.7834074-5.96184215 4.5546667-1.81447368 2.0242962-3.11052631 4.0485925-3.88815789 6.5789629-1.03684211 2.5303704-1.55526316 5.3137778-1.55526316 8.0971852 0 2.5303704.51842105 5.3137778 1.55526316 7.8441481 1.0368421 2.0242963 2.33289473 3.7955556 4.14736842 5.3137778 1.81447368 1.2651852 3.88815789 2.2773334 6.22105262 2.7834074 2.3328947.5060741 4.925.5060741 7.5171053.2530371 3.3697368-.5060741 6.4802631-1.5182223 9.3315789-3.2894815 2.5921053-1.5182222 4.925-3.7955556 6.4802632-6.3259259l-8.0355263-4.0485926c-.7776316 1.2651852-1.8144737 2.2773333-3.1105264 3.0364444-1.2960526 1.0121482-2.8513157 1.5182222-4.6657894 1.7712593-1.0368421.253037-2.0736842 0-2.8513158 0-1.0368421-.2530371-1.8144737-.5060741-2.5921053-1.0121482-.7776316-.506074-1.2960526-1.0121481-1.8144737-1.7712592-.518421-.7591111-.7776315-1.7712593-.7776315-2.5303704l25.143421-3.2894815c0-.5060741 0-1.0121481 0-1.2651852v-2.2773333c0-2.7834074-.2592105-5.3137778-1.2960526-7.8441482-1.0368421-2.0242962-2.0736842-4.0485925-3.8881579-5.5668148z" fill-rule="nonzero"/></g></svg>