<svg height="16" viewBox="0 0 70 16" width="70" xmlns="http://www.w3.org/2000/svg"><path d="m218.52 16.107c-.745893.0031004-1.48873-.0954734-2.208-.293-.691152-.189734-1.347224-.4895756-1.943-.888-.588717-.3935315-1.109799-.8798296-1.543-1.44-.436-.564-.776-1.233-1.02-2.007-.250582-.8162671-.374358-1.66616783-.367-2.52 0-.807.098-1.577.293-2.31.186914-.71215816.487438-1.38951828.89-2.006.390242-.59839147.874854-1.12960672 1.435-1.573.593669-.46041848 1.264906-.81093798 1.982-1.035.802034-.25311947 1.63901-.37799088 2.48-.37.671 0 1.324.09 1.959.272.634.183 1.264.48 1.89.894.624.413 1.187.93 1.689 1.548l-1.3 1.084c-.517601-.65964091-1.171935-1.19934687-1.918-1.582-.717932-.36779671-1.513341-.55876343-2.32-.557-1.06 0-1.992.241-2.792.723-.792964.47322319-1.430941 1.16714537-1.836 1.997-.424.85-.635 1.821-.635 2.915 0 .664.086 1.286.259 1.865.15664.5470679.404084 1.0639293.732 1.529.316.439.69.817 1.123 1.132.433.316.916.555 1.45.718s1.1.244 1.7.244c1.68 0 3.092-.706 4.238-2.119l1.299 1.094c-.647182.812927-1.457177 1.4815649-2.378 1.963-.922.482-1.975.722-3.16.722zm15.302-9.843h1.621v9.736h-1.552v-1.543h-.03c-.387444.5189608-.890837.940167-1.47 1.23-.6022.2976203-1.266321.4484011-1.938.44-.664 0-1.289-.119-1.875-.356-.567259-.2258029-1.083446-.5631268-1.518-.992-.441065-.4454132-.78527-.977212-1.011-1.562-.252148-.6439839-.378101-1.3304486-.371-2.022 0-.95.203-1.81.61-2.578.389605-.74962455.979461-1.37652024 1.704-1.811.73-.44 1.546-.66 2.451-.66.67 0 1.294.134 1.87.4.574997.26609253 1.078758.6646467 1.47 1.163h.04v-1.445zm-3.213 8.379c.437 0 .853-.083 1.25-.25.389943-.1611121.744856-.3964758 1.045-.693.3-.296.537-.66.713-1.094.176-.432.264-.9.264-1.4 0-.496-.083-.963-.25-1.402-.15305-.41829778-.383005-.80427053-.678-1.138-.593276-.65835801-1.437766-1.03445389-2.324-1.035-.944 0-1.73.329-2.358.986-.629.658-.943 1.52-.943 2.588 0 .996.303 1.818.908 2.466.606.648 1.397.972 2.373.972zm12.637-8.497c.189 0 .322.007.4.02v1.787c-.214162-.01885965-.429012-.02886817-.644-.03-.606 0-1.133.147-1.582.44-.45.293-.791.694-1.025 1.201-.235.508-.352 1.088-.352 1.739v4.697h-1.621v-9.736h1.621v1.699h.039c.337052-.55254112.804779-1.01374313 1.362-1.343.547222-.31690613 1.169673-.48063623 1.802-.474zm10.586 4.834c0 .248-.016.47-.049.665h-7.48c.104.904.452 1.629 1.045 2.172.592.544 1.325.816 2.197.816.58 0 1.1-.119 1.562-.357.455629-.2321261.858118-.5562967 1.182-.952l1.133.967c-.440195.5698152-1.006755 1.0295681-1.655 1.343-.668.329-1.428.493-2.28.493-.657822.0052369-1.310236-.1191294-1.92-.366-.575158-.2306789-1.098157-.5744705-1.538-1.011-.443703-.4517802-.789262-.9903751-1.015-1.582-.251468-.6473122-.377377-1.3365877-.371-2.031 0-.723.12-1.395.36-2.017.242-.622.569-1.149.982-1.582.869135-.89636069 2.066478-1.39913613 3.315-1.392.893 0 1.684.209 2.374.625.69.417 1.222.992 1.597 1.724.374.733.561 1.561.561 2.485zm-4.443-3.34c-.769 0-1.431.24-1.988.718-.556.479-.91 1.125-1.06 1.939h5.88c-.13-.807-.445-1.452-.943-1.934-.498-.481-1.128-.722-1.89-.722zm15.478 3.34c0 .248-.016.47-.049.665h-7.48c.104.904.452 1.629 1.045 2.172.592.544 1.325.816 2.197.816.58 0 1.1-.119 1.563-.357.455269-.2322418.857409-.5564051 1.181-.952l1.133.967c-.440195.5698152-1.006755 1.0295681-1.655 1.343-.668.329-1.428.493-2.28.493-.657822.0052369-1.310236-.1191294-1.92-.366-.575158-.2306789-1.098157-.5744705-1.538-1.011-.443703-.4517802-.789262-.9903751-1.015-1.582-.251468-.6473122-.377377-1.3365877-.371-2.031 0-.723.12-1.395.361-2.017.24-.622.568-1.149.982-1.582.869135-.89636069 2.066478-1.39913613 3.315-1.392.892 0 1.683.209 2.373.625.69.417 1.222.992 1.597 1.724.374.733.561 1.561.561 2.485zm-4.443-3.34c-.768 0-1.43.24-1.987.718-.557.479-.91 1.125-1.06 1.939h5.879c-.13-.807-.444-1.452-.943-1.934-.498-.481-1.127-.722-1.89-.722zm11.719-1.494c.188 0 .322.007.4.02v1.787c-.214495-.01888716-.429678-.02889571-.645-.03-.605 0-1.132.147-1.582.44-.449.293-.79.694-1.025 1.201-.234.508-.352 1.088-.352 1.739v4.697h-1.62v-9.736h1.62v1.699h.04c.337052-.55254112.804779-1.01374313 1.362-1.343.547222-.31690613 1.169673-.48063623 1.802-.474zm5.293 9.981c-1.491 0-2.764-.469-3.819-1.406l.84-1.23c.41.383.848.673 1.314.868.465.196 1.02.293 1.665.293.566 0 1.015-.123 1.347-.37.332-.248.498-.557.498-.928 0-.098-.01-.19-.029-.274-.020735-.0876809-.060699-.1696573-.117-.24-.052398-.0671217-.107787-.1318537-.166-.194-.07437-.0718341-.158539-.1327726-.25-.181-.208956-.1272684-.430042-.2334569-.66-.317-.161-.062-.293-.111-.394-.147-.15512-.0554209-.309792-.1120894-.464-.17-.078663-.0243266-.156689-.0506686-.234-.079-.365-.124-.672-.24-.923-.352-.272-.1219548-.534703-.2636672-.786-.424-.245403-.1488368-.466061-.3350801-.654-.552-.175013-.2164644-.31227-.4608912-.406-.723-.109943-.30345141-.164147-.62427249-.16-.947 0-.742.305-1.362.917-1.86s1.38-.748 2.305-.748c1.256 0 2.373.4 3.35 1.202l-.84 1.279c-.782-.677-1.644-1.016-2.588-1.016-.391 0-.738.106-1.04.318-.303.211-.454.486-.454.825 0 .182.043.348.131.498s.225.286.41.41c.186.124.373.23.562.317.189.088.436.19.742.308 1.042.404 1.67.658 1.885.762.67.332 1.11.739 1.318 1.22.13.3.196.655.196 1.065.00997.7500416-.305102 1.4677053-.864 1.968-.284.257-.652.459-1.104.605-.494693.1527937-1.010295.2270296-1.528.22z" fill="#334146" fill-rule="evenodd" transform="translate(-211 -1)"/></svg>