<svg xmlns="http://www.w3.org/2000/svg" width="202px" height="20px" viewBox="0 0 597.21 58.43"><defs><style>.cls-1{fill:#334146;}</style></defs><title>Wunder Mobility Black</title><g id="Layer_2" data-name="Layer 2"><g id="Layer_1-2" data-name="Layer 1"><path class="cls-1" d="M42.17,42.35h0a12.29,12.29,0,0,0,0-17.29L20.8,3.64a12.19,12.19,0,0,0-17.24,0h0a12.26,12.26,0,0,0,0,17.28L24.93,42.35A12.21,12.21,0,0,0,42.17,42.35ZM106.5,3.64a12.21,12.21,0,0,0-17.24,0l-13,13-13-13A12.21,12.21,0,0,0,46,3.64h0a12.27,12.27,0,0,0,0,17.29L67.39,42.35a12.86,12.86,0,0,0,17.74,0L106.5,20.93A12.29,12.29,0,0,0,106.5,3.64Z"/><path class="cls-1" d="M126.42,1.7h12.65l6.42,24.87h.19L151.6,1.7h12.47l5.8,24.81h.18L176.47,1.7h12.66L175.35,46.06H164.57l-6.55-27h-.12l-6.92,27H140.2Zm62.25,31.68V15.45h11.1V30.69c0,4.38,1.18,6.19,4,6.19,2.36,0,4.17-1.88,4.17-6.06V15.45h11.16V46.06H207.93V42.82l-.12-.07a10.41,10.41,0,0,1-8.36,3.94C193.22,46.69,188.67,43.32,188.67,33.38Zm35.18-17.93H235v3.24h.13a11,11,0,0,1,8.6-3.87c6.17,0,10.85,2.81,10.85,12.75V46.06H243.42V30.26c0-4.38-1.25-5.57-4-5.57s-4.43,1.82-4.43,6V46.06H223.85ZM280.45.07V18.44l-.12.07a10.66,10.66,0,0,0-8.17-3.69c-7.67,0-13.53,6.5-13.53,15.94s5.8,15.93,14.22,15.93c3.49,0,6.17-1.13,8-3.44H281v2.81h10.6V.07Zm-5.17,36.87c-3.12,0-5.43-2.44-5.43-6.18s2.31-6.13,5.43-6.13,5.61,2.5,5.61,6.13S278.52,36.94,275.28,36.94Zm51.66-6.43c0-9.19-6.55-15.69-15.34-15.69-9.22,0-15.83,6.69-15.83,15.94,0,9.43,6.85,15.93,16,15.93,7,0,11.59-2.25,14.15-5.37l-6-6.63a9.26,9.26,0,0,1-6.85,3.19c-3.37,0-5.92-1.44-6.42-4.38h20A25.29,25.29,0,0,0,326.94,30.51Zm-20.26-3.07a4.73,4.73,0,0,1,4.86-4.12c2.43,0,4.11,1.5,4.61,4.12Zm24.5-12h11.16v4.12h.12a10.31,10.31,0,0,1,8.48-4.75H351V26.76c-.93-.07-1.87-.07-2.37-.07-4.3,0-6.29,2.44-6.29,6V46.06H331.18ZM366,1.69h12l11.09,22.06h.13l11-22.06h12V46.05H400.5V24.25h-.18L392.9,38.06h-7.54l-7.42-13.94h-.19V46.05H366ZM417,30.74c0-9.43,6.86-15.93,16.77-15.93s16.71,6.5,16.71,15.93-6.92,15.94-16.71,15.94S417,40.18,417,30.74Zm22.26,0c0-3.56-2.25-6.06-5.49-6.06s-5.55,2.5-5.55,6.06,2.37,6.13,5.55,6.13S439.21,34.31,439.21,30.74Zm26.05,12.44-.13.06v2.81H454.6V.06h11.16V18.5h.12a10.57,10.57,0,0,1,8.17-3.69c7.66,0,13.52,6.5,13.52,15.93s-5.86,15.94-14.21,15.94C469.87,46.68,467.13,45.55,465.26,43.18Zm11.09-12.44c0-3.62-2.3-6.12-5.42-6.12-3.3,0-5.67,2.5-5.67,6.12s2.37,6.19,5.67,6.19C474.05,36.93,476.35,34.49,476.35,30.74Zm14.9-24.8c0-3.32,2.68-5.94,6.42-5.94S504,2.56,504,5.94A6,6,0,0,1,497.67,12,6.08,6.08,0,0,1,491.25,5.94Zm.74,9.49h11.16V46.05H492ZM509.13.06h11.16v46H509.13Zm16.4,5.88C525.53,2.62,528.21,0,532,0s6.36,2.56,6.36,5.94S535.69,12,532,12A6.08,6.08,0,0,1,525.53,5.94Zm.74,9.49h11.16V46.05H526.27Zm18.08,21V24.31h-3.3V15.43h3.3V5.81l11.16-1.12V15.43h6.6v8.88h-6.6v9.75c0,1.43.18,3.06,2,3.06a7.41,7.41,0,0,0,2.25-.44l2.74,7.75a16,16,0,0,1-9,2.25C548.34,46.68,544.35,43.43,544.35,36.43Zm31.54,7.37L564.23,15.43h11.91l5,14.44h.19l4.86-14.44h11l-15.65,43H570.71Z"/></g></g></svg>
