<svg width="159" height="16" viewBox="0 0 159 16" fill="none" xmlns="http://www.w3.org/2000/svg">
<path d="M4.144 12H5.488L8.16 2.672H8.192L10.816 12H12.16L15.792 0.639999H14.32L11.504 9.728H11.472L8.928 0.639999H7.408L4.848 9.744H4.816L2.016 0.639999H0.528L4.144 12ZM19.6086 12.096C20.6326 12.096 21.5926 11.584 22.1846 10.656H22.2006V12H23.4966V4.208H22.2006V7.984C22.2006 9.84 21.1286 10.912 19.8806 10.912C18.6486 10.912 17.9766 10.24 17.9766 8.48V4.208H16.6806V8.848C16.6806 11.072 17.8166 12.096 19.6086 12.096ZM25.841 12H27.137V8.112C27.137 6.352 28.097 5.296 29.569 5.296C30.705 5.296 31.489 5.92 31.489 7.744V12H32.785V7.376C32.785 5.152 31.665 4.112 29.985 4.112C28.785 4.112 27.761 4.672 27.153 5.616H27.137V4.208H25.841V12ZM38.3718 12.096C39.6358 12.096 40.6278 11.504 41.1878 10.56H41.2038V12H42.4518V0.223999H41.1558V5.6H41.1398C40.5478 4.656 39.5398 4.112 38.3558 4.112C36.1638 4.112 34.5478 5.856 34.5478 8.16C34.5478 10.528 36.2118 12.096 38.3718 12.096ZM38.5477 10.912C36.9638 10.912 35.8758 9.728 35.8758 8.16C35.8758 6.432 37.0758 5.296 38.5638 5.296C40.1318 5.296 41.2038 6.56 41.2038 8.16C41.2038 9.808 40.0198 10.912 38.5477 10.912ZM51.8003 7.968C51.8003 5.744 50.3443 4.112 48.2163 4.112C45.9923 4.112 44.3763 5.76 44.3763 8.112C44.3763 10.496 46.0082 12.096 48.3123 12.096C49.8803 12.096 50.8563 11.504 51.5283 10.64L50.6163 9.872C50.1363 10.464 49.4003 10.912 48.3602 10.912C46.8883 10.912 45.8643 9.952 45.6883 8.496H51.7683C51.7683 8.4 51.8003 8.176 51.8003 7.968ZM48.2003 5.296C49.4803 5.296 50.3123 6.16 50.5043 7.44H45.7203C45.9603 6.112 46.9523 5.296 48.2003 5.296ZM53.7004 12H54.9964V8.24C54.9964 6.672 55.8764 5.536 57.3644 5.536C57.4924 5.536 57.6844 5.552 57.8764 5.568V4.128C57.7644 4.112 57.6684 4.112 57.5564 4.112C56.4844 4.112 55.5884 4.688 55.0284 5.632H54.9964V4.208H53.7004V12ZM63.8924 12H65.3004V3.344H65.3164L69.0124 9.712H69.9564L73.6524 3.344H73.6844V12H75.0764V0.639999H73.6844L69.5084 7.984H69.4764L65.3004 0.639999H63.8924V12ZM81.2364 12.096C83.5404 12.096 85.2524 10.48 85.2524 8.112C85.2524 5.744 83.5404 4.112 81.2364 4.112C78.8204 4.112 77.2044 5.872 77.2044 8.112C77.2044 10.352 78.8204 12.096 81.2364 12.096ZM81.2364 10.912C79.6204 10.912 78.5324 9.664 78.5324 8.112C78.5324 6.56 79.6044 5.296 81.2364 5.296C82.7404 5.296 83.9244 6.448 83.9244 8.112C83.9244 9.776 82.7244 10.912 81.2364 10.912ZM91.2648 12.096C93.4088 12.096 95.0568 10.528 95.0568 8.16C95.0568 5.856 93.4728 4.112 91.2648 4.112C90.0807 4.112 89.0888 4.64 88.4968 5.568H88.4808V0.223999H87.1848V12H88.4168V10.592H88.4488C89.0248 11.52 89.9848 12.096 91.2648 12.096ZM91.0888 10.912C89.6008 10.912 88.4168 9.808 88.4168 8.16C88.4168 6.56 89.4888 5.296 91.0728 5.296C92.5448 5.296 93.7448 6.432 93.7448 8.16C93.7448 9.728 92.6568 10.912 91.0888 10.912ZM97.7649 2.784C98.2929 2.784 98.7089 2.368 98.7089 1.856C98.7089 1.344 98.2929 0.927999 97.7649 0.927999C97.2369 0.927999 96.8209 1.344 96.8209 1.856C96.8209 2.368 97.2369 2.784 97.7649 2.784ZM97.1089 12H98.4049V4.208H97.1089V12ZM101.031 12H102.327V0.223999H101.031V12ZM105.609 2.784C106.137 2.784 106.553 2.368 106.553 1.856C106.553 1.344 106.137 0.927999 105.609 0.927999C105.081 0.927999 104.665 1.344 104.665 1.856C104.665 2.368 105.081 2.784 105.609 2.784ZM104.953 12H106.249V4.208H104.953V12ZM110.971 12.096C111.899 12.096 112.427 11.872 112.859 11.616L112.523 10.48C112.139 10.688 111.659 10.88 111.195 10.88C110.459 10.88 110.251 10.432 110.251 9.488V5.328H112.827V4.208H110.251V1.408L108.955 1.552V4.208H107.947V5.328H108.955V9.68C108.955 11.248 109.595 12.096 110.971 12.096ZM115.616 15.168H116.96L121.376 4.208H120.016L117.664 10.128H117.632L115.104 4.208H113.696L117.008 11.696L115.616 15.168ZM132.733 12.096C135.917 12.096 138.397 9.776 138.397 6.32C138.397 2.848 135.917 0.528 132.733 0.528C129.421 0.528 127.021 2.944 127.021 6.32C127.021 9.696 129.421 12.096 132.733 12.096ZM132.733 10.784C130.269 10.784 128.477 8.88 128.477 6.32C128.477 3.744 130.269 1.84 132.733 1.84C135.085 1.84 136.941 3.68 136.941 6.32C136.941 8.944 135.085 10.784 132.733 10.784ZM143.922 12.096C145.906 12.096 147.73 10.976 147.73 8.896C147.73 6.768 146.114 6.256 144.21 5.504C142.786 4.96 141.762 4.56 141.778 3.472C141.794 2.384 142.738 1.808 143.81 1.808C144.658 1.808 145.634 2.208 146.546 2.96L147.394 1.856C146.322 0.992 145.074 0.528 143.81 0.528C141.858 0.528 140.338 1.84 140.338 3.536C140.338 5.536 142.05 6.256 143.73 6.88C145.25 7.456 146.274 7.792 146.274 9.056C146.274 10.16 145.33 10.8 143.938 10.8C142.834 10.8 141.618 10.288 140.802 9.264L139.906 10.336C141.042 11.552 142.498 12.096 143.922 12.096ZM150.324 5.808H151.204V1.424H152.676V0.639999H148.852V1.424H150.324V5.808ZM153.46 5.808H154.308V2.256L155.764 4.784H156.34L157.78 2.256V5.808H158.644V0.639999H157.748L156.052 3.744L154.356 0.639999H153.46V5.808Z" fill="white"/>
</svg>
