<svg xmlns="http://www.w3.org/2000/svg" viewBox="0 0 1440 874">
    <style>
@keyframes line_o { 0% { opacity: 1; } 100% { opacity: 1; } }
@keyframes a0_d { 0% { d: path('M0,0L1.5,0L1.5,9.2L1.5,25.1L1.5,31.7L0,31.7Z'); } 55.263% { d: path('M0,0L1.5,0L1.5,9.2L1.5,25.1L1.5,31.7L0,31.7Z'); animation-timing-function: cubic-bezier(0,0,0.6,1); } 68.421% { d: path('M0,0L202.7,0L202.7,9.2L202.7,25.1L202.7,31.7L0,31.7Z'); animation-timing-function: cubic-bezier(0,0,0,1); } 81.579% { d: path('M0,0L202.7,0L307,67.4L293.6,90.8L202.7,31.7L0,31.7Z'); } 100% { d: path('M0,0L202.7,0L307,67.4L293.6,90.8L202.7,31.7L0,31.7Z'); } }
@keyframes a1_w { 0% { width: 2px; } 78.947% { width: 2px; animation-timing-function: cubic-bezier(0,0,0.1,1); } 100% { width: 108.8px; } }
@keyframes a2_d { 0% { d: path('M0,0L0.9,0L0.9,5L0.9,15.5L0.9,21.5L0,21.5Z'); } 55.263% { d: path('M0,0L0.9,0L0.9,5L0.9,15.5L0.9,21.5L0,21.5Z'); animation-timing-function: cubic-bezier(0,0,0.6,1); } 68.421% { d: path('M0,0L220.6,0L220.6,5L220.6,15.5L220.6,21.5L0,21.5Z'); animation-timing-function: cubic-bezier(0,0,0,1); } 81.579% { d: path('M0,0L220.6,0L387.4,-98.5L399.5,-83L220.6,21.5L0,21.5Z'); } 100% { d: path('M0,0L220.6,0L387.4,-98.5L399.5,-83L220.6,21.5L0,21.5Z'); } }
@keyframes a3_w { 0% { width: 3.7px; } 78.947% { width: 3.7px; animation-timing-function: cubic-bezier(0.2,0.6,0,1); } 100% { width: 185.4px; } }
@keyframes a4_d { 0% { d: path('M0,0L1.4,0L1.4,10.6L0,10.6L0,8L0,2.5Z'); } 55.263% { d: path('M0,0L1.4,0L1.4,10.6L0,10.6L0,8L0,2.5Z'); animation-timing-function: cubic-bezier(0,0,0.6,1); } 68.421% { d: path('M-191,0L1.4,0L1.4,10.6L-191,10.6L-191,8L-191,2.5Z'); animation-timing-function: cubic-bezier(0,0,0,1); } 81.579% { d: path('M-191,0L1.4,0L1.4,10.6L-191,10.6L-325.6,96.2L-330.3,89.7Z'); } 100% { d: path('M-191,0L1.4,0L1.4,10.6L-191,10.6L-325.6,96.2L-330.3,89.7Z'); } }
@keyframes a5_w { 0% { width: 2.8px; } 78.947% { width: 2.8px; animation-timing-function: cubic-bezier(0.2,0.6,0,1); } 100% { width: 168.9px; } }
@keyframes a6_d { 0% { d: path('M0,0L1.3,0L1.3,11L0,11L0,8.2L0,2.7Z'); } 55.263% { d: path('M0,0L1.3,0L1.3,11L0,11L0,8.2L0,2.7Z'); animation-timing-function: cubic-bezier(0,0,0.6,1); } 68.421% { d: path('M-262.1,0L1.3,0L1.3,11L-262.1,11L-262.1,8.2L-262.1,2.7Z'); animation-timing-function: cubic-bezier(0,0,0,1); } 81.579% { d: path('M-262.1,0L1.3,0L1.3,11L-262.1,11L-455,-108.1L-450.9,-114.4Z'); } 100% { d: path('M-262.1,0L1.3,0L1.3,11L-262.1,11L-455,-108.1L-450.9,-114.4Z'); } }
@keyframes a7_w { 0% { width: 4.1px; } 78.947% { width: 4.1px; animation-timing-function: cubic-bezier(0.2,0.6,0.1,1); } 100% { width: 224px; } }
@keyframes a8_d { 0% { d: path('M0,0L1,0L1,2.3L1,6.2L1,8.8L0,8.8Z'); } 55.263% { d: path('M0,0L1,0L1,2.3L1,6.2L1,8.8L0,8.8Z'); animation-timing-function: cubic-bezier(0,0,0.6,1); } 68.421% { d: path('M0,0L194.1,0L194.1,2.3L194.1,6.2L194.1,8.8L0,8.8Z'); animation-timing-function: cubic-bezier(0,0,0,1); } 81.579% { d: path('M0,0L194.1,0L280.3,-168.1L284.1,-166L196,9.5L0,8.8Z'); } 100% { d: path('M0,0L194.1,0L280.3,-168.1L284.1,-166L196,9.5L0,8.8Z'); } }
@keyframes a9_w { 0% { width: 4.1px; } 78.947% { width: 4.1px; animation-timing-function: cubic-bezier(0.2,0.6,0.1,1); } 100% { width: 195.1px; } }
@keyframes a10_d { 0% { d: path('M0,0L4,0L4,3.7L4,8.5L4,13.1L0,13.1Z'); } 55.263% { d: path('M0,0L4,0L4,3.7L4,8.5L4,13.1L0,13.1Z'); } 68.421% { d: path('M0,0L260.2,0L260.2,3.7L260.2,8.5L260.2,13.1L0,13.1Z'); } 81.579% { d: path('M0,0L260.2,0L488.4,-169.6L494,-162.1L260.2,13.1L0,13.1Z'); } 100% { d: path('M0,0L260.2,0L488.4,-169.6L494,-162.1L260.2,13.1L0,13.1Z'); } }
@keyframes a11_w { 0% { width: 2.5px; } 78.947% { width: 2.5px; animation-timing-function: cubic-bezier(0.2,0.6,0.4,1); } 100% { width: 287.7px; } }
@keyframes a12_d { 0% { d: path('M0,0L1,0L1,13.7L0,13.7L0,9.9L0,3.3Z'); } 55.263% { d: path('M0,0L1,0L1,13.7L0,13.7L0,9.9L0,3.3Z'); animation-timing-function: cubic-bezier(0,0,0.6,1); } 68.421% { d: path('M-259,0L1,0L1,13.7L-259,13.7L-259,9.9L-259,3.3Z'); animation-timing-function: cubic-bezier(0,0,0,1); } 81.579% { d: path('M-259,0L1,0L1,13.7L-259,13.7L-506.7,-142L-501.8,-150Z'); } 100% { d: path('M-259,0L1,0L1,13.7L-259,13.7L-506.7,-142L-501.8,-150Z'); } }
@keyframes a13_w { 0% { width: 2.5px; } 78.947% { width: 2.5px; animation-timing-function: cubic-bezier(0.2,0.6,0.4,1); } 100% { width: 287.7px; } }
@keyframes a14_d { 0% { d: path('M-0.7,0L1.9,0L1.9,7.8L1.9,24.7L1.9,33.1L-0.7,33.1Z'); } 55.263% { d: path('M-0.7,0L1.9,0L1.9,7.8L1.9,24.7L1.9,33.1L-0.7,33.1Z'); animation-timing-function: cubic-bezier(0,0,0.6,1); } 68.421% { d: path('M-0.7,0L216.4,0L216.4,7.8L216.4,24.7L216.4,33.1L-0.7,33.1Z'); animation-timing-function: cubic-bezier(0,0,0,1); } 81.579% { d: path('M-0.7,0L216.4,0L319.9,250.6L314.5,262.8L216.4,33.1L-0.7,33.1Z'); } 100% { d: path('M-0.7,0L216.4,0L319.9,250.6L314.5,262.8L216.4,33.1L-0.7,33.1Z'); } }
@keyframes a15_w { 0% { width: 2.7px; } 78.947% { width: 2.7px; animation-timing-function: cubic-bezier(0.2,0.6,0.2,1); } 100% { width: 153.6px; } }
    </style>
    <defs>
        <filter id="filter0_d" x="104.5" y="54.5" width="509.5" height="291.5" filterUnits="userSpaceOnUse" color-interpolation-filters="sRGB" fill="none">
            <feFlood flood-opacity="0" result="BackgroundImageFix"/>
            <feColorMatrix in="SourceAlpha" values="0 0 0 0 0 0 0 0 0 0 0 0 0 0 0 0 0 0 127 0"/>
            <feOffset dy="4"/>
            <feGaussianBlur stdDeviation="43"/>
            <feColorMatrix values="0 0 0 0 0.12 0 0 0 0 0.12 0 0 0 0 0.12 0 0 0 0.1 0"/>
            <feBlend in2="BackgroundImageFix" result="effect1_dropShadow"/>
            <feBlend in="SourceGraphic" in2="effect1_dropShadow" result="shape"/>
        </filter>
        <filter id="filter1_d" x="425" y="157" width="189" height="189" filterUnits="userSpaceOnUse" color-interpolation-filters="sRGB" fill="none">
            <feFlood flood-opacity="0" result="BackgroundImageFix"/>
            <feColorMatrix in="SourceAlpha" values="0 0 0 0 0 0 0 0 0 0 0 0 0 0 0 0 0 0 127 0"/>
            <feOffset dy="4"/>
            <feGaussianBlur stdDeviation="43"/>
            <feColorMatrix values="0 0 0 0 0.12 0 0 0 0 0.12 0 0 0 0 0.12 0 0 0 0.1 0"/>
            <feBlend in2="BackgroundImageFix" result="effect1_dropShadow"/>
            <feBlend in="SourceGraphic" in2="effect1_dropShadow" result="shape"/>
        </filter>
        <clipPath id="ClipPath-1">
            <path fill="none" stroke="#ff0000" stroke-linecap="round" d="M0,0L1.5,0L1.5,9.2L1.5,25.1L1.5,31.7L0,31.7Z" stroke-width="2" transform="translate(1093.9,388.6) rotate(-33.3) translate(-133.8,-17.6)" style="animation: 3.8s linear infinite both a0_d;"/>
        </clipPath>
        <clipPath id="ClipPath-10">
            <rect width="2" height="28.4" fill="#ffffff" transform="translate(-2.5,-22.3)" style="animation: 3.8s linear infinite both a1_w;"/>
        </clipPath>
        <clipPath id="ClipPath-3">
            <path fill="none" stroke="#ffffff" stroke-linecap="round" d="M0,0L0.9,0L0.9,5L0.9,15.5L0.9,21.5L0,21.5Z" transform="translate(599.4,201.1) rotate(33.5) scale(0.882,1) translate(-130,-10.8)" style="animation: 3.8s linear infinite both a2_d;"/>
        </clipPath>
        <clipPath id="ClipPath-15">
            <rect width="3.7" height="33" fill="#ffffff" transform="translate(-4.1,-23.5)" style="animation: 3.8s linear infinite both a3_w;"/>
        </clipPath>
        <clipPath id="ClipPath-4">
            <path fill="#616161" d="M0,0L1.4,0L1.4,10.6L0,10.6L0,8L0,2.5Z" transform="translate(451,199.8) rotate(32.9) scale(1,1.003) translate(74.3,-2.8)" style="animation: 3.8s linear infinite both a4_d;"/>
        </clipPath>
        <clipPath id="ClipPath-16">
            <rect width="2.8" height="31.2" fill="#ffffff" transform="translate(-2.4,-22.4)" style="animation: 3.8s linear infinite both a5_w;"/>
        </clipPath>
        <clipPath id="ClipPath-5">
            <path fill="none" stroke="#ffffff" stroke-linecap="round" d="M0,0L1.3,0L1.3,11L0,11L0,8.2L0,2.7Z" transform="translate(1081,733.5) rotate(-31.7) translate(114.5,-5.5)" style="animation: 3.8s linear infinite both a6_d;"/>
        </clipPath>
        <clipPath id="ClipPath-14">
            <rect width="4.1" height="30.6" fill="#ffffff" transform="translate(-2.9,-21.7)" style="animation: 3.8s linear infinite both a7_w;"/>
        </clipPath>
        <clipPath id="ClipPath-8">
            <path fill="none" stroke="#ffffff" stroke-linecap="round" d="M0,0L1,0L1,2.3L1,6.2L1,8.8L0,8.8Z" transform="translate(664.5,680.3) rotate(63.1) translate(-99.7,-3.8)" style="animation: 3.8s linear infinite both a8_d;"/>
        </clipPath>
        <clipPath id="ClipPath-13">
            <rect width="4.1" height="32.2" fill="#ffffff" transform="translate(-5,-23.7)" style="animation: 3.8s linear infinite both a9_w;"/>
        </clipPath>
        <clipPath id="ClipPath-7">
            <path fill="none" stroke="#ffffff" stroke-linecap="round" d="M0,0L4,0L4,3.7L4,8.5L4,13.1L0,13.1Z" transform="translate(469.3,732.9) rotate(36.5) translate(-148,-1.4)" style="animation: 3.8s linear infinite both a10_d;"/>
        </clipPath>
        <clipPath id="ClipPath-12">
            <rect width="2.5" height="31.4" fill="#ffffff" transform="translate(-3.1,-21.3)" style="animation: 3.8s linear infinite both a11_w;"/>
        </clipPath>
        <clipPath id="ClipPath-6">
            <path fill="#ffffff" d="M0,0L1,0L1,13.7L0,13.7L0,9.9L0,3.3Z" transform="translate(940.5,741.6) rotate(-31.9) translate(143.2,-6.8)" style="animation: 3.8s linear infinite both a12_d;"/>
        </clipPath>
        <clipPath id="ClipPath-11">
            <rect width="2.5" height="31.4" fill="#ffffff" transform="translate(-3.1,-21.3)" style="animation: 3.8s linear infinite both a13_w;"/>
        </clipPath>
        <clipPath id="ClipPath-2">
            <path fill="none" stroke="#ffffff" stroke-linecap="round" d="M-0.7,0L1.9,0L1.9,7.8L1.9,24.7L1.9,33.1L-0.7,33.1Z" transform="translate(853.3,312.2) rotate(-49.5) scale(1,0.483) translate(-62.3,-16.2)" style="animation: 3.8s linear infinite both a14_d;"/>
        </clipPath>
        <clipPath id="ClipPath-9">
            <rect width="2.7" height="34" fill="#ffffff" transform="translate(-3.3,-27.3)" style="animation: 3.8s linear infinite both a15_w;"/>
        </clipPath>
    </defs>
    <path fill="#616161" d="M-0.6,-1L1439.8,-1L1439.8,875.1L-0.6,875.1Z"/>
    <g id="IoT" transform="translate(968.5,353)">
        <ellipse id="static-circle" cx="8" cy="115.5" stroke="white" rx="8" ry="8" fill="#ffffff"/>
        <path id="line" d="M983,463L1093,391.9L1153.1,353L1255.5,353" stroke="white" stroke-linecap="round" fill="none" clip-path="url(#ClipPath-1)" transform="translate(-968.5,-353)" style="animation: 3.8s linear infinite both line_o;"/>
        <path fill="#ffffff" d="M1.8,0L4.2,0L4.2,-14.2L1.8,-14.2ZM7.5,0L9.8,0L9.8,-4.9C9.8,-6.8,10.8,-7.9,12.3,-7.9C13.6,-7.9,14.4,-7.2,14.4,-5.2L14.4,0L16.7,0L16.7,-5.7C16.7,-8.7,15.2,-9.9,13.1,-9.9C11.8,-9.9,10.6,-9.4,9.8,-8.4L9.8,-8.4L9.8,-9.8L7.5,-9.8ZM19,-5.1L25,-5.1L25,-7.3L19,-7.3ZM32.9,0.2C35.6,0.2,37.6,-1.8,37.6,-4.8C37.6,-7.8,35.6,-9.9,32.9,-9.9C31.6,-9.9,30.6,-9.5,29.8,-8.6L29.8,-8.6L29.8,-14.7L27.5,-14.7L27.5,0L29.7,0L29.7,-1.3L29.7,-1.3C30.4,-0.4,31.5,0.2,32.9,0.2ZM32.5,-1.9C30.9,-1.9,29.7,-3.1,29.7,-4.8C29.7,-6.6,30.8,-7.9,32.5,-7.9C34.1,-7.9,35.3,-6.7,35.3,-4.8C35.3,-3.1,34.2,-1.9,32.5,-1.9ZM43.4,0.2C44.5,0.2,45.6,-0.3,46.4,-1.2L46.4,-1.2L46.4,0L48.7,0L48.7,-9.8L46.4,-9.8L46.4,-5.1C46.4,-3,45.2,-1.9,43.9,-1.9C42.6,-1.9,42,-2.5,42,-4.4L42,-9.8L39.8,-9.8L39.8,-3.8C39.8,-0.9,41.3,0.2,43.4,0.2ZM52.8,-11.2C53.6,-11.2,54.3,-11.9,54.3,-12.7C54.3,-13.5,53.6,-14.2,52.8,-14.2C51.9,-14.2,51.3,-13.5,51.3,-12.7C51.3,-11.9,51.9,-11.2,52.8,-11.2ZM51.7,0L53.9,0L53.9,-9.8L51.7,-9.8ZM57.1,0L59.3,0L59.3,-14.7L57.1,-14.7ZM65.3,0.2C66.6,0.2,67.2,-0.1,67.8,-0.4L67.2,-2.4C66.7,-2.1,66.1,-1.9,65.8,-1.9C65.1,-1.9,64.8,-2.3,64.8,-3.3L64.8,-7.9L67.7,-7.9L67.7,-9.8L64.8,-9.8L64.8,-13.2L62.6,-13L62.6,-9.8L61.4,-9.8L61.4,-7.9L62.6,-7.9L62.6,-3.1C62.6,-0.9,63.6,0.2,65.3,0.2ZM75.4,0L77.8,0L77.8,-14.2L75.4,-14.2ZM85.7,0.2C88.7,0.2,90.8,-1.9,90.8,-4.9C90.8,-7.9,88.7,-9.9,85.7,-9.9C82.6,-9.9,80.6,-7.7,80.6,-4.9C80.6,-2,82.6,0.2,85.7,0.2ZM85.7,-1.9C84,-1.9,82.8,-3.2,82.8,-4.9C82.8,-6.6,84,-7.9,85.7,-7.9C87.3,-7.9,88.5,-6.7,88.5,-4.9C88.5,-3.1,87.3,-1.9,85.7,-1.9ZM94.4,0L96.8,0L96.8,-12L100.9,-12L100.9,-14.2L90.4,-14.2L90.4,-12L94.4,-12Z" clip-path="url(#ClipPath-10)" transform="translate(185.8,-14.3)"/>
    </g>
    <g id="LCD" transform="translate(489.5,124.5)">
        <ellipse cx="8" cy="8" stroke="white" rx="8" ry="8" fill="#ffffff"/>
        <path d="M504,138L667.1,244L847,244" stroke="white" stroke-linecap="round" fill="none" clip-path="url(#ClipPath-3)" transform="translate(-489.5,-124.5)"/>
        <path fill="#ffffff" d="M0.5,-13.7L0.5,-11.6L6.4,-11.6L1.6,-0.2L4,0.3L9,-12.2L9,-13.7ZM10.7,-5.1L16.7,-5.1L16.7,-7.3L10.7,-7.3ZM20.5,-11.2C21.3,-11.2,22,-11.9,22,-12.7C22,-13.5,21.3,-14.2,20.5,-14.2C19.6,-14.2,19,-13.5,19,-12.7C19,-11.9,19.6,-11.2,20.5,-11.2ZM19.3,0L21.6,0L21.6,-9.8L19.3,-9.8ZM24.6,0L26.9,0L26.9,-4.9C26.9,-6.8,27.9,-7.9,29.4,-7.9C30.7,-7.9,31.5,-7.2,31.5,-5.2L31.5,0L33.8,0L33.8,-5.7C33.8,-8.7,32.3,-9.9,30.2,-9.9C28.9,-9.9,27.7,-9.4,26.9,-8.4L26.9,-8.4L26.9,-9.8L24.6,-9.8ZM40.9,0.2C43,0.2,44.3,-0.6,45.1,-1.7L43.6,-3C43.1,-2.4,42.2,-1.9,41.1,-1.9C39.4,-1.9,38.2,-3.1,38.2,-4.9C38.2,-6.7,39.4,-7.9,41.1,-7.9C42.2,-7.9,43,-7.4,43.6,-6.8L45.1,-8.1C44.1,-9.3,42.5,-9.9,41,-9.9C38,-9.9,35.9,-7.9,35.9,-4.9C35.9,-1.9,38,0.2,40.9,0.2ZM47.1,0L49.4,0L49.4,-5C49.4,-6.9,50.4,-7.9,52,-7.9C53.3,-7.9,54.1,-7.2,54.1,-5.3L54.1,0L56.4,0L56.4,-5.8C56.4,-8.8,54.9,-9.9,52.7,-9.9C51.4,-9.9,50.2,-9.4,49.4,-8.5L49.4,-8.5L49.4,-14.7L47.1,-14.7ZM64.7,0L73.7,0L73.7,-2.2L67.1,-2.2L67.1,-14.2L64.7,-14.2ZM82.2,0.1C84.7,0.1,86.5,-1,87.8,-2.6L86,-4.1C85.1,-3,83.8,-2.1,82.2,-2.1C79.5,-2.1,77.5,-4.1,77.5,-7.1C77.5,-10.1,79.4,-12.1,82.1,-12.1C83.6,-12.1,84.9,-11.4,85.9,-10.1L87.7,-11.6C86.2,-13.5,84.2,-14.4,82.1,-14.4C77.6,-14.4,75,-11.1,75,-7.1C75,-2.4,78.3,0.1,82.2,0.1ZM90.2,0L94.8,0C99.3,0,102.1,-2.9,102.1,-7.1C102.1,-11.3,99.2,-14.2,94.7,-14.2L90.2,-14.2ZM92.6,-2.2L92.6,-12L94.8,-12C97.6,-12,99.6,-10,99.6,-7.1C99.6,-4.3,97.6,-2.2,94.6,-2.2ZM114.1,0.2C115.5,0.2,116.6,-0.4,117.3,-1.3L117.3,-1.3L117.3,0L119.5,0L119.5,-14.7L117.3,-14.7L117.3,-8.6L117.2,-8.6C116.5,-9.4,115.4,-9.9,114.1,-9.9C111.4,-9.9,109.4,-7.8,109.4,-4.8C109.4,-1.8,111.4,0.2,114.1,0.2ZM114.5,-1.9C112.8,-1.9,111.7,-3.1,111.7,-4.8C111.7,-6.7,112.9,-7.9,114.5,-7.9C116.2,-7.9,117.3,-6.6,117.3,-4.8C117.3,-3.1,116.1,-1.9,114.5,-1.9ZM123.7,-11.2C124.5,-11.2,125.2,-11.9,125.2,-12.7C125.2,-13.5,124.5,-14.2,123.7,-14.2C122.8,-14.2,122.2,-13.5,122.2,-12.7C122.2,-11.9,122.8,-11.2,123.7,-11.2ZM122.6,0L124.8,0L124.8,-9.8L122.6,-9.8ZM131,0.2C133.5,0.2,134.6,-1.2,134.6,-2.8C134.6,-4.7,133.3,-5.1,131.2,-5.9C130.3,-6.3,129.7,-6.6,129.7,-7.1C129.7,-7.7,130.3,-8,130.8,-8C131.5,-8,132.4,-7.7,133.2,-6.9L134.3,-8.7C133.2,-9.6,132.1,-9.9,130.9,-9.9C128.9,-9.9,127.4,-8.7,127.4,-7.1C127.4,-5.2,128.8,-4.5,130.4,-3.9C131.7,-3.5,132.3,-3.3,132.3,-2.8C132.3,-2.2,131.8,-1.8,131,-1.8C129.8,-1.8,128.9,-2.2,128.2,-2.9L127,-1.3C128.1,-0.4,129.4,0.2,131,0.2ZM136.8,4L139.1,4L139.1,-1.2L139.1,-1.2C139.8,-0.3,140.9,0.2,142.2,0.2C144.9,0.2,146.9,-1.8,146.9,-4.8C146.9,-7.8,144.9,-9.9,142.2,-9.9C140.9,-9.9,139.8,-9.4,139.1,-8.6L139.1,-8.6L139.1,-9.8L136.8,-9.8ZM141.8,-1.9C140.2,-1.9,139,-3.1,139,-4.8C139,-6.6,140.1,-7.9,141.8,-7.9C143.4,-7.9,144.6,-6.7,144.6,-4.8C144.6,-3.1,143.5,-1.9,141.8,-1.9ZM149.4,0L151.6,0L151.6,-14.7L149.4,-14.7ZM158.8,0.2C160.2,0.2,161.2,-0.4,161.9,-1.3L162,-1.3L162,0L164.1,0L164.1,-9.8L161.9,-9.8L161.9,-8.6L161.8,-8.6C161.1,-9.4,160,-9.9,158.8,-9.9C156.1,-9.9,154.1,-7.8,154.1,-4.8C154.1,-1.8,156.1,0.2,158.8,0.2ZM159.2,-1.9C157.5,-1.9,156.4,-3.1,156.4,-4.8C156.4,-6.7,157.6,-7.9,159.2,-7.9C160.8,-7.9,162,-6.6,162,-4.8C162,-3.1,160.7,-1.9,159.2,-1.9ZM168.1,4L170.4,4L175.8,-9.8L173.5,-9.8L171,-3.2L170.9,-3.2L168.2,-9.8L165.8,-9.8L169.8,-0.5Z" clip-path="url(#ClipPath-15)" transform="translate(181.8,105.5)"/>
    </g>
    <g id="Alarm" filter="url(#filter0_d)" fill="none">
        <path d="M512.5,243L349.4,137L191,137" stroke="white" stroke-linecap="round" clip-path="url(#ClipPath-4)"/>
        <g filter="url(#filter1_d)">
            <ellipse cx="519.5" cy="247.5" stroke="white" rx="8" ry="8" fill="#ffffff"/>
        </g>
        <path fill="#ffffff" d="M1.8,0L4.2,0L4.2,-9.5L4.2,-9.5L8.1,-2.7L9.7,-2.7L13.5,-9.5L13.6,-9.5L13.6,0L16,0L16,-14.2L13.6,-14.2L8.9,-5.7L8.9,-5.7L4.2,-14.2L1.8,-14.2ZM23.7,0.2C26.7,0.2,28.9,-1.9,28.9,-4.9C28.9,-7.9,26.7,-9.9,23.7,-9.9C20.7,-9.9,18.6,-7.7,18.6,-4.9C18.6,-2,20.7,0.2,23.7,0.2ZM23.7,-1.9C22.1,-1.9,20.9,-3.2,20.9,-4.9C20.9,-6.6,22,-7.9,23.7,-7.9C25.3,-7.9,26.6,-6.7,26.6,-4.9C26.6,-3.1,25.3,-1.9,23.7,-1.9ZM33.4,0L35.6,0L39.5,-9.8L37.1,-9.8L34.5,-2.8L34.5,-2.8L32,-9.8L29.6,-9.8ZM49.7,-5C49.7,-7.8,47.8,-9.9,45.1,-9.9C42.2,-9.9,40.2,-7.9,40.2,-4.9C40.2,-1.8,42.3,0.2,45.2,0.2C47.3,0.2,48.5,-0.6,49.4,-1.7L47.8,-3C47.3,-2.4,46.5,-1.9,45.3,-1.9C43.8,-1.9,42.8,-2.7,42.5,-4.1L49.6,-4.1C49.6,-4.3,49.7,-4.6,49.7,-5ZM45,-7.9C46.3,-7.9,47.1,-7.1,47.4,-5.9L42.5,-5.9C42.8,-7.2,43.8,-7.9,45,-7.9ZM52,0L54.2,0L54.2,-4.9C54.2,-6.8,55.2,-7.9,56.6,-7.9C57.9,-7.9,58.5,-6.8,58.5,-5.1L58.5,0L60.7,0L60.7,-4.9C60.7,-6.8,61.8,-7.9,63,-7.9C64.3,-7.9,64.9,-6.8,64.9,-5.1L64.9,0L67.2,0L67.2,-5.6C67.2,-8.6,65.9,-9.9,63.7,-9.9C62.3,-9.9,61.1,-9.3,60.2,-8.3L60.2,-8.3C59.6,-9.4,58.6,-9.9,57.3,-9.9C56.2,-9.9,55,-9.4,54.2,-8.4L54.2,-8.4L54.2,-9.8L52,-9.8ZM78.8,-5C78.8,-7.8,77,-9.9,74.2,-9.9C71.4,-9.9,69.3,-7.9,69.3,-4.9C69.3,-1.8,71.4,0.2,74.4,0.2C76.5,0.2,77.7,-0.6,78.5,-1.7L77,-3C76.5,-2.4,75.7,-1.9,74.5,-1.9C73,-1.9,71.9,-2.7,71.7,-4.1L78.8,-4.1C78.8,-4.3,78.8,-4.6,78.8,-5ZM74.2,-7.9C75.5,-7.9,76.3,-7.1,76.6,-5.9L71.7,-5.9C72,-7.2,73,-7.9,74.2,-7.9ZM81.1,0L83.4,0L83.4,-4.9C83.4,-6.8,84.4,-7.9,85.9,-7.9C87.2,-7.9,88,-7.2,88,-5.2L88,0L90.3,0L90.3,-5.7C90.3,-8.7,88.8,-9.9,86.7,-9.9C85.4,-9.9,84.2,-9.4,83.4,-8.4L83.4,-8.4L83.4,-9.8L81.1,-9.8ZM95.9,0.2C97.2,0.2,97.8,-0.1,98.4,-0.4L97.8,-2.4C97.3,-2.1,96.7,-1.9,96.4,-1.9C95.7,-1.9,95.4,-2.3,95.4,-3.3L95.4,-7.9L98.3,-7.9L98.3,-9.8L95.4,-9.8L95.4,-13.2L93.2,-13L93.2,-9.8L92,-9.8L92,-7.9L93.2,-7.9L93.2,-3.1C93.2,-0.9,94.2,0.2,95.9,0.2ZM109.8,0.2C111.1,0.2,112.2,-0.4,112.9,-1.3L112.9,-1.3L112.9,0L115.1,0L115.1,-9.8L112.8,-9.8L112.8,-8.6L112.8,-8.6C112.1,-9.4,111,-9.9,109.8,-9.9C107.1,-9.9,105.1,-7.8,105.1,-4.8C105.1,-1.8,107.1,0.2,109.8,0.2ZM110.1,-1.9C108.5,-1.9,107.3,-3.1,107.3,-4.8C107.3,-6.7,108.6,-7.9,110.1,-7.9C111.7,-7.9,112.9,-6.6,112.9,-4.8C112.9,-3.1,111.7,-1.9,110.1,-1.9ZM118,0L120.3,0L120.3,-14.7L118,-14.7ZM127.4,0.2C128.8,0.2,129.8,-0.4,130.5,-1.3L130.6,-1.3L130.6,0L132.7,0L132.7,-9.8L130.5,-9.8L130.5,-8.6L130.4,-8.6C129.7,-9.4,128.7,-9.9,127.4,-9.9C124.7,-9.9,122.7,-7.8,122.7,-4.8C122.7,-1.8,124.7,0.2,127.4,0.2ZM127.8,-1.9C126.1,-1.9,125,-3.1,125,-4.8C125,-6.7,126.2,-7.9,127.8,-7.9C129.4,-7.9,130.6,-6.6,130.6,-4.8C130.6,-3.1,129.3,-1.9,127.8,-1.9ZM135.5,0L137.8,0L137.8,-4.6C137.8,-6.2,138.7,-7.4,140.4,-7.4C140.6,-7.4,140.9,-7.4,141.1,-7.4L141.1,-9.9L140.8,-9.9C139.7,-9.9,138.6,-9.3,137.8,-8.3L137.8,-8.3L137.8,-9.8L135.5,-9.8ZM143,0L145.2,0L145.2,-4.9C145.2,-6.8,146.2,-7.9,147.6,-7.9C148.9,-7.9,149.5,-6.8,149.5,-5.1L149.5,0L151.7,0L151.7,-4.9C151.7,-6.8,152.8,-7.9,154,-7.9C155.3,-7.9,155.9,-6.8,155.9,-5.1L155.9,0L158.2,0L158.2,-5.6C158.2,-8.6,156.9,-9.9,154.7,-9.9C153.3,-9.9,152.1,-9.3,151.2,-8.3L151.2,-8.3C150.6,-9.4,149.6,-9.9,148.3,-9.9C147.2,-9.9,146,-9.4,145.2,-8.4L145.2,-8.4L145.2,-9.8L143,-9.8Z" clip-path="url(#ClipPath-16)" transform="translate(188.7,123.3)"/>
    </g>
    <g id="Hub-Motor" transform="translate(735,659.5)">
        <ellipse cx="450.5" cy="8" stroke="white" rx="8" ry="8" fill="#ffffff"/>
        <path d="M1179,673L956,812L735,812" stroke="white" stroke-linecap="round" fill="none" clip-path="url(#ClipPath-5)" transform="translate(-735,-659.5)"/>
        <path fill="#ffffff" d="M1.8,0L4.2,0L4.2,-9.5L4.2,-9.5L8.1,-2.7L9.7,-2.7L13.5,-9.5L13.6,-9.5L13.6,0L16,0L16,-14.2L13.6,-14.2L8.9,-5.7L8.9,-5.7L4.2,-14.2L1.8,-14.2ZM23.3,0.2C24.7,0.2,25.7,-0.4,26.4,-1.3L26.5,-1.3L26.5,0L28.6,0L28.6,-9.8L26.4,-9.8L26.4,-8.6L26.3,-8.6C25.6,-9.4,24.5,-9.9,23.3,-9.9C20.6,-9.9,18.6,-7.8,18.6,-4.8C18.6,-1.8,20.6,0.2,23.3,0.2ZM23.7,-1.9C22,-1.9,20.9,-3.1,20.9,-4.8C20.9,-6.7,22.1,-7.9,23.7,-7.9C25.3,-7.9,26.5,-6.6,26.5,-4.8C26.5,-3.1,25.2,-1.9,23.7,-1.9ZM30.5,0L33,0L35.2,-3.1L35.2,-3.1L37.5,0L40,0L36.5,-5L39.9,-9.8L37.3,-9.8L35.2,-6.7L35.2,-6.7L33.1,-9.8L30.5,-9.8L33.9,-5ZM46.7,0L55.5,0L55.5,-2.1L50.2,-2.1L50.2,-2.2L53.1,-5.2C54.8,-7,55.4,-8.3,55.4,-9.8C55.4,-12.3,53.3,-13.9,51.1,-13.9C48.8,-13.9,47.4,-12.7,46.6,-11.3L48.3,-10.1C48.9,-11.2,49.8,-11.7,50.9,-11.7C52.2,-11.7,53,-10.8,53,-9.6C53,-8.4,52.2,-7.4,51.1,-6.2L46.7,-1.5ZM61.9,0.2C64.5,0.2,66.5,-1.4,66.5,-3.7C66.5,-5.3,65.6,-6.5,64.3,-7.1L64.3,-7.2C65.4,-7.8,66.1,-8.9,66.1,-10.2C66.1,-12.6,64.1,-13.9,61.7,-13.9C59.7,-13.9,58.2,-12.9,57.6,-11.5L59.4,-10.5C59.9,-11.2,60.5,-11.7,61.7,-11.7C62.8,-11.7,63.7,-11,63.7,-9.9C63.7,-8.9,63.2,-8.1,61.7,-8.1L60.5,-8.1L60.5,-6.1L61.5,-6.1C63.2,-6.1,64.1,-5.1,64.1,-4C64.1,-2.8,63,-2,61.7,-2C60.4,-2,59.5,-2.6,59.1,-3.6L57.1,-2.8C57.7,-1.1,59.5,0.2,61.9,0.2ZM73.8,0.2C77.1,0.2,79.1,-2.7,79.1,-6.9C79.1,-11.3,76.9,-13.9,73.8,-13.9C70.5,-13.9,68.5,-11,68.5,-6.9C68.5,-2.4,70.7,0.2,73.8,0.2ZM73.8,-2C72.1,-2,70.9,-3.8,70.9,-6.9C70.9,-9.9,72,-11.7,73.8,-11.7C75.6,-11.7,76.7,-9.9,76.7,-6.9C76.7,-3.8,75.7,-2,73.8,-2ZM86.5,0.2C89.8,0.2,91.7,-2.7,91.7,-6.9C91.7,-11.3,89.6,-13.9,86.5,-13.9C83.2,-13.9,81.2,-11,81.2,-6.9C81.2,-2.4,83.4,0.2,86.5,0.2ZM86.5,-2C84.7,-2,83.5,-3.8,83.5,-6.9C83.5,-9.9,84.7,-11.7,86.5,-11.7C88.3,-11.7,89.4,-9.9,89.4,-6.9C89.4,-3.8,88.3,-2,86.5,-2ZM97.1,0L99.4,0L102.3,-10.7L102.4,-10.7L105.3,0L107.5,0L112,-14.2L109.5,-14.2L106.4,-4L106.4,-4L103.6,-14.2L101,-14.2L98.3,-4L98.2,-4L95.2,-14.2L92.6,-14.2ZM119.5,0L121.7,0L121.7,-5C121.7,-6.9,122.7,-7.9,124.4,-7.9C125.7,-7.9,126.5,-7.2,126.5,-5.3L126.5,0L128.7,0L128.7,-5.8C128.7,-8.8,127.2,-9.9,125.1,-9.9C123.8,-9.9,122.6,-9.4,121.8,-8.5L121.7,-8.5L121.7,-14.7L119.5,-14.7ZM134.9,0.2C136,0.2,137.1,-0.3,137.9,-1.2L137.9,-1.2L137.9,0L140.2,0L140.2,-9.8L137.9,-9.8L137.9,-5.1C137.9,-3,136.7,-1.9,135.4,-1.9C134.1,-1.9,133.5,-2.5,133.5,-4.4L133.5,-9.8L131.2,-9.8L131.2,-3.8C131.2,-0.9,132.7,0.2,134.9,0.2ZM148.3,0.2C151.1,0.2,153.1,-1.8,153.1,-4.8C153.1,-7.8,151.1,-9.9,148.4,-9.9C147.1,-9.9,146,-9.5,145.3,-8.6L145.2,-8.6L145.2,-14.7L143,-14.7L143,0L145.1,0L145.1,-1.3L145.2,-1.3C145.9,-0.4,146.9,0.2,148.3,0.2ZM148,-1.9C146.4,-1.9,145.1,-3.1,145.1,-4.8C145.1,-6.6,146.3,-7.9,148,-7.9C149.5,-7.9,150.8,-6.7,150.8,-4.8C150.8,-3.1,149.6,-1.9,148,-1.9ZM160.8,0L163,0L163,-4.9C163,-6.8,164,-7.9,165.4,-7.9C166.7,-7.9,167.3,-6.8,167.3,-5.1L167.3,0L169.5,0L169.5,-4.9C169.5,-6.8,170.6,-7.9,171.8,-7.9C173.1,-7.9,173.7,-6.8,173.7,-5.1L173.7,0L176,0L176,-5.6C176,-8.6,174.7,-9.9,172.5,-9.9C171.1,-9.9,169.9,-9.3,169,-8.3L169,-8.3C168.4,-9.4,167.4,-9.9,166.1,-9.9C165,-9.9,163.8,-9.4,163,-8.4L163,-8.4L163,-9.8L160.8,-9.8ZM183.3,0.2C186.3,0.2,188.4,-1.9,188.4,-4.9C188.4,-7.9,186.3,-9.9,183.3,-9.9C180.2,-9.9,178.1,-7.7,178.1,-4.9C178.1,-2,180.2,0.2,183.3,0.2ZM183.3,-1.9C181.6,-1.9,180.4,-3.2,180.4,-4.9C180.4,-6.6,181.6,-7.9,183.3,-7.9C184.9,-7.9,186.1,-6.7,186.1,-4.9C186.1,-3.1,184.8,-1.9,183.3,-1.9ZM193.6,0.2C194.9,0.2,195.5,-0.1,196.1,-0.4L195.5,-2.4C195,-2.1,194.5,-1.9,194.1,-1.9C193.4,-1.9,193.1,-2.3,193.1,-3.3L193.1,-7.9L196,-7.9L196,-9.8L193.1,-9.8L193.1,-13.2L190.9,-13L190.9,-9.8L189.7,-9.8L189.7,-7.9L190.9,-7.9L190.9,-3.1C190.9,-0.9,191.9,0.2,193.6,0.2ZM202.1,0.2C205.1,0.2,207.2,-1.9,207.2,-4.9C207.2,-7.9,205.1,-9.9,202.1,-9.9C199,-9.9,197,-7.7,197,-4.9C197,-2,199,0.2,202.1,0.2ZM202.1,-1.9C200.4,-1.9,199.3,-3.2,199.3,-4.9C199.3,-6.6,200.4,-7.9,202.1,-7.9C203.7,-7.9,204.9,-6.7,204.9,-4.9C204.9,-3.1,203.7,-1.9,202.1,-1.9ZM209.6,0L211.8,0L211.8,-4.6C211.8,-6.2,212.8,-7.4,214.5,-7.4C214.6,-7.4,214.9,-7.4,215.1,-7.4L215.1,-9.9L214.9,-9.9C213.7,-9.9,212.6,-9.3,211.8,-8.3L211.8,-8.3L211.8,-9.8L209.6,-9.8Z" clip-path="url(#ClipPath-14)" transform="translate(0.3,138.5)"/>
    </g>
    <g id="Battery" transform="translate(607.5,576.5)">
        <ellipse cx="8" cy="8" stroke="white" rx="8" ry="8" fill="#ffffff"/>
        <path d="M619,592L705.1,766L898,766" stroke="white" stroke-linecap="round" fill="none" clip-path="url(#ClipPath-8)" transform="translate(-607.5,-576.5)"/>
        <path fill="#ffffff" d="M1.7,0L10.7,0L10.7,-2.2L4.2,-2.2L4.2,-14.2L1.7,-14.2ZM14.2,-11.2C15,-11.2,15.7,-11.9,15.7,-12.7C15.7,-13.5,15,-14.2,14.2,-14.2C13.3,-14.2,12.7,-13.5,12.7,-12.7C12.7,-11.9,13.3,-11.2,14.2,-11.2ZM13.1,0L15.3,0L15.3,-9.8L13.1,-9.8ZM22.7,4.1C26.3,4.1,27.7,2,27.7,-1L27.7,-9.8L25.5,-9.8L25.5,-8.7L25.4,-8.7C24.6,-9.5,23.5,-9.9,22.4,-9.9C19.7,-9.9,17.7,-7.8,17.7,-5C17.7,-2.1,19.8,-0.2,22.5,-0.2C23.7,-0.2,24.7,-0.6,25.5,-1.3L25.5,-1.3L25.5,-0.3C25.5,1,24.5,2.1,22.6,2.1C21.2,2.1,20.3,1.7,19.3,1.1L18.7,3.1C19.8,3.7,21.3,4.1,22.7,4.1ZM22.8,-2.2C21.2,-2.2,20,-3.3,20,-5C20,-6.7,21.1,-7.9,22.8,-7.9C24.4,-7.9,25.6,-6.7,25.6,-5.1C25.6,-3.4,24.4,-2.2,22.8,-2.2ZM30.5,0L32.7,0L32.7,-5C32.7,-6.9,33.7,-7.9,35.4,-7.9C36.7,-7.9,37.5,-7.2,37.5,-5.3L37.5,0L39.7,0L39.7,-5.8C39.7,-8.8,38.2,-9.9,36.1,-9.9C34.8,-9.9,33.6,-9.4,32.8,-8.5L32.7,-8.5L32.7,-14.7L30.5,-14.7ZM45.3,0.2C46.6,0.2,47.2,-0.1,47.8,-0.4L47.2,-2.4C46.7,-2.1,46.2,-1.9,45.8,-1.9C45.2,-1.9,44.9,-2.3,44.9,-3.3L44.9,-7.9L47.7,-7.9L47.7,-9.8L44.9,-9.8L44.9,-13.2L42.6,-13L42.6,-9.8L41.4,-9.8L41.4,-7.9L42.6,-7.9L42.6,-3.1C42.6,-0.9,43.7,0.2,45.3,0.2ZM52.1,0L54.1,0L56,-6.1L56,-6.1L57.9,0L59.9,0L63.2,-9.8L61,-9.8L58.9,-3.3L58.9,-3.3L56.9,-9.8L55.1,-9.8L53.1,-3.3L53.1,-3.3L51,-9.8L48.7,-9.8ZM73.5,-5C73.5,-7.8,71.6,-9.9,68.9,-9.9C66,-9.9,64,-7.9,64,-4.9C64,-1.8,66.1,0.2,69,0.2C71.1,0.2,72.4,-0.6,73.2,-1.7L71.6,-3C71.1,-2.4,70.3,-1.9,69.2,-1.9C67.6,-1.9,66.6,-2.7,66.3,-4.1L73.4,-4.1C73.4,-4.3,73.5,-4.6,73.5,-5ZM68.9,-7.9C70.1,-7.9,70.9,-7.1,71.2,-5.9L66.3,-5.9C66.7,-7.2,67.6,-7.9,68.9,-7.9ZM77.1,-11.2C77.9,-11.2,78.6,-11.9,78.6,-12.7C78.6,-13.5,77.9,-14.2,77.1,-14.2C76.2,-14.2,75.6,-13.5,75.6,-12.7C75.6,-11.9,76.2,-11.2,77.1,-11.2ZM75.9,0L78.2,0L78.2,-9.8L75.9,-9.8ZM85.6,4.1C89.2,4.1,90.6,2,90.6,-1L90.6,-9.8L88.3,-9.8L88.3,-8.7L88.3,-8.7C87.5,-9.5,86.4,-9.9,85.3,-9.9C82.6,-9.9,80.6,-7.8,80.6,-5C80.6,-2.1,82.7,-0.2,85.4,-0.2C86.6,-0.2,87.6,-0.6,88.3,-1.3L88.4,-1.3L88.4,-0.3C88.4,1,87.4,2.1,85.5,2.1C84.1,2.1,83.2,1.7,82.2,1.1L81.6,3.1C82.7,3.7,84.1,4.1,85.6,4.1ZM85.7,-2.2C84.1,-2.2,82.9,-3.3,82.9,-5C82.9,-6.7,84,-7.9,85.7,-7.9C87.2,-7.9,88.4,-6.7,88.4,-5.1C88.4,-3.4,87.3,-2.2,85.7,-2.2ZM93.4,0L95.6,0L95.6,-5C95.6,-6.9,96.6,-7.9,98.2,-7.9C99.6,-7.9,100.4,-7.2,100.4,-5.3L100.4,0L102.6,0L102.6,-5.8C102.6,-8.8,101.1,-9.9,99,-9.9C97.6,-9.9,96.5,-9.4,95.6,-8.5L95.6,-8.5L95.6,-14.7L93.4,-14.7ZM108.2,0.2C109.5,0.2,110.1,-0.1,110.7,-0.4L110.1,-2.4C109.6,-2.1,109.1,-1.9,108.7,-1.9C108.1,-1.9,107.8,-2.3,107.8,-3.3L107.8,-7.9L110.6,-7.9L110.6,-9.8L107.8,-9.8L107.8,-13.2L105.5,-13L105.5,-9.8L104.3,-9.8L104.3,-7.9L105.5,-7.9L105.5,-3.1C105.5,-0.9,106.6,0.2,108.2,0.2ZM123.3,0.2C126.1,0.2,128.1,-1.8,128.1,-4.8C128.1,-7.8,126.1,-9.9,123.4,-9.9C122.1,-9.9,121,-9.5,120.3,-8.6L120.2,-8.6L120.2,-14.7L118,-14.7L118,0L120.1,0L120.1,-1.3L120.2,-1.3C120.9,-0.4,121.9,0.2,123.3,0.2ZM123,-1.9C121.4,-1.9,120.1,-3.1,120.1,-4.8C120.1,-6.6,121.3,-7.9,123,-7.9C124.5,-7.9,125.8,-6.7,125.8,-4.8C125.8,-3.1,124.6,-1.9,123,-1.9ZM134.5,0.2C135.9,0.2,136.9,-0.4,137.6,-1.3L137.7,-1.3L137.7,0L139.8,0L139.8,-9.8L137.6,-9.8L137.6,-8.6L137.5,-8.6C136.8,-9.4,135.8,-9.9,134.5,-9.9C131.8,-9.9,129.8,-7.8,129.8,-4.8C129.8,-1.8,131.8,0.2,134.5,0.2ZM134.9,-1.9C133.2,-1.9,132.1,-3.1,132.1,-4.8C132.1,-6.7,133.3,-7.9,134.9,-7.9C136.5,-7.9,137.7,-6.6,137.7,-4.8C137.7,-3.1,136.4,-1.9,134.9,-1.9ZM145.5,0.2C146.8,0.2,147.4,-0.1,148,-0.4L147.4,-2.4C146.9,-2.1,146.4,-1.9,146,-1.9C145.4,-1.9,145.1,-2.3,145.1,-3.3L145.1,-7.9L147.9,-7.9L147.9,-9.8L145.1,-9.8L145.1,-13.2L142.8,-13L142.8,-9.8L141.6,-9.8L141.6,-7.9L142.8,-7.9L142.8,-3.1C142.8,-0.9,143.9,0.2,145.5,0.2ZM153,0.2C154.2,0.2,154.9,-0.1,155.4,-0.4L154.9,-2.4C154.3,-2.1,153.8,-1.9,153.4,-1.9C152.8,-1.9,152.5,-2.3,152.5,-3.3L152.5,-7.9L155.3,-7.9L155.3,-9.8L152.5,-9.8L152.5,-13.2L150.2,-13L150.2,-9.8L149,-9.8L149,-7.9L150.2,-7.9L150.2,-3.1C150.2,-0.9,151.3,0.2,153,0.2ZM165.8,-5C165.8,-7.8,164,-9.9,161.2,-9.9C158.4,-9.9,156.3,-7.9,156.3,-4.9C156.3,-1.8,158.4,0.2,161.4,0.2C163.5,0.2,164.7,-0.6,165.5,-1.7L164,-3C163.5,-2.4,162.7,-1.9,161.5,-1.9C160,-1.9,158.9,-2.7,158.7,-4.1L165.8,-4.1C165.8,-4.3,165.8,-4.6,165.8,-5ZM161.2,-7.9C162.5,-7.9,163.3,-7.1,163.6,-5.9L158.7,-5.9C159,-7.2,160,-7.9,161.2,-7.9ZM168.1,0L170.4,0L170.4,-4.6C170.4,-6.2,171.3,-7.4,173,-7.4C173.2,-7.4,173.5,-7.4,173.7,-7.4L173.7,-9.9L173.4,-9.9C172.3,-9.9,171.2,-9.3,170.4,-8.3L170.4,-8.3L170.4,-9.8L168.1,-9.8ZM176.7,4L179.1,4L184.4,-9.8L182.1,-9.8L179.6,-3.2L179.6,-3.2L176.9,-9.8L174.5,-9.8L178.5,-0.5Z" clip-path="url(#ClipPath-13)" transform="translate(103.5,175.5)"/>
    </g>
    <g id="Brakes-Left" transform="translate(336.5,637.5)">
        <ellipse cx="8" cy="8" stroke="white" rx="8" ry="8" fill="#ffffff"/>
        <path d="M350,651.5L557,803L841.5,803" stroke="white" stroke-linecap="round" fill="none" clip-path="url(#ClipPath-7)" transform="translate(-336.5,-637.5)"/>
        <path fill="#ffffff" d="M0.8,0L9.7,0L9.7,-2.1L4.4,-2.1L4.3,-2.2L7.2,-5.2C9,-7,9.5,-8.3,9.5,-9.8C9.5,-12.3,7.5,-13.9,5.2,-13.9C3,-13.9,1.6,-12.7,0.8,-11.3L2.4,-10.1C3.1,-11.2,4,-11.7,5.1,-11.7C6.3,-11.7,7.2,-10.8,7.2,-9.6C7.2,-8.4,6.3,-7.4,5.2,-6.2L0.8,-1.5ZM11.5,0L20.3,0L20.3,-2.1L15,-2.1L15,-2.2L17.9,-5.2C19.6,-7,20.2,-8.3,20.2,-9.8C20.2,-12.3,18.1,-13.9,15.9,-13.9C13.6,-13.9,12.2,-12.7,11.4,-11.3L13.1,-10.1C13.7,-11.2,14.6,-11.7,15.7,-11.7C16.9,-11.7,17.8,-10.8,17.8,-9.6C17.8,-8.4,17,-7.4,15.9,-6.2L11.4,-1.5ZM27.6,0.2C30.9,0.2,32.9,-2.7,32.9,-6.9C32.9,-11.3,30.7,-13.9,27.6,-13.9C24.3,-13.9,22.3,-11,22.3,-6.9C22.3,-2.4,24.5,0.2,27.6,0.2ZM27.6,-2C25.8,-2,24.7,-3.8,24.7,-6.9C24.7,-9.9,25.8,-11.7,27.6,-11.7C29.4,-11.7,30.5,-9.9,30.5,-6.9C30.5,-3.8,29.4,-2,27.6,-2ZM40.7,0L43,0L43,-4.9C43,-6.8,44,-7.9,45.3,-7.9C46.6,-7.9,47.3,-6.8,47.3,-5.1L47.3,0L49.5,0L49.5,-4.9C49.5,-6.8,50.5,-7.9,51.8,-7.9C53.1,-7.9,53.7,-6.8,53.7,-5.1L53.7,0L55.9,0L55.9,-5.6C55.9,-8.6,54.6,-9.9,52.5,-9.9C51.1,-9.9,49.8,-9.3,49,-8.3L49,-8.3C48.4,-9.4,47.4,-9.9,46,-9.9C44.9,-9.9,43.8,-9.4,43,-8.4L43,-8.4L43,-9.8L40.7,-9.8ZM58.7,0L60.9,0L60.9,-4.9C60.9,-6.8,61.9,-7.9,63.3,-7.9C64.6,-7.9,65.2,-6.8,65.2,-5.1L65.2,0L67.4,0L67.4,-4.9C67.4,-6.8,68.5,-7.9,69.7,-7.9C71,-7.9,71.6,-6.8,71.6,-5.1L71.6,0L73.9,0L73.9,-5.6C73.9,-8.6,72.6,-9.9,70.4,-9.9C69,-9.9,67.8,-9.3,66.9,-8.3L66.9,-8.3C66.3,-9.4,65.3,-9.9,64,-9.9C62.9,-9.9,61.7,-9.4,60.9,-8.4L60.9,-8.4L60.9,-9.8L58.7,-9.8ZM82,0L84.2,0L84.2,-5C84.2,-6.9,85.2,-7.9,86.8,-7.9C88.2,-7.9,89,-7.2,89,-5.3L89,0L91.2,0L91.2,-5.8C91.2,-8.8,89.7,-9.9,87.6,-9.9C86.2,-9.9,85.1,-9.4,84.2,-8.5L84.2,-8.5L84.2,-14.7L82,-14.7ZM94.6,4L97,4L102.3,-9.8L100,-9.8L97.5,-3.2L97.5,-3.2L94.8,-9.8L92.4,-9.8L96.4,-0.5ZM107.9,0.2C109.3,0.2,110.3,-0.4,111,-1.3L111.1,-1.3L111.1,0L113.2,0L113.2,-14.7L111,-14.7L111,-8.6L111,-8.6C110.2,-9.4,109.1,-9.9,107.8,-9.9C105.2,-9.9,103.1,-7.8,103.1,-4.8C103.1,-1.8,105.2,0.2,107.9,0.2ZM108.2,-1.9C106.6,-1.9,105.4,-3.1,105.4,-4.8C105.4,-6.7,106.7,-7.9,108.2,-7.9C109.9,-7.9,111.1,-6.6,111.1,-4.8C111.1,-3.1,109.8,-1.9,108.2,-1.9ZM116.1,0L118.4,0L118.4,-4.6C118.4,-6.2,119.3,-7.4,121,-7.4C121.2,-7.4,121.5,-7.4,121.7,-7.4L121.7,-9.9L121.4,-9.9C120.3,-9.9,119.2,-9.3,118.4,-8.3L118.4,-8.3L118.4,-9.8L116.1,-9.8ZM127.4,0.2C128.8,0.2,129.8,-0.4,130.5,-1.3L130.5,-1.3L130.5,0L132.7,0L132.7,-9.8L130.4,-9.8L130.4,-8.6L130.4,-8.6C129.7,-9.4,128.6,-9.9,127.4,-9.9C124.7,-9.9,122.7,-7.8,122.7,-4.8C122.7,-1.8,124.7,0.2,127.4,0.2ZM127.8,-1.9C126.1,-1.9,125,-3.1,125,-4.8C125,-6.7,126.2,-7.9,127.8,-7.9C129.4,-7.9,130.5,-6.6,130.5,-4.8C130.5,-3.1,129.3,-1.9,127.8,-1.9ZM139,0.2C140.1,0.2,141.2,-0.3,141.9,-1.2L142,-1.2L142,0L144.2,0L144.2,-9.8L142,-9.8L142,-5.1C142,-3,140.8,-1.9,139.5,-1.9C138.1,-1.9,137.5,-2.5,137.5,-4.4L137.5,-9.8L135.3,-9.8L135.3,-3.8C135.3,-0.9,136.8,0.2,139,0.2ZM147.2,0L149.4,0L149.4,-14.7L147.2,-14.7ZM153.8,-11.2C154.6,-11.2,155.3,-11.9,155.3,-12.7C155.3,-13.5,154.6,-14.2,153.8,-14.2C152.9,-14.2,152.3,-13.5,152.3,-12.7C152.3,-11.9,152.9,-11.2,153.8,-11.2ZM152.6,0L154.9,0L154.9,-9.8L152.6,-9.8ZM162.3,0.2C164.5,0.2,165.7,-0.6,166.5,-1.7L165,-3C164.5,-2.4,163.6,-1.9,162.5,-1.9C160.8,-1.9,159.6,-3.1,159.6,-4.9C159.6,-6.7,160.8,-7.9,162.5,-7.9C163.6,-7.9,164.4,-7.4,165,-6.8L166.5,-8.1C165.5,-9.3,163.9,-9.9,162.4,-9.9C159.5,-9.9,157.4,-7.9,157.4,-4.9C157.4,-1.9,159.5,0.2,162.3,0.2ZM178.1,0.2C179.5,0.2,180.5,-0.4,181.3,-1.3L181.3,-1.3L181.3,0L183.4,0L183.4,-14.7L181.2,-14.7L181.2,-8.6L181.2,-8.6C180.4,-9.4,179.3,-9.9,178.1,-9.9C175.4,-9.9,173.3,-7.8,173.3,-4.8C173.3,-1.8,175.4,0.2,178.1,0.2ZM178.4,-1.9C176.8,-1.9,175.6,-3.1,175.6,-4.8C175.6,-6.7,176.9,-7.9,178.4,-7.9C180.1,-7.9,181.3,-6.6,181.3,-4.8C181.3,-3.1,180,-1.9,178.4,-1.9ZM187.6,-11.2C188.5,-11.2,189.1,-11.9,189.1,-12.7C189.1,-13.5,188.5,-14.2,187.6,-14.2C186.8,-14.2,186.1,-13.5,186.1,-12.7C186.1,-11.9,186.8,-11.2,187.6,-11.2ZM186.5,0L188.7,0L188.7,-9.8L186.5,-9.8ZM194.9,0.2C197.4,0.2,198.5,-1.2,198.5,-2.8C198.5,-4.7,197.2,-5.1,195.2,-5.9C194.2,-6.3,193.6,-6.6,193.6,-7.1C193.6,-7.7,194.2,-8,194.7,-8C195.4,-8,196.3,-7.7,197.1,-6.9L198.2,-8.7C197.2,-9.6,196,-9.9,194.8,-9.9C192.8,-9.9,191.4,-8.7,191.4,-7.1C191.4,-5.2,192.7,-4.5,194.3,-3.9C195.6,-3.5,196.3,-3.3,196.3,-2.8C196.3,-2.2,195.8,-1.8,194.9,-1.8C193.7,-1.8,192.9,-2.2,192.1,-2.9L191,-1.3C192,-0.4,193.3,0.2,194.9,0.2ZM200.8,0L203,0L203,-2.6L204.6,-4.3L207.2,0L209.7,0L206.2,-5.8L209.7,-9.8L207,-9.8L203.1,-5.2L203,-5.3L203,-14.7L200.8,-14.7ZM222.2,0.2C224.9,0.2,226.9,-1.8,226.9,-4.8C226.9,-7.8,224.9,-9.9,222.2,-9.9C220.9,-9.9,219.9,-9.5,219.1,-8.6L219.1,-8.6L219.1,-14.7L216.8,-14.7L216.8,0L219,0L219,-1.3L219,-1.3C219.7,-0.4,220.8,0.2,222.2,0.2ZM221.8,-1.9C220.2,-1.9,219,-3.1,219,-4.8C219,-6.6,220.1,-7.9,221.8,-7.9C223.4,-7.9,224.6,-6.7,224.6,-4.8C224.6,-3.1,223.5,-1.9,221.8,-1.9ZM229.3,0L231.5,0L231.5,-4.6C231.5,-6.2,232.5,-7.4,234.2,-7.4C234.3,-7.4,234.6,-7.4,234.8,-7.4L234.8,-9.9L234.6,-9.9C233.4,-9.9,232.3,-9.3,231.5,-8.3L231.5,-8.3L231.5,-9.8L229.3,-9.8ZM240.5,0.2C241.9,0.2,242.9,-0.4,243.6,-1.3L243.7,-1.3L243.7,0L245.8,0L245.8,-9.8L243.6,-9.8L243.6,-8.6L243.5,-8.6C242.8,-9.4,241.8,-9.9,240.5,-9.9C237.8,-9.9,235.8,-7.8,235.8,-4.8C235.8,-1.8,237.8,0.2,240.5,0.2ZM240.9,-1.9C239.2,-1.9,238.1,-3.1,238.1,-4.8C238.1,-6.7,239.3,-7.9,240.9,-7.9C242.5,-7.9,243.7,-6.6,243.7,-4.8C243.7,-3.1,242.4,-1.9,240.9,-1.9ZM248.6,0L250.9,0L250.9,-2.6L252.5,-4.3L255.1,0L257.6,0L254,-5.8L257.5,-9.8L254.9,-9.8L250.9,-5.2L250.9,-5.3L250.9,-14.7L248.6,-14.7ZM267.7,-5C267.7,-7.8,265.8,-9.9,263.1,-9.9C260.2,-9.9,258.2,-7.9,258.2,-4.9C258.2,-1.8,260.3,0.2,263.3,0.2C265.4,0.2,266.6,-0.6,267.4,-1.7L265.8,-3C265.3,-2.4,264.5,-1.9,263.4,-1.9C261.9,-1.9,260.8,-2.7,260.5,-4.1L267.6,-4.1C267.7,-4.3,267.7,-4.6,267.7,-5ZM263.1,-7.9C264.4,-7.9,265.2,-7.1,265.4,-5.9L260.6,-5.9C260.9,-7.2,261.8,-7.9,263.1,-7.9ZM273.1,0.2C275.6,0.2,276.8,-1.2,276.8,-2.8C276.8,-4.7,275.5,-5.1,273.4,-5.9C272.5,-6.3,271.9,-6.6,271.9,-7.1C271.9,-7.7,272.5,-8,272.9,-8C273.7,-8,274.6,-7.7,275.4,-6.9L276.5,-8.7C275.4,-9.6,274.3,-9.9,273,-9.9C271,-9.9,269.6,-8.7,269.6,-7.1C269.6,-5.2,271,-4.5,272.6,-3.9C273.9,-3.5,274.5,-3.3,274.5,-2.8C274.5,-2.2,274,-1.8,273.1,-1.8C271.9,-1.8,271.1,-2.2,270.3,-2.9L269.2,-1.3C270.2,-0.4,271.6,0.2,273.1,0.2Z" clip-path="url(#ClipPath-12)" transform="translate(222.2,151.8)"/>
    </g>
    <g id="Brakes-Right" transform="translate(557.5,652.5)">
        <ellipse cx="512" cy="8" stroke="white" rx="8" ry="8" fill="#ffffff"/>
        <path d="M1063,665.5L842,803L557.5,803" stroke="white" stroke-linecap="round" fill="none" clip-path="url(#ClipPath-6)" transform="translate(-557.5,-652.5)"/>
        <path fill="#ffffff" d="M0.8,0L9.7,0L9.7,-2.1L4.4,-2.1L4.3,-2.2L7.2,-5.2C9,-7,9.5,-8.3,9.5,-9.8C9.5,-12.3,7.5,-13.9,5.2,-13.9C3,-13.9,1.6,-12.7,0.8,-11.3L2.4,-10.1C3.1,-11.2,4,-11.7,5.1,-11.7C6.3,-11.7,7.2,-10.8,7.2,-9.6C7.2,-8.4,6.3,-7.4,5.2,-6.2L0.8,-1.5ZM11.5,0L20.3,0L20.3,-2.1L15,-2.1L15,-2.2L17.9,-5.2C19.6,-7,20.2,-8.3,20.2,-9.8C20.2,-12.3,18.1,-13.9,15.9,-13.9C13.6,-13.9,12.2,-12.7,11.4,-11.3L13.1,-10.1C13.7,-11.2,14.6,-11.7,15.7,-11.7C16.9,-11.7,17.8,-10.8,17.8,-9.6C17.8,-8.4,17,-7.4,15.9,-6.2L11.4,-1.5ZM27.6,0.2C30.9,0.2,32.9,-2.7,32.9,-6.9C32.9,-11.3,30.7,-13.9,27.6,-13.9C24.3,-13.9,22.3,-11,22.3,-6.9C22.3,-2.4,24.5,0.2,27.6,0.2ZM27.6,-2C25.8,-2,24.7,-3.8,24.7,-6.9C24.7,-9.9,25.8,-11.7,27.6,-11.7C29.4,-11.7,30.5,-9.9,30.5,-6.9C30.5,-3.8,29.4,-2,27.6,-2ZM40.7,0L43,0L43,-4.9C43,-6.8,44,-7.9,45.3,-7.9C46.6,-7.9,47.3,-6.8,47.3,-5.1L47.3,0L49.5,0L49.5,-4.9C49.5,-6.8,50.5,-7.9,51.8,-7.9C53.1,-7.9,53.7,-6.8,53.7,-5.1L53.7,0L55.9,0L55.9,-5.6C55.9,-8.6,54.6,-9.9,52.5,-9.9C51.1,-9.9,49.8,-9.3,49,-8.3L49,-8.3C48.4,-9.4,47.4,-9.9,46,-9.9C44.9,-9.9,43.8,-9.4,43,-8.4L43,-8.4L43,-9.8L40.7,-9.8ZM58.7,0L60.9,0L60.9,-4.9C60.9,-6.8,61.9,-7.9,63.3,-7.9C64.6,-7.9,65.2,-6.8,65.2,-5.1L65.2,0L67.4,0L67.4,-4.9C67.4,-6.8,68.5,-7.9,69.7,-7.9C71,-7.9,71.6,-6.8,71.6,-5.1L71.6,0L73.9,0L73.9,-5.6C73.9,-8.6,72.6,-9.9,70.4,-9.9C69,-9.9,67.8,-9.3,66.9,-8.3L66.9,-8.3C66.3,-9.4,65.3,-9.9,64,-9.9C62.9,-9.9,61.7,-9.4,60.9,-8.4L60.9,-8.4L60.9,-9.8L58.7,-9.8ZM82,0L84.2,0L84.2,-5C84.2,-6.9,85.2,-7.9,86.8,-7.9C88.2,-7.9,89,-7.2,89,-5.3L89,0L91.2,0L91.2,-5.8C91.2,-8.8,89.7,-9.9,87.6,-9.9C86.2,-9.9,85.1,-9.4,84.2,-8.5L84.2,-8.5L84.2,-14.7L82,-14.7ZM94.6,4L97,4L102.3,-9.8L100,-9.8L97.5,-3.2L97.5,-3.2L94.8,-9.8L92.4,-9.8L96.4,-0.5ZM107.9,0.2C109.3,0.2,110.3,-0.4,111,-1.3L111.1,-1.3L111.1,0L113.2,0L113.2,-14.7L111,-14.7L111,-8.6L111,-8.6C110.2,-9.4,109.1,-9.9,107.8,-9.9C105.2,-9.9,103.1,-7.8,103.1,-4.8C103.1,-1.8,105.2,0.2,107.9,0.2ZM108.2,-1.9C106.6,-1.9,105.4,-3.1,105.4,-4.8C105.4,-6.7,106.7,-7.9,108.2,-7.9C109.9,-7.9,111.1,-6.6,111.1,-4.8C111.1,-3.1,109.8,-1.9,108.2,-1.9ZM116.1,0L118.4,0L118.4,-4.6C118.4,-6.2,119.3,-7.4,121,-7.4C121.2,-7.4,121.5,-7.4,121.7,-7.4L121.7,-9.9L121.4,-9.9C120.3,-9.9,119.2,-9.3,118.4,-8.3L118.4,-8.3L118.4,-9.8L116.1,-9.8ZM127.4,0.2C128.8,0.2,129.8,-0.4,130.5,-1.3L130.5,-1.3L130.5,0L132.7,0L132.7,-9.8L130.4,-9.8L130.4,-8.6L130.4,-8.6C129.7,-9.4,128.6,-9.9,127.4,-9.9C124.7,-9.9,122.7,-7.8,122.7,-4.8C122.7,-1.8,124.7,0.2,127.4,0.2ZM127.8,-1.9C126.1,-1.9,125,-3.1,125,-4.8C125,-6.7,126.2,-7.9,127.8,-7.9C129.4,-7.9,130.5,-6.6,130.5,-4.8C130.5,-3.1,129.3,-1.9,127.8,-1.9ZM139,0.2C140.1,0.2,141.2,-0.3,141.9,-1.2L142,-1.2L142,0L144.2,0L144.2,-9.8L142,-9.8L142,-5.1C142,-3,140.8,-1.9,139.5,-1.9C138.1,-1.9,137.5,-2.5,137.5,-4.4L137.5,-9.8L135.3,-9.8L135.3,-3.8C135.3,-0.9,136.8,0.2,139,0.2ZM147.2,0L149.4,0L149.4,-14.7L147.2,-14.7ZM153.8,-11.2C154.6,-11.2,155.3,-11.9,155.3,-12.7C155.3,-13.5,154.6,-14.2,153.8,-14.2C152.9,-14.2,152.3,-13.5,152.3,-12.7C152.3,-11.9,152.9,-11.2,153.8,-11.2ZM152.6,0L154.9,0L154.9,-9.8L152.6,-9.8ZM162.3,0.2C164.5,0.2,165.7,-0.6,166.5,-1.7L165,-3C164.5,-2.4,163.6,-1.9,162.5,-1.9C160.8,-1.9,159.6,-3.1,159.6,-4.9C159.6,-6.7,160.8,-7.9,162.5,-7.9C163.6,-7.9,164.4,-7.4,165,-6.8L166.5,-8.1C165.5,-9.3,163.9,-9.9,162.4,-9.9C159.5,-9.9,157.4,-7.9,157.4,-4.9C157.4,-1.9,159.5,0.2,162.3,0.2ZM178.1,0.2C179.5,0.2,180.5,-0.4,181.3,-1.3L181.3,-1.3L181.3,0L183.4,0L183.4,-14.7L181.2,-14.7L181.2,-8.6L181.2,-8.6C180.4,-9.4,179.3,-9.9,178.1,-9.9C175.4,-9.9,173.3,-7.8,173.3,-4.8C173.3,-1.8,175.4,0.2,178.1,0.2ZM178.4,-1.9C176.8,-1.9,175.6,-3.1,175.6,-4.8C175.6,-6.7,176.9,-7.9,178.4,-7.9C180.1,-7.9,181.3,-6.6,181.3,-4.8C181.3,-3.1,180,-1.9,178.4,-1.9ZM187.6,-11.2C188.5,-11.2,189.1,-11.9,189.1,-12.7C189.1,-13.5,188.5,-14.2,187.6,-14.2C186.8,-14.2,186.1,-13.5,186.1,-12.7C186.1,-11.9,186.8,-11.2,187.6,-11.2ZM186.5,0L188.7,0L188.7,-9.8L186.5,-9.8ZM194.9,0.2C197.4,0.2,198.5,-1.2,198.5,-2.8C198.5,-4.7,197.2,-5.1,195.2,-5.9C194.2,-6.3,193.6,-6.6,193.6,-7.1C193.6,-7.7,194.2,-8,194.7,-8C195.4,-8,196.3,-7.7,197.1,-6.9L198.2,-8.7C197.2,-9.6,196,-9.9,194.8,-9.9C192.8,-9.9,191.4,-8.7,191.4,-7.1C191.4,-5.2,192.7,-4.5,194.3,-3.9C195.6,-3.5,196.3,-3.3,196.3,-2.8C196.3,-2.2,195.8,-1.8,194.9,-1.8C193.7,-1.8,192.9,-2.2,192.1,-2.9L191,-1.3C192,-0.4,193.3,0.2,194.9,0.2ZM200.8,0L203,0L203,-2.6L204.6,-4.3L207.2,0L209.7,0L206.2,-5.8L209.7,-9.8L207,-9.8L203.1,-5.2L203,-5.3L203,-14.7L200.8,-14.7ZM222.2,0.2C224.9,0.2,226.9,-1.8,226.9,-4.8C226.9,-7.8,224.9,-9.9,222.2,-9.9C220.9,-9.9,219.9,-9.5,219.1,-8.6L219.1,-8.6L219.1,-14.7L216.8,-14.7L216.8,0L219,0L219,-1.3L219,-1.3C219.7,-0.4,220.8,0.2,222.2,0.2ZM221.8,-1.9C220.2,-1.9,219,-3.1,219,-4.8C219,-6.6,220.1,-7.9,221.8,-7.9C223.4,-7.9,224.6,-6.7,224.6,-4.8C224.6,-3.1,223.5,-1.9,221.8,-1.9ZM229.3,0L231.5,0L231.5,-4.6C231.5,-6.2,232.5,-7.4,234.2,-7.4C234.3,-7.4,234.6,-7.4,234.8,-7.4L234.8,-9.9L234.6,-9.9C233.4,-9.9,232.3,-9.3,231.5,-8.3L231.5,-8.3L231.5,-9.8L229.3,-9.8ZM240.5,0.2C241.9,0.2,242.9,-0.4,243.6,-1.3L243.7,-1.3L243.7,0L245.8,0L245.8,-9.8L243.6,-9.8L243.6,-8.6L243.5,-8.6C242.8,-9.4,241.8,-9.9,240.5,-9.9C237.8,-9.9,235.8,-7.8,235.8,-4.8C235.8,-1.8,237.8,0.2,240.5,0.2ZM240.9,-1.9C239.2,-1.9,238.1,-3.1,238.1,-4.8C238.1,-6.7,239.3,-7.9,240.9,-7.9C242.5,-7.9,243.7,-6.6,243.7,-4.8C243.7,-3.1,242.4,-1.9,240.9,-1.9ZM248.6,0L250.9,0L250.9,-2.6L252.5,-4.3L255.1,0L257.6,0L254,-5.8L257.5,-9.8L254.9,-9.8L250.9,-5.2L250.9,-5.3L250.9,-14.7L248.6,-14.7ZM267.7,-5C267.7,-7.8,265.8,-9.9,263.1,-9.9C260.2,-9.9,258.2,-7.9,258.2,-4.9C258.2,-1.8,260.3,0.2,263.3,0.2C265.4,0.2,266.6,-0.6,267.4,-1.7L265.8,-3C265.3,-2.4,264.5,-1.9,263.4,-1.9C261.9,-1.9,260.8,-2.7,260.5,-4.1L267.6,-4.1C267.7,-4.3,267.7,-4.6,267.7,-5ZM263.1,-7.9C264.4,-7.9,265.2,-7.1,265.4,-5.9L260.6,-5.9C260.9,-7.2,261.8,-7.9,263.1,-7.9ZM273.1,0.2C275.6,0.2,276.8,-1.2,276.8,-2.8C276.8,-4.7,275.5,-5.1,273.4,-5.9C272.5,-6.3,271.9,-6.6,271.9,-7.1C271.9,-7.7,272.5,-8,272.9,-8C273.7,-8,274.6,-7.7,275.4,-6.9L276.5,-8.7C275.4,-9.6,274.3,-9.9,273,-9.9C271,-9.9,269.6,-8.7,269.6,-7.1C269.6,-5.2,271,-4.5,272.6,-3.9C273.9,-3.5,274.5,-3.3,274.5,-2.8C274.5,-2.2,274,-1.8,273.1,-1.8C271.9,-1.8,271.1,-2.2,270.3,-2.9L269.2,-1.3C270.2,-0.4,271.6,0.2,273.1,0.2Z" clip-path="url(#ClipPath-11)" transform="translate(1.2,136.8)"/>
    </g>
    <g id="seatbox" transform="translate(799.5,193.5)">
        <ellipse cx="8" cy="173" stroke="white" rx="8" ry="8" fill="#ffffff"/>
        <path d="M813,360L953.5,193.5L1104,193.5" stroke="white" stroke-linecap="round" fill="none" clip-path="url(#ClipPath-2)" transform="translate(-799.5,-193.5)"/>
        <path fill="#ffffff" d="M0.6,0L3.4,0L6.9,-5.2L6.9,-5.2L10.4,0L13.3,0L8.5,-7.1L13.1,-14.2L10.4,-14.2L7,-9L7,-9L3.6,-14.2L0.7,-14.2L5.3,-7.1ZM15.6,0L24.6,0L24.6,-2.2L18,-2.2L18,-14.2L15.6,-14.2ZM31.5,0L40.3,0L40.3,-2.1L35,-2.1L35,-2.2L37.9,-5.2C39.7,-7,40.2,-8.3,40.2,-9.8C40.2,-12.3,38.2,-13.9,35.9,-13.9C33.7,-13.9,32.2,-12.7,31.5,-11.3L33.1,-10.1C33.7,-11.2,34.6,-11.7,35.7,-11.7C37,-11.7,37.8,-10.8,37.8,-9.6C37.8,-8.4,37,-7.4,35.9,-6.2L31.5,-1.5ZM47.7,-8.8C46.7,-8.8,45.7,-8.5,45,-8L44.9,-8.1C45.7,-10.3,47.6,-11.5,50,-12.2L49.3,-14.2C45.2,-13.4,42.2,-9.9,42.2,-5.4C42.2,-2,44.3,0.2,47.1,0.2C49.8,0.2,52,-1.7,52,-4.3C52,-7.1,50.1,-8.8,47.7,-8.8ZM47.2,-2C45.7,-2,44.4,-3.3,44.4,-5.1L44.4,-5.3C45,-6,46,-6.7,47.1,-6.7C48.6,-6.7,49.6,-5.7,49.6,-4.4C49.6,-3.1,48.7,-2,47.2,-2ZM54.7,0L63.7,0L63.7,-2.2L57.1,-2.2L57.1,-14.2L54.7,-14.2ZM74.3,0.2C76.8,0.2,78,-1.2,78,-2.8C78,-4.7,76.7,-5.1,74.6,-5.9C73.6,-6.3,73,-6.6,73,-7.1C73,-7.7,73.7,-8,74.1,-8C74.9,-8,75.8,-7.7,76.5,-6.9L77.7,-8.7C76.6,-9.6,75.5,-9.9,74.2,-9.9C72.2,-9.9,70.8,-8.7,70.8,-7.1C70.8,-5.2,72.2,-4.5,73.8,-3.9C75,-3.5,75.7,-3.3,75.7,-2.8C75.7,-2.2,75.2,-1.8,74.3,-1.8C73.1,-1.8,72.3,-2.2,71.5,-2.9L70.4,-1.3C71.4,-0.4,72.8,0.2,74.3,0.2ZM89.1,-5C89.1,-7.8,87.3,-9.9,84.5,-9.9C81.7,-9.9,79.6,-7.9,79.6,-4.9C79.6,-1.8,81.7,0.2,84.7,0.2C86.8,0.2,88,-0.6,88.8,-1.7L87.3,-3C86.8,-2.4,86,-1.9,84.8,-1.9C83.3,-1.9,82.2,-2.7,81.9,-4.1L89.1,-4.1C89.1,-4.3,89.1,-4.6,89.1,-5ZM84.5,-7.9C85.8,-7.9,86.6,-7.1,86.9,-5.9L82,-5.9C82.3,-7.2,83.3,-7.9,84.5,-7.9ZM95.5,0.2C96.9,0.2,97.9,-0.4,98.6,-1.3L98.7,-1.3L98.7,0L100.8,0L100.8,-9.8L98.6,-9.8L98.6,-8.6L98.5,-8.6C97.8,-9.4,96.8,-9.9,95.5,-9.9C92.8,-9.9,90.8,-7.8,90.8,-4.8C90.8,-1.8,92.8,0.2,95.5,0.2ZM95.9,-1.9C94.2,-1.9,93.1,-3.1,93.1,-4.8C93.1,-6.7,94.3,-7.9,95.9,-7.9C97.5,-7.9,98.7,-6.6,98.7,-4.8C98.7,-3.1,97.4,-1.9,95.9,-1.9ZM106.5,0.2C107.8,0.2,108.4,-0.1,109,-0.4L108.4,-2.4C107.9,-2.1,107.4,-1.9,107,-1.9C106.4,-1.9,106.1,-2.3,106.1,-3.3L106.1,-7.9L108.9,-7.9L108.9,-9.8L106.1,-9.8L106.1,-13.2L103.8,-13L103.8,-9.8L102.6,-9.8L102.6,-7.9L103.8,-7.9L103.8,-3.1C103.8,-0.9,104.9,0.2,106.5,0.2ZM121.6,0.2C124.4,0.2,126.4,-1.8,126.4,-4.8C126.4,-7.8,124.4,-9.9,121.7,-9.9C120.4,-9.9,119.3,-9.5,118.6,-8.6L118.5,-8.6L118.5,-14.7L116.3,-14.7L116.3,0L118.4,0L118.4,-1.3L118.5,-1.3C119.2,-0.4,120.2,0.2,121.6,0.2ZM121.3,-1.9C119.7,-1.9,118.4,-3.1,118.4,-4.8C118.4,-6.6,119.6,-7.9,121.3,-7.9C122.8,-7.9,124.1,-6.7,124.1,-4.8C124.1,-3.1,122.9,-1.9,121.3,-1.9ZM133.3,0.2C136.3,0.2,138.4,-1.9,138.4,-4.9C138.4,-7.9,136.3,-9.9,133.3,-9.9C130.2,-9.9,128.1,-7.7,128.1,-4.9C128.1,-2,130.2,0.2,133.3,0.2ZM133.3,-1.9C131.6,-1.9,130.4,-3.2,130.4,-4.9C130.4,-6.6,131.6,-7.9,133.3,-7.9C134.9,-7.9,136.1,-6.7,136.1,-4.9C136.1,-3.1,134.8,-1.9,133.3,-1.9ZM139,0L141.5,0L143.7,-3.1L143.7,-3.1L146,0L148.5,0L145,-5L148.4,-9.8L145.8,-9.8L143.7,-6.7L143.7,-6.7L141.6,-9.8L139,-9.8L142.4,-5Z" clip-path="url(#ClipPath-9)" transform="translate(153.8,-14.2)"/>
    </g>
</svg>
