<svg id="wunder-statboxsvg" class="w-shadow mb-4 mb-md-0" width="373" height="352" viewBox="0 0 373 352" fill="none" xmlns="http://www.w3.org/2000/svg">
<g clip-path="url(#clip0)">
<rect width="373" height="352" fill="white"/>
<path d="M38.304 172H42.016V150.016H39.008L32.576 154.688L34.336 157.44L38.304 154.464V172ZM54.2533 157.888C53.4853 157.888 52.4293 158.048 51.4053 158.368L51.6933 153.44H60.1093V150.016H48.2053L47.5653 161.536L49.5813 162.24C50.6373 161.376 51.8213 161.088 53.1653 161.088C55.2453 161.088 57.4213 162.432 57.4213 164.896C57.4213 167.136 55.7893 168.832 53.1013 168.832C51.1493 168.832 49.5493 167.904 48.6213 166.56L45.9333 168.704C47.6613 171.008 50.4133 172.256 53.4213 172.256C58.0933 172.256 61.1973 169.28 61.1973 164.96C61.1973 160.544 58.0613 157.888 54.2533 157.888ZM74.2223 172H78.0943V156.8H78.1263L84.3343 167.616H86.8623L93.0703 156.8H93.1343V172H97.0063V149.28H93.1343L85.6463 162.88H85.5823L78.0943 149.28H74.2223V172ZM103.696 154.08C105.04 154.08 106.128 152.992 106.128 151.68C106.128 150.4 105.04 149.312 103.696 149.312C102.352 149.312 101.296 150.4 101.296 151.68C101.296 152.992 102.352 154.08 103.696 154.08ZM101.904 172H105.488V156.384H101.904V172ZM110.623 172H114.207V148.448H110.623V172ZM119.341 172H122.925V148.448H119.341V172ZM129.852 154.08C131.196 154.08 132.284 152.992 132.284 151.68C132.284 150.4 131.196 149.312 129.852 149.312C128.508 149.312 127.452 150.4 127.452 151.68C127.452 152.992 128.508 154.08 129.852 154.08ZM128.06 172H131.644V156.384H128.06V172ZM143.819 172.256C148.619 172.256 152.011 168.96 152.011 164.224C152.011 159.424 148.619 156.16 143.819 156.16C138.891 156.16 135.627 159.616 135.627 164.224C135.627 168.8 138.891 172.256 143.819 172.256ZM143.819 168.992C141.131 168.992 139.275 166.88 139.275 164.224C139.275 161.504 141.099 159.392 143.819 159.392C146.379 159.392 148.363 161.344 148.363 164.224C148.363 167.04 146.347 168.992 143.819 168.992ZM155.742 172H159.326V164.16C159.326 161.088 160.926 159.392 163.358 159.392C165.502 159.392 166.75 160.448 166.75 163.744V172H170.334V162.816C170.334 158.112 168.03 156.16 164.606 156.16C162.558 156.16 160.67 156.992 159.39 158.528H159.326V156.384H155.742V172ZM179.959 170.656H183.255V164.768H189.175V161.504H183.255V155.584H179.959V161.504H174.039V164.768H179.959V170.656Z" fill="#141414"/>
<path d="M33.408 200H34.8V195.664H36.832L39.84 200H41.504L38.368 195.536C40.16 195.168 41.2 194.064 41.2 192.16C41.2 190.144 40.064 188.64 37.44 188.64H33.408V200ZM34.8 194.4V189.904H37.248C38.816 189.904 39.76 190.672 39.76 192.128C39.76 193.44 38.944 194.4 37.056 194.4H34.8ZM44.2336 190.784C44.7616 190.784 45.1776 190.368 45.1776 189.856C45.1776 189.344 44.7616 188.928 44.2336 188.928C43.7056 188.928 43.2896 189.344 43.2896 189.856C43.2896 190.368 43.7056 190.784 44.2336 190.784ZM43.5776 200H44.8736V192.208H43.5776V200ZM50.7155 200.096C51.9795 200.096 52.9715 199.504 53.5315 198.56H53.5475V200H54.7955V188.224H53.4995V193.6H53.4835C52.8915 192.656 51.8835 192.112 50.6995 192.112C48.5075 192.112 46.8915 193.856 46.8915 196.16C46.8915 198.528 48.5555 200.096 50.7155 200.096ZM50.8915 198.912C49.3075 198.912 48.2195 197.728 48.2195 196.16C48.2195 194.432 49.4195 193.296 50.9075 193.296C52.4755 193.296 53.5475 194.56 53.5475 196.16C53.5475 197.808 52.3635 198.912 50.8915 198.912ZM64.144 195.968C64.144 193.744 62.688 192.112 60.56 192.112C58.336 192.112 56.72 193.76 56.72 196.112C56.72 198.496 58.352 200.096 60.656 200.096C62.224 200.096 63.2 199.504 63.872 198.64L62.96 197.872C62.48 198.464 61.744 198.912 60.704 198.912C59.232 198.912 58.208 197.952 58.032 196.496H64.112C64.112 196.4 64.144 196.176 64.144 195.968ZM60.544 193.296C61.824 193.296 62.656 194.16 62.848 195.44H58.064C58.304 194.112 59.296 193.296 60.544 193.296ZM68.3961 200.096C70.2681 200.096 71.1961 199.088 71.1961 197.872C71.2121 196.352 70.1241 196.064 68.4761 195.424C67.6281 195.12 67.0041 194.816 67.0041 194.208C67.0041 193.616 67.5961 193.264 68.2041 193.264C68.8761 193.264 69.5961 193.472 70.2681 194.096L70.9401 193.072C70.0761 192.368 69.1961 192.112 68.2521 192.112C66.7801 192.112 65.6921 193.008 65.6921 194.208C65.6921 195.632 66.7641 196.144 68.0281 196.592C69.1641 197.008 69.8841 197.2 69.8841 197.888C69.8841 198.48 69.3401 198.944 68.3961 198.944C67.3081 198.944 66.6201 198.592 66.0121 198L65.3561 198.992C66.1081 199.648 67.1001 200.096 68.3961 200.096ZM79.5799 200.096C80.5079 200.096 81.0359 199.872 81.4679 199.616L81.1319 198.48C80.7479 198.688 80.2679 198.88 79.8039 198.88C79.0679 198.88 78.8599 198.432 78.8599 197.488V193.328H81.4359V192.208H78.8599V189.408L77.5639 189.552V192.208H76.5559V193.328H77.5639V197.68C77.5639 199.248 78.2039 200.096 79.5799 200.096ZM86.0898 200.096C87.3538 200.096 88.3138 199.52 88.8738 198.592H88.8898V200H90.1378V192.208H88.8418V193.584L88.8098 193.6C88.2498 192.656 87.2418 192.112 86.0898 192.112C83.8818 192.112 82.2978 193.856 82.2978 196.16C82.2978 198.528 83.9457 200.096 86.0898 200.096ZM86.2818 198.912C84.6818 198.912 83.6098 197.728 83.6098 196.16C83.6098 194.432 84.8098 193.296 86.2818 193.296C87.8178 193.296 88.8898 194.56 88.8898 196.16C88.8898 197.808 87.7218 198.912 86.2818 198.912ZM92.466 200H93.762V198.064L95.362 196.336L97.714 200H99.202L96.258 195.424L99.17 192.208H97.602L93.778 196.48L93.762 196.464V188.224H92.466V200ZM107.269 195.968C107.269 193.744 105.813 192.112 103.685 192.112C101.461 192.112 99.845 193.76 99.845 196.112C99.845 198.496 101.477 200.096 103.781 200.096C105.349 200.096 106.325 199.504 106.997 198.64L106.085 197.872C105.605 198.464 104.869 198.912 103.829 198.912C102.357 198.912 101.333 197.952 101.157 196.496H107.237C107.237 196.4 107.269 196.176 107.269 195.968ZM103.669 193.296C104.949 193.296 105.781 194.16 105.973 195.44H101.189C101.429 194.112 102.421 193.296 103.669 193.296ZM109.169 200H110.465V196.112C110.465 194.352 111.425 193.296 112.897 193.296C114.033 193.296 114.817 193.92 114.817 195.744V200H116.113V195.376C116.113 193.152 114.993 192.112 113.313 192.112C112.113 192.112 111.089 192.672 110.481 193.616H110.465V192.208H109.169V200ZM123.499 190.784C124.027 190.784 124.443 190.368 124.443 189.856C124.443 189.344 124.027 188.928 123.499 188.928C122.971 188.928 122.555 189.344 122.555 189.856C122.555 190.368 122.971 190.784 123.499 190.784ZM122.843 200H124.139V192.208H122.843V200ZM126.669 200H127.965V196.112C127.965 194.352 128.925 193.296 130.397 193.296C131.533 193.296 132.317 193.92 132.317 195.744V200H133.613V195.376C133.613 193.152 132.493 192.112 130.813 192.112C129.613 192.112 128.589 192.672 127.981 193.616H127.965V192.208H126.669V200ZM139.495 200H146.359V198.784H141.863L141.847 198.736L143.767 197.344C145.559 196.048 146.039 195.12 146.039 194.224C146.039 192.576 144.759 191.632 142.999 191.632C141.671 191.632 140.375 192.288 139.591 193.216L140.455 194.016C141.079 193.28 142.039 192.832 142.903 192.832C143.959 192.832 144.711 193.392 144.711 194.192C144.711 194.944 144.007 195.584 142.711 196.592L139.495 199.088V200ZM151.865 200.096C154.345 200.096 156.041 198.288 156.041 195.872C156.041 193.344 154.281 191.632 151.897 191.632C149.417 191.632 147.705 193.424 147.705 195.856C147.705 198.352 149.481 200.096 151.865 200.096ZM151.881 198.848C150.297 198.848 149.049 197.664 149.049 195.856C149.049 194.192 150.169 192.88 151.881 192.88C153.481 192.88 154.697 194.048 154.697 195.856C154.697 197.536 153.593 198.848 151.881 198.848ZM160.015 191.728L157.071 193.76L157.727 194.672L159.791 193.264V200H161.103V191.728H160.015ZM166.851 191.632C164.803 191.632 163.187 193.168 163.187 195.104C163.187 197.264 164.659 198.496 166.515 198.496C167.475 198.496 168.419 198.144 169.107 197.552C168.483 199.824 166.707 201.12 164.755 201.52L165.139 202.624C167.971 202.08 170.563 199.744 170.627 195.856C170.675 193.216 168.979 191.632 166.851 191.632ZM164.499 195.136C164.499 193.904 165.571 192.848 166.851 192.848C168.259 192.848 169.331 193.936 169.331 195.744V195.856C168.851 196.672 167.955 197.344 166.739 197.344C165.427 197.36 164.499 196.416 164.499 195.136Z" fill="#141414"/>
<path d="M38.304 76H42.016V54.016H39.008L32.576 58.688L34.336 61.44L38.304 58.464V76ZM56.1598 76H60.0318V60.8H60.0638L66.2718 71.616H68.7998L75.0078 60.8H75.0718V76H78.9438V53.28H75.0718L67.5838 66.88H67.5198L60.0318 53.28H56.1598V76ZM85.6333 58.08C86.9773 58.08 88.0653 56.992 88.0653 55.68C88.0653 54.4 86.9773 53.312 85.6333 53.312C84.2893 53.312 83.2333 54.4 83.2333 55.68C83.2333 56.992 84.2893 58.08 85.6333 58.08ZM83.8413 76H87.4253V60.384H83.8413V76ZM92.56 76H96.144V52.448H92.56V76ZM101.279 76H104.863V52.448H101.279V76ZM111.79 58.08C113.134 58.08 114.222 56.992 114.222 55.68C114.222 54.4 113.134 53.312 111.79 53.312C110.446 53.312 109.39 54.4 109.39 55.68C109.39 56.992 110.446 58.08 111.79 58.08ZM109.998 76H113.582V60.384H109.998V76ZM125.756 76.256C130.556 76.256 133.948 72.96 133.948 68.224C133.948 63.424 130.556 60.16 125.756 60.16C120.828 60.16 117.564 63.616 117.564 68.224C117.564 72.8 120.828 76.256 125.756 76.256ZM125.756 72.992C123.068 72.992 121.212 70.88 121.212 68.224C121.212 65.504 123.036 63.392 125.756 63.392C128.316 63.392 130.3 65.344 130.3 68.224C130.3 71.04 128.284 72.992 125.756 72.992ZM137.68 76H141.264V68.16C141.264 65.088 142.864 63.392 145.296 63.392C147.44 63.392 148.688 64.448 148.688 67.744V76H152.272V66.816C152.272 62.112 149.968 60.16 146.544 60.16C144.496 60.16 142.608 60.992 141.328 62.528H141.264V60.384H137.68V76ZM161.897 74.656H165.193V68.768H171.113V65.504H165.193V59.584H161.897V65.504H155.977V68.768H161.897V74.656Z" fill="#141414"/>
<path d="M36.768 104H38.016L42.304 92.64H40.816L37.408 101.984H37.392L33.984 92.64H32.48L36.768 104ZM49.7378 99.968C49.7378 97.744 48.2818 96.112 46.1538 96.112C43.9298 96.112 42.3138 97.76 42.3138 100.112C42.3138 102.496 43.9457 104.096 46.2498 104.096C47.8178 104.096 48.7938 103.504 49.4658 102.64L48.5538 101.872C48.0738 102.464 47.3378 102.912 46.2977 102.912C44.8258 102.912 43.8018 101.952 43.6258 100.496H49.7058C49.7058 100.4 49.7378 100.176 49.7378 99.968ZM46.1378 97.296C47.4178 97.296 48.2498 98.16 48.4418 99.44H43.6578C43.8978 98.112 44.8898 97.296 46.1378 97.296ZM51.6379 104H52.9339V100.08C52.9339 98.32 53.8939 97.296 55.4459 97.296C56.5819 97.296 57.3659 97.936 57.3659 99.696V104H58.6619V99.328C58.6619 97.104 57.5099 96.112 55.8299 96.112C54.5819 96.112 53.5579 96.64 52.9499 97.568H52.9339V92.224H51.6379V104ZM61.6868 94.784C62.2148 94.784 62.6308 94.368 62.6308 93.856C62.6308 93.344 62.2148 92.928 61.6868 92.928C61.1588 92.928 60.7428 93.344 60.7428 93.856C60.7428 94.368 61.1588 94.784 61.6868 94.784ZM61.0308 104H62.3268V96.208H61.0308V104ZM68.2486 104.096C69.7686 104.096 70.8086 103.52 71.4646 102.736L70.5686 101.92C70.0886 102.512 69.2726 102.912 68.3446 102.912C66.7606 102.912 65.6886 101.776 65.6886 100.112C65.6886 98.464 66.7606 97.296 68.3606 97.296C69.2886 97.296 70.0566 97.712 70.5526 98.288L71.4326 97.504C70.6646 96.592 69.4646 96.112 68.2966 96.112C65.9766 96.112 64.3606 97.76 64.3606 100.112C64.3606 102.48 65.9766 104.096 68.2486 104.096ZM73.2964 104H74.5924V92.224H73.2964V104ZM84.0503 99.968C84.0503 97.744 82.5943 96.112 80.4663 96.112C78.2423 96.112 76.6263 97.76 76.6263 100.112C76.6263 102.496 78.2582 104.096 80.5623 104.096C82.1303 104.096 83.1063 103.504 83.7783 102.64L82.8663 101.872C82.3863 102.464 81.6503 102.912 80.6102 102.912C79.1383 102.912 78.1143 101.952 77.9383 100.496H84.0183C84.0183 100.4 84.0503 100.176 84.0503 99.968ZM80.4503 97.296C81.7303 97.296 82.5623 98.16 82.7543 99.44H77.9703C78.2103 98.112 79.2023 97.296 80.4503 97.296ZM88.3024 104.096C90.1744 104.096 91.1024 103.088 91.1024 101.872C91.1184 100.352 90.0304 100.064 88.3824 99.424C87.5344 99.12 86.9104 98.816 86.9104 98.208C86.9104 97.616 87.5024 97.264 88.1104 97.264C88.7824 97.264 89.5024 97.472 90.1744 98.096L90.8464 97.072C89.9824 96.368 89.1024 96.112 88.1584 96.112C86.6864 96.112 85.5984 97.008 85.5984 98.208C85.5984 99.632 86.6704 100.144 87.9344 100.592C89.0704 101.008 89.7904 101.2 89.7904 101.888C89.7904 102.48 89.2464 102.944 88.3024 102.944C87.2144 102.944 86.5264 102.592 85.9184 102L85.2624 102.992C86.0144 103.648 87.0064 104.096 88.3024 104.096ZM100.686 104.096C102.206 104.096 103.246 103.52 103.902 102.736L103.006 101.92C102.526 102.512 101.71 102.912 100.782 102.912C99.1981 102.912 98.1261 101.776 98.1261 100.112C98.1261 98.464 99.1981 97.296 100.798 97.296C101.726 97.296 102.494 97.712 102.99 98.288L103.87 97.504C103.102 96.592 101.902 96.112 100.734 96.112C98.4141 96.112 96.7981 97.76 96.7981 100.112C96.7981 102.48 98.4141 104.096 100.686 104.096ZM109.174 104.096C111.478 104.096 113.19 102.48 113.19 100.112C113.19 97.744 111.478 96.112 109.174 96.112C106.758 96.112 105.142 97.872 105.142 100.112C105.142 102.352 106.758 104.096 109.174 104.096ZM109.174 102.912C107.558 102.912 106.47 101.664 106.47 100.112C106.47 98.56 107.542 97.296 109.174 97.296C110.678 97.296 111.862 98.448 111.862 100.112C111.862 101.776 110.662 102.912 109.174 102.912ZM115.122 104H116.418V100.112C116.418 98.352 117.378 97.296 118.85 97.296C119.986 97.296 120.77 97.92 120.77 99.744V104H122.066V99.376C122.066 97.152 120.946 96.112 119.266 96.112C118.066 96.112 117.042 96.672 116.434 97.616H116.418V96.208H115.122V104ZM124.341 104H125.637V100.112C125.637 98.352 126.597 97.296 128.069 97.296C129.205 97.296 129.989 97.92 129.989 99.744V104H131.285V99.376C131.285 97.152 130.165 96.112 128.485 96.112C127.285 96.112 126.261 96.672 125.653 97.616H125.637V96.208H124.341V104ZM140.488 99.968C140.488 97.744 139.032 96.112 136.904 96.112C134.68 96.112 133.064 97.76 133.064 100.112C133.064 102.496 134.696 104.096 137 104.096C138.568 104.096 139.544 103.504 140.216 102.64L139.304 101.872C138.824 102.464 138.088 102.912 137.048 102.912C135.576 102.912 134.552 101.952 134.376 100.496H140.456C140.456 100.4 140.488 100.176 140.488 99.968ZM136.888 97.296C138.168 97.296 139 98.16 139.192 99.44H134.408C134.648 98.112 135.64 97.296 136.888 97.296ZM145.78 104.096C147.3 104.096 148.34 103.52 148.996 102.736L148.1 101.92C147.62 102.512 146.804 102.912 145.876 102.912C144.292 102.912 143.22 101.776 143.22 100.112C143.22 98.464 144.292 97.296 145.892 97.296C146.82 97.296 147.588 97.712 148.084 98.288L148.964 97.504C148.196 96.592 146.996 96.112 145.828 96.112C143.508 96.112 141.892 97.76 141.892 100.112C141.892 102.48 143.508 104.096 145.78 104.096ZM152.924 104.096C153.852 104.096 154.38 103.872 154.812 103.616L154.476 102.48C154.092 102.688 153.612 102.88 153.148 102.88C152.412 102.88 152.204 102.432 152.204 101.488V97.328H154.78V96.208H152.204V93.408L150.908 93.552V96.208H149.9V97.328H150.908V101.68C150.908 103.248 151.548 104.096 152.924 104.096ZM163.066 99.968C163.066 97.744 161.61 96.112 159.482 96.112C157.258 96.112 155.642 97.76 155.642 100.112C155.642 102.496 157.274 104.096 159.578 104.096C161.146 104.096 162.122 103.504 162.794 102.64L161.882 101.872C161.402 102.464 160.666 102.912 159.626 102.912C158.154 102.912 157.13 101.952 156.954 100.496H163.034C163.034 100.4 163.066 100.176 163.066 99.968ZM159.466 97.296C160.746 97.296 161.578 98.16 161.77 99.44H156.986C157.226 98.112 158.218 97.296 159.466 97.296ZM168.278 104.096C169.542 104.096 170.534 103.504 171.094 102.56H171.11V104H172.358V92.224H171.062V97.6H171.046C170.454 96.656 169.446 96.112 168.262 96.112C166.07 96.112 164.454 97.856 164.454 100.16C164.454 102.528 166.118 104.096 168.278 104.096ZM168.454 102.912C166.87 102.912 165.782 101.728 165.782 100.16C165.782 98.432 166.982 97.296 168.47 97.296C170.038 97.296 171.11 98.56 171.11 100.16C171.11 101.808 169.926 102.912 168.454 102.912Z" fill="#141414"/>
<path d="M32.736 246.016V249.408H42.24L34.592 267.744L38.336 268.448L46.4 248.48V246.016H32.736ZM57.487 268.256C62.799 268.256 65.935 263.648 65.935 257.024C65.935 249.856 62.447 245.792 57.487 245.792C52.207 245.792 49.039 250.368 49.039 257.024C49.039 264.16 52.527 268.256 57.487 268.256ZM57.487 264.8C54.671 264.8 52.815 261.888 52.815 257.024C52.815 252.096 54.607 249.216 57.487 249.216C60.367 249.216 62.159 252.096 62.159 257.024C62.159 261.92 60.431 264.8 57.487 264.8ZM75.1778 266.656H78.4738V260.768H84.3938V257.504H78.4738V251.584H75.1778V257.504H69.2578V260.768H75.1778V266.656Z" fill="#141414"/>
<path d="M38.576 296.08C40.576 296.08 42.016 295.168 43.008 293.936L41.968 293.056C41.168 294.064 40.048 294.768 38.576 294.768C36.176 294.768 34.368 293.072 34.368 290.352C34.368 287.744 35.984 285.856 38.56 285.856C39.84 285.856 41.008 286.4 41.952 287.568L42.992 286.704C41.792 285.232 40.192 284.528 38.56 284.528C34.928 284.528 32.912 287.136 32.912 290.352C32.912 294.064 35.504 296.08 38.576 296.08ZM45.7961 286.784C46.3241 286.784 46.7401 286.368 46.7401 285.856C46.7401 285.344 46.3241 284.928 45.7961 284.928C45.2681 284.928 44.8521 285.344 44.8521 285.856C44.8521 286.368 45.2681 286.784 45.7961 286.784ZM45.1401 296H46.4361V288.208H45.1401V296ZM51.158 296.096C52.086 296.096 52.614 295.872 53.046 295.616L52.71 294.48C52.326 294.688 51.846 294.88 51.382 294.88C50.646 294.88 50.438 294.432 50.438 293.488V289.328H53.014V288.208H50.438V285.408L49.142 285.552V288.208H48.134V289.328H49.142V293.68C49.142 295.248 49.782 296.096 51.158 296.096ZM55.4524 286.784C55.9804 286.784 56.3964 286.368 56.3964 285.856C56.3964 285.344 55.9804 284.928 55.4524 284.928C54.9244 284.928 54.5084 285.344 54.5084 285.856C54.5084 286.368 54.9244 286.784 55.4524 286.784ZM54.7964 296H56.0924V288.208H54.7964V296ZM65.5503 291.968C65.5503 289.744 64.0943 288.112 61.9663 288.112C59.7423 288.112 58.1263 289.76 58.1263 292.112C58.1263 294.496 59.7582 296.096 62.0623 296.096C63.6303 296.096 64.6063 295.504 65.2783 294.64L64.3663 293.872C63.8863 294.464 63.1503 294.912 62.1102 294.912C60.6383 294.912 59.6143 293.952 59.4383 292.496H65.5183C65.5183 292.4 65.5503 292.176 65.5503 291.968ZM61.9503 289.296C63.2303 289.296 64.0623 290.16 64.2543 291.44H59.4703C59.7103 290.112 60.7023 289.296 61.9503 289.296ZM69.8024 296.096C71.6744 296.096 72.6024 295.088 72.6024 293.872C72.6184 292.352 71.5304 292.064 69.8824 291.424C69.0344 291.12 68.4104 290.816 68.4104 290.208C68.4104 289.616 69.0024 289.264 69.6104 289.264C70.2824 289.264 71.0024 289.472 71.6744 290.096L72.3464 289.072C71.4824 288.368 70.6024 288.112 69.6584 288.112C68.1864 288.112 67.0984 289.008 67.0984 290.208C67.0984 291.632 68.1704 292.144 69.4344 292.592C70.5704 293.008 71.2904 293.2 71.2904 293.888C71.2904 294.48 70.7464 294.944 69.8024 294.944C68.7144 294.944 68.0264 294.592 67.4184 294L66.7624 294.992C67.5144 295.648 68.5064 296.096 69.8024 296.096ZM80.6981 296H81.8821L83.6741 290.288H83.6901L85.4821 296H86.6981L89.3861 288.208H88.0581L86.1061 294.064H86.0741L84.2501 288.208H83.1301L81.3381 294.064H81.3061L79.3381 288.208H78.0101L80.6981 296ZM94.0801 296.096C96.3841 296.096 98.0961 294.48 98.0961 292.112C98.0961 289.744 96.3841 288.112 94.0801 288.112C91.6641 288.112 90.0481 289.872 90.0481 292.112C90.0481 294.352 91.6641 296.096 94.0801 296.096ZM94.0801 294.912C92.4641 294.912 91.3761 293.664 91.3761 292.112C91.3761 290.56 92.4481 289.296 94.0801 289.296C95.5841 289.296 96.7681 290.448 96.7681 292.112C96.7681 293.776 95.5681 294.912 94.0801 294.912ZM100.029 296H101.325V292.24C101.325 290.672 102.205 289.536 103.693 289.536C103.821 289.536 104.013 289.552 104.205 289.568V288.128C104.093 288.112 103.997 288.112 103.885 288.112C102.812 288.112 101.917 288.688 101.357 289.632H101.325V288.208H100.029V296ZM105.765 296H107.061V284.224H105.765V296ZM112.903 296.096C114.167 296.096 115.159 295.504 115.719 294.56H115.735V296H116.983V284.224H115.687V289.6H115.671C115.079 288.656 114.071 288.112 112.887 288.112C110.695 288.112 109.079 289.856 109.079 292.16C109.079 294.528 110.743 296.096 112.903 296.096ZM113.079 294.912C111.495 294.912 110.407 293.728 110.407 292.16C110.407 290.432 111.607 289.296 113.095 289.296C114.663 289.296 115.735 290.56 115.735 292.16C115.735 293.808 114.551 294.912 113.079 294.912ZM121.308 296H122.492L124.284 290.288H124.3L126.092 296H127.308L129.996 288.208H128.668L126.716 294.064H126.684L124.86 288.208H123.74L121.948 294.064H121.916L119.948 288.208H118.62L121.308 296ZM132.374 286.784C132.902 286.784 133.318 286.368 133.318 285.856C133.318 285.344 132.902 284.928 132.374 284.928C131.846 284.928 131.43 285.344 131.43 285.856C131.43 286.368 131.846 286.784 132.374 286.784ZM131.718 296H133.014V288.208H131.718V296ZM138.856 296.096C140.12 296.096 141.112 295.504 141.672 294.56H141.688V296H142.936V284.224H141.64V289.6H141.624C141.032 288.656 140.024 288.112 138.84 288.112C136.648 288.112 135.032 289.856 135.032 292.16C135.032 294.528 136.696 296.096 138.856 296.096ZM139.032 294.912C137.448 294.912 136.36 293.728 136.36 292.16C136.36 290.432 137.56 289.296 139.048 289.296C140.616 289.296 141.688 290.56 141.688 292.16C141.688 293.808 140.504 294.912 139.032 294.912ZM152.285 291.968C152.285 289.744 150.829 288.112 148.701 288.112C146.477 288.112 144.861 289.76 144.861 292.112C144.861 294.496 146.493 296.096 148.797 296.096C150.365 296.096 151.341 295.504 152.013 294.64L151.101 293.872C150.621 294.464 149.885 294.912 148.845 294.912C147.373 294.912 146.349 293.952 146.173 292.496H152.253C152.253 292.4 152.285 292.176 152.285 291.968ZM148.685 289.296C149.965 289.296 150.797 290.16 150.989 291.44H146.205C146.445 290.112 147.437 289.296 148.685 289.296Z" fill="#141414"/>
<g opacity="0.05" clip-path="url(#clip1)">
<path fill-rule="evenodd" clip-rule="evenodd" d="M446.583 25.1686C347.327 -46.0295 208.908 -23.3068 137.642 76.0435C66.3757 175.394 89.113 313.941 188.369 385.139C287.624 456.337 426.003 433.361 497.268 334.011C568.534 234.661 545.838 96.3666 446.583 25.1686ZM433.988 23.4871C434.936 24.0967 435.839 24.8643 436.781 25.49C392.736 29.7183 352.868 42.0056 318.325 60.6087C302.987 40.2516 290.556 17.5284 281.37 -7.34067C332.749 -16.1071 387.24 -6.58 433.988 23.4871ZM449.273 34.4509C494.513 69.3572 522.201 118.982 530.415 171.749C503.859 169.8 478.305 164.731 454.168 156.714C460.48 118.35 459.295 77.0944 449.273 34.4509ZM438.744 31.1315L376.802 117.483C356.132 102.681 337.671 85.1605 321.931 65.2008C355.972 47.0923 395.277 35.1049 438.744 31.1315ZM443.447 34.505C453.506 76.4923 454.665 117.063 448.662 154.77C424.61 146.263 401.995 134.894 381.505 120.857L443.447 34.505ZM275.563 -6.38192C284.865 19.1155 297.687 42.3708 313.313 63.2516C279.226 82.4735 250.508 107.948 228.098 137.365L144.18 77.1688C177.339 32.2162 224.649 3.74807 275.563 -6.38192ZM531.262 177.704C537.796 228.977 526.068 282.666 494.254 328.284L410.336 268.088C431.191 237.152 446.111 201.415 453.312 162.562C478.009 170.681 504.151 175.817 531.262 177.704ZM447.806 160.618C440.866 199.051 426.317 234.31 405.78 264.82L321.568 204.413L378.129 125.564C399.366 140.126 422.857 151.886 447.806 160.618ZM316.814 67.9909C333.033 88.7056 352.044 106.881 373.426 122.19L316.865 201.04L232.654 140.633C254.744 111.676 283.081 86.8291 316.814 67.9909ZM140.803 81.8763L224.574 141.967C202.053 172.884 186.544 208.118 178.911 245.343C154.971 237.819 129.799 233.484 103.731 232.855C97.0911 181.468 108.911 127.607 140.803 81.8763ZM229.13 145.235L313.489 205.747L257.14 284.302C234.8 268.277 210.312 255.718 184.229 246.929C191.627 210.266 206.955 175.657 229.13 145.235ZM318.191 209.121L402.55 269.633C380.62 300.726 352.343 326.52 319.539 345.327C302.753 323.324 283.282 303.963 261.737 287.823L318.191 209.121ZM407.106 272.901L490.877 332.992C457.924 377.667 410.913 405.976 360.357 416.27C350.325 392.212 337.775 369.939 322.999 349.814C356.176 330.612 384.86 304.418 407.106 272.901ZM253.763 289.009L191.399 375.95C178.414 334.497 176.116 292.516 183.226 252.671C208.42 261.257 232.151 273.496 253.763 289.009ZM258.466 292.383C279.318 308.018 298.103 326.841 314.422 348.118C279.229 367.252 239.104 378.361 196.102 379.323L258.466 292.383ZM177.762 250.98C170.442 291.138 172.52 333.482 185.196 375.288C140.269 340.428 112.746 291.098 104.537 238.558C129.962 239.257 154.415 243.584 177.762 250.98ZM317.881 352.604C332.372 372.245 344.693 393.961 354.591 417.481C302.059 426.721 246.294 416.431 198.717 384.987C242.018 383.623 282.42 372.085 317.881 352.604Z" fill="black"/>
</g>
</g>
<defs>
<clipPath id="clip0">
<rect width="373" height="352" fill="white"/>
</clipPath>
<clipPath id="clip1">
<rect width="502.934" height="629.268" fill="white" transform="translate(259.781 -146) rotate(35.6526)"/>
</clipPath>
</defs>
</svg>
