<?xml version="1.0" encoding="UTF-8" standalone="no"?>
<!-- Created with Keyshape -->
<svg id="yadea-3d-mob" xmlns="http://www.w3.org/2000/svg" viewBox="0 0 375 600" text-rendering="geometricPrecision" shape-rendering="geometricPrecision" height="600" width="375" style="white-space: pre;">
    <style>
@keyframes mob-a0_d { 0% { d: path('M0,0L12.1667,0L12.1667,0.731259L9.66363,0.731259L3.17364,0.731259L0,0.731259Z'); } 55.2632% { d: path('M0,0L12.1667,0L12.1667,0.731259L9.66363,0.731259L3.17364,0.731259L0,0.731259Z'); animation-timing-function: cubic-bezier(0,0,0.58,1); } 68.4211% { d: path('M0,0L12.1667,0L12.1667,120.296L9.66363,120.296L3.17364,120.296L0,120.296Z'); animation-timing-function: cubic-bezier(0.05,0.285,0.02,0.965); } 81.5789% { d: path('M0,0L12.1667,0L12.1667,120.296L159.21,172.327L157.846,176.194L0,120.296Z'); } 100% { d: path('M0,0L12.1667,0L12.1667,120.296L159.21,172.327L157.846,176.194L0,120.296Z'); } }
@keyframes mob-a1_w { 0% { width: 3.2px; } 78.9474% { width: 3.2px; animation-timing-function: cubic-bezier(0.07,0.305,0.045,0.97); } 100% { width: 154.6px; } }
@keyframes mob-a2_d { 0% { d: path('M0,0L12.2,0L12.2,0.888758L9.42734,0.888758L3.18823,0.888758L0,0.888758Z'); } 55.2632% { d: path('M0,0L12.2,0L12.2,0.888758L9.42734,0.888758L3.18823,0.888758L0,0.888758Z'); animation-timing-function: cubic-bezier(0,0,0.58,1); } 68.4211% { d: path('M0,0L12.2,0L12.2,139.468L9.42734,139.468L3.18823,139.468L0,139.468Z'); animation-timing-function: cubic-bezier(0.07,0.38,0.05,1); } 81.5789% { d: path('M0,0L12.2,0L12.2,139.468L233.768,193.122L232.617,199.607L-0.637192,142.065Z'); } 100% { d: path('M0,0L12.2,0L12.2,139.468L233.768,193.122L232.617,199.607L-0.637192,142.065Z'); } }
@keyframes mob-a3_w { 0% { width: 3px; } 78.9474% { width: 3px; animation-timing-function: cubic-bezier(0.075,0.41,0.09,1); } 100% { width: 228.5px; } }
@keyframes mob-a4_d { 0% { d: path('M0,0L2.55256,0L7.61542,0L11.25,0L11.25,-0.0501036L8.05262,-0.0501036L2.91247,-0.0501036L0,-0.0501036Z'); } 55.2632% { d: path('M0,0L2.55256,0L7.61542,0L11.25,0L11.25,-0.0501036L8.05262,-0.0501036L2.91247,-0.0501036L0,-0.0501036Z'); animation-timing-function: cubic-bezier(0,0,0.58,1); } 68.4211% { d: path('M0,138.703L2.55256,138.703L7.61542,138.703L11.25,138.703L11.25,-0.0501036L8.05262,-0.0501036L2.91247,-0.0501036L0,-0.0501036Z'); animation-timing-function: cubic-bezier(0,0,0,1); } 81.5789% { d: path('M0,138.703L-227.395,178.944L-226.609,183.375L11.6178,141.758L11.25,-0.0501036L8.05262,-0.0501036L2.91247,-0.0501036L0,-0.0501036Z'); } 100% { d: path('M0,138.703L-227.395,178.944L-226.609,183.375L11.6178,141.758L11.25,-0.0501036L8.05262,-0.0501036L2.91247,-0.0501036L0,-0.0501036Z'); } }
@keyframes mob-a5_w { 0% { width: 2.75px; } 78.9474% { width: 2.75px; animation-timing-function: cubic-bezier(0.07,0.365,0.075,1); } 100% { width: 227.25px; } }
@keyframes mob-a6_d { 0% { d: path('M0,0L0.392334,0L0.392334,2.583L0.392334,8.583L0.392334,12L0,12Z'); } 55.2632% { d: path('M0,0L0.392334,0L0.392334,2.583L0.392334,8.583L0.392334,12L0,12Z'); animation-timing-function: cubic-bezier(0,0,0.58,1); } 68.4211% { d: path('M0,0L90.1782,0L90.1782,2.583L90.1782,8.583L90.1782,12L0,12Z'); animation-timing-function: cubic-bezier(0.065,0.355,0.005,0.965); } 81.5789% { d: path('M0,0L90.1782,0L197.806,114.289L192.276,119.357L90.1782,12L0,12Z'); } 100% { d: path('M0,0L90.1782,0L197.806,114.289L192.276,119.357L90.1782,12L0,12Z'); } }
@keyframes mob-a7_w { 0% { width: 1.25px; } 78.9474% { width: 1.25px; animation-timing-function: cubic-bezier(0.05,0.32,0,1); } 100% { width: 143.375px; } }
@keyframes mob-a8_d { 0% { d: path('M0,63.1226L3.65626,63.1226L11.0033,63.1226L14,63.1226L14,63.25L10.5031,63.25L3.4702,63.25L0,63.25Z'); } 55.2632% { d: path('M0,63.1226L3.65626,63.1226L11.0033,63.1226L14,63.1226L14,63.25L10.5031,63.25L3.4702,63.25L0,63.25Z'); animation-timing-function: cubic-bezier(0,0,0.58,1); } 68.4211% { d: path('M0,63.1226L3.65626,63.1226L11.0033,63.1226L14,63.1226L14,-152.966L10.5031,-152.966L3.4702,-152.966L0,-152.966Z'); animation-timing-function: cubic-bezier(0,0,0,1); } 81.5789% { d: path('M0,63.1226L3.65626,63.1226L11.0033,63.1226L14,63.1226L14,-152.966L-71.0556,-212.981L-75.9903,-206.06L0,-152.966Z'); } 100% { d: path('M0,63.1226L3.65626,63.1226L11.0033,63.1226L14,63.1226L14,-152.966L-71.0556,-212.981L-75.9903,-206.06L0,-152.966Z'); } }
@keyframes mob-a9_w { 0% { width: 3px; } 78.9474% { width: 3px; animation-timing-function: cubic-bezier(0.065,0.45,0.01,0.925); } 100% { width: 86.8333px; } }
@keyframes mob-a10_d { 0% { d: path('M0,0L0.379119,0L0.379119,2.26994L0.379119,6.85612L0.379119,8.75L0,8.75Z'); } 55.2632% { d: path('M0,0L0.379119,0L0.379119,2.26994L0.379119,6.85612L0.379119,8.75L0,8.75Z'); animation-timing-function: cubic-bezier(0,0,0.58,1); } 68.4211% { d: path('M0,0L103.312,0L103.312,2.26994L103.312,6.85612L103.312,8.75L0,8.75Z'); animation-timing-function: cubic-bezier(0,0,0,1); } 81.5789% { d: path('M0,0L103.312,0L222.196,74.1188L218.551,80.6842L103.312,8.75L0,8.75Z'); } 100% { d: path('M0,0L103.312,0L222.196,74.1188L218.551,80.6842L103.312,8.75L0,8.75Z'); } }
@keyframes mob-a11_w { 0% { width: 1.25px; } 78.9474% { width: 1.25px; animation-timing-function: cubic-bezier(0.115,0.25,0,1); } 100% { width: 133.125px; } }
@keyframes mob-a12_d { 0% { d: path('M0,0L0.78386,0L0.78386,11.6667L0,11.6667L0,8.21651L0,3.24258Z'); } 55.2632% { d: path('M0,0L0.78386,0L0.78386,11.6667L0,11.6667L0,8.21651L0,3.24258Z'); animation-timing-function: cubic-bezier(0,0,0.58,1); } 68.4211% { d: path('M-107.052,0L0.78386,0L0.78386,11.6667L-107.052,11.6667L-107.052,8.21651L-107.052,3.24258Z'); animation-timing-function: cubic-bezier(0,0,0,0.991755); } 81.5789% { d: path('M-107.052,0L0.78386,0L0.78386,11.6667L-107.052,11.6667L-169.766,120.917L-174.769,117.584Z'); } 100% { d: path('M-107.052,0L0.78386,0L0.78386,11.6667L-107.052,11.6667L-169.766,120.917L-174.769,117.584Z'); } }
@keyframes mob-a13_w { 0% { width: 1.875px; } 78.9474% { width: 1.875px; animation-timing-function: cubic-bezier(0.135,0.43,0,1); } 100% { width: 125.375px; } }
@keyframes mob-a14_d { 0% { d: path('M0,0L13.3333,0L13.3333,0.508073L9.54814,0.508073L3.31327,0.508073L0,0.508073Z'); } 55.2632% { d: path('M0,0L13.3333,0L13.3333,0.508073L9.54814,0.508073L3.31327,0.508073L0,0.508073Z'); animation-timing-function: cubic-bezier(0,0,0.58,1); } 68.4211% { d: path('M0,0L13.3333,0L13.3333,179.117L9.54814,179.117L3.31327,179.117L0,179.117Z'); animation-timing-function: cubic-bezier(0,0,0,0.989159); } 81.5789% { d: path('M0,0L13.3333,0L13.3333,179.117L-129.903,297.926L-135.157,291.889L0,179.117Z'); } 100% { d: path('M0,0L13.3333,0L13.3333,179.117L-129.903,297.926L-135.157,291.889L0,179.117Z'); } }
@keyframes mob-a15_w { 0% { width: 2.33367px; } 78.9474% { width: 2.33367px; animation-timing-function: cubic-bezier(0,0.620744,0,1); } 100% { width: 178px; } }
    </style>
    <defs>
        <filter id="filter0_d" x="104.5" y="54.5" width="509.5" height="291.5" filterUnits="userSpaceOnUse" color-interpolation-filters="sRGB" fill="none">
            <feFlood flood-opacity="0" result="BackgroundImageFix"/>
            <feColorMatrix in="SourceAlpha" type="matrix" values="0 0 0 0 0 0 0 0 0 0 0 0 0 0 0 0 0 0 127 0"/>
            <feOffset dy="4"/>
            <feGaussianBlur stdDeviation="43"/>
            <feColorMatrix type="matrix" values="0 0 0 0 0.12 0 0 0 0 0.12 0 0 0 0 0.12 0 0 0 0.1 0"/>
            <feBlend mode="normal" in2="BackgroundImageFix" result="effect1_dropShadow"/>
            <feBlend mode="normal" in="SourceGraphic" in2="effect1_dropShadow" result="shape"/>
        </filter>
        <filter id="filter1_d" x="425" y="157" width="189" height="189" filterUnits="userSpaceOnUse" color-interpolation-filters="sRGB" fill="none">
            <feFlood flood-opacity="0" result="BackgroundImageFix"/>
            <feColorMatrix in="SourceAlpha" type="matrix" values="0 0 0 0 0 0 0 0 0 0 0 0 0 0 0 0 0 0 127 0"/>
            <feOffset dy="4"/>
            <feGaussianBlur stdDeviation="43"/>
            <feColorMatrix type="matrix" values="0 0 0 0 0.12 0 0 0 0 0.12 0 0 0 0 0.12 0 0 0 0.1 0"/>
            <feBlend mode="normal" in2="BackgroundImageFix" result="effect1_dropShadow"/>
            <feBlend mode="normal" in="SourceGraphic" in2="effect1_dropShadow" result="shape"/>
        </filter>
        <clipPath id="ClipPath-15">
            <path fill="none" stroke="#ffffff" stroke-linecap="round" d="M0,0L12.1667,0L12.1667,0.731259L9.66363,0.731259L3.17364,0.731259L0,0.731259Z" transform="translate(630.316,622.966) rotate(-19.4301) translate(-6.08333,-33.4112)" style="animation: 3.8s linear infinite both mob-a0_d;"/>
        </clipPath>
        <clipPath id="ClipPath-16">
            <rect width="3.2" height="24.8" fill="#ffffff" stroke="none" transform="translate(73.2697,-5.66567) translate(-78.6,-12.4)" style="animation: 3.8s linear infinite both mob-a1_w;"/>
        </clipPath>
        <clipPath id="ClipPath-14">
            <path fill="none" stroke="#ffffff" stroke-linecap="round" d="M0,0L12.2,0L12.2,0.888758L9.42734,0.888758L3.18823,0.888758L0,0.888758Z" transform="translate(810.5,679.7) rotate(-13.7861) translate(-6.1,-35.9123)" style="animation: 3.8s linear infinite both mob-a2_d;"/>
        </clipPath>
        <clipPath id="ClipPath-13">
            <rect width="3" height="26.5" fill="#ffffff" stroke="none" transform="translate(110.461,-4.99867) translate(-113.125,-13.25)" style="animation: 3.8s linear infinite both mob-a3_w;"/>
        </clipPath>
        <clipPath id="ClipPath-11">
            <path fill="#000000" opacity="0.2" stroke="none" d="M0,0L2.55256,0L7.61542,0L11.25,0L11.25,-0.0501036L8.05262,-0.0501036L2.91247,-0.0501036L0,-0.0501036Z" transform="translate(1318.72,671.592) rotate(10.0671) translate(-5.625,-26.625)" style="animation: 3.8s linear infinite both mob-a4_d;"/>
        </clipPath>
        <clipPath id="ClipPath-12">
            <rect width="2.75" height="23" fill="#ffffff" stroke="none" transform="translate(110.919,-5.41567) translate(-113,-11.5)" style="animation: 3.8s linear infinite both mob-a5_w;"/>
        </clipPath>
        <clipPath id="ClipPath-9">
            <path fill="none" stroke="#ffffff" stroke-linecap="round" d="M0,0L0.392334,0L0.392334,2.583L0.392334,8.583L0.392334,12L0,12Z" transform="translate(546.458,142.417) rotate(-46.5414) translate(-44.3333,-6)" style="animation: 3.8s linear infinite both mob-a6_d;"/>
        </clipPath>
        <clipPath id="ClipPath-10">
            <rect width="1.25" height="22.875" fill="#ffffff" stroke="none" transform="translate(71.4587,-5.02133) translate(-72.625,-11.4375)" style="animation: 3.8s linear infinite both mob-a7_w;"/>
        </clipPath>
        <clipPath id="ClipPath-7">
            <path fill="none" stroke="#ffffff" stroke-linecap="round" d="M0,63.1226L3.65626,63.1226L11.0033,63.1226L14,63.1226L14,63.25L10.5031,63.25L3.4702,63.25L0,63.25Z" transform="translate(963.562,437.263) rotate(-35.4899) translate(-7,-31.625)" style="animation: 3.8s linear infinite both mob-a8_d;"/>
        </clipPath>
        <clipPath id="ClipPath-8">
            <rect width="3" height="22.6667" fill="#ffffff" stroke="none" transform="translate(62.67,-4.66567) translate(-66,-11.3333)" style="animation: 3.8s linear infinite both mob-a9_w;"/>
        </clipPath>
        <clipPath id="ClipPath-5">
            <path fill="none" stroke="#ffffff" stroke-linecap="round" d="M0,0L0.379119,0L0.379119,2.26994L0.379119,6.85612L0.379119,8.75L0,8.75Z" transform="translate(445.375,220.792) rotate(-31.9014) translate(-30.125,-4.375)" style="animation: 3.8s linear infinite both mob-a10_d;"/>
        </clipPath>
        <clipPath id="ClipPath-6">
            <rect width="1.25" height="28.875" fill="#ffffff" stroke="none" transform="translate(65.021,-3.47833) translate(-68.3125,-14.4375)" style="animation: 3.8s linear infinite both mob-a11_w;"/>
        </clipPath>
        <clipPath id="ClipPath-3">
            <path fill="none" stroke="#ffffff" stroke-linecap="round" d="M0,0L0.78386,0L0.78386,11.6667L0,11.6667L0,8.21651L0,3.24258Z" transform="translate(1094.25,262.501) rotate(59.9149) translate(22.0495,-5.83333)" style="animation: 3.8s linear infinite both mob-a12_d;"/>
        </clipPath>
        <clipPath id="ClipPath-4">
            <rect width="1.875" height="25.75" fill="#ffffff" stroke="none" transform="translate(60.292,-5.583) translate(-63.125,-12.875)" style="animation: 3.8s linear infinite both mob-a13_w;"/>
        </clipPath>
        <clipPath id="ClipPath-1">
            <path fill="none" opacity="0.2" stroke="#ffffff" stroke-linecap="round" d="M0,0L13.3333,0L13.3333,0.508073L9.54814,0.508073L3.31327,0.508073L0,0.508073Z" transform="translate(1066.73,684.633) rotate(39.6059) translate(-6.66667,-52.8333)" style="animation: 3.8s linear infinite both mob-a14_d;"/>
        </clipPath>
        <clipPath id="ClipPath-2">
            <rect width="2.33367" height="21.6667" fill="#ffffff" stroke="none" transform="translate(86.2703,-5.16567) translate(-88.3333,-10.8333)" style="animation: 3.8s linear infinite both mob-a15_w;"/>
        </clipPath>
    </defs>
    <image x="0" y="0" width="375px" height="600px" xlink:href="/uploads/global/yadea-svg-bg_mob@2x.jpg" />
    <g id="Battery" transform="translate(275.417,457.917) translate(-145.25,-94.75)" style="white-space: pre;">
        <ellipse stroke="white" rx="8" ry="8" fill="#ffffff" transform="translate(-602.833,-600.833) translate(615.5,584.5)"/>
        <path d="M619.133,591.833L659.333,705.233L817.633,704.933" stroke="white" stroke-linecap="round" fill="none" clip-path="url(#ClipPath-15)" transform="translate(-604.9,-600.3)"/>
        <path fill="#ffffff" stroke="none" d="M1.392,0L8.592,0L8.592,-1.728L3.328,-1.728L3.328,-11.36L1.392,-11.36ZM11.3479,-8.96C12.0199,-8.96,12.5639,-9.504,12.5639,-10.16C12.5639,-10.8,12.0199,-11.344,11.3479,-11.344C10.6759,-11.344,10.1479,-10.8,10.1479,-10.16C10.1479,-9.504,10.6759,-8.96,11.3479,-8.96ZM10.4519,0L12.2439,0L12.2439,-7.808L10.4519,-7.808ZM18.1873,3.28C21.0833,3.28,22.1712,1.568,22.1712,-0.8L22.1712,-7.808L20.3792,-7.808L20.3792,-6.976L20.3472,-6.976C19.6912,-7.6,18.8113,-7.92,17.9152,-7.92C15.7552,-7.92,14.2032,-6.272,14.2032,-3.984C14.2032,-1.664,15.8352,-0.128,18.0112,-0.128C18.9713,-0.128,19.7873,-0.48,20.3792,-1.072L20.4113,-1.072L20.4113,-0.256C20.4113,0.784,19.6273,1.664,18.0912,1.664C16.9713,1.664,16.2833,1.344,15.4353,0.896L15.0033,2.464C15.8833,2.992,17.0192,3.28,18.1873,3.28ZM18.2512,-1.776C16.9872,-1.776,16.0273,-2.64,16.0273,-4.032C16.0273,-5.36,16.9233,-6.288,18.2512,-6.288C19.4993,-6.288,20.4592,-5.392,20.4592,-4.064C20.4592,-2.736,19.5472,-1.776,18.2512,-1.776ZM24.418,0L26.21,0L26.21,-3.968C26.21,-5.504,27.01,-6.304,28.306,-6.304C29.378,-6.304,30.002,-5.76,30.002,-4.208L30.002,0L31.794,0L31.794,-4.672C31.794,-7.008,30.594,-7.92,28.882,-7.92C27.826,-7.92,26.882,-7.552,26.226,-6.832L26.21,-6.832L26.21,-11.776L24.418,-11.776ZM36.3005,0.128C37.3245,0.128,37.8205,-0.08,38.2845,-0.336L37.8205,-1.888C37.4045,-1.664,36.9725,-1.552,36.6685,-1.552C36.1565,-1.552,35.9165,-1.84,35.9165,-2.64L35.9165,-6.288L38.2045,-6.288L38.2045,-7.808L35.9165,-7.808L35.9165,-10.592L34.1245,-10.4L34.1245,-7.808L33.1645,-7.808L33.1645,-6.288L34.1245,-6.288L34.1245,-2.464C34.1245,-0.72,34.9565,0.128,36.3005,0.128ZM41.6802,0L43.2962,0L44.8003,-4.912L44.8162,-4.912L46.3203,0L47.9683,0L50.6243,-7.808L48.8162,-7.808L47.1683,-2.624L47.1362,-2.624L45.5682,-7.808L44.0802,-7.808L42.5443,-2.624L42.5122,-2.624L40.8643,-7.808L39.0243,-7.808ZM58.8196,-4C58.8196,-6.272,57.3316,-7.92,55.1396,-7.92C52.8516,-7.92,51.2196,-6.304,51.2196,-3.904C51.2196,-1.456,52.8996,0.128,55.2676,0.128C56.9476,0.128,57.9236,-0.496,58.5796,-1.344L57.3316,-2.416C56.9316,-1.92,56.2916,-1.504,55.3636,-1.504C54.1476,-1.504,53.2996,-2.176,53.0756,-3.312L58.7716,-3.312C58.7876,-3.44,58.8196,-3.712,58.8196,-4ZM55.1236,-6.304C56.1476,-6.304,56.7876,-5.664,57.0116,-4.72L53.1076,-4.72C53.3636,-5.744,54.1316,-6.304,55.1236,-6.304ZM61.676,-8.96C62.348,-8.96,62.892,-9.504,62.892,-10.16C62.892,-10.8,62.348,-11.344,61.676,-11.344C61.004,-11.344,60.476,-10.8,60.476,-10.16C60.476,-9.504,61.004,-8.96,61.676,-8.96ZM60.78,0L62.572,0L62.572,-7.808L60.78,-7.808ZM68.5154,3.28C71.4114,3.28,72.4994,1.568,72.4994,-0.8L72.4994,-7.808L70.7074,-7.808L70.7074,-6.976L70.6754,-6.976C70.0194,-7.6,69.1394,-7.92,68.2434,-7.92C66.0834,-7.92,64.5314,-6.272,64.5314,-3.984C64.5314,-1.664,66.1634,-0.128,68.3394,-0.128C69.2994,-0.128,70.1154,-0.48,70.7074,-1.072L70.7394,-1.072L70.7394,-0.256C70.7394,0.784,69.9554,1.664,68.4194,1.664C67.2994,1.664,66.6114,1.344,65.7634,0.896L65.3314,2.464C66.2114,2.992,67.3474,3.28,68.5154,3.28ZM68.5794,-1.776C67.3154,-1.776,66.3554,-2.64,66.3554,-4.032C66.3554,-5.36,67.2514,-6.288,68.5794,-6.288C69.8274,-6.288,70.7874,-5.392,70.7874,-4.064C70.7874,-2.736,69.8754,-1.776,68.5794,-1.776ZM74.7461,0L76.5381,0L76.5381,-3.968C76.5381,-5.504,77.3381,-6.304,78.6341,-6.304C79.7061,-6.304,80.3301,-5.76,80.3301,-4.208L80.3301,0L82.1221,0L82.1221,-4.672C82.1221,-7.008,80.9221,-7.92,79.2101,-7.92C78.1541,-7.92,77.2101,-7.552,76.5541,-6.832L76.5381,-6.832L76.5381,-11.776L74.7461,-11.776ZM86.6286,0.128C87.6526,0.128,88.1486,-0.08,88.6126,-0.336L88.1486,-1.888C87.7326,-1.664,87.3006,-1.552,86.9966,-1.552C86.4846,-1.552,86.2446,-1.84,86.2446,-2.64L86.2446,-6.288L88.5326,-6.288L88.5326,-7.808L86.2446,-7.808L86.2446,-10.592L84.4526,-10.4L84.4526,-7.808L83.4926,-7.808L83.4926,-6.288L84.4526,-6.288L84.4526,-2.464C84.4526,-0.72,85.2846,0.128,86.6286,0.128ZM98.7056,0.128C100.882,0.128,102.498,-1.456,102.498,-3.872C102.498,-6.224,100.882,-7.92,98.7216,-7.92C97.6976,-7.92,96.8496,-7.568,96.2416,-6.88L96.2256,-6.88L96.2256,-11.776L94.4336,-11.776L94.4336,0L96.1456,0L96.1456,-1.04L96.1776,-1.04C96.7536,-0.288,97.5856,0.128,98.7056,0.128ZM98.4336,-1.504C97.1536,-1.504,96.1456,-2.448,96.1456,-3.856C96.1456,-5.248,97.0736,-6.304,98.4176,-6.304C99.6656,-6.304,100.674,-5.36,100.674,-3.856C100.674,-2.48,99.7456,-1.504,98.4336,-1.504ZM107.667,0.128C108.755,0.128,109.587,-0.288,110.147,-1.04L110.179,-1.024L110.179,0L111.891,0L111.891,-7.808L110.099,-7.808L110.099,-6.864L110.067,-6.848C109.507,-7.552,108.643,-7.92,107.651,-7.92C105.507,-7.92,103.891,-6.224,103.891,-3.872C103.891,-1.456,105.507,0.128,107.667,0.128ZM107.955,-1.504C106.627,-1.504,105.715,-2.48,105.715,-3.856C105.715,-5.36,106.707,-6.304,107.955,-6.304C109.235,-6.304,110.179,-5.248,110.179,-3.856C110.179,-2.448,109.171,-1.504,107.955,-1.504ZM116.472,0.128C117.496,0.128,117.992,-0.08,118.456,-0.336L117.992,-1.888C117.576,-1.664,117.144,-1.552,116.84,-1.552C116.328,-1.552,116.088,-1.84,116.088,-2.64L116.088,-6.288L118.376,-6.288L118.376,-7.808L116.088,-7.808L116.088,-10.592L114.296,-10.4L114.296,-7.808L113.336,-7.808L113.336,-6.288L114.296,-6.288L114.296,-2.464C114.296,-0.72,115.128,0.128,116.472,0.128ZM122.425,0.128C123.45,0.128,123.946,-0.08,124.41,-0.336L123.946,-1.888C123.53,-1.664,123.098,-1.552,122.794,-1.552C122.282,-1.552,122.042,-1.84,122.042,-2.64L122.042,-6.288L124.329,-6.288L124.329,-7.808L122.042,-7.808L122.042,-10.592L120.249,-10.4L120.249,-7.808L119.289,-7.808L119.289,-6.288L120.249,-6.288L120.249,-2.464C120.249,-0.72,121.081,0.128,122.425,0.128ZM132.71,-4C132.71,-6.272,131.222,-7.92,129.03,-7.92C126.742,-7.92,125.11,-6.304,125.11,-3.904C125.11,-1.456,126.79,0.128,129.158,0.128C130.838,0.128,131.814,-0.496,132.47,-1.344L131.222,-2.416C130.822,-1.92,130.182,-1.504,129.254,-1.504C128.038,-1.504,127.19,-2.176,126.966,-3.312L132.662,-3.312C132.678,-3.44,132.71,-3.712,132.71,-4ZM129.014,-6.304C130.038,-6.304,130.678,-5.664,130.902,-4.72L126.998,-4.72C127.254,-5.744,128.022,-6.304,129.014,-6.304ZM134.559,0L136.351,0L136.351,-3.696C136.351,-4.976,137.119,-5.952,138.479,-5.952C138.607,-5.952,138.815,-5.936,139.023,-5.92L139.023,-7.92L138.799,-7.92C137.855,-7.92,136.991,-7.456,136.383,-6.64L136.351,-6.64L136.351,-7.808L134.559,-7.808ZM141.44,3.168L143.296,3.168L147.584,-7.808L145.744,-7.808L143.744,-2.576L143.712,-2.576L141.568,-7.808L139.648,-7.808L142.848,-0.432Z" clip-path="url(#ClipPath-16)" transform="translate(64.1637,91.499)"/>
    </g>
    <g id="Brakes-Left" transform="translate(93.5,455.75) translate(-260,-75.25)" style="white-space: pre;">
        <ellipse stroke="white" rx="8" ry="8" fill="#ffffff" transform="translate(-827.167,-675.5) translate(1069.5,660.5)"/>
        <path d="M801.941,645.183L834.333,781.333L1066.33,782.333" stroke="white" stroke-linecap="round" fill="none" clip-path="url(#ClipPath-14)" transform="translate(-557.5,-652.5)"/>
        <path fill="#ffffff" stroke="none" d="M0.672,0L7.728,0L7.728,-1.696L3.488,-1.696L3.472,-1.744L5.792,-4.16C7.184,-5.6,7.616,-6.64,7.616,-7.856C7.616,-9.872,5.984,-11.088,4.176,-11.088C2.384,-11.088,1.248,-10.192,0.624,-9.008L1.952,-8.064C2.448,-8.928,3.168,-9.36,4.048,-9.36C5.04,-9.36,5.728,-8.624,5.728,-7.648C5.728,-6.704,5.072,-5.904,4.176,-4.96L0.64,-1.232ZM9.18762,0L16.2436,0L16.2436,-1.696L12.0036,-1.696L11.9876,-1.744L14.3076,-4.16C15.6996,-5.6,16.1316,-6.64,16.1316,-7.856C16.1316,-9.872,14.4996,-11.088,12.6916,-11.088C10.8996,-11.088,9.76363,-10.192,9.13962,-9.008L10.4676,-8.064C10.9636,-8.928,11.6836,-9.36,12.5636,-9.36C13.5556,-9.36,14.2436,-8.624,14.2436,-7.648C14.2436,-6.704,13.5876,-5.904,12.6916,-4.96L9.15563,-1.232ZM22.0872,0.128C24.7432,0.128,26.3112,-2.176,26.3112,-5.488C26.3112,-9.072,24.5672,-11.104,22.0872,-11.104C19.4473,-11.104,17.8633,-8.816,17.8633,-5.488C17.8633,-1.92,19.6073,0.128,22.0872,0.128ZM22.0872,-1.6C20.6793,-1.6,19.7512,-3.056,19.7512,-5.488C19.7512,-7.952,20.6472,-9.392,22.0872,-9.392C23.5273,-9.392,24.4233,-7.952,24.4233,-5.488C24.4233,-3.04,23.5592,-1.6,22.0872,-1.6ZM32.5899,0L34.3819,0L34.3819,-3.888C34.3819,-5.424,35.1819,-6.304,36.2539,-6.304C37.3099,-6.304,37.8059,-5.472,37.8059,-4.064L37.8059,0L39.5979,0L39.5979,-3.888C39.5979,-5.424,40.4139,-6.304,41.4219,-6.304C42.4779,-6.304,42.9419,-5.472,42.9419,-4.064L42.9419,0L44.7339,0L44.7339,-4.512C44.7339,-6.848,43.7099,-7.92,41.9979,-7.92C40.8459,-7.92,39.8539,-7.472,39.1979,-6.624L39.1659,-6.624C38.7019,-7.504,37.8859,-7.92,36.8299,-7.92C35.9339,-7.92,35.0379,-7.504,34.3979,-6.736L34.3819,-6.736L34.3819,-7.808L32.5899,-7.808ZM46.9492,0L48.7412,0L48.7412,-3.888C48.7412,-5.424,49.5412,-6.304,50.6133,-6.304C51.6693,-6.304,52.1652,-5.472,52.1652,-4.064L52.1652,0L53.9572,0L53.9572,-3.888C53.9572,-5.424,54.7733,-6.304,55.7812,-6.304C56.8372,-6.304,57.3013,-5.472,57.3013,-4.064L57.3013,0L59.0933,0L59.0933,-4.512C59.0933,-6.848,58.0693,-7.92,56.3573,-7.92C55.2052,-7.92,54.2132,-7.472,53.5573,-6.624L53.5252,-6.624C53.0612,-7.504,52.2453,-7.92,51.1893,-7.92C50.2933,-7.92,49.3973,-7.504,48.7573,-6.736L48.7412,-6.736L48.7412,-7.808L46.9492,-7.808ZM65.5899,0L67.3819,0L67.3819,-3.968C67.3819,-5.504,68.1819,-6.304,69.4779,-6.304C70.5499,-6.304,71.1739,-5.76,71.1739,-4.208L71.1739,0L72.9659,0L72.9659,-4.672C72.9659,-7.008,71.7659,-7.92,70.0539,-7.92C68.9979,-7.92,68.0539,-7.552,67.3979,-6.832L67.3819,-6.832L67.3819,-11.776L65.5899,-11.776ZM75.7054,3.168L77.5614,3.168L81.8494,-7.808L80.0094,-7.808L78.0094,-2.576L77.9774,-2.576L75.8334,-7.808L73.9134,-7.808L77.1134,-0.432ZM86.2769,0.128C87.3969,0.128,88.2449,-0.304,88.8209,-1.056L88.8369,-1.056L88.8369,0L90.5489,0L90.5489,-11.776L88.7729,-11.776L88.7729,-6.848L88.7569,-6.848C88.1649,-7.552,87.2849,-7.92,86.2609,-7.92C84.1169,-7.92,82.4849,-6.224,82.4849,-3.872C82.4849,-1.456,84.1169,0.128,86.2769,0.128ZM86.5489,-1.504C85.2369,-1.504,84.3089,-2.48,84.3089,-3.856C84.3089,-5.36,85.3169,-6.304,86.5649,-6.304C87.9089,-6.304,88.8369,-5.248,88.8369,-3.856C88.8369,-2.448,87.8289,-1.504,86.5489,-1.504ZM92.8867,0L94.6787,0L94.6787,-3.696C94.6787,-4.976,95.4467,-5.952,96.8067,-5.952C96.9348,-5.952,97.1427,-5.936,97.3508,-5.92L97.3508,-7.92L97.1267,-7.92C96.1827,-7.92,95.3187,-7.456,94.7107,-6.64L94.6787,-6.64L94.6787,-7.808L92.8867,-7.808ZM101.917,0.128C103.005,0.128,103.837,-0.288,104.397,-1.04L104.429,-1.024L104.429,0L106.141,0L106.141,-7.808L104.349,-7.808L104.349,-6.864L104.317,-6.848C103.757,-7.552,102.893,-7.92,101.901,-7.92C99.7571,-7.92,98.1411,-6.224,98.1411,-3.872C98.1411,-1.456,99.7571,0.128,101.917,0.128ZM102.205,-1.504C100.877,-1.504,99.9651,-2.48,99.9651,-3.856C99.9651,-5.36,100.957,-6.304,102.205,-6.304C103.485,-6.304,104.429,-5.248,104.429,-3.856C104.429,-2.448,103.421,-1.504,102.205,-1.504ZM111.17,0.128C112.066,0.128,112.93,-0.24,113.554,-0.992L113.586,-0.976L113.586,0L115.378,0L115.378,-7.808L113.586,-7.808L113.586,-4.064C113.586,-2.384,112.626,-1.504,111.586,-1.504C110.514,-1.504,110.034,-1.984,110.034,-3.536L110.034,-7.808L108.242,-7.808L108.242,-3.056C108.242,-0.736,109.442,0.128,111.17,0.128ZM117.764,0L119.556,0L119.556,-11.776L117.764,-11.776ZM123.02,-8.96C123.692,-8.96,124.236,-9.504,124.236,-10.16C124.236,-10.8,123.692,-11.344,123.02,-11.344C122.348,-11.344,121.82,-10.8,121.82,-10.16C121.82,-9.504,122.348,-8.96,123.02,-8.96ZM122.124,0L123.916,0L123.916,-7.808L122.124,-7.808ZM129.891,0.128C131.587,0.128,132.595,-0.48,133.251,-1.328L132.019,-2.416C131.619,-1.888,130.915,-1.504,130.051,-1.504C128.675,-1.504,127.731,-2.464,127.731,-3.904C127.731,-5.328,128.659,-6.304,130.051,-6.304C130.899,-6.304,131.571,-5.936,132.019,-5.408L133.235,-6.464C132.451,-7.424,131.171,-7.92,129.955,-7.92C127.587,-7.92,125.907,-6.288,125.907,-3.888C125.907,-1.504,127.587,0.128,129.891,0.128ZM142.48,0.128C143.6,0.128,144.448,-0.304,145.024,-1.056L145.04,-1.056L145.04,0L146.752,0L146.752,-11.776L144.976,-11.776L144.976,-6.848L144.96,-6.848C144.368,-7.552,143.488,-7.92,142.464,-7.92C140.32,-7.92,138.688,-6.224,138.688,-3.872C138.688,-1.456,140.32,0.128,142.48,0.128ZM142.752,-1.504C141.44,-1.504,140.512,-2.48,140.512,-3.856C140.512,-5.36,141.52,-6.304,142.768,-6.304C144.112,-6.304,145.04,-5.248,145.04,-3.856C145.04,-2.448,144.032,-1.504,142.752,-1.504ZM150.098,-8.96C150.77,-8.96,151.314,-9.504,151.314,-10.16C151.314,-10.8,150.77,-11.344,150.098,-11.344C149.426,-11.344,148.898,-10.8,148.898,-10.16C148.898,-9.504,149.426,-8.96,150.098,-8.96ZM149.202,0L150.994,0L150.994,-7.808L149.202,-7.808ZM155.945,0.128C157.929,0.128,158.857,-0.928,158.857,-2.24C158.857,-3.792,157.817,-4.096,156.153,-4.752C155.401,-5.04,154.921,-5.312,154.921,-5.696C154.921,-6.176,155.417,-6.368,155.769,-6.368C156.377,-6.368,157.097,-6.128,157.721,-5.536L158.617,-6.944C157.753,-7.648,156.857,-7.92,155.865,-7.92C154.265,-7.92,153.113,-6.992,153.113,-5.712C153.113,-4.176,154.217,-3.6,155.497,-3.152C156.521,-2.8,157.033,-2.608,157.033,-2.208C157.033,-1.744,156.633,-1.44,155.945,-1.44C154.985,-1.44,154.313,-1.744,153.689,-2.352L152.793,-1.008C153.609,-0.288,154.681,0.128,155.945,0.128ZM160.637,0L162.429,0L162.429,-2.064L163.693,-3.44L165.789,0L167.805,0L164.941,-4.672L167.757,-7.808L165.629,-7.808L162.461,-4.192L162.429,-4.208L162.429,-11.776L160.637,-11.776ZM177.753,0.128C179.928,0.128,181.544,-1.456,181.544,-3.872C181.544,-6.224,179.928,-7.92,177.768,-7.92C176.745,-7.92,175.896,-7.568,175.288,-6.88L175.273,-6.88L175.273,-11.776L173.48,-11.776L173.48,0L175.193,0L175.193,-1.04L175.225,-1.04C175.801,-0.288,176.633,0.128,177.753,0.128ZM177.48,-1.504C176.201,-1.504,175.193,-2.448,175.193,-3.856C175.193,-5.248,176.12,-6.304,177.464,-6.304C178.712,-6.304,179.721,-5.36,179.721,-3.856C179.721,-2.48,178.792,-1.504,177.48,-1.504ZM183.418,0L185.21,0L185.21,-3.696C185.21,-4.976,185.978,-5.952,187.338,-5.952C187.466,-5.952,187.674,-5.936,187.882,-5.92L187.882,-7.92L187.658,-7.92C186.714,-7.92,185.85,-7.456,185.242,-6.64L185.21,-6.64L185.21,-7.808L183.418,-7.808ZM192.448,0.128C193.536,0.128,194.368,-0.288,194.928,-1.04L194.96,-1.024L194.96,0L196.672,0L196.672,-7.808L194.88,-7.808L194.88,-6.864L194.848,-6.848C194.288,-7.552,193.424,-7.92,192.432,-7.92C190.288,-7.92,188.672,-6.224,188.672,-3.872C188.672,-1.456,190.288,0.128,192.448,0.128ZM192.736,-1.504C191.408,-1.504,190.496,-2.48,190.496,-3.856C190.496,-5.36,191.488,-6.304,192.736,-6.304C194.016,-6.304,194.96,-5.248,194.96,-3.856C194.96,-2.448,193.952,-1.504,192.736,-1.504ZM198.934,0L200.726,0L200.726,-2.064L201.99,-3.44L204.086,0L206.102,0L203.238,-4.672L206.054,-7.808L203.926,-7.808L200.758,-4.192L200.726,-4.208L200.726,-11.776L198.934,-11.776ZM214.195,-4C214.195,-6.272,212.707,-7.92,210.515,-7.92C208.227,-7.92,206.595,-6.304,206.595,-3.904C206.595,-1.456,208.275,0.128,210.643,0.128C212.323,0.128,213.299,-0.496,213.955,-1.344L212.707,-2.416C212.307,-1.92,211.667,-1.504,210.739,-1.504C209.523,-1.504,208.675,-2.176,208.451,-3.312L214.147,-3.312C214.163,-3.44,214.195,-3.712,214.195,-4ZM210.499,-6.304C211.523,-6.304,212.163,-5.664,212.387,-4.72L208.483,-4.72C208.739,-5.744,209.507,-6.304,210.499,-6.304ZM218.539,0.128C220.523,0.128,221.451,-0.928,221.451,-2.24C221.451,-3.792,220.411,-4.096,218.747,-4.752C217.995,-5.04,217.515,-5.312,217.515,-5.696C217.515,-6.176,218.011,-6.368,218.363,-6.368C218.971,-6.368,219.691,-6.128,220.315,-5.536L221.211,-6.944C220.347,-7.648,219.451,-7.92,218.459,-7.92C216.859,-7.92,215.707,-6.992,215.707,-5.712C215.707,-4.176,216.811,-3.6,218.091,-3.152C219.115,-2.8,219.627,-2.608,219.627,-2.208C219.627,-1.744,219.227,-1.44,218.539,-1.44C217.579,-1.44,216.907,-1.744,216.283,-2.352L215.387,-1.008C216.203,-0.288,217.275,0.128,218.539,0.128Z" clip-path="url(#ClipPath-13)" transform="translate(286.164,116.499)"/>
    </g>
    <g id="Brakes-Right" transform="translate(93.5,455.75) translate(-260,-75.25)" style="white-space: pre;">
        <ellipse stroke="white" rx="8" ry="8" fill="#ffffff" transform="translate(-616.217,-673.701) translate(1069.5,660.5)"/>
        <path d="M1323.4,645.067L1298.38,782.417L1066.33,782.333" stroke="white" stroke-linecap="round" fill="none" clip-path="url(#ClipPath-11)" transform="translate(-871.5,-650.167)"/>
        <path fill="#ffffff" stroke="none" d="M0.672,0L7.728,0L7.728,-1.696L3.488,-1.696L3.472,-1.744L5.792,-4.16C7.184,-5.6,7.616,-6.64,7.616,-7.856C7.616,-9.872,5.984,-11.088,4.176,-11.088C2.384,-11.088,1.248,-10.192,0.624,-9.008L1.952,-8.064C2.448,-8.928,3.168,-9.36,4.048,-9.36C5.04,-9.36,5.728,-8.624,5.728,-7.648C5.728,-6.704,5.072,-5.904,4.176,-4.96L0.64,-1.232ZM9.18762,0L16.2436,0L16.2436,-1.696L12.0036,-1.696L11.9876,-1.744L14.3076,-4.16C15.6996,-5.6,16.1316,-6.64,16.1316,-7.856C16.1316,-9.872,14.4996,-11.088,12.6916,-11.088C10.8996,-11.088,9.76363,-10.192,9.13962,-9.008L10.4676,-8.064C10.9636,-8.928,11.6836,-9.36,12.5636,-9.36C13.5556,-9.36,14.2436,-8.624,14.2436,-7.648C14.2436,-6.704,13.5876,-5.904,12.6916,-4.96L9.15563,-1.232ZM22.0872,0.128C24.7432,0.128,26.3112,-2.176,26.3112,-5.488C26.3112,-9.072,24.5672,-11.104,22.0872,-11.104C19.4473,-11.104,17.8633,-8.816,17.8633,-5.488C17.8633,-1.92,19.6073,0.128,22.0872,0.128ZM22.0872,-1.6C20.6793,-1.6,19.7512,-3.056,19.7512,-5.488C19.7512,-7.952,20.6472,-9.392,22.0872,-9.392C23.5273,-9.392,24.4233,-7.952,24.4233,-5.488C24.4233,-3.04,23.5592,-1.6,22.0872,-1.6ZM32.5899,0L34.3819,0L34.3819,-3.888C34.3819,-5.424,35.1819,-6.304,36.2539,-6.304C37.3099,-6.304,37.8059,-5.472,37.8059,-4.064L37.8059,0L39.5979,0L39.5979,-3.888C39.5979,-5.424,40.4139,-6.304,41.4219,-6.304C42.4779,-6.304,42.9419,-5.472,42.9419,-4.064L42.9419,0L44.7339,0L44.7339,-4.512C44.7339,-6.848,43.7099,-7.92,41.9979,-7.92C40.8459,-7.92,39.8539,-7.472,39.1979,-6.624L39.1659,-6.624C38.7019,-7.504,37.8859,-7.92,36.8299,-7.92C35.9339,-7.92,35.0379,-7.504,34.3979,-6.736L34.3819,-6.736L34.3819,-7.808L32.5899,-7.808ZM46.9492,0L48.7412,0L48.7412,-3.888C48.7412,-5.424,49.5412,-6.304,50.6133,-6.304C51.6693,-6.304,52.1652,-5.472,52.1652,-4.064L52.1652,0L53.9572,0L53.9572,-3.888C53.9572,-5.424,54.7733,-6.304,55.7812,-6.304C56.8372,-6.304,57.3013,-5.472,57.3013,-4.064L57.3013,0L59.0933,0L59.0933,-4.512C59.0933,-6.848,58.0693,-7.92,56.3573,-7.92C55.2052,-7.92,54.2132,-7.472,53.5573,-6.624L53.5252,-6.624C53.0612,-7.504,52.2453,-7.92,51.1893,-7.92C50.2933,-7.92,49.3973,-7.504,48.7573,-6.736L48.7412,-6.736L48.7412,-7.808L46.9492,-7.808ZM65.5899,0L67.3819,0L67.3819,-3.968C67.3819,-5.504,68.1819,-6.304,69.4779,-6.304C70.5499,-6.304,71.1739,-5.76,71.1739,-4.208L71.1739,0L72.9659,0L72.9659,-4.672C72.9659,-7.008,71.7659,-7.92,70.0539,-7.92C68.9979,-7.92,68.0539,-7.552,67.3979,-6.832L67.3819,-6.832L67.3819,-11.776L65.5899,-11.776ZM75.7054,3.168L77.5614,3.168L81.8494,-7.808L80.0094,-7.808L78.0094,-2.576L77.9774,-2.576L75.8334,-7.808L73.9134,-7.808L77.1134,-0.432ZM86.2769,0.128C87.3969,0.128,88.2449,-0.304,88.8209,-1.056L88.8369,-1.056L88.8369,0L90.5489,0L90.5489,-11.776L88.7729,-11.776L88.7729,-6.848L88.7569,-6.848C88.1649,-7.552,87.2849,-7.92,86.2609,-7.92C84.1169,-7.92,82.4849,-6.224,82.4849,-3.872C82.4849,-1.456,84.1169,0.128,86.2769,0.128ZM86.5489,-1.504C85.2369,-1.504,84.3089,-2.48,84.3089,-3.856C84.3089,-5.36,85.3169,-6.304,86.5649,-6.304C87.9089,-6.304,88.8369,-5.248,88.8369,-3.856C88.8369,-2.448,87.8289,-1.504,86.5489,-1.504ZM92.8867,0L94.6787,0L94.6787,-3.696C94.6787,-4.976,95.4467,-5.952,96.8067,-5.952C96.9348,-5.952,97.1427,-5.936,97.3508,-5.92L97.3508,-7.92L97.1267,-7.92C96.1827,-7.92,95.3187,-7.456,94.7107,-6.64L94.6787,-6.64L94.6787,-7.808L92.8867,-7.808ZM101.917,0.128C103.005,0.128,103.837,-0.288,104.397,-1.04L104.429,-1.024L104.429,0L106.141,0L106.141,-7.808L104.349,-7.808L104.349,-6.864L104.317,-6.848C103.757,-7.552,102.893,-7.92,101.901,-7.92C99.7571,-7.92,98.1411,-6.224,98.1411,-3.872C98.1411,-1.456,99.7571,0.128,101.917,0.128ZM102.205,-1.504C100.877,-1.504,99.9651,-2.48,99.9651,-3.856C99.9651,-5.36,100.957,-6.304,102.205,-6.304C103.485,-6.304,104.429,-5.248,104.429,-3.856C104.429,-2.448,103.421,-1.504,102.205,-1.504ZM111.17,0.128C112.066,0.128,112.93,-0.24,113.554,-0.992L113.586,-0.976L113.586,0L115.378,0L115.378,-7.808L113.586,-7.808L113.586,-4.064C113.586,-2.384,112.626,-1.504,111.586,-1.504C110.514,-1.504,110.034,-1.984,110.034,-3.536L110.034,-7.808L108.242,-7.808L108.242,-3.056C108.242,-0.736,109.442,0.128,111.17,0.128ZM117.764,0L119.556,0L119.556,-11.776L117.764,-11.776ZM123.02,-8.96C123.692,-8.96,124.236,-9.504,124.236,-10.16C124.236,-10.8,123.692,-11.344,123.02,-11.344C122.348,-11.344,121.82,-10.8,121.82,-10.16C121.82,-9.504,122.348,-8.96,123.02,-8.96ZM122.124,0L123.916,0L123.916,-7.808L122.124,-7.808ZM129.891,0.128C131.587,0.128,132.595,-0.48,133.251,-1.328L132.019,-2.416C131.619,-1.888,130.915,-1.504,130.051,-1.504C128.675,-1.504,127.731,-2.464,127.731,-3.904C127.731,-5.328,128.659,-6.304,130.051,-6.304C130.899,-6.304,131.571,-5.936,132.019,-5.408L133.235,-6.464C132.451,-7.424,131.171,-7.92,129.955,-7.92C127.587,-7.92,125.907,-6.288,125.907,-3.888C125.907,-1.504,127.587,0.128,129.891,0.128ZM142.48,0.128C143.6,0.128,144.448,-0.304,145.024,-1.056L145.04,-1.056L145.04,0L146.752,0L146.752,-11.776L144.976,-11.776L144.976,-6.848L144.96,-6.848C144.368,-7.552,143.488,-7.92,142.464,-7.92C140.32,-7.92,138.688,-6.224,138.688,-3.872C138.688,-1.456,140.32,0.128,142.48,0.128ZM142.752,-1.504C141.44,-1.504,140.512,-2.48,140.512,-3.856C140.512,-5.36,141.52,-6.304,142.768,-6.304C144.112,-6.304,145.04,-5.248,145.04,-3.856C145.04,-2.448,144.032,-1.504,142.752,-1.504ZM150.098,-8.96C150.77,-8.96,151.314,-9.504,151.314,-10.16C151.314,-10.8,150.77,-11.344,150.098,-11.344C149.426,-11.344,148.898,-10.8,148.898,-10.16C148.898,-9.504,149.426,-8.96,150.098,-8.96ZM149.202,0L150.994,0L150.994,-7.808L149.202,-7.808ZM155.945,0.128C157.929,0.128,158.857,-0.928,158.857,-2.24C158.857,-3.792,157.817,-4.096,156.153,-4.752C155.401,-5.04,154.921,-5.312,154.921,-5.696C154.921,-6.176,155.417,-6.368,155.769,-6.368C156.377,-6.368,157.097,-6.128,157.721,-5.536L158.617,-6.944C157.753,-7.648,156.857,-7.92,155.865,-7.92C154.265,-7.92,153.113,-6.992,153.113,-5.712C153.113,-4.176,154.217,-3.6,155.497,-3.152C156.521,-2.8,157.033,-2.608,157.033,-2.208C157.033,-1.744,156.633,-1.44,155.945,-1.44C154.985,-1.44,154.313,-1.744,153.689,-2.352L152.793,-1.008C153.609,-0.288,154.681,0.128,155.945,0.128ZM160.637,0L162.429,0L162.429,-2.064L163.693,-3.44L165.789,0L167.805,0L164.941,-4.672L167.757,-7.808L165.629,-7.808L162.461,-4.192L162.429,-4.208L162.429,-11.776L160.637,-11.776ZM177.753,0.128C179.928,0.128,181.544,-1.456,181.544,-3.872C181.544,-6.224,179.928,-7.92,177.768,-7.92C176.745,-7.92,175.896,-7.568,175.288,-6.88L175.273,-6.88L175.273,-11.776L173.48,-11.776L173.48,0L175.193,0L175.193,-1.04L175.225,-1.04C175.801,-0.288,176.633,0.128,177.753,0.128ZM177.48,-1.504C176.201,-1.504,175.193,-2.448,175.193,-3.856C175.193,-5.248,176.12,-6.304,177.464,-6.304C178.712,-6.304,179.721,-5.36,179.721,-3.856C179.721,-2.48,178.792,-1.504,177.48,-1.504ZM183.418,0L185.21,0L185.21,-3.696C185.21,-4.976,185.978,-5.952,187.338,-5.952C187.466,-5.952,187.674,-5.936,187.882,-5.92L187.882,-7.92L187.658,-7.92C186.714,-7.92,185.85,-7.456,185.242,-6.64L185.21,-6.64L185.21,-7.808L183.418,-7.808ZM192.448,0.128C193.536,0.128,194.368,-0.288,194.928,-1.04L194.96,-1.024L194.96,0L196.672,0L196.672,-7.808L194.88,-7.808L194.88,-6.864L194.848,-6.848C194.288,-7.552,193.424,-7.92,192.432,-7.92C190.288,-7.92,188.672,-6.224,188.672,-3.872C188.672,-1.456,190.288,0.128,192.448,0.128ZM192.736,-1.504C191.408,-1.504,190.496,-2.48,190.496,-3.856C190.496,-5.36,191.488,-6.304,192.736,-6.304C194.016,-6.304,194.96,-5.248,194.96,-3.856C194.96,-2.448,193.952,-1.504,192.736,-1.504ZM198.934,0L200.726,0L200.726,-2.064L201.99,-3.44L204.086,0L206.102,0L203.238,-4.672L206.054,-7.808L203.926,-7.808L200.758,-4.192L200.726,-4.208L200.726,-11.776L198.934,-11.776ZM214.195,-4C214.195,-6.272,212.707,-7.92,210.515,-7.92C208.227,-7.92,206.595,-6.304,206.595,-3.904C206.595,-1.456,208.275,0.128,210.643,0.128C212.323,0.128,213.299,-0.496,213.955,-1.344L212.707,-2.416C212.307,-1.92,211.667,-1.504,210.739,-1.504C209.523,-1.504,208.675,-2.176,208.451,-3.312L214.147,-3.312C214.163,-3.44,214.195,-3.712,214.195,-4ZM210.499,-6.304C211.523,-6.304,212.163,-5.664,212.387,-4.72L208.483,-4.72C208.739,-5.744,209.507,-6.304,210.499,-6.304ZM218.539,0.128C220.523,0.128,221.451,-0.928,221.451,-2.24C221.451,-3.792,220.411,-4.096,218.747,-4.752C217.995,-5.04,217.515,-5.312,217.515,-5.696C217.515,-6.176,218.011,-6.368,218.363,-6.368C218.971,-6.368,219.691,-6.128,220.315,-5.536L221.211,-6.944C220.347,-7.648,219.451,-7.92,218.459,-7.92C216.859,-7.92,215.707,-6.992,215.707,-5.712C215.707,-4.176,216.811,-3.6,218.091,-3.152C219.115,-2.8,219.627,-2.608,219.627,-2.208C219.627,-1.744,219.227,-1.44,218.539,-1.44C217.579,-1.44,216.907,-1.744,216.283,-2.352L215.387,-1.008C216.203,-0.288,217.275,0.128,218.539,0.128Z" clip-path="url(#ClipPath-12)" transform="translate(193.831,119.166)"/>
    </g>
    <g id="LCD" transform="translate(668.25,184.25) translate(-178.75,-59.75)" style="white-space: pre;">
        <ellipse stroke="white" rx="8" ry="8" fill="#ffffff" transform="translate(-861.5,-43.5) translate(497.5,132.5)"/>
        <path d="M515.789,174.501L577.75,109L727.75,109.25" stroke="white" stroke-linecap="round" fill="none" clip-path="url(#ClipPath-9)" transform="translate(-875,-92)"/>
        <path fill="#ffffff" stroke="none" d="M0.368,-10.992L0.368,-9.296L5.12,-9.296L1.296,-0.128L3.168,0.224L7.2,-9.76L7.2,-10.992ZM8.5355,-4.064L13.3515,-4.064L13.3515,-5.808L8.5355,-5.808ZM16.3791,-8.96C17.0511,-8.96,17.5951,-9.504,17.5951,-10.16C17.5951,-10.8,17.0511,-11.344,16.3791,-11.344C15.7071,-11.344,15.1791,-10.8,15.1791,-10.16C15.1791,-9.504,15.7071,-8.96,16.3791,-8.96ZM15.4831,0L17.2751,0L17.2751,-7.808L15.4831,-7.808ZM19.7305,0L21.5225,0L21.5225,-3.92C21.5225,-5.456,22.3225,-6.304,23.5385,-6.304C24.6105,-6.304,25.2345,-5.776,25.2345,-4.128L25.2345,0L27.0265,0L27.0265,-4.592C27.0265,-6.944,25.8745,-7.92,24.1625,-7.92C23.1385,-7.92,22.1945,-7.504,21.5545,-6.736L21.5225,-6.736L21.5225,-7.808L19.7305,-7.808ZM32.7349,0.128C34.4309,0.128,35.4389,-0.48,36.0949,-1.328L34.8629,-2.416C34.4629,-1.888,33.7589,-1.504,32.8949,-1.504C31.5189,-1.504,30.5749,-2.464,30.5749,-3.904C30.5749,-5.328,31.5029,-6.304,32.8949,-6.304C33.7429,-6.304,34.4149,-5.936,34.8629,-5.408L36.0789,-6.464C35.2949,-7.424,34.0149,-7.92,32.7989,-7.92C30.4309,-7.92,28.7509,-6.288,28.7509,-3.888C28.7509,-1.504,30.4309,0.128,32.7349,0.128ZM37.7305,0L39.5225,0L39.5225,-3.968C39.5225,-5.504,40.3225,-6.304,41.6185,-6.304C42.6905,-6.304,43.3145,-5.76,43.3145,-4.208L43.3145,0L45.1065,0L45.1065,-4.672C45.1065,-7.008,43.9065,-7.92,42.1945,-7.92C41.1385,-7.92,40.1945,-7.552,39.5385,-6.832L39.5225,-6.832L39.5225,-11.776L37.7305,-11.776ZM51.7982,0L58.9982,0L58.9982,-1.728L53.7342,-1.728L53.7342,-11.36L51.7982,-11.36ZM65.7486,0.096C67.7486,0.096,69.2526,-0.832,70.2286,-2.048L68.8046,-3.264C68.0846,-2.368,67.0286,-1.712,65.7486,-1.712C63.5886,-1.712,62.0366,-3.312,62.0366,-5.648C62.0366,-8.048,63.5566,-9.664,65.7166,-9.664C66.9166,-9.664,67.9246,-9.152,68.7726,-8.112L70.1966,-9.312C69.0126,-10.768,67.3806,-11.488,65.7166,-11.488C62.0686,-11.488,60.0206,-8.88,60.0206,-5.648C60.0206,-1.92,62.6606,0.096,65.7486,0.096ZM72.1889,0L75.8529,0C79.5009,0,81.7089,-2.32,81.7089,-5.664C81.7089,-9.024,79.4049,-11.36,75.8049,-11.36L72.1889,-11.36ZM74.1249,-1.728L74.1249,-9.632L75.8369,-9.632C78.1249,-9.632,79.7089,-7.968,79.7089,-5.664C79.7089,-3.408,78.1409,-1.728,75.7409,-1.728ZM91.3394,0.128C92.4594,0.128,93.3074,-0.304,93.8834,-1.056L93.8994,-1.056L93.8994,0L95.6114,0L95.6114,-11.776L93.8354,-11.776L93.8354,-6.848L93.8194,-6.848C93.2274,-7.552,92.3474,-7.92,91.3234,-7.92C89.1794,-7.92,87.5474,-6.224,87.5474,-3.872C87.5474,-1.456,89.1794,0.128,91.3394,0.128ZM91.6114,-1.504C90.2994,-1.504,89.3714,-2.48,89.3714,-3.856C89.3714,-5.36,90.3794,-6.304,91.6274,-6.304C92.9714,-6.304,93.8994,-5.248,93.8994,-3.856C93.8994,-2.448,92.8914,-1.504,91.6114,-1.504ZM98.9573,-8.96C99.6292,-8.96,100.173,-9.504,100.173,-10.16C100.173,-10.8,99.6292,-11.344,98.9573,-11.344C98.2852,-11.344,97.7572,-10.8,97.7572,-10.16C97.7572,-9.504,98.2852,-8.96,98.9573,-8.96ZM98.0612,0L99.8532,0L99.8532,-7.808L98.0612,-7.808ZM104.805,0.128C106.789,0.128,107.717,-0.928,107.717,-2.24C107.717,-3.792,106.677,-4.096,105.013,-4.752C104.261,-5.04,103.781,-5.312,103.781,-5.696C103.781,-6.176,104.277,-6.368,104.629,-6.368C105.237,-6.368,105.957,-6.128,106.581,-5.536L107.477,-6.944C106.613,-7.648,105.717,-7.92,104.725,-7.92C103.125,-7.92,101.973,-6.992,101.973,-5.712C101.973,-4.176,103.077,-3.6,104.357,-3.152C105.381,-2.8,105.893,-2.608,105.893,-2.208C105.893,-1.744,105.493,-1.44,104.805,-1.44C103.845,-1.44,103.173,-1.744,102.549,-2.352L101.653,-1.008C102.469,-0.288,103.541,0.128,104.805,0.128ZM109.496,3.168L111.288,3.168L111.288,-0.944L111.32,-0.96C111.896,-0.256,112.712,0.128,113.768,0.128C115.944,0.128,117.56,-1.456,117.56,-3.872C117.56,-6.224,115.944,-7.92,113.784,-7.92C112.76,-7.92,111.896,-7.552,111.32,-6.88L111.288,-6.88L111.288,-7.808L109.496,-7.808ZM113.496,-1.504C112.216,-1.504,111.208,-2.448,111.208,-3.856C111.208,-5.248,112.136,-6.304,113.48,-6.304C114.728,-6.304,115.736,-5.36,115.736,-3.856C115.736,-2.48,114.808,-1.504,113.496,-1.504ZM119.546,0L121.338,0L121.338,-11.776L119.546,-11.776ZM127.089,0.128C128.177,0.128,129.009,-0.288,129.569,-1.04L129.601,-1.024L129.601,0L131.313,0L131.313,-7.808L129.521,-7.808L129.521,-6.864L129.489,-6.848C128.929,-7.552,128.065,-7.92,127.073,-7.92C124.929,-7.92,123.313,-6.224,123.313,-3.872C123.313,-1.456,124.929,0.128,127.089,0.128ZM127.377,-1.504C126.049,-1.504,125.137,-2.48,125.137,-3.856C125.137,-5.36,126.129,-6.304,127.377,-6.304C128.657,-6.304,129.601,-5.248,129.601,-3.856C129.601,-2.448,128.593,-1.504,127.377,-1.504ZM134.502,3.168L136.358,3.168L140.646,-7.808L138.806,-7.808L136.806,-2.576L136.774,-2.576L134.63,-7.808L132.71,-7.808L135.91,-0.432Z" clip-path="url(#ClipPath-10)" transform="translate(-287.834,3.83333)"/>
    </g>
    <g id="IoT" transform="translate(393.667,258.75) translate(-143.5,-61.75)" style="white-space: pre;">
        <ellipse id="static-circle" stroke="white" rx="8" ry="8" fill="#ffffff" opacity="1" transform="translate(-968.5,-353) translate(976.5,468.5)"/>
        <path id="line" d="M982.708,462.75L855.333,287.25L762.333,286.5" stroke="white" stroke-linecap="round" fill="none" opacity="1" clip-path="url(#ClipPath-7)" transform="translate(-979.5,-353.75)"/>
        <path fill="#ffffff" stroke="none" d="M1.456,0L3.392,0L3.392,-11.36L1.456,-11.36ZM6.02738,0L7.81938,0L7.81938,-3.92C7.81938,-5.456,8.61938,-6.304,9.83537,-6.304C10.9074,-6.304,11.5314,-5.776,11.5314,-4.128L11.5314,0L13.3234,0L13.3234,-4.592C13.3234,-6.944,12.1714,-7.92,10.4594,-7.92C9.43538,-7.92,8.49137,-7.504,7.85138,-6.736L7.81938,-6.736L7.81938,-7.808L6.02738,-7.808ZM15.1917,-4.064L20.0077,-4.064L20.0077,-5.808L15.1917,-5.808ZM26.2994,0.128C28.4754,0.128,30.0914,-1.456,30.0914,-3.872C30.0914,-6.224,28.4754,-7.92,26.3154,-7.92C25.2914,-7.92,24.4434,-7.568,23.8354,-6.88L23.8194,-6.88L23.8194,-11.776L22.0274,-11.776L22.0274,0L23.7394,0L23.7394,-1.04L23.7714,-1.04C24.3474,-0.288,25.1794,0.128,26.2994,0.128ZM26.0274,-1.504C24.7474,-1.504,23.7394,-2.448,23.7394,-3.856C23.7394,-5.248,24.6674,-6.304,26.0114,-6.304C27.2594,-6.304,28.2674,-5.36,28.2674,-3.856C28.2674,-2.48,27.3394,-1.504,26.0274,-1.504ZM34.7329,0.128C35.6289,0.128,36.4929,-0.24,37.1169,-0.992L37.1489,-0.976L37.1489,0L38.9409,0L38.9409,-7.808L37.1489,-7.808L37.1489,-4.064C37.1489,-2.384,36.1889,-1.504,35.1489,-1.504C34.0769,-1.504,33.5969,-1.984,33.5969,-3.536L33.5969,-7.808L31.8049,-7.808L31.8049,-3.056C31.8049,-0.736,33.0049,0.128,34.7329,0.128ZM42.2229,-8.96C42.8949,-8.96,43.4389,-9.504,43.4389,-10.16C43.4389,-10.8,42.8949,-11.344,42.2229,-11.344C41.5509,-11.344,41.0229,-10.8,41.0229,-10.16C41.0229,-9.504,41.5509,-8.96,42.2229,-8.96ZM41.3269,0L43.1189,0L43.1189,-7.808L41.3269,-7.808ZM45.6862,0L47.4782,0L47.4782,-11.776L45.6862,-11.776ZM52.2536,0.128C53.2776,0.128,53.7736,-0.08,54.2376,-0.336L53.7736,-1.888C53.3576,-1.664,52.9256,-1.552,52.6216,-1.552C52.1096,-1.552,51.8696,-1.84,51.8696,-2.64L51.8696,-6.288L54.1576,-6.288L54.1576,-7.808L51.8696,-7.808L51.8696,-10.592L50.0776,-10.4L50.0776,-7.808L49.1176,-7.808L49.1176,-6.288L50.0776,-6.288L50.0776,-2.464C50.0776,-0.72,50.9096,0.128,52.2536,0.128ZM60.3466,0L62.2826,0L62.2826,-11.36L60.3466,-11.36ZM68.55,0.128C70.95,0.128,72.646,-1.52,72.646,-3.888C72.646,-6.288,70.95,-7.92,68.55,-7.92C66.086,-7.92,64.454,-6.192,64.454,-3.888C64.454,-1.6,66.086,0.128,68.55,0.128ZM68.55,-1.504C67.206,-1.504,66.278,-2.56,66.278,-3.888C66.278,-5.248,67.19,-6.304,68.55,-6.304C69.83,-6.304,70.822,-5.328,70.822,-3.888C70.822,-2.48,69.814,-1.504,68.55,-1.504ZM75.5405,0L77.4765,0L77.4765,-9.632L80.7405,-9.632L80.7405,-11.36L72.3245,-11.36L72.3245,-9.632L75.5405,-9.632Z" clip-path="url(#ClipPath-8)" transform="translate(-218.17,-80.334)"/>
    </g>
    <g id="Alarm" filter="url(#filter0_d)" fill="none" transform="translate(-216.667,15)" style="white-space: pre;">
        <path d="M420.058,236.737L507.542,182L642.869,182" stroke="white" stroke-linecap="round" clip-path="url(#ClipPath-5)" transform="translate(-83,-6)"/>
        <g filter="url(#filter1_d)">
            <ellipse stroke="white" rx="8" ry="8" fill="#ffffff" transform="translate(-189,-12) translate(519.5,247.5)"/>
        </g>
        <path fill="#ffffff" stroke="none" d="M1.408,0L3.344,0L3.344,-7.6L3.36,-7.6L6.464,-2.192L7.728,-2.192L10.832,-7.6L10.864,-7.6L10.864,0L12.8,0L12.8,-11.36L10.864,-11.36L7.12,-4.56L7.088,-4.56L3.344,-11.36L1.408,-11.36ZM18.9875,0.128C21.3875,0.128,23.0835,-1.52,23.0835,-3.888C23.0835,-6.288,21.3875,-7.92,18.9875,-7.92C16.5235,-7.92,14.8915,-6.192,14.8915,-3.888C14.8915,-1.6,16.5235,0.128,18.9875,0.128ZM18.9875,-1.504C17.6435,-1.504,16.7155,-2.56,16.7155,-3.888C16.7155,-5.248,17.6275,-6.304,18.9875,-6.304C20.2675,-6.304,21.2595,-5.328,21.2595,-3.888C21.2595,-2.48,20.2515,-1.504,18.9875,-1.504ZM26.7518,0L28.4637,0L31.5677,-7.808L29.6637,-7.808L27.6318,-2.24L27.6157,-2.24L25.5837,-7.808L23.6637,-7.808ZM39.7103,-4C39.7103,-6.272,38.2223,-7.92,36.0303,-7.92C33.7422,-7.92,32.1102,-6.304,32.1102,-3.904C32.1102,-1.456,33.7902,0.128,36.1582,0.128C37.8382,0.128,38.8143,-0.496,39.4702,-1.344L38.2223,-2.416C37.8223,-1.92,37.1823,-1.504,36.2542,-1.504C35.0382,-1.504,34.1903,-2.176,33.9663,-3.312L39.6623,-3.312C39.6782,-3.44,39.7103,-3.712,39.7103,-4ZM36.0143,-6.304C37.0382,-6.304,37.6782,-5.664,37.9022,-4.72L33.9982,-4.72C34.2542,-5.744,35.0223,-6.304,36.0143,-6.304ZM41.5586,0L43.3506,0L43.3506,-3.888C43.3506,-5.424,44.1506,-6.304,45.2226,-6.304C46.2786,-6.304,46.7746,-5.472,46.7746,-4.064L46.7746,0L48.5666,0L48.5666,-3.888C48.5666,-5.424,49.3826,-6.304,50.3906,-6.304C51.4466,-6.304,51.9106,-5.472,51.9106,-4.064L51.9106,0L53.7026,0L53.7026,-4.512C53.7026,-6.848,52.6786,-7.92,50.9666,-7.92C49.8146,-7.92,48.8226,-7.472,48.1666,-6.624L48.1346,-6.624C47.6706,-7.504,46.8546,-7.92,45.7986,-7.92C44.9026,-7.92,44.0066,-7.504,43.3666,-6.736L43.3506,-6.736L43.3506,-7.808L41.5586,-7.808ZM63.054,-4C63.054,-6.272,61.566,-7.92,59.374,-7.92C57.086,-7.92,55.454,-6.304,55.454,-3.904C55.454,-1.456,57.134,0.128,59.502,0.128C61.182,0.128,62.158,-0.496,62.814,-1.344L61.566,-2.416C61.166,-1.92,60.526,-1.504,59.598,-1.504C58.382,-1.504,57.534,-2.176,57.31,-3.312L63.006,-3.312C63.022,-3.44,63.054,-3.712,63.054,-4ZM59.358,-6.304C60.382,-6.304,61.022,-5.664,61.246,-4.72L57.342,-4.72C57.598,-5.744,58.366,-6.304,59.358,-6.304ZM64.9024,0L66.6944,0L66.6944,-3.92C66.6944,-5.456,67.4944,-6.304,68.7104,-6.304C69.7824,-6.304,70.4064,-5.776,70.4064,-4.128L70.4064,0L72.1984,0L72.1984,-4.592C72.1984,-6.944,71.0464,-7.92,69.3344,-7.92C68.3104,-7.92,67.3664,-7.504,66.7264,-6.736L66.6944,-6.736L66.6944,-7.808L64.9024,-7.808ZM76.7067,0.128C77.7308,0.128,78.2268,-0.08,78.6908,-0.336L78.2268,-1.888C77.8108,-1.664,77.3788,-1.552,77.0748,-1.552C76.5628,-1.552,76.3228,-1.84,76.3228,-2.64L76.3228,-6.288L78.6107,-6.288L78.6107,-7.808L76.3228,-7.808L76.3228,-10.592L74.5307,-10.4L74.5307,-7.808L73.5707,-7.808L73.5707,-6.288L74.5307,-6.288L74.5307,-2.464C74.5307,-0.72,75.3627,0.128,76.7067,0.128ZM87.8077,0.128C88.8958,0.128,89.7278,-0.288,90.2878,-1.04L90.3197,-1.024L90.3197,0L92.0318,0L92.0318,-7.808L90.2397,-7.808L90.2397,-6.864L90.2077,-6.848C89.6478,-7.552,88.7838,-7.92,87.7917,-7.92C85.6478,-7.92,84.0318,-6.224,84.0318,-3.872C84.0318,-1.456,85.6478,0.128,87.8077,0.128ZM88.0957,-1.504C86.7678,-1.504,85.8558,-2.48,85.8558,-3.856C85.8558,-5.36,86.8477,-6.304,88.0957,-6.304C89.3757,-6.304,90.3197,-5.248,90.3197,-3.856C90.3197,-2.448,89.3118,-1.504,88.0957,-1.504ZM94.405,0L96.197,0L96.197,-11.776L94.405,-11.776ZM101.948,0.128C103.036,0.128,103.868,-0.288,104.428,-1.04L104.46,-1.024L104.46,0L106.172,0L106.172,-7.808L104.38,-7.808L104.38,-6.864L104.348,-6.848C103.788,-7.552,102.924,-7.92,101.932,-7.92C99.7884,-7.92,98.1724,-6.224,98.1724,-3.872C98.1724,-1.456,99.7884,0.128,101.948,0.128ZM102.236,-1.504C100.908,-1.504,99.9964,-2.48,99.9964,-3.856C99.9964,-5.36,100.988,-6.304,102.236,-6.304C103.516,-6.304,104.46,-5.248,104.46,-3.856C104.46,-2.448,103.452,-1.504,102.236,-1.504ZM108.434,0L110.226,0L110.226,-3.696C110.226,-4.976,110.994,-5.952,112.354,-5.952C112.482,-5.952,112.69,-5.936,112.898,-5.92L112.898,-7.92L112.674,-7.92C111.73,-7.92,110.866,-7.456,110.258,-6.64L110.226,-6.64L110.226,-7.808L108.434,-7.808ZM114.387,0L116.179,0L116.179,-3.888C116.179,-5.424,116.979,-6.304,118.051,-6.304C119.107,-6.304,119.603,-5.472,119.603,-4.064L119.603,0L121.395,0L121.395,-3.888C121.395,-5.424,122.211,-6.304,123.219,-6.304C124.275,-6.304,124.739,-5.472,124.739,-4.064L124.739,0L126.531,0L126.531,-4.512C126.531,-6.848,125.507,-7.92,123.795,-7.92C122.643,-7.92,121.651,-7.472,120.995,-6.624L120.963,-6.624C120.499,-7.504,119.683,-7.92,118.627,-7.92C117.731,-7.92,116.835,-7.504,116.195,-6.736L116.179,-6.736L116.179,-7.808L114.387,-7.808Z" clip-path="url(#ClipPath-6)" transform="translate(431.334,163.666)"/>
    </g>
    <g id="seatbox" transform="translate(168.25,333.5) translate(-152.25,-90.5)" style="white-space: pre;">
        <ellipse stroke="white" rx="8" ry="8" fill="#ffffff" transform="translate(-605.917,-329.667) translate(807.5,366.5)"/>
        <path d="M1105.75,282L1050.75,189.25L923,189.25" stroke="white" stroke-linecap="round" fill="none" clip-path="url(#ClipPath-3)" transform="translate(-906.5,-253)"/>
        <path fill="#ffffff" stroke="none" d="M0.512,0L2.752,0L5.52,-4.192L5.552,-4.192L8.336,0L10.608,0L6.832,-5.696L10.512,-11.36L8.304,-11.36L5.584,-7.168L5.568,-7.168L2.848,-11.36L0.592,-11.36L4.272,-5.696ZM12.5014,0L19.7014,0L19.7014,-1.728L14.4374,-1.728L14.4374,-11.36L12.5014,-11.36ZM25.2345,0L32.2905,0L32.2905,-1.696L28.0505,-1.696L28.0345,-1.744L30.3545,-4.16C31.7465,-5.6,32.1785,-6.64,32.1785,-7.856C32.1785,-9.872,30.5465,-11.088,28.7385,-11.088C26.9465,-11.088,25.8105,-10.192,25.1865,-9.008L26.5145,-8.064C27.0105,-8.928,27.7305,-9.36,28.6105,-9.36C29.6025,-9.36,30.2905,-8.624,30.2905,-7.648C30.2905,-6.704,29.6345,-5.904,28.7385,-4.96L25.2025,-1.232ZM38.1855,-7.008C37.3855,-7.008,36.6175,-6.816,35.9935,-6.432L35.9615,-6.464C36.6175,-8.224,38.1055,-9.232,40.0575,-9.776L39.4655,-11.328C36.2175,-10.736,33.7535,-7.952,33.7535,-4.304C33.7535,-1.616,35.4815,0.128,37.6735,0.128C39.8815,0.128,41.5935,-1.376,41.5935,-3.472C41.5935,-5.712,40.1055,-7.008,38.1855,-7.008ZM37.8015,-1.6C36.5855,-1.6,35.5615,-2.608,35.5615,-4.08L35.5615,-4.224C36.0255,-4.816,36.7935,-5.328,37.7215,-5.328C38.9375,-5.328,39.7375,-4.56,39.7375,-3.504C39.7375,-2.48,38.9535,-1.6,37.8015,-1.6ZM43.767,0L50.967,0L50.967,-1.728L45.703,-1.728L45.703,-11.36L43.767,-11.36ZM59.4921,0.128C61.4761,0.128,62.4041,-0.928,62.4041,-2.24C62.4041,-3.792,61.3641,-4.096,59.7001,-4.752C58.9481,-5.04,58.4681,-5.312,58.4681,-5.696C58.4681,-6.176,58.9641,-6.368,59.3161,-6.368C59.9241,-6.368,60.6441,-6.128,61.2681,-5.536L62.1641,-6.944C61.3001,-7.648,60.4041,-7.92,59.4121,-7.92C57.8121,-7.92,56.6601,-6.992,56.6601,-5.712C56.6601,-4.176,57.7641,-3.6,59.0441,-3.152C60.0681,-2.8,60.5801,-2.608,60.5801,-2.208C60.5801,-1.744,60.1801,-1.44,59.4921,-1.44C58.5321,-1.44,57.8601,-1.744,57.2361,-2.352L56.3401,-1.008C57.1561,-0.288,58.2281,0.128,59.4921,0.128ZM71.3196,-4C71.3196,-6.272,69.8316,-7.92,67.6396,-7.92C65.3516,-7.92,63.7196,-6.304,63.7196,-3.904C63.7196,-1.456,65.3996,0.128,67.7676,0.128C69.4476,0.128,70.4236,-0.496,71.0796,-1.344L69.8316,-2.416C69.4316,-1.92,68.7916,-1.504,67.8636,-1.504C66.6476,-1.504,65.7996,-2.176,65.5756,-3.312L71.2716,-3.312C71.2876,-3.44,71.3196,-3.712,71.3196,-4ZM67.6236,-6.304C68.6476,-6.304,69.2876,-5.664,69.5116,-4.72L65.6076,-4.72C65.8636,-5.744,66.6316,-6.304,67.6236,-6.304ZM76.464,0.128C77.552,0.128,78.384,-0.288,78.944,-1.04L78.976,-1.024L78.976,0L80.688,0L80.688,-7.808L78.896,-7.808L78.896,-6.864L78.864,-6.848C78.304,-7.552,77.44,-7.92,76.448,-7.92C74.304,-7.92,72.688,-6.224,72.688,-3.872C72.688,-1.456,74.304,0.128,76.464,0.128ZM76.752,-1.504C75.424,-1.504,74.512,-2.48,74.512,-3.856C74.512,-5.36,75.504,-6.304,76.752,-6.304C78.032,-6.304,78.976,-5.248,78.976,-3.856C78.976,-2.448,77.968,-1.504,76.752,-1.504ZM85.2692,0.128C86.2933,0.128,86.7893,-0.08,87.2533,-0.336L86.7893,-1.888C86.3733,-1.664,85.9413,-1.552,85.6373,-1.552C85.1253,-1.552,84.8853,-1.84,84.8853,-2.64L84.8853,-6.288L87.1732,-6.288L87.1732,-7.808L84.8853,-7.808L84.8853,-10.592L83.0932,-10.4L83.0932,-7.808L82.1332,-7.808L82.1332,-6.288L83.0932,-6.288L83.0932,-2.464C83.0932,-0.72,83.9252,0.128,85.2692,0.128ZM97.3463,0.128C99.5222,0.128,101.138,-1.456,101.138,-3.872C101.138,-6.224,99.5222,-7.92,97.3623,-7.92C96.3382,-7.92,95.4902,-7.568,94.8822,-6.88L94.8662,-6.88L94.8662,-11.776L93.0742,-11.776L93.0742,0L94.7862,0L94.7862,-1.04L94.8183,-1.04C95.3942,-0.288,96.2262,0.128,97.3463,0.128ZM97.0742,-1.504C95.7943,-1.504,94.7862,-2.448,94.7862,-3.856C94.7862,-5.248,95.7142,-6.304,97.0583,-6.304C98.3063,-6.304,99.3142,-5.36,99.3142,-3.856C99.3142,-2.48,98.3863,-1.504,97.0742,-1.504ZM106.644,0.128C109.044,0.128,110.74,-1.52,110.74,-3.888C110.74,-6.288,109.044,-7.92,106.644,-7.92C104.18,-7.92,102.548,-6.192,102.548,-3.888C102.548,-1.6,104.18,0.128,106.644,0.128ZM106.644,-1.504C105.3,-1.504,104.372,-2.56,104.372,-3.888C104.372,-5.248,105.284,-6.304,106.644,-6.304C107.924,-6.304,108.916,-5.328,108.916,-3.888C108.916,-2.48,107.908,-1.504,106.644,-1.504ZM111.213,0L113.197,0L114.989,-2.464L115.005,-2.464L116.781,0L118.781,0L116.013,-3.968L118.733,-7.808L116.669,-7.808L114.989,-5.344L114.957,-5.344L113.309,-7.808L111.229,-7.808L113.965,-3.984Z" clip-path="url(#ClipPath-4)" transform="translate(15.833,-79.167)"/>
    </g>
    <g id="Hub-Motor" transform="translate(181.583,507.75) translate(-229.25,-76.25)" style="white-space: pre;">
        <ellipse stroke="white" rx="8" ry="8" fill="#ffffff" transform="translate(-815,-717.5) translate(1185.5,667.5)"/>
        <path d="M1100.07,644.2L985.667,782L807.6,782" stroke="white" stroke-linecap="round" fill="none" clip-path="url(#ClipPath-1)" transform="translate(-734.4,-687.3)"/>
        <path fill="#ffffff" stroke="none" d="M1.408,0L3.344,0L3.344,-7.6L3.36,-7.6L6.464,-2.192L7.728,-2.192L10.832,-7.6L10.864,-7.6L10.864,0L12.8,0L12.8,-11.36L10.864,-11.36L7.12,-4.56L7.088,-4.56L3.344,-11.36L1.408,-11.36ZM18.6515,0.128C19.7395,0.128,20.5715,-0.288,21.1315,-1.04L21.1635,-1.024L21.1635,0L22.8755,0L22.8755,-7.808L21.0835,-7.808L21.0835,-6.864L21.0515,-6.848C20.4915,-7.552,19.6275,-7.92,18.6355,-7.92C16.4915,-7.92,14.8755,-6.224,14.8755,-3.872C14.8755,-1.456,16.4915,0.128,18.6515,0.128ZM18.9395,-1.504C17.6115,-1.504,16.6995,-2.48,16.6995,-3.856C16.6995,-5.36,17.6915,-6.304,18.9395,-6.304C20.2195,-6.304,21.1635,-5.248,21.1635,-3.856C21.1635,-2.448,20.1555,-1.504,18.9395,-1.504ZM24.4007,0L26.3848,0L28.1768,-2.464L28.1927,-2.464L29.9688,0L31.9688,0L29.2008,-3.968L31.9207,-7.808L29.8568,-7.808L28.1768,-5.344L28.1448,-5.344L26.4967,-7.808L24.4167,-7.808L27.1528,-3.984ZM37.3595,0L44.4155,0L44.4155,-1.696L40.1755,-1.696L40.1595,-1.744L42.4795,-4.16C43.8715,-5.6,44.3035,-6.64,44.3035,-7.856C44.3035,-9.872,42.6715,-11.088,40.8635,-11.088C39.0715,-11.088,37.9355,-10.192,37.3115,-9.008L38.6395,-8.064C39.1355,-8.928,39.8555,-9.36,40.7355,-9.36C41.7275,-9.36,42.4155,-8.624,42.4155,-7.648C42.4155,-6.704,41.7595,-5.904,40.8635,-4.96L37.3275,-1.232ZM49.5231,0.128C51.6191,0.128,53.1711,-1.104,53.1711,-2.976C53.1711,-4.256,52.4671,-5.2,51.4111,-5.68L51.4111,-5.728C52.3231,-6.224,52.8671,-7.12,52.8671,-8.192C52.8671,-10.048,51.3151,-11.104,49.3951,-11.104C47.7951,-11.104,46.5791,-10.32,46.0511,-9.232L47.5391,-8.432C47.8911,-8.992,48.4351,-9.392,49.3471,-9.392C50.2591,-9.392,50.9951,-8.784,50.9951,-7.904C50.9951,-7.136,50.5471,-6.448,49.3951,-6.448L48.3871,-6.448L48.3871,-4.88L49.2191,-4.88C50.5951,-4.88,51.2831,-4.096,51.2831,-3.232C51.2831,-2.24,50.4351,-1.6,49.3951,-1.6C48.2911,-1.6,47.5871,-2.096,47.2511,-2.912L45.6511,-2.208C46.1951,-0.864,47.6031,0.128,49.5231,0.128ZM59.056,0.128C61.712,0.128,63.28,-2.176,63.28,-5.488C63.28,-9.072,61.536,-11.104,59.056,-11.104C56.416,-11.104,54.832,-8.816,54.832,-5.488C54.832,-1.92,56.576,0.128,59.056,0.128ZM59.056,-1.6C57.648,-1.6,56.72,-3.056,56.72,-5.488C56.72,-7.952,57.616,-9.392,59.056,-9.392C60.496,-9.392,61.392,-7.952,61.392,-5.488C61.392,-3.04,60.528,-1.6,59.056,-1.6ZM69.1654,0.128C71.8214,0.128,73.3894,-2.176,73.3894,-5.488C73.3894,-9.072,71.6454,-11.104,69.1654,-11.104C66.5254,-11.104,64.9414,-8.816,64.9414,-5.488C64.9414,-1.92,66.6854,0.128,69.1654,0.128ZM69.1654,-1.6C67.7574,-1.6,66.8294,-3.056,66.8294,-5.488C66.8294,-7.952,67.7254,-9.392,69.1654,-9.392C70.6054,-9.392,71.5014,-7.952,71.5014,-5.488C71.5014,-3.04,70.6374,-1.6,69.1654,-1.6ZM77.6745,0L79.4825,0L81.8505,-8.544L81.8825,-8.544L84.2025,0L86.0105,0L89.6105,-11.36L87.5625,-11.36L85.1145,-3.184L85.0825,-3.184L82.8745,-11.36L80.8265,-11.36L78.6025,-3.168L78.5705,-3.168L76.1385,-11.36L74.0745,-11.36ZM95.5742,0L97.3662,0L97.3662,-3.968C97.3662,-5.504,98.1663,-6.304,99.4622,-6.304C100.534,-6.304,101.158,-5.76,101.158,-4.208L101.158,0L102.95,0L102.95,-4.672C102.95,-7.008,101.75,-7.92,100.038,-7.92C98.9823,-7.92,98.0383,-7.552,97.3822,-6.832L97.3662,-6.832L97.3662,-11.776L95.5742,-11.776ZM107.905,0.128C108.801,0.128,109.665,-0.24,110.289,-0.992L110.321,-0.976L110.321,0L112.113,0L112.113,-7.808L110.321,-7.808L110.321,-4.064C110.321,-2.384,109.361,-1.504,108.321,-1.504C107.249,-1.504,106.769,-1.984,106.769,-3.536L106.769,-7.808L104.977,-7.808L104.977,-3.056C104.977,-0.736,106.177,0.128,107.905,0.128ZM118.659,0.128C120.835,0.128,122.451,-1.456,122.451,-3.872C122.451,-6.224,120.835,-7.92,118.675,-7.92C117.651,-7.92,116.803,-7.568,116.195,-6.88L116.179,-6.88L116.179,-11.776L114.387,-11.776L114.387,0L116.099,0L116.099,-1.04L116.131,-1.04C116.707,-0.288,117.539,0.128,118.659,0.128ZM118.387,-1.504C117.107,-1.504,116.099,-2.448,116.099,-3.856C116.099,-5.248,117.027,-6.304,118.371,-6.304C119.619,-6.304,120.627,-5.36,120.627,-3.856C120.627,-2.48,119.699,-1.504,118.387,-1.504ZM128.605,0L130.398,0L130.398,-3.888C130.398,-5.424,131.197,-6.304,132.27,-6.304C133.326,-6.304,133.822,-5.472,133.822,-4.064L133.822,0L135.613,0L135.613,-3.888C135.613,-5.424,136.43,-6.304,137.438,-6.304C138.493,-6.304,138.958,-5.472,138.958,-4.064L138.958,0L140.749,0L140.749,-4.512C140.749,-6.848,139.725,-7.92,138.014,-7.92C136.861,-7.92,135.87,-7.472,135.214,-6.624L135.182,-6.624C134.717,-7.504,133.902,-7.92,132.846,-7.92C131.949,-7.92,131.053,-7.504,130.413,-6.736L130.398,-6.736L130.398,-7.808L128.605,-7.808ZM146.597,0.128C148.997,0.128,150.693,-1.52,150.693,-3.888C150.693,-6.288,148.997,-7.92,146.597,-7.92C144.133,-7.92,142.501,-6.192,142.501,-3.888C142.501,-1.6,144.133,0.128,146.597,0.128ZM146.597,-1.504C145.253,-1.504,144.325,-2.56,144.325,-3.888C144.325,-5.248,145.237,-6.304,146.597,-6.304C147.877,-6.304,148.869,-5.328,148.869,-3.888C148.869,-2.48,147.861,-1.504,146.597,-1.504ZM154.879,0.128C155.903,0.128,156.399,-0.08,156.863,-0.336L156.399,-1.888C155.983,-1.664,155.551,-1.552,155.247,-1.552C154.735,-1.552,154.495,-1.84,154.495,-2.64L154.495,-6.288L156.783,-6.288L156.783,-7.808L154.495,-7.808L154.495,-10.592L152.703,-10.4L152.703,-7.808L151.743,-7.808L151.743,-6.288L152.703,-6.288L152.703,-2.464C152.703,-0.72,153.535,0.128,154.879,0.128ZM161.659,0.128C164.059,0.128,165.755,-1.52,165.755,-3.888C165.755,-6.288,164.059,-7.92,161.659,-7.92C159.195,-7.92,157.563,-6.192,157.563,-3.888C157.563,-1.6,159.195,0.128,161.659,0.128ZM161.659,-1.504C160.315,-1.504,159.387,-2.56,159.387,-3.888C159.387,-5.248,160.299,-6.304,161.659,-6.304C162.939,-6.304,163.931,-5.328,163.931,-3.888C163.931,-2.48,162.923,-1.504,161.659,-1.504ZM167.621,0L169.413,0L169.413,-3.696C169.413,-4.976,170.181,-5.952,171.541,-5.952C171.669,-5.952,171.877,-5.936,172.085,-5.92L172.085,-7.92L171.861,-7.92C170.917,-7.92,170.053,-7.456,169.445,-6.64L169.413,-6.64L169.413,-7.808L167.621,-7.808Z" clip-path="url(#ClipPath-2)" transform="translate(75.0633,81.1657)"/>
    </g>
</svg>
