<?xml version="1.0" encoding="UTF-8" standalone="no"?>
<!-- Created with Keyshape -->
<svg id="yadea-3d" xmlns="http://www.w3.org/2000/svg" viewBox="0 0 1440 874" text-rendering="geometricPrecision" shape-rendering="geometricPrecision" style="white-space: pre;">
    <image x="0" y="0" width="1440px" height="874px" xlink:href="/uploads/global/yadea-svg-bg@2x.jpg" />
    <g id="iot" transform="translate(1112,414.75) translate(-143.5,-61.75)">
        <ellipse id="static-circle" stroke="white" rx="8" ry="8" fill="#ffffff" opacity="1" cx="8" cy="8" />
      <g transform="translate(-968.5,-460)">
        <path id="line" d="M983,463L1092.96,391.896L1153.11,353L1255.5,353" stroke="white" stroke-linecap="round" fill="none" opacity="1" />
      </g>
      <g transform="translate(185.83,-117.334)">
        <path fill="#ffffff" stroke="none" d="M1.82,0L4.24,0L4.24,-14.2L1.82,-14.2ZM7.53813,0L9.77812,0L9.77812,-4.9C9.77812,-6.82,10.7781,-7.88,12.2981,-7.88C13.6381,-7.88,14.4181,-7.22,14.4181,-5.16L14.4181,0L16.6581,0L16.6581,-5.74C16.6581,-8.68,15.2181,-9.9,13.0781,-9.9C11.7981,-9.9,10.6181,-9.38,9.81812,-8.42L9.77812,-8.42L9.77812,-9.76L7.53813,-9.76ZM18.9975,-5.08L25.0175,-5.08L25.0175,-7.26L18.9975,-7.26ZM32.8781,0.16C35.5981,0.16,37.6181,-1.82,37.6181,-4.84C37.6181,-7.78,35.5981,-9.9,32.8981,-9.9C31.6181,-9.9,30.5581,-9.46,29.7981,-8.6L29.7781,-8.6L29.7781,-14.72L27.5381,-14.72L27.5381,0L29.6781,0L29.6781,-1.3L29.7181,-1.3C30.4381,-0.36,31.4781,0.16,32.8781,0.16ZM32.5381,-1.88C30.9381,-1.88,29.6781,-3.06,29.6781,-4.82C29.6781,-6.56,30.8381,-7.88,32.5181,-7.88C34.0781,-7.88,35.3381,-6.7,35.3381,-4.82C35.3381,-3.1,34.1781,-1.88,32.5381,-1.88ZM43.42,0.16C44.54,0.16,45.62,-0.3,46.4,-1.24L46.44,-1.22L46.44,0L48.68,0L48.68,-9.76L46.44,-9.76L46.44,-5.08C46.44,-2.98,45.24,-1.88,43.94,-1.88C42.6,-1.88,42,-2.48,42,-4.42L42,-9.76L39.76,-9.76L39.76,-3.82C39.76,-0.92,41.26,0.16,43.42,0.16ZM52.7825,-11.2C53.6225,-11.2,54.3025,-11.88,54.3025,-12.7C54.3025,-13.5,53.6225,-14.18,52.7825,-14.18C51.9425,-14.18,51.2825,-13.5,51.2825,-12.7C51.2825,-11.88,51.9425,-11.2,52.7825,-11.2ZM51.6625,0L53.9025,0L53.9025,-9.76L51.6625,-9.76ZM57.1,0L59.34,0L59.34,-14.72L57.1,-14.72ZM65.2975,0.16C66.5775,0.16,67.1975,-0.1,67.7775,-0.42L67.1975,-2.36C66.6775,-2.08,66.1375,-1.94,65.7575,-1.94C65.1175,-1.94,64.8175,-2.3,64.8175,-3.3L64.8175,-7.86L67.6775,-7.86L67.6775,-9.76L64.8175,-9.76L64.8175,-13.24L62.5775,-13L62.5775,-9.76L61.3775,-9.76L61.3775,-7.86L62.5775,-7.86L62.5775,-3.08C62.5775,-0.9,63.6175,0.16,65.2975,0.16ZM75.4137,0L77.8337,0L77.8337,-14.2L75.4137,-14.2ZM85.6719,0.16C88.6719,0.16,90.7919,-1.9,90.7919,-4.86C90.7919,-7.86,88.6719,-9.9,85.6719,-9.9C82.5919,-9.9,80.5519,-7.74,80.5519,-4.86C80.5519,-2,82.5919,0.16,85.6719,0.16ZM85.6719,-1.88C83.9919,-1.88,82.8319,-3.2,82.8319,-4.86C82.8319,-6.56,83.9719,-7.88,85.6719,-7.88C87.2719,-7.88,88.5119,-6.66,88.5119,-4.86C88.5119,-3.1,87.2519,-1.88,85.6719,-1.88ZM94.41,0L96.83,0L96.83,-12.04L100.91,-12.04L100.91,-14.2L90.39,-14.2L90.39,-12.04L94.41,-12.04Z"  />
      </g>
    </g>
    <g id="lcd" transform="translate(668.25,184.25) translate(-178.75,-59.75)">
        <ellipse stroke="white" rx="8" ry="8" fill="#ffffff" />
        <g transform="translate(-497.5,-133.5)">
          <path d="M504,138L667.115,244L847,244" stroke="white" stroke-linecap="round" fill="none"  />
        </g>
        <g transform="translate(181.833,98.5)">
          <path fill="#ffffff" stroke="none" d="M0.46,-13.74L0.46,-11.62L6.4,-11.62L1.62,-0.16L3.96,0.28L9,-12.2L9,-13.74ZM10.6537,-5.08L16.6737,-5.08L16.6737,-7.26L10.6537,-7.26ZM20.4544,-11.2C21.2944,-11.2,21.9744,-11.88,21.9744,-12.7C21.9744,-13.5,21.2944,-14.18,20.4544,-14.18C19.6144,-14.18,18.9544,-13.5,18.9544,-12.7C18.9544,-11.88,19.6144,-11.2,20.4544,-11.2ZM19.3344,0L21.5744,0L21.5744,-9.76L19.3344,-9.76ZM24.6319,0L26.8719,0L26.8719,-4.9C26.8719,-6.82,27.8719,-7.88,29.3919,-7.88C30.7319,-7.88,31.5119,-7.22,31.5119,-5.16L31.5119,0L33.7519,0L33.7519,-5.74C33.7519,-8.68,32.3119,-9.9,30.1719,-9.9C28.8919,-9.9,27.7119,-9.38,26.9119,-8.42L26.8719,-8.42L26.8719,-9.76L24.6319,-9.76ZM40.8913,0.16C43.0112,0.16,44.2712,-0.6,45.0913,-1.66L43.5513,-3.02C43.0513,-2.36,42.1712,-1.88,41.0913,-1.88C39.3713,-1.88,38.1912,-3.08,38.1912,-4.88C38.1912,-6.66,39.3512,-7.88,41.0913,-7.88C42.1512,-7.88,42.9912,-7.42,43.5513,-6.76L45.0713,-8.08C44.0913,-9.28,42.4912,-9.9,40.9712,-9.9C38.0112,-9.9,35.9113,-7.86,35.9113,-4.86C35.9113,-1.88,38.0112,0.16,40.8913,0.16ZM47.1319,0L49.3719,0L49.3719,-4.96C49.3719,-6.88,50.3719,-7.88,51.9919,-7.88C53.3319,-7.88,54.1119,-7.2,54.1119,-5.26L54.1119,0L56.3519,0L56.3519,-5.84C56.3519,-8.76,54.8519,-9.9,52.7119,-9.9C51.3919,-9.9,50.2119,-9.44,49.3919,-8.54L49.3719,-8.54L49.3719,-14.72L47.1319,-14.72ZM64.7244,0L73.7244,0L73.7244,-2.16L67.1444,-2.16L67.1444,-14.2L64.7244,-14.2ZM82.1506,0.12C84.6506,0.12,86.5306,-1.04,87.7506,-2.56L85.9706,-4.08C85.0706,-2.96,83.7506,-2.14,82.1506,-2.14C79.4506,-2.14,77.5106,-4.14,77.5106,-7.06C77.5106,-10.06,79.4106,-12.08,82.1106,-12.08C83.6106,-12.08,84.8706,-11.44,85.9306,-10.14L87.7106,-11.64C86.2306,-13.46,84.1906,-14.36,82.1106,-14.36C77.5506,-14.36,74.9906,-11.1,74.9906,-7.06C74.9906,-2.4,78.2906,0.12,82.1506,0.12ZM90.2087,0L94.7887,0C99.3488,0,102.109,-2.9,102.109,-7.08C102.109,-11.28,99.2288,-14.2,94.7288,-14.2L90.2087,-14.2ZM92.6288,-2.16L92.6288,-12.04L94.7688,-12.04C97.6288,-12.04,99.6087,-9.96,99.6087,-7.08C99.6087,-4.26,97.6488,-2.16,94.6488,-2.16ZM114.147,0.16C115.547,0.16,116.607,-0.38,117.327,-1.32L117.347,-1.32L117.347,0L119.487,0L119.487,-14.72L117.267,-14.72L117.267,-8.56L117.247,-8.56C116.507,-9.44,115.407,-9.9,114.127,-9.9C111.447,-9.9,109.407,-7.78,109.407,-4.84C109.407,-1.82,111.447,0.16,114.147,0.16ZM114.487,-1.88C112.847,-1.88,111.687,-3.1,111.687,-4.82C111.687,-6.7,112.947,-7.88,114.507,-7.88C116.187,-7.88,117.347,-6.56,117.347,-4.82C117.347,-3.06,116.087,-1.88,114.487,-1.88ZM123.673,-11.2C124.513,-11.2,125.193,-11.88,125.193,-12.7C125.193,-13.5,124.513,-14.18,123.673,-14.18C122.833,-14.18,122.173,-13.5,122.173,-12.7C122.173,-11.88,122.833,-11.2,123.673,-11.2ZM122.553,0L124.793,0L124.793,-9.76L122.553,-9.76ZM130.971,0.16C133.451,0.16,134.611,-1.16,134.611,-2.8C134.611,-4.74,133.311,-5.12,131.231,-5.94C130.291,-6.3,129.691,-6.64,129.691,-7.12C129.691,-7.72,130.311,-7.96,130.751,-7.96C131.511,-7.96,132.411,-7.66,133.191,-6.92L134.311,-8.68C133.231,-9.56,132.111,-9.9,130.871,-9.9C128.871,-9.9,127.431,-8.74,127.431,-7.14C127.431,-5.22,128.811,-4.5,130.411,-3.94C131.691,-3.5,132.331,-3.26,132.331,-2.76C132.331,-2.18,131.831,-1.8,130.971,-1.8C129.771,-1.8,128.931,-2.18,128.151,-2.94L127.031,-1.26C128.051,-0.36,129.391,0.16,130.971,0.16ZM136.835,3.96L139.075,3.96L139.075,-1.18L139.115,-1.2C139.835,-0.32,140.855,0.16,142.175,0.16C144.895,0.16,146.915,-1.82,146.915,-4.84C146.915,-7.78,144.895,-9.9,142.195,-9.9C140.915,-9.9,139.835,-9.44,139.115,-8.6L139.075,-8.6L139.075,-9.76L136.835,-9.76ZM141.835,-1.88C140.235,-1.88,138.975,-3.06,138.975,-4.82C138.975,-6.56,140.135,-7.88,141.815,-7.88C143.375,-7.88,144.635,-6.7,144.635,-4.82C144.635,-3.1,143.475,-1.88,141.835,-1.88ZM149.397,0L151.637,0L151.637,-14.72L149.397,-14.72ZM158.814,0.16C160.174,0.16,161.214,-0.36,161.914,-1.3L161.954,-1.28L161.954,0L164.094,0L164.094,-9.76L161.854,-9.76L161.854,-8.58L161.814,-8.56C161.114,-9.44,160.034,-9.9,158.794,-9.9C156.114,-9.9,154.094,-7.78,154.094,-4.84C154.094,-1.82,156.114,0.16,158.814,0.16ZM159.174,-1.88C157.514,-1.88,156.374,-3.1,156.374,-4.82C156.374,-6.7,157.614,-7.88,159.174,-7.88C160.774,-7.88,161.954,-6.56,161.954,-4.82C161.954,-3.06,160.694,-1.88,159.174,-1.88ZM168.073,3.96L170.393,3.96L175.753,-9.76L173.453,-9.76L170.953,-3.22L170.913,-3.22L168.233,-9.76L165.833,-9.76L169.833,-0.54Z"  />
        </g>
    </g>
    <g id="alarm" transform="translate(520,247)">
      <ellipse stroke="white" rx="8" ry="8" fill="#ffffff" cx="8" cy="8" />
      <g transform="translate(-512,-238.333)">
        <path d="M512.5,243L349.385,137L191,137" stroke="white" fill="none" stroke-linecap="round" />
      </g>
      <g transform="translate(-325,-120)">
        <path fill="#ffffff" stroke="none" d="M1.76,0L4.18,0L4.18,-9.5L4.2,-9.5L8.08,-2.74L9.66,-2.74L13.54,-9.5L13.58,-9.5L13.58,0L16,0L16,-14.2L13.58,-14.2L8.9,-5.7L8.86,-5.7L4.18,-14.2L1.76,-14.2ZM23.7344,0.16C26.7344,0.16,28.8544,-1.9,28.8544,-4.86C28.8544,-7.86,26.7344,-9.9,23.7344,-9.9C20.6544,-9.9,18.6144,-7.74,18.6144,-4.86C18.6144,-2,20.6544,0.16,23.7344,0.16ZM23.7344,-1.88C22.0544,-1.88,20.8944,-3.2,20.8944,-4.86C20.8944,-6.56,22.0344,-7.88,23.7344,-7.88C25.3344,-7.88,26.5744,-6.66,26.5744,-4.86C26.5744,-3.1,25.3144,-1.88,23.7344,-1.88ZM33.4475,0L35.5875,0L39.4675,-9.76L37.0875,-9.76L34.5475,-2.8L34.5275,-2.8L31.9875,-9.76L29.5875,-9.76ZM49.6613,-5C49.6613,-7.84,47.8013,-9.9,45.0612,-9.9C42.2012,-9.9,40.1613,-7.88,40.1613,-4.88C40.1613,-1.82,42.2612,0.16,45.2212,0.16C47.3213,0.16,48.5413,-0.62,49.3613,-1.68L47.8013,-3.02C47.3013,-2.4,46.5013,-1.88,45.3413,-1.88C43.8213,-1.88,42.7612,-2.72,42.4813,-4.14L49.6012,-4.14C49.6213,-4.3,49.6613,-4.64,49.6613,-5ZM45.0412,-7.88C46.3213,-7.88,47.1213,-7.08,47.4012,-5.9L42.5213,-5.9C42.8413,-7.18,43.8013,-7.88,45.0412,-7.88ZM51.9756,0L54.2156,0L54.2156,-4.86C54.2156,-6.78,55.2156,-7.88,56.5556,-7.88C57.8756,-7.88,58.4956,-6.84,58.4956,-5.08L58.4956,0L60.7356,0L60.7356,-4.86C60.7356,-6.78,61.7556,-7.88,63.0156,-7.88C64.3356,-7.88,64.9156,-6.84,64.9156,-5.08L64.9156,0L67.1556,0L67.1556,-5.64C67.1556,-8.56,65.8756,-9.9,63.7356,-9.9C62.2956,-9.9,61.0556,-9.34,60.2356,-8.28L60.1956,-8.28C59.6156,-9.38,58.5956,-9.9,57.2756,-9.9C56.1556,-9.9,55.0356,-9.38,54.2356,-8.42L54.2156,-8.42L54.2156,-9.76L51.9756,-9.76ZM78.8331,-5C78.8331,-7.84,76.9731,-9.9,74.2331,-9.9C71.3731,-9.9,69.3331,-7.88,69.3331,-4.88C69.3331,-1.82,71.4331,0.16,74.3931,0.16C76.4931,0.16,77.7131,-0.62,78.5331,-1.68L76.9731,-3.02C76.4731,-2.4,75.6731,-1.88,74.5131,-1.88C72.9931,-1.88,71.9331,-2.72,71.6531,-4.14L78.7731,-4.14C78.7931,-4.3,78.8331,-4.64,78.8331,-5ZM74.2131,-7.88C75.4931,-7.88,76.2931,-7.08,76.5731,-5.9L71.6931,-5.9C72.0131,-7.18,72.9731,-7.88,74.2131,-7.88ZM81.1475,0L83.3875,0L83.3875,-4.9C83.3875,-6.82,84.3875,-7.88,85.9075,-7.88C87.2475,-7.88,88.0275,-7.22,88.0275,-5.16L88.0275,0L90.2675,0L90.2675,-5.74C90.2675,-8.68,88.8275,-9.9,86.6875,-9.9C85.4075,-9.9,84.2275,-9.38,83.4275,-8.42L83.3875,-8.42L83.3875,-9.76L81.1475,-9.76ZM95.9069,0.16C97.1869,0.16,97.8069,-0.1,98.3869,-0.42L97.8069,-2.36C97.2869,-2.08,96.7469,-1.94,96.3669,-1.94C95.7269,-1.94,95.4269,-2.3,95.4269,-3.3L95.4269,-7.86L98.2869,-7.86L98.2869,-9.76L95.4269,-9.76L95.4269,-13.24L93.1869,-13L93.1869,-9.76L91.9869,-9.76L91.9869,-7.86L93.1869,-7.86L93.1869,-3.08C93.1869,-0.9,94.2269,0.16,95.9069,0.16ZM109.783,0.16C111.143,0.16,112.183,-0.36,112.883,-1.3L112.923,-1.28L112.923,0L115.063,0L115.063,-9.76L112.823,-9.76L112.823,-8.58L112.783,-8.56C112.083,-9.44,111.003,-9.9,109.763,-9.9C107.083,-9.9,105.063,-7.78,105.063,-4.84C105.063,-1.82,107.083,0.16,109.783,0.16ZM110.143,-1.88C108.483,-1.88,107.343,-3.1,107.343,-4.82C107.343,-6.7,108.583,-7.88,110.143,-7.88C111.743,-7.88,112.923,-6.56,112.923,-4.82C112.923,-3.06,111.663,-1.88,110.143,-1.88ZM118.022,0L120.262,0L120.262,-14.72L118.022,-14.72ZM127.439,0.16C128.799,0.16,129.839,-0.36,130.539,-1.3L130.579,-1.28L130.579,0L132.719,0L132.719,-9.76L130.479,-9.76L130.479,-8.58L130.439,-8.56C129.739,-9.44,128.659,-9.9,127.419,-9.9C124.739,-9.9,122.719,-7.78,122.719,-4.84C122.719,-1.82,124.739,0.16,127.439,0.16ZM127.799,-1.88C126.139,-1.88,124.999,-3.1,124.999,-4.82C124.999,-6.7,126.239,-7.88,127.799,-7.88C129.399,-7.88,130.579,-6.56,130.579,-4.82C130.579,-3.06,129.319,-1.88,127.799,-1.88ZM135.538,0L137.778,0L137.778,-4.62C137.778,-6.22,138.738,-7.44,140.438,-7.44C140.598,-7.44,140.858,-7.42,141.118,-7.4L141.118,-9.9L140.838,-9.9C139.658,-9.9,138.578,-9.32,137.818,-8.3L137.778,-8.3L137.778,-9.76L135.538,-9.76ZM142.976,0L145.216,0L145.216,-4.86C145.216,-6.78,146.216,-7.88,147.556,-7.88C148.876,-7.88,149.496,-6.84,149.496,-5.08L149.496,0L151.736,0L151.736,-4.86C151.736,-6.78,152.756,-7.88,154.016,-7.88C155.336,-7.88,155.916,-6.84,155.916,-5.08L155.916,0L158.156,0L158.156,-5.64C158.156,-8.56,156.876,-9.9,154.736,-9.9C153.296,-9.9,152.056,-9.34,151.236,-8.28L151.196,-8.28C150.616,-9.38,149.596,-9.9,148.276,-9.9C147.156,-9.9,146.036,-9.38,145.236,-8.42L145.216,-8.42L145.216,-9.76L142.976,-9.76Z" />
      </g>
    </g>
    <g id="motor" transform="translate(964.25,735.75) translate(213.25,-76.25)">
        <ellipse stroke="white" rx="8" ry="8" fill="#ffffff" cx="8" cy="8" />
        <g transform="translate(-1177,-659.5)">
          <path d="M1179,673L956,812L735,812" stroke="white" stroke-linecap="round" fill="none"  />
        </g>
        <g transform="translate(-442.33,138.499)">
          <path fill="#ffffff" stroke="none" d="M1.76,0L4.18,0L4.18,-9.5L4.2,-9.5L8.08,-2.74L9.66,-2.74L13.54,-9.5L13.58,-9.5L13.58,0L16,0L16,-14.2L13.58,-14.2L8.9,-5.7L8.86,-5.7L4.18,-14.2L1.76,-14.2ZM23.3144,0.16C24.6744,0.16,25.7144,-0.36,26.4144,-1.3L26.4544,-1.28L26.4544,0L28.5944,0L28.5944,-9.76L26.3544,-9.76L26.3544,-8.58L26.3144,-8.56C25.6144,-9.44,24.5344,-9.9,23.2944,-9.9C20.6144,-9.9,18.5944,-7.78,18.5944,-4.84C18.5944,-1.82,20.6144,0.16,23.3144,0.16ZM23.6744,-1.88C22.0144,-1.88,20.8744,-3.1,20.8744,-4.82C20.8744,-6.7,22.1144,-7.88,23.6744,-7.88C25.2744,-7.88,26.4544,-6.56,26.4544,-4.82C26.4544,-3.06,25.1944,-1.88,23.6744,-1.88ZM30.4931,0L32.9731,0L35.2131,-3.08L35.2331,-3.08L37.4531,0L39.9531,0L36.4931,-4.96L39.8931,-9.76L37.3131,-9.76L35.2131,-6.68L35.1731,-6.68L33.1131,-9.76L30.5131,-9.76L33.9331,-4.98ZM46.6994,0L55.5194,0L55.5194,-2.12L50.2194,-2.12L50.1994,-2.18L53.0994,-5.2C54.8394,-7,55.3794,-8.3,55.3794,-9.82C55.3794,-12.34,53.3394,-13.86,51.0794,-13.86C48.8394,-13.86,47.4194,-12.74,46.6394,-11.26L48.2994,-10.08C48.9194,-11.16,49.8194,-11.7,50.9194,-11.7C52.1594,-11.7,53.0194,-10.78,53.0194,-9.56C53.0194,-8.38,52.1994,-7.38,51.0794,-6.2L46.6594,-1.54ZM61.9,0.16C64.52,0.16,66.46,-1.38,66.46,-3.72C66.46,-5.32,65.58,-6.5,64.26,-7.1L64.26,-7.16C65.4,-7.78,66.08,-8.9,66.08,-10.24C66.08,-12.56,64.14,-13.88,61.74,-13.88C59.74,-13.88,58.22,-12.9,57.56,-11.54L59.42,-10.54C59.86,-11.24,60.54,-11.74,61.68,-11.74C62.82,-11.74,63.74,-10.98,63.74,-9.88C63.74,-8.92,63.18,-8.06,61.74,-8.06L60.48,-8.06L60.48,-6.1L61.52,-6.1C63.24,-6.1,64.1,-5.12,64.1,-4.04C64.1,-2.8,63.04,-2,61.74,-2C60.36,-2,59.48,-2.62,59.06,-3.64L57.06,-2.76C57.74,-1.08,59.5,0.16,61.9,0.16ZM73.82,0.16C77.14,0.16,79.1,-2.72,79.1,-6.86C79.1,-11.34,76.92,-13.88,73.82,-13.88C70.52,-13.88,68.54,-11.02,68.54,-6.86C68.54,-2.4,70.72,0.16,73.82,0.16ZM73.82,-2C72.06,-2,70.9,-3.82,70.9,-6.86C70.9,-9.94,72.02,-11.74,73.82,-11.74C75.62,-11.74,76.74,-9.94,76.74,-6.86C76.74,-3.8,75.66,-2,73.82,-2ZM86.4606,0.16C89.7806,0.16,91.7406,-2.72,91.7406,-6.86C91.7406,-11.34,89.5606,-13.88,86.4606,-13.88C83.1606,-13.88,81.1806,-11.02,81.1806,-6.86C81.1806,-2.4,83.3606,0.16,86.4606,0.16ZM86.4606,-2C84.7006,-2,83.5406,-3.82,83.5406,-6.86C83.5406,-9.94,84.6606,-11.74,86.4606,-11.74C88.2606,-11.74,89.3806,-9.94,89.3806,-6.86C89.3806,-3.8,88.3006,-2,86.4606,-2ZM97.1087,0L99.3688,0L102.329,-10.68L102.369,-10.68L105.269,0L107.529,0L112.029,-14.2L109.469,-14.2L106.409,-3.98L106.369,-3.98L103.609,-14.2L101.049,-14.2L98.2688,-3.96L98.2288,-3.96L95.1888,-14.2L92.6087,-14.2ZM119.491,0L121.731,0L121.731,-4.96C121.731,-6.88,122.731,-7.88,124.351,-7.88C125.691,-7.88,126.471,-7.2,126.471,-5.26L126.471,0L128.711,0L128.711,-5.84C128.711,-8.76,127.211,-9.9,125.071,-9.9C123.751,-9.9,122.571,-9.44,121.751,-8.54L121.731,-8.54L121.731,-14.72L119.491,-14.72ZM134.904,0.16C136.024,0.16,137.104,-0.3,137.884,-1.24L137.924,-1.22L137.924,0L140.164,0L140.164,-9.76L137.924,-9.76L137.924,-5.08C137.924,-2.98,136.724,-1.88,135.424,-1.88C134.084,-1.88,133.484,-2.48,133.484,-4.42L133.484,-9.76L131.244,-9.76L131.244,-3.82C131.244,-0.92,132.744,0.16,134.904,0.16ZM148.347,0.16C151.067,0.16,153.087,-1.82,153.087,-4.84C153.087,-7.78,151.067,-9.9,148.367,-9.9C147.087,-9.9,146.027,-9.46,145.267,-8.6L145.247,-8.6L145.247,-14.72L143.007,-14.72L143.007,0L145.147,0L145.147,-1.3L145.187,-1.3C145.907,-0.36,146.947,0.16,148.347,0.16ZM148.007,-1.88C146.407,-1.88,145.147,-3.06,145.147,-4.82C145.147,-6.56,146.307,-7.88,147.987,-7.88C149.547,-7.88,150.807,-6.7,150.807,-4.82C150.807,-3.1,149.647,-1.88,148.007,-1.88ZM160.788,0L163.028,0L163.028,-4.86C163.028,-6.78,164.028,-7.88,165.368,-7.88C166.688,-7.88,167.308,-6.84,167.308,-5.08L167.308,0L169.548,0L169.548,-4.86C169.548,-6.78,170.568,-7.88,171.828,-7.88C173.148,-7.88,173.728,-6.84,173.728,-5.08L173.728,0L175.968,0L175.968,-5.64C175.968,-8.56,174.688,-9.9,172.548,-9.9C171.108,-9.9,169.868,-9.34,169.048,-8.28L169.008,-8.28C168.428,-9.38,167.408,-9.9,166.088,-9.9C164.968,-9.9,163.848,-9.38,163.048,-8.42L163.028,-8.42L163.028,-9.76L160.788,-9.76ZM183.266,0.16C186.266,0.16,188.386,-1.9,188.386,-4.86C188.386,-7.86,186.266,-9.9,183.266,-9.9C180.186,-9.9,178.146,-7.74,178.146,-4.86C178.146,-2,180.186,0.16,183.266,0.16ZM183.266,-1.88C181.586,-1.88,180.426,-3.2,180.426,-4.86C180.426,-6.56,181.566,-7.88,183.266,-7.88C184.866,-7.88,186.106,-6.66,186.106,-4.86C186.106,-3.1,184.846,-1.88,183.266,-1.88ZM193.626,0.16C194.906,0.16,195.526,-0.1,196.106,-0.42L195.526,-2.36C195.006,-2.08,194.466,-1.94,194.086,-1.94C193.446,-1.94,193.146,-2.3,193.146,-3.3L193.146,-7.86L196.006,-7.86L196.006,-9.76L193.146,-9.76L193.146,-13.24L190.906,-13L190.906,-9.76L189.706,-9.76L189.706,-7.86L190.906,-7.86L190.906,-3.08C190.906,-0.9,191.946,0.16,193.626,0.16ZM202.109,0.16C205.109,0.16,207.229,-1.9,207.229,-4.86C207.229,-7.86,205.109,-9.9,202.109,-9.9C199.029,-9.9,196.989,-7.74,196.989,-4.86C196.989,-2,199.029,0.16,202.109,0.16ZM202.109,-1.88C200.429,-1.88,199.269,-3.2,199.269,-4.86C199.269,-6.56,200.409,-7.88,202.109,-7.88C203.709,-7.88,204.949,-6.66,204.949,-4.86C204.949,-3.1,203.689,-1.88,202.109,-1.88ZM209.569,0L211.809,0L211.809,-4.62C211.809,-6.22,212.769,-7.44,214.469,-7.44C214.629,-7.44,214.889,-7.42,215.149,-7.4L215.149,-9.9L214.869,-9.9C213.689,-9.9,212.609,-9.32,211.849,-8.3L211.809,-8.3L211.809,-9.76L209.569,-9.76Z"  />
        </g>
    </g>
    <g id="battery" transform="translate(752.75,671.25) translate(-145.25,-94.75)">
        <ellipse stroke="white" rx="8" ry="8" fill="#ffffff" cx="8" cy="8" />
        <g transform="translate(-607.5,-576.5)">
          <path d="M619,592L705.115,766L898,766" stroke="white" stroke-linecap="round" fill="none"  />
        </g>
        <g  transform="translate(103.497,175.499)">
          <path fill="#ffffff" stroke="none" d="M1.74,0L10.74,0L10.74,-2.16L4.16,-2.16L4.16,-14.2L1.74,-14.2ZM14.1731,-11.2C15.0131,-11.2,15.6931,-11.88,15.6931,-12.7C15.6931,-13.5,15.0131,-14.18,14.1731,-14.18C13.3331,-14.18,12.6731,-13.5,12.6731,-12.7C12.6731,-11.88,13.3331,-11.2,14.1731,-11.2ZM13.0531,0L15.2931,0L15.2931,-9.76L13.0531,-9.76ZM22.7106,4.1C26.3306,4.1,27.6906,1.96,27.6906,-1L27.6906,-9.76L25.4506,-9.76L25.4506,-8.72L25.4106,-8.72C24.5906,-9.5,23.4906,-9.9,22.3706,-9.9C19.6706,-9.9,17.7306,-7.84,17.7306,-4.98C17.7306,-2.08,19.7706,-0.16,22.4906,-0.16C23.6906,-0.16,24.7106,-0.6,25.4506,-1.34L25.4906,-1.34L25.4906,-0.32C25.4906,0.98,24.5106,2.08,22.5906,2.08C21.1906,2.08,20.3306,1.68,19.2706,1.12L18.7306,3.08C19.8306,3.74,21.2506,4.1,22.7106,4.1ZM22.7906,-2.22C21.2106,-2.22,20.0106,-3.3,20.0106,-5.04C20.0106,-6.7,21.1306,-7.86,22.7906,-7.86C24.3506,-7.86,25.5506,-6.74,25.5506,-5.08C25.5506,-3.42,24.4106,-2.22,22.7906,-2.22ZM30.4912,0L32.7313,0L32.7313,-4.96C32.7313,-6.88,33.7313,-7.88,35.3512,-7.88C36.6912,-7.88,37.4712,-7.2,37.4712,-5.26L37.4712,0L39.7113,0L39.7113,-5.84C39.7113,-8.76,38.2113,-9.9,36.0713,-9.9C34.7513,-9.9,33.5713,-9.44,32.7513,-8.54L32.7313,-8.54L32.7313,-14.72L30.4912,-14.72ZM45.3444,0.16C46.6244,0.16,47.2444,-0.1,47.8244,-0.42L47.2444,-2.36C46.7244,-2.08,46.1844,-1.94,45.8044,-1.94C45.1644,-1.94,44.8644,-2.3,44.8644,-3.3L44.8644,-7.86L47.7244,-7.86L47.7244,-9.76L44.8644,-9.76L44.8644,-13.24L42.6244,-13L42.6244,-9.76L41.4244,-9.76L41.4244,-7.86L42.6244,-7.86L42.6244,-3.08C42.6244,-0.9,43.6644,0.16,45.3444,0.16ZM52.0612,0L54.0812,0L55.9613,-6.14L55.9813,-6.14L57.8613,0L59.9212,0L63.2412,-9.76L60.9813,-9.76L58.9212,-3.28L58.8812,-3.28L56.9212,-9.76L55.0612,-9.76L53.1413,-3.28L53.1012,-3.28L51.0412,-9.76L48.7412,-9.76ZM73.4894,-5C73.4894,-7.84,71.6294,-9.9,68.8894,-9.9C66.0294,-9.9,63.9894,-7.88,63.9894,-4.88C63.9894,-1.82,66.0894,0.16,69.0494,0.16C71.1494,0.16,72.3694,-0.62,73.1894,-1.68L71.6294,-3.02C71.1294,-2.4,70.3294,-1.88,69.1694,-1.88C67.6494,-1.88,66.5894,-2.72,66.3094,-4.14L73.4294,-4.14C73.4494,-4.3,73.4894,-4.64,73.4894,-5ZM68.8694,-7.88C70.1494,-7.88,70.9494,-7.08,71.2294,-5.9L66.3494,-5.9C66.6694,-7.18,67.6294,-7.88,68.8694,-7.88ZM77.0638,-11.2C77.9037,-11.2,78.5837,-11.88,78.5837,-12.7C78.5837,-13.5,77.9037,-14.18,77.0638,-14.18C76.2237,-14.18,75.5638,-13.5,75.5638,-12.7C75.5638,-11.88,76.2237,-11.2,77.0638,-11.2ZM75.9437,0L78.1837,0L78.1837,-9.76L75.9437,-9.76ZM85.6012,4.1C89.2213,4.1,90.5813,1.96,90.5813,-1L90.5813,-9.76L88.3412,-9.76L88.3412,-8.72L88.3013,-8.72C87.4812,-9.5,86.3812,-9.9,85.2612,-9.9C82.5612,-9.9,80.6212,-7.84,80.6212,-4.98C80.6212,-2.08,82.6612,-0.16,85.3812,-0.16C86.5813,-0.16,87.6012,-0.6,88.3412,-1.34L88.3812,-1.34L88.3812,-0.32C88.3812,0.98,87.4013,2.08,85.4812,2.08C84.0813,2.08,83.2213,1.68,82.1612,1.12L81.6212,3.08C82.7213,3.74,84.1413,4.1,85.6012,4.1ZM85.6813,-2.22C84.1012,-2.22,82.9013,-3.3,82.9013,-5.04C82.9013,-6.7,84.0212,-7.86,85.6813,-7.86C87.2412,-7.86,88.4413,-6.74,88.4413,-5.08C88.4413,-3.42,87.3012,-2.22,85.6813,-2.22ZM93.3819,0L95.6219,0L95.6219,-4.96C95.6219,-6.88,96.6219,-7.88,98.2419,-7.88C99.5819,-7.88,100.362,-7.2,100.362,-5.26L100.362,0L102.602,0L102.602,-5.84C102.602,-8.76,101.102,-9.9,98.9619,-9.9C97.6419,-9.9,96.4619,-9.44,95.6419,-8.54L95.6219,-8.54L95.6219,-14.72L93.3819,-14.72ZM108.235,0.16C109.515,0.16,110.135,-0.1,110.715,-0.42L110.135,-2.36C109.615,-2.08,109.075,-1.94,108.695,-1.94C108.055,-1.94,107.755,-2.3,107.755,-3.3L107.755,-7.86L110.615,-7.86L110.615,-9.76L107.755,-9.76L107.755,-13.24L105.515,-13L105.515,-9.76L104.315,-9.76L104.315,-7.86L105.515,-7.86L105.515,-3.08C105.515,-0.9,106.555,0.16,108.235,0.16ZM123.331,0.16C126.051,0.16,128.071,-1.82,128.071,-4.84C128.071,-7.78,126.051,-9.9,123.351,-9.9C122.071,-9.9,121.011,-9.46,120.251,-8.6L120.231,-8.6L120.231,-14.72L117.991,-14.72L117.991,0L120.131,0L120.131,-1.3L120.171,-1.3C120.891,-0.36,121.931,0.16,123.331,0.16ZM122.991,-1.88C121.391,-1.88,120.131,-3.06,120.131,-4.82C120.131,-6.56,121.291,-7.88,122.971,-7.88C124.531,-7.88,125.791,-6.7,125.791,-4.82C125.791,-3.1,124.631,-1.88,122.991,-1.88ZM134.533,0.16C135.893,0.16,136.933,-0.36,137.633,-1.3L137.673,-1.28L137.673,0L139.813,0L139.813,-9.76L137.573,-9.76L137.573,-8.58L137.533,-8.56C136.833,-9.44,135.753,-9.9,134.513,-9.9C131.833,-9.9,129.813,-7.78,129.813,-4.84C129.813,-1.82,131.833,0.16,134.533,0.16ZM134.893,-1.88C133.233,-1.88,132.093,-3.1,132.093,-4.82C132.093,-6.7,133.333,-7.88,134.893,-7.88C136.493,-7.88,137.673,-6.56,137.673,-4.82C137.673,-3.06,136.413,-1.88,134.893,-1.88ZM145.532,0.16C146.812,0.16,147.432,-0.1,148.012,-0.42L147.432,-2.36C146.912,-2.08,146.372,-1.94,145.992,-1.94C145.352,-1.94,145.052,-2.3,145.052,-3.3L145.052,-7.86L147.912,-7.86L147.912,-9.76L145.052,-9.76L145.052,-13.24L142.812,-13L142.812,-9.76L141.612,-9.76L141.612,-7.86L142.812,-7.86L142.812,-3.08C142.812,-0.9,143.852,0.16,145.532,0.16ZM152.969,0.16C154.249,0.16,154.869,-0.1,155.449,-0.42L154.869,-2.36C154.349,-2.08,153.809,-1.94,153.429,-1.94C152.789,-1.94,152.489,-2.3,152.489,-3.3L152.489,-7.86L155.349,-7.86L155.349,-9.76L152.489,-9.76L152.489,-13.24L150.249,-13L150.249,-9.76L149.049,-9.76L149.049,-7.86L150.249,-7.86L150.249,-3.08C150.249,-0.9,151.289,0.16,152.969,0.16ZM165.833,-5C165.833,-7.84,163.973,-9.9,161.233,-9.9C158.373,-9.9,156.333,-7.88,156.333,-4.88C156.333,-1.82,158.433,0.16,161.393,0.16C163.493,0.16,164.713,-0.62,165.533,-1.68L163.973,-3.02C163.473,-2.4,162.673,-1.88,161.513,-1.88C159.993,-1.88,158.933,-2.72,158.653,-4.14L165.773,-4.14C165.793,-4.3,165.833,-4.64,165.833,-5ZM161.213,-7.88C162.493,-7.88,163.293,-7.08,163.573,-5.9L158.693,-5.9C159.013,-7.18,159.973,-7.88,161.213,-7.88ZM168.148,0L170.387,0L170.387,-4.62C170.387,-6.22,171.348,-7.44,173.048,-7.44C173.208,-7.44,173.467,-7.42,173.727,-7.4L173.727,-9.9L173.447,-9.9C172.268,-9.9,171.188,-9.32,170.428,-8.3L170.387,-8.3L170.387,-9.76L168.148,-9.76ZM176.745,3.96L179.065,3.96L184.425,-9.76L182.125,-9.76L179.625,-3.22L179.585,-3.22L176.905,-9.76L174.505,-9.76L178.505,-0.54Z" />
        </g>
    </g>
    <g id="brakesl" opacity="1" transform="translate(589,720.25) translate(-252.5,-82.75)">
        <ellipse stroke="white" rx="8" ry="8" fill="#ffffff" cx="8" cy="8" />
        <g transform="translate(-336.5,-637.5)">
          <path d="M350,651.5L557,803L841.5,803" stroke="white" stroke-linecap="round" fill="none"  />
        </g>
        <g transform="translate(222.164,151.832)">
          <path fill="#ffffff" stroke="none" d="M0.84,0L9.66,0L9.66,-2.12L4.36,-2.12L4.34,-2.18L7.24,-5.2C8.98,-7,9.52,-8.3,9.52,-9.82C9.52,-12.34,7.48,-13.86,5.22,-13.86C2.98,-13.86,1.56,-12.74,0.78,-11.26L2.44,-10.08C3.06,-11.16,3.96,-11.7,5.06,-11.7C6.3,-11.7,7.16,-10.78,7.16,-9.56C7.16,-8.38,6.34,-7.38,5.22,-6.2L0.8,-1.54ZM11.4806,0L20.3006,0L20.3006,-2.12L15.0006,-2.12L14.9806,-2.18L17.8806,-5.2C19.6206,-7,20.1606,-8.3,20.1606,-9.82C20.1606,-12.34,18.1206,-13.86,15.8606,-13.86C13.6206,-13.86,12.2006,-12.74,11.4206,-11.26L13.0806,-10.08C13.7006,-11.16,14.6006,-11.7,15.7006,-11.7C16.9406,-11.7,17.8006,-10.78,17.8006,-9.56C17.8006,-8.38,16.9806,-7.38,15.8606,-6.2L11.4406,-1.54ZM27.6012,0.16C30.9212,0.16,32.8812,-2.72,32.8812,-6.86C32.8812,-11.34,30.7013,-13.88,27.6012,-13.88C24.3013,-13.88,22.3213,-11.02,22.3213,-6.86C22.3213,-2.4,24.5012,0.16,27.6012,0.16ZM27.6012,-2C25.8412,-2,24.6812,-3.82,24.6812,-6.86C24.6812,-9.94,25.8013,-11.74,27.6012,-11.74C29.4012,-11.74,30.5212,-9.94,30.5212,-6.86C30.5212,-3.8,29.4412,-2,27.6012,-2ZM40.7412,0L42.9813,0L42.9813,-4.86C42.9813,-6.78,43.9813,-7.88,45.3213,-7.88C46.6413,-7.88,47.2612,-6.84,47.2612,-5.08L47.2612,0L49.5013,0L49.5013,-4.86C49.5013,-6.78,50.5212,-7.88,51.7812,-7.88C53.1012,-7.88,53.6813,-6.84,53.6813,-5.08L53.6813,0L55.9212,0L55.9212,-5.64C55.9212,-8.56,54.6413,-9.9,52.5013,-9.9C51.0612,-9.9,49.8213,-9.34,49.0013,-8.28L48.9613,-8.28C48.3812,-9.38,47.3613,-9.9,46.0413,-9.9C44.9212,-9.9,43.8013,-9.38,43.0013,-8.42L42.9813,-8.42L42.9813,-9.76L40.7412,-9.76ZM58.6787,0L60.9188,0L60.9188,-4.86C60.9188,-6.78,61.9188,-7.88,63.2588,-7.88C64.5788,-7.88,65.1987,-6.84,65.1987,-5.08L65.1987,0L67.4388,0L67.4388,-4.86C67.4388,-6.78,68.4587,-7.88,69.7188,-7.88C71.0387,-7.88,71.6188,-6.84,71.6188,-5.08L71.6188,0L73.8587,0L73.8587,-5.64C73.8587,-8.56,72.5788,-9.9,70.4388,-9.9C68.9987,-9.9,67.7588,-9.34,66.9388,-8.28L66.8988,-8.28C66.3187,-9.38,65.2988,-9.9,63.9788,-9.9C62.8587,-9.9,61.7388,-9.38,60.9388,-8.42L60.9188,-8.42L60.9188,-9.76L58.6787,-9.76ZM81.9756,0L84.2156,0L84.2156,-4.96C84.2156,-6.88,85.2156,-7.88,86.8356,-7.88C88.1756,-7.88,88.9556,-7.2,88.9556,-5.26L88.9556,0L91.1956,0L91.1956,-5.84C91.1956,-8.76,89.6956,-9.9,87.5556,-9.9C86.2356,-9.9,85.0556,-9.44,84.2356,-8.54L84.2156,-8.54L84.2156,-14.72L81.9756,-14.72ZM94.6356,3.96L96.9556,3.96L102.316,-9.76L100.016,-9.76L97.5156,-3.22L97.4756,-3.22L94.7956,-9.76L92.3956,-9.76L96.3956,-0.54ZM107.866,0.16C109.266,0.16,110.326,-0.38,111.046,-1.32L111.066,-1.32L111.066,0L113.206,0L113.206,-14.72L110.986,-14.72L110.986,-8.56L110.966,-8.56C110.226,-9.44,109.126,-9.9,107.846,-9.9C105.166,-9.9,103.126,-7.78,103.126,-4.84C103.126,-1.82,105.166,0.16,107.866,0.16ZM108.206,-1.88C106.566,-1.88,105.406,-3.1,105.406,-4.82C105.406,-6.7,106.666,-7.88,108.226,-7.88C109.906,-7.88,111.066,-6.56,111.066,-4.82C111.066,-3.06,109.806,-1.88,108.206,-1.88ZM116.132,0L118.372,0L118.372,-4.62C118.372,-6.22,119.332,-7.44,121.032,-7.44C121.192,-7.44,121.452,-7.42,121.712,-7.4L121.712,-9.9L121.432,-9.9C120.252,-9.9,119.172,-9.32,118.412,-8.3L118.372,-8.3L118.372,-9.76L116.132,-9.76ZM127.408,0.16C128.768,0.16,129.808,-0.36,130.508,-1.3L130.548,-1.28L130.548,0L132.688,0L132.688,-9.76L130.448,-9.76L130.448,-8.58L130.408,-8.56C129.708,-9.44,128.628,-9.9,127.388,-9.9C124.708,-9.9,122.688,-7.78,122.688,-4.84C122.688,-1.82,124.708,0.16,127.408,0.16ZM127.768,-1.88C126.108,-1.88,124.968,-3.1,124.968,-4.82C124.968,-6.7,126.208,-7.88,127.768,-7.88C129.368,-7.88,130.548,-6.56,130.548,-4.82C130.548,-3.06,129.288,-1.88,127.768,-1.88ZM138.967,0.16C140.087,0.16,141.167,-0.3,141.947,-1.24L141.987,-1.22L141.987,0L144.227,0L144.227,-9.76L141.987,-9.76L141.987,-5.08C141.987,-2.98,140.787,-1.88,139.487,-1.88C138.147,-1.88,137.547,-2.48,137.547,-4.42L137.547,-9.76L135.307,-9.76L135.307,-3.82C135.307,-0.92,136.807,0.16,138.967,0.16ZM147.209,0L149.449,0L149.449,-14.72L147.209,-14.72ZM153.767,-11.2C154.607,-11.2,155.287,-11.88,155.287,-12.7C155.287,-13.5,154.607,-14.18,153.767,-14.18C152.927,-14.18,152.267,-13.5,152.267,-12.7C152.267,-11.88,152.927,-11.2,153.767,-11.2ZM152.647,0L154.887,0L154.887,-9.76L152.647,-9.76ZM162.344,0.16C164.464,0.16,165.724,-0.6,166.544,-1.66L165.004,-3.02C164.504,-2.36,163.624,-1.88,162.544,-1.88C160.824,-1.88,159.644,-3.08,159.644,-4.88C159.644,-6.66,160.804,-7.88,162.544,-7.88C163.604,-7.88,164.444,-7.42,165.004,-6.76L166.524,-8.08C165.544,-9.28,163.944,-9.9,162.424,-9.9C159.464,-9.9,157.364,-7.86,157.364,-4.86C157.364,-1.88,159.464,0.16,162.344,0.16ZM178.084,0.16C179.484,0.16,180.544,-0.38,181.264,-1.32L181.284,-1.32L181.284,0L183.424,0L183.424,-14.72L181.204,-14.72L181.204,-8.56L181.184,-8.56C180.444,-9.44,179.344,-9.9,178.064,-9.9C175.384,-9.9,173.344,-7.78,173.344,-4.84C173.344,-1.82,175.384,0.16,178.084,0.16ZM178.424,-1.88C176.784,-1.88,175.624,-3.1,175.624,-4.82C175.624,-6.7,176.884,-7.88,178.444,-7.88C180.124,-7.88,181.284,-6.56,181.284,-4.82C181.284,-3.06,180.024,-1.88,178.424,-1.88ZM187.611,-11.2C188.451,-11.2,189.131,-11.88,189.131,-12.7C189.131,-13.5,188.451,-14.18,187.611,-14.18C186.771,-14.18,186.111,-13.5,186.111,-12.7C186.111,-11.88,186.771,-11.2,187.611,-11.2ZM186.491,0L188.731,0L188.731,-9.76L186.491,-9.76ZM194.908,0.16C197.388,0.16,198.548,-1.16,198.548,-2.8C198.548,-4.74,197.248,-5.12,195.168,-5.94C194.228,-6.3,193.628,-6.64,193.628,-7.12C193.628,-7.72,194.248,-7.96,194.688,-7.96C195.448,-7.96,196.348,-7.66,197.128,-6.92L198.248,-8.68C197.168,-9.56,196.048,-9.9,194.808,-9.9C192.808,-9.9,191.368,-8.74,191.368,-7.14C191.368,-5.22,192.748,-4.5,194.348,-3.94C195.628,-3.5,196.268,-3.26,196.268,-2.76C196.268,-2.18,195.768,-1.8,194.908,-1.8C193.708,-1.8,192.868,-2.18,192.088,-2.94L190.968,-1.26C191.988,-0.36,193.328,0.16,194.908,0.16ZM200.773,0L203.012,0L203.012,-2.58L204.592,-4.3L207.212,0L209.732,0L206.152,-5.84L209.673,-9.76L207.012,-9.76L203.053,-5.24L203.012,-5.26L203.012,-14.72L200.773,-14.72ZM222.175,0.16C224.895,0.16,226.915,-1.82,226.915,-4.84C226.915,-7.78,224.895,-9.9,222.195,-9.9C220.915,-9.9,219.855,-9.46,219.095,-8.6L219.075,-8.6L219.075,-14.72L216.835,-14.72L216.835,0L218.975,0L218.975,-1.3L219.015,-1.3C219.735,-0.36,220.775,0.16,222.175,0.16ZM221.835,-1.88C220.235,-1.88,218.975,-3.06,218.975,-4.82C218.975,-6.56,220.135,-7.88,221.815,-7.88C223.375,-7.88,224.635,-6.7,224.635,-4.82C224.635,-3.1,223.475,-1.88,221.835,-1.88ZM229.257,0L231.497,0L231.497,-4.62C231.497,-6.22,232.457,-7.44,234.157,-7.44C234.317,-7.44,234.577,-7.42,234.837,-7.4L234.837,-9.9L234.557,-9.9C233.377,-9.9,232.297,-9.32,231.537,-8.3L231.497,-8.3L231.497,-9.76L229.257,-9.76ZM240.533,0.16C241.893,0.16,242.933,-0.36,243.633,-1.3L243.673,-1.28L243.673,0L245.813,0L245.813,-9.76L243.573,-9.76L243.573,-8.58L243.533,-8.56C242.833,-9.44,241.753,-9.9,240.513,-9.9C237.833,-9.9,235.813,-7.78,235.813,-4.84C235.813,-1.82,237.833,0.16,240.533,0.16ZM240.893,-1.88C239.233,-1.88,238.093,-3.1,238.093,-4.82C238.093,-6.7,239.333,-7.88,240.893,-7.88C242.493,-7.88,243.673,-6.56,243.673,-4.82C243.673,-3.06,242.413,-1.88,240.893,-1.88ZM248.632,0L250.872,0L250.872,-2.58L252.452,-4.3L255.072,0L257.592,0L254.012,-5.84L257.532,-9.76L254.872,-9.76L250.912,-5.24L250.872,-5.26L250.872,-14.72L248.632,-14.72ZM267.708,-5C267.708,-7.84,265.848,-9.9,263.108,-9.9C260.248,-9.9,258.208,-7.88,258.208,-4.88C258.208,-1.82,260.308,0.16,263.268,0.16C265.368,0.16,266.588,-0.62,267.408,-1.68L265.848,-3.02C265.348,-2.4,264.548,-1.88,263.388,-1.88C261.868,-1.88,260.808,-2.72,260.528,-4.14L267.648,-4.14C267.668,-4.3,267.708,-4.64,267.708,-5ZM263.088,-7.88C264.368,-7.88,265.168,-7.08,265.448,-5.9L260.568,-5.9C260.888,-7.18,261.848,-7.88,263.088,-7.88ZM273.142,0.16C275.622,0.16,276.783,-1.16,276.783,-2.8C276.783,-4.74,275.483,-5.12,273.402,-5.94C272.462,-6.3,271.862,-6.64,271.862,-7.12C271.862,-7.72,272.483,-7.96,272.922,-7.96C273.682,-7.96,274.582,-7.66,275.362,-6.92L276.483,-8.68C275.402,-9.56,274.283,-9.9,273.043,-9.9C271.043,-9.9,269.603,-8.74,269.603,-7.14C269.603,-5.22,270.983,-4.5,272.582,-3.94C273.862,-3.5,274.503,-3.26,274.503,-2.76C274.503,-2.18,274.003,-1.8,273.142,-1.8C271.943,-1.8,271.103,-2.18,270.323,-2.94L269.203,-1.26C270.223,-0.36,271.562,0.16,273.142,0.16Z"  />
        </g>
    </g>
    <g id="brakesr" transform="translate(817.5,727.75) translate(224,-75.25)">
        <ellipse stroke="white" rx="8" ry="8" fill="#ffffff" cx="8" cy="8" />
        <g transform="translate(-1061.5,-652.5)">
          <path d="M1063,665.5L842,803L557.5,803" stroke="white" stroke-linecap="round" fill="none" />
        </g>
        <g transform="translate(-503,136.832)">
          <path fill="#ffffff" stroke="none" d="M0.84,0L9.66,0L9.66,-2.12L4.36,-2.12L4.34,-2.18L7.24,-5.2C8.98,-7,9.52,-8.3,9.52,-9.82C9.52,-12.34,7.48,-13.86,5.22,-13.86C2.98,-13.86,1.56,-12.74,0.78,-11.26L2.44,-10.08C3.06,-11.16,3.96,-11.7,5.06,-11.7C6.3,-11.7,7.16,-10.78,7.16,-9.56C7.16,-8.38,6.34,-7.38,5.22,-6.2L0.8,-1.54ZM11.4806,0L20.3006,0L20.3006,-2.12L15.0006,-2.12L14.9806,-2.18L17.8806,-5.2C19.6206,-7,20.1606,-8.3,20.1606,-9.82C20.1606,-12.34,18.1206,-13.86,15.8606,-13.86C13.6206,-13.86,12.2006,-12.74,11.4206,-11.26L13.0806,-10.08C13.7006,-11.16,14.6006,-11.7,15.7006,-11.7C16.9406,-11.7,17.8006,-10.78,17.8006,-9.56C17.8006,-8.38,16.9806,-7.38,15.8606,-6.2L11.4406,-1.54ZM27.6012,0.16C30.9212,0.16,32.8812,-2.72,32.8812,-6.86C32.8812,-11.34,30.7013,-13.88,27.6012,-13.88C24.3013,-13.88,22.3213,-11.02,22.3213,-6.86C22.3213,-2.4,24.5012,0.16,27.6012,0.16ZM27.6012,-2C25.8412,-2,24.6812,-3.82,24.6812,-6.86C24.6812,-9.94,25.8013,-11.74,27.6012,-11.74C29.4012,-11.74,30.5212,-9.94,30.5212,-6.86C30.5212,-3.8,29.4412,-2,27.6012,-2ZM40.7412,0L42.9813,0L42.9813,-4.86C42.9813,-6.78,43.9813,-7.88,45.3213,-7.88C46.6413,-7.88,47.2612,-6.84,47.2612,-5.08L47.2612,0L49.5013,0L49.5013,-4.86C49.5013,-6.78,50.5212,-7.88,51.7812,-7.88C53.1012,-7.88,53.6813,-6.84,53.6813,-5.08L53.6813,0L55.9212,0L55.9212,-5.64C55.9212,-8.56,54.6413,-9.9,52.5013,-9.9C51.0612,-9.9,49.8213,-9.34,49.0013,-8.28L48.9613,-8.28C48.3812,-9.38,47.3613,-9.9,46.0413,-9.9C44.9212,-9.9,43.8013,-9.38,43.0013,-8.42L42.9813,-8.42L42.9813,-9.76L40.7412,-9.76ZM58.6787,0L60.9188,0L60.9188,-4.86C60.9188,-6.78,61.9188,-7.88,63.2588,-7.88C64.5788,-7.88,65.1987,-6.84,65.1987,-5.08L65.1987,0L67.4388,0L67.4388,-4.86C67.4388,-6.78,68.4587,-7.88,69.7188,-7.88C71.0387,-7.88,71.6188,-6.84,71.6188,-5.08L71.6188,0L73.8587,0L73.8587,-5.64C73.8587,-8.56,72.5788,-9.9,70.4388,-9.9C68.9987,-9.9,67.7588,-9.34,66.9388,-8.28L66.8988,-8.28C66.3187,-9.38,65.2988,-9.9,63.9788,-9.9C62.8587,-9.9,61.7388,-9.38,60.9388,-8.42L60.9188,-8.42L60.9188,-9.76L58.6787,-9.76ZM81.9756,0L84.2156,0L84.2156,-4.96C84.2156,-6.88,85.2156,-7.88,86.8356,-7.88C88.1756,-7.88,88.9556,-7.2,88.9556,-5.26L88.9556,0L91.1956,0L91.1956,-5.84C91.1956,-8.76,89.6956,-9.9,87.5556,-9.9C86.2356,-9.9,85.0556,-9.44,84.2356,-8.54L84.2156,-8.54L84.2156,-14.72L81.9756,-14.72ZM94.6356,3.96L96.9556,3.96L102.316,-9.76L100.016,-9.76L97.5156,-3.22L97.4756,-3.22L94.7956,-9.76L92.3956,-9.76L96.3956,-0.54ZM107.866,0.16C109.266,0.16,110.326,-0.38,111.046,-1.32L111.066,-1.32L111.066,0L113.206,0L113.206,-14.72L110.986,-14.72L110.986,-8.56L110.966,-8.56C110.226,-9.44,109.126,-9.9,107.846,-9.9C105.166,-9.9,103.126,-7.78,103.126,-4.84C103.126,-1.82,105.166,0.16,107.866,0.16ZM108.206,-1.88C106.566,-1.88,105.406,-3.1,105.406,-4.82C105.406,-6.7,106.666,-7.88,108.226,-7.88C109.906,-7.88,111.066,-6.56,111.066,-4.82C111.066,-3.06,109.806,-1.88,108.206,-1.88ZM116.132,0L118.372,0L118.372,-4.62C118.372,-6.22,119.332,-7.44,121.032,-7.44C121.192,-7.44,121.452,-7.42,121.712,-7.4L121.712,-9.9L121.432,-9.9C120.252,-9.9,119.172,-9.32,118.412,-8.3L118.372,-8.3L118.372,-9.76L116.132,-9.76ZM127.408,0.16C128.768,0.16,129.808,-0.36,130.508,-1.3L130.548,-1.28L130.548,0L132.688,0L132.688,-9.76L130.448,-9.76L130.448,-8.58L130.408,-8.56C129.708,-9.44,128.628,-9.9,127.388,-9.9C124.708,-9.9,122.688,-7.78,122.688,-4.84C122.688,-1.82,124.708,0.16,127.408,0.16ZM127.768,-1.88C126.108,-1.88,124.968,-3.1,124.968,-4.82C124.968,-6.7,126.208,-7.88,127.768,-7.88C129.368,-7.88,130.548,-6.56,130.548,-4.82C130.548,-3.06,129.288,-1.88,127.768,-1.88ZM138.967,0.16C140.087,0.16,141.167,-0.3,141.947,-1.24L141.987,-1.22L141.987,0L144.227,0L144.227,-9.76L141.987,-9.76L141.987,-5.08C141.987,-2.98,140.787,-1.88,139.487,-1.88C138.147,-1.88,137.547,-2.48,137.547,-4.42L137.547,-9.76L135.307,-9.76L135.307,-3.82C135.307,-0.92,136.807,0.16,138.967,0.16ZM147.209,0L149.449,0L149.449,-14.72L147.209,-14.72ZM153.767,-11.2C154.607,-11.2,155.287,-11.88,155.287,-12.7C155.287,-13.5,154.607,-14.18,153.767,-14.18C152.927,-14.18,152.267,-13.5,152.267,-12.7C152.267,-11.88,152.927,-11.2,153.767,-11.2ZM152.647,0L154.887,0L154.887,-9.76L152.647,-9.76ZM162.344,0.16C164.464,0.16,165.724,-0.6,166.544,-1.66L165.004,-3.02C164.504,-2.36,163.624,-1.88,162.544,-1.88C160.824,-1.88,159.644,-3.08,159.644,-4.88C159.644,-6.66,160.804,-7.88,162.544,-7.88C163.604,-7.88,164.444,-7.42,165.004,-6.76L166.524,-8.08C165.544,-9.28,163.944,-9.9,162.424,-9.9C159.464,-9.9,157.364,-7.86,157.364,-4.86C157.364,-1.88,159.464,0.16,162.344,0.16ZM178.084,0.16C179.484,0.16,180.544,-0.38,181.264,-1.32L181.284,-1.32L181.284,0L183.424,0L183.424,-14.72L181.204,-14.72L181.204,-8.56L181.184,-8.56C180.444,-9.44,179.344,-9.9,178.064,-9.9C175.384,-9.9,173.344,-7.78,173.344,-4.84C173.344,-1.82,175.384,0.16,178.084,0.16ZM178.424,-1.88C176.784,-1.88,175.624,-3.1,175.624,-4.82C175.624,-6.7,176.884,-7.88,178.444,-7.88C180.124,-7.88,181.284,-6.56,181.284,-4.82C181.284,-3.06,180.024,-1.88,178.424,-1.88ZM187.611,-11.2C188.451,-11.2,189.131,-11.88,189.131,-12.7C189.131,-13.5,188.451,-14.18,187.611,-14.18C186.771,-14.18,186.111,-13.5,186.111,-12.7C186.111,-11.88,186.771,-11.2,187.611,-11.2ZM186.491,0L188.731,0L188.731,-9.76L186.491,-9.76ZM194.908,0.16C197.388,0.16,198.548,-1.16,198.548,-2.8C198.548,-4.74,197.248,-5.12,195.168,-5.94C194.228,-6.3,193.628,-6.64,193.628,-7.12C193.628,-7.72,194.248,-7.96,194.688,-7.96C195.448,-7.96,196.348,-7.66,197.128,-6.92L198.248,-8.68C197.168,-9.56,196.048,-9.9,194.808,-9.9C192.808,-9.9,191.368,-8.74,191.368,-7.14C191.368,-5.22,192.748,-4.5,194.348,-3.94C195.628,-3.5,196.268,-3.26,196.268,-2.76C196.268,-2.18,195.768,-1.8,194.908,-1.8C193.708,-1.8,192.868,-2.18,192.088,-2.94L190.968,-1.26C191.988,-0.36,193.328,0.16,194.908,0.16ZM200.773,0L203.012,0L203.012,-2.58L204.592,-4.3L207.212,0L209.732,0L206.152,-5.84L209.673,-9.76L207.012,-9.76L203.053,-5.24L203.012,-5.26L203.012,-14.72L200.773,-14.72ZM222.175,0.16C224.895,0.16,226.915,-1.82,226.915,-4.84C226.915,-7.78,224.895,-9.9,222.195,-9.9C220.915,-9.9,219.855,-9.46,219.095,-8.6L219.075,-8.6L219.075,-14.72L216.835,-14.72L216.835,0L218.975,0L218.975,-1.3L219.015,-1.3C219.735,-0.36,220.775,0.16,222.175,0.16ZM221.835,-1.88C220.235,-1.88,218.975,-3.06,218.975,-4.82C218.975,-6.56,220.135,-7.88,221.815,-7.88C223.375,-7.88,224.635,-6.7,224.635,-4.82C224.635,-3.1,223.475,-1.88,221.835,-1.88ZM229.257,0L231.497,0L231.497,-4.62C231.497,-6.22,232.457,-7.44,234.157,-7.44C234.317,-7.44,234.577,-7.42,234.837,-7.4L234.837,-9.9L234.557,-9.9C233.377,-9.9,232.297,-9.32,231.537,-8.3L231.497,-8.3L231.497,-9.76L229.257,-9.76ZM240.533,0.16C241.893,0.16,242.933,-0.36,243.633,-1.3L243.673,-1.28L243.673,0L245.813,0L245.813,-9.76L243.573,-9.76L243.573,-8.58L243.533,-8.56C242.833,-9.44,241.753,-9.9,240.513,-9.9C237.833,-9.9,235.813,-7.78,235.813,-4.84C235.813,-1.82,237.833,0.16,240.533,0.16ZM240.893,-1.88C239.233,-1.88,238.093,-3.1,238.093,-4.82C238.093,-6.7,239.333,-7.88,240.893,-7.88C242.493,-7.88,243.673,-6.56,243.673,-4.82C243.673,-3.06,242.413,-1.88,240.893,-1.88ZM248.632,0L250.872,0L250.872,-2.58L252.452,-4.3L255.072,0L257.592,0L254.012,-5.84L257.532,-9.76L254.872,-9.76L250.912,-5.24L250.872,-5.26L250.872,-14.72L248.632,-14.72ZM267.708,-5C267.708,-7.84,265.848,-9.9,263.108,-9.9C260.248,-9.9,258.208,-7.88,258.208,-4.88C258.208,-1.82,260.308,0.16,263.268,0.16C265.368,0.16,266.588,-0.62,267.408,-1.68L265.848,-3.02C265.348,-2.4,264.548,-1.88,263.388,-1.88C261.868,-1.88,260.808,-2.72,260.528,-4.14L267.648,-4.14C267.668,-4.3,267.708,-4.64,267.708,-5ZM263.088,-7.88C264.368,-7.88,265.168,-7.08,265.448,-5.9L260.568,-5.9C260.888,-7.18,261.848,-7.88,263.088,-7.88ZM273.142,0.16C275.622,0.16,276.783,-1.16,276.783,-2.8C276.783,-4.74,275.483,-5.12,273.402,-5.94C272.462,-6.3,271.862,-6.64,271.862,-7.12C271.862,-7.72,272.483,-7.96,272.922,-7.96C273.682,-7.96,274.582,-7.66,275.362,-6.92L276.483,-8.68C275.402,-9.56,274.283,-9.9,273.043,-9.9C271.043,-9.9,269.603,-8.74,269.603,-7.14C269.603,-5.22,270.983,-4.5,272.582,-3.94C273.862,-3.5,274.503,-3.26,274.503,-2.76C274.503,-2.18,274.003,-1.8,273.142,-1.8C271.943,-1.8,271.103,-2.18,270.323,-2.94L269.203,-1.26C270.223,-0.36,271.562,0.16,273.142,0.16Z"  />
        </g>
    </g>
    <g id="seatbox" transform="translate(799.5,358.5)">
        <ellipse cx="8" cy="8" stroke="white" rx="8" ry="8" fill="#ffffff"/>
        <g transform="translate(-799.5,-358.5)">
          <path d="M813,360L953.5,193.5L1104,193.5" fill="none" stroke="white"  />
        </g>
        <g transform="translate(153.8,-179.2)">
          <path fill="#ffffff" stroke="none" d="M0.6,0L3.4,0L6.9,-5.2L6.9,-5.2L10.4,0L13.3,0L8.5,-7.1L13.1,-14.2L10.4,-14.2L7,-9L7,-9L3.6,-14.2L0.7,-14.2L5.3,-7.1ZM15.6,0L24.6,0L24.6,-2.2L18,-2.2L18,-14.2L15.6,-14.2ZM31.5,0L40.3,0L40.3,-2.1L35,-2.1L35,-2.2L37.9,-5.2C39.7,-7,40.2,-8.3,40.2,-9.8C40.2,-12.3,38.2,-13.9,35.9,-13.9C33.7,-13.9,32.2,-12.7,31.5,-11.3L33.1,-10.1C33.7,-11.2,34.6,-11.7,35.7,-11.7C37,-11.7,37.8,-10.8,37.8,-9.6C37.8,-8.4,37,-7.4,35.9,-6.2L31.5,-1.5ZM47.7,-8.8C46.7,-8.8,45.7,-8.5,45,-8L44.9,-8.1C45.7,-10.3,47.6,-11.5,50,-12.2L49.3,-14.2C45.2,-13.4,42.2,-9.9,42.2,-5.4C42.2,-2,44.3,0.2,47.1,0.2C49.8,0.2,52,-1.7,52,-4.3C52,-7.1,50.1,-8.8,47.7,-8.8ZM47.2,-2C45.7,-2,44.4,-3.3,44.4,-5.1L44.4,-5.3C45,-6,46,-6.7,47.1,-6.7C48.6,-6.7,49.6,-5.7,49.6,-4.4C49.6,-3.1,48.7,-2,47.2,-2ZM54.7,0L63.7,0L63.7,-2.2L57.1,-2.2L57.1,-14.2L54.7,-14.2ZM74.3,0.2C76.8,0.2,78,-1.2,78,-2.8C78,-4.7,76.7,-5.1,74.6,-5.9C73.6,-6.3,73,-6.6,73,-7.1C73,-7.7,73.7,-8,74.1,-8C74.9,-8,75.8,-7.7,76.5,-6.9L77.7,-8.7C76.6,-9.6,75.5,-9.9,74.2,-9.9C72.2,-9.9,70.8,-8.7,70.8,-7.1C70.8,-5.2,72.2,-4.5,73.8,-3.9C75,-3.5,75.7,-3.3,75.7,-2.8C75.7,-2.2,75.2,-1.8,74.3,-1.8C73.1,-1.8,72.3,-2.2,71.5,-2.9L70.4,-1.3C71.4,-0.4,72.8,0.2,74.3,0.2ZM89.1,-5C89.1,-7.8,87.3,-9.9,84.5,-9.9C81.7,-9.9,79.6,-7.9,79.6,-4.9C79.6,-1.8,81.7,0.2,84.7,0.2C86.8,0.2,88,-0.6,88.8,-1.7L87.3,-3C86.8,-2.4,86,-1.9,84.8,-1.9C83.3,-1.9,82.2,-2.7,81.9,-4.1L89.1,-4.1C89.1,-4.3,89.1,-4.6,89.1,-5ZM84.5,-7.9C85.8,-7.9,86.6,-7.1,86.9,-5.9L82,-5.9C82.3,-7.2,83.3,-7.9,84.5,-7.9ZM95.5,0.2C96.9,0.2,97.9,-0.4,98.6,-1.3L98.7,-1.3L98.7,0L100.8,0L100.8,-9.8L98.6,-9.8L98.6,-8.6L98.5,-8.6C97.8,-9.4,96.8,-9.9,95.5,-9.9C92.8,-9.9,90.8,-7.8,90.8,-4.8C90.8,-1.8,92.8,0.2,95.5,0.2ZM95.9,-1.9C94.2,-1.9,93.1,-3.1,93.1,-4.8C93.1,-6.7,94.3,-7.9,95.9,-7.9C97.5,-7.9,98.7,-6.6,98.7,-4.8C98.7,-3.1,97.4,-1.9,95.9,-1.9ZM106.5,0.2C107.8,0.2,108.4,-0.1,109,-0.4L108.4,-2.4C107.9,-2.1,107.4,-1.9,107,-1.9C106.4,-1.9,106.1,-2.3,106.1,-3.3L106.1,-7.9L108.9,-7.9L108.9,-9.8L106.1,-9.8L106.1,-13.2L103.8,-13L103.8,-9.8L102.6,-9.8L102.6,-7.9L103.8,-7.9L103.8,-3.1C103.8,-0.9,104.9,0.2,106.5,0.2ZM121.6,0.2C124.4,0.2,126.4,-1.8,126.4,-4.8C126.4,-7.8,124.4,-9.9,121.7,-9.9C120.4,-9.9,119.3,-9.5,118.6,-8.6L118.5,-8.6L118.5,-14.7L116.3,-14.7L116.3,0L118.4,0L118.4,-1.3L118.5,-1.3C119.2,-0.4,120.2,0.2,121.6,0.2ZM121.3,-1.9C119.7,-1.9,118.4,-3.1,118.4,-4.8C118.4,-6.6,119.6,-7.9,121.3,-7.9C122.8,-7.9,124.1,-6.7,124.1,-4.8C124.1,-3.1,122.9,-1.9,121.3,-1.9ZM133.3,0.2C136.3,0.2,138.4,-1.9,138.4,-4.9C138.4,-7.9,136.3,-9.9,133.3,-9.9C130.2,-9.9,128.1,-7.7,128.1,-4.9C128.1,-2,130.2,0.2,133.3,0.2ZM133.3,-1.9C131.6,-1.9,130.4,-3.2,130.4,-4.9C130.4,-6.6,131.6,-7.9,133.3,-7.9C134.9,-7.9,136.1,-6.7,136.1,-4.9C136.1,-3.1,134.8,-1.9,133.3,-1.9ZM139,0L141.5,0L143.7,-3.1L143.7,-3.1L146,0L148.5,0L145,-5L148.4,-9.8L145.8,-9.8L143.7,-6.7L143.7,-6.7L141.6,-9.8L139,-9.8L142.4,-5Z"  />
        </g>
    </g>
</svg>
