<svg width="85" height="60" viewBox="0 0 85 60" fill="none" xmlns="http://www.w3.org/2000/svg">
<mask id="mask0" mask-type="alpha" maskUnits="userSpaceOnUse" x="0" y="0" width="85" height="60">
<rect width="85" height="60" fill="#C4C4C4"/>
</mask>
<g mask="url(#mask0)">
<path d="M82.5204 3H76.4004V51.96H82.5204V3Z" fill="#1F1F1F" fill-opacity="0.2"/>
<path d="M81.5 3H59.06C58.2487 3.00086 57.4709 3.32353 56.8972 3.89721C56.3235 4.47088 56.0009 5.2487 56 6.06V50.94C56.0009 51.7513 56.3235 52.5291 56.8972 53.1028C57.4709 53.6765 58.2487 53.9991 59.06 54H81.5C82.3113 53.9991 83.0891 53.6765 83.6628 53.1028C84.2365 52.5291 84.5591 51.7513 84.56 50.94V6.06C84.5591 5.2487 84.2365 4.47088 83.6628 3.89721C83.0891 3.32353 82.3113 3.00086 81.5 3V3ZM82.52 50.94C82.52 51.2105 82.4125 51.47 82.2212 51.6612C82.03 51.8525 81.7705 51.96 81.5 51.96H59.06C58.7895 51.96 58.53 51.8525 58.3388 51.6612C58.1475 51.47 58.04 51.2105 58.04 50.94V43.8H82.52V50.94ZM82.52 41.76H58.04V6.06C58.04 5.78948 58.1475 5.53004 58.3388 5.33875C58.53 5.14746 58.7895 5.04 59.06 5.04H81.5C81.7705 5.04 82.03 5.14746 82.2212 5.33875C82.4125 5.53004 82.52 5.78948 82.52 6.06V41.76Z" fill="#1F1F1F"/>
<path d="M70.2802 49.9198C71.4069 49.9198 72.3202 49.0065 72.3202 47.8798C72.3202 46.7532 71.4069 45.8398 70.2802 45.8398C69.1536 45.8398 68.2402 46.7532 68.2402 47.8798C68.2402 49.0065 69.1536 49.9198 70.2802 49.9198Z" fill="#1F1F1F"/>
<path d="M73.3392 9.12012H67.2192C66.9487 9.12012 66.6893 9.22758 66.498 9.41887C66.3067 9.61016 66.1992 9.8696 66.1992 10.1401C66.1992 10.4106 66.3067 10.6701 66.498 10.8614C66.6893 11.0527 66.9487 11.1601 67.2192 11.1601H73.3392C73.6097 11.1601 73.8692 11.0527 74.0605 10.8614C74.2518 10.6701 74.3592 10.4106 74.3592 10.1401C74.3592 9.8696 74.2518 9.61016 74.0605 9.41887C73.8692 9.22758 73.6097 9.12012 73.3392 9.12012Z" fill="#1F1F1F"/>
<path d="M48.9601 19.2802H18.3601V13.1602H47.9401C48.2106 13.1602 48.4701 13.2676 48.6614 13.4589C48.8526 13.6502 48.9601 13.9096 48.9601 14.1802V19.2802Z" fill="#1F1F1F" fill-opacity="0.2"/>
<path d="M47.94 11.1201H3.06C2.2487 11.121 1.47088 11.4437 0.897207 12.0173C0.323533 12.591 0.000864002 13.3688 0 14.1801L0 50.9001C0.000864002 51.7114 0.323533 52.4892 0.897207 53.0629C1.47088 53.6366 2.2487 53.9593 3.06 53.9601H47.94C48.7513 53.9593 49.5291 53.6366 50.1028 53.0629C50.6765 52.4892 50.9991 51.7114 51 50.9001V14.1801C50.9991 13.3688 50.6765 12.591 50.1028 12.0173C49.5291 11.4437 48.7513 11.121 47.94 11.1201ZM2.04 14.1801C2.04 13.9096 2.14746 13.6502 2.33875 13.4589C2.53004 13.2676 2.78948 13.1601 3.06 13.1601H16.32V19.2801H2.04V14.1801ZM48.96 50.9001C48.96 51.1706 48.8525 51.4301 48.6612 51.6214C48.47 51.8127 48.2105 51.9201 47.94 51.9201H3.06C2.78948 51.9201 2.53004 51.8127 2.33875 51.6214C2.14746 51.4301 2.04 51.1706 2.04 50.9001V21.3201H48.96V50.9001ZM48.96 19.2801H18.36V13.1601H47.94C48.2105 13.1601 48.47 13.2676 48.6612 13.4589C48.8525 13.6502 48.96 13.9096 48.96 14.1801V19.2801Z" fill="#1F1F1F"/>
<path d="M6.12008 15.2002H4.08008V17.2402H6.12008V15.2002Z" fill="#1F1F1F"/>
<path d="M10.1999 15.2002H8.15991V17.2402H10.1999V15.2002Z" fill="#1F1F1F"/>
<path d="M14.28 15.2002H12.24V17.2402H14.28V15.2002Z" fill="#1F1F1F"/>
</g>
</svg>
