<svg width="85" height="60" viewBox="0 0 85 60" fill="none" xmlns="http://www.w3.org/2000/svg">
<mask id="mask0" mask-type="alpha" maskUnits="userSpaceOnUse" x="0" y="0" width="85" height="60">
<rect width="85" height="60" fill="#C4C4C4"/>
</mask>
<g mask="url(#mask0)">
<path d="M54.5204 5H48.4004V53.96H54.5204V5Z" fill="#1F1F1F" fill-opacity="0.2"/>
<path d="M53.5 5H31.06C30.2487 5.00086 29.4709 5.32353 28.8972 5.89721C28.3235 6.47088 28.0009 7.2487 28 8.06V52.94C28.0009 53.7513 28.3235 54.5291 28.8972 55.1028C29.4709 55.6765 30.2487 55.9991 31.06 56H53.5C54.3113 55.9991 55.0891 55.6765 55.6628 55.1028C56.2365 54.5291 56.5591 53.7513 56.56 52.94V8.06C56.5591 7.2487 56.2365 6.47088 55.6628 5.89721C55.0891 5.32353 54.3113 5.00086 53.5 5V5ZM54.52 52.94C54.52 53.2105 54.4125 53.47 54.2212 53.6612C54.03 53.8525 53.7705 53.96 53.5 53.96H31.06C30.7895 53.96 30.53 53.8525 30.3388 53.6612C30.1475 53.47 30.04 53.2105 30.04 52.94V45.8H54.52V52.94ZM54.52 43.76H30.04V8.06C30.04 7.78948 30.1475 7.53004 30.3388 7.33875C30.53 7.14746 30.7895 7.04 31.06 7.04H53.5C53.7705 7.04 54.03 7.14746 54.2212 7.33875C54.4125 7.53004 54.52 7.78948 54.52 8.06V43.76Z" fill="#1F1F1F"/>
<path d="M42.2802 51.9198C43.4069 51.9198 44.3202 51.0065 44.3202 49.8798C44.3202 48.7532 43.4069 47.8398 42.2802 47.8398C41.1536 47.8398 40.2402 48.7532 40.2402 49.8798C40.2402 51.0065 41.1536 51.9198 42.2802 51.9198Z" fill="#1F1F1F"/>
<path d="M45.3392 11.1201H39.2192C38.9487 11.1201 38.6893 11.2276 38.498 11.4189C38.3067 11.6102 38.1992 11.8696 38.1992 12.1401C38.1992 12.4106 38.3067 12.6701 38.498 12.8614C38.6893 13.0527 38.9487 13.1601 39.2192 13.1601H45.3392C45.6097 13.1601 45.8692 13.0527 46.0605 12.8614C46.2518 12.6701 46.3592 12.4106 46.3592 12.1401C46.3592 11.8696 46.2518 11.6102 46.0605 11.4189C45.8692 11.2276 45.6097 11.1201 45.3392 11.1201Z" fill="#1F1F1F"/>
</g>
</svg>
