<svg width="85" height="60" viewBox="0 0 85 60" fill="none" xmlns="http://www.w3.org/2000/svg">
<mask id="mask0" mask-type="alpha" maskUnits="userSpaceOnUse" x="0" y="0" width="85" height="60">
<rect width="85" height="60" fill="#C4C4C4"/>
</mask>
<g mask="url(#mask0)">
<g clip-path="url(#clip0)">
<path d="M39.3196 37.7102H29.7796L26.5996 33.4757C30.6276 32.2053 34.8676 31.5701 39.3196 31.3584V37.7102Z" fill="#1F1F1F" fill-opacity="0.2"/>
<path d="M52.04 44.062H32.96V46.1793H52.04V44.062Z" fill="#1F1F1F" fill-opacity="0.2"/>
<path d="M66.8799 44.062H58.3999V46.1793H66.8799V44.062Z" fill="#1F1F1F" fill-opacity="0.2"/>
<path d="M26.8115 44.062H18.3315V46.1793H26.8115V44.062Z" fill="#1F1F1F" fill-opacity="0.2"/>
<path d="M65.6084 39.1923L58.4004 37.7103C55.8564 37.7103 48.6484 29.6647 41.4404 29.2412H39.3204C31.4764 29.8764 23.8444 31.7819 16.6364 34.9578C16.0004 35.3813 15.7884 36.0165 16.0004 36.4399C16.0004 36.4399 16.0004 36.4399 16.0004 36.6516L17.4844 38.7689L16.0004 45.1207C15.7884 45.7559 16.0004 46.6028 16.6364 47.238L17.2724 47.8731C17.6964 48.2966 18.1204 48.5083 18.7564 48.5083H24.4804C25.1164 51.4725 27.8724 53.1663 30.6284 52.7428C32.7484 52.3194 34.2324 50.6256 34.8684 48.5083H49.9204C50.5564 51.4725 53.3124 53.1663 56.0684 52.7428C58.1884 52.3194 59.6724 50.6256 60.3084 48.5083H66.8804C68.1524 48.5083 69.0004 47.6614 69.0004 46.391V43.4269C69.0004 41.3096 67.5164 39.6158 65.6084 39.1923ZM52.4644 36.8634C52.8884 37.2868 53.3124 37.4985 53.7364 37.7103H41.4404V31.3585C45.2564 31.5702 49.4964 34.5344 52.4644 36.8634ZM39.3204 37.7103H29.7804L26.6004 33.4757C30.6284 32.2054 34.8684 31.5702 39.3204 31.3585V37.7103ZM29.7804 50.4138C28.0844 50.4138 26.6004 48.9318 26.6004 47.238C26.6004 45.5441 28.0844 44.0621 29.7804 44.0621C31.4764 44.0621 32.9604 45.5441 32.9604 47.238C32.9604 48.9318 31.4764 50.4138 29.7804 50.4138ZM55.2204 50.4138C53.5244 50.4138 52.0404 48.9318 52.0404 47.238C52.0404 45.5441 53.5244 44.0621 55.2204 44.0621C56.9164 44.0621 58.4004 45.5441 58.4004 47.238C58.4004 48.9318 56.9164 50.4138 55.2204 50.4138ZM66.8804 46.1793H60.3084C59.6724 43.2152 56.9164 41.5213 54.1604 41.9448C52.0404 42.3682 50.3444 44.0621 49.9204 46.1793H34.8684C34.2324 43.2152 31.4764 41.5213 28.7204 41.9448C26.6004 42.3682 24.9044 44.0621 24.4804 46.1793H18.7564L18.1204 45.5441L19.6044 39.4041L19.8164 38.3454L19.3924 37.4985L18.5444 36.4399C19.8164 35.8047 21.7244 35.1695 24.4804 34.3226L28.7204 39.8275H58.1884L65.1844 41.3096C66.2444 41.5213 66.8804 42.3682 66.8804 43.4269V46.1793Z" fill="#1F1F1F"/>
<path d="M56.0675 44.2734C56.0675 44.4852 56.2795 44.9086 56.2795 45.1203C56.2795 46.8142 54.7955 48.2962 53.0995 48.2962C52.8875 48.2962 52.4635 48.2962 52.2515 48.0845C52.6755 49.7783 54.5835 50.6252 56.2795 50.2018C57.9755 49.7783 58.8235 47.8728 58.3995 46.179C57.9755 45.3321 57.1275 44.4852 56.0675 44.2734Z" fill="#1F1F1F" fill-opacity="0.2"/>
<path d="M30.6275 44.2734C30.8395 44.4852 30.8395 44.6969 30.8395 45.1203C30.8395 46.8142 29.3555 48.2962 27.6595 48.2962C27.4475 48.2962 27.0235 48.2962 26.8115 48.0845C27.2355 49.7783 29.1435 50.6252 30.8395 50.2018C32.5355 49.7783 33.3835 47.8728 32.9595 46.179C32.5355 45.3321 31.6875 44.4852 30.6275 44.2734Z" fill="#1F1F1F" fill-opacity="0.2"/>
<path d="M42.4987 18.8667C39.5307 18.8667 36.7747 20.3488 35.0787 22.6778C34.8667 23.1012 34.8667 23.5247 35.2907 23.9481C35.7147 24.1599 36.1387 24.1599 36.5627 23.7364C39.1067 20.3488 43.7707 19.7136 47.1627 22.2543C47.7987 22.6778 48.2227 23.313 48.6467 23.7364C48.8587 24.1599 49.4947 24.1599 49.9187 23.9481C50.3427 23.7364 50.3427 23.1012 50.1307 22.6778C48.2227 20.3488 45.4667 18.8667 42.4987 18.8667Z" fill="#1F1F1F"/>
<path d="M53.3113 18.6548C53.5233 19.0782 54.1593 19.0782 54.5833 18.6548C55.0073 18.4431 55.0073 17.8079 54.5833 17.3844C48.6474 10.8209 38.4713 10.1857 31.6873 16.1141C31.2633 16.5375 30.8393 16.961 30.4153 17.5962C30.2033 18.0196 30.2033 18.4431 30.4153 18.8665C30.8393 19.0782 31.2633 19.0782 31.6873 18.8665C36.9873 12.9382 46.1033 12.5147 52.0393 17.5962C52.4633 17.8079 52.8873 18.2313 53.3113 18.6548Z" fill="#1F1F1F"/>
<path d="M27.2355 13.5731C35.2915 5.10407 48.8595 4.89234 57.1275 12.9379C57.3395 13.1497 57.5515 13.3614 57.7635 13.5731C58.1875 13.9966 58.6115 13.9966 59.0355 13.5731C59.4595 13.1497 59.4595 12.7262 59.0355 12.3028C50.3435 3.19853 35.7155 2.9868 26.5995 11.6676C26.3875 11.8793 26.1755 12.091 25.9635 12.3028C25.5395 12.7262 25.7515 13.1497 25.9635 13.5731C26.3875 13.9966 26.8115 13.9966 27.2355 13.5731Z" fill="#1F1F1F"/>
</g>
</g>
<defs>
<clipPath id="clip0">
<rect width="53" height="65" fill="white" transform="translate(16 -4)"/>
</clipPath>
</defs>
</svg>
