<svg width="128" height="128" viewBox="0 0 128 128" fill="none" xmlns="http://www.w3.org/2000/svg">
<path d="M43.4922 51.6831C45.7244 51.6831 46.8536 52.9482 46.2584 54.78L43.1068 64.466C42.5123 66.2972 40.5603 67.5629 38.3274 67.5629H31.9239C29.6924 67.5629 28.5639 66.2972 29.1598 64.466L32.31 54.78C32.9052 52.9482 34.8579 51.6831 37.0894 51.6831H43.4922ZM42.2343 55.3915C42.3907 54.9123 42.156 54.6499 41.5708 54.6499H37.0801C36.4956 54.6499 36.0917 54.9123 35.9352 55.3915L33.1832 63.8559C33.0261 64.3359 33.26 64.5983 33.8446 64.5983H38.3345C38.9205 64.5983 39.3244 64.3359 39.4801 63.8559L42.2343 55.3915Z" fill="#141414"/>
<path d="M47.7883 67.4777H43.8296L55.1021 51.7706H59.5658L60.6211 67.4777H56.503L56.4035 63.942H50.2132L47.7883 67.4777ZM52.2406 60.9767H56.3331L56.1866 55.2181L52.2406 60.9767Z" fill="#141414"/>
<path d="M75.6848 55.3916C75.8405 54.9123 75.6065 54.6499 75.022 54.6499H71.1962C70.6117 54.6499 70.2078 54.9123 70.0506 55.3916L69.5685 56.875C69.4128 57.355 69.6816 57.5079 70.232 57.6167L74.8897 58.4906C76.8403 58.8604 78.2618 59.8865 77.6944 61.6309L76.7713 64.4675C76.1754 66.2986 74.2227 67.5644 71.9912 67.5644H66.0392C63.8078 67.5644 62.6785 66.2986 63.2745 64.4675L63.9265 62.46H67.6456L67.192 63.8559C67.0355 64.3359 67.268 64.5983 67.8547 64.5983H71.9991C72.5829 64.5983 72.9875 64.3359 73.1433 63.8559L73.6823 62.1983C73.838 61.7191 73.5706 61.5662 73.0202 61.4574L68.3625 60.5834C66.4105 60.2136 64.9896 59.1882 65.5585 57.4431L66.4232 54.7815C67.0199 52.9496 68.9733 51.6846 71.2033 51.6846H76.8361C79.0697 51.6846 80.1982 52.9496 79.6023 54.7815L79.0064 56.6133H75.2873L75.6848 55.3916Z" fill="#141414"/>
<path d="M90.7107 54.6933L86.5528 67.4777H82.7278L86.8849 54.6933H81.8887L82.8401 51.7706H96.6577L95.707 54.6933H90.7107Z" fill="#141414"/>
<path d="M111.935 51.7706L110.971 54.7374H102.281L101.231 57.9658H108.273L107.306 60.9333H100.265L99.1028 64.5109H107.791L106.826 67.4777H94.312L99.4213 51.7706H111.935Z" fill="#141414"/>
<path d="M120.191 67.4777L119.003 61.6529H115.92L114.027 67.4777H110.2L115.31 51.7706H125.062C127.294 51.7706 128.421 53.0357 127.826 54.8682L126.626 58.5546C126.143 60.0387 124.774 61.1509 123.057 61.5214L124.309 67.4777H120.191ZM123.801 55.4791C123.956 54.9991 123.724 54.7374 123.138 54.7374H118.17L116.871 58.7296H121.84C122.424 58.7296 122.829 58.4672 122.984 57.9872L123.801 55.4791Z" fill="#141414"/>
<path d="M84.7412 73.6636C84.7838 73.4858 84.6779 73.387 84.4404 73.387H82.7515C82.514 73.387 82.3596 73.4858 82.3163 73.6636L81.5412 76.811C81.4964 76.9888 81.6016 77.0876 81.8405 77.0876H83.528C83.7669 77.0876 83.9219 76.9888 83.9653 76.811L84.1403 76.097H85.699L85.4665 77.0371C85.3001 77.7191 84.5556 78.1898 83.6453 78.1898H81.1778C80.2683 78.1898 79.7584 77.7205 79.9248 77.0371L80.813 73.4368C80.9808 72.7548 81.7239 72.2841 82.6327 72.2841H85.101C86.0091 72.2841 86.5218 72.7548 86.3539 73.4368L86.1214 74.3754H84.5648L84.7412 73.6636Z" fill="#141414"/>
<path d="M89.3818 78.1571L89.8817 76.139L88.4189 72.3168H90.1277L90.9839 74.8149L93.0718 72.3168H94.7813L91.4383 76.139L90.9413 78.1571H89.3818Z" fill="#141414"/>
<path d="M100.189 73.6636C100.232 73.4858 100.126 73.387 99.8868 73.387H98.1994C97.9612 73.387 97.8075 73.4858 97.7649 73.6636L96.9891 76.811C96.9443 76.9888 97.0509 77.0876 97.2899 77.0876H98.9773C99.2155 77.0876 99.3692 76.9888 99.4118 76.811L99.5875 76.097H101.146L100.914 77.0371C100.747 77.7191 100.004 78.1898 99.0932 78.1898H96.6264C95.7176 78.1898 95.2056 77.7205 95.3734 77.0371L96.2609 73.4368C96.4287 72.7548 97.1725 72.2841 98.0813 72.2841H100.55C101.458 72.2841 101.97 72.7548 101.803 73.4368L101.571 74.3754H100.013L100.189 73.6636Z" fill="#141414"/>
<path d="M106.215 72.3168L105.048 77.0542H108.316L108.044 78.1571H103.219L104.657 72.3168H106.215Z" fill="#141414"/>
<path d="M116.952 72.3168L116.68 73.4211H113.142L112.846 74.6208H115.713L115.442 75.7237H112.575L112.246 77.0542H115.785L115.513 78.1571H110.416L111.856 72.3168H116.952Z" fill="#141414"/>
<path d="M122.737 73.6636C122.782 73.4858 122.676 73.387 122.438 73.387H120.879C120.642 73.387 120.487 73.4858 120.445 73.6636L120.309 74.2133C120.265 74.3925 120.381 74.4494 120.609 74.4913L122.541 74.8149C123.354 74.9521 123.973 75.334 123.813 75.9832L123.553 77.0371C123.385 77.7191 122.641 78.1898 121.732 78.1898H119.308C118.4 78.1898 117.887 77.7205 118.055 77.0371L118.239 76.2911H119.754L119.626 76.8103C119.581 76.988 119.687 77.0869 119.926 77.0869H121.614C121.853 77.0869 122.006 76.988 122.051 76.8103L122.202 76.1937C122.246 76.0159 122.129 75.9591 121.902 75.9171L119.967 75.5935C119.158 75.4549 118.538 75.0751 118.698 74.4252L118.943 73.4346C119.109 72.7541 119.854 72.2833 120.765 72.2833H123.057C123.967 72.2833 124.478 72.7541 124.31 73.4346L124.143 74.1151H122.628L122.737 73.6636Z" fill="#141414"/>
<path d="M26.6155 51.6775H20.955V51.6768H0.0170898L2.42065 53.6821H16.3406C16.0989 54.0156 15.9047 54.3811 15.7774 54.7744L15.5918 55.3454H3.12536L5.52891 57.3507H14.9383L14.4043 58.9948H6.80607L9.20962 61.0001H13.7358L13.7828 60.9048L12.6272 64.4597C12.032 66.2915 13.1606 67.5566 15.3927 67.5566H21.4507C23.6829 67.5566 25.6356 66.2915 26.2315 64.4597L27.0542 61.9288H23.227L22.6034 63.8481C22.4477 64.3281 22.0438 64.5905 21.4599 64.5905H17.3134C16.7296 64.5905 16.4964 64.3281 16.6528 63.8481L19.4048 55.3845C19.5627 54.9052 19.9659 54.6414 20.5497 54.6414H24.6955C25.28 54.6414 25.514 54.9052 25.3575 55.3845L24.7325 57.3038H28.559L29.3824 54.7736C29.9776 52.9411 28.847 51.6775 26.6155 51.6775Z" fill="#141414"/>
</svg>
