<svg width="128" height="128" viewBox="0 0 128 128" fill="none" xmlns="http://www.w3.org/2000/svg">
<path d="M47.5357 75.7732C47.5357 77.3047 46.2986 78.5418 44.7671 78.5418H25.2691C23.7375 78.5418 22.5005 77.3047 22.5005 75.7732V52.0928C22.5005 50.5613 23.7375 49.3242 25.2691 49.3242H44.7376C46.2986 49.3242 47.5357 50.5613 47.5357 52.0928V75.7732Z" fill="#004F83"/>
<path d="M76.7533 75.7732C76.7533 77.3047 75.5163 78.5418 73.9847 78.5418H54.5162C52.9846 78.5418 51.7476 77.3047 51.7476 75.7732V52.0928C51.7476 50.5613 52.9846 49.3242 54.5162 49.3242H73.9847C75.5163 49.3242 76.7533 50.5613 76.7533 52.0928V75.7732Z" fill="#004F83"/>
<path d="M106 75.7732C106 77.3047 104.763 78.5418 103.232 78.5418H83.7632C82.2317 78.5418 80.9946 77.3047 80.9946 75.7732V52.0928C80.9946 50.5613 82.2317 49.3242 83.7632 49.3242H103.202C104.734 49.3242 105.971 50.5613 105.971 52.0928V75.7732H106Z" fill="#004F83"/>
<path d="M101.258 74.0062C101.258 74.1829 101.082 74.3596 100.905 74.3596H98.1953C98.0186 74.3596 97.8419 74.1829 97.8419 74.0062C97.8419 73.8295 97.9597 66.2895 97.9597 66.2895C97.6063 66.9963 96.811 68.4101 94.926 71.8856C94.7493 72.2095 94.661 72.2685 94.2192 72.2685H92.776C92.3342 72.2685 92.2164 72.1801 92.0691 71.8856C90.1252 68.3512 89.595 67.3792 89.0354 66.3189C89.0354 66.3189 89.1532 73.8295 89.1827 74.0062C89.1827 74.1829 89.0354 74.3596 88.8292 74.3596H86.1196C85.9428 74.3596 85.7661 74.1829 85.7661 74.0062V63.2558C85.7661 63.0791 85.9428 62.9023 86.1196 62.9023H89.5656C90.0074 62.9023 90.0663 62.9613 90.2724 63.2852C90.4197 63.5503 93.5123 69.2642 93.5417 69.3231C93.6007 69.2348 96.6343 63.6387 96.811 63.2852C96.9878 62.9318 97.0761 62.9023 97.5179 62.9023H100.964C101.17 62.9023 101.317 63.0791 101.317 63.2558L101.258 74.0062Z" fill="white"/>
<path d="M64.6184 74.3596H57.2846C57.1079 74.3596 56.9312 74.1829 56.9312 74.0062C56.9312 73.8 56.9312 63.3736 56.9312 63.2558C56.9312 63.0791 57.0784 62.9023 57.2846 62.9023H64.6184C70.6269 62.9023 72.0112 65.0819 72.0112 68.6163C72.0112 72.1801 70.6269 74.3596 64.6184 74.3596ZM64.3534 64.9641H61.2608V72.3274H64.3534C67.0041 72.3274 67.6521 71.4438 67.6521 68.6457C67.6816 65.8182 67.0041 64.9641 64.3534 64.9641Z" fill="white"/>
<path d="M41.4388 65.1113H33.3687V68.0566H39.6422C39.8484 68.0566 39.9956 68.2334 39.9956 68.4101V69.9122C39.9956 70.0889 39.8189 70.2656 39.6422 70.2656H33.3687V74.0062C33.3687 74.2124 33.192 74.3596 33.0152 74.3596H29.3925C29.2158 74.3596 29.0391 74.2124 29.0391 74.0062V63.2558C29.0391 63.0791 29.2158 62.9023 29.3925 62.9023H41.4388C41.645 62.9023 41.7923 63.0496 41.7923 63.2558V64.7579C41.8217 64.9641 41.645 65.1113 41.4388 65.1113Z" fill="white"/>
</svg>
