<svg width="128" height="128" viewBox="0 0 128 128" fill="none" xmlns="http://www.w3.org/2000/svg">
<path d="M19.7982 62.0115C19.7226 62.0115 19.659 62.0135 19.6233 62.0175C19.5815 62.0935 19.5199 62.1954 19.4284 62.3375C20.852 62.3375 22.1444 62.4554 23.574 62.7134L23.1704 63.1053C21.88 62.8754 20.8083 62.7834 19.4423 62.7834C19.2435 62.7834 19.2017 62.7834 19.154 62.7854C19.1063 62.8574 18.9989 62.9973 18.8916 63.1273C19.0128 63.1193 19.2475 63.1154 19.5715 63.1154C20.695 63.1154 21.7448 63.1993 22.8841 63.3833L22.4804 63.7773C21.6135 63.6413 20.5538 63.5633 19.6033 63.5633C19.2653 63.5633 18.8816 63.5753 18.5376 63.5953C18.4601 63.6853 18.2573 63.9052 18.1957 63.9732C18.6509 63.9252 19.152 63.9032 19.7485 63.9032C20.5975 63.9032 21.4088 63.9592 22.1762 64.0732L21.7726 64.4632C21.2258 64.3952 20.5617 64.3552 19.9752 64.3552C18.4621 64.3552 17.2691 64.6851 16.0363 65.443C17.2114 66.7109 19.1361 67.5127 21.0011 67.5127H21.1761L20.524 68.1468C17.8338 67.6388 15.0024 66.4489 12.6105 64.8191C10.31 63.2573 9.50477 62.7954 7.70933 61.9975L7.69741 61.5335L8.91226 62.0575L9.32583 61.7275L13.2925 63.5553L13.034 63.7632L10.998 62.8734L10.7972 63.0313L11.855 63.6253C12.7477 64.1252 13.4277 64.3492 14.056 64.3492C15.4299 64.3492 16.6627 63.3693 17.458 61.6476C18.0565 61.5695 18.6947 61.5335 19.4622 61.5335C21.0369 61.5335 22.5659 61.6855 24.2977 62.0115L23.8762 62.4214C22.7986 62.1954 20.9673 62.0115 19.7982 62.0115ZM15.9429 73.3999C10.7826 73.3999 6.59662 69.1899 6.59662 64C6.59662 58.81 10.7826 54.6 15.9429 54.6C21.1032 54.6 25.2891 58.81 25.2891 64C25.2891 69.1899 21.1032 73.3999 15.9429 73.3999ZM15.9429 54C10.4445 54 6 58.47 6 64C6 69.53 10.4445 74 15.9429 74C21.4413 74 25.8858 69.53 25.8858 64C25.8858 58.47 21.4413 54 15.9429 54ZM42.2109 67.981H47.9115V70.6667H39.1429V57.3333H42.2109V67.981ZM54.8052 61.0667H57.6649V70.6667H54.9757V69.5619C54.5779 70.3048 53.7636 70.9523 52.2674 70.9523C49.8244 70.9523 48.5555 69.8476 48.5555 66.6857V61.0667H51.4152V66.5523C51.4152 67.8286 51.9645 68.3999 53.1197 68.3999C54.1614 68.3999 54.8052 67.8286 54.8052 66.5523V61.0667ZM59.8619 60.7048C59.8619 58.381 61.3203 57.1428 63.6118 57.1428C64.3505 57.1428 64.8239 57.2571 64.8239 57.2571V59.5809C64.8239 59.5809 64.4262 59.5429 64.0852 59.5429C63.1951 59.5429 62.7216 59.8477 62.7216 60.6857V61.0667H64.8239V63.4095H62.7216V70.6667H59.8619V63.4095H58.4226V61.0667H59.8619V60.7048ZM69.8614 61.0667H72.0393V63.4095H69.8614V67.1428C69.8614 68.1715 70.3917 68.4381 71.225 68.4381C71.5658 68.4381 72.0393 68.381 72.0393 68.381V70.6857C72.0393 70.6857 71.3766 70.838 70.6758 70.838C68.3843 70.838 67.0017 69.7905 67.0017 67.4667V63.4095H65.5623V61.0667H67.0017V58.2667H69.8614V61.0667ZM78.3709 60.781C80.7951 60.781 82.064 61.8857 82.064 65.0476V70.6667H79.2042V65.1809C79.2042 63.9048 78.655 63.3334 77.4619 63.3334C76.3823 63.3334 75.7385 63.9048 75.7385 65.1809V70.6667H72.8787V57.3524H75.7573V62C76.2498 61.2952 77.0263 60.781 78.3709 60.781ZM89.3553 66.9333C89.3553 67.981 88.3705 68.762 86.8555 68.762C86.1167 68.762 85.6812 68.4191 85.6812 67.7714C85.6812 67.2762 85.9842 66.8572 86.9501 66.7239L88.5979 66.4952C88.8819 66.4571 89.1849 66.4 89.3553 66.3429V66.9333ZM87.7646 60.781C84.9427 60.781 83.5791 61.8668 83.4654 63.9048H86.2494C86.2873 63.3714 86.5903 62.9714 87.7646 62.9714C88.8062 62.9714 89.2986 63.3144 89.2986 63.8285C89.2986 64.2858 89.0144 64.4572 88.3138 64.5333L86.4957 64.7238C84.0336 64.9904 82.9162 66.019 82.9162 67.8858C82.9162 69.6191 83.9768 70.9523 86.2304 70.9523C87.7646 70.9523 88.6736 70.4571 89.4691 69.4666V70.6667H92.0826V64.3619C92.0826 61.7143 90.5486 60.781 87.7646 60.781ZM98.6952 60.781C101.176 60.781 102.445 61.8857 102.445 65.0476V70.6667H99.5853V65.1809C99.5853 63.9048 99.0361 63.3334 97.843 63.3334C96.7634 63.3334 96.1196 63.9048 96.1196 65.1809V70.6667H93.2599V61.0667H95.9492V62.1715C96.3469 61.4286 97.1612 60.781 98.6952 60.781ZM108.478 64.6476C110.902 64.9715 112.114 65.7333 112.114 67.7334C112.114 69.7524 110.694 70.9524 107.682 70.9524C104.406 70.9524 103.251 69.6382 103.194 67.7142H106.016C106.092 68.4191 106.584 68.762 107.682 68.762C108.8 68.762 109.254 68.4952 109.254 67.962C109.254 67.4667 108.876 67.2382 107.891 67.1048L106.887 66.9714C104.785 66.6857 103.573 65.8667 103.573 63.9619C103.573 62.1334 104.917 60.781 107.739 60.781C110.353 60.781 111.754 61.8286 111.887 63.9048H109.103C109.008 63.3525 108.705 63.0096 107.739 63.0096C106.792 63.0096 106.432 63.3334 106.432 63.7525C106.432 64.1714 106.66 64.4 107.474 64.5144L108.478 64.6476ZM119.273 66.9335C119.273 67.981 118.288 68.762 116.773 68.762C116.034 68.762 115.599 68.4191 115.599 67.7714C115.599 67.2762 115.902 66.8572 116.868 66.7239L118.515 66.4952C118.799 66.4573 119.102 66.4 119.273 66.3429V66.9335ZM117.682 60.781C114.86 60.781 113.497 61.8668 113.383 63.9048H116.167C116.205 63.3714 116.508 62.9716 117.682 62.9716C118.724 62.9716 119.216 63.3144 119.216 63.8287C119.216 64.2858 118.932 64.4572 118.231 64.5333L116.413 64.7238C113.951 64.9905 112.834 66.0191 112.834 67.8858C112.834 69.6191 113.894 70.9523 116.148 70.9523C117.682 70.9523 118.591 70.4571 119.386 69.4666V70.6667H122V64.3619C122 61.7144 120.466 60.781 117.682 60.781Z" fill="#0A1D3D"/>
</svg>
