<svg width="128" height="128" viewBox="0 0 128 128" fill="none" xmlns="http://www.w3.org/2000/svg">
<path d="M46.0162 65.972V78.382C46.0162 79.8032 44.8443 80.966 43.4125 80.966H43.314C41.7192 80.966 40.6135 79.8678 40.6135 78.382V66.9733C40.6135 64.1292 39.4756 62.2218 36.2197 62.2218C32.6089 62.2218 31.2094 64.1598 31.2094 66.941V78.4143C31.2094 79.8355 30.0375 80.9983 28.6057 80.9983H28.5072C26.9124 80.9983 25.8068 79.9018 25.8068 78.4143V66.9733C25.8068 64.1292 24.6688 62.2218 21.413 62.2218C17.6714 62.2218 16.4027 64.4199 16.4027 67.3286V78.382C16.4349 79.8032 15.2953 80.966 13.8635 80.966H13.7005C12.2687 81.034 11.0645 79.9341 11 78.5452V60.3161C11.0142 59.5996 11.3086 58.9174 11.8199 58.4158C12.3311 57.9142 13.0185 57.6333 13.7344 57.6335C15.229 57.6335 16.4349 58.8286 16.4349 60.3161C17.3775 58.8609 19.4921 57.3411 22.8447 57.3411C26.9464 57.3411 28.9964 58.6348 30.2328 60.5745C31.8276 58.441 33.9744 57.3411 37.3916 57.3411C44.1615 57.3411 46.0162 61.6727 46.0162 65.9703V65.972Z" fill="#313233"/>
<path d="M55.648 60.1546V71.6602C55.648 73.9552 56.4292 76.1193 60.1386 76.1193C63.7834 76.1193 64.5969 73.9212 64.5969 71.6602V60.1546C64.5969 58.7963 65.7043 57.472 67.0715 57.3751C68.5355 57.2459 69.8688 58.3118 69.9996 59.7993V71.6602C69.9996 76.5392 68.1449 81 60.1709 81C52.134 81 50.2793 76.5392 50.2793 71.6602V60.0254C50.2793 58.5379 51.4835 57.3428 52.9458 57.3428H53.2074C54.5423 57.472 55.648 58.7963 55.648 60.1546V60.1546ZM53.3042 50.7485H54.9007C55.9418 50.7485 56.7859 49.9087 56.7859 48.8751C56.7859 47.8398 55.9418 47 54.9007 47H53.3042C52.263 47 51.385 47.8398 51.385 48.8751C51.385 49.9087 52.2308 50.7485 53.3042 50.7485ZM65.3459 50.7485H66.9407C67.9818 50.7485 68.8277 49.9087 68.8277 48.8751C68.8277 47.8398 67.9818 47 66.9407 47H65.3459C64.3048 47 63.459 47.8398 63.459 48.8751C63.459 49.9087 64.3048 50.7485 65.3459 50.7485V50.7485Z" fill="#FCD21C"/>
<path d="M81.0322 79.3203L73.0259 61.3514C72.8968 61.0284 72.8306 60.6714 72.8306 60.3161C72.8306 58.8286 74.0025 57.6335 75.4988 57.6335H75.5327C76.6384 57.6335 77.6473 58.2795 78.0379 59.3148L83.5374 73.1137L89.0368 59.3148C89.2285 58.8086 89.5729 58.3748 90.0221 58.0735C90.4713 57.7722 91.0031 57.6184 91.5437 57.6335C93.0383 57.6335 94.2442 58.8286 94.2442 60.2838V60.3161C94.2442 60.6731 94.1796 61.0267 94.0488 61.3497L86.0425 79.3186C85.7516 79.9781 85.2135 80.4968 84.5441 80.763C83.8747 81.0291 83.1277 81.0214 82.464 80.7415C82.1419 80.6135 81.849 80.4216 81.603 80.1774C81.3569 79.9332 81.1628 79.6416 81.0322 79.3203V79.3203ZM104.786 79.3203L96.7816 61.3514C96.6525 61.0284 96.5863 60.6714 96.5863 60.3161C96.5863 58.8286 97.7582 57.6335 99.2562 57.6335H99.2884C100.394 57.6335 101.403 58.2795 101.794 59.3148L107.293 73.1137L112.793 59.3148C112.984 58.8086 113.329 58.3748 113.778 58.0735C114.227 57.7722 114.759 57.6184 115.299 57.6335C116.796 57.6335 118 58.8286 118 60.2838V60.3161C118 60.6731 117.935 61.0267 117.805 61.3497L109.8 79.3186C109.514 79.975 108.982 80.4924 108.318 80.7587C107.654 81.025 106.911 81.0188 106.252 80.7415C105.923 80.6193 105.623 80.4298 105.371 80.1851C105.118 79.9404 104.92 79.6459 104.788 79.3203H104.786Z" fill="#313233"/>
</svg>
