<svg width="128" height="128" viewBox="0 0 128 128" fill="none" xmlns="http://www.w3.org/2000/svg">
<path d="M121.604 63.8599C121.604 68.1896 118.094 71.698 113.764 71.698C109.433 71.698 105.924 68.1896 105.924 63.8599C105.924 59.5301 109.433 56.0215 113.764 56.0215C118.094 56.0215 121.604 59.5301 121.604 63.8599Z" fill="url(#paint0_radial)"/>
<path d="M117.598 75.6543L116.813 73.2403C105.796 76.8105 98.8049 66.9039 101.216 58.2051C97.6853 66.844 105.648 79.5589 117.598 75.6543Z" fill="#008A56"/>
<path d="M5.81585 72.6173C6.04628 72.7401 6.30858 72.768 6.56621 72.768C7.05537 72.768 7.52248 72.4995 7.52248 71.9132C7.52248 71.0389 6.33733 71.2005 6.33733 70.6421C6.33733 70.4166 6.56108 70.3083 6.81982 70.3083C6.93837 70.3083 7.23812 70.3801 7.34977 70.4489L7.39456 70.0093C7.19488 69.9491 7.00077 69.9023 6.76522 69.9023C6.22301 69.9023 5.7998 70.1757 5.7998 70.7439C5.7998 71.5106 6.98473 71.4689 6.98473 71.9676C6.98473 72.2626 6.70148 72.3584 6.46949 72.3584C6.32552 72.3584 6.0416 72.2945 5.84259 72.1661L5.81585 72.6173Z" fill="#707173"/>
<path d="M9.58913 69.9655H8.86329V69.1719L8.35874 69.3321V69.9658H7.74121V70.3748H8.35874V71.9733C8.35874 72.5203 8.68055 72.7674 9.19958 72.7674C9.36137 72.7674 9.51626 72.7244 9.63125 72.6921V72.2621C9.55615 72.3095 9.44115 72.3579 9.28694 72.3579C9.05584 72.3579 8.86329 72.1881 8.86329 71.8701V70.3748H9.58913V69.9655Z" fill="#707173"/>
<path d="M10.3762 70.5895C10.5799 70.4177 10.8868 70.3088 11.1705 70.3088C11.6748 70.3088 11.8468 70.5512 11.8468 71.0247C11.648 71.012 11.5079 71.012 11.3104 71.012C10.7896 71.012 10.0386 71.2274 10.0386 71.9132C10.0386 72.5104 10.4513 72.768 11.0419 72.768C11.5038 72.768 11.7708 72.5155 11.8894 72.3488H11.9005V72.7027H12.3721C12.3612 72.6231 12.3505 72.4781 12.3505 72.1666V71.0338C12.3505 70.2891 12.0327 69.9023 11.2507 69.9023C10.9021 69.9023 10.5995 70.0097 10.3499 70.1599L10.3762 70.5895ZM11.8473 71.6423C11.8473 72.0483 11.5832 72.3591 11.0847 72.3591C10.8538 72.3591 10.5741 72.2042 10.5741 71.9139C10.5741 71.4313 11.2509 71.3892 11.5259 71.3892C11.6318 71.3892 11.7392 71.4001 11.847 71.4001V71.6423H11.8473Z" fill="#707173"/>
<path d="M13.2046 72.7027H13.7078V71.4353C13.7078 70.7709 13.9654 70.3081 14.5402 70.3081C14.9803 70.3368 15.1203 70.6479 15.1203 71.2869V72.7027H15.6241V71.0777C15.6241 70.3417 15.3079 69.9023 14.5992 69.9023C14.2184 69.9023 13.8529 70.09 13.7031 70.401H13.6922V69.9663H13.2046V72.7027Z" fill="#707173"/>
<path d="M18.4206 72.7018H18.9024V68.6777H18.3992V70.341H18.3876C18.232 70.0886 17.9595 69.901 17.4812 69.901C16.6874 69.901 16.3008 70.5498 16.3008 71.2862C16.3008 72.0313 16.6493 72.7668 17.4766 72.7668C17.964 72.7668 18.2764 72.5193 18.4092 72.3161H18.4208L18.4206 72.7018ZM16.8376 71.3232C16.8272 70.8241 17.0413 70.3078 17.5878 70.3078C18.1351 70.3078 18.3992 70.8292 18.3992 71.3392C18.3992 71.7953 18.1632 72.3575 17.5945 72.3575C17.0509 72.3575 16.8272 71.7532 16.8376 71.3232Z" fill="#707173"/>
<path d="M19.5796 71.3341C19.5796 72.1191 20.1494 72.7686 20.9751 72.7686C21.7966 72.7686 22.3646 72.1198 22.3646 71.3341C22.3646 70.5033 21.807 69.9023 20.9751 69.9023C20.1378 69.9023 19.5796 70.5028 19.5796 71.3341ZM20.1158 71.3341C20.1158 70.8141 20.4331 70.3088 20.9747 70.3088C21.5113 70.3088 21.8282 70.8141 21.8282 71.3341C21.8282 71.8232 21.5666 72.3591 20.9747 72.3591C20.3801 72.3584 20.1158 71.8232 20.1158 71.3341Z" fill="#707173"/>
<path d="M23.042 72.7014H23.547V71.4567C23.547 70.7696 23.8416 70.3404 24.2936 70.3404C24.3787 70.3404 24.4801 70.3518 24.573 70.3879V69.9392C24.4647 69.916 24.3907 69.9004 24.2392 69.9004C23.9506 69.9004 23.6595 70.1036 23.5249 70.3879H23.5156V69.965H23.0424L23.042 72.7014Z" fill="#707173"/>
<path d="M26.5841 69.9655H25.8587V69.1719L25.3548 69.3321V69.9658H24.7368V70.3748H25.3548V71.9733C25.3548 72.5203 25.6764 72.7674 26.1956 72.7674C26.3576 72.7674 26.5128 72.7244 26.6269 72.6921V72.2621C26.5518 72.3095 26.4385 72.3579 26.2843 72.3579C26.0521 72.3579 25.8587 72.1881 25.8587 71.8701V70.3748H26.5841V69.9655Z" fill="#707173"/>
<path d="M27.2104 72.7027H27.715V71.3239C27.715 70.8139 27.9198 70.3085 28.4346 70.3085C28.842 70.3085 28.9226 70.7346 28.9226 71.0714V72.7024H29.427V71.3237C29.427 70.8137 29.6313 70.3083 30.145 70.3083C30.5546 70.3083 30.6348 70.7343 30.6348 71.0712V72.7022H31.1385V70.9476C31.1385 70.3527 30.8873 69.9023 30.1889 69.9023C29.942 69.9023 29.5299 70.0416 29.3409 70.4333C29.1965 70.0634 28.8805 69.9023 28.563 69.9023C28.1609 69.9023 27.8873 70.0461 27.6925 70.3627H27.6838V69.9658H27.2104V72.7027Z" fill="#707173"/>
<path d="M32.1437 70.5895C32.3481 70.4177 32.655 70.3088 32.9376 70.3088C33.4419 70.3088 33.6137 70.5512 33.6137 71.0247C33.4156 71.012 33.2758 71.012 33.0771 71.012C32.5571 71.012 31.8057 71.2274 31.8057 71.9132C31.8057 72.5104 32.2191 72.768 32.809 72.768C33.2703 72.768 33.5379 72.5155 33.6572 72.3488H33.6685V72.7027H34.1405C34.1296 72.6231 34.118 72.4781 34.118 72.1666V71.0338C34.118 70.2891 33.8009 69.9023 33.018 69.9023C32.6701 69.9023 32.3682 70.0097 32.1163 70.1599L32.1437 70.5895ZM33.6141 71.6423C33.6141 72.0483 33.3518 72.3591 32.8529 72.3591C32.6211 72.3591 32.3419 72.2042 32.3419 71.9139C32.3419 71.4313 33.0187 71.3892 33.293 71.3892C33.3995 71.3892 33.5083 71.4001 33.6141 71.4001V71.6423Z" fill="#707173"/>
<path d="M34.9707 72.7027H35.4755V71.4353C35.4755 70.7709 35.7342 70.3081 36.3072 70.3081C36.7473 70.3368 36.8875 70.6479 36.8875 71.2869V72.7027H37.3931V71.0777C37.3931 70.3417 37.0758 69.9023 36.3671 69.9023C35.9865 69.9023 35.6199 70.09 35.4699 70.401H35.4603V69.9663H34.9714L34.9707 72.7027Z" fill="#707173"/>
<path d="M38.4068 70.5895C38.611 70.4177 38.9154 70.3088 39.2002 70.3088C39.7059 70.3088 39.8766 70.5512 39.8766 71.0247C39.678 71.012 39.5387 71.012 39.3408 71.012C38.82 71.012 38.0679 71.2274 38.0679 71.9132C38.0679 72.5104 38.4815 72.768 39.0725 72.768C39.5323 72.768 39.8032 72.5155 39.92 72.3488H39.9298V72.7027H40.4029C40.3916 72.6231 40.3816 72.4781 40.3816 72.1666V71.0338C40.3816 70.2891 40.0649 69.9023 39.2813 69.9023C38.9323 69.9023 38.6315 70.0097 38.3792 70.1599L38.4068 70.5895ZM39.8766 71.6423C39.8766 72.0483 39.6131 72.3591 39.114 72.3591C38.8835 72.3591 38.6047 72.2042 38.6047 71.9139C38.6047 71.4313 39.2815 71.3892 39.5543 71.3892C39.6624 71.3892 39.7696 71.4001 39.8766 71.4001V71.6423Z" fill="#707173"/>
<path d="M43.6547 69.9663H43.1867V70.3754H43.1755C43.0258 70.0804 42.7579 69.9023 42.275 69.9023C41.4475 69.9023 41.0513 70.6534 41.0513 71.3562C41.0513 72.0643 41.4384 72.7027 42.221 72.7027C42.5691 72.7027 42.9248 72.5634 43.1383 72.2784H43.1497V72.5478C43.1497 73.128 42.8332 73.487 42.3004 73.487C41.9324 73.487 41.7007 73.417 41.3149 73.2403L41.261 73.7069C41.7007 73.858 41.9525 73.8954 42.2407 73.8954C43.2246 73.8954 43.6542 73.4172 43.6542 72.5855L43.6547 69.9663ZM42.3512 72.2949C41.8781 72.2949 41.5895 71.8442 41.5895 71.3288C41.5895 70.8618 41.8402 70.3088 42.3512 70.3088C42.8863 70.3088 43.1503 70.7983 43.1503 71.3653C43.1501 71.8767 42.8228 72.2949 42.3512 72.2949Z" fill="#707173"/>
<path d="M46.6131 72.0866C46.4896 72.1893 46.1023 72.3591 45.7687 72.3591C45.2929 72.3591 44.8679 71.9901 44.8679 71.4478H46.8215C46.8215 70.5679 46.5273 69.9023 45.6151 69.9023C44.8418 69.9023 44.3311 70.4763 44.3311 71.2876C44.3311 72.1766 44.7768 72.7682 45.7477 72.7682C46.1995 72.7682 46.419 72.6612 46.6129 72.5906L46.6131 72.0866ZM44.8679 71.0717C44.9058 70.7165 45.1095 70.3088 45.6036 70.3088C46.0388 70.3088 46.2853 70.6534 46.2853 71.0717H44.8679Z" fill="#707173"/>
<path d="M47.4922 72.7027H47.9967V71.3239C47.9967 70.8139 48.1993 70.3085 48.7163 70.3085C49.1246 70.3085 49.2048 70.7346 49.2048 71.0714V72.7024H49.7083V71.3237C49.7083 70.8137 49.9128 70.3083 50.4279 70.3083C50.8352 70.3083 50.9155 70.7343 50.9155 71.0712V72.7022H51.4205V70.9476C51.4205 70.3527 51.1693 69.9023 50.4709 69.9023C50.2246 69.9023 49.8103 70.0416 49.6225 70.4333C49.4781 70.0634 49.1609 69.9023 48.8447 69.9023C48.4416 69.9023 48.1694 70.0461 47.9756 70.3627H47.9644V69.9658H47.4924V72.7027H47.4922Z" fill="#707173"/>
<path d="M54.3676 72.0866C54.2446 72.1893 53.8575 72.3591 53.525 72.3591C53.0468 72.3591 52.6236 71.9901 52.6236 71.4478H54.5767C54.5767 70.5679 54.282 69.9023 53.3699 69.9023C52.5961 69.9023 52.0869 70.4763 52.0869 71.2876C52.0869 72.1766 52.5326 72.7682 53.5032 72.7682C53.9549 72.7682 54.1749 72.6612 54.3676 72.5906V72.0866ZM52.6233 71.0717C52.661 70.7165 52.8649 70.3088 53.3581 70.3088C53.7924 70.3088 54.0405 70.6534 54.0405 71.0717H52.6233Z" fill="#707173"/>
<path d="M55.2534 72.7027H55.7573V71.4353C55.7573 70.7709 56.0149 70.3081 56.5894 70.3081C57.0298 70.3368 57.1693 70.6479 57.1693 71.2869V72.7027H57.6743V71.0777C57.6743 70.3417 57.3572 69.9023 56.6483 69.9023C56.2687 69.9023 55.903 70.09 55.7528 70.401H55.741V69.9663H55.2534V72.7027Z" fill="#707173"/>
<path d="M59.986 69.9655H59.2611V69.1719L58.7577 69.3321V69.9658H58.1401V70.3748H58.7577V71.9733C58.7577 72.5203 59.0788 72.7674 59.6003 72.7674C59.7623 72.7674 59.917 72.7244 60.0295 72.6921V72.2621C59.9535 72.3095 59.8419 72.3579 59.6852 72.3579C59.4554 72.3579 59.2611 72.1881 59.2611 71.8701V70.3748H59.986V69.9655Z" fill="#707173"/>
<path d="M64.5314 69.9648H64.0253V71.2313C64.0253 71.8971 63.769 72.3576 63.1943 72.3576C62.7544 72.332 62.6144 72.0216 62.6144 71.3819V69.9653H62.1099V71.5903C62.1099 72.3262 62.4259 72.7669 63.1352 72.7669C63.5152 72.7669 63.8805 72.5789 64.0313 72.2665H64.0416V72.7017H64.5316V69.9648H64.5314Z" fill="#707173"/>
<path d="M65.3887 72.7027H65.8937V71.4353C65.8937 70.7709 66.1511 70.3081 66.7256 70.3081C67.1655 70.3368 67.3059 70.6479 67.3059 71.2869V72.7027H67.8105V71.0777C67.8105 70.3417 67.4933 69.9023 66.7851 69.9023C66.4038 69.9023 66.0392 70.09 65.8899 70.401H65.8781V69.9663H65.3887V72.7027Z" fill="#707173"/>
<path d="M70.6057 72.7018H71.0882V68.6777H70.5852V70.341H70.5741C70.4181 70.0886 70.1433 69.901 69.6679 69.901C68.8717 69.901 68.4868 70.5498 68.4868 71.2862C68.4868 72.0313 68.8349 72.7668 69.663 72.7668C70.1484 72.7668 70.4604 72.5193 70.5948 72.3161H70.6059L70.6057 72.7018ZM69.021 71.3232C69.0121 70.8241 69.226 70.3078 69.7734 70.3078C70.3207 70.3078 70.5852 70.8292 70.5852 71.3392C70.5852 71.7953 70.3481 72.3575 69.7798 72.3575C69.2367 72.3575 69.0121 71.7532 69.021 71.3232Z" fill="#707173"/>
<path d="M73.2082 72.6173C73.4389 72.7401 73.7016 72.768 73.959 72.768C74.4475 72.768 74.9142 72.4995 74.9142 71.9132C74.9142 71.0389 73.7281 71.2005 73.7281 70.6421C73.7281 70.4166 73.9548 70.3083 74.2104 70.3083C74.3292 70.3083 74.6298 70.3801 74.7435 70.4489L74.7869 70.0093C74.5857 69.9491 74.3938 69.9023 74.1578 69.9023C73.6156 69.9023 73.1924 70.1757 73.1924 70.7439C73.1924 71.5106 74.3775 71.4689 74.3775 71.9676C74.3775 72.2626 74.0943 72.3584 73.8638 72.3584C73.7181 72.3584 73.4333 72.2945 73.2347 72.1661L73.2082 72.6173Z" fill="#707173"/>
<path d="M77.6251 72.0866C77.5017 72.1893 77.1146 72.3591 76.7827 72.3591C76.3045 72.3591 75.8806 71.9901 75.8806 71.4478H77.8331C77.8331 70.5679 77.5396 69.9023 76.6274 69.9023C75.8525 69.9023 75.3438 70.4763 75.3438 71.2876C75.3438 72.1766 75.789 72.7682 76.7611 72.7682C77.2113 72.7682 77.4312 72.6612 77.6251 72.5906V72.0866ZM75.8804 71.0717C75.9176 70.7165 76.122 70.3088 76.6154 70.3088C77.0502 70.3088 77.2978 70.6534 77.2978 71.0717H75.8804Z" fill="#707173"/>
<path d="M78.5107 72.7014H79.0144V71.4567C79.0144 70.7696 79.3088 70.3404 79.7612 70.3404C79.8474 70.3404 79.9488 70.3518 80.0407 70.3879V69.9392C79.9319 69.916 79.8586 69.9004 79.7061 69.9004C79.4162 69.9004 79.1272 70.1036 78.9926 70.3879H78.9834V69.965H78.5114L78.5107 72.7014Z" fill="#707173"/>
<path d="M82.7914 69.9648H82.2873L81.5298 72.197H81.5195L80.779 69.9648H80.2261L81.2095 72.7012H81.809L82.7914 69.9648Z" fill="#707173"/>
<path d="M83.3465 72.7027H83.8497V69.9663H83.3465V72.7027ZM83.8834 68.7852H83.314V69.3553H83.8834V68.7852Z" fill="#707173"/>
<path d="M86.5555 70.0097C86.4097 69.9496 86.1476 69.9023 85.9426 69.9023C85.1058 69.9023 84.5469 70.5028 84.5469 71.3341C84.5469 72.1191 85.1167 72.7686 85.9426 72.7686C86.1256 72.7686 86.3658 72.7521 86.5757 72.655L86.5376 72.2047C86.383 72.3065 86.1684 72.3591 85.9965 72.3591C85.3474 72.3591 85.0848 71.8239 85.0848 71.3341C85.0848 70.8141 85.4011 70.3088 85.964 70.3088C86.1256 70.3088 86.3181 70.3466 86.5113 70.4271L86.5555 70.0097Z" fill="#707173"/>
<path d="M89.2524 72.0866C89.1296 72.1893 88.7432 72.3591 88.4118 72.3591C87.9336 72.3591 87.5093 71.9901 87.5093 71.4478H89.4639C89.4639 70.5679 89.1662 69.9023 88.2545 69.9023C87.483 69.9023 86.9722 70.4763 86.9722 71.2876C86.9722 72.1766 87.4188 72.7682 88.3884 72.7682C88.8395 72.7682 89.0599 72.6612 89.2518 72.5906L89.2524 72.0866ZM87.5088 71.0717C87.546 70.7165 87.751 70.3088 88.2431 70.3088C88.6779 70.3088 88.9255 70.6534 88.9255 71.0717H87.5088Z" fill="#707173"/>
<path d="M89.9083 72.6173C90.1388 72.7401 90.4017 72.768 90.6605 72.768C91.1472 72.768 91.615 72.4995 91.615 71.9132C91.615 71.0389 90.4287 71.2005 90.4287 70.6421C90.4287 70.4166 90.6551 70.3083 90.9123 70.3083C91.0304 70.3083 91.3295 70.3801 91.4436 70.4489L91.4866 70.0093C91.2869 69.9491 91.0941 69.9023 90.8579 69.9023C90.3161 69.9023 89.8916 70.1757 89.8916 70.7439C89.8916 71.5106 91.0788 71.4689 91.0788 71.9676C91.0788 72.2626 90.7944 72.3584 90.5622 72.3584C90.4182 72.3584 90.1332 72.2945 89.9355 72.1661L89.9083 72.6173Z" fill="#707173"/>
<path d="M4.06565 67.6868V72.7353H2V59.0657H4.06565V59.6593C4.58156 59.1535 5.2187 58.9004 5.97396 58.9004C8.7922 58.9004 10.2026 60.4527 10.2026 63.5581C10.2026 65.0059 9.81265 66.1204 9.02865 66.9025C8.25266 67.685 7.18942 68.0754 5.84181 68.0754C5.19174 68.0754 4.59917 67.9453 4.06565 67.6868ZM4.06565 61.2295V65.8785C4.43916 66.1813 4.87751 66.3328 5.37872 66.3328C6.33165 66.3328 7.01314 66.1064 7.42631 65.6557C7.84461 65.1991 8.05432 64.4799 8.05499 63.5006C8.05499 62.454 7.8484 61.719 7.43567 61.2956C7.02228 60.8652 6.33878 60.6504 5.38607 60.6504C4.89088 60.6501 4.45119 60.8435 4.06565 61.2295Z" fill="#008A56"/>
<path d="M17.743 67.9104V62.4599C17.743 61.9138 17.573 61.476 17.2313 61.1453C16.8895 60.8158 16.4435 60.6495 15.8929 60.6495C15.5514 60.6495 15.208 60.7431 14.8606 60.9307C14.5127 61.113 14.2658 61.3229 14.1183 61.5591V67.9106H12.0181V55.8965H14.1183V59.6259C14.6507 59.1415 15.3854 58.9 16.3221 58.9C17.4288 58.9 18.2897 59.2077 18.8992 59.8238C19.5096 60.4356 19.8171 61.314 19.8171 62.4592V67.9099L17.743 67.9104Z" fill="#008A56"/>
<path d="M22.5547 61.604C23.3159 61.0296 24.2802 60.6557 25.2434 60.6557C26.5801 60.6557 27.2054 61.1301 27.2054 62.5345H25.9543C25.0081 62.5345 23.8913 62.6185 23.028 63.0403C22.1651 63.4636 21.5396 64.2248 21.5396 65.5273C21.5396 67.1842 23.0449 68.114 24.584 68.114C25.6156 68.114 26.7479 67.5725 27.2721 66.6091H27.3077C27.3235 66.8798 27.3235 67.4538 27.408 67.9121H29.4043C29.3533 67.2345 29.3194 66.6262 29.3023 65.9669C29.2845 65.3241 29.268 64.6648 29.268 63.7863V62.6691C29.268 60.0998 28.1697 59 25.5144 59C24.5501 59 23.3663 59.2547 22.4858 59.6598L22.5547 61.604ZM23.7039 65.3914C23.7039 64.0545 25.2111 63.8865 26.2253 63.8865H27.205C27.205 64.5623 27.1043 65.1895 26.7316 65.6786C26.3757 66.153 25.8344 66.4571 25.1418 66.4571C24.3313 66.4571 23.7039 66.1347 23.7039 65.3914Z" fill="#008A56"/>
<path d="M36.5586 60.9902C36.1886 60.7486 35.7832 60.6272 35.3438 60.6272C34.8649 60.6272 34.4379 60.8435 34.0657 61.2783C33.6958 61.7148 33.5119 62.2453 33.5119 62.8727V67.9108H31.4458V59.0657H33.5119V59.8743C34.0891 59.2241 34.8577 58.9004 35.8158 58.9004C36.5202 58.9004 37.06 59.0071 37.4353 59.2215L36.5586 60.9902Z" fill="#008A56"/>
<path d="M48.7439 67.911V62.3689C48.7439 61.2074 48.2235 60.6274 47.1846 60.6274C46.8755 60.6274 46.5782 60.7165 46.2909 60.8995C46.0057 61.0804 45.8035 61.2898 45.6885 61.526V67.911H43.6236V62.0465C43.6236 61.6127 43.4879 61.2671 43.2175 61.0142C42.9479 60.7553 42.5688 60.6274 42.0792 60.6274C41.8211 60.6274 41.5363 60.7228 41.2285 60.916C40.9263 61.1074 40.7044 61.3197 40.5684 61.5519V67.9116H38.5039V59.0664H39.9231L40.3456 59.8422C40.9179 59.2143 41.6578 58.9004 42.5657 58.9004C43.7383 58.9004 44.6237 59.2204 45.2174 59.8587C45.4768 59.5666 45.8372 59.3355 46.2994 59.1642C46.7623 58.9884 47.2238 58.9004 47.6871 58.9004C48.6739 58.9004 49.4376 59.1834 49.9836 59.7506C50.5339 60.3121 50.8093 61.0849 50.8093 62.071V67.9108H48.7439V67.911Z" fill="#008A56"/>
<path d="M53.5482 61.604C54.309 61.0296 55.2733 60.6557 56.2365 60.6557C57.5732 60.6557 58.1989 61.1301 58.1989 62.5345H56.9481C56.0009 62.5345 54.8844 62.6185 54.0217 63.0403C53.1588 63.4636 52.5342 64.2248 52.5342 65.5273C52.5342 67.1842 54.0389 68.114 55.5773 68.114C56.6093 68.114 57.7416 67.5725 58.2671 66.6091H58.2999C58.318 66.8798 58.318 67.4538 58.402 67.9121H60.3974C60.3468 67.2345 60.3118 66.6262 60.2954 65.9669C60.2793 65.3241 60.2628 64.6648 60.2628 63.7863V62.6691C60.2628 60.0998 59.1628 59 56.507 59C55.5441 59 54.3591 59.2547 53.4804 59.6598L53.5482 61.604ZM54.699 65.3914C54.699 64.0545 56.2044 63.8865 57.2182 63.8865H58.1987C58.1987 64.5623 58.0984 65.1895 57.7254 65.6786C57.3706 66.153 56.8291 66.4571 56.1344 66.4571C55.3246 66.4571 54.699 66.1347 54.699 65.3914Z" fill="#008A56"/>
<path d="M62.24 67.3395L62.975 65.6967C63.5925 66.1853 64.2887 66.4322 65.0654 66.4322C65.8694 66.4322 66.2713 66.1458 66.2713 65.5723C66.2713 65.2368 66.1502 64.9614 65.9069 64.7472C65.6655 64.5327 65.1933 64.2793 64.4955 63.9875C62.9692 63.3538 62.207 62.4688 62.207 61.3293C62.207 60.5632 62.4994 59.9686 63.0826 59.5441C63.6665 59.1141 64.4124 58.9004 65.3214 58.9004C66.2405 58.9004 67.1056 59.1063 67.9141 59.5183L67.3202 61.121C66.8678 60.7355 66.2405 60.5421 65.4358 60.5412C64.7148 60.5412 64.3547 60.8288 64.3547 61.4019C64.3547 61.627 64.4724 61.8311 64.7079 62.012C64.9446 62.1929 65.4527 62.4398 66.2291 62.7466C67.0044 63.0499 67.5636 63.4186 67.9052 63.8533C68.2458 64.2885 68.4169 64.8145 68.4182 65.4317C68.4182 66.2512 68.1114 66.8983 67.5007 67.3718C66.8939 67.8406 66.0685 68.0741 65.0235 68.0741C64.434 68.0741 63.9602 68.0257 63.6023 67.9248C63.2493 67.833 62.7958 67.638 62.24 67.3395Z" fill="#008A56"/>
<path d="M78.0717 64.12H71.7528C71.7902 64.8254 72.0343 65.3733 72.4793 65.7637C72.9268 66.1554 73.5243 66.3508 74.2787 66.3508C75.2211 66.3508 75.9369 66.1052 76.4268 65.6153L77.2279 67.1919C76.5021 67.7815 75.4179 68.0767 73.9745 68.0767C72.6248 68.0767 71.556 67.6823 70.7698 66.8951C69.9871 66.1017 69.5967 64.9985 69.5967 63.5834C69.5967 62.1904 70.0261 61.063 70.8843 60.1982C71.7488 59.333 72.7846 58.9023 73.9905 58.9023C75.2733 58.9023 76.3017 59.2845 77.0795 60.0487C77.8555 60.8159 78.2448 61.7891 78.2448 62.9736C78.2446 63.2256 78.1862 63.6095 78.0717 64.12ZM71.8264 62.5676H76.1718C76.0283 61.2733 75.3116 60.628 74.0237 60.628C72.8455 60.628 72.1127 61.2733 71.8264 62.5676Z" fill="#008A56"/>
<path d="M84.7271 60.9902C84.3592 60.7486 83.9547 60.6272 83.5124 60.6272C83.0343 60.6272 82.6071 60.8435 82.2332 61.2783C81.8648 61.7148 81.6805 62.2453 81.6805 62.8727V67.9108H79.6157V59.0657H81.6805V59.8743C82.2586 59.2241 83.027 58.9004 83.9844 58.9004C84.6895 58.9004 85.2288 59.0071 85.603 59.2215L84.7271 60.9902Z" fill="#008A56"/>
<path d="M91.2661 68.075H90.5227L86.5244 59.0653H88.7877L90.9017 64.4655L94.5933 55.8965H96.6786L91.2661 68.075Z" fill="#008A56"/>
<path d="M101.631 61.2816L104.115 61.8085C106.53 50.4838 118.606 49.3842 124.936 55.8213C119.217 48.4446 104.223 48.9829 101.631 61.2816Z" fill="#008A56"/>
<path d="M122.065 54.6426L120.368 56.5283C128.967 64.2828 123.882 75.2894 115.142 77.5507C124.391 76.2876 131.422 63.0362 122.065 54.6426Z" fill="#008A56"/>
<defs>
<radialGradient id="paint0_radial" cx="0" cy="0" r="1" gradientUnits="userSpaceOnUse" gradientTransform="translate(111.527 60.7854) scale(12.7794 12.777)">
<stop stop-color="#E6E6E6"/>
<stop offset="0.0876" stop-color="#DEDEDE"/>
<stop offset="0.2233" stop-color="#C8C8C9"/>
<stop offset="0.3901" stop-color="#A5A5A5"/>
<stop offset="0.5797" stop-color="#737375"/>
<stop offset="0.7606" stop-color="#3E3E40"/>
<stop offset="0.9894" stop-color="#535355"/>
</radialGradient>
</defs>
</svg>
