<svg width="128" height="128" viewBox="0 0 128 128" fill="none" xmlns="http://www.w3.org/2000/svg">
<path d="M0.0688477 78.4538V71.9551H1.02723V78.3625C1.00994 78.5056 1.02332 78.6507 1.06649 78.7882C1.10965 78.9257 1.18161 79.0525 1.27756 79.16C1.37352 79.2675 1.49127 79.3534 1.62298 79.4118C1.75469 79.4702 1.89733 79.4999 2.0414 79.4988C2.75132 79.4988 3.05557 79.022 3.05557 78.3726V71.9551H3.96324V78.3878C3.98247 78.6517 3.94433 78.9165 3.85145 79.1642C3.75858 79.4119 3.61317 79.6365 3.42524 79.8226C3.2373 80.0087 3.0113 80.1519 2.76278 80.2422C2.51426 80.3326 2.24913 80.368 1.98562 80.3461C0.864968 80.3461 0.0688477 79.7424 0.0688477 78.4538Z" fill="#3B3836"/>
<path d="M6.04248 71.9609H7.05665L9.16611 77.8103V71.9609H10.0991V80.2352H9.18132L6.94509 73.8837H6.90959V80.2352H6.04248V71.9609Z" fill="#3B3836"/>
<path d="M12.2334 71.9609H13.1969V80.2352H12.2334V71.9609Z" fill="#3B3836"/>
<path d="M15.3579 71.9609H17.3406C18.5018 71.9609 19.0343 72.7118 19.0343 74.0257C19.0343 75.0809 18.6185 75.8013 17.9339 75.9383V75.9839C18.7655 76.1716 19.1053 76.9478 19.1053 77.9371C19.1053 79.596 18.3953 80.2352 17.3964 80.2352H15.3681L15.3579 71.9609ZM17.0516 75.6035C17.655 75.6035 18.1063 75.1722 18.1063 74.1272C18.1063 73.1683 17.7361 72.7828 17.1885 72.7828H16.3214V75.6035H17.0516ZM17.2037 79.4083C17.8173 79.4083 18.1418 78.901 18.1418 77.8864C18.1418 76.8717 17.7057 76.4152 17.0617 76.4152H16.3214V79.4083H17.2037Z" fill="#3B3836"/>
<path d="M22.2996 71.9355H23.5775L25.2356 80.2352H24.2975L23.7904 77.7849H21.9649L21.5035 80.2606H20.606L22.2996 71.9355ZM23.6383 76.9732L22.903 73.0364H22.8726L22.1272 76.9732H23.6383Z" fill="#3B3836"/>
<path d="M27.0444 71.9609H28.0079V80.2352H27.0444V71.9609Z" fill="#3B3836"/>
<path d="M30.1743 71.9609H31.1378V79.3982H33.4704V80.2352H30.1743V71.9609Z" fill="#3B3836"/>
<path d="M34.5605 76.4551H36.5534V77.2211H34.5605V76.4551Z" fill="#3B3836"/>
<path d="M38.3481 71.9609H40.1686C41.4819 71.9609 42.131 72.7929 42.131 74.2591C42.131 75.431 41.7 76.1818 41.0306 76.405L42.2121 80.2352H41.2385L40.1381 76.6232H39.3116V80.2352H38.3481V71.9609ZM40.1483 75.8825C40.8329 75.8825 41.1625 75.3346 41.1625 74.3605C41.1625 73.5438 40.9191 72.7929 40.1077 72.7929H39.3116V75.9028L40.1483 75.8825Z" fill="#3B3836"/>
<path d="M43.9464 78.3739V73.808C43.9324 73.5408 43.9758 73.2737 44.0737 73.0247C44.1716 72.7757 44.3217 72.5506 44.5139 72.3645C44.7061 72.1784 44.936 72.0358 45.188 71.9461C45.44 71.8565 45.7083 71.8219 45.9747 71.8447C47.1005 71.8447 47.9727 72.4383 47.9727 73.7116V78.3434C47.9958 78.6157 47.9592 78.8898 47.8654 79.1465C47.7717 79.4033 47.623 79.6364 47.4299 79.8296C47.2367 80.0229 47.0037 80.1716 46.7471 80.2654C46.4905 80.3592 46.2165 80.3958 45.9443 80.3727C44.7476 80.3473 43.9464 79.698 43.9464 78.3739ZM47.0244 78.3739V73.6964C47.0019 73.4285 46.8784 73.1791 46.6791 72.9988C46.4797 72.8184 46.2193 72.7206 45.9505 72.7251C45.6818 72.7297 45.4248 72.8362 45.2316 73.0231C45.0384 73.21 44.9234 73.4634 44.9099 73.7319V78.3891C44.8998 78.5341 44.9197 78.6797 44.9683 78.8168C45.0169 78.9538 45.0931 79.0794 45.1923 79.1857C45.2914 79.2921 45.4114 79.3768 45.5447 79.4348C45.678 79.4928 45.8218 79.5227 45.9671 79.5227C46.1125 79.5227 46.2563 79.4928 46.3896 79.4348C46.5229 79.3768 46.6428 79.2921 46.742 79.1857C46.8412 79.0794 46.9174 78.9538 46.966 78.8168C47.0146 78.6797 47.0345 78.5341 47.0244 78.3891V78.3739Z" fill="#3B3836"/>
<path d="M49.9912 71.9609H51.9536C53.0438 71.9609 53.8805 72.5139 53.8805 73.701V78.3531C53.8805 79.6315 53.0438 80.2352 51.9333 80.2352H49.9912V71.9609ZM51.8725 79.4083C52.0138 79.4176 52.1555 79.3962 52.2878 79.3457C52.4201 79.2951 52.5399 79.2166 52.6391 79.1154C52.7383 79.0143 52.8145 78.8929 52.8625 78.7596C52.9104 78.6263 52.9291 78.4841 52.9171 78.3429V73.7771C52.9275 73.6386 52.9074 73.4994 52.8581 73.3695C52.8088 73.2396 52.7317 73.1221 52.632 73.0253C52.5324 72.9285 52.4127 72.8548 52.2815 72.8094C52.1502 72.764 52.0106 72.748 51.8725 72.7625H50.9547V79.4083H51.8725Z" fill="#3B3836"/>
<path d="M57.0645 71.9355H58.3424L60.0005 80.2352H59.0371L58.5604 77.7849H56.7501L56.2431 80.2352H55.3506L57.0645 71.9355ZM58.3982 76.9732L57.668 73.0364H57.6325L56.8921 76.9732H58.3982Z" fill="#3B3836"/>
<path d="M61.7603 71.9609H62.9215L64.174 75.5121H64.1993L65.4873 71.9609H66.5877V80.2352H65.7307V73.6401H65.7054L64.4884 77.0747H63.8494L62.6527 73.6503V80.2352H61.7907L61.7603 71.9609Z" fill="#3B3836"/>
<path d="M68.5864 78.4899V73.7263C68.5864 72.5747 69.3876 71.834 70.6148 71.834C71.8419 71.834 72.4707 72.5341 72.4707 73.5132V74.4517H71.6086V73.6502C71.622 73.5136 71.605 73.3758 71.5588 73.2466C71.5126 73.1174 71.4383 73 71.3413 72.903C71.2443 72.806 71.127 72.7317 70.9979 72.6854C70.8688 72.6392 70.731 72.6221 70.5945 72.6355C70.4489 72.6235 70.3025 72.6443 70.1661 72.6966C70.0297 72.7488 69.9067 72.8311 69.8064 72.9373C69.7061 73.0435 69.6309 73.1709 69.5865 73.3101C69.5421 73.4493 69.5296 73.5968 69.5499 73.7415V78.3733C69.5302 78.5199 69.5438 78.669 69.5897 78.8096C69.6356 78.9502 69.7125 79.0786 69.8148 79.1854C69.9172 79.2921 70.0422 79.3744 70.1807 79.4262C70.3192 79.4779 70.4675 79.4978 70.6148 79.4843C70.7483 79.4962 70.8829 79.4791 71.0092 79.4343C71.1356 79.3895 71.2509 79.3179 71.3471 79.2245C71.4434 79.1311 71.5183 79.0181 71.567 78.8931C71.6156 78.768 71.6367 78.634 71.6289 78.5001V77.6884H72.4707V78.5458C72.4787 78.7908 72.4348 79.0347 72.3418 79.2615C72.2488 79.4882 72.1088 79.6927 71.931 79.8615C71.7533 80.0302 71.5418 80.1593 71.3106 80.2403C71.0793 80.3213 70.8335 80.3524 70.5894 80.3315C69.3978 80.3467 68.5864 79.6872 68.5864 78.4899Z" fill="#3B3836"/>
<path d="M74.3115 78.3724V73.8066C74.2966 73.5391 74.3394 73.2716 74.437 73.0222C74.5346 72.7728 74.6847 72.5474 74.8771 72.3611C75.0695 72.1749 75.2997 72.0322 75.5521 71.9429C75.8045 71.8535 76.0731 71.8196 76.3398 71.8433C77.4655 71.8433 78.3326 72.4368 78.3326 73.7102V78.342C78.3567 78.6145 78.3207 78.889 78.2273 79.1461C78.1338 79.4032 77.9852 79.6367 77.7918 79.8302C77.5985 80.0236 77.3651 80.1723 77.1081 80.2658C76.8511 80.3593 76.5767 80.3953 76.3043 80.3712C75.1127 80.3458 74.3115 79.6965 74.3115 78.3724ZM77.3844 78.3724V73.695C77.3797 73.4151 77.2641 73.1486 77.0629 72.954C76.8618 72.7595 76.5916 72.6528 76.3119 72.6575C76.1734 72.6598 76.0367 72.6894 75.9096 72.7446C75.7826 72.7998 75.6676 72.8795 75.5713 72.9791C75.3768 73.1803 75.2702 73.4506 75.2749 73.7305V78.3876C75.2749 78.6675 75.3861 78.9359 75.5839 79.1338C75.7817 79.3317 76.0499 79.4428 76.3297 79.4428C76.6094 79.4428 76.8777 79.3317 77.0755 79.1338C77.2733 78.9359 77.3844 78.6675 77.3844 78.3876V78.3724Z" fill="#3B3836"/>
<path d="M80.0264 76.4551H82.0243V77.2211H80.0264V76.4551Z" fill="#3B3836"/>
<path d="M83.1997 71.9551H84.1327L84.8984 78.0023H84.9339L85.8365 71.9551H86.7899L87.6925 77.9921H87.7178L88.4734 71.9551H89.3303L88.1894 80.2903H87.2969L86.3132 73.964H86.2777L85.3142 80.2903H84.4218L83.1997 71.9551Z" fill="#3B3836"/>
<path d="M91.0894 71.9609H94.3702V72.7828H92.0528V75.4969H93.9087V76.3238H92.0528V79.4083H94.3854V80.2352H91.0894V71.9609Z" fill="#3B3836"/>
<path d="M95.4307 78.2926L96.3333 78.2571C96.4043 79.013 96.673 79.5812 97.3474 79.5812C98.0219 79.5812 98.2551 78.9775 98.2551 78.4194C98.2144 77.8265 97.9582 77.2689 97.5351 76.8518L96.5462 75.756C95.9786 75.2242 95.6266 74.5018 95.5574 73.7268C95.5359 73.4823 95.5673 73.2361 95.6493 73.0048C95.7314 72.7735 95.8623 72.5627 96.0331 72.3865C96.2039 72.2104 96.4105 72.0731 96.6391 71.9839C96.8676 71.8948 97.1127 71.8559 97.3576 71.87C98.2703 71.87 98.9904 72.3773 99.0715 73.8079H98.2145C98.1233 73.0064 97.8545 72.6208 97.2967 72.6208C96.7389 72.6208 96.4499 72.9556 96.4499 73.6354C96.5397 74.2101 96.8266 74.7356 97.2612 75.1219L98.1233 76.0959C98.746 76.6975 99.1098 77.5183 99.1374 78.3839C99.1374 79.5406 98.4884 80.3777 97.317 80.3777C96.1457 80.3777 95.5118 79.6065 95.4307 78.2926Z" fill="#3B3836"/>
<path d="M101.669 72.7726H100.086V71.9609H104.194V72.7726H102.632V80.2352H101.669V72.7726Z" fill="#3B3836"/>
<path d="M105.938 71.9609H109.208V72.7726H106.896V75.5223H108.732V76.3594H106.896V80.2352H105.938V71.9609Z" fill="#3B3836"/>
<path d="M110.785 71.9609H111.748V80.2352H110.785V71.9609Z" fill="#3B3836"/>
<path d="M113.915 71.9609H117.2V72.7828H114.878V75.4969H116.734V76.3238H114.878V79.4083H117.211V80.2352H113.915V71.9609Z" fill="#3B3836"/>
<path d="M119.122 71.9609H120.08V79.3982H122.413V80.2352H119.122V71.9609Z" fill="#3B3836"/>
<path d="M123.473 71.9609H125.43C126.52 71.9609 127.357 72.5139 127.357 73.701V78.3531C127.357 79.6315 126.52 80.2352 125.41 80.2352H123.473V71.9609ZM125.349 79.4083C125.49 79.4176 125.632 79.3962 125.764 79.3457C125.896 79.2951 126.016 79.2166 126.116 79.1154C126.215 79.0143 126.291 78.8929 126.339 78.7596C126.387 78.6263 126.405 78.4841 126.393 78.3429V73.7771C126.404 73.6386 126.384 73.4994 126.334 73.3695C126.285 73.2396 126.208 73.1221 126.108 73.0253C126.009 72.9285 125.889 72.8548 125.758 72.8094C125.627 72.764 125.487 72.748 125.349 72.7625H124.431V79.4083H125.349Z" fill="#3B3836"/>
<path d="M75.0058 52.2868C74.6204 49.9024 74.3111 48.0101 74.3111 48.0101L68.0638 50.5467H68.0334L68.15 51.0134C68.15 51.0134 69.7372 50.3996 70.2696 50.9881C70.3766 51.0987 70.4535 51.2349 70.4927 51.3838C70.6398 51.8556 70.8578 52.8296 71.2533 54.9806C71.2831 55.1375 71.281 55.2988 71.247 55.4549C71.213 55.6109 71.1479 55.7585 71.0556 55.8887L71.0302 55.9141L68.221 58.7551C68.1094 58.0347 68.1449 58.2477 68.221 58.7551C67.5922 54.656 66.4969 48 66.4969 48L60.2192 50.5619L60.3308 51.0236C60.3308 51.0236 61.923 50.4097 62.4555 51.0236C62.5629 51.1319 62.6398 51.2666 62.6786 51.4142C62.8206 51.886 63.0437 52.8601 63.4392 55.0111C63.4731 55.1824 63.4674 55.3592 63.4226 55.5281C63.3778 55.6969 63.295 55.8532 63.1806 55.9851L60.4068 58.7906C59.7781 54.6915 58.6878 48.066 58.6878 48.066L52.4102 50.6279L52.5268 51.0946C52.5268 51.0946 54.114 50.4808 54.6464 51.0946C54.8949 51.3736 55.0673 51.2519 57.1362 63.6557V63.6912C57.1666 63.9246 57.3035 65.4618 55.6859 66.8366L56.193 67.42C56.193 67.42 61.203 64.1377 60.701 60.6169L60.6553 60.3328L63.8499 57.1266C64.139 58.7703 64.5041 60.8807 64.9554 63.5898V63.6304C64.9909 63.884 65.1075 65.406 63.5051 66.7706L63.9869 67.349C63.9869 67.349 68.9918 64.0869 68.4847 60.5357C68.4847 60.4546 68.4847 60.3632 68.4492 60.277L71.6691 57.0657L74.1589 54.5799C74.7153 53.9468 75.017 53.1297 75.0058 52.2868Z" fill="#E1251B"/>
</svg>
