<?xml version="1.0" encoding="UTF-8"?>
<svg width="56px" height="56px" viewBox="0 0 56 56" version="1.1" xmlns="http://www.w3.org/2000/svg" xmlns:xlink="http://www.w3.org/1999/xlink">
    <!-- Generator: Sketch 52.4 (67378) - http://www.bohemiancoding.com/sketch -->
    <title>assets/homepage/arrow-right</title>
    <desc>Created with Sketch.</desc>
    <g id="Page-1" stroke="none" stroke-width="1" fill="none" fill-rule="evenodd">
        <g id="Wunder-Careers-01-Landing-Page" transform="translate(-1214.000000, -3334.000000)">
            <g id="Wunder-Community" transform="translate(-35.000000, 3043.000000)">
                <g id="Slideshow" transform="translate(205.000000, 78.000000)">
                    <g id="Arrow-Right" transform="translate(1044.000000, 213.000000)">
                        <rect id="Combined-Shape" fill="#FFFFFF" x="0" y="0" width="56" height="56" rx="28"></rect>
                        <path d="M18.4545477,28.0663114 L36.4482714,28.0663114 L30.860517,22.7349773 C30.688256,22.564807 30.6907196,22.2943129 30.866054,22.1270246 C31.0413884,21.9597362 31.3248924,21.9573857 31.5032474,22.1217416 L37.8669146,28.1933822 C38.0443618,28.3627375 38.0443618,28.6372625 37.8669146,28.8066178 L31.5032474,34.8782584 C31.3248924,35.0426143 31.0413884,35.0402638 30.866054,34.8729754 C30.6907196,34.7056871 30.688256,34.435193 30.860517,34.2650227 L36.4482714,28.9336886 L18.4545477,28.9336886 C18.2035079,28.9336886 18,28.7395196 18,28.5 C18,28.2604804 18.2035079,28.0663114 18.4545477,28.0663114 Z" id="Path" stroke="#06A0E3" stroke-width="1.33333333"></path>
                    </g>
                </g>
            </g>
        </g>
    </g>
</svg>