<?xml version="1.0" encoding="UTF-8"?>
<svg width="338px" height="88px" viewBox="0 0 338 88" version="1.1" xmlns="http://www.w3.org/2000/svg" xmlns:xlink="http://www.w3.org/1999/xlink">
    <!-- Generator: Sketch 54.1 (76490) - https://sketchapp.com -->
    <title>Athena Logo Black</title>
    <desc>Created with Sketch.</desc>
    <g id="Styleguide" stroke="none" stroke-width="1" fill="none" fill-rule="evenodd">
        <g id="01-Logo" transform="translate(-190.000000, -1517.000000)" fill="#000000">
            <g id="Group-6" transform="translate(101.000000, 1374.000000)">
                <g id="Athena-Logo-Black" transform="translate(89.000000, 143.000000)">
                    <path d="M88,45.6577233 C88,70.0450332 70.7712793,88 46.3421541,88 C21.9133659,88 0,70.0450332 0,45.6577233 C0,21.2704133 21.9133659,0 46.3421541,0 C70.7712793,0 88,21.2704133 88,45.6577233 Z M44.9788474,20.8759124 L55.6190049,65.3576642 L66.9040203,65.3576642 L50.4601406,20.8759124 L44.9788474,20.8759124 Z M44.9788474,20.8759124 L39.4975542,20.8759124 L23.0536745,65.3576642 L34.33869,65.3576642 L44.9788474,20.8759124 Z" id="Combined-Shape"></path>
                    <path d="M125,66.0071215 L143.06114,22 L151.670283,22 L169.490608,66.0071215 L161.12228,66.0071215 L156.185568,53.4422466 L138.184632,53.4422466 L133.308124,66.0071215 L125,66.0071215 Z M140.833599,46.378262 L153.416194,46.378262 L152.242219,43.1618945 C150.82743,39.2541583 149.412641,35.1360055 147.96775,30.7773767 L147.305508,28.7633896 L147.124896,28.7633896 L145.378986,33.6630896 C144.32542,36.759219 143.181548,39.945527 142.007573,43.1618945 L140.833599,46.378262 Z M175.028836,66.0071215 L175.028836,39.9755865 L170.199308,39.9755865 L170.199308,33.6931491 L175.028836,33.6931491 L175.028836,24.8857129 L182.915533,24.8857129 L182.915533,33.6931491 L188.505441,33.6931491 L188.505441,39.9755865 L182.915533,39.9755865 L182.915533,66.0071215 L175.028836,66.0071215 Z M195.470114,66.0071215 L195.470114,22 L203.356812,22 L203.356812,36.578862 C205.674658,33.9636847 208.86546,32.6410663 212.959318,32.6410663 C220.514895,32.6410663 225.240893,37.7211233 225.240893,45.9874883 L225.240893,66.0071215 L217.354196,66.0071215 L217.354196,47.6708209 C217.354196,45.1758816 216.752158,43.1618945 215.578184,41.6288595 C214.404209,40.0958245 212.688401,39.3443368 210.370555,39.3443368 C205.825168,39.2541583 203.296608,43.0115969 203.356812,46.7389761 L203.356812,66.0071215 L195.470114,66.0071215 Z M232.448993,49.684808 C232.328586,40.125884 239.37243,32.7312448 248.914732,32.8815423 C258.998869,32.7613043 264.778434,40.1559436 264.748332,49.865165 C264.748332,50.7669503 264.71823,51.5484975 264.688128,52.2098067 L240.155079,52.2098067 C240.877525,57.0493877 244.489753,60.2958147 249.817789,60.2958147 C251.533598,60.2958147 253.038693,60.0252791 254.393278,59.4541485 C255.747864,58.8830178 256.861634,58.2818276 257.704487,57.5904589 C258.54734,56.8990902 259.510601,56.0574239 260.564168,55.0354006 L265.109555,59.9050411 C263.45395,61.8589092 261.286613,63.5121822 258.607544,64.9249791 C255.928475,66.3077166 252.827979,66.9990853 249.275955,66.9990853 C239.52294,67.0892638 232.358687,60.5062313 232.448993,49.684808 Z M240.350481,46.3181429 L256.996831,46.3181429 C256.545303,41.8392761 253.595317,39.1038607 248.869318,39.1038607 C244.083116,39.1038607 240.832111,41.7791571 240.350481,46.3181429 Z M272.603361,66.0071215 L272.603361,38.7431466 C272.603361,36.4886834 272.573259,34.8053509 272.513055,33.6931491 L280.158938,33.6931491 L280.158938,36.9395761 C282.356377,34.2943393 285.637484,32.6410663 290.092565,32.6410663 C297.648142,32.6410663 302.37414,37.7211233 302.37414,45.9874883 L302.37414,66.0071215 L294.487442,66.0071215 L294.487442,47.6708209 C294.487442,45.1758816 293.885404,43.1618945 292.71143,41.6288595 C291.537456,40.0958245 289.821648,39.3443368 287.503802,39.3443368 C282.807905,39.3443368 280.490059,42.9214184 280.490059,46.7389761 L280.490059,66.0071215 L272.603361,66.0071215 Z M308.078711,56.7788521 C308.078711,49.4142724 313.135831,46.1077264 325.598017,46.1077264 C327.85566,46.1077264 329.45106,46.1377859 330.354117,46.1979049 L330.354117,44.905346 C330.354117,40.6970147 327.313826,39.1038607 322.46742,39.1038607 C318.614376,39.1038607 315.363371,40.1860031 313.196034,41.6288595 L310.185844,35.7071362 C313.466952,33.9035656 318.072542,32.6410663 323.129661,32.6410663 C327.434233,32.6410663 330.956155,33.512792 333.695428,35.226184 C336.434701,36.9395761 337.789287,40.1559436 337.789287,44.8151675 L337.789287,60.5964098 C337.789287,62.0092067 337.789287,63.0612896 337.819389,63.8127773 C337.849491,64.5342055 337.909694,65.2556337 338,66.0071215 L330.594933,66.0071215 L330.594933,62.9410515 L330.474525,62.9410515 C328.216883,65.4961098 324.484247,66.9990853 320.059268,66.9990853 C312.925117,66.9990853 308.078711,63.2115871 308.078711,56.7788521 Z M329.69292,56.7788521 L329.69292,51.6086166 C329.030678,51.5785571 327.645991,51.5484975 325.538858,51.5484975 C318.645523,51.5484975 315.183804,52.6005804 315.183804,56.3279595 C315.183804,59.544327 317.561854,61.1976 321.414897,61.1976 C325.629163,61.1976 328.398538,59.2737914 329.69292,56.7788521 Z" id="Athena-Copy"></path>
                </g>
            </g>
        </g>
    </g>
</svg>