<svg width="132" height="52" viewBox="0 0 132 52" fill="none" xmlns="http://www.w3.org/2000/svg">
<g clip-path="url(#clip0)">
<path opacity="0.2" d="M89.6723 13.2469H58.0889L42.6068 14.0806H33.8749L30.1592 10.3752L27.3105 6.54619L43.288 1.51294H58.4914L77.5963 6.20653L89.6723 11.3942V13.2469Z" fill="#2781FF"/>
<path opacity="0.2" d="M109.52 30.8789C110.595 32.5587 111.175 34.5062 111.192 36.4989C111.184 39.2452 110.084 41.8763 108.134 43.8153C106.184 45.7544 103.542 46.8433 100.788 46.8433C98.7969 46.8457 96.8484 46.266 95.1838 45.1758C96.114 46.6362 97.3996 47.8381 98.9209 48.6696C100.442 49.5011 102.15 49.9351 103.885 49.9312C106.13 49.939 108.317 49.2201 110.118 47.8826C111.918 46.545 113.235 44.661 113.87 42.5135C114.505 40.366 114.425 38.0709 113.64 35.9729C112.856 33.875 111.41 32.0875 109.52 30.8789Z" fill="#2781FF"/>
<path opacity="0.2" d="M32.1098 30.8789C33.1847 32.5587 33.7642 34.5062 33.7819 36.4989C33.7737 39.2452 32.6739 41.8763 30.7237 43.8153C28.7735 45.7544 26.1319 46.8433 23.3779 46.8433C21.3865 46.8457 19.438 46.266 17.7734 45.1758C18.7036 46.6362 19.9892 47.8381 21.5105 48.6696C23.0319 49.5011 24.7395 49.9351 26.4744 49.9312C28.7195 49.939 30.9066 49.2201 32.7072 47.8826C34.5077 46.545 35.8245 44.661 36.4597 42.5135C37.0949 40.366 37.0143 38.0709 36.2299 35.9729C35.4456 33.875 33.9998 32.0875 32.1098 30.8789Z" fill="#2781FF"/>
<path d="M123.052 19.3914C114.337 16.1142 105.245 13.9359 95.989 12.9068C93.7905 11.7334 72.0227 -0.185822 54.3732 -0.000548331C34.5871 -0.000548331 26.6913 4.84743 20.901 8.36763L19.0122 9.51014C16.5514 10.9956 13.8115 11.9624 10.9615 12.351L4.14939 13.2156C3.02628 13.3488 1.98883 13.8809 1.22689 14.7144C0.464954 15.548 0.0294923 16.6273 0.000200946 17.7548V34.4911C-0.0105649 36.0109 0.411462 37.5025 1.21722 38.7926C2.02297 40.0826 3.17935 41.1181 4.55193 41.7786L8.76304 43.8474C10.6868 44.8064 12.8052 45.3134 14.9559 45.3296H15.4823C16.5157 47.3688 18.096 49.0822 20.0475 50.2793C21.9991 51.4763 24.2453 52.1101 26.5364 52.1101C28.8276 52.1101 31.0738 51.4763 33.0253 50.2793C34.9769 49.0822 36.5572 47.3688 37.5906 45.3296H92.8925C93.9259 47.3688 95.5063 49.0822 97.4578 50.2793C99.4094 51.4763 101.656 52.1101 103.947 52.1101C106.238 52.1101 108.484 51.4763 110.436 50.2793C112.387 49.0822 113.967 47.3688 115.001 45.3296H127.17C128.47 45.3215 129.714 44.8006 130.631 43.8807C131.548 42.9609 132.062 41.7167 132.062 40.4199V32.0517C132.055 29.272 131.184 26.5627 129.571 24.2959C127.958 22.0291 125.68 20.3158 123.052 19.3914ZM52.3295 12.351H35.1754C34.5127 12.3432 33.8792 12.0772 33.4105 11.6099L29.1374 7.44126C36.505 4.48046 44.3867 3.00081 52.3295 3.08734V12.351ZM55.426 3.08734C66.8517 3.24173 80.414 8.76905 88.186 12.351H85.3992H55.426V3.08734ZM26.4745 48.9116C24.5944 48.9116 22.7565 48.3556 21.1933 47.3139C19.63 46.2723 18.4116 44.7917 17.6921 43.0595C16.9726 41.3273 16.7844 39.4213 17.1512 37.5824C17.518 35.7434 18.4233 34.0543 19.7528 32.7285C21.0822 31.4028 22.776 30.4999 24.62 30.1341C26.464 29.7683 28.3753 29.9561 30.1123 30.6736C31.8493 31.3911 33.3339 32.6061 34.3785 34.1651C35.423 35.724 35.9805 37.5568 35.9805 39.4318C35.9723 41.9435 34.9682 44.35 33.1872 46.126C31.4063 47.9021 28.9931 48.9034 26.4745 48.9116ZM26.4745 26.8641C23.1322 26.8641 19.9267 28.1882 17.5633 30.5451C15.1999 32.902 13.8721 36.0986 13.8721 39.4318C13.8798 40.3357 13.9836 41.2362 14.1818 42.1182C12.7764 42.0429 11.3989 41.6969 10.1255 41.0992L5.91435 39.0303C5.06509 38.6134 4.35054 37.9666 3.85229 37.164C3.35404 36.3613 3.09218 35.4351 3.09661 34.4911V23.0042H9.44425C9.85486 23.0042 10.2487 22.8415 10.539 22.552C10.8293 22.2625 10.9925 21.8697 10.9925 21.4603C10.9925 21.0508 10.8293 20.6581 10.539 20.3685C10.2487 20.079 9.85486 19.9163 9.44425 19.9163H3.09661V17.7548C3.10061 17.361 3.24683 16.9819 3.50845 16.687C3.77007 16.3921 4.12956 16.2011 4.52096 16.1491L11.364 15.4389C14.639 15.0512 17.8 14.0004 20.6533 12.351C21.3035 11.9805 21.9538 11.6099 22.604 11.1776C23.7187 10.4983 24.9263 9.78805 26.2887 9.04696L31.3049 14.0493C32.3718 14.985 33.7553 15.4817 35.1754 15.4389H52.3295V42.18H38.7363C38.9574 41.2594 39.0717 40.3166 39.0769 39.37C39.0605 36.0476 37.7256 32.8668 35.3639 30.5232C33.0023 28.1796 29.8062 26.864 26.4745 26.8641ZM103.885 48.9116C102.005 48.9116 100.167 48.3556 98.6036 47.3139C97.0403 46.2723 95.8219 44.7917 95.1024 43.0595C94.3829 41.3273 94.1947 39.4213 94.5615 37.5824C94.9283 35.7434 95.8336 34.0543 97.1631 32.7285C98.4925 31.4028 100.186 30.4999 102.03 30.1341C103.874 29.7683 105.786 29.9561 107.523 30.6736C109.26 31.3911 110.744 32.6061 111.789 34.1651C112.833 35.724 113.391 37.5568 113.391 39.4318C113.383 41.9435 112.378 44.35 110.598 46.126C108.817 47.9021 106.403 48.9034 103.885 48.9116ZM128.904 40.4199C128.904 40.8978 128.716 41.3566 128.38 41.6973C128.044 42.0381 127.587 42.2337 127.108 42.2417H116.147C116.368 41.3212 116.482 40.3784 116.487 39.4318C116.487 36.0986 115.159 32.902 112.796 30.5451C110.433 28.1882 107.227 26.8641 103.885 26.8641C100.542 26.8641 97.337 28.1882 94.9736 30.5451C92.6102 32.902 91.2824 36.0986 91.2824 39.4318C91.2876 40.3784 91.4019 41.3212 91.623 42.2417H55.426V15.4389H85.3992C97.92 15.4696 110.328 17.8041 121.999 22.3249C124.018 23.0343 125.766 24.3508 127.003 26.093C128.239 27.8352 128.904 29.9172 128.904 32.0517V40.4199Z" fill="#2781FF"/>
<path d="M70.3507 19.9167H65.4584C65.0478 19.9167 64.654 20.0794 64.3636 20.369C64.0733 20.6585 63.9102 21.0512 63.9102 21.4607C63.9102 21.8702 64.0733 22.2629 64.3636 22.5524C64.654 22.842 65.0478 23.0046 65.4584 23.0046H70.3507C70.7613 23.0046 71.1551 22.842 71.4454 22.5524C71.7358 22.2629 71.8989 21.8702 71.8989 21.4607C71.8989 21.0512 71.7358 20.6585 71.4454 20.369C71.1551 20.0794 70.7613 19.9167 70.3507 19.9167Z" fill="#2781FF"/>
</g>
<defs>
<clipPath id="clip0">
<rect width="132" height="52" fill="white"/>
</clipPath>
</defs>
</svg>
