<svg width="17" height="18" viewBox="0 0 17 18" fill="none" xmlns="http://www.w3.org/2000/svg">
<g clip-path="url(#clip0)">
<g clip-path="url(#clip1)">
<mask id="path-1-inside-1" fill="white">
<path d="M16.314 1.44H13.089V0.36C13.089 0.264522 13.055 0.172955 12.9945 0.105442C12.934 0.0379285 12.852 0 12.7665 0C12.6809 0 12.5989 0.0379285 12.5384 0.105442C12.478 0.172955 12.444 0.264522 12.444 0.36V1.44H5.34898V0.36C5.34898 0.264522 5.315 0.172955 5.25452 0.105442C5.19404 0.0379285 5.11201 0 5.02648 0C4.94095 0 4.85892 0.0379285 4.79844 0.105442C4.73796 0.172955 4.70398 0.264522 4.70398 0.36V1.44H1.47898C1.30792 1.44 1.14386 1.51586 1.0229 1.65088C0.90194 1.78591 0.833984 1.96904 0.833984 2.16L0.833984 16.56C0.833984 16.751 0.90194 16.9341 1.0229 17.0691C1.14386 17.2041 1.30792 17.28 1.47898 17.28H16.314C16.485 17.28 16.6491 17.2041 16.7701 17.0691C16.891 16.9341 16.959 16.751 16.959 16.56V2.16C16.959 1.96904 16.891 1.78591 16.7701 1.65088C16.6491 1.51586 16.485 1.44 16.314 1.44V1.44ZM16.314 16.56H1.47898V5.76H16.314V16.56ZM16.314 5.04H1.47898V2.16H16.314V5.04Z"/>
</mask>
<path d="M16.314 1.44H13.089V0.36C13.089 0.264522 13.055 0.172955 12.9945 0.105442C12.934 0.0379285 12.852 0 12.7665 0C12.6809 0 12.5989 0.0379285 12.5384 0.105442C12.478 0.172955 12.444 0.264522 12.444 0.36V1.44H5.34898V0.36C5.34898 0.264522 5.315 0.172955 5.25452 0.105442C5.19404 0.0379285 5.11201 0 5.02648 0C4.94095 0 4.85892 0.0379285 4.79844 0.105442C4.73796 0.172955 4.70398 0.264522 4.70398 0.36V1.44H1.47898C1.30792 1.44 1.14386 1.51586 1.0229 1.65088C0.90194 1.78591 0.833984 1.96904 0.833984 2.16L0.833984 16.56C0.833984 16.751 0.90194 16.9341 1.0229 17.0691C1.14386 17.2041 1.30792 17.28 1.47898 17.28H16.314C16.485 17.28 16.6491 17.2041 16.7701 17.0691C16.891 16.9341 16.959 16.751 16.959 16.56V2.16C16.959 1.96904 16.891 1.78591 16.7701 1.65088C16.6491 1.51586 16.485 1.44 16.314 1.44V1.44ZM16.314 16.56H1.47898V5.76H16.314V16.56ZM16.314 5.04H1.47898V2.16H16.314V5.04Z" fill="#939A9C"/>
<path d="M13.089 1.44H9.08898V5.44H13.089V1.44ZM12.7665 0L12.7665 -4L12.7665 0ZM12.444 1.44V5.44H16.444V1.44H12.444ZM5.34898 1.44H1.34898V5.44H5.34898V1.44ZM5.02648 0L5.02648 -4L5.02648 0ZM4.70398 1.44V5.44H8.70398V1.44H4.70398ZM1.47898 1.44L1.47898 -2.56L1.47898 1.44ZM0.833984 2.16H-3.16602H0.833984ZM0.833984 16.56L-3.16602 16.56L0.833984 16.56ZM16.314 16.56V20.56H20.314V16.56H16.314ZM1.47898 16.56H-2.52102V20.56H1.47898V16.56ZM1.47898 5.76V1.76H-2.52102V5.76H1.47898ZM16.314 5.76H20.314V1.76H16.314V5.76ZM16.314 5.04V9.04H20.314V5.04H16.314ZM1.47898 5.04H-2.52102V9.04H1.47898V5.04ZM1.47898 2.16V-1.84H-2.52102V2.16H1.47898ZM16.314 2.16H20.314V-1.84H16.314V2.16ZM16.314 -2.56H13.089V5.44H16.314V-2.56ZM17.089 1.44V0.36H9.08898V1.44H17.089ZM17.089 0.36C17.089 -0.662982 16.7289 -1.72067 15.9739 -2.56355L10.0152 2.77443C9.38106 2.06658 9.08898 1.19203 9.08898 0.36H17.089ZM15.9739 -2.56355C15.2058 -3.42088 14.0637 -4 12.7665 -4L12.7665 4C11.6403 4 10.6622 3.49674 10.0152 2.77443L15.9739 -2.56355ZM12.7665 -4C11.4692 -4 10.3271 -3.42088 9.5591 -2.56355L15.5178 2.77443C14.8707 3.49674 13.8927 4 12.7665 4L12.7665 -4ZM9.5591 -2.56355C8.80401 -1.72067 8.44398 -0.662982 8.44398 0.36H16.444C16.444 1.19203 16.1519 2.06658 15.5178 2.77443L9.5591 -2.56355ZM8.44398 0.36V1.44H16.444V0.36H8.44398ZM12.444 -2.56H5.34898V5.44H12.444V-2.56ZM9.34898 1.44V0.36H1.34898V1.44H9.34898ZM9.34898 0.36C9.34898 -0.662991 8.98894 -1.72068 8.23387 -2.56355L2.27518 2.77443C1.64107 2.06659 1.34898 1.19204 1.34898 0.36H9.34898ZM8.23387 -2.56355C7.46584 -3.42088 6.32376 -4 5.02648 -4L5.02648 4C3.90027 4 2.92224 3.49673 2.27518 2.77443L8.23387 -2.56355ZM5.02648 -4C3.72921 -4 2.58712 -3.42088 1.8191 -2.56355L7.77778 2.77443C7.13072 3.49673 6.15269 4 5.02648 4L5.02648 -4ZM1.8191 -2.56355C1.06402 -1.72068 0.703983 -0.662991 0.703983 0.36H8.70398C8.70398 1.19204 8.4119 2.06659 7.77778 2.77443L1.8191 -2.56355ZM0.703983 0.36V1.44H8.70398V0.36H0.703983ZM4.70398 -2.56H1.47898V5.44H4.70398V-2.56ZM1.47898 -2.56C0.0961795 -2.56 -1.12794 -1.94295 -1.95644 -1.01811L4.00224 4.31988C3.41566 4.97466 2.51966 5.44 1.47898 5.44L1.47898 -2.56ZM-1.95644 -1.01811C-2.772 -0.10772 -3.16602 1.04153 -3.16602 2.16L4.83398 2.16C4.83398 2.89656 4.57588 3.67954 4.00224 4.31988L-1.95644 -1.01811ZM-3.16602 2.16V16.56H4.83398V2.16H-3.16602ZM-3.16602 16.56C-3.16602 17.6785 -2.772 18.8277 -1.95644 19.7381L4.00224 14.4001C4.57588 15.0405 4.83398 15.8234 4.83398 16.56L-3.16602 16.56ZM-1.95644 19.7381C-1.12793 20.663 0.0961872 21.28 1.47898 21.28V13.28C2.51965 13.28 3.41566 13.7453 4.00224 14.4001L-1.95644 19.7381ZM1.47898 21.28H16.314V13.28H1.47898V21.28ZM16.314 21.28C17.6968 21.28 18.9209 20.663 19.7494 19.7381L13.7907 14.4001C14.3773 13.7453 15.2733 13.28 16.314 13.28V21.28ZM19.7494 19.7381C20.565 18.8277 20.959 17.6785 20.959 16.56H12.959C12.959 15.8235 13.2171 15.0405 13.7907 14.4001L19.7494 19.7381ZM20.959 16.56V2.16H12.959V16.56H20.959ZM20.959 2.16C20.959 1.04154 20.565 -0.107715 19.7494 -1.01811L13.7907 4.31988C13.2171 3.67953 12.959 2.89655 12.959 2.16H20.959ZM19.7494 -1.01811C18.9209 -1.94295 17.6968 -2.56 16.314 -2.56L16.314 5.44C15.2733 5.44 14.3773 4.97467 13.7907 4.31988L19.7494 -1.01811ZM16.314 12.56H1.47898V20.56H16.314V12.56ZM5.47898 16.56V5.76H-2.52102V16.56H5.47898ZM1.47898 9.76H16.314V1.76H1.47898V9.76ZM12.314 5.76V16.56H20.314V5.76H12.314ZM16.314 1.04H1.47898V9.04H16.314V1.04ZM5.47898 5.04V2.16H-2.52102V5.04H5.47898ZM1.47898 6.16H16.314V-1.84H1.47898V6.16ZM12.314 2.16V5.04H20.314V2.16H12.314Z" fill="#939A9C" mask="url(#path-1-inside-1)"/>
<mask id="path-3-inside-2" fill="white">
<path d="M6.96117 11.52H8.57367V13.32C8.57367 13.4155 8.60765 13.5071 8.66813 13.5746C8.72861 13.6421 8.81064 13.68 8.89617 13.68C8.9817 13.68 9.06373 13.6421 9.12421 13.5746C9.18469 13.5071 9.21867 13.4155 9.21867 13.32V11.52H10.8312C10.9167 11.52 10.9987 11.4821 11.0592 11.4146C11.1197 11.3471 11.1537 11.2555 11.1537 11.16C11.1537 11.0645 11.1197 10.973 11.0592 10.9055C10.9987 10.8379 10.9167 10.8 10.8312 10.8H9.21867V9.00001C9.21867 8.90454 9.18469 8.81297 9.12421 8.74546C9.06373 8.67794 8.9817 8.64001 8.89617 8.64001C8.81064 8.64001 8.72861 8.67794 8.66813 8.74546C8.60765 8.81297 8.57367 8.90454 8.57367 9.00001V10.8H6.96117C6.87564 10.8 6.79361 10.8379 6.73313 10.9055C6.67265 10.973 6.63867 11.0645 6.63867 11.16C6.63867 11.2555 6.67265 11.3471 6.73313 11.4146C6.79361 11.4821 6.87564 11.52 6.96117 11.52Z"/>
</mask>
<path d="M6.96117 11.52H8.57367V13.32C8.57367 13.4155 8.60765 13.5071 8.66813 13.5746C8.72861 13.6421 8.81064 13.68 8.89617 13.68C8.9817 13.68 9.06373 13.6421 9.12421 13.5746C9.18469 13.5071 9.21867 13.4155 9.21867 13.32V11.52H10.8312C10.9167 11.52 10.9987 11.4821 11.0592 11.4146C11.1197 11.3471 11.1537 11.2555 11.1537 11.16C11.1537 11.0645 11.1197 10.973 11.0592 10.9055C10.9987 10.8379 10.9167 10.8 10.8312 10.8H9.21867V9.00001C9.21867 8.90454 9.18469 8.81297 9.12421 8.74546C9.06373 8.67794 8.9817 8.64001 8.89617 8.64001C8.81064 8.64001 8.72861 8.67794 8.66813 8.74546C8.60765 8.81297 8.57367 8.90454 8.57367 9.00001V10.8H6.96117C6.87564 10.8 6.79361 10.8379 6.73313 10.9055C6.67265 10.973 6.63867 11.0645 6.63867 11.16C6.63867 11.2555 6.67265 11.3471 6.73313 11.4146C6.79361 11.4821 6.87564 11.52 6.96117 11.52Z" fill="#939A9C"/>
<path d="M8.57367 11.52H12.5737V7.52001H8.57367V11.52ZM9.21867 11.52V7.52001H5.21867V11.52H9.21867ZM9.21867 10.8H5.21867V14.8H9.21867V10.8ZM8.57367 10.8V14.8H12.5737V10.8H8.57367ZM6.96117 15.52H8.57367V7.52001H6.96117V15.52ZM4.57367 11.52V13.32H12.5737V11.52H4.57367ZM4.57367 13.32C4.57367 14.343 4.9337 15.4007 5.68879 16.2436L11.6475 10.9056C12.2816 11.6134 12.5737 12.488 12.5737 13.32H4.57367ZM5.68879 16.2436C6.45682 17.1009 7.59891 17.68 8.89617 17.68V9.68001C10.0224 9.68001 11.0004 10.1833 11.6475 10.9056L5.68879 16.2436ZM8.89617 17.68C10.1934 17.68 11.3355 17.1009 12.1036 16.2436L6.14487 10.9056C6.79194 10.1833 7.76998 9.68001 8.89617 9.68001V17.68ZM12.1036 16.2436C12.8586 15.4007 13.2187 14.343 13.2187 13.32H5.21867C5.21867 12.488 5.51075 11.6134 6.14487 10.9056L12.1036 16.2436ZM13.2187 13.32V11.52H5.21867V13.32H13.2187ZM9.21867 15.52H10.8312V7.52001H9.21867V15.52ZM10.8312 15.52C12.1284 15.52 13.2705 14.9409 14.0386 14.0836L8.07987 8.74558C8.72694 8.02327 9.70497 7.52001 10.8312 7.52001V15.52ZM14.0386 14.0836C14.7936 13.2407 15.1537 12.183 15.1537 11.16H7.15367C7.15367 10.328 7.44575 9.45344 8.07987 8.74558L14.0386 14.0836ZM15.1537 11.16C15.1537 10.137 14.7936 9.07935 14.0386 8.23646L8.07987 13.5744C7.44575 12.8666 7.15367 11.992 7.15367 11.16H15.1537ZM14.0386 8.23646C13.2705 7.37913 12.1284 6.80001 10.8312 6.80001V14.8C9.70497 14.8 8.72694 14.2968 8.07987 13.5744L14.0386 8.23646ZM10.8312 6.80001H9.21867V14.8H10.8312V6.80001ZM13.2187 10.8V9.00001H5.21867V10.8H13.2187ZM13.2187 9.00001C13.2187 7.97704 12.8586 6.91935 12.1036 6.07646L6.14487 11.4144C5.51075 10.7066 5.21867 9.83204 5.21867 9.00001H13.2187ZM12.1036 6.07646C11.3355 5.21913 10.1934 4.64001 8.89617 4.64001V12.64C7.76998 12.64 6.79194 12.1368 6.14487 11.4144L12.1036 6.07646ZM8.89617 4.64001C7.59891 4.64001 6.45682 5.21913 5.68879 6.07646L11.6475 11.4144C11.0004 12.1368 10.0224 12.64 8.89617 12.64V4.64001ZM5.68879 6.07646C4.9337 6.91935 4.57367 7.97704 4.57367 9.00001H12.5737C12.5737 9.83204 12.2816 10.7066 11.6475 11.4144L5.68879 6.07646ZM4.57367 9.00001V10.8H12.5737V9.00001H4.57367ZM8.57367 6.80001H6.96117V14.8H8.57367V6.80001ZM6.96117 6.80001C5.66391 6.80001 4.52182 7.37913 3.75379 8.23646L9.71247 13.5744C9.0654 14.2968 8.08737 14.8 6.96117 14.8V6.80001ZM3.75379 8.23646C2.9987 9.07935 2.63867 10.137 2.63867 11.16H10.6387C10.6387 11.992 10.3466 12.8666 9.71247 13.5744L3.75379 8.23646ZM2.63867 11.16C2.63867 12.183 2.9987 13.2407 3.75379 14.0836L9.71247 8.74558C10.3466 9.45344 10.6387 10.328 10.6387 11.16H2.63867ZM3.75379 14.0836C4.52182 14.9409 5.66391 15.52 6.96117 15.52V7.52001C8.08737 7.52001 9.0654 8.02327 9.71247 8.74558L3.75379 14.0836Z" fill="#939A9C" mask="url(#path-3-inside-2)"/>
</g>
</g>
<defs>
<clipPath id="clip0">
<rect width="16.125" height="18" fill="white" transform="translate(0.833984)"/>
</clipPath>
<clipPath id="clip1">
<rect width="16.125" height="18" fill="white" transform="translate(0.833984)"/>
</clipPath>
</defs>
</svg>
