<svg width="762" height="462" viewBox="0 0 762 462" fill="none" xmlns="http://www.w3.org/2000/svg">
<path d="M226.079 451.294H226.628L226.598 450.082L227.615 450.724L227.88 450.235L226.811 449.686L227.88 449.116L227.615 448.637L226.577 449.268L226.628 448.067H226.079L226.119 449.268L225.102 448.637L224.807 449.116L225.885 449.686L224.817 450.235L225.102 450.724L226.119 450.082L226.079 451.294ZM233.602 452.728C233.602 451.314 232.676 450.276 231.322 450.276C229.908 450.276 228.88 451.324 228.88 452.82C228.88 454.336 229.918 455.354 231.383 455.354C232.381 455.354 233.001 454.977 233.429 454.428L232.849 453.939C232.544 454.316 232.075 454.601 231.414 454.601C230.478 454.601 229.826 453.99 229.714 453.064H233.582C233.582 453.003 233.602 452.861 233.602 452.728ZM231.312 451.029C232.126 451.029 232.655 451.578 232.778 452.393H229.735C229.887 451.548 230.518 451.029 231.312 451.029ZM234.114 455.293H235.04L236.393 453.492H236.403L237.747 455.293H238.683L236.871 452.789L238.663 450.337H237.696L236.393 452.148H236.373L235.09 450.337H234.114L235.915 452.779L234.114 455.293ZM241.548 455.354C242.352 455.354 242.962 454.988 243.319 454.397H243.329V455.293H244.123V450.337H243.298V451.212L243.278 451.222C242.922 450.622 242.281 450.276 241.548 450.276C240.143 450.276 239.136 451.385 239.136 452.851C239.136 454.357 240.184 455.354 241.548 455.354ZM241.67 454.601C240.652 454.601 239.97 453.848 239.97 452.851C239.97 451.751 240.734 451.029 241.67 451.029C242.647 451.029 243.329 451.833 243.329 452.851C243.329 453.899 242.586 454.601 241.67 454.601ZM245.603 455.293H246.428V452.83C246.428 451.721 247.038 451.029 247.852 451.029C248.595 451.029 249.002 451.609 249.002 452.667V455.293H249.827V452.83C249.827 451.721 250.448 451.029 251.221 451.029C251.974 451.029 252.351 451.609 252.351 452.667V455.293H253.175V452.443C253.175 451.029 252.564 450.276 251.465 450.276C250.692 450.276 250.02 450.663 249.644 451.334H249.633C249.379 450.652 248.84 450.276 248.097 450.276C247.435 450.276 246.814 450.632 246.438 451.232H246.428V450.337H245.603V455.293ZM254.607 457.308H255.432V454.438H255.442C255.808 455.008 256.419 455.354 257.202 455.354C258.566 455.354 259.614 454.357 259.614 452.851C259.614 451.385 258.607 450.276 257.202 450.276C256.449 450.276 255.818 450.622 255.442 451.212H255.432V450.337H254.607V457.308ZM257.091 454.601C256.144 454.601 255.391 453.899 255.391 452.851C255.391 451.833 256.073 451.029 257.08 451.029C258.017 451.029 258.78 451.751 258.78 452.851C258.78 453.848 258.088 454.601 257.091 454.601ZM260.92 455.293H261.744V447.803H260.92V455.293ZM267.76 452.728C267.76 451.314 266.834 450.276 265.48 450.276C264.065 450.276 263.038 451.324 263.038 452.82C263.038 454.336 264.076 455.354 265.541 455.354C266.538 455.354 267.159 454.977 267.587 454.428L267.007 453.939C266.701 454.316 266.233 454.601 265.572 454.601C264.635 454.601 263.984 453.99 263.872 453.064H267.739C267.739 453.003 267.76 452.861 267.76 452.728ZM265.47 451.029C266.284 451.029 266.813 451.578 266.935 452.393H263.892C264.045 451.548 264.676 451.029 265.47 451.029ZM273.848 455.354C274.651 455.354 275.282 454.977 275.639 454.377H275.649V455.293H276.443V447.803H275.618V451.222H275.608C275.232 450.622 274.59 450.276 273.837 450.276C272.443 450.276 271.415 451.385 271.415 452.851C271.415 454.357 272.474 455.354 273.848 455.354ZM273.959 454.601C272.952 454.601 272.26 453.848 272.26 452.851C272.26 451.751 273.023 451.029 273.97 451.029C274.967 451.029 275.649 451.833 275.649 452.851C275.649 453.899 274.896 454.601 273.959 454.601ZM280.068 455.354C280.872 455.354 281.483 454.988 281.839 454.397H281.849V455.293H282.643V450.337H281.819V451.212L281.798 451.222C281.442 450.622 280.801 450.276 280.068 450.276C278.664 450.276 277.656 451.385 277.656 452.851C277.656 454.357 278.705 455.354 280.068 455.354ZM280.19 454.601C279.173 454.601 278.491 453.848 278.491 452.851C278.491 451.751 279.254 451.029 280.19 451.029C281.167 451.029 281.849 451.833 281.849 452.851C281.849 453.899 281.106 454.601 280.19 454.601ZM285.62 455.354C286.811 455.354 287.401 454.713 287.401 453.939C287.411 452.973 286.719 452.789 285.671 452.382C285.131 452.189 284.735 451.996 284.735 451.609C284.735 451.232 285.111 451.009 285.498 451.009C285.925 451.009 286.383 451.141 286.811 451.538L287.238 450.886C286.689 450.439 286.129 450.276 285.528 450.276C284.592 450.276 283.9 450.846 283.9 451.609C283.9 452.515 284.582 452.84 285.386 453.125C286.108 453.39 286.566 453.512 286.566 453.95C286.566 454.326 286.22 454.621 285.62 454.621C284.928 454.621 284.49 454.397 284.104 454.021L283.686 454.652C284.165 455.069 284.796 455.354 285.62 455.354ZM288.566 455.293H289.391V452.8C289.391 451.68 290.001 451.029 290.988 451.029C291.711 451.029 292.21 451.436 292.21 452.555V455.293H293.034V452.321C293.034 450.907 292.301 450.276 291.233 450.276C290.439 450.276 289.788 450.612 289.401 451.202H289.391V447.803H288.566V455.293ZM297.075 455.354C298.438 455.354 299.487 454.357 299.487 452.851C299.487 451.385 298.479 450.276 297.075 450.276C296.322 450.276 295.691 450.612 295.314 451.202H295.304V447.803H294.48V455.293H295.263V454.397H295.284C295.65 454.988 296.261 455.354 297.075 455.354ZM296.963 454.601C296.016 454.601 295.263 453.899 295.263 452.851C295.263 451.833 295.945 451.029 296.953 451.029C297.889 451.029 298.652 451.751 298.652 452.851C298.652 453.848 297.96 454.601 296.963 454.601ZM302.98 455.354C304.445 455.354 305.534 454.326 305.534 452.82C305.534 451.314 304.445 450.276 302.98 450.276C301.443 450.276 300.415 451.395 300.415 452.82C300.415 454.245 301.443 455.354 302.98 455.354ZM302.98 454.601C301.952 454.601 301.26 453.807 301.26 452.82C301.26 451.833 301.942 451.029 302.98 451.029C303.936 451.029 304.69 451.762 304.69 452.82C304.69 453.878 303.926 454.601 302.98 454.601ZM308.849 455.354C309.653 455.354 310.264 454.988 310.62 454.397H310.63V455.293H311.424V450.337H310.6V451.212L310.58 451.222C310.223 450.622 309.582 450.276 308.849 450.276C307.445 450.276 306.438 451.385 306.438 452.851C306.438 454.357 307.486 455.354 308.849 455.354ZM308.972 454.601C307.954 454.601 307.272 453.848 307.272 452.851C307.272 451.751 308.035 451.029 308.972 451.029C309.949 451.029 310.63 451.833 310.63 452.851C310.63 453.899 309.888 454.601 308.972 454.601ZM312.905 455.293H313.729V452.901C313.729 451.904 314.289 451.182 315.236 451.182C315.317 451.182 315.439 451.192 315.561 451.202V450.286C315.49 450.276 315.429 450.276 315.358 450.276C314.676 450.276 314.106 450.642 313.75 451.243H313.729V450.337H312.905V455.293ZM318.45 455.354C319.254 455.354 319.885 454.977 320.241 454.377H320.252V455.293H321.045V447.803H320.221V451.222H320.211C319.834 450.622 319.193 450.276 318.44 450.276C317.046 450.276 316.018 451.385 316.018 452.851C316.018 454.357 317.076 455.354 318.45 455.354ZM318.562 454.601C317.555 454.601 316.863 453.848 316.863 452.851C316.863 451.751 317.626 451.029 318.572 451.029C319.57 451.029 320.252 451.833 320.252 452.851C320.252 453.899 319.499 454.601 318.562 454.601ZM324.081 455.354C325.272 455.354 325.862 454.713 325.862 453.939C325.872 452.973 325.18 452.789 324.132 452.382C323.592 452.189 323.196 451.996 323.196 451.609C323.196 451.232 323.572 451.009 323.959 451.009C324.386 451.009 324.844 451.141 325.272 451.538L325.699 450.886C325.149 450.439 324.59 450.276 323.989 450.276C323.053 450.276 322.361 450.846 322.361 451.609C322.361 452.515 323.043 452.84 323.847 453.125C324.569 453.39 325.027 453.512 325.027 453.95C325.027 454.326 324.681 454.621 324.081 454.621C323.389 454.621 322.951 454.397 322.565 454.021L322.147 454.652C322.626 455.069 323.257 455.354 324.081 455.354Z" fill="#939A9C"/>
<g filter="url(#filter0_d)">
<path d="M362.226 25.7846C362.226 22.6621 364.757 20.1309 367.88 20.1309H733.112C736.234 20.1309 738.766 22.6621 738.766 25.7846V421.547C738.766 424.67 736.234 427.201 733.112 427.201H367.88C364.757 427.201 362.226 424.67 362.226 421.547V25.7846Z" fill="white"/>
<path d="M367.88 21.6309H733.112C735.406 21.6309 737.266 23.4906 737.266 25.7846V421.547C737.266 423.841 735.406 425.701 733.112 425.701H367.88C365.586 425.701 363.726 423.841 363.726 421.547V25.7846C363.726 23.4906 365.586 21.6309 367.88 21.6309Z" stroke="white" stroke-width="3"/>
</g>
<g filter="url(#filter1_d)">
<rect x="23" y="19" width="305.302" height="407.018" rx="5.65375" fill="white"/>
</g>
<path d="M51.5318 64.1387H54.0465V59.7423H55.512L58.3886 64.1387H61.41L58.1896 59.4348C59.9626 58.8558 60.8672 57.517 60.8672 55.5631C60.8672 53.1026 59.4922 51.2934 56.3985 51.2934H51.5318V64.1387ZM54.0465 57.4989V53.5549H56.0005C57.4659 53.5549 58.2439 54.3328 58.2439 55.5269C58.2439 56.7029 57.4478 57.4989 55.8919 57.4989H54.0465ZM64.4906 54.0976C65.3409 54.0976 65.9922 53.4463 65.9922 52.6322C65.9922 51.8361 65.3409 51.1848 64.4906 51.1848C63.6222 51.1848 62.9889 51.8361 62.9889 52.6322C62.9889 53.4463 63.6222 54.0976 64.4906 54.0976ZM63.2784 64.1387H65.6485V55.2917H63.2784V64.1387ZM71.8438 64.3015C73.0379 64.3015 73.9606 63.8492 74.5757 63.0532H74.5938V64.1387H76.8553V50.823H74.5034V56.3229H74.4672C73.8159 55.5631 72.8751 55.165 71.7896 55.165C69.4195 55.165 67.6103 57.0647 67.6103 59.7423C67.6103 62.4742 69.4014 64.3015 71.8438 64.3015ZM72.278 62.1666C70.9573 62.1666 70.0165 61.1716 70.0165 59.7604C70.0165 58.2407 71.0116 57.2818 72.278 57.2818C73.6349 57.2818 74.5938 58.3311 74.5938 59.7604C74.5938 61.2078 73.5807 62.1666 72.278 62.1666ZM87.4442 59.6338C87.4442 57.0466 85.7074 55.165 83.2107 55.165C80.5874 55.165 78.7239 57.0104 78.7239 59.7061C78.7239 62.4742 80.6416 64.3015 83.3554 64.3015C85.3275 64.3015 86.4673 63.5778 87.209 62.6189L85.6712 61.1897C85.2008 61.7686 84.5133 62.1847 83.5183 62.1847C82.3242 62.1847 81.4739 61.5515 81.1844 60.4841H87.39C87.408 60.3394 87.4442 59.9232 87.4442 59.6338ZM83.1926 57.2275C84.2239 57.2275 84.8571 57.8427 85.0923 58.7834H81.2025C81.4739 57.7703 82.2337 57.2275 83.1926 57.2275ZM92.1416 64.3015C94.4574 64.3015 95.561 63.1074 95.561 61.5515C95.561 59.7966 94.4393 59.3805 92.5216 58.6749C91.6532 58.3492 91.219 58.0959 91.219 57.7341C91.219 57.2637 91.6893 57.0828 92.0512 57.0828C92.7025 57.0828 93.4985 57.3723 94.168 58.0236L95.3258 56.2687C94.3127 55.4907 93.3176 55.165 92.1055 55.165C90.2782 55.165 88.9032 56.1963 88.9032 57.7884C88.9032 59.5071 90.1696 60.1946 91.6351 60.6831C92.7749 61.063 93.2272 61.262 93.2272 61.642C93.2272 62.0762 92.8472 62.3657 92.1597 62.3657C91.1828 62.3657 90.4229 62.0219 89.6992 61.3525L88.5594 62.9989C89.5183 63.8311 90.7305 64.3015 92.1416 64.3015Z" fill="black"/>
<line x1="50.1387" y1="397.803" x2="301.165" y2="397.803" stroke="#F4F4F4" stroke-width="2.2615"/>
<line x1="50.1387" y1="344.091" x2="301.165" y2="344.091" stroke="#F4F4F4" stroke-width="1.13075"/>
<line x1="50.1387" y1="289.814" x2="301.165" y2="289.814" stroke="#F4F4F4" stroke-width="1.13075"/>
<line x1="50.1387" y1="235.54" x2="301.165" y2="235.54" stroke="#F4F4F4" stroke-width="1.13075"/>
<line x1="50.1387" y1="181.263" x2="301.165" y2="181.263" stroke="#F4F4F4" stroke-width="1.13075"/>
<line x1="50.1387" y1="126.987" x2="301.165" y2="126.987" stroke="#F4F4F4" stroke-width="1.13075"/>
<line x1="175.714" y1="95.8906" x2="175.714" y2="406.473" stroke="#FF0043" stroke-width="0.565375"/>
<line x1="60.3163" y1="397.17" x2="60.3163" y2="406.475" stroke="#F4F4F4" stroke-width="2.2615"/>
<line x1="123.069" y1="397.17" x2="123.069" y2="406.475" stroke="#F4F4F4" stroke-width="2.2615"/>
<line x1="234.824" y1="397.17" x2="234.824" y2="406.475" stroke="#F4F4F4" stroke-width="2.2615"/>
<line x1="175.679" y1="397.17" x2="175.679" y2="406.475" stroke="#F4F4F4" stroke-width="2.2615"/>
<line x1="293.815" y1="397.17" x2="293.815" y2="406.475" stroke="#F4F4F4" stroke-width="2.2615"/>
<path d="M299.384 126.979C289.784 129.274 270.585 126.979 248.673 153.273C229.934 175.76 226.827 290.38 190.516 290.38C184.789 290.38 179.12 286.358 174.477 281.623" stroke="#D8D8D8" stroke-width="2.2615" stroke-linecap="round" stroke-dasharray="3.39 6.78"/>
<path d="M52.7695 235.303C68.421 235.303 77.1859 177.393 110.68 177.393C138.892 177.393 150.939 257.563 175.736 282.851" stroke="#2781FF" stroke-width="2.2615" stroke-linecap="round"/>
<path d="M115.203 385.924H116.342L118.608 378.013H118.636L120.861 385.924H122.001L125.081 376.29H123.833L121.444 383.997H121.417L119.26 376.29H117.971L115.8 384.011H115.773L113.398 376.29H112.136L115.203 385.924ZM131.607 382.504C131.607 380.618 130.373 379.234 128.568 379.234C126.682 379.234 125.311 380.632 125.311 382.627C125.311 384.648 126.695 386.005 128.649 386.005C129.979 386.005 130.807 385.503 131.377 384.77L130.603 384.119C130.196 384.621 129.572 385.001 128.69 385.001C127.442 385.001 126.573 384.187 126.424 382.952H131.58C131.58 382.871 131.607 382.681 131.607 382.504ZM128.554 380.238C129.64 380.238 130.345 380.971 130.508 382.057H126.451C126.655 380.93 127.496 380.238 128.554 380.238Z" fill="#D8D8D8"/>
<path d="M228.692 385.924H229.873V381.826H234.079V380.754H229.873V377.362H234.839V376.29H228.692V385.924ZM236.136 385.924H237.235V382.735C237.235 381.405 237.981 380.442 239.243 380.442C239.352 380.442 239.514 380.456 239.677 380.469V379.248C239.582 379.234 239.501 379.234 239.406 379.234C238.497 379.234 237.737 379.723 237.262 380.523H237.235V379.316H236.136V385.924Z" fill="#D8D8D8"/>
<path d="M288.629 386.005C290.312 386.005 291.859 385.055 291.859 383.291C291.859 381.487 290.488 381.053 288.874 380.415C287.666 379.953 286.798 379.614 286.811 378.692C286.825 377.769 287.625 377.28 288.534 377.28C289.254 377.28 290.081 377.62 290.855 378.257L291.574 377.321C290.665 376.588 289.606 376.195 288.534 376.195C286.879 376.195 285.59 377.308 285.59 378.746C285.59 380.442 287.042 381.053 288.467 381.582C289.756 382.07 290.624 382.355 290.624 383.427C290.624 384.363 289.823 384.906 288.643 384.906C287.707 384.906 286.675 384.472 285.983 383.604L285.224 384.513C286.187 385.544 287.422 386.005 288.629 386.005ZM296.338 386.005C297.41 386.005 298.224 385.517 298.699 384.73H298.712V385.924H299.771V379.316H298.671V380.483L298.644 380.496C298.169 379.696 297.315 379.234 296.338 379.234C294.465 379.234 293.122 380.713 293.122 382.667C293.122 384.675 294.519 386.005 296.338 386.005ZM296.5 385.001C295.144 385.001 294.234 383.997 294.234 382.667C294.234 381.202 295.252 380.238 296.5 380.238C297.803 380.238 298.712 381.31 298.712 382.667C298.712 384.065 297.722 385.001 296.5 385.001Z" fill="#D8D8D8"/>
<path d="M56.0696 385.924H57.2501V377.362H60.1674V376.29H53.193V377.362H56.0696V385.924ZM62.4585 386.005C63.3269 386.005 64.141 385.571 64.6431 384.784H64.6567V385.924H65.7557V379.316H64.6567V382.518C64.6567 384.092 63.7475 385.001 62.6891 385.001C61.6443 385.001 61.0744 384.431 61.0744 382.939V379.316H59.9753V383.251C59.9753 385.137 60.9387 386.005 62.4585 386.005Z" fill="#D8D8D8"/>
<rect x="147.467" y="95.8906" width="56.5375" height="16.9612" rx="8.48062" fill="#FF0043"/>
<path d="M160.655 108.891H166.517V107.846H162.392L162.379 107.805L164.807 105.363C165.961 104.196 166.409 103.287 166.409 102.242C166.409 100.519 165.052 99.5009 163.559 99.5009C162.107 99.5009 161.171 100.234 160.655 101.265L161.497 101.848C161.931 101.007 162.609 100.573 163.491 100.573C164.522 100.573 165.242 101.333 165.242 102.364C165.242 103.287 164.617 104.033 163.83 104.847L160.642 108.104L160.655 108.891ZM168.737 108.986C169.185 108.986 169.538 108.633 169.538 108.185C169.538 107.737 169.185 107.384 168.737 107.384C168.29 107.384 167.923 107.737 167.923 108.185C167.923 108.633 168.29 108.986 168.737 108.986ZM170.859 108.891H176.72V107.846H172.595L172.582 107.805L175.011 105.363C176.164 104.196 176.612 103.287 176.612 102.242C176.612 100.519 175.255 99.5009 173.762 99.5009C172.31 99.5009 171.374 100.234 170.859 101.265L171.7 101.848C172.134 101.007 172.812 100.573 173.694 100.573C174.726 100.573 175.445 101.333 175.445 102.364C175.445 103.287 174.821 104.033 174.034 104.847L170.845 108.104L170.859 108.891ZM181.796 108.891H182.936V107.249H184.293V106.218H182.936V99.5687H181.973L177.468 106.435V107.249H181.796V108.891ZM178.798 106.245L181.837 101.509V106.245H178.798ZM185.02 99.5687V100.614H189.525L185.969 108.823L187.109 109.053L190.8 100.369V99.5687H185.02Z" fill="white"/>
<path d="M200.747 63.6621H202.936V52.7707H206.627V50.8168H197.111V52.7707H200.747V63.6621ZM208.683 63.6621H210.709V59.1753C210.709 57.4385 211.614 56.5339 213.079 56.5339C214.292 56.5339 214.997 57.149 214.997 58.9039V63.6621H217.023V58.3792C217.023 55.7378 215.667 54.7066 213.731 54.7066C212.537 54.7066 211.469 55.1227 210.727 55.9368H210.709V50.3464H208.683V63.6621ZM220.636 53.5306C221.396 53.5306 222.011 52.9155 222.011 52.1737C222.011 51.45 221.396 50.8349 220.636 50.8349C219.876 50.8349 219.279 51.45 219.279 52.1737C219.279 52.9155 219.876 53.5306 220.636 53.5306ZM219.623 63.6621H221.649V54.8332H219.623V63.6621ZM227.248 63.8068C229.491 63.8068 230.54 62.6128 230.54 61.1292C230.54 59.3743 229.364 59.0306 227.483 58.2888C226.632 57.9631 226.09 57.6556 226.09 57.2214C226.09 56.6786 226.651 56.4615 227.049 56.4615C227.736 56.4615 228.55 56.7329 229.256 57.4023L230.269 55.8102C229.292 55.0141 228.279 54.7066 227.157 54.7066C225.348 54.7066 224.045 55.7559 224.045 57.2033C224.045 58.9401 225.294 59.5914 226.741 60.098C227.899 60.496 228.478 60.7131 228.478 61.1654C228.478 61.6901 228.026 62.0338 227.248 62.0338C226.162 62.0338 225.402 61.6901 224.697 61.0026L223.683 62.5223C224.606 63.3365 225.818 63.8068 227.248 63.8068ZM239.492 63.6621H241.319L243.02 58.1079H243.038L244.739 63.6621H246.602L249.606 54.8332H247.561L245.698 60.695H245.662L243.889 54.8332H242.206L240.469 60.695H240.433L238.57 54.8332H236.489L239.492 63.6621ZM258.873 59.1391C258.873 56.57 257.19 54.7066 254.711 54.7066C252.124 54.7066 250.279 56.5339 250.279 59.2477C250.279 62.0157 252.179 63.8068 254.856 63.8068C256.756 63.8068 257.859 63.1013 258.601 62.1424L257.19 60.9302C256.738 61.4911 256.014 61.9615 254.965 61.9615C253.59 61.9615 252.631 61.2016 252.378 59.9171H258.818C258.836 59.7723 258.873 59.4648 258.873 59.1391ZM254.693 56.5339C255.851 56.5339 256.575 57.2575 256.828 58.325H252.414C252.703 57.1671 253.572 56.5339 254.693 56.5339ZM269.032 59.1391C269.032 56.57 267.349 54.7066 264.87 54.7066C262.283 54.7066 260.438 56.5339 260.438 59.2477C260.438 62.0157 262.338 63.8068 265.015 63.8068C266.915 63.8068 268.018 63.1013 268.76 62.1424L267.349 60.9302C266.897 61.4911 266.173 61.9615 265.124 61.9615C263.749 61.9615 262.79 61.2016 262.537 59.9171H268.977C268.995 59.7723 269.032 59.4648 269.032 59.1391ZM264.852 56.5339C266.01 56.5339 266.734 57.2575 266.987 58.325H262.573C262.862 57.1671 263.731 56.5339 264.852 56.5339ZM271.122 63.6621H273.148V61.3282L274.577 59.7723L276.947 63.6621H279.227L275.988 58.3792L279.173 54.8332H276.766L273.184 58.922L273.148 58.9039V50.3464H271.122V63.6621Z" fill="#2781FF"/>
<path d="M299.228 54.0534L294.841 58.4407L290.453 54.0534C290.242 53.8416 289.955 53.7227 289.656 53.7227C289.357 53.7227 289.07 53.8416 288.859 54.0534C288.418 54.4944 288.418 55.2067 288.859 55.6477L294.049 60.8379C294.49 61.2789 295.203 61.2789 295.644 60.8379L300.834 55.6477C301.275 55.2067 301.275 54.4944 300.834 54.0534C300.393 53.6237 299.669 53.6124 299.228 54.0534V54.0534Z" fill="#2781FF"/>
<path d="M396.781 65.3962C399.042 65.3962 400.779 64.3468 401.882 62.9718L400.019 61.3617C399.241 62.3205 398.119 62.9899 396.781 62.9899C394.483 62.9899 392.891 61.2712 392.891 58.8831C392.891 56.314 394.555 54.6857 396.744 54.6857C398.065 54.6857 399.151 55.3008 399.983 56.314L401.864 54.74C400.489 53.0574 398.59 52.2614 396.744 52.2614C392.583 52.2614 390.231 55.2104 390.231 58.8831C390.231 63.1166 393.198 65.3962 396.781 65.3962ZM409.837 65.4324C413.6 65.4324 416.368 62.7547 416.368 58.8469C416.368 54.9209 413.6 52.2614 409.837 52.2614C405.947 52.2614 403.288 55.0295 403.288 58.8469C403.288 62.6643 405.947 65.4324 409.837 65.4324ZM409.837 63.0442C407.521 63.0442 405.929 61.1807 405.929 58.8469C405.929 56.513 407.521 54.6495 409.837 54.6495C412.044 54.6495 413.709 56.4225 413.709 58.8469C413.709 61.2712 412.044 63.0442 409.837 63.0442ZM417.659 66.4636H422.906V64.781H420.337L420.318 64.7449L421.513 63.6593C422.634 62.6462 422.851 62.013 422.851 61.1626C422.851 59.7334 421.621 58.8831 420.264 58.8831C418.98 58.8831 418.039 59.5344 417.568 60.2942L418.962 61.3074C419.287 60.8008 419.776 60.6199 420.119 60.6199C420.59 60.6199 420.916 60.9275 420.916 61.3798C420.916 61.8501 420.59 62.2663 419.939 62.8995L417.623 65.2153L417.659 66.4636ZM437.41 60.7646C437.41 58.1775 435.674 56.2959 433.177 56.2959C430.554 56.2959 428.69 58.1413 428.69 60.837C428.69 63.6051 430.608 65.4324 433.322 65.4324C435.294 65.4324 436.434 64.7087 437.175 63.7498L435.637 62.3205C435.167 62.8995 434.48 63.3156 433.485 63.3156C432.29 63.3156 431.44 62.6824 431.151 61.6149H437.356C437.374 61.4702 437.41 61.0541 437.41 60.7646ZM433.159 58.3584C434.19 58.3584 434.823 58.9735 435.059 59.9143H431.169C431.44 58.9011 432.2 58.3584 433.159 58.3584ZM439.249 65.2695H441.619V60.8551C441.619 59.263 442.415 58.4127 443.483 58.4127C444.568 58.4127 445.039 59.2992 445.039 60.7103V65.2695H447.409V60.8551C447.409 59.263 448.223 58.4127 449.218 58.4127C450.322 58.4127 450.756 59.2992 450.756 60.7103V65.2695H453.126V60.1495C453.126 57.4357 451.914 56.2959 450.014 56.2959C448.748 56.2959 447.644 56.7663 446.92 57.689H446.884C446.36 56.7301 445.437 56.2959 444.279 56.2959C443.302 56.2959 442.343 56.7301 441.637 57.5804H441.619V56.4225H439.249V65.2695ZM456.666 55.2285C457.516 55.2285 458.167 54.5772 458.167 53.763C458.167 52.967 457.516 52.3157 456.666 52.3157C455.797 52.3157 455.164 52.967 455.164 53.763C455.164 54.5772 455.797 55.2285 456.666 55.2285ZM455.453 65.2695H457.823V56.4225H455.453V65.2695ZM463.15 65.4324C465.466 65.4324 466.57 64.2383 466.57 62.6824C466.57 60.9275 465.448 60.5113 463.53 59.8057C462.662 59.4801 462.228 59.2268 462.228 58.865C462.228 58.3946 462.698 58.2137 463.06 58.2137C463.711 58.2137 464.507 58.5031 465.177 59.1544L466.335 57.3995C465.321 56.6216 464.326 56.2959 463.114 56.2959C461.287 56.2959 459.912 57.3271 459.912 58.9192C459.912 60.638 461.178 61.3255 462.644 61.814C463.784 62.1939 464.236 62.3929 464.236 62.7728C464.236 63.207 463.856 63.4965 463.169 63.4965C462.192 63.4965 461.432 63.1528 460.708 62.4834L459.568 64.1297C460.527 64.962 461.739 65.4324 463.15 65.4324ZM471.207 65.4324C473.523 65.4324 474.626 64.2383 474.626 62.6824C474.626 60.9275 473.505 60.5113 471.587 59.8057C470.719 59.4801 470.284 59.2268 470.284 58.865C470.284 58.3946 470.755 58.2137 471.117 58.2137C471.768 58.2137 472.564 58.5031 473.233 59.1544L474.391 57.3995C473.378 56.6216 472.383 56.2959 471.171 56.2959C469.344 56.2959 467.969 57.3271 467.969 58.9192C467.969 60.638 469.235 61.3255 470.7 61.814C471.84 62.1939 472.293 62.3929 472.293 62.7728C472.293 63.207 471.913 63.4965 471.225 63.4965C470.248 63.4965 469.488 63.1528 468.765 62.4834L467.625 64.1297C468.584 64.962 469.796 65.4324 471.207 65.4324ZM477.726 55.2285C478.576 55.2285 479.227 54.5772 479.227 53.763C479.227 52.967 478.576 52.3157 477.726 52.3157C476.857 52.3157 476.224 52.967 476.224 53.763C476.224 54.5772 476.857 55.2285 477.726 55.2285ZM476.514 65.2695H478.884V56.4225H476.514V65.2695ZM485.568 65.4324C488.318 65.4324 490.253 63.5508 490.253 60.8551C490.253 58.1413 488.318 56.2959 485.568 56.2959C482.745 56.2959 480.864 58.2137 480.864 60.8551C480.864 63.4965 482.745 65.4324 485.568 65.4324ZM485.568 63.2975C484.211 63.2975 483.27 62.2301 483.27 60.8551C483.27 59.462 484.193 58.4127 485.568 58.4127C486.87 58.4127 487.847 59.4077 487.847 60.8551C487.847 62.3024 486.834 63.2975 485.568 63.2975ZM492.112 65.2695H494.482V60.837C494.482 59.2449 495.278 58.4127 496.472 58.4127C497.576 58.4127 498.173 58.9373 498.173 60.6199V65.2695H500.543V60.0229C500.543 57.3091 499.222 56.2959 497.34 56.2959C496.237 56.2959 495.224 56.7301 494.518 57.5623H494.482V56.4225H492.112V65.2695ZM505.607 65.4324C507.922 65.4324 509.026 64.2383 509.026 62.6824C509.026 60.9275 507.904 60.5113 505.986 59.8057C505.118 59.4801 504.684 59.2268 504.684 58.865C504.684 58.3946 505.154 58.2137 505.516 58.2137C506.167 58.2137 506.963 58.5031 507.633 59.1544L508.791 57.3995C507.778 56.6216 506.783 56.2959 505.57 56.2959C503.743 56.2959 502.368 57.3271 502.368 58.9192C502.368 60.638 503.635 61.3255 505.1 61.814C506.24 62.1939 506.692 62.3929 506.692 62.7728C506.692 63.207 506.312 63.4965 505.625 63.4965C504.648 63.4965 503.888 63.1528 503.164 62.4834L502.024 64.1297C502.983 64.962 504.195 65.4324 505.607 65.4324ZM393.397 87.4324C395.713 87.4324 396.817 86.2383 396.817 84.6824C396.817 82.9275 395.695 82.5113 393.777 81.8057C392.909 81.4801 392.475 81.2268 392.475 80.865C392.475 80.3946 392.945 80.2137 393.307 80.2137C393.958 80.2137 394.754 80.5031 395.424 81.1544L396.582 79.3995C395.568 78.6216 394.573 78.2959 393.361 78.2959C391.534 78.2959 390.159 79.3271 390.159 80.9192C390.159 82.638 391.425 83.3255 392.891 83.814C394.031 84.1939 394.483 84.3929 394.483 84.7728C394.483 85.207 394.103 85.4965 393.415 85.4965C392.438 85.4965 391.679 85.1528 390.955 84.4834L389.815 86.1297C390.774 86.962 391.986 87.4324 393.397 87.4324ZM402.128 87.4324C403.285 87.4324 404.172 86.9982 404.787 86.2021L404.823 86.2202V87.2695H407.085V78.4225H404.715V79.4357L404.679 79.4538C404.045 78.6939 403.105 78.2959 402.073 78.2959C399.703 78.2959 397.912 80.1956 397.912 82.8732C397.912 85.6051 399.703 87.4324 402.128 87.4324ZM402.58 85.2975C401.241 85.2975 400.318 84.3024 400.318 82.8913C400.318 81.3715 401.295 80.4127 402.58 80.4127C403.846 80.4127 404.823 81.462 404.823 82.8913C404.823 84.3386 403.792 85.2975 402.58 85.2975ZM411.907 87.2695H414.114L417.587 78.4225H415.109L413.028 84.3567H413.01L410.966 78.4225H408.433L411.907 87.2695ZM426.721 82.7646C426.721 80.1775 424.985 78.2959 422.488 78.2959C419.864 78.2959 418.001 80.1413 418.001 82.837C418.001 85.6051 419.919 87.4324 422.633 87.4324C424.605 87.4324 425.744 86.7087 426.486 85.7498L424.948 84.3205C424.478 84.8995 423.79 85.3156 422.795 85.3156C421.601 85.3156 420.751 84.6824 420.462 83.6149H426.667C426.685 83.4702 426.721 83.0541 426.721 82.7646ZM422.47 80.3584C423.501 80.3584 424.134 80.9735 424.369 81.9143H420.48C420.751 80.9011 421.511 80.3584 422.47 80.3584ZM432.287 87.4324C433.481 87.4324 434.404 86.9801 435.019 86.184H435.037V87.2695H437.299V73.9538H434.947V79.4538H434.911C434.259 78.6939 433.318 78.2959 432.233 78.2959C429.863 78.2959 428.054 80.1956 428.054 82.8732C428.054 85.6051 429.845 87.4324 432.287 87.4324ZM432.721 85.2975C431.401 85.2975 430.46 84.3024 430.46 82.8913C430.46 81.3715 431.455 80.4127 432.721 80.4127C434.078 80.4127 435.037 81.462 435.037 82.8913C435.037 84.3386 434.024 85.2975 432.721 85.2975ZM445.623 77.2285C446.473 77.2285 447.125 76.5772 447.125 75.763C447.125 74.967 446.473 74.3157 445.623 74.3157C444.755 74.3157 444.121 74.967 444.121 75.763C444.121 76.5772 444.755 77.2285 445.623 77.2285ZM444.411 87.2695H446.781V78.4225H444.411V87.2695ZM449.249 87.2695H451.619V82.837C451.619 81.2449 452.416 80.4127 453.61 80.4127C454.713 80.4127 455.31 80.9373 455.31 82.6199V87.2695H457.68V82.0229C457.68 79.3091 456.36 78.2959 454.478 78.2959C453.374 78.2959 452.361 78.7301 451.656 79.5623H451.619V78.4225H449.249V87.2695ZM464.532 87.2695H466.884V84.8633L468.078 83.5607L470.267 87.2695H472.927L469.761 81.9686L472.855 78.4225H470.068L466.92 82.1314H466.884V73.9538H464.532V87.2695ZM477.736 90.9965C481.155 90.9965 482.367 89.0245 482.367 86.2564V78.4225H479.997V79.3452H479.961C479.237 78.6396 478.278 78.2959 477.301 78.2959C474.949 78.2959 473.213 80.1594 473.213 82.7646C473.213 85.3337 475.004 87.1067 477.428 87.1067C478.477 87.1067 479.364 86.7449 479.997 86.0936H480.033V86.9801C480.033 88.0294 479.201 88.934 477.555 88.934C476.397 88.934 475.546 88.5902 474.678 88.1018L474.117 90.11C475.166 90.707 476.379 90.9965 477.736 90.9965ZM477.862 84.9718C476.596 84.9718 475.619 84.0853 475.619 82.6923C475.619 81.3534 476.541 80.4308 477.862 80.4308C479.129 80.4308 480.088 81.3354 480.088 82.6742C480.088 84.013 479.165 84.9718 477.862 84.9718Z" fill="black"/>
<path d="M610.127 64.791H612.316V53.8996H616.007V51.9457H606.49V53.8996H610.127V64.791ZM618.062 64.791H620.089V60.3042C620.089 58.5674 620.993 57.6628 622.459 57.6628C623.671 57.6628 624.377 58.2779 624.377 60.0328V64.791H626.403V59.5082C626.403 56.8667 625.046 55.8355 623.11 55.8355C621.916 55.8355 620.849 56.2516 620.107 57.0657H620.089V51.4753H618.062V64.791ZM630.015 54.6595C630.775 54.6595 631.39 54.0444 631.39 53.3026C631.39 52.5789 630.775 51.9638 630.015 51.9638C629.255 51.9638 628.658 52.5789 628.658 53.3026C628.658 54.0444 629.255 54.6595 630.015 54.6595ZM629.002 64.791H631.028V55.9621H629.002V64.791ZM636.627 64.9358C638.87 64.9358 639.92 63.7417 639.92 62.2581C639.92 60.5032 638.744 60.1595 636.862 59.4177C636.012 59.092 635.469 58.7845 635.469 58.3503C635.469 57.8075 636.03 57.5904 636.428 57.5904C637.115 57.5904 637.93 57.8618 638.635 58.5312L639.648 56.9391C638.671 56.143 637.658 55.8355 636.537 55.8355C634.727 55.8355 633.425 56.8848 633.425 58.3322C633.425 60.069 634.673 60.7203 636.12 61.2269C637.278 61.6249 637.857 61.842 637.857 62.2943C637.857 62.819 637.405 63.1627 636.627 63.1627C635.541 63.1627 634.782 62.819 634.076 62.1315L633.063 63.6512C633.986 64.4654 635.198 64.9358 636.627 64.9358ZM648.872 64.791H650.699L652.4 59.2368H652.418L654.118 64.791H655.982L658.985 55.9621H656.941L655.077 61.8239H655.041L653.268 55.9621H651.585L649.849 61.8239H649.812L647.949 55.9621H645.868L648.872 64.791ZM668.252 60.268C668.252 57.699 666.569 55.8355 664.091 55.8355C661.504 55.8355 659.658 57.6628 659.658 60.3766C659.658 63.1446 661.558 64.9358 664.236 64.9358C666.135 64.9358 667.239 64.2302 667.981 63.2713L666.569 62.0591C666.117 62.62 665.393 63.0904 664.344 63.0904C662.969 63.0904 662.01 62.3305 661.757 61.046H668.198C668.216 60.9012 668.252 60.5937 668.252 60.268ZM664.073 57.6628C665.231 57.6628 665.954 58.3864 666.208 59.4539H661.793C662.083 58.296 662.951 57.6628 664.073 57.6628ZM678.411 60.268C678.411 57.699 676.728 55.8355 674.25 55.8355C671.663 55.8355 669.817 57.6628 669.817 60.3766C669.817 63.1446 671.717 64.9358 674.395 64.9358C676.294 64.9358 677.398 64.2302 678.14 63.2713L676.728 62.0591C676.276 62.62 675.552 63.0904 674.503 63.0904C673.128 63.0904 672.169 62.3305 671.916 61.046H678.357C678.375 60.9012 678.411 60.5937 678.411 60.268ZM674.232 57.6628C675.39 57.6628 676.113 58.3864 676.367 59.4539H671.952C672.242 58.296 673.11 57.6628 674.232 57.6628ZM680.501 64.791H682.527V62.4571L683.957 60.9012L686.327 64.791H688.606L685.368 59.5082L688.552 55.9621H686.146L682.564 60.0509L682.527 60.0328V51.4753H680.501V64.791Z" fill="#2781FF"/>
<path d="M708.608 56.3151L704.221 60.7024L699.833 56.3151C699.622 56.1034 699.335 55.9844 699.036 55.9844C698.737 55.9844 698.45 56.1034 698.239 56.3151C697.798 56.7561 697.798 57.4685 698.239 57.9095L703.429 63.0996C703.87 63.5406 704.582 63.5406 705.023 63.0996L710.214 57.9095C710.655 57.4685 710.655 56.7561 710.214 56.3151C709.773 55.8854 709.049 55.8741 708.608 56.3151V56.3151Z" fill="#2781FF"/>
<line x1="389.363" y1="397.803" x2="711.626" y2="397.803" stroke="#F4F4F4" stroke-width="2.2615"/>
<line x1="384.84" y1="344.091" x2="716.149" y2="344.091" stroke="#F4F4F4" stroke-width="1.13075"/>
<line x1="384.84" y1="289.814" x2="716.149" y2="289.814" stroke="#F4F4F4" stroke-width="1.13075"/>
<line x1="384.84" y1="235.54" x2="716.149" y2="235.54" stroke="#F4F4F4" stroke-width="1.13075"/>
<line x1="384.84" y1="181.263" x2="716.149" y2="181.263" stroke="#F4F4F4" stroke-width="1.13075"/>
<line x1="384.84" y1="126.987" x2="716.149" y2="126.987" stroke="#F4F4F4" stroke-width="1.13075"/>
<path d="M379.684 346.167C380.611 346.167 381.142 345.341 381.142 344.194C381.142 342.921 380.526 342.215 379.684 342.215C378.762 342.215 378.225 343.04 378.225 344.194C378.225 345.46 378.841 346.167 379.684 346.167ZM379.684 345.726C379.113 345.726 378.711 345.177 378.711 344.194C378.711 343.261 379.067 342.656 379.684 342.656C380.26 342.656 380.656 343.204 380.656 344.194C380.656 345.121 380.306 345.726 379.684 345.726Z" fill="#D8D8D8"/>
<path d="M372.151 291.857H374.593V291.422H372.875L372.869 291.405L373.881 290.387C374.362 289.901 374.548 289.522 374.548 289.087C374.548 288.369 373.983 287.945 373.361 287.945C372.756 287.945 372.366 288.25 372.151 288.68L372.501 288.923C372.682 288.573 372.965 288.392 373.333 288.392C373.762 288.392 374.062 288.708 374.062 289.138C374.062 289.522 373.802 289.833 373.474 290.173L372.145 291.53L372.151 291.857ZM376.435 289.392C376.276 289.392 376.045 289.432 375.841 289.505L375.903 288.414H377.509V287.973H375.457L375.344 289.935L375.621 290.02C375.819 289.867 376.05 289.805 376.305 289.805C376.78 289.805 377.204 290.099 377.204 290.625C377.204 291.105 376.842 291.45 376.299 291.45C375.903 291.45 375.575 291.264 375.4 290.981L375.044 291.247C375.315 291.654 375.802 291.891 376.339 291.891C377.125 291.891 377.69 291.383 377.69 290.631C377.69 289.85 377.125 289.392 376.435 289.392ZM379.685 291.891C380.612 291.891 381.144 291.066 381.144 289.918C381.144 288.646 380.528 287.939 379.685 287.939C378.764 287.939 378.226 288.765 378.226 289.918C378.226 291.185 378.843 291.891 379.685 291.891ZM379.685 291.45C379.114 291.45 378.713 290.902 378.713 289.918C378.713 288.985 379.069 288.38 379.685 288.38C380.262 288.38 380.658 288.929 380.658 289.918C380.658 290.845 380.307 291.45 379.685 291.45Z" fill="#D8D8D8"/>
<path d="M372.907 235.117C372.748 235.117 372.517 235.157 372.313 235.23L372.375 234.139H373.981V233.698H371.929L371.816 235.66L372.093 235.745C372.29 235.592 372.522 235.53 372.777 235.53C373.252 235.53 373.676 235.824 373.676 236.35C373.676 236.83 373.314 237.175 372.771 237.175C372.375 237.175 372.047 236.988 371.872 236.706L371.516 236.971C371.787 237.378 372.273 237.616 372.811 237.616C373.596 237.616 374.162 237.107 374.162 236.355C374.162 235.575 373.596 235.117 372.907 235.117ZM376.157 237.616C377.084 237.616 377.616 236.791 377.616 235.643C377.616 234.371 376.999 233.664 376.157 233.664C375.235 233.664 374.698 234.489 374.698 235.643C374.698 236.909 375.315 237.616 376.157 237.616ZM376.157 237.175C375.586 237.175 375.185 236.627 375.185 235.643C375.185 234.71 375.541 234.105 376.157 234.105C376.734 234.105 377.129 234.653 377.129 235.643C377.129 236.57 376.779 237.175 376.157 237.175ZM379.685 237.616C380.612 237.616 381.144 236.791 381.144 235.643C381.144 234.371 380.528 233.664 379.685 233.664C378.764 233.664 378.226 234.489 378.226 235.643C378.226 236.909 378.843 237.616 379.685 237.616ZM379.685 237.175C379.114 237.175 378.713 236.627 378.713 235.643C378.713 234.71 379.069 234.105 379.685 234.105C380.262 234.105 380.658 234.653 380.658 235.643C380.658 236.57 380.307 237.175 379.685 237.175Z" fill="#D8D8D8"/>
<path d="M372.254 179.421V179.856H374.131L372.65 183.276L373.125 183.373L374.663 179.754V179.421H372.254ZM376.435 180.84C376.276 180.84 376.045 180.879 375.841 180.953L375.903 179.862H377.509V179.421H375.457L375.344 181.382L375.621 181.467C375.819 181.315 376.05 181.252 376.305 181.252C376.78 181.252 377.204 181.546 377.204 182.072C377.204 182.553 376.842 182.898 376.299 182.898C375.903 182.898 375.575 182.711 375.4 182.428L375.044 182.694C375.315 183.101 375.802 183.339 376.339 183.339C377.125 183.339 377.69 182.83 377.69 182.078C377.69 181.298 377.125 180.84 376.435 180.84ZM379.685 183.339C380.612 183.339 381.144 182.513 381.144 181.365C381.144 180.093 380.528 179.387 379.685 179.387C378.764 179.387 378.226 180.212 378.226 181.365C378.226 182.632 378.843 183.339 379.685 183.339ZM379.685 182.898C379.114 182.898 378.713 182.349 378.713 181.365C378.713 180.433 379.069 179.828 379.685 179.828C380.262 179.828 380.658 180.376 380.658 181.365C380.658 182.293 380.307 182.898 379.685 182.898Z" fill="#D8D8D8"/>
<path d="M369.881 129.029H370.355V125.145H369.96L368.874 125.948L369.106 126.304L369.881 125.716V129.029ZM372.629 129.063C373.556 129.063 374.087 128.238 374.087 127.09C374.087 125.818 373.471 125.111 372.629 125.111C371.707 125.111 371.17 125.937 371.17 127.09C371.17 128.357 371.786 129.063 372.629 129.063ZM372.629 128.622C372.058 128.622 371.656 128.074 371.656 127.09C371.656 126.157 372.012 125.552 372.629 125.552C373.205 125.552 373.601 126.101 373.601 127.09C373.601 128.017 373.251 128.622 372.629 128.622ZM376.157 129.063C377.084 129.063 377.615 128.238 377.615 127.09C377.615 125.818 376.999 125.111 376.157 125.111C375.235 125.111 374.698 125.937 374.698 127.09C374.698 128.357 375.314 129.063 376.157 129.063ZM376.157 128.622C375.586 128.622 375.184 128.074 375.184 127.09C375.184 126.157 375.54 125.552 376.157 125.552C376.733 125.552 377.129 126.101 377.129 127.09C377.129 128.017 376.779 128.622 376.157 128.622ZM379.685 129.063C380.612 129.063 381.143 128.238 381.143 127.09C381.143 125.818 380.527 125.111 379.685 125.111C378.763 125.111 378.226 125.937 378.226 127.09C378.226 128.357 378.842 129.063 379.685 129.063ZM379.685 128.622C379.114 128.622 378.712 128.074 378.712 127.09C378.712 126.157 379.069 125.552 379.685 125.552C380.261 125.552 380.657 126.101 380.657 127.09C380.657 128.017 380.307 128.622 379.685 128.622Z" fill="#D8D8D8"/>
<line x1="421.024" y1="397.166" x2="421.024" y2="406.471" stroke="#F4F4F4" stroke-width="2.2615"/>
<path d="M412.261 385.924H413.455V378.583H413.468L416.603 383.983H417.404L420.538 378.583H420.565V385.924H421.746V376.29H420.565L417.024 382.518H416.996L413.455 376.29H412.261V385.924ZM426.97 386.005C428.924 386.005 430.375 384.635 430.375 382.627C430.375 380.618 428.924 379.234 426.97 379.234C424.921 379.234 423.55 380.727 423.55 382.627C423.55 384.526 424.921 386.005 426.97 386.005ZM426.97 385.001C425.599 385.001 424.676 383.943 424.676 382.627C424.676 381.31 425.586 380.238 426.97 380.238C428.245 380.238 429.249 381.215 429.249 382.627C429.249 384.038 428.232 385.001 426.97 385.001Z" fill="#D8D8D8"/>
<path d="M412.799 276.764H416.707V276.067H413.957L413.948 276.04L415.567 274.412C416.336 273.634 416.634 273.028 416.634 272.331C416.634 271.182 415.73 270.504 414.735 270.504C413.767 270.504 413.143 270.992 412.799 271.68L413.36 272.069C413.649 271.508 414.101 271.218 414.689 271.218C415.377 271.218 415.856 271.725 415.856 272.413C415.856 273.028 415.44 273.525 414.916 274.068L412.79 276.239L412.799 276.764ZM419.653 272.82C419.4 272.82 419.029 272.883 418.703 273.001L418.803 271.255H421.372V270.549H418.088L417.907 273.688L418.35 273.824C418.667 273.579 419.038 273.48 419.445 273.48C420.205 273.48 420.883 273.95 420.883 274.792C420.883 275.561 420.304 276.112 419.436 276.112C418.803 276.112 418.278 275.814 417.998 275.362L417.428 275.787C417.862 276.438 418.64 276.818 419.499 276.818C420.757 276.818 421.661 276.004 421.661 274.801C421.661 273.552 420.757 272.82 419.653 272.82ZM424.961 272.847C424.364 272.847 423.821 273.055 423.432 273.399C423.785 272.042 424.816 271.291 425.947 271.001L425.721 270.359C424.083 270.658 422.564 272.177 422.564 274.385C422.564 275.859 423.513 276.818 424.744 276.818C425.983 276.818 426.897 275.959 426.897 274.819C426.897 273.579 426.082 272.847 424.961 272.847ZM424.789 276.112C423.966 276.112 423.305 275.443 423.305 274.466V274.412C423.586 273.959 424.101 273.543 424.789 273.543C425.603 273.543 426.137 274.059 426.137 274.81C426.137 275.515 425.603 276.112 424.789 276.112Z" fill="#D8D8D8"/>
<rect x="409.716" y="283.594" width="21.4842" height="61.0605" fill="#2781FF"/>
<line x1="463.993" y1="397.166" x2="463.993" y2="406.471" stroke="#F4F4F4" stroke-width="2.2615"/>
<path d="M459.748 385.926H460.929V377.364H463.846V376.292H456.872V377.364H459.748V385.926ZM466.137 386.007C467.006 386.007 467.82 385.573 468.322 384.786H468.335V385.926H469.434V379.318H468.335V382.52C468.335 384.094 467.426 385.003 466.368 385.003C465.323 385.003 464.753 384.433 464.753 382.941V379.318H463.654V383.253C463.654 385.139 464.617 386.007 466.137 386.007Z" fill="#D8D8D8"/>
<path d="M458.334 254.148H459.094V253.054H459.998V252.366H459.094V247.934H458.451L455.448 252.511V253.054H458.334V254.148ZM456.335 252.384L458.361 249.227V252.384H456.335ZM460.574 254.148H464.482V253.452H461.732L461.723 253.425L463.342 251.796C464.111 251.019 464.409 250.412 464.409 249.716C464.409 248.567 463.505 247.889 462.51 247.889C461.542 247.889 460.917 248.377 460.574 249.065L461.135 249.454C461.424 248.893 461.876 248.603 462.464 248.603C463.152 248.603 463.631 249.11 463.631 249.797C463.631 250.412 463.215 250.91 462.69 251.453L460.565 253.624L460.574 254.148ZM467.717 254.203C469.2 254.203 470.051 252.882 470.051 251.046C470.051 249.01 469.065 247.88 467.717 247.88C466.242 247.88 465.383 249.2 465.383 251.046C465.383 253.072 466.369 254.203 467.717 254.203ZM467.717 253.497C466.803 253.497 466.161 252.62 466.161 251.046C466.161 249.553 466.731 248.585 467.717 248.585C468.639 248.585 469.273 249.463 469.273 251.046C469.273 252.529 468.712 253.497 467.717 253.497Z" fill="#D8D8D8"/>
<rect x="452.686" y="260.979" width="21.4842" height="83.6755" fill="#2781FF"/>
<line x1="506.963" y1="397.17" x2="506.963" y2="406.475" stroke="#F4F4F4" stroke-width="2.2615"/>
<path d="M499.662 385.926H500.802L503.068 378.015H503.095L505.32 385.926H506.46L509.54 376.292H508.292L505.904 383.999H505.877L503.719 376.292H502.43L500.259 384.013H500.232L497.857 376.292H496.596L499.662 385.926ZM516.067 382.506C516.067 380.62 514.832 379.236 513.027 379.236C511.141 379.236 509.771 380.634 509.771 382.629C509.771 384.65 511.155 386.007 513.109 386.007C514.439 386.007 515.266 385.505 515.836 384.772L515.063 384.121C514.656 384.623 514.031 385.003 513.15 385.003C511.901 385.003 511.033 384.189 510.883 382.954H516.04C516.04 382.873 516.067 382.683 516.067 382.506ZM513.014 380.24C514.099 380.24 514.805 380.973 514.968 382.059H510.911C511.114 380.932 511.955 380.24 513.014 380.24Z" fill="#D8D8D8"/>
<path d="M498.61 293.727H502.518V293.03H499.768L499.759 293.003L501.378 291.375C502.147 290.597 502.445 289.991 502.445 289.294C502.445 288.145 501.541 287.467 500.546 287.467C499.578 287.467 498.953 287.955 498.61 288.643L499.171 289.032C499.46 288.471 499.912 288.181 500.5 288.181C501.188 288.181 501.667 288.688 501.667 289.375C501.667 289.991 501.251 290.488 500.726 291.031L498.601 293.202L498.61 293.727ZM505.291 293.781C506.44 293.781 507.299 293.093 507.299 292.062C507.299 291.32 506.883 290.759 506.223 290.506V290.479C506.811 290.226 507.137 289.665 507.137 289.086C507.137 288.055 506.286 287.458 505.228 287.458C504.332 287.458 503.699 287.874 503.374 288.444L503.989 288.787C504.233 288.426 504.595 288.163 505.21 288.163C505.861 288.163 506.368 288.57 506.368 289.185C506.368 289.683 506.042 290.181 505.246 290.181H504.64V290.832H505.156C506.078 290.832 506.522 291.357 506.522 291.954C506.522 292.632 505.961 293.075 505.237 293.075C504.513 293.075 504.043 292.75 503.826 292.252L503.165 292.551C503.473 293.265 504.233 293.781 505.291 293.781ZM510.576 293.781C512.06 293.781 512.91 292.46 512.91 290.624C512.91 288.588 511.924 287.458 510.576 287.458C509.101 287.458 508.242 288.778 508.242 290.624C508.242 292.65 509.228 293.781 510.576 293.781ZM510.576 293.075C509.662 293.075 509.02 292.198 509.02 290.624C509.02 289.131 509.59 288.163 510.576 288.163C511.499 288.163 512.132 289.041 512.132 290.624C512.132 292.107 511.571 293.075 510.576 293.075Z" fill="#D8D8D8"/>
<rect x="495.655" y="300.557" width="21.4842" height="44.0992" fill="#2781FF"/>
<line x1="549.932" y1="397.168" x2="549.932" y2="406.473" stroke="#F4F4F4" stroke-width="2.2615"/>
<path d="M545.338 385.924H546.518V377.362H549.436V376.29H542.461V377.362H545.338V385.924ZM550.956 385.924H552.056V382.599C552.056 381.107 552.87 380.238 554.186 380.238C555.149 380.238 555.814 380.781 555.814 382.274V385.924H556.913V381.962C556.913 380.076 555.936 379.234 554.512 379.234C553.453 379.234 552.585 379.682 552.069 380.469H552.056V375.937H550.956V385.924Z" fill="#D8D8D8"/>
<path d="M543.684 220.806C543.431 220.806 543.06 220.869 542.734 220.987L542.834 219.241H545.403V218.535H542.119L541.938 221.674L542.382 221.81C542.698 221.566 543.069 221.466 543.476 221.466C544.236 221.466 544.915 221.937 544.915 222.778C544.915 223.547 544.336 224.099 543.467 224.099C542.834 224.099 542.309 223.8 542.029 223.348L541.459 223.773C541.893 224.424 542.671 224.804 543.53 224.804C544.788 224.804 545.692 223.99 545.692 222.787C545.692 221.539 544.788 220.806 543.684 220.806ZM548.885 224.804C550.368 224.804 551.219 223.484 551.219 221.647C551.219 219.612 550.233 218.481 548.885 218.481C547.41 218.481 546.551 219.802 546.551 221.647C546.551 223.674 547.537 224.804 548.885 224.804ZM548.885 224.099C547.971 224.099 547.329 223.221 547.329 221.647C547.329 220.155 547.899 219.187 548.885 219.187C549.807 219.187 550.441 220.064 550.441 221.647C550.441 223.131 549.88 224.099 548.885 224.099ZM554.015 224.804C555.164 224.804 556.024 224.117 556.024 223.086C556.024 222.344 555.607 221.783 554.947 221.53V221.502C555.535 221.249 555.861 220.688 555.861 220.109C555.861 219.078 555.01 218.481 553.952 218.481C553.056 218.481 552.423 218.897 552.098 219.467L552.713 219.811C552.957 219.449 553.319 219.187 553.934 219.187C554.585 219.187 555.092 219.594 555.092 220.209C555.092 220.706 554.766 221.204 553.97 221.204H553.364V221.855H553.88C554.802 221.855 555.246 222.38 555.246 222.977C555.246 223.655 554.685 224.099 553.961 224.099C553.237 224.099 552.767 223.773 552.55 223.276L551.89 223.574C552.197 224.289 552.957 224.804 554.015 224.804Z" fill="#D8D8D8"/>
<rect x="538.624" y="231.58" width="21.4842" height="113.075" fill="#2781FF"/>
<line x1="592.9" y1="397.166" x2="592.9" y2="406.471" stroke="#F4F4F4" stroke-width="2.2615"/>
<path d="M587.334 385.922H588.514V381.824H592.72V380.752H588.514V377.36H593.48V376.288H587.334V385.922ZM594.777 385.922H595.876V382.733C595.876 381.403 596.622 380.44 597.884 380.44C597.993 380.44 598.156 380.454 598.318 380.467V379.246C598.223 379.232 598.142 379.232 598.047 379.232C597.138 379.232 596.378 379.721 595.903 380.521H595.876V379.314H594.777V385.922Z" fill="#D8D8D8"/>
<path d="M584.503 283.547H588.411V282.85H585.661L585.652 282.823L587.271 281.195C588.04 280.417 588.339 279.811 588.339 279.114C588.339 277.965 587.434 277.287 586.439 277.287C585.471 277.287 584.847 277.776 584.503 278.463L585.064 278.852C585.353 278.291 585.806 278.002 586.394 278.002C587.081 278.002 587.561 278.508 587.561 279.196C587.561 279.811 587.144 280.308 586.62 280.851L584.494 283.022L584.503 283.547ZM591.357 279.603C591.104 279.603 590.733 279.666 590.407 279.784L590.507 278.038H593.076V277.332H589.792L589.611 280.471L590.054 280.607C590.371 280.363 590.742 280.263 591.149 280.263C591.909 280.263 592.587 280.734 592.587 281.575C592.587 282.344 592.008 282.896 591.14 282.896C590.507 282.896 589.982 282.597 589.702 282.145L589.132 282.57C589.566 283.221 590.344 283.601 591.203 283.601C592.461 283.601 593.365 282.787 593.365 281.584C593.365 280.336 592.461 279.603 591.357 279.603ZM596.558 283.601C598.041 283.601 598.892 282.28 598.892 280.444C598.892 278.409 597.906 277.278 596.558 277.278C595.083 277.278 594.224 278.599 594.224 280.444C594.224 282.47 595.21 283.601 596.558 283.601ZM596.558 282.896C595.644 282.896 595.002 282.018 595.002 280.444C595.002 278.952 595.572 277.984 596.558 277.984C597.48 277.984 598.114 278.861 598.114 280.444C598.114 281.928 597.553 282.896 596.558 282.896Z" fill="#D8D8D8"/>
<rect x="581.593" y="290.377" width="21.4842" height="54.276" fill="#2781FF"/>
<line x1="635.866" y1="397.168" x2="635.866" y2="406.473" stroke="#F4F4F4" stroke-width="2.2615"/>
<path d="M631.246 386.005C632.929 386.005 634.475 385.055 634.475 383.291C634.475 381.487 633.105 381.053 631.49 380.415C630.283 379.953 629.414 379.614 629.428 378.692C629.441 377.769 630.242 377.28 631.151 377.28C631.87 377.28 632.698 377.62 633.471 378.257L634.191 377.321C633.281 376.588 632.223 376.195 631.151 376.195C629.496 376.195 628.207 377.308 628.207 378.746C628.207 380.442 629.659 381.053 631.083 381.582C632.372 382.07 633.241 382.355 633.241 383.427C633.241 384.363 632.44 384.906 631.26 384.906C630.323 384.906 629.292 384.472 628.6 383.604L627.84 384.513C628.804 385.544 630.038 386.005 631.246 386.005ZM638.954 386.005C640.026 386.005 640.84 385.517 641.315 384.73H641.329V385.924H642.387V379.316H641.288V380.483L641.261 380.496C640.786 379.696 639.931 379.234 638.954 379.234C637.082 379.234 635.738 380.713 635.738 382.667C635.738 384.675 637.136 386.005 638.954 386.005ZM639.117 385.001C637.76 385.001 636.851 383.997 636.851 382.667C636.851 381.202 637.869 380.238 639.117 380.238C640.42 380.238 641.329 381.31 641.329 382.667C641.329 384.065 640.338 385.001 639.117 385.001Z" fill="#D8D8D8"/>
<path d="M629.645 204.976C629.392 204.976 629.021 205.039 628.695 205.157L628.795 203.411H631.364V202.705H628.08L627.899 205.844L628.342 205.98C628.659 205.736 629.03 205.636 629.437 205.636C630.197 205.636 630.875 206.107 630.875 206.948C630.875 207.717 630.296 208.269 629.428 208.269C628.795 208.269 628.27 207.97 627.989 207.518L627.42 207.943C627.854 208.594 628.632 208.974 629.491 208.974C630.748 208.974 631.653 208.16 631.653 206.957C631.653 205.709 630.748 204.976 629.645 204.976ZM634.566 202.651C633.318 202.651 632.386 203.519 632.386 204.686C632.386 205.89 633.209 206.64 634.295 206.64C634.91 206.64 635.471 206.423 635.869 206.07C635.498 207.464 634.403 208.205 633.272 208.495L633.499 209.137C635.109 208.839 636.737 207.355 636.737 205.093C636.746 203.619 635.787 202.651 634.566 202.651ZM634.467 205.935C633.67 205.935 633.155 205.437 633.155 204.686C633.155 203.963 633.707 203.357 634.575 203.357C635.389 203.357 635.995 204.017 635.995 205.03V205.084C635.67 205.591 635.091 205.935 634.467 205.935ZM639.787 208.974C641.008 208.974 641.976 208.287 641.976 207.21C641.976 206.369 641.469 205.772 640.782 205.564V205.546C641.216 205.401 641.668 204.903 641.668 204.234C641.668 203.284 640.908 202.651 639.787 202.651C638.728 202.651 637.914 203.239 637.914 204.234C637.914 204.894 638.357 205.383 638.792 205.546V205.564C638.113 205.781 637.607 206.378 637.607 207.21C637.607 208.223 638.502 208.974 639.787 208.974ZM639.787 205.229C639.117 205.229 638.647 204.867 638.647 204.297C638.647 203.764 639.09 203.329 639.787 203.329C640.447 203.329 640.936 203.728 640.936 204.297C640.936 204.867 640.465 205.229 639.787 205.229ZM639.787 208.287C639 208.287 638.385 207.798 638.385 207.129C638.385 206.414 638.936 205.935 639.787 205.935C640.628 205.935 641.198 206.414 641.198 207.129C641.198 207.753 640.637 208.287 639.787 208.287Z" fill="#D8D8D8"/>
<rect x="624.558" y="215.75" width="21.4842" height="128.905" fill="#2781FF"/>
<line x1="678.835" y1="397.168" x2="678.835" y2="406.473" stroke="#F4F4F4" stroke-width="2.2615"/>
<path d="M675.066 386.007C676.748 386.007 678.295 385.057 678.295 383.293C678.295 381.489 676.925 381.055 675.31 380.417C674.102 379.955 673.234 379.616 673.247 378.694C673.261 377.771 674.062 377.282 674.971 377.282C675.69 377.282 676.518 377.622 677.291 378.259L678.01 377.323C677.101 376.59 676.043 376.197 674.971 376.197C673.315 376.197 672.026 377.309 672.026 378.748C672.026 380.444 673.478 381.055 674.903 381.584C676.192 382.072 677.06 382.357 677.06 383.429C677.06 384.365 676.26 384.908 675.079 384.908C674.143 384.908 673.112 384.474 672.42 383.605L671.66 384.515C672.623 385.546 673.858 386.007 675.066 386.007ZM682.326 386.007C683.195 386.007 684.009 385.573 684.511 384.786H684.524V385.926H685.623V379.318H684.524V382.52C684.524 384.094 683.615 385.003 682.557 385.003C681.512 385.003 680.942 384.433 680.942 382.941V379.318H679.843V383.253C679.843 385.139 680.806 386.007 682.326 386.007Z" fill="#D8D8D8"/>
<path d="M674.624 238.32H675.384V237.226H676.289V236.538H675.384V232.106H674.742L671.739 236.683V237.226H674.624V238.32ZM672.625 236.556L674.652 233.399V236.556H672.625ZM679.055 232.051C677.806 232.051 676.875 232.92 676.875 234.087C676.875 235.29 677.698 236.041 678.783 236.041C679.399 236.041 679.959 235.824 680.357 235.471C679.987 236.864 678.892 237.606 677.761 237.895L677.987 238.537C679.598 238.239 681.226 236.755 681.226 234.494C681.235 233.019 680.276 232.051 679.055 232.051ZM678.955 235.335C678.159 235.335 677.644 234.838 677.644 234.087C677.644 233.363 678.195 232.757 679.064 232.757C679.878 232.757 680.484 233.417 680.484 234.431V234.485C680.158 234.991 679.579 235.335 678.955 235.335ZM683.488 238.32H684.248V232.106H683.615L681.878 233.39L682.249 233.96L683.488 233.019V238.32Z" fill="#D8D8D8"/>
<rect x="667.527" y="245.15" width="21.4842" height="99.506" fill="#2781FF"/>
<defs>
<filter id="filter0_d" x="339.322" y="1.99816" width="422.349" height="452.879" filterUnits="userSpaceOnUse" color-interpolation-filters="sRGB">
<feFlood flood-opacity="0" result="BackgroundImageFix"/>
<feColorMatrix in="SourceAlpha" type="matrix" values="0 0 0 0 0 0 0 0 0 0 0 0 0 0 0 0 0 0 127 0"/>
<feOffset dy="4.77176"/>
<feGaussianBlur stdDeviation="11.4522"/>
<feColorMatrix type="matrix" values="0 0 0 0 0 0 0 0 0 0 0 0 0 0 0 0 0 0 0.05 0"/>
<feBlend mode="normal" in2="BackgroundImageFix" result="effect1_dropShadow"/>
<feBlend mode="normal" in="SourceGraphic" in2="effect1_dropShadow" result="shape"/>
</filter>
<filter id="filter1_d" x="0.0955334" y="0.618533" width="351.111" height="452.827" filterUnits="userSpaceOnUse" color-interpolation-filters="sRGB">
<feFlood flood-opacity="0" result="BackgroundImageFix"/>
<feColorMatrix in="SourceAlpha" type="matrix" values="0 0 0 0 0 0 0 0 0 0 0 0 0 0 0 0 0 0 127 0"/>
<feOffset dy="4.523"/>
<feGaussianBlur stdDeviation="11.4522"/>
<feColorMatrix type="matrix" values="0 0 0 0 0 0 0 0 0 0 0 0 0 0 0 0 0 0 0.05 0"/>
<feBlend mode="normal" in2="BackgroundImageFix" result="effect1_dropShadow"/>
<feBlend mode="normal" in="SourceGraphic" in2="effect1_dropShadow" result="shape"/>
</filter>
</defs>
</svg>
