<svg width="270" height="360" viewBox="0 0 270 360" fill="none" xmlns="http://www.w3.org/2000/svg">
<rect width="270" height="360" rx="5" fill="white"/>
<path d="M24.256 40H26.608L27.376 37.728H31.728L32.512 40H34.864L30.64 28.64H28.464L24.256 40ZM28.016 35.808L29.536 31.36H29.568L31.088 35.808H28.016ZM39.5306 40.144C41.1946 40.144 42.2666 39.552 42.9386 38.72L41.5786 37.408C41.1626 37.92 40.5386 38.256 39.7386 38.256C38.4906 38.256 37.6266 37.392 37.6266 36.096C37.6266 34.816 38.4746 33.936 39.7386 33.936C40.4746 33.936 41.1146 34.256 41.5306 34.768L42.9066 33.472C42.0906 32.512 40.8106 32.064 39.5946 32.064C37.1786 32.064 35.4986 33.696 35.4986 36.112C35.4986 38.512 37.1946 40.144 39.5306 40.144ZM46.7998 40.144C47.8558 40.144 48.3678 39.92 48.8638 39.648L48.3358 37.968C47.9838 38.144 47.5998 38.24 47.3438 38.24C46.8478 38.24 46.6718 37.92 46.6718 37.232V33.92H48.7838V32.176H46.6718V29.408L44.5758 29.632V32.176H43.6478V33.92H44.5758V37.536C44.5758 39.296 45.4557 40.144 46.7998 40.144ZM51.4111 31.12C52.1631 31.12 52.7391 30.544 52.7391 29.824C52.7391 29.12 52.1631 28.544 51.4111 28.544C50.6431 28.544 50.0831 29.12 50.0831 29.824C50.0831 30.544 50.6431 31.12 51.4111 31.12ZM50.3391 40H52.4351V32.176H50.3391V40ZM56.8901 40H58.8421L61.9141 32.176H59.7221L57.8821 37.424H57.8661L56.0581 32.176H53.8181L56.8901 40ZM69.9919 36.016C69.9919 33.728 68.4559 32.064 66.2479 32.064C63.9279 32.064 62.2799 33.696 62.2799 36.08C62.2799 38.528 63.9759 40.144 66.3759 40.144C68.1199 40.144 69.1279 39.504 69.7839 38.656L68.4239 37.392C68.0079 37.904 67.3999 38.272 66.5199 38.272C65.4639 38.272 64.7119 37.712 64.4559 36.768H69.9439C69.9599 36.64 69.9919 36.272 69.9919 36.016ZM66.2319 33.888C67.1439 33.888 67.7039 34.432 67.9119 35.264H64.4719C64.7119 34.368 65.3839 33.888 66.2319 33.888ZM79.2475 40H81.2315L85.4395 28.64H83.0395L80.2715 36.768H80.2395L77.4555 28.64H75.0235L79.2475 40ZM92.82 36.016C92.82 33.728 91.284 32.064 89.076 32.064C86.756 32.064 85.108 33.696 85.108 36.08C85.108 38.528 86.804 40.144 89.204 40.144C90.948 40.144 91.956 39.504 92.612 38.656L91.252 37.392C90.836 37.904 90.228 38.272 89.348 38.272C88.292 38.272 87.54 37.712 87.284 36.768H92.772C92.788 36.64 92.82 36.272 92.82 36.016ZM89.06 33.888C89.972 33.888 90.532 34.432 90.74 35.264H87.3C87.54 34.368 88.212 33.888 89.06 33.888ZM94.4463 40H96.5423V36.048C96.5423 34.64 97.2463 33.936 98.3663 33.936C99.3583 33.936 99.8863 34.416 99.8863 35.84V40H101.982V35.312C101.982 32.912 100.782 32.064 99.1183 32.064C98.0943 32.064 97.1983 32.416 96.5583 33.12H96.5423V28.224H94.4463V40ZM105.099 31.12C105.851 31.12 106.427 30.544 106.427 29.824C106.427 29.12 105.851 28.544 105.099 28.544C104.331 28.544 103.771 29.12 103.771 29.824C103.771 30.544 104.331 31.12 105.099 31.12ZM104.027 40H106.123V32.176H104.027V40ZM111.906 40.144C113.57 40.144 114.642 39.552 115.314 38.72L113.954 37.408C113.538 37.92 112.914 38.256 112.114 38.256C110.866 38.256 110.002 37.392 110.002 36.096C110.002 34.816 110.85 33.936 112.114 33.936C112.85 33.936 113.49 34.256 113.906 34.768L115.282 33.472C114.466 32.512 113.186 32.064 111.97 32.064C109.554 32.064 107.874 33.696 107.874 36.112C107.874 38.512 109.57 40.144 111.906 40.144ZM116.855 40H118.951V28.224H116.855V40ZM128.414 36.016C128.414 33.728 126.878 32.064 124.67 32.064C122.35 32.064 120.702 33.696 120.702 36.08C120.702 38.528 122.398 40.144 124.798 40.144C126.542 40.144 127.55 39.504 128.206 38.656L126.846 37.392C126.43 37.904 125.822 38.272 124.942 38.272C123.886 38.272 123.134 37.712 122.878 36.768H128.366C128.382 36.64 128.414 36.272 128.414 36.016ZM124.654 33.888C125.566 33.888 126.126 34.432 126.334 35.264H122.894C123.134 34.368 123.806 33.888 124.654 33.888ZM132.568 40.144C134.616 40.144 135.592 39.088 135.592 37.712C135.592 36.16 134.6 35.792 132.904 35.168C132.136 34.88 131.752 34.656 131.752 34.336C131.752 33.92 132.168 33.76 132.488 33.76C133.064 33.76 133.768 34.016 134.36 34.592L135.384 33.04C134.488 32.352 133.608 32.064 132.536 32.064C130.92 32.064 129.704 32.976 129.704 34.384C129.704 35.904 130.824 36.512 132.12 36.944C133.128 37.28 133.528 37.456 133.528 37.792C133.528 38.176 133.192 38.432 132.584 38.432C131.72 38.432 131.048 38.128 130.408 37.536L129.4 38.992C130.248 39.728 131.32 40.144 132.568 40.144Z" fill="black"/>
<circle cx="135" cy="166" r="98" fill="#2781FF" fill-opacity="0.1"/>
<path fill-rule="evenodd" clip-rule="evenodd" d="M63.7122 233.247C81.5805 252.182 106.91 264 135 264C189.124 264 233 220.124 233 166C233 111.876 189.124 68 135 68L135 166.883L63.7122 233.247Z" fill="#2781FF"/>
<circle cx="135" cy="166.883" r="89.1435" fill="#344146" fill-opacity="0.16"/>
<circle cx="135" cy="166.883" r="82.991" fill="white"/>
<path d="M107.042 175.892H110.33V159.404H107.714L102.746 162.98L104.282 165.404L107.042 163.316V175.892ZM113.142 175.892H123.87V172.94H117.942L117.918 172.868L120.99 169.652C123.126 167.444 123.726 165.98 123.726 164.108C123.726 161.06 121.23 159.236 118.47 159.236C115.71 159.236 113.982 160.604 113.022 162.356L115.35 164.012C116.07 162.812 117.054 162.26 118.23 162.26C119.502 162.26 120.414 163.22 120.414 164.492C120.414 165.812 119.55 166.916 118.206 168.308L113.094 173.756L113.142 175.892ZM128.174 176.108C129.23 176.108 130.118 175.244 130.118 174.164C130.118 173.108 129.23 172.244 128.174 172.244C127.07 172.244 126.182 173.108 126.182 174.164C126.182 175.244 127.07 176.108 128.174 176.108ZM138.494 175.892H141.71V173.18H143.918V170.396H141.71V159.404H139.094L131.534 171.116V173.18H138.494V175.892ZM135.086 170.54L138.71 164.684V170.54H135.086ZM152.228 175.892H155.444V173.18H157.652V170.396H155.444V159.404H152.828L145.268 171.116V173.18H152.228V175.892ZM148.82 170.54L152.444 164.684V170.54H148.82ZM162.378 175.892H165.666V159.404H163.05L158.082 162.98L159.618 165.404L162.378 163.316V175.892Z" fill="black"/>
<path d="M111.646 204.96L116.254 194.736L115.486 194.364L110.866 204.6L111.646 204.96ZM116.556 203.604H121.74V202.68H118.092L118.08 202.644L120.228 200.484C121.248 199.452 121.644 198.648 121.644 197.724C121.644 196.2 120.444 195.3 119.124 195.3C117.84 195.3 117.012 195.948 116.556 196.86L117.3 197.376C117.684 196.632 118.284 196.248 119.064 196.248C119.976 196.248 120.612 196.92 120.612 197.832C120.612 198.648 120.06 199.308 119.364 200.028L116.544 202.908L116.556 203.604ZM126.032 203.676C128 203.676 129.128 201.924 129.128 199.488C129.128 196.788 127.82 195.288 126.032 195.288C124.076 195.288 122.936 197.04 122.936 199.488C122.936 202.176 124.244 203.676 126.032 203.676ZM126.032 202.74C124.82 202.74 123.968 201.576 123.968 199.488C123.968 197.508 124.724 196.224 126.032 196.224C127.256 196.224 128.096 197.388 128.096 199.488C128.096 201.456 127.352 202.74 126.032 202.74ZM130.969 203.688C131.365 203.688 131.677 203.376 131.677 202.98C131.677 202.584 131.365 202.272 130.969 202.272C130.573 202.272 130.249 202.584 130.249 202.98C130.249 203.376 130.573 203.688 130.969 203.688ZM135.911 203.676C137.879 203.676 139.007 201.924 139.007 199.488C139.007 196.788 137.699 195.288 135.911 195.288C133.955 195.288 132.815 197.04 132.815 199.488C132.815 202.176 134.123 203.676 135.911 203.676ZM135.911 202.74C134.699 202.74 133.847 201.576 133.847 199.488C133.847 197.508 134.603 196.224 135.911 196.224C137.135 196.224 137.975 197.388 137.975 199.488C137.975 201.456 137.231 202.74 135.911 202.74ZM143.399 203.676C145.367 203.676 146.495 201.924 146.495 199.488C146.495 196.788 145.187 195.288 143.399 195.288C141.443 195.288 140.303 197.04 140.303 199.488C140.303 202.176 141.611 203.676 143.399 203.676ZM143.399 202.74C142.187 202.74 141.335 201.576 141.335 199.488C141.335 197.508 142.091 196.224 143.399 196.224C144.623 196.224 145.463 197.388 145.463 199.488C145.463 201.456 144.719 202.74 143.399 202.74ZM150.887 203.676C152.855 203.676 153.983 201.924 153.983 199.488C153.983 196.788 152.675 195.288 150.887 195.288C148.931 195.288 147.791 197.04 147.791 199.488C147.791 202.176 149.099 203.676 150.887 203.676ZM150.887 202.74C149.675 202.74 148.823 201.576 148.823 199.488C148.823 197.508 149.579 196.224 150.887 196.224C152.111 196.224 152.951 197.388 152.951 199.488C152.951 201.456 152.207 202.74 150.887 202.74Z" fill="#D8D8D8"/>
<rect x="24" y="288" width="222" height="48" rx="5" fill="#F4F4F4"/>
<path d="M40.322 317H42.086L42.828 314.858H46.888L47.644 317H49.408L45.684 307.06H44.032L40.322 317ZM43.346 313.402L44.844 309.09H44.872L46.384 313.402H43.346ZM50.8544 317H52.4224V306.696H50.8544V317ZM54.6688 317H56.2368V306.696H54.6688V317ZM62.3274 317H64.0214V313.458H65.7294C67.8714 313.458 69.3274 312.436 69.3274 310.28C69.3274 308.432 68.3054 307.06 65.9254 307.06H62.3274V317ZM64.0214 311.932V308.572H65.6874C66.9054 308.572 67.5774 309.202 67.5774 310.252C67.5774 311.232 66.9474 311.932 65.5614 311.932H64.0214ZM70.9361 317H72.5041V313.766C72.5041 312.646 73.1761 311.792 74.3661 311.792C74.4781 311.792 74.6601 311.806 74.8421 311.82V310.07H74.6461C73.8201 310.07 73.0641 310.476 72.5321 311.19H72.5041V310.168H70.9361V317ZM79.1316 317.112C81.2316 317.112 82.7156 315.67 82.7156 313.598C82.7156 311.498 81.2316 310.07 79.1316 310.07C76.9756 310.07 75.5476 311.582 75.5476 313.598C75.5476 315.6 76.9756 317.112 79.1316 317.112ZM79.1316 315.684C77.9556 315.684 77.1436 314.76 77.1436 313.598C77.1436 312.408 77.9416 311.484 79.1316 311.484C80.2516 311.484 81.1196 312.338 81.1196 313.598C81.1196 314.83 80.2376 315.684 79.1316 315.684ZM85.9254 317H87.4234L90.1394 310.168H88.4734L86.6954 315.04H86.6814L84.9034 310.168H83.2234L85.9254 317ZM92.3259 309.16C92.9139 309.16 93.3899 308.684 93.3899 308.11C93.3899 307.55 92.9139 307.074 92.3259 307.074C91.7379 307.074 91.2759 307.55 91.2759 308.11C91.2759 308.684 91.7379 309.16 92.3259 309.16ZM91.5419 317H93.1099V310.168H91.5419V317ZM98.1563 317.112C99.1363 317.112 99.8783 316.734 100.382 316.076H100.396V317H101.894V306.696H100.34V311.008H100.326C99.8083 310.392 99.0383 310.07 98.1423 310.07C96.2663 310.07 94.8383 311.554 94.8383 313.612C94.8383 315.726 96.2663 317.112 98.1563 317.112ZM98.3943 315.684C97.2463 315.684 96.4343 314.83 96.4343 313.626C96.4343 312.31 97.3163 311.484 98.4083 311.484C99.5843 311.484 100.396 312.408 100.396 313.626C100.396 314.858 99.5143 315.684 98.3943 315.684ZM110.184 313.5C110.184 311.512 108.882 310.07 106.964 310.07C104.962 310.07 103.534 311.484 103.534 313.584C103.534 315.726 105.004 317.112 107.076 317.112C108.546 317.112 109.4 316.566 109.974 315.824L108.882 314.886C108.532 315.32 107.972 315.684 107.16 315.684C106.096 315.684 105.354 315.096 105.158 314.102H110.142C110.156 313.99 110.184 313.752 110.184 313.5ZM106.95 311.484C107.846 311.484 108.406 312.044 108.602 312.87H105.186C105.41 311.974 106.082 311.484 106.95 311.484ZM111.801 317H113.369V313.766C113.369 312.646 114.041 311.792 115.231 311.792C115.343 311.792 115.525 311.806 115.707 311.82V310.07H115.511C114.685 310.07 113.929 310.476 113.397 311.19H113.369V310.168H111.801V317ZM119.194 317.112C120.93 317.112 121.742 316.188 121.742 315.04C121.742 313.682 120.832 313.416 119.376 312.842C118.718 312.59 118.298 312.352 118.298 312.016C118.298 311.596 118.732 311.428 119.04 311.428C119.572 311.428 120.202 311.638 120.748 312.156L121.532 310.924C120.776 310.308 119.992 310.07 119.124 310.07C117.724 310.07 116.716 310.882 116.716 312.002C116.716 313.346 117.682 313.85 118.802 314.242C119.698 314.55 120.146 314.718 120.146 315.068C120.146 315.474 119.796 315.74 119.194 315.74C118.354 315.74 117.766 315.474 117.22 314.942L116.436 316.118C117.15 316.748 118.088 317.112 119.194 317.112Z" fill="#969696"/>
<path d="M227.934 309L224.054 312.88L220.174 309C219.988 308.813 219.734 308.708 219.469 308.708C219.205 308.708 218.951 308.813 218.764 309C218.374 309.39 218.374 310.02 218.764 310.41L223.354 315C223.744 315.39 224.374 315.39 224.764 315L229.354 310.41C229.744 310.02 229.744 309.39 229.354 309C228.964 308.62 228.324 308.61 227.934 309V309Z" fill="#344146"/>
</svg>
