<svg width="570" height="360" viewBox="0 0 570 360" fill="none" xmlns="http://www.w3.org/2000/svg">
<rect width="570" height="360" rx="5" fill="white"/>
<g clip-path="url(#clip0)">
<g clip-path="url(#clip1)">
<rect x="24" y="64" width="522" height="40" rx="5" fill="#FAFAFA"/>
<path fill-rule="evenodd" clip-rule="evenodd" d="M518 79.5327C519.1 79.5327 520 78.6327 520 77.5327C520 76.4327 519.1 75.5327 518 75.5327C516.9 75.5327 516 76.4327 516 77.5327C516 78.6327 516.9 79.5327 518 79.5327ZM518 81.5327C516.9 81.5327 516 82.4327 516 83.5327C516 84.6327 516.9 85.5327 518 85.5327C519.1 85.5327 520 84.6327 520 83.5327C520 82.4327 519.1 81.5327 518 81.5327ZM516 89.5327C516 88.4327 516.9 87.5327 518 87.5327C519.1 87.5327 520 88.4327 520 89.5327C520 90.6327 519.1 91.5327 518 91.5327C516.9 91.5327 516 90.6327 516 89.5327Z" fill="#344146"/>
<mask id="path-4-inside-1" fill="white">
<path d="M56 75H42C40.9 75 40 75.9 40 77V91C40 92.1 40.9 93 42 93H56C57.1 93 58 92.1 58 91V77C58 75.9 57.1 75 56 75Z"/>
</mask>
<path d="M56 75H42C40.9 75 40 75.9 40 77V91C40 92.1 40.9 93 42 93H56C57.1 93 58 92.1 58 91V77C58 75.9 57.1 75 56 75Z" fill="white"/>
<path d="M56 73H42V77H56V73ZM42 73C39.7954 73 38 74.7954 38 77H42V73ZM38 77V91H42V77H38ZM38 91C38 93.2046 39.7954 95 42 95V91H38ZM42 95H56V91H42V95ZM56 95C58.2046 95 60 93.2046 60 91H56V95ZM60 91V77H56V91H60ZM60 77C60 74.7954 58.2046 73 56 73V77H60Z" fill="#D8D8D8" mask="url(#path-4-inside-1)"/>
<path d="M105.782 89.084C107.532 89.084 108.848 88.272 109.702 87.208L108.456 86.144C107.826 86.928 106.902 87.502 105.782 87.502C103.892 87.502 102.534 86.102 102.534 84.058C102.534 81.958 103.864 80.544 105.754 80.544C106.804 80.544 107.686 80.992 108.428 81.902L109.674 80.852C108.638 79.578 107.21 78.948 105.754 78.948C102.562 78.948 100.77 81.23 100.77 84.058C100.77 87.32 103.08 89.084 105.782 89.084ZM114.105 89.112C115.057 89.112 115.785 88.748 116.275 88.09L116.303 88.104V89H117.801V82.168H116.233V82.994L116.205 83.008C115.715 82.392 114.959 82.07 114.091 82.07C112.215 82.07 110.801 83.554 110.801 85.612C110.801 87.726 112.215 89.112 114.105 89.112ZM114.357 87.684C113.195 87.684 112.397 86.83 112.397 85.626C112.397 84.31 113.265 83.484 114.357 83.484C115.477 83.484 116.303 84.408 116.303 85.626C116.303 86.858 115.421 87.684 114.357 87.684ZM119.78 89H121.348V85.766C121.348 84.646 122.02 83.792 123.21 83.792C123.322 83.792 123.504 83.806 123.686 83.82V82.07H123.49C122.664 82.07 121.908 82.476 121.376 83.19H121.348V82.168H119.78V89ZM133.509 89.112C136.379 89.112 138.521 87.054 138.521 84.03C138.521 80.992 136.379 78.948 133.509 78.948C130.527 78.948 128.483 81.104 128.483 84.03C128.483 86.956 130.527 89.112 133.509 89.112ZM133.509 87.53C131.563 87.53 130.233 85.976 130.233 84.03C130.233 82.084 131.563 80.53 133.509 80.53C135.343 80.53 136.757 81.986 136.757 84.03C136.757 86.06 135.343 87.53 133.509 87.53ZM140.315 91.772H141.883V88.174L141.911 88.16C142.415 88.776 143.129 89.112 144.053 89.112C145.957 89.112 147.371 87.726 147.371 85.612C147.371 83.554 145.957 82.07 144.067 82.07C143.171 82.07 142.415 82.392 141.911 82.98H141.883V82.168H140.315V91.772ZM143.815 87.684C142.695 87.684 141.813 86.858 141.813 85.626C141.813 84.408 142.625 83.484 143.801 83.484C144.893 83.484 145.775 84.31 145.775 85.626C145.775 86.83 144.963 87.684 143.815 87.684ZM155.254 85.5C155.254 83.512 153.952 82.07 152.034 82.07C150.032 82.07 148.604 83.484 148.604 85.584C148.604 87.726 150.074 89.112 152.146 89.112C153.616 89.112 154.47 88.566 155.044 87.824L153.952 86.886C153.602 87.32 153.042 87.684 152.23 87.684C151.166 87.684 150.424 87.096 150.228 86.102H155.212C155.226 85.99 155.254 85.752 155.254 85.5ZM152.02 83.484C152.916 83.484 153.476 84.044 153.672 84.87H150.256C150.48 83.974 151.152 83.484 152.02 83.484ZM156.872 89H158.44V85.766C158.44 84.646 159.112 83.792 160.302 83.792C160.414 83.792 160.596 83.806 160.778 83.82V82.07H160.582C159.756 82.07 159 82.476 158.468 83.19H158.44V82.168H156.872V89ZM164.773 89.112C165.725 89.112 166.453 88.748 166.943 88.09L166.971 88.104V89H168.469V82.168H166.901V82.994L166.873 83.008C166.383 82.392 165.627 82.07 164.759 82.07C162.883 82.07 161.469 83.554 161.469 85.612C161.469 87.726 162.883 89.112 164.773 89.112ZM165.025 87.684C163.863 87.684 163.065 86.83 163.065 85.626C163.065 84.31 163.933 83.484 165.025 83.484C166.145 83.484 166.971 84.408 166.971 85.626C166.971 86.858 166.089 87.684 165.025 87.684ZM172.478 89.112C173.374 89.112 173.808 88.93 174.214 88.706L173.808 87.348C173.444 87.544 173.066 87.642 172.8 87.642C172.352 87.642 172.142 87.39 172.142 86.69V83.498H174.144V82.168H172.142V79.732L170.574 79.9V82.168H169.734V83.498H170.574V86.844C170.574 88.37 171.302 89.112 172.478 89.112ZM178.411 89.112C180.511 89.112 181.995 87.67 181.995 85.598C181.995 83.498 180.511 82.07 178.411 82.07C176.255 82.07 174.827 83.582 174.827 85.598C174.827 87.6 176.255 89.112 178.411 89.112ZM178.411 87.684C177.235 87.684 176.423 86.76 176.423 85.598C176.423 84.408 177.221 83.484 178.411 83.484C179.531 83.484 180.399 84.338 180.399 85.598C180.399 86.83 179.517 87.684 178.411 87.684ZM183.627 89H185.195V85.766C185.195 84.646 185.867 83.792 187.057 83.792C187.169 83.792 187.351 83.806 187.533 83.82V82.07H187.337C186.511 82.07 185.755 82.476 185.223 83.19H185.195V82.168H183.627V89ZM194.319 89H195.943V79.382H194.627L191.813 81.426L192.583 82.63L194.319 81.328V89Z" fill="#344146"/>
<path d="M236.532 89H242.58V87.922H238.324L238.31 87.88L240.816 85.36C242.006 84.156 242.468 83.218 242.468 82.14C242.468 80.362 241.068 79.312 239.528 79.312C238.03 79.312 237.064 80.068 236.532 81.132L237.4 81.734C237.848 80.866 238.548 80.418 239.458 80.418C240.522 80.418 241.264 81.202 241.264 82.266C241.264 83.218 240.62 83.988 239.808 84.828L236.518 88.188L236.532 89ZM244.871 89.098C245.333 89.098 245.697 88.734 245.697 88.272C245.697 87.81 245.333 87.446 244.871 87.446C244.409 87.446 244.031 87.81 244.031 88.272C244.031 88.734 244.409 89.098 244.871 89.098ZM247.059 89H253.107V87.922H248.851L248.837 87.88L251.343 85.36C252.533 84.156 252.995 83.218 252.995 82.14C252.995 80.362 251.595 79.312 250.055 79.312C248.557 79.312 247.591 80.068 247.059 81.132L247.927 81.734C248.375 80.866 249.075 80.418 249.985 80.418C251.049 80.418 251.791 81.202 251.791 82.266C251.791 83.218 251.147 83.988 250.335 84.828L247.045 88.188L247.059 89ZM254.278 89H260.326V87.922H256.07L256.056 87.88L258.562 85.36C259.752 84.156 260.214 83.218 260.214 82.14C260.214 80.362 258.814 79.312 257.274 79.312C255.776 79.312 254.81 80.068 254.278 81.132L255.146 81.734C255.594 80.866 256.294 80.418 257.204 80.418C258.268 80.418 259.01 81.202 259.01 82.266C259.01 83.218 258.366 83.988 257.554 84.828L254.264 88.188L254.278 89ZM263.737 89H264.913V79.382H263.933L261.245 81.37L261.819 82.252L263.737 80.796V89ZM274.16 89H275.252L279.004 79.06H277.702L274.72 87.236H274.706L271.724 79.06H270.408L274.16 89ZM285.509 85.472C285.509 83.526 284.235 82.098 282.373 82.098C280.427 82.098 279.013 83.54 279.013 85.598C279.013 87.684 280.441 89.084 282.457 89.084C283.829 89.084 284.683 88.566 285.271 87.81L284.473 87.138C284.053 87.656 283.409 88.048 282.499 88.048C281.211 88.048 280.315 87.208 280.161 85.934H285.481C285.481 85.85 285.509 85.654 285.509 85.472ZM282.359 83.134C283.479 83.134 284.207 83.89 284.375 85.01H280.189C280.399 83.848 281.267 83.134 282.359 83.134ZM287.171 89H288.305V85.57C288.305 84.03 289.145 83.134 290.503 83.134C291.497 83.134 292.183 83.694 292.183 85.234V89H293.317V84.912C293.317 82.966 292.309 82.098 290.839 82.098C289.747 82.098 288.851 82.56 288.319 83.372H288.305V78.696H287.171V89ZM295.964 80.936C296.426 80.936 296.79 80.572 296.79 80.124C296.79 79.676 296.426 79.312 295.964 79.312C295.502 79.312 295.138 79.676 295.138 80.124C295.138 80.572 295.502 80.936 295.964 80.936ZM295.39 89H296.524V82.182H295.39V89ZM301.706 89.084C303.036 89.084 303.946 88.58 304.52 87.894L303.736 87.18C303.316 87.698 302.602 88.048 301.79 88.048C300.404 88.048 299.466 87.054 299.466 85.598C299.466 84.156 300.404 83.134 301.804 83.134C302.616 83.134 303.288 83.498 303.722 84.002L304.492 83.316C303.82 82.518 302.77 82.098 301.748 82.098C299.718 82.098 298.304 83.54 298.304 85.598C298.304 87.67 299.718 89.084 301.706 89.084ZM306.123 89H307.257V78.696H306.123V89ZM315.532 85.472C315.532 83.526 314.258 82.098 312.396 82.098C310.45 82.098 309.036 83.54 309.036 85.598C309.036 87.684 310.464 89.084 312.48 89.084C313.852 89.084 314.706 88.566 315.294 87.81L314.496 87.138C314.076 87.656 313.432 88.048 312.522 88.048C311.234 88.048 310.338 87.208 310.184 85.934H315.504C315.504 85.85 315.532 85.654 315.532 85.472ZM312.382 83.134C313.502 83.134 314.23 83.89 314.398 85.01H310.212C310.422 83.848 311.29 83.134 312.382 83.134ZM319.253 89.084C320.891 89.084 321.703 88.202 321.703 87.138C321.717 85.808 320.765 85.556 319.323 84.996C318.581 84.73 318.035 84.464 318.035 83.932C318.035 83.414 318.553 83.106 319.085 83.106C319.673 83.106 320.303 83.288 320.891 83.834L321.479 82.938C320.723 82.322 319.953 82.098 319.127 82.098C317.839 82.098 316.887 82.882 316.887 83.932C316.887 85.178 317.825 85.626 318.931 86.018C319.925 86.382 320.555 86.55 320.555 87.152C320.555 87.67 320.079 88.076 319.253 88.076C318.301 88.076 317.699 87.768 317.167 87.25L316.593 88.118C317.251 88.692 318.119 89.084 319.253 89.084Z" fill="#2781FF"/>
<path d="M374.528 88.398H375.578V85.654H378.336V84.604H375.578V81.846H374.528V84.604H371.77V85.654H374.528V88.398ZM385.708 89H386.884V79.382H385.904L383.216 81.37L383.79 82.252L385.708 80.796V89ZM392.513 89.084C394.809 89.084 396.125 87.04 396.125 84.198C396.125 81.048 394.599 79.298 392.513 79.298C390.231 79.298 388.901 81.342 388.901 84.198C388.901 87.334 390.427 89.084 392.513 89.084ZM392.513 87.992C391.099 87.992 390.105 86.634 390.105 84.198C390.105 81.888 390.987 80.39 392.513 80.39C393.941 80.39 394.921 81.748 394.921 84.198C394.921 86.494 394.053 87.992 392.513 87.992ZM401.249 89.084C403.545 89.084 404.861 87.04 404.861 84.198C404.861 81.048 403.335 79.298 401.249 79.298C398.967 79.298 397.637 81.342 397.637 84.198C397.637 87.334 399.163 89.084 401.249 89.084ZM401.249 87.992C399.835 87.992 398.841 86.634 398.841 84.198C398.841 81.888 399.723 80.39 401.249 80.39C402.677 80.39 403.657 81.748 403.657 84.198C403.657 86.494 402.789 87.992 401.249 87.992Z" fill="#04DE47"/>
<path d="M420.23 88.06C421.4 88.06 421.98 87.43 421.98 86.67C421.99 85.72 421.31 85.54 420.28 85.14C419.75 84.95 419.36 84.76 419.36 84.38C419.36 84.01 419.73 83.79 420.11 83.79C420.53 83.79 420.98 83.92 421.4 84.31L421.82 83.67C421.28 83.23 420.73 83.07 420.14 83.07C419.22 83.07 418.54 83.63 418.54 84.38C418.54 85.27 419.21 85.59 420 85.87C420.71 86.13 421.16 86.25 421.16 86.68C421.16 87.05 420.82 87.34 420.23 87.34C419.55 87.34 419.12 87.12 418.74 86.75L418.33 87.37C418.8 87.78 419.42 88.06 420.23 88.06ZM423.595 82.24C423.925 82.24 424.185 81.98 424.185 81.66C424.185 81.34 423.925 81.08 423.595 81.08C423.265 81.08 423.005 81.34 423.005 81.66C423.005 81.98 423.265 82.24 423.595 82.24ZM423.185 88H423.995V83.13H423.185V88ZM425.576 88H426.386V85.57C426.386 84.47 426.986 83.81 427.906 83.81C428.616 83.81 429.106 84.2 429.106 85.34V88H429.916V85.11C429.916 83.72 429.216 83.07 428.166 83.07C427.416 83.07 426.776 83.42 426.396 84.01H426.386V83.13H425.576V88ZM433.458 88.06C434.408 88.06 435.058 87.7 435.468 87.21L434.908 86.7C434.608 87.07 434.098 87.32 433.518 87.32C432.528 87.32 431.858 86.61 431.858 85.57C431.858 84.54 432.528 83.81 433.528 83.81C434.108 83.81 434.588 84.07 434.898 84.43L435.448 83.94C434.968 83.37 434.218 83.07 433.488 83.07C432.038 83.07 431.028 84.1 431.028 85.57C431.028 87.05 432.038 88.06 433.458 88.06ZM440.883 85.48C440.883 84.09 439.973 83.07 438.643 83.07C437.253 83.07 436.243 84.1 436.243 85.57C436.243 87.06 437.263 88.06 438.703 88.06C439.683 88.06 440.293 87.69 440.713 87.15L440.143 86.67C439.843 87.04 439.383 87.32 438.733 87.32C437.813 87.32 437.173 86.72 437.063 85.81H440.863C440.863 85.75 440.883 85.61 440.883 85.48ZM438.633 83.81C439.433 83.81 439.953 84.35 440.073 85.15H437.083C437.233 84.32 437.853 83.81 438.633 83.81ZM444.855 88H445.665V80.64H444.855V88ZM449.296 88.06C450.086 88.06 450.686 87.7 451.036 87.12H451.046V88H451.826V83.13H451.016V83.99L450.996 84C450.646 83.41 450.016 83.07 449.296 83.07C447.916 83.07 446.926 84.16 446.926 85.6C446.926 87.08 447.956 88.06 449.296 88.06ZM449.416 87.32C448.416 87.32 447.746 86.58 447.746 85.6C447.746 84.52 448.496 83.81 449.416 83.81C450.376 83.81 451.046 84.6 451.046 85.6C451.046 86.63 450.316 87.32 449.416 87.32ZM454.751 88.06C455.921 88.06 456.501 87.43 456.501 86.67C456.511 85.72 455.831 85.54 454.801 85.14C454.271 84.95 453.881 84.76 453.881 84.38C453.881 84.01 454.251 83.79 454.631 83.79C455.051 83.79 455.501 83.92 455.921 84.31L456.341 83.67C455.801 83.23 455.251 83.07 454.661 83.07C453.741 83.07 453.061 83.63 453.061 84.38C453.061 85.27 453.731 85.59 454.521 85.87C455.231 86.13 455.681 86.25 455.681 86.68C455.681 87.05 455.341 87.34 454.751 87.34C454.071 87.34 453.641 87.12 453.261 86.75L452.851 87.37C453.321 87.78 453.941 88.06 454.751 88.06ZM459.017 88.06C459.597 88.06 459.927 87.92 460.197 87.76L459.987 87.05C459.747 87.18 459.447 87.3 459.157 87.3C458.697 87.3 458.567 87.02 458.567 86.43V83.83H460.177V83.13H458.567V81.38L457.757 81.47V83.13H457.127V83.83H457.757V86.55C457.757 87.53 458.157 88.06 459.017 88.06ZM465.175 88H465.915L467.035 84.43H467.045L468.165 88H468.925L470.605 83.13H469.775L468.555 86.79H468.535L467.395 83.13H466.695L465.575 86.79H465.555L464.325 83.13H463.495L465.175 88ZM475.658 85.48C475.658 84.09 474.748 83.07 473.418 83.07C472.028 83.07 471.018 84.1 471.018 85.57C471.018 87.06 472.038 88.06 473.478 88.06C474.458 88.06 475.068 87.69 475.488 87.15L474.918 86.67C474.618 87.04 474.158 87.32 473.508 87.32C472.588 87.32 471.948 86.72 471.838 85.81H475.638C475.638 85.75 475.658 85.61 475.658 85.48ZM473.408 83.81C474.208 83.81 474.728 84.35 474.848 85.15H471.858C472.008 84.32 472.628 83.81 473.408 83.81ZM481.176 85.48C481.176 84.09 480.266 83.07 478.936 83.07C477.546 83.07 476.536 84.1 476.536 85.57C476.536 87.06 477.556 88.06 478.996 88.06C479.976 88.06 480.586 87.69 481.006 87.15L480.436 86.67C480.136 87.04 479.676 87.32 479.026 87.32C478.106 87.32 477.466 86.72 477.356 85.81H481.156C481.156 85.75 481.176 85.61 481.176 85.48ZM478.926 83.81C479.726 83.81 480.246 84.35 480.366 85.15H477.376C477.526 84.32 478.146 83.81 478.926 83.81ZM482.364 88H483.174V86.79L484.174 85.71L485.644 88H486.574L484.734 85.14L486.554 83.13H485.574L483.184 85.8L483.174 85.79V80.64H482.364V88Z" fill="#344146"/>
<circle cx="83" cy="84" r="9" fill="black"/>
</g>
<g clip-path="url(#clip2)">
<rect x="24" y="112" width="522" height="40" rx="5" fill="#FAFAFA"/>
<path fill-rule="evenodd" clip-rule="evenodd" d="M518 127.533C519.1 127.533 520 126.633 520 125.533C520 124.433 519.1 123.533 518 123.533C516.9 123.533 516 124.433 516 125.533C516 126.633 516.9 127.533 518 127.533ZM518 129.533C516.9 129.533 516 130.433 516 131.533C516 132.633 516.9 133.533 518 133.533C519.1 133.533 520 132.633 520 131.533C520 130.433 519.1 129.533 518 129.533ZM516 137.533C516 136.433 516.9 135.533 518 135.533C519.1 135.533 520 136.433 520 137.533C520 138.633 519.1 139.533 518 139.533C516.9 139.533 516 138.633 516 137.533Z" fill="#344146"/>
<mask id="path-13-inside-2" fill="white">
<path d="M56 123H42C40.9 123 40 123.9 40 125V139C40 140.1 40.9 141 42 141H56C57.1 141 58 140.1 58 139V125C58 123.9 57.1 123 56 123Z"/>
</mask>
<path d="M56 123H42C40.9 123 40 123.9 40 125V139C40 140.1 40.9 141 42 141H56C57.1 141 58 140.1 58 139V125C58 123.9 57.1 123 56 123Z" fill="white"/>
<path d="M56 121H42V125H56V121ZM42 121C39.7954 121 38 122.795 38 125H42V121ZM38 125V139H42V125H38ZM38 139C38 141.205 39.7954 143 42 143V139H38ZM42 143H56V139H42V143ZM56 143C58.2046 143 60 141.205 60 139H56V143ZM60 139V125H56V139H60ZM60 125C60 122.795 58.2046 121 56 121V125H60Z" fill="#D8D8D8" mask="url(#path-13-inside-2)"/>
<path d="M104.186 137.112C105.782 137.112 107.616 136.188 107.616 134.13C107.616 132.212 106.244 131.75 104.536 131.078C103.332 130.616 102.66 130.364 102.674 129.636C102.688 128.894 103.304 128.474 104.074 128.474C104.746 128.474 105.544 128.824 106.356 129.496L107.364 128.166C106.356 127.368 105.25 126.948 104.074 126.948C102.352 126.948 100.924 128.166 100.924 129.72C100.924 131.54 102.422 132.212 103.934 132.744C105.194 133.192 105.852 133.472 105.852 134.34C105.852 135.068 105.292 135.544 104.2 135.544C103.346 135.544 102.366 135.11 101.652 134.242L100.588 135.544C101.624 136.622 102.912 137.112 104.186 137.112ZM109.293 137H110.861V133.528C110.861 132.184 111.561 131.484 112.695 131.484C113.633 131.484 114.179 131.96 114.179 133.318V137H115.747V132.912C115.747 130.868 114.697 130.07 113.199 130.07C112.275 130.07 111.449 130.392 110.875 131.022H110.861V126.696H109.293V137ZM120.083 137.112C120.867 137.112 121.623 136.79 122.169 136.132L122.197 136.146V137H123.765V130.168H122.197V133.444C122.197 134.914 121.357 135.684 120.447 135.684C119.509 135.684 119.089 135.264 119.089 133.906V130.168H117.521V134.326C117.521 136.356 118.571 137.112 120.083 137.112ZM127.784 137.112C128.68 137.112 129.114 136.93 129.52 136.706L129.114 135.348C128.75 135.544 128.372 135.642 128.106 135.642C127.658 135.642 127.448 135.39 127.448 134.69V131.498H129.45V130.168H127.448V127.732L125.88 127.9V130.168H125.04V131.498H125.88V134.844C125.88 136.37 126.608 137.112 127.784 137.112ZM132.993 137.112C133.889 137.112 134.323 136.93 134.729 136.706L134.323 135.348C133.959 135.544 133.581 135.642 133.315 135.642C132.867 135.642 132.657 135.39 132.657 134.69V131.498H134.659V130.168H132.657V127.732L131.089 127.9V130.168H130.249V131.498H131.089V134.844C131.089 136.37 131.817 137.112 132.993 137.112ZM136.175 137H137.743V126.696H136.175V137ZM146.135 133.5C146.135 131.512 144.833 130.07 142.915 130.07C140.913 130.07 139.485 131.484 139.485 133.584C139.485 135.726 140.955 137.112 143.027 137.112C144.497 137.112 145.351 136.566 145.925 135.824L144.833 134.886C144.483 135.32 143.923 135.684 143.111 135.684C142.047 135.684 141.305 135.096 141.109 134.102H146.093C146.107 133.99 146.135 133.752 146.135 133.5ZM142.901 131.484C143.797 131.484 144.357 132.044 144.553 132.87H141.137C141.361 131.974 142.033 131.484 142.901 131.484ZM156.273 137.112C159.143 137.112 161.285 135.054 161.285 132.03C161.285 128.992 159.143 126.948 156.273 126.948C153.291 126.948 151.247 129.104 151.247 132.03C151.247 134.956 153.291 137.112 156.273 137.112ZM156.273 135.53C154.327 135.53 152.997 133.976 152.997 132.03C152.997 130.084 154.327 128.53 156.273 128.53C158.107 128.53 159.521 129.986 159.521 132.03C159.521 134.06 158.107 135.53 156.273 135.53ZM163.079 139.772H164.647V136.174L164.675 136.16C165.179 136.776 165.893 137.112 166.817 137.112C168.721 137.112 170.135 135.726 170.135 133.612C170.135 131.554 168.721 130.07 166.831 130.07C165.935 130.07 165.179 130.392 164.675 130.98H164.647V130.168H163.079V139.772ZM166.579 135.684C165.459 135.684 164.577 134.858 164.577 133.626C164.577 132.408 165.389 131.484 166.565 131.484C167.657 131.484 168.539 132.31 168.539 133.626C168.539 134.83 167.727 135.684 166.579 135.684ZM178.018 133.5C178.018 131.512 176.716 130.07 174.798 130.07C172.796 130.07 171.368 131.484 171.368 133.584C171.368 135.726 172.838 137.112 174.91 137.112C176.38 137.112 177.234 136.566 177.808 135.824L176.716 134.886C176.366 135.32 175.806 135.684 174.994 135.684C173.93 135.684 173.188 135.096 172.992 134.102H177.976C177.99 133.99 178.018 133.752 178.018 133.5ZM174.784 131.484C175.68 131.484 176.24 132.044 176.436 132.87H173.02C173.244 131.974 173.916 131.484 174.784 131.484ZM179.635 137H181.203V133.766C181.203 132.646 181.875 131.792 183.065 131.792C183.177 131.792 183.359 131.806 183.541 131.82V130.07H183.345C182.519 130.07 181.763 130.476 181.231 131.19H181.203V130.168H179.635V137ZM187.537 137.112C188.489 137.112 189.217 136.748 189.707 136.09L189.735 136.104V137H191.233V130.168H189.665V130.994L189.637 131.008C189.147 130.392 188.391 130.07 187.523 130.07C185.647 130.07 184.233 131.554 184.233 133.612C184.233 135.726 185.647 137.112 187.537 137.112ZM187.789 135.684C186.627 135.684 185.829 134.83 185.829 133.626C185.829 132.31 186.697 131.484 187.789 131.484C188.909 131.484 189.735 132.408 189.735 133.626C189.735 134.858 188.853 135.684 187.789 135.684ZM195.241 137.112C196.137 137.112 196.571 136.93 196.977 136.706L196.571 135.348C196.207 135.544 195.829 135.642 195.563 135.642C195.115 135.642 194.905 135.39 194.905 134.69V131.498H196.907V130.168H194.905V127.732L193.337 127.9V130.168H192.497V131.498H193.337V134.844C193.337 136.37 194.065 137.112 195.241 137.112ZM201.175 137.112C203.275 137.112 204.759 135.67 204.759 133.598C204.759 131.498 203.275 130.07 201.175 130.07C199.019 130.07 197.591 131.582 197.591 133.598C197.591 135.6 199.019 137.112 201.175 137.112ZM201.175 135.684C199.999 135.684 199.187 134.76 199.187 133.598C199.187 132.408 199.985 131.484 201.175 131.484C202.295 131.484 203.163 132.338 203.163 133.598C203.163 134.83 202.281 135.684 201.175 135.684ZM206.391 137H207.959V133.766C207.959 132.646 208.631 131.792 209.821 131.792C209.933 131.792 210.115 131.806 210.297 131.82V130.07H210.101C209.275 130.07 208.519 130.476 207.987 131.19H207.959V130.168H206.391V137ZM217.082 137H218.706V127.382H217.39L214.576 129.426L215.346 130.63L217.082 129.328V137Z" fill="#344146"/>
<path d="M239.99 137.084C241.88 137.084 243.378 136.02 243.378 134.354C243.378 133.052 242.594 132.128 241.53 131.806V131.778C242.202 131.554 242.902 130.784 242.902 129.748C242.902 128.278 241.726 127.298 239.99 127.298C238.352 127.298 237.092 128.208 237.092 129.748C237.092 130.77 237.778 131.526 238.45 131.778V131.806C237.4 132.142 236.616 133.066 236.616 134.354C236.616 135.922 238.002 137.084 239.99 137.084ZM239.99 131.288C238.954 131.288 238.226 130.728 238.226 129.846C238.226 129.02 238.912 128.348 239.99 128.348C241.012 128.348 241.768 128.964 241.768 129.846C241.768 130.728 241.04 131.288 239.99 131.288ZM239.99 136.02C238.772 136.02 237.82 135.264 237.82 134.228C237.82 133.122 238.674 132.38 239.99 132.38C241.292 132.38 242.174 133.122 242.174 134.228C242.174 135.194 241.306 136.02 239.99 136.02ZM244.544 137H250.592V135.922H246.336L246.322 135.88L248.828 133.36C250.018 132.156 250.48 131.218 250.48 130.14C250.48 128.362 249.08 127.312 247.54 127.312C246.042 127.312 245.076 128.068 244.544 129.132L245.412 129.734C245.86 128.866 246.56 128.418 247.47 128.418C248.534 128.418 249.276 129.202 249.276 130.266C249.276 131.218 248.632 131.988 247.82 132.828L244.53 136.188L244.544 137ZM251.58 127.382V128.46H256.228L252.56 136.93L253.736 137.168L257.544 128.208V127.382H251.58ZM266.08 137H267.172L270.924 127.06H269.622L266.64 135.236H266.626L263.644 127.06H262.328L266.08 137ZM277.429 133.472C277.429 131.526 276.155 130.098 274.293 130.098C272.347 130.098 270.933 131.54 270.933 133.598C270.933 135.684 272.361 137.084 274.377 137.084C275.749 137.084 276.603 136.566 277.191 135.81L276.393 135.138C275.973 135.656 275.329 136.048 274.419 136.048C273.131 136.048 272.235 135.208 272.081 133.934H277.401C277.401 133.85 277.429 133.654 277.429 133.472ZM274.279 131.134C275.399 131.134 276.127 131.89 276.295 133.01H272.109C272.319 131.848 273.187 131.134 274.279 131.134ZM279.091 137H280.225V133.57C280.225 132.03 281.065 131.134 282.423 131.134C283.417 131.134 284.103 131.694 284.103 133.234V137H285.237V132.912C285.237 130.966 284.229 130.098 282.759 130.098C281.667 130.098 280.771 130.56 280.239 131.372H280.225V126.696H279.091V137ZM287.884 128.936C288.346 128.936 288.71 128.572 288.71 128.124C288.71 127.676 288.346 127.312 287.884 127.312C287.422 127.312 287.058 127.676 287.058 128.124C287.058 128.572 287.422 128.936 287.884 128.936ZM287.31 137H288.444V130.182H287.31V137ZM293.626 137.084C294.956 137.084 295.866 136.58 296.44 135.894L295.656 135.18C295.236 135.698 294.522 136.048 293.71 136.048C292.324 136.048 291.386 135.054 291.386 133.598C291.386 132.156 292.324 131.134 293.724 131.134C294.536 131.134 295.208 131.498 295.642 132.002L296.412 131.316C295.74 130.518 294.69 130.098 293.668 130.098C291.638 130.098 290.224 131.54 290.224 133.598C290.224 135.67 291.638 137.084 293.626 137.084ZM298.043 137H299.177V126.696H298.043V137ZM307.452 133.472C307.452 131.526 306.178 130.098 304.316 130.098C302.37 130.098 300.956 131.54 300.956 133.598C300.956 135.684 302.384 137.084 304.4 137.084C305.772 137.084 306.626 136.566 307.214 135.81L306.416 135.138C305.996 135.656 305.352 136.048 304.442 136.048C303.154 136.048 302.258 135.208 302.104 133.934H307.424C307.424 133.85 307.452 133.654 307.452 133.472ZM304.302 131.134C305.422 131.134 306.15 131.89 306.318 133.01H302.132C302.342 131.848 303.21 131.134 304.302 131.134ZM311.173 137.084C312.811 137.084 313.623 136.202 313.623 135.138C313.637 133.808 312.685 133.556 311.243 132.996C310.501 132.73 309.955 132.464 309.955 131.932C309.955 131.414 310.473 131.106 311.005 131.106C311.593 131.106 312.223 131.288 312.811 131.834L313.399 130.938C312.643 130.322 311.873 130.098 311.047 130.098C309.759 130.098 308.807 130.882 308.807 131.932C308.807 133.178 309.745 133.626 310.851 134.018C311.845 134.382 312.475 134.55 312.475 135.152C312.475 135.67 311.999 136.076 311.173 136.076C310.221 136.076 309.619 135.768 309.087 135.25L308.513 136.118C309.171 136.692 310.039 137.084 311.173 137.084Z" fill="#2781FF"/>
<path d="M374.528 136.398H375.578V133.654H378.336V132.604H375.578V129.846H374.528V132.604H371.77V133.654H374.528V136.398ZM379.667 138.582L385.043 126.654L384.147 126.22L378.757 138.162L379.667 138.582ZM385.633 133.248H389.777V132.128H385.633V133.248ZM398.733 137.084C401.029 137.084 402.345 135.04 402.345 132.198C402.345 129.048 400.819 127.298 398.733 127.298C396.451 127.298 395.121 129.342 395.121 132.198C395.121 135.334 396.647 137.084 398.733 137.084ZM398.733 135.992C397.319 135.992 396.325 134.634 396.325 132.198C396.325 129.888 397.207 128.39 398.733 128.39C400.161 128.39 401.141 129.748 401.141 132.198C401.141 134.494 400.273 135.992 398.733 135.992Z" fill="#969696"/>
<circle cx="83" cy="132" r="9" fill="#3FEEBB"/>
<path d="M420.23 136.06C421.4 136.06 421.98 135.43 421.98 134.67C421.99 133.72 421.31 133.54 420.28 133.14C419.75 132.95 419.36 132.76 419.36 132.38C419.36 132.01 419.73 131.79 420.11 131.79C420.53 131.79 420.98 131.92 421.4 132.31L421.82 131.67C421.28 131.23 420.73 131.07 420.14 131.07C419.22 131.07 418.54 131.63 418.54 132.38C418.54 133.27 419.21 133.59 420 133.87C420.71 134.13 421.16 134.25 421.16 134.68C421.16 135.05 420.82 135.34 420.23 135.34C419.55 135.34 419.12 135.12 418.74 134.75L418.33 135.37C418.8 135.78 419.42 136.06 420.23 136.06ZM423.595 130.24C423.925 130.24 424.185 129.98 424.185 129.66C424.185 129.34 423.925 129.08 423.595 129.08C423.265 129.08 423.005 129.34 423.005 129.66C423.005 129.98 423.265 130.24 423.595 130.24ZM423.185 136H423.995V131.13H423.185V136ZM425.576 136H426.386V133.57C426.386 132.47 426.986 131.81 427.906 131.81C428.616 131.81 429.106 132.2 429.106 133.34V136H429.916V133.11C429.916 131.72 429.216 131.07 428.166 131.07C427.416 131.07 426.776 131.42 426.396 132.01H426.386V131.13H425.576V136ZM433.458 136.06C434.408 136.06 435.058 135.7 435.468 135.21L434.908 134.7C434.608 135.07 434.098 135.32 433.518 135.32C432.528 135.32 431.858 134.61 431.858 133.57C431.858 132.54 432.528 131.81 433.528 131.81C434.108 131.81 434.588 132.07 434.898 132.43L435.448 131.94C434.968 131.37 434.218 131.07 433.488 131.07C432.038 131.07 431.028 132.1 431.028 133.57C431.028 135.05 432.038 136.06 433.458 136.06ZM440.883 133.48C440.883 132.09 439.973 131.07 438.643 131.07C437.253 131.07 436.243 132.1 436.243 133.57C436.243 135.06 437.263 136.06 438.703 136.06C439.683 136.06 440.293 135.69 440.713 135.15L440.143 134.67C439.843 135.04 439.383 135.32 438.733 135.32C437.813 135.32 437.173 134.72 437.063 133.81H440.863C440.863 133.75 440.883 133.61 440.883 133.48ZM438.633 131.81C439.433 131.81 439.953 132.35 440.073 133.15H437.083C437.233 132.32 437.853 131.81 438.633 131.81ZM444.855 136H445.665V128.64H444.855V136ZM449.296 136.06C450.086 136.06 450.686 135.7 451.036 135.12H451.046V136H451.826V131.13H451.016V131.99L450.996 132C450.646 131.41 450.016 131.07 449.296 131.07C447.916 131.07 446.926 132.16 446.926 133.6C446.926 135.08 447.956 136.06 449.296 136.06ZM449.416 135.32C448.416 135.32 447.746 134.58 447.746 133.6C447.746 132.52 448.496 131.81 449.416 131.81C450.376 131.81 451.046 132.6 451.046 133.6C451.046 134.63 450.316 135.32 449.416 135.32ZM454.751 136.06C455.921 136.06 456.501 135.43 456.501 134.67C456.511 133.72 455.831 133.54 454.801 133.14C454.271 132.95 453.881 132.76 453.881 132.38C453.881 132.01 454.251 131.79 454.631 131.79C455.051 131.79 455.501 131.92 455.921 132.31L456.341 131.67C455.801 131.23 455.251 131.07 454.661 131.07C453.741 131.07 453.061 131.63 453.061 132.38C453.061 133.27 453.731 133.59 454.521 133.87C455.231 134.13 455.681 134.25 455.681 134.68C455.681 135.05 455.341 135.34 454.751 135.34C454.071 135.34 453.641 135.12 453.261 134.75L452.851 135.37C453.321 135.78 453.941 136.06 454.751 136.06ZM459.017 136.06C459.597 136.06 459.927 135.92 460.197 135.76L459.987 135.05C459.747 135.18 459.447 135.3 459.157 135.3C458.697 135.3 458.567 135.02 458.567 134.43V131.83H460.177V131.13H458.567V129.38L457.757 129.47V131.13H457.127V131.83H457.757V134.55C457.757 135.53 458.157 136.06 459.017 136.06ZM465.175 136H465.915L467.035 132.43H467.045L468.165 136H468.925L470.605 131.13H469.775L468.555 134.79H468.535L467.395 131.13H466.695L465.575 134.79H465.555L464.325 131.13H463.495L465.175 136ZM475.658 133.48C475.658 132.09 474.748 131.07 473.418 131.07C472.028 131.07 471.018 132.1 471.018 133.57C471.018 135.06 472.038 136.06 473.478 136.06C474.458 136.06 475.068 135.69 475.488 135.15L474.918 134.67C474.618 135.04 474.158 135.32 473.508 135.32C472.588 135.32 471.948 134.72 471.838 133.81H475.638C475.638 133.75 475.658 133.61 475.658 133.48ZM473.408 131.81C474.208 131.81 474.728 132.35 474.848 133.15H471.858C472.008 132.32 472.628 131.81 473.408 131.81ZM481.176 133.48C481.176 132.09 480.266 131.07 478.936 131.07C477.546 131.07 476.536 132.1 476.536 133.57C476.536 135.06 477.556 136.06 478.996 136.06C479.976 136.06 480.586 135.69 481.006 135.15L480.436 134.67C480.136 135.04 479.676 135.32 479.026 135.32C478.106 135.32 477.466 134.72 477.356 133.81H481.156C481.156 133.75 481.176 133.61 481.176 133.48ZM478.926 131.81C479.726 131.81 480.246 132.35 480.366 133.15H477.376C477.526 132.32 478.146 131.81 478.926 131.81ZM482.364 136H483.174V134.79L484.174 133.71L485.644 136H486.574L484.734 133.14L486.554 131.13H485.574L483.184 133.8L483.174 133.79V128.64H482.364V136Z" fill="#344146"/>
</g>
<g clip-path="url(#clip3)">
<rect x="24" y="160" width="522" height="40" rx="5" fill="#FAFAFA"/>
<path fill-rule="evenodd" clip-rule="evenodd" d="M518 175.533C519.1 175.533 520 174.633 520 173.533C520 172.433 519.1 171.533 518 171.533C516.9 171.533 516 172.433 516 173.533C516 174.633 516.9 175.533 518 175.533ZM518 177.533C516.9 177.533 516 178.433 516 179.533C516 180.633 516.9 181.533 518 181.533C519.1 181.533 520 180.633 520 179.533C520 178.433 519.1 177.533 518 177.533ZM516 185.533C516 184.433 516.9 183.533 518 183.533C519.1 183.533 520 184.433 520 185.533C520 186.633 519.1 187.533 518 187.533C516.9 187.533 516 186.633 516 185.533Z" fill="#344146"/>
<mask id="path-22-inside-3" fill="white">
<path d="M56 171H42C40.9 171 40 171.9 40 173V187C40 188.1 40.9 189 42 189H56C57.1 189 58 188.1 58 187V173C58 171.9 57.1 171 56 171Z"/>
</mask>
<path d="M56 171H42C40.9 171 40 171.9 40 173V187C40 188.1 40.9 189 42 189H56C57.1 189 58 188.1 58 187V173C58 171.9 57.1 171 56 171Z" fill="white"/>
<path d="M56 169H42V173H56V169ZM42 169C39.7954 169 38 170.795 38 173H42V169ZM38 173V187H42V173H38ZM38 187C38 189.205 39.7954 191 42 191V187H38ZM42 191H56V187H42V191ZM56 191C58.2046 191 60 189.205 60 187H56V191ZM60 187V173H56V187H60ZM60 173C60 170.795 58.2046 169 56 169V173H60Z" fill="#D8D8D8" mask="url(#path-22-inside-3)"/>
<path d="M104.186 185.112C105.782 185.112 107.616 184.188 107.616 182.13C107.616 180.212 106.244 179.75 104.536 179.078C103.332 178.616 102.66 178.364 102.674 177.636C102.688 176.894 103.304 176.474 104.074 176.474C104.746 176.474 105.544 176.824 106.356 177.496L107.364 176.166C106.356 175.368 105.25 174.948 104.074 174.948C102.352 174.948 100.924 176.166 100.924 177.72C100.924 179.54 102.422 180.212 103.934 180.744C105.194 181.192 105.852 181.472 105.852 182.34C105.852 183.068 105.292 183.544 104.2 183.544C103.346 183.544 102.366 183.11 101.652 182.242L100.588 183.544C101.624 184.622 102.912 185.112 104.186 185.112ZM112.373 185.112C113.857 185.112 114.739 184.58 115.313 183.838L114.235 182.886C113.885 183.348 113.269 183.684 112.513 183.684C111.309 183.684 110.483 182.844 110.483 181.584C110.483 180.338 111.295 179.484 112.513 179.484C113.255 179.484 113.843 179.806 114.235 180.268L115.299 179.344C114.613 178.504 113.493 178.07 112.429 178.07C110.357 178.07 108.887 179.498 108.887 181.598C108.887 183.684 110.357 185.112 112.373 185.112ZM119.923 185.112C122.023 185.112 123.507 183.67 123.507 181.598C123.507 179.498 122.023 178.07 119.923 178.07C117.767 178.07 116.339 179.582 116.339 181.598C116.339 183.6 117.767 185.112 119.923 185.112ZM119.923 183.684C118.747 183.684 117.935 182.76 117.935 181.598C117.935 180.408 118.733 179.484 119.923 179.484C121.043 179.484 121.911 180.338 121.911 181.598C121.911 182.83 121.029 183.684 119.923 183.684ZM128.317 185.112C130.417 185.112 131.901 183.67 131.901 181.598C131.901 179.498 130.417 178.07 128.317 178.07C126.161 178.07 124.733 179.582 124.733 181.598C124.733 183.6 126.161 185.112 128.317 185.112ZM128.317 183.684C127.141 183.684 126.329 182.76 126.329 181.598C126.329 180.408 127.127 179.484 128.317 179.484C129.437 179.484 130.305 180.338 130.305 181.598C130.305 182.83 129.423 183.684 128.317 183.684ZM135.564 185.112C136.46 185.112 136.894 184.93 137.3 184.706L136.894 183.348C136.53 183.544 136.152 183.642 135.886 183.642C135.438 183.642 135.228 183.39 135.228 182.69V179.498H137.23V178.168H135.228V175.732L133.66 175.9V178.168H132.82V179.498H133.66V182.844C133.66 184.37 134.388 185.112 135.564 185.112ZM144.563 181.5C144.563 179.512 143.261 178.07 141.343 178.07C139.341 178.07 137.913 179.484 137.913 181.584C137.913 183.726 139.383 185.112 141.455 185.112C142.925 185.112 143.779 184.566 144.353 183.824L143.261 182.886C142.911 183.32 142.351 183.684 141.539 183.684C140.475 183.684 139.733 183.096 139.537 182.102H144.521C144.535 181.99 144.563 181.752 144.563 181.5ZM141.329 179.484C142.225 179.484 142.785 180.044 142.981 180.87H139.565C139.789 179.974 140.461 179.484 141.329 179.484ZM146.18 185H147.748V181.766C147.748 180.646 148.42 179.792 149.61 179.792C149.722 179.792 149.904 179.806 150.086 179.82V178.07H149.89C149.064 178.07 148.308 178.476 147.776 179.19H147.748V178.168H146.18V185ZM159.909 185.112C162.779 185.112 164.921 183.054 164.921 180.03C164.921 176.992 162.779 174.948 159.909 174.948C156.927 174.948 154.883 177.104 154.883 180.03C154.883 182.956 156.927 185.112 159.909 185.112ZM159.909 183.53C157.963 183.53 156.633 181.976 156.633 180.03C156.633 178.084 157.963 176.53 159.909 176.53C161.743 176.53 163.157 177.986 163.157 180.03C163.157 182.06 161.743 183.53 159.909 183.53ZM166.715 187.772H168.283V184.174L168.311 184.16C168.815 184.776 169.529 185.112 170.453 185.112C172.357 185.112 173.771 183.726 173.771 181.612C173.771 179.554 172.357 178.07 170.467 178.07C169.571 178.07 168.815 178.392 168.311 178.98H168.283V178.168H166.715V187.772ZM170.215 183.684C169.095 183.684 168.213 182.858 168.213 181.626C168.213 180.408 169.025 179.484 170.201 179.484C171.293 179.484 172.175 180.31 172.175 181.626C172.175 182.83 171.363 183.684 170.215 183.684ZM181.655 181.5C181.655 179.512 180.353 178.07 178.435 178.07C176.433 178.07 175.005 179.484 175.005 181.584C175.005 183.726 176.475 185.112 178.547 185.112C180.017 185.112 180.871 184.566 181.445 183.824L180.353 182.886C180.003 183.32 179.443 183.684 178.631 183.684C177.567 183.684 176.825 183.096 176.629 182.102H181.613C181.627 181.99 181.655 181.752 181.655 181.5ZM178.421 179.484C179.317 179.484 179.877 180.044 180.073 180.87H176.657C176.881 179.974 177.553 179.484 178.421 179.484ZM183.272 185H184.84V181.766C184.84 180.646 185.512 179.792 186.702 179.792C186.814 179.792 186.996 179.806 187.178 179.82V178.07H186.982C186.156 178.07 185.4 178.476 184.868 179.19H184.84V178.168H183.272V185ZM191.174 185.112C192.126 185.112 192.854 184.748 193.344 184.09L193.372 184.104V185H194.87V178.168H193.302V178.994L193.274 179.008C192.784 178.392 192.028 178.07 191.16 178.07C189.284 178.07 187.87 179.554 187.87 181.612C187.87 183.726 189.284 185.112 191.174 185.112ZM191.426 183.684C190.264 183.684 189.466 182.83 189.466 181.626C189.466 180.31 190.334 179.484 191.426 179.484C192.546 179.484 193.372 180.408 193.372 181.626C193.372 182.858 192.49 183.684 191.426 183.684ZM198.878 185.112C199.774 185.112 200.208 184.93 200.614 184.706L200.208 183.348C199.844 183.544 199.466 183.642 199.2 183.642C198.752 183.642 198.542 183.39 198.542 182.69V179.498H200.544V178.168H198.542V175.732L196.974 175.9V178.168H196.134V179.498H196.974V182.844C196.974 184.37 197.702 185.112 198.878 185.112ZM204.811 185.112C206.911 185.112 208.395 183.67 208.395 181.598C208.395 179.498 206.911 178.07 204.811 178.07C202.655 178.07 201.227 179.582 201.227 181.598C201.227 183.6 202.655 185.112 204.811 185.112ZM204.811 183.684C203.635 183.684 202.823 182.76 202.823 181.598C202.823 180.408 203.621 179.484 204.811 179.484C205.931 179.484 206.799 180.338 206.799 181.598C206.799 182.83 205.917 183.684 204.811 183.684ZM210.028 185H211.596V181.766C211.596 180.646 212.268 179.792 213.458 179.792C213.57 179.792 213.752 179.806 213.934 179.82V178.07H213.738C212.912 178.07 212.156 178.476 211.624 179.19H211.596V178.168H210.028V185ZM220.719 185H222.343V175.382H221.027L218.213 177.426L218.983 178.63L220.719 177.328V185Z" fill="#344146"/>
<path d="M240.872 185H242.048V183.306H243.448V182.242H242.048V175.382H241.054L236.406 182.466V183.306H240.872V185ZM237.778 182.27L240.914 177.384V182.27H237.778ZM245.308 185.098C245.77 185.098 246.134 184.734 246.134 184.272C246.134 183.81 245.77 183.446 245.308 183.446C244.846 183.446 244.468 183.81 244.468 184.272C244.468 184.734 244.846 185.098 245.308 185.098ZM251.604 185H252.78V183.306H254.18V182.242H252.78V175.382H251.786L247.138 182.466V183.306H251.604V185ZM248.51 182.27L251.646 177.384V182.27H248.51ZM258.989 185.084C261.285 185.084 262.601 183.04 262.601 180.198C262.601 177.048 261.075 175.298 258.989 175.298C256.707 175.298 255.377 177.342 255.377 180.198C255.377 183.334 256.903 185.084 258.989 185.084ZM258.989 183.992C257.575 183.992 256.581 182.634 256.581 180.198C256.581 177.888 257.463 176.39 258.989 176.39C260.417 176.39 261.397 177.748 261.397 180.198C261.397 182.494 260.529 183.992 258.989 183.992ZM267.725 185.084C270.021 185.084 271.337 183.04 271.337 180.198C271.337 177.048 269.811 175.298 267.725 175.298C265.443 175.298 264.113 177.342 264.113 180.198C264.113 183.334 265.639 185.084 267.725 185.084ZM267.725 183.992C266.311 183.992 265.317 182.634 265.317 180.198C265.317 177.888 266.199 176.39 267.725 176.39C269.153 176.39 270.133 177.748 270.133 180.198C270.133 182.494 269.265 183.992 267.725 183.992ZM280.08 185H281.172L284.924 175.06H283.622L280.64 183.236H280.626L277.644 175.06H276.328L280.08 185ZM291.429 181.472C291.429 179.526 290.155 178.098 288.293 178.098C286.347 178.098 284.933 179.54 284.933 181.598C284.933 183.684 286.361 185.084 288.377 185.084C289.749 185.084 290.603 184.566 291.191 183.81L290.393 183.138C289.973 183.656 289.329 184.048 288.419 184.048C287.131 184.048 286.235 183.208 286.081 181.934H291.401C291.401 181.85 291.429 181.654 291.429 181.472ZM288.279 179.134C289.399 179.134 290.127 179.89 290.295 181.01H286.109C286.319 179.848 287.187 179.134 288.279 179.134ZM293.091 185H294.225V181.57C294.225 180.03 295.065 179.134 296.423 179.134C297.417 179.134 298.103 179.694 298.103 181.234V185H299.237V180.912C299.237 178.966 298.229 178.098 296.759 178.098C295.667 178.098 294.771 178.56 294.239 179.372H294.225V174.696H293.091V185ZM301.884 176.936C302.346 176.936 302.71 176.572 302.71 176.124C302.71 175.676 302.346 175.312 301.884 175.312C301.422 175.312 301.058 175.676 301.058 176.124C301.058 176.572 301.422 176.936 301.884 176.936ZM301.31 185H302.444V178.182H301.31V185ZM307.626 185.084C308.956 185.084 309.866 184.58 310.44 183.894L309.656 183.18C309.236 183.698 308.522 184.048 307.71 184.048C306.324 184.048 305.386 183.054 305.386 181.598C305.386 180.156 306.324 179.134 307.724 179.134C308.536 179.134 309.208 179.498 309.642 180.002L310.412 179.316C309.74 178.518 308.69 178.098 307.668 178.098C305.638 178.098 304.224 179.54 304.224 181.598C304.224 183.67 305.638 185.084 307.626 185.084ZM312.043 185H313.177V174.696H312.043V185ZM321.452 181.472C321.452 179.526 320.178 178.098 318.316 178.098C316.37 178.098 314.956 179.54 314.956 181.598C314.956 183.684 316.384 185.084 318.4 185.084C319.772 185.084 320.626 184.566 321.214 183.81L320.416 183.138C319.996 183.656 319.352 184.048 318.442 184.048C317.154 184.048 316.258 183.208 316.104 181.934H321.424C321.424 181.85 321.452 181.654 321.452 181.472ZM318.302 179.134C319.422 179.134 320.15 179.89 320.318 181.01H316.132C316.342 179.848 317.21 179.134 318.302 179.134ZM325.173 185.084C326.811 185.084 327.623 184.202 327.623 183.138C327.637 181.808 326.685 181.556 325.243 180.996C324.501 180.73 323.955 180.464 323.955 179.932C323.955 179.414 324.473 179.106 325.005 179.106C325.593 179.106 326.223 179.288 326.811 179.834L327.399 178.938C326.643 178.322 325.873 178.098 325.047 178.098C323.759 178.098 322.807 178.882 322.807 179.932C322.807 181.178 323.745 181.626 324.851 182.018C325.845 182.382 326.475 182.55 326.475 183.152C326.475 183.67 325.999 184.076 325.173 184.076C324.221 184.076 323.619 183.768 323.087 183.25L322.513 184.118C323.171 184.692 324.039 185.084 325.173 185.084Z" fill="#2781FF"/>
<path d="M371.77 181.248H375.914V180.128H371.77V181.248ZM381.034 185H387.082V183.922H382.826L382.812 183.88L385.318 181.36C386.508 180.156 386.97 179.218 386.97 178.14C386.97 176.362 385.57 175.312 384.03 175.312C382.532 175.312 381.566 176.068 381.034 177.132L381.902 177.734C382.35 176.866 383.05 176.418 383.96 176.418C385.024 176.418 385.766 177.202 385.766 178.266C385.766 179.218 385.122 179.988 384.31 180.828L381.02 184.188L381.034 185ZM392.089 185.084C394.385 185.084 395.701 183.04 395.701 180.198C395.701 177.048 394.175 175.298 392.089 175.298C389.807 175.298 388.477 177.342 388.477 180.198C388.477 183.334 390.003 185.084 392.089 185.084ZM392.089 183.992C390.675 183.992 389.681 182.634 389.681 180.198C389.681 177.888 390.563 176.39 392.089 176.39C393.517 176.39 394.497 177.748 394.497 180.198C394.497 182.494 393.629 183.992 392.089 183.992ZM400.029 185.084C401.807 185.084 403.137 184.02 403.137 182.424C403.137 181.276 402.493 180.408 401.471 180.016V179.974C402.381 179.582 402.885 178.714 402.885 177.818C402.885 176.222 401.569 175.298 399.931 175.298C398.545 175.298 397.565 175.942 397.061 176.824L398.013 177.356C398.391 176.796 398.951 176.39 399.903 176.39C400.911 176.39 401.695 177.02 401.695 177.972C401.695 178.742 401.191 179.512 399.959 179.512H399.021V180.52H399.819C401.247 180.52 401.933 181.332 401.933 182.256C401.933 183.306 401.065 183.992 399.945 183.992C398.825 183.992 398.097 183.488 397.761 182.718L396.739 183.18C397.215 184.286 398.391 185.084 400.029 185.084Z" fill="#FF0043"/>
<circle cx="83" cy="180" r="9" fill="#31CDFF"/>
<path d="M420.23 184.06C421.4 184.06 421.98 183.43 421.98 182.67C421.99 181.72 421.31 181.54 420.28 181.14C419.75 180.95 419.36 180.76 419.36 180.38C419.36 180.01 419.73 179.79 420.11 179.79C420.53 179.79 420.98 179.92 421.4 180.31L421.82 179.67C421.28 179.23 420.73 179.07 420.14 179.07C419.22 179.07 418.54 179.63 418.54 180.38C418.54 181.27 419.21 181.59 420 181.87C420.71 182.13 421.16 182.25 421.16 182.68C421.16 183.05 420.82 183.34 420.23 183.34C419.55 183.34 419.12 183.12 418.74 182.75L418.33 183.37C418.8 183.78 419.42 184.06 420.23 184.06ZM423.595 178.24C423.925 178.24 424.185 177.98 424.185 177.66C424.185 177.34 423.925 177.08 423.595 177.08C423.265 177.08 423.005 177.34 423.005 177.66C423.005 177.98 423.265 178.24 423.595 178.24ZM423.185 184H423.995V179.13H423.185V184ZM425.576 184H426.386V181.57C426.386 180.47 426.986 179.81 427.906 179.81C428.616 179.81 429.106 180.2 429.106 181.34V184H429.916V181.11C429.916 179.72 429.216 179.07 428.166 179.07C427.416 179.07 426.776 179.42 426.396 180.01H426.386V179.13H425.576V184ZM433.458 184.06C434.408 184.06 435.058 183.7 435.468 183.21L434.908 182.7C434.608 183.07 434.098 183.32 433.518 183.32C432.528 183.32 431.858 182.61 431.858 181.57C431.858 180.54 432.528 179.81 433.528 179.81C434.108 179.81 434.588 180.07 434.898 180.43L435.448 179.94C434.968 179.37 434.218 179.07 433.488 179.07C432.038 179.07 431.028 180.1 431.028 181.57C431.028 183.05 432.038 184.06 433.458 184.06ZM440.883 181.48C440.883 180.09 439.973 179.07 438.643 179.07C437.253 179.07 436.243 180.1 436.243 181.57C436.243 183.06 437.263 184.06 438.703 184.06C439.683 184.06 440.293 183.69 440.713 183.15L440.143 182.67C439.843 183.04 439.383 183.32 438.733 183.32C437.813 183.32 437.173 182.72 437.063 181.81H440.863C440.863 181.75 440.883 181.61 440.883 181.48ZM438.633 179.81C439.433 179.81 439.953 180.35 440.073 181.15H437.083C437.233 180.32 437.853 179.81 438.633 179.81ZM444.855 184H445.665V176.64H444.855V184ZM449.296 184.06C450.086 184.06 450.686 183.7 451.036 183.12H451.046V184H451.826V179.13H451.016V179.99L450.996 180C450.646 179.41 450.016 179.07 449.296 179.07C447.916 179.07 446.926 180.16 446.926 181.6C446.926 183.08 447.956 184.06 449.296 184.06ZM449.416 183.32C448.416 183.32 447.746 182.58 447.746 181.6C447.746 180.52 448.496 179.81 449.416 179.81C450.376 179.81 451.046 180.6 451.046 181.6C451.046 182.63 450.316 183.32 449.416 183.32ZM454.751 184.06C455.921 184.06 456.501 183.43 456.501 182.67C456.511 181.72 455.831 181.54 454.801 181.14C454.271 180.95 453.881 180.76 453.881 180.38C453.881 180.01 454.251 179.79 454.631 179.79C455.051 179.79 455.501 179.92 455.921 180.31L456.341 179.67C455.801 179.23 455.251 179.07 454.661 179.07C453.741 179.07 453.061 179.63 453.061 180.38C453.061 181.27 453.731 181.59 454.521 181.87C455.231 182.13 455.681 182.25 455.681 182.68C455.681 183.05 455.341 183.34 454.751 183.34C454.071 183.34 453.641 183.12 453.261 182.75L452.851 183.37C453.321 183.78 453.941 184.06 454.751 184.06ZM459.017 184.06C459.597 184.06 459.927 183.92 460.197 183.76L459.987 183.05C459.747 183.18 459.447 183.3 459.157 183.3C458.697 183.3 458.567 183.02 458.567 182.43V179.83H460.177V179.13H458.567V177.38L457.757 177.47V179.13H457.127V179.83H457.757V182.55C457.757 183.53 458.157 184.06 459.017 184.06ZM465.175 184H465.915L467.035 180.43H467.045L468.165 184H468.925L470.605 179.13H469.775L468.555 182.79H468.535L467.395 179.13H466.695L465.575 182.79H465.555L464.325 179.13H463.495L465.175 184ZM475.658 181.48C475.658 180.09 474.748 179.07 473.418 179.07C472.028 179.07 471.018 180.1 471.018 181.57C471.018 183.06 472.038 184.06 473.478 184.06C474.458 184.06 475.068 183.69 475.488 183.15L474.918 182.67C474.618 183.04 474.158 183.32 473.508 183.32C472.588 183.32 471.948 182.72 471.838 181.81H475.638C475.638 181.75 475.658 181.61 475.658 181.48ZM473.408 179.81C474.208 179.81 474.728 180.35 474.848 181.15H471.858C472.008 180.32 472.628 179.81 473.408 179.81ZM481.176 181.48C481.176 180.09 480.266 179.07 478.936 179.07C477.546 179.07 476.536 180.1 476.536 181.57C476.536 183.06 477.556 184.06 478.996 184.06C479.976 184.06 480.586 183.69 481.006 183.15L480.436 182.67C480.136 183.04 479.676 183.32 479.026 183.32C478.106 183.32 477.466 182.72 477.356 181.81H481.156C481.156 181.75 481.176 181.61 481.176 181.48ZM478.926 179.81C479.726 179.81 480.246 180.35 480.366 181.15H477.376C477.526 180.32 478.146 179.81 478.926 179.81ZM482.364 184H483.174V182.79L484.174 181.71L485.644 184H486.574L484.734 181.14L486.554 179.13H485.574L483.184 181.8L483.174 181.79V176.64H482.364V184Z" fill="#344146"/>
</g>
<g clip-path="url(#clip4)">
<rect x="24" y="208" width="522" height="40" rx="5" fill="#FAFAFA"/>
<path fill-rule="evenodd" clip-rule="evenodd" d="M518 223.533C519.1 223.533 520 222.633 520 221.533C520 220.433 519.1 219.533 518 219.533C516.9 219.533 516 220.433 516 221.533C516 222.633 516.9 223.533 518 223.533ZM518 225.533C516.9 225.533 516 226.433 516 227.533C516 228.633 516.9 229.533 518 229.533C519.1 229.533 520 228.633 520 227.533C520 226.433 519.1 225.533 518 225.533ZM516 233.533C516 232.433 516.9 231.533 518 231.533C519.1 231.533 520 232.433 520 233.533C520 234.633 519.1 235.533 518 235.533C516.9 235.533 516 234.633 516 233.533Z" fill="#344146"/>
<mask id="path-31-inside-4" fill="white">
<path d="M56 219H42C40.9 219 40 219.9 40 221V235C40 236.1 40.9 237 42 237H56C57.1 237 58 236.1 58 235V221C58 219.9 57.1 219 56 219Z"/>
</mask>
<path d="M56 219H42C40.9 219 40 219.9 40 221V235C40 236.1 40.9 237 42 237H56C57.1 237 58 236.1 58 235V221C58 219.9 57.1 219 56 219Z" fill="white"/>
<path d="M56 217H42V221H56V217ZM42 217C39.7954 217 38 218.795 38 221H42V217ZM38 221V235H42V221H38ZM38 235C38 237.205 39.7954 239 42 239V235H38ZM42 239H56V235H42V239ZM56 239C58.2046 239 60 237.205 60 235H56V239ZM60 235V221H56V235H60ZM60 221C60 218.795 58.2046 217 56 217V221H60Z" fill="#D8D8D8" mask="url(#path-31-inside-4)"/>
<path d="M104.186 233.112C105.782 233.112 107.616 232.188 107.616 230.13C107.616 228.212 106.244 227.75 104.536 227.078C103.332 226.616 102.66 226.364 102.674 225.636C102.688 224.894 103.304 224.474 104.074 224.474C104.746 224.474 105.544 224.824 106.356 225.496L107.364 224.166C106.356 223.368 105.25 222.948 104.074 222.948C102.352 222.948 100.924 224.166 100.924 225.72C100.924 227.54 102.422 228.212 103.934 228.744C105.194 229.192 105.852 229.472 105.852 230.34C105.852 231.068 105.292 231.544 104.2 231.544C103.346 231.544 102.366 231.11 101.652 230.242L100.588 231.544C101.624 232.622 102.912 233.112 104.186 233.112ZM109.293 233H110.861V229.528C110.861 228.184 111.561 227.484 112.695 227.484C113.633 227.484 114.179 227.96 114.179 229.318V233H115.747V228.912C115.747 226.868 114.697 226.07 113.199 226.07C112.275 226.07 111.449 226.392 110.875 227.022H110.861V222.696H109.293V233ZM120.083 233.112C120.867 233.112 121.623 232.79 122.169 232.132L122.197 232.146V233H123.765V226.168H122.197V229.444C122.197 230.914 121.357 231.684 120.447 231.684C119.509 231.684 119.089 231.264 119.089 229.906V226.168H117.521V230.326C117.521 232.356 118.571 233.112 120.083 233.112ZM127.784 233.112C128.68 233.112 129.114 232.93 129.52 232.706L129.114 231.348C128.75 231.544 128.372 231.642 128.106 231.642C127.658 231.642 127.448 231.39 127.448 230.69V227.498H129.45V226.168H127.448V223.732L125.88 223.9V226.168H125.04V227.498H125.88V230.844C125.88 232.37 126.608 233.112 127.784 233.112ZM132.993 233.112C133.889 233.112 134.323 232.93 134.729 232.706L134.323 231.348C133.959 231.544 133.581 231.642 133.315 231.642C132.867 231.642 132.657 231.39 132.657 230.69V227.498H134.659V226.168H132.657V223.732L131.089 223.9V226.168H130.249V227.498H131.089V230.844C131.089 232.37 131.817 233.112 132.993 233.112ZM136.175 233H137.743V222.696H136.175V233ZM146.135 229.5C146.135 227.512 144.833 226.07 142.915 226.07C140.913 226.07 139.485 227.484 139.485 229.584C139.485 231.726 140.955 233.112 143.027 233.112C144.497 233.112 145.351 232.566 145.925 231.824L144.833 230.886C144.483 231.32 143.923 231.684 143.111 231.684C142.047 231.684 141.305 231.096 141.109 230.102H146.093C146.107 229.99 146.135 229.752 146.135 229.5ZM142.901 227.484C143.797 227.484 144.357 228.044 144.553 228.87H141.137C141.361 227.974 142.033 227.484 142.901 227.484ZM156.273 233.112C159.143 233.112 161.285 231.054 161.285 228.03C161.285 224.992 159.143 222.948 156.273 222.948C153.291 222.948 151.247 225.104 151.247 228.03C151.247 230.956 153.291 233.112 156.273 233.112ZM156.273 231.53C154.327 231.53 152.997 229.976 152.997 228.03C152.997 226.084 154.327 224.53 156.273 224.53C158.107 224.53 159.521 225.986 159.521 228.03C159.521 230.06 158.107 231.53 156.273 231.53ZM163.079 235.772H164.647V232.174L164.675 232.16C165.179 232.776 165.893 233.112 166.817 233.112C168.721 233.112 170.135 231.726 170.135 229.612C170.135 227.554 168.721 226.07 166.831 226.07C165.935 226.07 165.179 226.392 164.675 226.98H164.647V226.168H163.079V235.772ZM166.579 231.684C165.459 231.684 164.577 230.858 164.577 229.626C164.577 228.408 165.389 227.484 166.565 227.484C167.657 227.484 168.539 228.31 168.539 229.626C168.539 230.83 167.727 231.684 166.579 231.684ZM178.018 229.5C178.018 227.512 176.716 226.07 174.798 226.07C172.796 226.07 171.368 227.484 171.368 229.584C171.368 231.726 172.838 233.112 174.91 233.112C176.38 233.112 177.234 232.566 177.808 231.824L176.716 230.886C176.366 231.32 175.806 231.684 174.994 231.684C173.93 231.684 173.188 231.096 172.992 230.102H177.976C177.99 229.99 178.018 229.752 178.018 229.5ZM174.784 227.484C175.68 227.484 176.24 228.044 176.436 228.87H173.02C173.244 227.974 173.916 227.484 174.784 227.484ZM179.635 233H181.203V229.766C181.203 228.646 181.875 227.792 183.065 227.792C183.177 227.792 183.359 227.806 183.541 227.82V226.07H183.345C182.519 226.07 181.763 226.476 181.231 227.19H181.203V226.168H179.635V233ZM187.537 233.112C188.489 233.112 189.217 232.748 189.707 232.09L189.735 232.104V233H191.233V226.168H189.665V226.994L189.637 227.008C189.147 226.392 188.391 226.07 187.523 226.07C185.647 226.07 184.233 227.554 184.233 229.612C184.233 231.726 185.647 233.112 187.537 233.112ZM187.789 231.684C186.627 231.684 185.829 230.83 185.829 229.626C185.829 228.31 186.697 227.484 187.789 227.484C188.909 227.484 189.735 228.408 189.735 229.626C189.735 230.858 188.853 231.684 187.789 231.684ZM195.241 233.112C196.137 233.112 196.571 232.93 196.977 232.706L196.571 231.348C196.207 231.544 195.829 231.642 195.563 231.642C195.115 231.642 194.905 231.39 194.905 230.69V227.498H196.907V226.168H194.905V223.732L193.337 223.9V226.168H192.497V227.498H193.337V230.844C193.337 232.37 194.065 233.112 195.241 233.112ZM201.175 233.112C203.275 233.112 204.759 231.67 204.759 229.598C204.759 227.498 203.275 226.07 201.175 226.07C199.019 226.07 197.591 227.582 197.591 229.598C197.591 231.6 199.019 233.112 201.175 233.112ZM201.175 231.684C199.999 231.684 199.187 230.76 199.187 229.598C199.187 228.408 199.985 227.484 201.175 227.484C202.295 227.484 203.163 228.338 203.163 229.598C203.163 230.83 202.281 231.684 201.175 231.684ZM206.391 233H207.959V229.766C207.959 228.646 208.631 227.792 209.821 227.792C209.933 227.792 210.115 227.806 210.297 227.82V226.07H210.101C209.275 226.07 208.519 226.476 207.987 227.19H207.959V226.168H206.391V233ZM214.912 233H221.086V231.516H217.376L217.362 231.474L219.392 229.36C220.61 228.1 220.988 227.19 220.988 226.126C220.988 224.362 219.56 223.298 217.978 223.298C216.41 223.298 215.416 224.082 214.87 225.118L216.032 225.944C216.466 225.188 217.096 224.81 217.866 224.81C218.734 224.81 219.336 225.454 219.336 226.308C219.336 227.134 218.762 227.834 217.978 228.66L214.884 231.922L214.912 233Z" fill="#344146"/>
<path d="M238.772 233H239.948V223.382H238.968L236.28 225.37L236.854 226.252L238.772 224.796V233ZM245.577 233.084C247.873 233.084 249.189 231.04 249.189 228.198C249.189 225.048 247.663 223.298 245.577 223.298C243.295 223.298 241.965 225.342 241.965 228.198C241.965 231.334 243.491 233.084 245.577 233.084ZM245.577 231.992C244.163 231.992 243.169 230.634 243.169 228.198C243.169 225.888 244.051 224.39 245.577 224.39C247.005 224.39 247.985 225.748 247.985 228.198C247.985 230.494 247.117 231.992 245.577 231.992ZM250.172 223.382V224.46H254.82L251.152 232.93L252.328 233.168L256.136 224.208V223.382H250.172ZM264.672 233H265.764L269.516 223.06H268.214L265.232 231.236H265.218L262.236 223.06H260.92L264.672 233ZM276.021 229.472C276.021 227.526 274.747 226.098 272.885 226.098C270.939 226.098 269.525 227.54 269.525 229.598C269.525 231.684 270.953 233.084 272.969 233.084C274.341 233.084 275.195 232.566 275.783 231.81L274.985 231.138C274.565 231.656 273.921 232.048 273.011 232.048C271.723 232.048 270.827 231.208 270.673 229.934H275.993C275.993 229.85 276.021 229.654 276.021 229.472ZM272.871 227.134C273.991 227.134 274.719 227.89 274.887 229.01H270.701C270.911 227.848 271.779 227.134 272.871 227.134ZM277.683 233H278.817V229.57C278.817 228.03 279.657 227.134 281.015 227.134C282.009 227.134 282.695 227.694 282.695 229.234V233H283.829V228.912C283.829 226.966 282.821 226.098 281.351 226.098C280.259 226.098 279.363 226.56 278.831 227.372H278.817V222.696H277.683V233ZM286.476 224.936C286.938 224.936 287.302 224.572 287.302 224.124C287.302 223.676 286.938 223.312 286.476 223.312C286.014 223.312 285.65 223.676 285.65 224.124C285.65 224.572 286.014 224.936 286.476 224.936ZM285.902 233H287.036V226.182H285.902V233ZM292.218 233.084C293.548 233.084 294.458 232.58 295.032 231.894L294.248 231.18C293.828 231.698 293.114 232.048 292.302 232.048C290.916 232.048 289.978 231.054 289.978 229.598C289.978 228.156 290.916 227.134 292.316 227.134C293.128 227.134 293.8 227.498 294.234 228.002L295.004 227.316C294.332 226.518 293.282 226.098 292.26 226.098C290.23 226.098 288.816 227.54 288.816 229.598C288.816 231.67 290.23 233.084 292.218 233.084ZM296.634 233H297.768V222.696H296.634V233ZM306.044 229.472C306.044 227.526 304.77 226.098 302.908 226.098C300.962 226.098 299.548 227.54 299.548 229.598C299.548 231.684 300.976 233.084 302.992 233.084C304.364 233.084 305.218 232.566 305.806 231.81L305.008 231.138C304.588 231.656 303.944 232.048 303.034 232.048C301.746 232.048 300.85 231.208 300.696 229.934H306.016C306.016 229.85 306.044 229.654 306.044 229.472ZM302.894 227.134C304.014 227.134 304.742 227.89 304.91 229.01H300.724C300.934 227.848 301.802 227.134 302.894 227.134ZM309.765 233.084C311.403 233.084 312.215 232.202 312.215 231.138C312.229 229.808 311.277 229.556 309.835 228.996C309.093 228.73 308.547 228.464 308.547 227.932C308.547 227.414 309.065 227.106 309.597 227.106C310.185 227.106 310.815 227.288 311.403 227.834L311.991 226.938C311.235 226.322 310.465 226.098 309.639 226.098C308.351 226.098 307.399 226.882 307.399 227.932C307.399 229.178 308.337 229.626 309.443 230.018C310.437 230.382 311.067 230.55 311.067 231.152C311.067 231.67 310.591 232.076 309.765 232.076C308.813 232.076 308.211 231.768 307.679 231.25L307.105 232.118C307.763 232.692 308.631 233.084 309.765 233.084Z" fill="#2781FF"/>
<path d="M374.528 232.398H375.578V229.654H378.336V228.604H375.578V225.846H374.528V228.604H371.77V229.654H374.528V232.398ZM379.667 234.582L385.043 222.654L384.147 222.22L378.757 234.162L379.667 234.582ZM385.633 229.248H389.777V228.128H385.633V229.248ZM398.733 233.084C401.029 233.084 402.345 231.04 402.345 228.198C402.345 225.048 400.819 223.298 398.733 223.298C396.451 223.298 395.121 225.342 395.121 228.198C395.121 231.334 396.647 233.084 398.733 233.084ZM398.733 231.992C397.319 231.992 396.325 230.634 396.325 228.198C396.325 225.888 397.207 224.39 398.733 224.39C400.161 224.39 401.141 225.748 401.141 228.198C401.141 230.494 400.273 231.992 398.733 231.992Z" fill="#969696"/>
<circle cx="83" cy="228" r="9" fill="#FF316F"/>
<path d="M420.23 232.06C421.4 232.06 421.98 231.43 421.98 230.67C421.99 229.72 421.31 229.54 420.28 229.14C419.75 228.95 419.36 228.76 419.36 228.38C419.36 228.01 419.73 227.79 420.11 227.79C420.53 227.79 420.98 227.92 421.4 228.31L421.82 227.67C421.28 227.23 420.73 227.07 420.14 227.07C419.22 227.07 418.54 227.63 418.54 228.38C418.54 229.27 419.21 229.59 420 229.87C420.71 230.13 421.16 230.25 421.16 230.68C421.16 231.05 420.82 231.34 420.23 231.34C419.55 231.34 419.12 231.12 418.74 230.75L418.33 231.37C418.8 231.78 419.42 232.06 420.23 232.06ZM423.595 226.24C423.925 226.24 424.185 225.98 424.185 225.66C424.185 225.34 423.925 225.08 423.595 225.08C423.265 225.08 423.005 225.34 423.005 225.66C423.005 225.98 423.265 226.24 423.595 226.24ZM423.185 232H423.995V227.13H423.185V232ZM425.576 232H426.386V229.57C426.386 228.47 426.986 227.81 427.906 227.81C428.616 227.81 429.106 228.2 429.106 229.34V232H429.916V229.11C429.916 227.72 429.216 227.07 428.166 227.07C427.416 227.07 426.776 227.42 426.396 228.01H426.386V227.13H425.576V232ZM433.458 232.06C434.408 232.06 435.058 231.7 435.468 231.21L434.908 230.7C434.608 231.07 434.098 231.32 433.518 231.32C432.528 231.32 431.858 230.61 431.858 229.57C431.858 228.54 432.528 227.81 433.528 227.81C434.108 227.81 434.588 228.07 434.898 228.43L435.448 227.94C434.968 227.37 434.218 227.07 433.488 227.07C432.038 227.07 431.028 228.1 431.028 229.57C431.028 231.05 432.038 232.06 433.458 232.06ZM440.883 229.48C440.883 228.09 439.973 227.07 438.643 227.07C437.253 227.07 436.243 228.1 436.243 229.57C436.243 231.06 437.263 232.06 438.703 232.06C439.683 232.06 440.293 231.69 440.713 231.15L440.143 230.67C439.843 231.04 439.383 231.32 438.733 231.32C437.813 231.32 437.173 230.72 437.063 229.81H440.863C440.863 229.75 440.883 229.61 440.883 229.48ZM438.633 227.81C439.433 227.81 439.953 228.35 440.073 229.15H437.083C437.233 228.32 437.853 227.81 438.633 227.81ZM444.855 232H445.665V224.64H444.855V232ZM449.296 232.06C450.086 232.06 450.686 231.7 451.036 231.12H451.046V232H451.826V227.13H451.016V227.99L450.996 228C450.646 227.41 450.016 227.07 449.296 227.07C447.916 227.07 446.926 228.16 446.926 229.6C446.926 231.08 447.956 232.06 449.296 232.06ZM449.416 231.32C448.416 231.32 447.746 230.58 447.746 229.6C447.746 228.52 448.496 227.81 449.416 227.81C450.376 227.81 451.046 228.6 451.046 229.6C451.046 230.63 450.316 231.32 449.416 231.32ZM454.751 232.06C455.921 232.06 456.501 231.43 456.501 230.67C456.511 229.72 455.831 229.54 454.801 229.14C454.271 228.95 453.881 228.76 453.881 228.38C453.881 228.01 454.251 227.79 454.631 227.79C455.051 227.79 455.501 227.92 455.921 228.31L456.341 227.67C455.801 227.23 455.251 227.07 454.661 227.07C453.741 227.07 453.061 227.63 453.061 228.38C453.061 229.27 453.731 229.59 454.521 229.87C455.231 230.13 455.681 230.25 455.681 230.68C455.681 231.05 455.341 231.34 454.751 231.34C454.071 231.34 453.641 231.12 453.261 230.75L452.851 231.37C453.321 231.78 453.941 232.06 454.751 232.06ZM459.017 232.06C459.597 232.06 459.927 231.92 460.197 231.76L459.987 231.05C459.747 231.18 459.447 231.3 459.157 231.3C458.697 231.3 458.567 231.02 458.567 230.43V227.83H460.177V227.13H458.567V225.38L457.757 225.47V227.13H457.127V227.83H457.757V230.55C457.757 231.53 458.157 232.06 459.017 232.06ZM465.175 232H465.915L467.035 228.43H467.045L468.165 232H468.925L470.605 227.13H469.775L468.555 230.79H468.535L467.395 227.13H466.695L465.575 230.79H465.555L464.325 227.13H463.495L465.175 232ZM475.658 229.48C475.658 228.09 474.748 227.07 473.418 227.07C472.028 227.07 471.018 228.1 471.018 229.57C471.018 231.06 472.038 232.06 473.478 232.06C474.458 232.06 475.068 231.69 475.488 231.15L474.918 230.67C474.618 231.04 474.158 231.32 473.508 231.32C472.588 231.32 471.948 230.72 471.838 229.81H475.638C475.638 229.75 475.658 229.61 475.658 229.48ZM473.408 227.81C474.208 227.81 474.728 228.35 474.848 229.15H471.858C472.008 228.32 472.628 227.81 473.408 227.81ZM481.176 229.48C481.176 228.09 480.266 227.07 478.936 227.07C477.546 227.07 476.536 228.1 476.536 229.57C476.536 231.06 477.556 232.06 478.996 232.06C479.976 232.06 480.586 231.69 481.006 231.15L480.436 230.67C480.136 231.04 479.676 231.32 479.026 231.32C478.106 231.32 477.466 230.72 477.356 229.81H481.156C481.156 229.75 481.176 229.61 481.176 229.48ZM478.926 227.81C479.726 227.81 480.246 228.35 480.366 229.15H477.376C477.526 228.32 478.146 227.81 478.926 227.81ZM482.364 232H483.174V230.79L484.174 229.71L485.644 232H486.574L484.734 229.14L486.554 227.13H485.574L483.184 229.8L483.174 229.79V224.64H482.364V232Z" fill="#344146"/>
</g>
<g clip-path="url(#clip5)">
<rect x="24" y="256" width="522" height="40" rx="5" fill="#FAFAFA"/>
<path fill-rule="evenodd" clip-rule="evenodd" d="M518 271.533C519.1 271.533 520 270.633 520 269.533C520 268.433 519.1 267.533 518 267.533C516.9 267.533 516 268.433 516 269.533C516 270.633 516.9 271.533 518 271.533ZM518 273.533C516.9 273.533 516 274.433 516 275.533C516 276.633 516.9 277.533 518 277.533C519.1 277.533 520 276.633 520 275.533C520 274.433 519.1 273.533 518 273.533ZM516 281.533C516 280.433 516.9 279.533 518 279.533C519.1 279.533 520 280.433 520 281.533C520 282.633 519.1 283.533 518 283.533C516.9 283.533 516 282.633 516 281.533Z" fill="#344146"/>
<mask id="path-40-inside-5" fill="white">
<path d="M56 267H42C40.9 267 40 267.9 40 269V283C40 284.1 40.9 285 42 285H56C57.1 285 58 284.1 58 283V269C58 267.9 57.1 267 56 267Z"/>
</mask>
<path d="M56 267H42C40.9 267 40 267.9 40 269V283C40 284.1 40.9 285 42 285H56C57.1 285 58 284.1 58 283V269C58 267.9 57.1 267 56 267Z" fill="white"/>
<path d="M56 265H42V269H56V265ZM42 265C39.7954 265 38 266.795 38 269H42V265ZM38 269V283H42V269H38ZM38 283C38 285.205 39.7954 287 42 287V283H38ZM42 287H56V283H42V287ZM56 287C58.2046 287 60 285.205 60 283H56V287ZM60 283V269H56V283H60ZM60 269C60 266.795 58.2046 265 56 265V269H60Z" fill="#D8D8D8" mask="url(#path-40-inside-5)"/>
<path d="M101.232 281H102.926V274.35H102.94L105.656 279.082H106.762L109.478 274.35H109.506V281H111.2V271.06H109.506L106.23 277.01H106.202L102.926 271.06H101.232V281ZM116.614 281.112C118.714 281.112 120.198 279.67 120.198 277.598C120.198 275.498 118.714 274.07 116.614 274.07C114.458 274.07 113.03 275.582 113.03 277.598C113.03 279.6 114.458 281.112 116.614 281.112ZM116.614 279.684C115.438 279.684 114.626 278.76 114.626 277.598C114.626 276.408 115.424 275.484 116.614 275.484C117.734 275.484 118.602 276.338 118.602 277.598C118.602 278.83 117.72 279.684 116.614 279.684ZM121.831 283.772H123.399V280.174L123.427 280.16C123.931 280.776 124.645 281.112 125.569 281.112C127.473 281.112 128.887 279.726 128.887 277.612C128.887 275.554 127.473 274.07 125.583 274.07C124.687 274.07 123.931 274.392 123.427 274.98H123.399V274.168H121.831V283.772ZM125.331 279.684C124.211 279.684 123.329 278.858 123.329 277.626C123.329 276.408 124.141 275.484 125.317 275.484C126.409 275.484 127.291 276.31 127.291 277.626C127.291 278.83 126.479 279.684 125.331 279.684ZM136.77 277.5C136.77 275.512 135.468 274.07 133.55 274.07C131.548 274.07 130.12 275.484 130.12 277.584C130.12 279.726 131.59 281.112 133.662 281.112C135.132 281.112 135.986 280.566 136.56 279.824L135.468 278.886C135.118 279.32 134.558 279.684 133.746 279.684C132.682 279.684 131.94 279.096 131.744 278.102H136.728C136.742 277.99 136.77 277.752 136.77 277.5ZM133.536 275.484C134.432 275.484 134.992 276.044 135.188 276.87H131.772C131.996 275.974 132.668 275.484 133.536 275.484ZM141.285 281.112C142.265 281.112 143.007 280.734 143.511 280.076H143.525V281H145.023V270.696H143.469V275.008H143.455C142.937 274.392 142.167 274.07 141.271 274.07C139.395 274.07 137.967 275.554 137.967 277.612C137.967 279.726 139.395 281.112 141.285 281.112ZM141.523 279.684C140.375 279.684 139.563 278.83 139.563 277.626C139.563 276.31 140.445 275.484 141.537 275.484C142.713 275.484 143.525 276.408 143.525 277.626C143.525 278.858 142.643 279.684 141.523 279.684ZM155.589 281.112C158.459 281.112 160.601 279.054 160.601 276.03C160.601 272.992 158.459 270.948 155.589 270.948C152.607 270.948 150.563 273.104 150.563 276.03C150.563 278.956 152.607 281.112 155.589 281.112ZM155.589 279.53C153.643 279.53 152.313 277.976 152.313 276.03C152.313 274.084 153.643 272.53 155.589 272.53C157.423 272.53 158.837 273.986 158.837 276.03C158.837 278.06 157.423 279.53 155.589 279.53ZM162.395 283.772H163.963V280.174L163.991 280.16C164.495 280.776 165.209 281.112 166.133 281.112C168.037 281.112 169.451 279.726 169.451 277.612C169.451 275.554 168.037 274.07 166.147 274.07C165.251 274.07 164.495 274.392 163.991 274.98H163.963V274.168H162.395V283.772ZM165.895 279.684C164.775 279.684 163.893 278.858 163.893 277.626C163.893 276.408 164.705 275.484 165.881 275.484C166.973 275.484 167.855 276.31 167.855 277.626C167.855 278.83 167.043 279.684 165.895 279.684ZM177.334 277.5C177.334 275.512 176.032 274.07 174.114 274.07C172.112 274.07 170.684 275.484 170.684 277.584C170.684 279.726 172.154 281.112 174.226 281.112C175.696 281.112 176.55 280.566 177.124 279.824L176.032 278.886C175.682 279.32 175.122 279.684 174.31 279.684C173.246 279.684 172.504 279.096 172.308 278.102H177.292C177.306 277.99 177.334 277.752 177.334 277.5ZM174.1 275.484C174.996 275.484 175.556 276.044 175.752 276.87H172.336C172.56 275.974 173.232 275.484 174.1 275.484ZM178.952 281H180.52V277.766C180.52 276.646 181.192 275.792 182.382 275.792C182.494 275.792 182.676 275.806 182.858 275.82V274.07H182.662C181.836 274.07 181.08 274.476 180.548 275.19H180.52V274.168H178.952V281ZM186.853 281.112C187.805 281.112 188.533 280.748 189.023 280.09L189.051 280.104V281H190.549V274.168H188.981V274.994L188.953 275.008C188.463 274.392 187.707 274.07 186.839 274.07C184.963 274.07 183.549 275.554 183.549 277.612C183.549 279.726 184.963 281.112 186.853 281.112ZM187.105 279.684C185.943 279.684 185.145 278.83 185.145 277.626C185.145 276.31 186.013 275.484 187.105 275.484C188.225 275.484 189.051 276.408 189.051 277.626C189.051 278.858 188.169 279.684 187.105 279.684ZM194.558 281.112C195.454 281.112 195.888 280.93 196.294 280.706L195.888 279.348C195.524 279.544 195.146 279.642 194.88 279.642C194.432 279.642 194.222 279.39 194.222 278.69V275.498H196.224V274.168H194.222V271.732L192.654 271.9V274.168H191.814V275.498H192.654V278.844C192.654 280.37 193.382 281.112 194.558 281.112ZM200.491 281.112C202.591 281.112 204.075 279.67 204.075 277.598C204.075 275.498 202.591 274.07 200.491 274.07C198.335 274.07 196.907 275.582 196.907 277.598C196.907 279.6 198.335 281.112 200.491 281.112ZM200.491 279.684C199.315 279.684 198.503 278.76 198.503 277.598C198.503 276.408 199.301 275.484 200.491 275.484C201.611 275.484 202.479 276.338 202.479 277.598C202.479 278.83 201.597 279.684 200.491 279.684ZM205.708 281H207.276V277.766C207.276 276.646 207.948 275.792 209.138 275.792C209.25 275.792 209.432 275.806 209.614 275.82V274.07H209.418C208.592 274.07 207.836 274.476 207.304 275.19H207.276V274.168H205.708V281ZM216.399 281H218.023V271.382H216.707L213.893 273.426L214.663 274.63L216.399 273.328V281Z" fill="#344146"/>
<path d="M238.772 281H239.948V271.382H238.968L236.28 273.37L236.854 274.252L238.772 272.796V281ZM245.199 281.084C247.089 281.084 248.587 280.02 248.587 278.354C248.587 277.052 247.803 276.128 246.739 275.806V275.778C247.411 275.554 248.111 274.784 248.111 273.748C248.111 272.278 246.935 271.298 245.199 271.298C243.561 271.298 242.301 272.208 242.301 273.748C242.301 274.77 242.987 275.526 243.659 275.778V275.806C242.609 276.142 241.825 277.066 241.825 278.354C241.825 279.922 243.211 281.084 245.199 281.084ZM245.199 275.288C244.163 275.288 243.435 274.728 243.435 273.846C243.435 273.02 244.121 272.348 245.199 272.348C246.221 272.348 246.977 272.964 246.977 273.846C246.977 274.728 246.249 275.288 245.199 275.288ZM245.199 280.02C243.981 280.02 243.029 279.264 243.029 278.228C243.029 277.122 243.883 276.38 245.199 276.38C246.501 276.38 247.383 277.122 247.383 278.228C247.383 279.194 246.515 280.02 245.199 280.02ZM249.753 281H255.801V279.922H251.545L251.531 279.88L254.037 277.36C255.227 276.156 255.689 275.218 255.689 274.14C255.689 272.362 254.289 271.312 252.749 271.312C251.251 271.312 250.285 272.068 249.753 273.132L250.621 273.734C251.069 272.866 251.769 272.418 252.679 272.418C253.743 272.418 254.485 273.202 254.485 274.266C254.485 275.218 253.841 275.988 253.029 276.828L249.739 280.188L249.753 281ZM264.426 281H265.518L269.27 271.06H267.968L264.986 279.236H264.972L261.99 271.06H260.674L264.426 281ZM275.774 277.472C275.774 275.526 274.5 274.098 272.638 274.098C270.692 274.098 269.278 275.54 269.278 277.598C269.278 279.684 270.706 281.084 272.722 281.084C274.094 281.084 274.948 280.566 275.536 279.81L274.738 279.138C274.318 279.656 273.674 280.048 272.764 280.048C271.476 280.048 270.58 279.208 270.426 277.934H275.746C275.746 277.85 275.774 277.654 275.774 277.472ZM272.624 275.134C273.744 275.134 274.472 275.89 274.64 277.01H270.454C270.664 275.848 271.532 275.134 272.624 275.134ZM277.437 281H278.571V277.57C278.571 276.03 279.411 275.134 280.769 275.134C281.763 275.134 282.449 275.694 282.449 277.234V281H283.583V276.912C283.583 274.966 282.575 274.098 281.105 274.098C280.013 274.098 279.117 274.56 278.585 275.372H278.571V270.696H277.437V281ZM286.23 272.936C286.692 272.936 287.056 272.572 287.056 272.124C287.056 271.676 286.692 271.312 286.23 271.312C285.768 271.312 285.404 271.676 285.404 272.124C285.404 272.572 285.768 272.936 286.23 272.936ZM285.656 281H286.79V274.182H285.656V281ZM291.971 281.084C293.301 281.084 294.211 280.58 294.785 279.894L294.001 279.18C293.581 279.698 292.867 280.048 292.055 280.048C290.669 280.048 289.731 279.054 289.731 277.598C289.731 276.156 290.669 275.134 292.069 275.134C292.881 275.134 293.553 275.498 293.987 276.002L294.757 275.316C294.085 274.518 293.035 274.098 292.013 274.098C289.983 274.098 288.569 275.54 288.569 277.598C288.569 279.67 289.983 281.084 291.971 281.084ZM296.388 281H297.522V270.696H296.388V281ZM305.798 277.472C305.798 275.526 304.524 274.098 302.662 274.098C300.716 274.098 299.302 275.54 299.302 277.598C299.302 279.684 300.73 281.084 302.746 281.084C304.118 281.084 304.972 280.566 305.56 279.81L304.762 279.138C304.342 279.656 303.698 280.048 302.788 280.048C301.5 280.048 300.604 279.208 300.45 277.934H305.77C305.77 277.85 305.798 277.654 305.798 277.472ZM302.648 275.134C303.768 275.134 304.496 275.89 304.664 277.01H300.478C300.688 275.848 301.556 275.134 302.648 275.134ZM309.518 281.084C311.156 281.084 311.968 280.202 311.968 279.138C311.982 277.808 311.03 277.556 309.588 276.996C308.846 276.73 308.3 276.464 308.3 275.932C308.3 275.414 308.818 275.106 309.35 275.106C309.938 275.106 310.568 275.288 311.156 275.834L311.744 274.938C310.988 274.322 310.218 274.098 309.392 274.098C308.104 274.098 307.152 274.882 307.152 275.932C307.152 277.178 308.09 277.626 309.196 278.018C310.19 278.382 310.82 278.55 310.82 279.152C310.82 279.67 310.344 280.076 309.518 280.076C308.566 280.076 307.964 279.768 307.432 279.25L306.858 280.118C307.516 280.692 308.384 281.084 309.518 281.084Z" fill="#2781FF"/>
<path d="M374.528 280.398H375.578V277.654H378.336V276.604H375.578V273.846H374.528V276.604H371.77V277.654H374.528V280.398ZM379.667 282.582L385.043 270.654L384.147 270.22L378.757 282.162L379.667 282.582ZM385.633 277.248H389.777V276.128H385.633V277.248ZM398.733 281.084C401.029 281.084 402.345 279.04 402.345 276.198C402.345 273.048 400.819 271.298 398.733 271.298C396.451 271.298 395.121 273.342 395.121 276.198C395.121 279.334 396.647 281.084 398.733 281.084ZM398.733 279.992C397.319 279.992 396.325 278.634 396.325 276.198C396.325 273.888 397.207 272.39 398.733 272.39C400.161 272.39 401.141 273.748 401.141 276.198C401.141 278.494 400.273 279.992 398.733 279.992Z" fill="#969696"/>
<circle cx="83" cy="276" r="9" fill="#C13FEE"/>
<path d="M420.23 280.06C421.4 280.06 421.98 279.43 421.98 278.67C421.99 277.72 421.31 277.54 420.28 277.14C419.75 276.95 419.36 276.76 419.36 276.38C419.36 276.01 419.73 275.79 420.11 275.79C420.53 275.79 420.98 275.92 421.4 276.31L421.82 275.67C421.28 275.23 420.73 275.07 420.14 275.07C419.22 275.07 418.54 275.63 418.54 276.38C418.54 277.27 419.21 277.59 420 277.87C420.71 278.13 421.16 278.25 421.16 278.68C421.16 279.05 420.82 279.34 420.23 279.34C419.55 279.34 419.12 279.12 418.74 278.75L418.33 279.37C418.8 279.78 419.42 280.06 420.23 280.06ZM423.595 274.24C423.925 274.24 424.185 273.98 424.185 273.66C424.185 273.34 423.925 273.08 423.595 273.08C423.265 273.08 423.005 273.34 423.005 273.66C423.005 273.98 423.265 274.24 423.595 274.24ZM423.185 280H423.995V275.13H423.185V280ZM425.576 280H426.386V277.57C426.386 276.47 426.986 275.81 427.906 275.81C428.616 275.81 429.106 276.2 429.106 277.34V280H429.916V277.11C429.916 275.72 429.216 275.07 428.166 275.07C427.416 275.07 426.776 275.42 426.396 276.01H426.386V275.13H425.576V280ZM433.458 280.06C434.408 280.06 435.058 279.7 435.468 279.21L434.908 278.7C434.608 279.07 434.098 279.32 433.518 279.32C432.528 279.32 431.858 278.61 431.858 277.57C431.858 276.54 432.528 275.81 433.528 275.81C434.108 275.81 434.588 276.07 434.898 276.43L435.448 275.94C434.968 275.37 434.218 275.07 433.488 275.07C432.038 275.07 431.028 276.1 431.028 277.57C431.028 279.05 432.038 280.06 433.458 280.06ZM440.883 277.48C440.883 276.09 439.973 275.07 438.643 275.07C437.253 275.07 436.243 276.1 436.243 277.57C436.243 279.06 437.263 280.06 438.703 280.06C439.683 280.06 440.293 279.69 440.713 279.15L440.143 278.67C439.843 279.04 439.383 279.32 438.733 279.32C437.813 279.32 437.173 278.72 437.063 277.81H440.863C440.863 277.75 440.883 277.61 440.883 277.48ZM438.633 275.81C439.433 275.81 439.953 276.35 440.073 277.15H437.083C437.233 276.32 437.853 275.81 438.633 275.81ZM444.855 280H445.665V272.64H444.855V280ZM449.296 280.06C450.086 280.06 450.686 279.7 451.036 279.12H451.046V280H451.826V275.13H451.016V275.99L450.996 276C450.646 275.41 450.016 275.07 449.296 275.07C447.916 275.07 446.926 276.16 446.926 277.6C446.926 279.08 447.956 280.06 449.296 280.06ZM449.416 279.32C448.416 279.32 447.746 278.58 447.746 277.6C447.746 276.52 448.496 275.81 449.416 275.81C450.376 275.81 451.046 276.6 451.046 277.6C451.046 278.63 450.316 279.32 449.416 279.32ZM454.751 280.06C455.921 280.06 456.501 279.43 456.501 278.67C456.511 277.72 455.831 277.54 454.801 277.14C454.271 276.95 453.881 276.76 453.881 276.38C453.881 276.01 454.251 275.79 454.631 275.79C455.051 275.79 455.501 275.92 455.921 276.31L456.341 275.67C455.801 275.23 455.251 275.07 454.661 275.07C453.741 275.07 453.061 275.63 453.061 276.38C453.061 277.27 453.731 277.59 454.521 277.87C455.231 278.13 455.681 278.25 455.681 278.68C455.681 279.05 455.341 279.34 454.751 279.34C454.071 279.34 453.641 279.12 453.261 278.75L452.851 279.37C453.321 279.78 453.941 280.06 454.751 280.06ZM459.017 280.06C459.597 280.06 459.927 279.92 460.197 279.76L459.987 279.05C459.747 279.18 459.447 279.3 459.157 279.3C458.697 279.3 458.567 279.02 458.567 278.43V275.83H460.177V275.13H458.567V273.38L457.757 273.47V275.13H457.127V275.83H457.757V278.55C457.757 279.53 458.157 280.06 459.017 280.06ZM465.175 280H465.915L467.035 276.43H467.045L468.165 280H468.925L470.605 275.13H469.775L468.555 278.79H468.535L467.395 275.13H466.695L465.575 278.79H465.555L464.325 275.13H463.495L465.175 280ZM475.658 277.48C475.658 276.09 474.748 275.07 473.418 275.07C472.028 275.07 471.018 276.1 471.018 277.57C471.018 279.06 472.038 280.06 473.478 280.06C474.458 280.06 475.068 279.69 475.488 279.15L474.918 278.67C474.618 279.04 474.158 279.32 473.508 279.32C472.588 279.32 471.948 278.72 471.838 277.81H475.638C475.638 277.75 475.658 277.61 475.658 277.48ZM473.408 275.81C474.208 275.81 474.728 276.35 474.848 277.15H471.858C472.008 276.32 472.628 275.81 473.408 275.81ZM481.176 277.48C481.176 276.09 480.266 275.07 478.936 275.07C477.546 275.07 476.536 276.1 476.536 277.57C476.536 279.06 477.556 280.06 478.996 280.06C479.976 280.06 480.586 279.69 481.006 279.15L480.436 278.67C480.136 279.04 479.676 279.32 479.026 279.32C478.106 279.32 477.466 278.72 477.356 277.81H481.156C481.156 277.75 481.176 277.61 481.176 277.48ZM478.926 275.81C479.726 275.81 480.246 276.35 480.366 277.15H477.376C477.526 276.32 478.146 275.81 478.926 275.81ZM482.364 280H483.174V278.79L484.174 277.71L485.644 280H486.574L484.734 277.14L486.554 275.13H485.574L483.184 277.8L483.174 277.79V272.64H482.364V280Z" fill="#344146"/>
</g>
<g clip-path="url(#clip6)">
<rect x="24" y="304" width="522" height="40" rx="5" fill="#FAFAFA"/>
<path fill-rule="evenodd" clip-rule="evenodd" d="M518 319.533C519.1 319.533 520 318.633 520 317.533C520 316.433 519.1 315.533 518 315.533C516.9 315.533 516 316.433 516 317.533C516 318.633 516.9 319.533 518 319.533ZM518 321.533C516.9 321.533 516 322.433 516 323.533C516 324.633 516.9 325.533 518 325.533C519.1 325.533 520 324.633 520 323.533C520 322.433 519.1 321.533 518 321.533ZM516 329.533C516 328.433 516.9 327.533 518 327.533C519.1 327.533 520 328.433 520 329.533C520 330.633 519.1 331.533 518 331.533C516.9 331.533 516 330.633 516 329.533Z" fill="#344146"/>
<mask id="path-49-inside-6" fill="white">
<path d="M56 315H42C40.9 315 40 315.9 40 317V331C40 332.1 40.9 333 42 333H56C57.1 333 58 332.1 58 331V317C58 315.9 57.1 315 56 315Z"/>
</mask>
<path d="M56 315H42C40.9 315 40 315.9 40 317V331C40 332.1 40.9 333 42 333H56C57.1 333 58 332.1 58 331V317C58 315.9 57.1 315 56 315Z" fill="white"/>
<path d="M56 313H42V317H56V313ZM42 313C39.7954 313 38 314.795 38 317H42V313ZM38 317V331H42V317H38ZM38 331C38 333.205 39.7954 335 42 335V331H38ZM42 335H56V331H42V335ZM56 335C58.2046 335 60 333.205 60 331H56V335ZM60 331V317H56V331H60ZM60 317C60 314.795 58.2046 313 56 313V317H60Z" fill="#D8D8D8" mask="url(#path-49-inside-6)"/>
<path d="M101.232 327H102.926V320.35H102.94L105.656 325.082H106.762L109.478 320.35H109.506V327H111.2V317.06H109.506L106.23 323.01H106.202L102.926 317.06H101.232V327ZM116.614 327.112C118.714 327.112 120.198 325.67 120.198 323.598C120.198 321.498 118.714 320.07 116.614 320.07C114.458 320.07 113.03 321.582 113.03 323.598C113.03 325.6 114.458 327.112 116.614 327.112ZM116.614 325.684C115.438 325.684 114.626 324.76 114.626 323.598C114.626 322.408 115.424 321.484 116.614 321.484C117.734 321.484 118.602 322.338 118.602 323.598C118.602 324.83 117.72 325.684 116.614 325.684ZM121.831 329.772H123.399V326.174L123.427 326.16C123.931 326.776 124.645 327.112 125.569 327.112C127.473 327.112 128.887 325.726 128.887 323.612C128.887 321.554 127.473 320.07 125.583 320.07C124.687 320.07 123.931 320.392 123.427 320.98H123.399V320.168H121.831V329.772ZM125.331 325.684C124.211 325.684 123.329 324.858 123.329 323.626C123.329 322.408 124.141 321.484 125.317 321.484C126.409 321.484 127.291 322.31 127.291 323.626C127.291 324.83 126.479 325.684 125.331 325.684ZM136.77 323.5C136.77 321.512 135.468 320.07 133.55 320.07C131.548 320.07 130.12 321.484 130.12 323.584C130.12 325.726 131.59 327.112 133.662 327.112C135.132 327.112 135.986 326.566 136.56 325.824L135.468 324.886C135.118 325.32 134.558 325.684 133.746 325.684C132.682 325.684 131.94 325.096 131.744 324.102H136.728C136.742 323.99 136.77 323.752 136.77 323.5ZM133.536 321.484C134.432 321.484 134.992 322.044 135.188 322.87H131.772C131.996 321.974 132.668 321.484 133.536 321.484ZM141.285 327.112C142.265 327.112 143.007 326.734 143.511 326.076H143.525V327H145.023V316.696H143.469V321.008H143.455C142.937 320.392 142.167 320.07 141.271 320.07C139.395 320.07 137.967 321.554 137.967 323.612C137.967 325.726 139.395 327.112 141.285 327.112ZM141.523 325.684C140.375 325.684 139.563 324.83 139.563 323.626C139.563 322.31 140.445 321.484 141.537 321.484C142.713 321.484 143.525 322.408 143.525 323.626C143.525 324.858 142.643 325.684 141.523 325.684ZM155.589 327.112C158.459 327.112 160.601 325.054 160.601 322.03C160.601 318.992 158.459 316.948 155.589 316.948C152.607 316.948 150.563 319.104 150.563 322.03C150.563 324.956 152.607 327.112 155.589 327.112ZM155.589 325.53C153.643 325.53 152.313 323.976 152.313 322.03C152.313 320.084 153.643 318.53 155.589 318.53C157.423 318.53 158.837 319.986 158.837 322.03C158.837 324.06 157.423 325.53 155.589 325.53ZM162.395 329.772H163.963V326.174L163.991 326.16C164.495 326.776 165.209 327.112 166.133 327.112C168.037 327.112 169.451 325.726 169.451 323.612C169.451 321.554 168.037 320.07 166.147 320.07C165.251 320.07 164.495 320.392 163.991 320.98H163.963V320.168H162.395V329.772ZM165.895 325.684C164.775 325.684 163.893 324.858 163.893 323.626C163.893 322.408 164.705 321.484 165.881 321.484C166.973 321.484 167.855 322.31 167.855 323.626C167.855 324.83 167.043 325.684 165.895 325.684ZM177.334 323.5C177.334 321.512 176.032 320.07 174.114 320.07C172.112 320.07 170.684 321.484 170.684 323.584C170.684 325.726 172.154 327.112 174.226 327.112C175.696 327.112 176.55 326.566 177.124 325.824L176.032 324.886C175.682 325.32 175.122 325.684 174.31 325.684C173.246 325.684 172.504 325.096 172.308 324.102H177.292C177.306 323.99 177.334 323.752 177.334 323.5ZM174.1 321.484C174.996 321.484 175.556 322.044 175.752 322.87H172.336C172.56 321.974 173.232 321.484 174.1 321.484ZM178.952 327H180.52V323.766C180.52 322.646 181.192 321.792 182.382 321.792C182.494 321.792 182.676 321.806 182.858 321.82V320.07H182.662C181.836 320.07 181.08 320.476 180.548 321.19H180.52V320.168H178.952V327ZM186.853 327.112C187.805 327.112 188.533 326.748 189.023 326.09L189.051 326.104V327H190.549V320.168H188.981V320.994L188.953 321.008C188.463 320.392 187.707 320.07 186.839 320.07C184.963 320.07 183.549 321.554 183.549 323.612C183.549 325.726 184.963 327.112 186.853 327.112ZM187.105 325.684C185.943 325.684 185.145 324.83 185.145 323.626C185.145 322.31 186.013 321.484 187.105 321.484C188.225 321.484 189.051 322.408 189.051 323.626C189.051 324.858 188.169 325.684 187.105 325.684ZM194.558 327.112C195.454 327.112 195.888 326.93 196.294 326.706L195.888 325.348C195.524 325.544 195.146 325.642 194.88 325.642C194.432 325.642 194.222 325.39 194.222 324.69V321.498H196.224V320.168H194.222V317.732L192.654 317.9V320.168H191.814V321.498H192.654V324.844C192.654 326.37 193.382 327.112 194.558 327.112ZM200.491 327.112C202.591 327.112 204.075 325.67 204.075 323.598C204.075 321.498 202.591 320.07 200.491 320.07C198.335 320.07 196.907 321.582 196.907 323.598C196.907 325.6 198.335 327.112 200.491 327.112ZM200.491 325.684C199.315 325.684 198.503 324.76 198.503 323.598C198.503 322.408 199.301 321.484 200.491 321.484C201.611 321.484 202.479 322.338 202.479 323.598C202.479 324.83 201.597 325.684 200.491 325.684ZM205.708 327H207.276V323.766C207.276 322.646 207.948 321.792 209.138 321.792C209.25 321.792 209.432 321.806 209.614 321.82V320.07H209.418C208.592 320.07 207.836 320.476 207.304 321.19H207.276V320.168H205.708V327ZM214.229 327H220.403V325.516H216.693L216.679 325.474L218.709 323.36C219.927 322.1 220.305 321.19 220.305 320.126C220.305 318.362 218.877 317.298 217.295 317.298C215.727 317.298 214.733 318.082 214.187 319.118L215.349 319.944C215.783 319.188 216.413 318.81 217.183 318.81C218.051 318.81 218.653 319.454 218.653 320.308C218.653 321.134 218.079 321.834 217.295 322.66L214.201 325.922L214.229 327Z" fill="#344146"/>
<path d="M240.452 322.938C239.528 322.938 238.688 323.26 238.086 323.792C238.632 321.692 240.228 320.53 241.978 320.082L241.628 319.088C239.094 319.55 236.742 321.902 236.742 325.318C236.742 327.6 238.212 329.084 240.116 329.084C242.034 329.084 243.448 327.754 243.448 325.99C243.448 324.072 242.188 322.938 240.452 322.938ZM240.186 327.992C238.912 327.992 237.89 326.956 237.89 325.444V325.36C238.324 324.66 239.122 324.016 240.186 324.016C241.446 324.016 242.272 324.814 242.272 325.976C242.272 327.068 241.446 327.992 240.186 327.992ZM248.407 329.084C250.703 329.084 252.019 327.04 252.019 324.198C252.019 321.048 250.493 319.298 248.407 319.298C246.125 319.298 244.795 321.342 244.795 324.198C244.795 327.334 246.321 329.084 248.407 329.084ZM248.407 327.992C246.993 327.992 245.999 326.634 245.999 324.198C245.999 321.888 246.881 320.39 248.407 320.39C249.835 320.39 250.815 321.748 250.815 324.198C250.815 326.494 249.947 327.992 248.407 327.992ZM257.143 329.084C259.439 329.084 260.755 327.04 260.755 324.198C260.755 321.048 259.229 319.298 257.143 319.298C254.861 319.298 253.531 321.342 253.531 324.198C253.531 327.334 255.057 329.084 257.143 329.084ZM257.143 327.992C255.729 327.992 254.735 326.634 254.735 324.198C254.735 321.888 255.617 320.39 257.143 320.39C258.571 320.39 259.551 321.748 259.551 324.198C259.551 326.494 258.683 327.992 257.143 327.992ZM269.498 329H270.59L274.342 319.06H273.04L270.058 327.236H270.044L267.062 319.06H265.746L269.498 329ZM280.847 325.472C280.847 323.526 279.573 322.098 277.711 322.098C275.765 322.098 274.351 323.54 274.351 325.598C274.351 327.684 275.779 329.084 277.795 329.084C279.167 329.084 280.021 328.566 280.609 327.81L279.811 327.138C279.391 327.656 278.747 328.048 277.837 328.048C276.549 328.048 275.653 327.208 275.499 325.934H280.819C280.819 325.85 280.847 325.654 280.847 325.472ZM277.697 323.134C278.817 323.134 279.545 323.89 279.713 325.01H275.527C275.737 323.848 276.605 323.134 277.697 323.134ZM282.509 329H283.643V325.57C283.643 324.03 284.483 323.134 285.841 323.134C286.835 323.134 287.521 323.694 287.521 325.234V329H288.655V324.912C288.655 322.966 287.647 322.098 286.177 322.098C285.085 322.098 284.189 322.56 283.657 323.372H283.643V318.696H282.509V329ZM291.302 320.936C291.764 320.936 292.128 320.572 292.128 320.124C292.128 319.676 291.764 319.312 291.302 319.312C290.84 319.312 290.476 319.676 290.476 320.124C290.476 320.572 290.84 320.936 291.302 320.936ZM290.728 329H291.862V322.182H290.728V329ZM297.044 329.084C298.374 329.084 299.284 328.58 299.858 327.894L299.074 327.18C298.654 327.698 297.94 328.048 297.128 328.048C295.742 328.048 294.804 327.054 294.804 325.598C294.804 324.156 295.742 323.134 297.142 323.134C297.954 323.134 298.626 323.498 299.06 324.002L299.83 323.316C299.158 322.518 298.108 322.098 297.086 322.098C295.056 322.098 293.642 323.54 293.642 325.598C293.642 327.67 295.056 329.084 297.044 329.084ZM301.461 329H302.595V318.696H301.461V329ZM310.87 325.472C310.87 323.526 309.596 322.098 307.734 322.098C305.788 322.098 304.374 323.54 304.374 325.598C304.374 327.684 305.802 329.084 307.818 329.084C309.19 329.084 310.044 328.566 310.632 327.81L309.834 327.138C309.414 327.656 308.77 328.048 307.86 328.048C306.572 328.048 305.676 327.208 305.522 325.934H310.842C310.842 325.85 310.87 325.654 310.87 325.472ZM307.72 323.134C308.84 323.134 309.568 323.89 309.736 325.01H305.55C305.76 323.848 306.628 323.134 307.72 323.134ZM314.591 329.084C316.229 329.084 317.041 328.202 317.041 327.138C317.055 325.808 316.103 325.556 314.661 324.996C313.919 324.73 313.373 324.464 313.373 323.932C313.373 323.414 313.891 323.106 314.423 323.106C315.011 323.106 315.641 323.288 316.229 323.834L316.817 322.938C316.061 322.322 315.291 322.098 314.465 322.098C313.177 322.098 312.225 322.882 312.225 323.932C312.225 325.178 313.163 325.626 314.269 326.018C315.263 326.382 315.893 326.55 315.893 327.152C315.893 327.67 315.417 328.076 314.591 328.076C313.639 328.076 313.037 327.768 312.505 327.25L311.931 328.118C312.589 328.692 313.457 329.084 314.591 329.084Z" fill="#2781FF"/>
<path d="M374.528 328.398H375.578V325.654H378.336V324.604H375.578V321.846H374.528V324.604H371.77V325.654H374.528V328.398ZM386.898 322.896C386.506 322.896 385.932 322.994 385.428 323.176L385.582 320.474H389.558V319.382H384.476L384.196 324.24L384.882 324.45C385.372 324.072 385.946 323.918 386.576 323.918C387.752 323.918 388.802 324.646 388.802 325.948C388.802 327.138 387.906 327.992 386.562 327.992C385.582 327.992 384.77 327.53 384.336 326.83L383.454 327.488C384.126 328.496 385.33 329.084 386.66 329.084C388.606 329.084 390.006 327.824 390.006 325.962C390.006 324.03 388.606 322.896 386.898 322.896ZM394.622 322.896C394.23 322.896 393.656 322.994 393.152 323.176L393.306 320.474H397.282V319.382H392.2L391.92 324.24L392.606 324.45C393.096 324.072 393.67 323.918 394.3 323.918C395.476 323.918 396.526 324.646 396.526 325.948C396.526 327.138 395.63 327.992 394.286 327.992C393.306 327.992 392.494 327.53 392.06 326.83L391.178 327.488C391.85 328.496 393.054 329.084 394.384 329.084C396.33 329.084 397.73 327.824 397.73 325.962C397.73 324.03 396.33 322.896 394.622 322.896Z" fill="#04DE47"/>
<circle cx="83" cy="324" r="9" fill="#C1F455"/>
<path d="M420.23 328.06C421.4 328.06 421.98 327.43 421.98 326.67C421.99 325.72 421.31 325.54 420.28 325.14C419.75 324.95 419.36 324.76 419.36 324.38C419.36 324.01 419.73 323.79 420.11 323.79C420.53 323.79 420.98 323.92 421.4 324.31L421.82 323.67C421.28 323.23 420.73 323.07 420.14 323.07C419.22 323.07 418.54 323.63 418.54 324.38C418.54 325.27 419.21 325.59 420 325.87C420.71 326.13 421.16 326.25 421.16 326.68C421.16 327.05 420.82 327.34 420.23 327.34C419.55 327.34 419.12 327.12 418.74 326.75L418.33 327.37C418.8 327.78 419.42 328.06 420.23 328.06ZM423.595 322.24C423.925 322.24 424.185 321.98 424.185 321.66C424.185 321.34 423.925 321.08 423.595 321.08C423.265 321.08 423.005 321.34 423.005 321.66C423.005 321.98 423.265 322.24 423.595 322.24ZM423.185 328H423.995V323.13H423.185V328ZM425.576 328H426.386V325.57C426.386 324.47 426.986 323.81 427.906 323.81C428.616 323.81 429.106 324.2 429.106 325.34V328H429.916V325.11C429.916 323.72 429.216 323.07 428.166 323.07C427.416 323.07 426.776 323.42 426.396 324.01H426.386V323.13H425.576V328ZM433.458 328.06C434.408 328.06 435.058 327.7 435.468 327.21L434.908 326.7C434.608 327.07 434.098 327.32 433.518 327.32C432.528 327.32 431.858 326.61 431.858 325.57C431.858 324.54 432.528 323.81 433.528 323.81C434.108 323.81 434.588 324.07 434.898 324.43L435.448 323.94C434.968 323.37 434.218 323.07 433.488 323.07C432.038 323.07 431.028 324.1 431.028 325.57C431.028 327.05 432.038 328.06 433.458 328.06ZM440.883 325.48C440.883 324.09 439.973 323.07 438.643 323.07C437.253 323.07 436.243 324.1 436.243 325.57C436.243 327.06 437.263 328.06 438.703 328.06C439.683 328.06 440.293 327.69 440.713 327.15L440.143 326.67C439.843 327.04 439.383 327.32 438.733 327.32C437.813 327.32 437.173 326.72 437.063 325.81H440.863C440.863 325.75 440.883 325.61 440.883 325.48ZM438.633 323.81C439.433 323.81 439.953 324.35 440.073 325.15H437.083C437.233 324.32 437.853 323.81 438.633 323.81ZM444.855 328H445.665V320.64H444.855V328ZM449.296 328.06C450.086 328.06 450.686 327.7 451.036 327.12H451.046V328H451.826V323.13H451.016V323.99L450.996 324C450.646 323.41 450.016 323.07 449.296 323.07C447.916 323.07 446.926 324.16 446.926 325.6C446.926 327.08 447.956 328.06 449.296 328.06ZM449.416 327.32C448.416 327.32 447.746 326.58 447.746 325.6C447.746 324.52 448.496 323.81 449.416 323.81C450.376 323.81 451.046 324.6 451.046 325.6C451.046 326.63 450.316 327.32 449.416 327.32ZM454.751 328.06C455.921 328.06 456.501 327.43 456.501 326.67C456.511 325.72 455.831 325.54 454.801 325.14C454.271 324.95 453.881 324.76 453.881 324.38C453.881 324.01 454.251 323.79 454.631 323.79C455.051 323.79 455.501 323.92 455.921 324.31L456.341 323.67C455.801 323.23 455.251 323.07 454.661 323.07C453.741 323.07 453.061 323.63 453.061 324.38C453.061 325.27 453.731 325.59 454.521 325.87C455.231 326.13 455.681 326.25 455.681 326.68C455.681 327.05 455.341 327.34 454.751 327.34C454.071 327.34 453.641 327.12 453.261 326.75L452.851 327.37C453.321 327.78 453.941 328.06 454.751 328.06ZM459.017 328.06C459.597 328.06 459.927 327.92 460.197 327.76L459.987 327.05C459.747 327.18 459.447 327.3 459.157 327.3C458.697 327.3 458.567 327.02 458.567 326.43V323.83H460.177V323.13H458.567V321.38L457.757 321.47V323.13H457.127V323.83H457.757V326.55C457.757 327.53 458.157 328.06 459.017 328.06ZM465.175 328H465.915L467.035 324.43H467.045L468.165 328H468.925L470.605 323.13H469.775L468.555 326.79H468.535L467.395 323.13H466.695L465.575 326.79H465.555L464.325 323.13H463.495L465.175 328ZM475.658 325.48C475.658 324.09 474.748 323.07 473.418 323.07C472.028 323.07 471.018 324.1 471.018 325.57C471.018 327.06 472.038 328.06 473.478 328.06C474.458 328.06 475.068 327.69 475.488 327.15L474.918 326.67C474.618 327.04 474.158 327.32 473.508 327.32C472.588 327.32 471.948 326.72 471.838 325.81H475.638C475.638 325.75 475.658 325.61 475.658 325.48ZM473.408 323.81C474.208 323.81 474.728 324.35 474.848 325.15H471.858C472.008 324.32 472.628 323.81 473.408 323.81ZM481.176 325.48C481.176 324.09 480.266 323.07 478.936 323.07C477.546 323.07 476.536 324.1 476.536 325.57C476.536 327.06 477.556 328.06 478.996 328.06C479.976 328.06 480.586 327.69 481.006 327.15L480.436 326.67C480.136 327.04 479.676 327.32 479.026 327.32C478.106 327.32 477.466 326.72 477.356 325.81H481.156C481.156 325.75 481.176 325.61 481.176 325.48ZM478.926 323.81C479.726 323.81 480.246 324.35 480.366 325.15H477.376C477.526 324.32 478.146 323.81 478.926 323.81ZM482.364 328H483.174V326.79L484.174 325.71L485.644 328H486.574L484.734 325.14L486.554 323.13H485.574L483.184 325.8L483.174 325.79V320.64H482.364V328Z" fill="#344146"/>
</g>
</g>
<path d="M25.232 40H27.456V36.112H29.216C31.712 36.112 33.392 34.912 33.392 32.416C33.392 30.24 32.192 28.64 29.44 28.64H25.232V40ZM27.456 34.128V30.64H29.088C30.384 30.64 31.056 31.328 31.056 32.384C31.056 33.424 30.384 34.128 28.976 34.128H27.456ZM34.9931 40H37.0891V36.384C37.0891 35.2 37.7771 34.336 39.0731 34.336C39.2011 34.336 39.4091 34.336 39.6331 34.352V32.064H39.4731C38.5611 32.064 37.7131 32.512 37.1211 33.312H37.0891V32.176H34.9931V40ZM44.4711 40.144C46.9031 40.144 48.6151 38.48 48.6151 36.096C48.6151 33.696 46.9031 32.064 44.4711 32.064C41.9751 32.064 40.3111 33.76 40.3111 36.096C40.3111 38.432 41.9751 40.144 44.4711 40.144ZM44.4711 38.256C43.2711 38.256 42.4391 37.312 42.4391 36.096C42.4391 34.864 43.2551 33.936 44.4711 33.936C45.6231 33.936 46.4871 34.816 46.4871 36.096C46.4871 37.376 45.5911 38.256 44.4711 38.256ZM52.0933 40H54.0453L57.1173 32.176H54.9253L53.0853 37.424H53.0693L51.2613 32.176H49.0213L52.0933 40ZM59.583 31.12C60.335 31.12 60.911 30.544 60.911 29.824C60.911 29.12 60.335 28.544 59.583 28.544C58.815 28.544 58.255 29.12 58.255 29.824C58.255 30.544 58.815 31.12 59.583 31.12ZM58.511 40H60.607V32.176H58.511V40ZM66.086 40.144C67.142 40.144 67.958 39.744 68.502 39.04H68.518V40H70.518V28.224H68.438V33.088H68.406C67.83 32.416 66.998 32.064 66.038 32.064C63.942 32.064 62.342 33.744 62.342 36.112C62.342 38.528 63.926 40.144 66.086 40.144ZM66.47 38.256C65.302 38.256 64.47 37.376 64.47 36.128C64.47 34.784 65.35 33.936 66.47 33.936C67.67 33.936 68.518 34.864 68.518 36.128C68.518 37.408 67.622 38.256 66.47 38.256ZM79.8825 36.016C79.8825 33.728 78.3465 32.064 76.1385 32.064C73.8185 32.064 72.1705 33.696 72.1705 36.08C72.1705 38.528 73.8665 40.144 76.2665 40.144C78.0105 40.144 79.0185 39.504 79.6745 38.656L78.3145 37.392C77.8985 37.904 77.2905 38.272 76.4105 38.272C75.3545 38.272 74.6025 37.712 74.3465 36.768H79.8345C79.8505 36.64 79.8825 36.272 79.8825 36.016ZM76.1225 33.888C77.0345 33.888 77.5945 34.432 77.8025 35.264H74.3625C74.6025 34.368 75.2745 33.888 76.1225 33.888ZM81.5088 40H83.6048V36.384C83.6048 35.2 84.2928 34.336 85.5888 34.336C85.7168 34.336 85.9248 34.336 86.1488 34.352V32.064H85.9888C85.0768 32.064 84.2288 32.512 83.6368 33.312H83.6048V32.176H81.5088V40ZM89.9899 40.144C92.0379 40.144 93.0139 39.088 93.0139 37.712C93.0139 36.16 92.0219 35.792 90.3259 35.168C89.5579 34.88 89.1739 34.656 89.1739 34.336C89.1739 33.92 89.5899 33.76 89.9099 33.76C90.4859 33.76 91.1899 34.016 91.7819 34.592L92.8059 33.04C91.9099 32.352 91.0299 32.064 89.9579 32.064C88.3419 32.064 87.1259 32.976 87.1259 34.384C87.1259 35.904 88.2459 36.512 89.5419 36.944C90.5499 37.28 90.9499 37.456 90.9499 37.792C90.9499 38.176 90.6139 38.432 90.0059 38.432C89.1419 38.432 88.4699 38.128 87.8299 37.536L86.8219 38.992C87.6699 39.728 88.7419 40.144 89.9899 40.144Z" fill="black"/>
<defs>
<clipPath id="clip0">
<rect width="522" height="272" fill="white" transform="translate(24 64)"/>
</clipPath>
<clipPath id="clip1">
<rect width="522" height="40" fill="white" transform="translate(24 64)"/>
</clipPath>
<clipPath id="clip2">
<rect width="522" height="40" fill="white" transform="translate(24 112)"/>
</clipPath>
<clipPath id="clip3">
<rect width="522" height="40" fill="white" transform="translate(24 160)"/>
</clipPath>
<clipPath id="clip4">
<rect width="522" height="40" fill="white" transform="translate(24 208)"/>
</clipPath>
<clipPath id="clip5">
<rect width="522" height="40" fill="white" transform="translate(24 256)"/>
</clipPath>
<clipPath id="clip6">
<rect width="522" height="40" fill="white" transform="translate(24 304)"/>
</clipPath>
</defs>
</svg>
