<svg width="270" height="360" viewBox="0 0 270 360" fill="none" xmlns="http://www.w3.org/2000/svg">
<g clip-path="url(#clip0)">
<g filter="url(#filter0_d)">
<rect width="270" height="359.954" rx="5" fill="white"/>
</g>
<path d="M25.232 40H27.456V36.112H28.752L31.296 40H33.968L31.12 35.84C32.688 35.328 33.488 34.144 33.488 32.416C33.488 30.24 32.272 28.64 29.536 28.64H25.232V40ZM27.456 34.128V30.64H29.184C30.48 30.64 31.168 31.328 31.168 32.384C31.168 33.424 30.464 34.128 29.088 34.128H27.456ZM36.6924 31.12C37.4444 31.12 38.0204 30.544 38.0204 29.824C38.0204 29.12 37.4444 28.544 36.6924 28.544C35.9244 28.544 35.3644 29.12 35.3644 29.824C35.3644 30.544 35.9244 31.12 36.6924 31.12ZM35.6204 40H37.7164V32.176H35.6204V40ZM43.1954 40.144C44.2514 40.144 45.0674 39.744 45.6114 39.04H45.6274V40H47.6274V28.224H45.5474V33.088H45.5154C44.9394 32.416 44.1074 32.064 43.1474 32.064C41.0514 32.064 39.4514 33.744 39.4514 36.112C39.4514 38.528 41.0354 40.144 43.1954 40.144ZM43.5794 38.256C42.4114 38.256 41.5794 37.376 41.5794 36.128C41.5794 34.784 42.4594 33.936 43.5794 33.936C44.7794 33.936 45.6274 34.864 45.6274 36.128C45.6274 37.408 44.7314 38.256 43.5794 38.256ZM56.9919 36.016C56.9919 33.728 55.4559 32.064 53.2479 32.064C50.9279 32.064 49.2799 33.696 49.2799 36.08C49.2799 38.528 50.9759 40.144 53.3759 40.144C55.1199 40.144 56.1279 39.504 56.7839 38.656L55.4239 37.392C55.0079 37.904 54.3999 38.272 53.5199 38.272C52.4639 38.272 51.7119 37.712 51.4559 36.768H56.9439C56.9599 36.64 56.9919 36.272 56.9919 36.016ZM53.2319 33.888C54.1439 33.888 54.7039 34.432 54.9119 35.264H51.4719C51.7119 34.368 52.3839 33.888 53.2319 33.888ZM61.1461 40.144C63.1941 40.144 64.1701 39.088 64.1701 37.712C64.1701 36.16 63.1781 35.792 61.4821 35.168C60.7141 34.88 60.3301 34.656 60.3301 34.336C60.3301 33.92 60.7461 33.76 61.0661 33.76C61.6421 33.76 62.3461 34.016 62.9381 34.592L63.9621 33.04C63.0661 32.352 62.1861 32.064 61.1141 32.064C59.4981 32.064 58.2821 32.976 58.2821 34.384C58.2821 35.904 59.4021 36.512 60.6981 36.944C61.7061 37.28 62.1061 37.456 62.1061 37.792C62.1061 38.176 61.7701 38.432 61.1621 38.432C60.2981 38.432 59.6261 38.128 58.9861 37.536L57.9781 38.992C58.8261 39.728 59.8981 40.144 61.1461 40.144Z" fill="black"/>
<line x1="24" y1="335" x2="246" y2="335" stroke="#F4F4F4" stroke-width="2"/>
<line x1="24" y1="287.5" x2="246" y2="287.5" stroke="#F4F4F4"/>
<line x1="24" y1="239.5" x2="246" y2="239.5" stroke="#F4F4F4"/>
<line x1="24" y1="191.5" x2="246" y2="191.5" stroke="#F4F4F4"/>
<line x1="24" y1="143.5" x2="246" y2="143.5" stroke="#F4F4F4"/>
<line x1="24" y1="95.4998" x2="246" y2="95.4997" stroke="#F4F4F4"/>
<line x1="135.055" y1="68" x2="135.055" y2="342.67" stroke="#FF0043" stroke-width="0.5"/>
<line x1="33" y1="334.44" x2="33" y2="342.67" stroke="#F4F4F4" stroke-width="2"/>
<line x1="88.4985" y1="334.44" x2="88.4985" y2="342.67" stroke="#F4F4F4" stroke-width="2"/>
<line x1="187.33" y1="334.44" x2="187.33" y2="342.67" stroke="#F4F4F4" stroke-width="2"/>
<line x1="135.023" y1="334.44" x2="135.023" y2="342.67" stroke="#F4F4F4" stroke-width="2"/>
<line x1="239.5" y1="334.44" x2="239.5" y2="342.67" stroke="#F4F4F4" stroke-width="2"/>
<path d="M244.424 95.4924C235.935 97.5225 218.956 95.4924 199.577 118.746C183.005 138.633 180.258 240 148.145 240C143.08 240 138.067 236.443 133.961 232.255" stroke="#D8D8D8" stroke-width="2" stroke-linecap="round" stroke-dasharray="3 6"/>
<path d="M26.3274 191.292C40.1691 191.292 47.9204 140.078 77.5417 140.078C102.491 140.078 113.145 210.978 135.075 233.341" stroke="#2781FF" stroke-width="2" stroke-linecap="round"/>
<path d="M80.1358 325H81.1438L83.1478 318.004H83.1718L85.1398 325H86.1478L88.8718 316.48H87.7678L85.6558 323.296H85.6318L83.7238 316.48H82.5838L80.6638 323.308H80.6398L78.5398 316.48H77.4238L80.1358 325ZM90.3182 325H92.8982C95.6222 325 97.2902 323.26 97.2902 320.752C97.2902 318.232 95.5622 316.48 92.8622 316.48H90.3182V325ZM91.3622 324.052V317.428H92.8742C94.8662 317.428 96.2102 318.808 96.2102 320.752C96.2102 322.672 94.9142 324.052 92.8382 324.052H91.3622Z" fill="#D8D8D8"/>
<path d="M180.062 325H181.106V321.376H184.826V320.428H181.106V317.428H185.498V316.48H180.062V325ZM187.011 325H188.055V321.748H189.579L191.835 325H193.083L190.731 321.652C192.075 321.376 192.855 320.548 192.855 319.12C192.855 317.608 192.003 316.48 190.035 316.48H187.011V325ZM188.055 320.8V317.428H189.891C191.067 317.428 191.775 318.004 191.775 319.096C191.775 320.08 191.163 320.8 189.747 320.8H188.055Z" fill="#D8D8D8"/>
<path d="M234.551 325.072C236.039 325.072 237.407 324.232 237.407 322.672C237.407 321.076 236.195 320.692 234.767 320.128C233.699 319.72 232.931 319.42 232.943 318.604C232.955 317.788 233.663 317.356 234.467 317.356C235.103 317.356 235.835 317.656 236.519 318.22L237.155 317.392C236.351 316.744 235.415 316.396 234.467 316.396C233.003 316.396 231.863 317.38 231.863 318.652C231.863 320.152 233.147 320.692 234.407 321.16C235.547 321.592 236.315 321.844 236.315 322.792C236.315 323.62 235.607 324.1 234.563 324.1C233.735 324.1 232.823 323.716 232.211 322.948L231.539 323.752C232.391 324.664 233.483 325.072 234.551 325.072ZM238.155 325H239.247L240.003 322.924H243.807L244.575 325H245.667L242.427 316.48H241.383L238.155 325ZM240.339 322.012L241.887 317.74H241.911L243.483 322.012H240.339Z" fill="#D8D8D8"/>
<path d="M27.2282 325H28.2722V317.428H30.8522V316.48H24.6842V317.428H27.2282V325ZM35.4391 325.072C37.4671 325.072 38.7511 323.716 38.7511 321.532V316.48H37.7071V321.46C37.7071 323.104 36.7591 324.088 35.4391 324.088C34.0591 324.088 33.1831 323.032 33.1831 321.46V316.48H32.1391V321.532C32.1391 323.776 33.4831 325.072 35.4391 325.072Z" fill="#D8D8D8"/>
<rect x="110.075" y="68" width="50" height="15" rx="7.5" fill="#FF0043"/>
<path d="M121.738 80H126.922V79.076H123.274L123.262 79.04L125.41 76.88C126.43 75.848 126.826 75.044 126.826 74.12C126.826 72.596 125.626 71.696 124.306 71.696C123.022 71.696 122.194 72.344 121.738 73.256L122.482 73.772C122.866 73.028 123.466 72.644 124.246 72.644C125.158 72.644 125.794 73.316 125.794 74.228C125.794 75.044 125.242 75.704 124.546 76.424L121.726 79.304L121.738 80ZM128.885 80.084C129.281 80.084 129.593 79.772 129.593 79.376C129.593 78.98 129.281 78.668 128.885 78.668C128.489 78.668 128.165 78.98 128.165 79.376C128.165 79.772 128.489 80.084 128.885 80.084ZM130.761 80H135.945V79.076H132.297L132.285 79.04L134.433 76.88C135.453 75.848 135.849 75.044 135.849 74.12C135.849 72.596 134.649 71.696 133.329 71.696C132.045 71.696 131.217 72.344 130.761 73.256L131.505 73.772C131.889 73.028 132.489 72.644 133.269 72.644C134.181 72.644 134.817 73.316 134.817 74.228C134.817 75.044 134.265 75.704 133.569 76.424L130.749 79.304L130.761 80ZM140.434 80H141.442V78.548H142.642V77.636H141.442V71.756H140.59L136.606 77.828V78.548H140.434V80ZM137.782 77.66L140.47 73.472V77.66H137.782ZM143.285 71.756V72.68H147.269L144.125 79.94L145.133 80.144L148.397 72.464V71.756H143.285Z" fill="white"/>
<path d="M157.194 40H159.13V30.368H162.394V28.64H153.978V30.368H157.194V40ZM164.212 40H166.004V36.032C166.004 34.496 166.804 33.696 168.1 33.696C169.172 33.696 169.796 34.24 169.796 35.792V40H171.588V35.328C171.588 32.992 170.388 32.08 168.676 32.08C167.62 32.08 166.676 32.448 166.02 33.168H166.004V28.224H164.212V40ZM174.782 31.04C175.454 31.04 175.998 30.496 175.998 29.84C175.998 29.2 175.454 28.656 174.782 28.656C174.11 28.656 173.582 29.2 173.582 29.84C173.582 30.496 174.11 31.04 174.782 31.04ZM173.886 40H175.678V32.192H173.886V40ZM180.63 40.128C182.614 40.128 183.542 39.072 183.542 37.76C183.542 36.208 182.502 35.904 180.838 35.248C180.086 34.96 179.606 34.688 179.606 34.304C179.606 33.824 180.102 33.632 180.454 33.632C181.062 33.632 181.782 33.872 182.406 34.464L183.302 33.056C182.438 32.352 181.542 32.08 180.55 32.08C178.95 32.08 177.798 33.008 177.798 34.288C177.798 35.824 178.902 36.4 180.182 36.848C181.206 37.2 181.718 37.392 181.718 37.792C181.718 38.256 181.318 38.56 180.63 38.56C179.67 38.56 178.998 38.256 178.374 37.648L177.478 38.992C178.294 39.712 179.366 40.128 180.63 40.128ZM191.458 40H193.074L194.578 35.088H194.594L196.098 40H197.746L200.402 32.192H198.594L196.946 37.376H196.914L195.346 32.192H193.858L192.322 37.376H192.29L190.642 32.192H188.802L191.458 40ZM208.598 36C208.598 33.728 207.11 32.08 204.918 32.08C202.63 32.08 200.998 33.696 200.998 36.096C200.998 38.544 202.678 40.128 205.046 40.128C206.726 40.128 207.702 39.504 208.358 38.656L207.11 37.584C206.71 38.08 206.07 38.496 205.142 38.496C203.926 38.496 203.078 37.824 202.854 36.688H208.55C208.566 36.56 208.598 36.288 208.598 36ZM204.902 33.696C205.926 33.696 206.566 34.336 206.79 35.28H202.886C203.142 34.256 203.91 33.696 204.902 33.696ZM217.582 36C217.582 33.728 216.094 32.08 213.902 32.08C211.614 32.08 209.982 33.696 209.982 36.096C209.982 38.544 211.662 40.128 214.03 40.128C215.71 40.128 216.686 39.504 217.342 38.656L216.094 37.584C215.694 38.08 215.054 38.496 214.126 38.496C212.91 38.496 212.062 37.824 211.838 36.688H217.534C217.55 36.56 217.582 36.288 217.582 36ZM213.886 33.696C214.91 33.696 215.55 34.336 215.774 35.28H211.87C212.126 34.256 212.894 33.696 213.886 33.696ZM219.431 40H221.223V37.936L222.487 36.56L224.583 40H226.599L223.735 35.328L226.551 32.192H224.423L221.255 35.808L221.223 35.792V28.224H219.431V40Z" fill="#2781FF"/>
<path d="M244.287 31L240.407 34.88L236.527 31C236.341 30.8128 236.087 30.7075 235.822 30.7075C235.558 30.7075 235.304 30.8128 235.117 31C234.727 31.39 234.727 32.02 235.117 32.41L239.707 37C240.097 37.39 240.727 37.39 241.117 37L245.707 32.41C246.097 32.02 246.097 31.39 245.707 31C245.317 30.62 244.677 30.61 244.287 31V31Z" fill="#2781FF"/>
</g>
<defs>
<filter id="filter0_d" x="-8" y="-6" width="286" height="375.954" filterUnits="userSpaceOnUse" color-interpolation-filters="sRGB">
<feFlood flood-opacity="0" result="BackgroundImageFix"/>
<feColorMatrix in="SourceAlpha" type="matrix" values="0 0 0 0 0 0 0 0 0 0 0 0 0 0 0 0 0 0 127 0"/>
<feOffset dy="2"/>
<feGaussianBlur stdDeviation="4"/>
<feColorMatrix type="matrix" values="0 0 0 0 0 0 0 0 0 0 0 0 0 0 0 0 0 0 0.12 0"/>
<feBlend mode="normal" in2="BackgroundImageFix" result="effect1_dropShadow"/>
<feBlend mode="normal" in="SourceGraphic" in2="effect1_dropShadow" result="shape"/>
</filter>
<clipPath id="clip0">
<rect width="270" height="360" fill="white"/>
</clipPath>
</defs>
</svg>
