<svg width="64" height="64" viewBox="0 0 64 64" fill="none" xmlns="http://www.w3.org/2000/svg">
<g clip-path="url(#clip0)">
<path opacity="0.2" d="M51.2002 5.37598V48.384H16.6402C15.8722 48.384 15.3602 48.896 15.3602 49.664V54.784C15.3602 56.832 13.5682 58.624 11.5202 58.624C11.0082 58.624 10.7522 58.624 10.2402 58.368C10.7522 60.416 12.8002 61.696 14.8482 61.184C16.6402 60.928 17.9202 59.392 17.9202 57.6V52.48C17.9202 51.712 18.4322 51.2 19.2002 51.2H53.7602V3.58398L51.2002 5.37598Z" fill="#06A0E3"/>
<path opacity="0.2" d="M20.2214 58.8799C19.9654 59.9039 19.7094 60.6719 18.9414 61.4399H56.3174C57.8534 61.4399 58.8774 60.4159 58.8774 58.8799H20.2214Z" fill="#06A0E3"/>
<path d="M26.8791 30.7199H37.1191C37.8871 30.7199 38.3991 31.2319 38.3991 31.9999V34.5599C38.3991 35.3279 37.8871 35.8399 37.1191 35.8399H24.3191C23.5511 35.8399 23.0391 36.3519 23.0391 37.1199C23.0391 37.8879 23.5511 38.3999 24.3191 38.3999H30.7191V39.6799C30.7191 40.4479 31.2311 40.9599 31.9991 40.9599C32.7671 40.9599 33.2791 40.4479 33.2791 39.6799V38.3999H37.1191C39.1671 38.3999 40.9591 36.6079 40.9591 34.5599V31.9999C40.9591 29.9519 39.1671 28.1599 37.1191 28.1599H26.8791C26.1111 28.1599 25.5991 27.6479 25.5991 26.8799V24.3199C25.5991 23.5519 26.1111 23.0399 26.8791 23.0399H39.6791C40.4471 23.0399 40.9591 22.5279 40.9591 21.7599C40.9591 20.9919 40.4471 20.4799 39.6791 20.4799H33.2791V19.1999C33.2791 18.4319 32.7671 17.9199 31.9991 17.9199C31.2311 17.9199 30.7191 18.4319 30.7191 19.1999V20.4799H26.8791C24.8311 20.4799 23.0391 22.2719 23.0391 24.3199V26.8799C23.0391 28.9279 24.8311 30.7199 26.8791 30.7199Z" fill="#06A0E3"/>
<path d="M60.1597 51.1999H56.3197V1.27989C56.3197 0.51189 55.8077 -0.000109855 55.0397 -0.000109855C54.7837 -0.000109855 54.5277 -0.000109844 54.2717 0.25589L47.3597 4.86389L40.4477 0.25589C39.9357 -0.000109844 39.4237 -0.000109844 38.9117 0.25589L31.9997 4.86389L25.0877 0.25589C24.5757 -0.000109844 24.0637 -0.000109844 23.5517 0.25589L16.6397 4.86389L9.72769 0.25589C8.95969 -0.25611 8.19169 -0.000109864 7.93569 0.51189C7.67969 0.76789 7.67969 1.02389 7.67969 1.27989V57.5999C7.67969 60.6719 9.72769 63.2319 12.7997 63.9999H56.3197C59.1357 63.9999 61.4397 61.6959 61.4397 58.8799V52.4799C61.4397 51.7119 60.9277 51.1999 60.1597 51.1999ZM10.2397 57.5999V3.58389L15.8717 7.42389C16.3837 7.67989 16.8957 7.67989 17.4077 7.42389L24.3197 2.81589L31.2317 7.42389C31.7437 7.67989 32.2557 7.67989 32.7677 7.42389L39.6797 2.81589L46.5917 7.42389C47.1037 7.67989 47.6157 7.67989 48.1277 7.42389L53.7597 3.58389V51.1999H19.1997C18.4317 51.1999 17.9197 51.7119 17.9197 52.4799V57.5999C17.9197 59.6479 16.1277 61.4399 14.0797 61.4399C12.0317 61.4399 10.2397 59.6479 10.2397 57.5999ZM58.8797 58.8799C58.8797 60.4159 57.8557 61.4399 56.3197 61.4399H19.1997C19.9677 60.4159 20.4797 58.8799 20.4797 57.5999V53.7599H58.8797V58.8799Z" fill="#06A0E3"/>
</g>
<defs>
<clipPath id="clip0">
<rect width="64" height="64" fill="white"/>
</clipPath>
</defs>
</svg>
