<svg width="24" height="24" viewBox="0 0 24 24" fill="none" xmlns="http://www.w3.org/2000/svg">
<path fill-rule="evenodd" clip-rule="evenodd" d="M5 18.1425C5 18.6744 5.45 19.1095 6 19.1095H18C18.55 19.1095 19 18.6744 19 18.1425V13.3072C19 12.7754 19.45 12.3402 20 12.3402C20.55 12.3402 21 12.7754 21 13.3072V19.1095C21 20.1733 20.1 21.0436 19 21.0436H5C3.9 21.0436 3 20.1733 3 19.1095V5.57082C3 4.50706 3.89 3.63672 5 3.63672H11C11.55 3.63672 12 4.07189 12 4.60377C12 5.13565 11.55 5.57082 11 5.57082H6C5.45 5.57082 5 6.00599 5 6.53787V18.1425ZM15 5.57082C14.45 5.57082 14 5.13565 14 4.60377C14 4.07189 14.45 3.63672 15 3.63672H21V9.43903C21 9.9709 20.55 10.4061 20 10.4061C19.45 10.4061 19 9.9709 19 9.43903V6.93436L9.87 15.7635C9.48 16.1407 8.85 16.1407 8.46 15.7635C8.07 15.3864 8.07 14.7771 8.46 14.4L17.59 5.57082H15Z" fill="#2781FF"/>
</svg>
