<svg xmlns="http://www.w3.org/2000/svg" viewBox="0 0 468 156" width="468" height="156">
    <path fill="#4285F4" d="M60.9 118.3C28.36 118.3 1 91.81 1 59.26 1 26.72 28.36.23 60.9.23c18 0 30.82 7.06 40.46 16.27L89.99 27.87c-6.91-6.48-16.27-11.52-29.09-11.52-23.76 0-42.33 19.15-42.33 42.91 0 23.76 18.58 42.91 42.33 42.91 15.41 0 24.19-6.19 29.81-11.81 4.61-4.61 7.63-11.3 8.78-20.37H61V54h54.14c.58 2.88.86 6.27.86 10.02 0 12.1-3.26 27.07-13.91 37.73-10.37 10.79-23.62 16.55-41.19 16.55z"/>
    <path fill="#EA4335" d="M197.95 80.29c0 21.89-17.04 38.01-37.95 38.01s-37.95-16.13-37.95-38.01c0-22.03 17.04-38.02 37.95-38.02s37.95 15.99 37.95 38.02zm-16.61 0c0-13.68-9.88-23.04-21.34-23.04-11.46 0-21.34 9.36-21.34 23.04 0 13.54 9.88 23.04 21.34 23.04 11.46 0 21.34-9.51 21.34-23.04z"/>
    <path fill="#FBBC05" d="M279.95 80.29c0 21.89-17.04 38.01-37.95 38.01s-37.95-16.13-37.95-38.01c0-22.03 17.04-38.02 37.95-38.02s37.95 15.99 37.95 38.02zm-16.61 0c0-13.68-9.88-23.04-21.34-23.04-11.46 0-21.34 9.36-21.34 23.04 0 13.54 9.88 23.04 21.34 23.04 11.46 0 21.34-9.51 21.34-23.04z"/>
    <path fill="#4285F4" d="M358.96 44.49v68.34c0 28.08-16.56 39.6-36.14 39.6-18.43 0-29.52-12.38-33.7-22.46l14.54-6.05c2.59 6.19 8.93 13.54 19.15 13.54 12.53 0 20.3-7.78 20.3-22.32v-5.47h-.58c-3.74 4.61-10.94 8.64-20.02 8.64-19.01 0-36.43-16.56-36.43-37.87 0-21.46 17.42-38.16 36.43-38.16 9.07 0 16.27 4.03 20.02 8.5h.58V44.5h15.85zm-14.69 35.94c0-13.39-8.93-23.18-20.3-23.18-11.52 0-21.17 9.79-21.17 23.18 0 13.25 9.65 22.9 21.17 22.9 11.38 0 20.3-9.65 20.3-22.9z"/>
    <path fill="#34A853" d="M387 4.26V116h-16.7V4.26H387z"/>
    <path fill="#EA4335" d="M450.55 92.82l12.96 8.64c-4.18 6.19-14.25 16.85-31.68 16.85-21.6 0-37.73-16.7-37.73-38.01 0-22.61 16.27-38.02 35.86-38.02 19.73 0 29.38 15.7 32.54 24.19l1.73 4.32-50.83 21.02c3.89 7.63 9.94 11.52 18.43 11.52s14.4-4.18 18.72-10.51zm-39.89-13.68l33.98-14.11c-1.87-4.75-7.49-8.06-14.11-8.06-8.49-.01-20.3 7.48-19.87 22.17z"/>
    <path fill="none" d="M0 0h468v156H0z"/>
</svg>
