<svg width="64" height="64" viewBox="0 0 64 64" fill="none" xmlns="http://www.w3.org/2000/svg">
<g clip-path="url(#clip0)">
<path d="M56.9965 20.6506C54.2558 26.9467 48.6433 33.2801 40.9607 33.2801C38.3304 33.3171 35.7366 32.6613 33.4399 31.3785C34.1985 33.3756 38.1829 35.8401 43.5207 35.8401C52.5135 35.8401 58.6838 27.1617 60.7132 20.0244H60.7132C59.4976 20.3534 58.2528 20.5631 56.9965 20.6506Z" fill="#06A0E3" fill-opacity="0.2"/>
<path d="M32.0005 51.2C30.7029 51.208 29.4163 51.4372 28.1958 51.8778C32.366 53.3368 35.3353 57.0509 35.8405 61.4399H43.4498C42.7905 55.6129 37.8647 51.2074 32.0005 51.2Z" fill="#06A0E3" fill-opacity="0.2"/>
<path d="M22.0836 26.5815C17.8464 26.2344 13.9426 24.1467 11.3014 20.8153L11.3014 20.8153C8.68301 17.569 7.52712 13.3827 8.10878 9.25282C8.17585 8.76642 8.25214 8.32534 8.32715 7.87708H8.32715C7.83393 7.37841 7.38381 6.83889 6.98161 6.26428V6.26428C6.25818 8.43975 5.75224 10.6816 5.47121 12.9569L5.47121 12.9569C4.88934 17.0864 6.04476 21.2725 8.66251 24.5189C11.3037 27.8503 15.2075 29.938 19.4447 30.285C21.6581 30.4763 23.692 30.605 25.5219 30.669C25.4443 29.372 25.2867 28.081 25.0501 26.8034C24.0991 26.7433 23.1152 26.6708 22.0836 26.5815L22.0836 26.5815Z" fill="#06A0E3" fill-opacity="0.2"/>
<path d="M43.5199 38.4C56.1064 38.4 63.9999 24.1067 63.9999 15.36C61.3068 17.5197 57.8741 18.5369 54.4391 18.1931C50.8456 18.1931 47.0468 17.6832 43.9485 17.6832C42.947 17.6672 41.9463 17.7465 40.9599 17.92V17.92C34.8627 19.0869 30.52 24.5153 30.7199 30.72V48.7042C23.4713 49.3641 17.9212 55.4414 17.9199 62.72V64H46.0799V62.72V62.7224C46.0799 55.4438 40.5309 49.3656 33.2824 48.7045V35.1549C36.2443 37.3348 39.8431 38.4755 43.5199 38.4V38.4ZM41.4532 20.4319C42.2772 20.2906 43.1126 20.2275 43.9485 20.2432C45.349 20.2432 46.9416 20.3568 48.6276 20.4777C50.5238 20.6134 52.4845 20.7534 54.4388 20.7534C56.5534 20.7961 58.6639 20.5509 60.7124 20.0246C58.6831 27.1616 52.5127 35.84 43.5199 35.84C37.5807 35.84 33.2799 32.7818 33.2799 30.72C33.1037 25.7473 36.5695 21.3847 41.4532 20.4319V20.4319ZM43.4493 61.44H20.5506C21.2542 55.1167 26.9506 50.561 33.2739 51.2646C38.6275 51.8603 42.8536 56.0864 43.4493 61.44Z" fill="#06A0E3"/>
<path d="M28.1603 33.28C28.1603 7.78675 7.68027 12.2668 7.68027 0C5.02837 2.6519 3.63547 7.51744 2.93378 12.607L2.93378 12.607C1.62722 22.4196 8.52274 31.4334 18.3354 32.74C18.6308 32.7793 18.9271 32.8113 19.2241 32.8358C22.2861 33.1008 25.3883 33.28 28.1603 33.28L28.1603 33.28ZM8.66203 24.5187H8.66203C6.04377 21.2723 4.88798 17.086 5.46971 12.9562V12.9562C5.75074 10.6809 6.25668 8.43902 6.98011 6.26355C8.85022 8.60534 11.1625 10.5566 13.7854 12.0064C19.2057 15.5008 24.7985 19.1063 25.5217 30.6701C23.6918 30.6051 21.6579 30.4763 19.4445 30.2861H19.4445C15.207 29.9388 11.3031 27.8506 8.66203 24.5187L8.66203 24.5187Z" fill="#06A0E3"/>
</g>
<defs>
<clipPath id="clip0">
<rect width="64" height="64" fill="white"/>
</clipPath>
</defs>
</svg>
