<svg width="64" height="64" viewBox="0 0 64 64" fill="none" xmlns="http://www.w3.org/2000/svg">
<path opacity="0.2" d="M50.1751 8.70386C60.1591 21.5039 57.8551 39.9359 45.0551 49.9199C34.3031 58.3679 19.4551 58.3679 8.70312 49.9199C18.6871 62.7199 37.1191 65.0239 49.9191 55.0399C62.7191 45.0559 65.0231 26.6239 55.0391 13.8239C53.7591 12.0319 51.9671 10.2399 50.1751 8.70386Z" fill="#06A0E3"/>
<path d="M32 0C14.336 0 0 14.336 0 32C0 49.664 14.336 64 32 64C49.664 64 64 49.664 64 32C64 14.336 49.664 0 32 0ZM32 61.44C15.616 61.44 2.56 48.384 2.56 32C2.56 15.616 15.616 2.56 32 2.56C48.384 2.56 61.44 15.872 61.44 32C61.44 48.384 48.128 61.44 32 61.44Z" fill="#06A0E3"/>
<path d="M20.4819 28.16C21.8957 28.16 23.0419 27.0139 23.0419 25.6C23.0419 24.1862 21.8957 23.04 20.4819 23.04C19.068 23.04 17.9219 24.1862 17.9219 25.6C17.9219 27.0139 19.068 28.16 20.4819 28.16Z" fill="#06A0E3"/>
<path d="M43.5209 28.16C44.9348 28.16 46.0809 27.0139 46.0809 25.6C46.0809 24.1862 44.9348 23.04 43.5209 23.04C42.1071 23.04 40.9609 24.1862 40.9609 25.6C40.9609 27.0139 42.1071 28.16 43.5209 28.16Z" fill="#06A0E3"/>
<path d="M32 47.616C26.368 47.616 20.992 45.056 17.408 40.448C16.896 39.936 17.152 39.168 17.664 38.656C18.176 38.144 18.944 38.4 19.456 38.912C22.528 42.752 26.88 45.056 32 45.056C36.864 45.056 41.472 42.752 44.288 38.912C44.8 38.4 45.568 38.144 46.08 38.656C46.592 39.168 46.848 39.936 46.336 40.448C43.008 44.8 37.632 47.616 32 47.616Z" fill="#06A0E3"/>
</svg>
