<svg width="52" height="69" viewBox="0 0 52 69" fill="none" xmlns="http://www.w3.org/2000/svg">
<path d="M26.0025 3.00586C24.9077 3.82562 24.0867 4.64539 23.2656 5.46515C26.2762 8.47096 30.1077 13.3895 30.1077 16.3953V55.4708C29.2867 55.7441 28.4656 56.0173 27.3709 56.2906V57.3836C30.1077 57.1103 32.8446 56.2906 35.5814 55.4708V16.3953C35.5814 12.2965 28.7393 4.91864 26.0025 3.00586Z" fill="#CDECF9"/>
<path d="M8.21094 39.3484V54.6507H13.6846V33.8833L8.21094 39.3484Z" fill="#CDECF9"/>
<path d="M38.3164 33.8833V54.6507H43.7901V39.3484L38.3164 33.8833Z" fill="#CDECF9"/>
<path d="M50.9053 42.6278L38.3158 30.058V16.3953C38.3158 9.83718 27.6421 0 26 0C24.3579 0 13.6842 9.83718 13.6842 16.3953V30.058L1.09474 42.6278C0.547368 43.1743 0 44.2673 0 45.3603V53.2847C0 55.4707 1.91579 57.3835 4.10526 57.3835H13.6842C13.6842 57.3835 15.6 58.2033 18.3368 58.7498L16.9684 65.0347C16.6947 66.4009 17.7895 68.0405 19.1579 68.3137C19.4316 68.3137 19.4316 68.3137 19.7053 68.3137H32.2947C33.9368 68.3137 35.0316 67.2207 35.0316 65.5812C35.0316 65.3079 35.0316 65.3079 35.0316 65.0347L33.6632 58.7498C36.4 57.93 38.3158 57.3835 38.3158 57.3835H47.8947C50.0842 57.3835 52 55.4707 52 53.2847V45.3603C52 44.2673 51.4526 43.1743 50.9053 42.6278ZM4.10526 54.651C3.28421 54.651 2.73684 54.1045 2.73684 53.2847V45.3603C2.73684 45.0871 3.01053 44.5406 3.01053 44.2673L13.6842 33.8836V54.651H4.10526ZM16.4211 16.3953C16.4211 12.2965 23.2632 4.91859 26 3.0058C28.7368 4.91859 35.5789 12.2965 35.5789 16.3953V55.4707C32.8421 56.2905 30.1053 56.837 27.3684 57.3835V39.622C27.3684 38.8022 26.8211 38.2557 26 38.2557C25.1789 38.2557 24.6316 38.8022 24.6316 39.622V57.3835C21.8947 57.1103 19.1579 56.2905 16.4211 55.4707V16.3953ZM32.2947 65.5812H19.7053L20.8 59.5696C22.7158 59.8428 24.3579 60.1161 26 60.1161C27.6421 60.1161 29.2842 59.8428 30.9263 59.5696L32.2947 65.5812ZM49.2632 53.2847C49.2632 54.1045 48.7158 54.651 47.8947 54.651H38.3158V33.8836L48.9895 44.5405C49.2632 44.8138 49.2632 45.0871 49.2632 45.6336V53.2847Z" fill="#2781FF"/>
<path d="M45.1575 60.1162C44.3364 60.1162 43.7891 60.6627 43.7891 61.4825V64.215C43.7891 65.0348 44.3364 65.5813 45.1575 65.5813C45.9785 65.5813 46.5259 65.0348 46.5259 64.215V61.4825C46.5259 60.6627 45.9785 60.1162 45.1575 60.1162Z" fill="#2781FF"/>
<path d="M6.84083 60.1162C6.01978 60.1162 5.47241 60.6627 5.47241 61.4825V64.215C5.47241 65.0348 6.01978 65.5813 6.84083 65.5813C7.66189 65.5813 8.20925 65.0348 8.20925 64.215V61.4825C8.20925 60.6627 7.66189 60.1162 6.84083 60.1162Z" fill="#2781FF"/>
<path d="M26.0042 19.1278C27.6463 19.401 29.2884 20.2208 30.6569 21.587C31.2042 22.1336 32.0253 22.1336 32.5727 21.587C33.12 21.0405 33.12 20.2208 32.5727 19.6743C30.9305 18.0347 28.4674 16.9417 26.2779 16.6685C23.5411 16.6685 21.3516 17.7615 19.7095 19.401C19.1621 19.9475 18.8884 20.7673 19.4358 21.3138C19.9832 21.8603 20.8042 21.8603 21.3516 21.3138C22.72 20.2208 24.3621 19.401 26.0042 19.1278Z" fill="#2781FF"/>
</svg>
