<svg width="96" height="96" viewBox="0 0 96 96" fill="none" xmlns="http://www.w3.org/2000/svg">
<g clip-path="url(#clip0)">
<path opacity="0.2" d="M62.1828 48.1521H42.7469L33.2195 48.6651H27.846L25.5594 46.3848L23.8064 44.0285L33.6387 40.9312H42.9946L54.7515 43.8195L62.1828 47.0119V48.1521Z" fill="#2781FF"/>
<path opacity="0.2" d="M74.3969 59.0024C75.0583 60.0362 75.4149 61.2346 75.4258 62.4609C75.4208 64.1509 74.744 65.7701 73.5439 66.9633C72.3437 68.1566 70.7181 68.8267 69.0234 68.8267C67.7979 68.8282 66.5988 68.4714 65.5745 67.8005C66.1468 68.6993 66.938 69.4389 67.8742 69.9506C68.8104 70.4622 69.8613 70.7293 70.9289 70.7269C72.3105 70.7317 73.6564 70.2893 74.7645 69.4662C75.8725 68.6431 76.6828 67.4837 77.0737 66.1622C77.4646 64.8406 77.415 63.4283 76.9323 62.1372C76.4496 60.8462 75.5599 59.7462 74.3969 59.0024Z" fill="#2781FF"/>
<path opacity="0.2" d="M26.7596 59.0024C27.4211 60.0362 27.7777 61.2346 27.7886 62.4609C27.7836 64.1509 27.1068 65.7701 25.9067 66.9633C24.7065 68.1566 23.0809 68.8267 21.3862 68.8267C20.1607 68.8282 18.9616 68.4714 17.9373 67.8005C18.5096 68.6993 19.3008 69.4389 20.237 69.9506C21.1732 70.4622 22.2241 70.7293 23.2917 70.7269C24.6733 70.7317 26.0192 70.2893 27.1273 69.4662C28.2353 68.6431 29.0456 67.4837 29.4365 66.1622C29.8274 64.8406 29.7778 63.4283 29.2951 62.1372C28.8124 60.8462 27.9227 59.7462 26.7596 59.0024Z" fill="#2781FF"/>
<path d="M82.7238 51.9331C77.3608 49.9164 71.7662 48.5759 66.0699 47.9426C64.717 47.2205 51.3214 39.8856 40.4602 39.9996C28.2841 39.9996 23.4251 42.983 19.8619 45.1493L18.6995 45.8523C17.1852 46.7664 15.4991 47.3614 13.7453 47.6006L9.55323 48.1326C8.86208 48.2146 8.22365 48.542 7.75477 49.055C7.28588 49.5679 7.0179 50.2321 6.99988 50.926V61.2253C6.99325 62.1605 7.25296 63.0784 7.74881 63.8723C8.24466 64.6662 8.95628 65.3034 9.80094 65.7098L12.3924 66.983C13.5763 67.5731 14.8799 67.8851 16.2034 67.8951H16.5273C17.1632 69.15 18.1358 70.2044 19.3367 70.941C20.5377 71.6777 21.9199 72.0677 23.3299 72.0677C24.7398 72.0677 26.1221 71.6777 27.323 70.941C28.524 70.2044 29.4965 69.15 30.1325 67.8951H64.1644C64.8003 69.15 65.7729 70.2044 66.9738 70.941C68.1747 71.6777 69.557 72.0677 70.967 72.0677C72.3769 72.0677 73.7592 71.6777 74.9601 70.941C76.1611 70.2044 77.1336 69.15 77.7695 67.8951H85.2581C86.0583 67.8901 86.8241 67.5695 87.3881 67.0035C87.9522 66.4374 88.2688 65.6718 88.2688 64.8737V59.7241C88.2641 58.0135 87.7286 56.3462 86.7358 54.9513C85.743 53.5563 84.3415 52.502 82.7238 51.9331ZM39.2026 47.6006H28.6462C28.2383 47.5957 27.8485 47.4321 27.5601 47.1445L24.9305 44.5792C29.4644 42.7571 34.3147 41.8466 39.2026 41.8998V47.6006ZM41.108 41.8998C48.1393 41.9949 56.4853 45.3963 61.2681 47.6006H59.5531H41.108V41.8998ZM23.2918 70.0994C22.1348 70.0994 21.0038 69.7572 20.0418 69.1162C19.0798 68.4752 18.33 67.5641 17.8872 66.4981C17.4445 65.4321 17.3286 64.2592 17.5543 63.1275C17.7801 61.9959 18.3372 60.9564 19.1553 60.1406C19.9734 59.3247 21.0158 58.7691 22.1505 58.544C23.2853 58.3189 24.4615 58.4344 25.5304 58.876C26.5993 59.3175 27.5129 60.0652 28.1557 61.0246C28.7985 61.984 29.1416 63.1118 29.1416 64.2656C29.1366 65.8113 28.5186 67.2922 27.4227 68.3852C26.3267 69.4781 24.8417 70.0944 23.2918 70.0994ZM23.2918 56.5317C21.2349 56.5317 19.2623 57.3465 17.8079 58.7969C16.3535 60.2473 15.5364 62.2145 15.5364 64.2656C15.5412 64.8219 15.605 65.3761 15.727 65.9189C14.8621 65.8725 14.0145 65.6596 13.2308 65.2918L10.6394 64.0186C10.1167 63.762 9.67701 63.364 9.3704 62.8701C9.06378 62.3762 8.90264 61.8062 8.90536 61.2253V54.1564H12.8116C13.0643 54.1564 13.3066 54.0563 13.4853 53.8781C13.664 53.6999 13.7643 53.4582 13.7643 53.2063C13.7643 52.9543 13.664 52.7126 13.4853 52.5344C13.3066 52.3562 13.0643 52.2561 12.8116 52.2561H8.90536V50.926C8.90782 50.6837 8.9978 50.4504 9.1588 50.2689C9.3198 50.0874 9.54102 49.9698 9.78189 49.9379L13.993 49.5008C16.0084 49.2622 17.9536 48.6156 19.7095 47.6006C20.1096 47.3725 20.5098 47.1445 20.9099 46.8785C21.5959 46.4604 22.339 46.0234 23.1774 45.5673L26.2643 48.6457C26.9209 49.2215 27.7722 49.5271 28.6462 49.5008H39.2026V65.9569H30.8375C30.9736 65.3904 31.0439 64.8102 31.0471 64.2276C31.037 62.1831 30.2155 60.2256 28.7622 58.7835C27.3089 57.3413 25.342 56.5317 23.2918 56.5317ZM70.9289 70.0994C69.7719 70.0994 68.6409 69.7572 67.6789 69.1162C66.7169 68.4752 65.9671 67.5641 65.5243 66.4981C65.0816 65.4321 64.9657 64.2592 65.1914 63.1275C65.4171 61.9959 65.9743 60.9564 66.7924 60.1406C67.6105 59.3247 68.6529 58.7691 69.7876 58.544C70.9224 58.3189 72.0986 58.4344 73.1675 58.876C74.2364 59.3175 75.15 60.0652 75.7928 61.0246C76.4356 61.984 76.7787 63.1118 76.7787 64.2656C76.7737 65.8113 76.1557 67.2922 75.0598 68.3852C73.9638 69.4781 72.4788 70.0944 70.9289 70.0994ZM86.3252 64.8737C86.3252 65.1678 86.2094 65.4501 86.0027 65.6598C85.7959 65.8696 85.5148 65.9899 85.22 65.9949H78.4746C78.6107 65.4284 78.681 64.8482 78.6842 64.2656C78.6842 62.2145 77.8671 60.2473 76.4127 58.7969C74.9583 57.3465 72.9857 56.5317 70.9289 56.5317C68.872 56.5317 66.8994 57.3465 65.445 58.7969C63.9906 60.2473 63.1735 62.2145 63.1735 64.2656C63.1767 64.8482 63.2471 65.4284 63.3831 65.9949H41.108V49.5008H59.5531C67.2582 49.5197 74.8936 50.9563 82.0759 53.7383C83.3183 54.1749 84.3942 54.9851 85.1553 56.0572C85.9164 57.1293 86.3251 58.4105 86.3252 59.7241V64.8737Z" fill="#2781FF"/>
<path d="M50.2925 52.2563H47.2818C47.0292 52.2563 46.7868 52.3564 46.6082 52.5346C46.4295 52.7128 46.3291 52.9545 46.3291 53.2065C46.3291 53.4585 46.4295 53.7001 46.6082 53.8783C46.7868 54.0565 47.0292 54.1566 47.2818 54.1566H50.2925C50.5452 54.1566 50.7875 54.0565 50.9662 53.8783C51.1449 53.7001 51.2453 53.4585 51.2453 53.2065C51.2453 52.9545 51.1449 52.7128 50.9662 52.5346C50.7875 52.3564 50.5452 52.2563 50.2925 52.2563Z" fill="#2781FF"/>
</g>
<defs>
<clipPath id="clip0">
<rect x="7" y="40" width="81.2308" height="32" fill="white"/>
</clipPath>
</defs>
</svg>
