<svg width="64" height="64" viewBox="0 0 64 64" fill="none" xmlns="http://www.w3.org/2000/svg">
<g clip-path="url(#clip0)">
<path d="M12.8003 38.4C11.1257 38.3808 9.5762 37.5103 8.68865 36.0901H8.68865C8.1321 35.2498 7.79388 34.284 7.70459 33.28H17.8959L17.896 33.28C17.8066 34.284 17.4683 35.2498 16.9116 36.0901C16.0241 37.5102 14.4747 38.3807 12.8003 38.4L12.8003 38.4Z" fill="#C1F1D0"/>
<path d="M56.3203 38.4C54.6457 38.3808 53.0962 37.5103 52.2087 36.0901C51.6521 35.2498 51.3139 34.284 51.2246 33.28H61.4162V33.28C61.3269 34.284 60.9886 35.2498 60.4319 36.0901C59.5444 37.5103 57.9948 38.3808 56.3203 38.4L56.3203 38.4Z" fill="#C1F1D0"/>
<path d="M42.2401 58.8801C42.947 58.8801 43.5201 58.307 43.5201 57.6001C43.5201 56.8931 42.947 56.3201 42.2401 56.3201H26.8801C26.1732 56.3201 25.6001 56.8931 25.6001 57.6001C25.6001 58.307 26.1732 58.8801 26.8801 58.8801H42.2401Z" fill="#04DE47"/>
<path d="M49.9199 61.4399H19.1999C18.493 61.4399 17.9199 62.013 17.9199 62.7199C17.9199 63.4269 18.493 63.9999 19.1999 63.9999H49.9199C50.6268 63.9999 51.1999 63.4269 51.1999 62.7199C51.1999 62.013 50.6268 61.4399 49.9199 61.4399Z" fill="#04DE47"/>
<path d="M63.3037 29.3073L57.4029 15.3599H60.16C60.867 15.3599 61.44 14.7869 61.44 14.0799C61.44 13.373 60.867 12.7999 60.16 12.7999H35.84V8.95993C35.84 8.25301 35.267 7.67993 34.56 7.67993C33.8531 7.67993 33.28 8.25301 33.28 8.95993V12.7999H8.96003C8.25311 12.7999 7.68003 13.373 7.68003 14.0799C7.68003 14.7869 8.25311 15.3599 8.96003 15.3599H11.7172L5.81635 29.3073H5.81635C3.91166 33.4267 5.70705 38.3103 9.82649 40.215C10.7622 40.6476 11.7709 40.9003 12.8 40.9599C17.3309 40.6975 20.7911 36.8117 20.5287 32.2809C20.4691 31.2517 20.2163 30.243 19.7837 29.3073L13.8829 15.3599H33.28V52.4799C33.28 53.1869 33.8531 53.7599 34.56 53.7599C35.267 53.7599 35.84 53.1869 35.84 52.4799V15.3599H55.2372L49.3364 29.3073V29.3073C47.4317 33.4268 49.2271 38.3103 53.3465 40.215C54.2822 40.6476 55.2909 40.9003 56.32 40.9599C60.8509 40.6975 64.3111 36.8117 64.0487 32.2809C63.9891 31.2517 63.7363 30.243 63.3037 29.3073L63.3037 29.3073ZM12.8 38.3999C11.1255 38.3807 9.57597 37.5102 8.68842 36.09H8.68842C8.13187 35.2497 7.79364 34.2839 7.70436 33.2799H17.8957L17.8957 33.2799C17.8064 34.2839 17.468 35.2497 16.9114 36.09C16.0239 37.5101 14.4745 38.3806 12.8 38.3999L12.8 38.3999ZM17.5445 30.7199H8.05559C8.10269 30.5825 8.11703 30.4399 8.17411 30.305L12.8 19.3707L17.426 30.305C17.483 30.4399 17.4974 30.5825 17.5445 30.7199ZM56.32 19.3707L60.946 30.305C61.003 30.4399 61.0174 30.5825 61.0645 30.7199H51.5756C51.6227 30.5825 51.637 30.4399 51.6941 30.305L56.32 19.3707ZM56.32 38.3999C54.6455 38.3807 53.096 37.5102 52.2084 36.09C51.6519 35.2497 51.3136 34.2839 51.2244 33.2799H61.416V33.2799C61.3266 34.2839 60.9883 35.2497 60.4317 36.09C59.5441 37.5102 57.9946 38.3807 56.32 38.3999L56.32 38.3999Z" fill="#04DE47"/>
</g>
<defs>
<clipPath id="clip0">
<rect width="64" height="64" fill="white"/>
</clipPath>
</defs>
</svg>
