<svg width="96" height="96" viewBox="0 0 96 96" fill="none" xmlns="http://www.w3.org/2000/svg">
<path opacity="0.2" d="M54.2726 24.0911H50.0908V32.4547H54.2726V24.0911Z" fill="#2781FF"/>
<path opacity="0.2" d="M51.1363 55.3291C50.784 55.3282 50.4329 55.3704 50.0908 55.4546V72.1819H54.2726V55.3291H51.1363Z" fill="#2781FF"/>
<path opacity="0.2" d="M68.9089 34.5454H64.7271V53.3636H68.9089V34.5454Z" fill="#2781FF"/>
<path d="M38.5909 65.9092C38.3136 65.9092 38.0477 66.0193 37.8516 66.2154C37.6556 66.4114 37.5454 66.6774 37.5454 66.9546C37.5454 67.2319 37.6556 67.4978 37.8516 67.6939C38.0477 67.8899 38.3136 68.0001 38.5909 68.0001H42.7727C43.05 68.0001 43.3159 67.8899 43.5119 67.6939C43.708 67.4978 43.8181 67.2319 43.8181 66.9546C43.8181 66.6774 43.708 66.4114 43.5119 66.2154C43.3159 66.0193 43.05 65.9092 42.7727 65.9092H38.5909Z" fill="#2781FF"/>
<path d="M67.8636 32.4545H56.3636V25.1364C56.3636 24.3045 56.0332 23.5068 55.445 22.9186C54.8568 22.3304 54.0591 22 53.2273 22H28.1364C27.3045 22 26.5068 22.3304 25.9186 22.9186C25.3304 23.5068 25 24.3045 25 25.1364V71.1364C25 71.9682 25.3304 72.7659 25.9186 73.3541C26.5068 73.9423 27.3045 74.2727 28.1364 74.2727H53.2273C54.0591 74.2727 54.8568 73.9423 55.445 73.3541C56.0332 72.7659 56.3636 71.9682 56.3636 71.1364V55.4545H67.8636C68.6954 55.4545 69.4932 55.1241 70.0814 54.5359C70.6696 53.9477 71 53.15 71 52.3182V35.5909C71 34.7591 70.6696 33.9613 70.0814 33.3732C69.4932 32.785 68.6954 32.4545 67.8636 32.4545ZM54.2727 71.1364C54.2727 71.4136 54.1626 71.6796 53.9665 71.8756C53.7705 72.0717 53.5045 72.1818 53.2273 72.1818H28.1364C27.8591 72.1818 27.5932 72.0717 27.3971 71.8756C27.2011 71.6796 27.0909 71.4136 27.0909 71.1364V25.1364C27.0909 24.8591 27.2011 24.5932 27.3971 24.3971C27.5932 24.2011 27.8591 24.0909 28.1364 24.0909H53.2273C53.5045 24.0909 53.7705 24.2011 53.9665 24.3971C54.1626 24.5932 54.2727 24.8591 54.2727 25.1364V32.4545H42.7727C41.9409 32.4545 41.1432 32.785 40.555 33.3732C39.9668 33.9613 39.6364 34.7591 39.6364 35.5909V52.3182C39.6364 53.15 39.9668 53.9477 40.555 54.5359C41.1432 55.1241 41.9409 55.4545 42.7727 55.4545H54.2727V71.1364ZM67.8636 53.3636H42.7727C42.4955 53.3636 42.2295 53.2535 42.0335 53.0574C41.8374 52.8614 41.7273 52.5955 41.7273 52.3182V35.5909C41.7273 35.3136 41.8374 35.0477 42.0335 34.8517C42.2295 34.6556 42.4955 34.5455 42.7727 34.5455H67.8636C68.1409 34.5455 68.4068 34.6556 68.6029 34.8517C68.7989 35.0477 68.9091 35.3136 68.9091 35.5909V38.7273H46.9545C46.6773 38.7273 46.4114 38.8374 46.2153 39.0335C46.0192 39.2295 45.9091 39.4955 45.9091 39.7727C45.9091 40.05 46.0192 40.3159 46.2153 40.512C46.4114 40.708 46.6773 40.8182 46.9545 40.8182H68.9091V52.3182C68.9091 52.5955 68.7989 52.8614 68.6029 53.0574C68.4068 53.2535 68.1409 53.3636 67.8636 53.3636Z" fill="#2781FF"/>
<path d="M63.6819 47.0908H59.5C59.2228 47.0908 58.9569 47.201 58.7608 47.397C58.5647 47.5931 58.4546 47.859 58.4546 48.1363C58.4546 48.4135 58.5647 48.6795 58.7608 48.8755C58.9569 49.0716 59.2228 49.1817 59.5 49.1817H63.6819C63.9591 49.1817 64.2251 49.0716 64.4211 48.8755C64.6172 48.6795 64.7273 48.4135 64.7273 48.1363C64.7273 47.859 64.6172 47.5931 64.4211 47.397C64.2251 47.201 63.9591 47.0908 63.6819 47.0908Z" fill="#2781FF"/>
</svg>
