<svg width="64" height="68" viewBox="0 0 64 68" fill="none" xmlns="http://www.w3.org/2000/svg">
<path opacity="0.2" d="M4.17353 42C3.80453 42 3.45065 41.8525 3.18973 41.5899C2.92881 41.3274 2.78223 40.9713 2.78223 40.6V22.4C2.78223 19.4295 3.95489 16.5808 6.04226 14.4804C8.12962 12.3799 10.9607 11.2 13.9127 11.2C16.8646 11.2 19.6957 12.3799 21.7831 14.4804C23.8704 16.5808 25.0431 19.4295 25.0431 22.4V42H4.17353Z" fill="#2781FF"/>
<path opacity="0.2" d="M41.739 44.8H36.1738V64.4H41.739V44.8Z" fill="#2781FF"/>
<path opacity="0.2" d="M61.2175 36.3999H27.8262V41.9999H61.2175V36.3999Z" fill="#2781FF"/>
<path d="M55.6522 8.4H44.5217V11.2H55.6522C57.1282 11.2 58.5437 11.79 59.5874 12.8402C60.6311 13.8904 61.2174 15.3148 61.2174 16.8V40.6C61.2174 40.9713 61.0708 41.3274 60.8099 41.5899C60.549 41.8525 60.1951 42 59.8261 42H27.8261V22.4C27.8261 20.2266 27.3232 18.083 26.3572 16.139C25.3913 14.195 23.9888 12.5041 22.2609 11.2H38.9565V21C38.9565 21.3713 39.1031 21.7274 39.364 21.9899C39.6249 22.2525 39.9788 22.4 40.3478 22.4C40.7168 22.4 41.0707 22.2525 41.3316 21.9899C41.5925 21.7274 41.7391 21.3713 41.7391 21V4.2C41.7391 3.8287 41.8857 3.4726 42.1466 3.21005C42.4076 2.9475 42.7614 2.8 43.1304 2.8H48.6957C49.0646 2.8 49.4185 2.6525 49.6795 2.38995C49.9404 2.1274 50.087 1.7713 50.087 1.4C50.087 1.0287 49.9404 0.672601 49.6795 0.410051C49.4185 0.1475 49.0646 0 48.6957 0L43.1304 0C42.0234 0 40.9618 0.442499 40.179 1.23015C39.3963 2.0178 38.9565 3.08609 38.9565 4.2V8.4H13.913C10.2231 8.4 6.68424 9.875 4.07504 12.5005C1.46583 15.126 0 18.687 0 22.4L0 40.6C0 41.7139 0.43975 42.7822 1.22251 43.5698C2.00527 44.3575 3.06692 44.8 4.17391 44.8H33.3913V64.4H32C31.631 64.4 31.2771 64.5475 31.0162 64.81C30.7553 65.0726 30.6087 65.4287 30.6087 65.8C30.6087 66.1713 30.7553 66.5274 31.0162 66.7899C31.2771 67.0525 31.631 67.2 32 67.2H45.913C46.282 67.2 46.6359 67.0525 46.8968 66.7899C47.1578 66.5274 47.3043 66.1713 47.3043 65.8C47.3043 65.4287 47.1578 65.0726 46.8968 64.81C46.6359 64.5475 46.282 64.4 45.913 64.4H44.5217V44.8H59.8261C60.9331 44.8 61.9947 44.3575 62.7775 43.5698C63.5602 42.7822 64 41.7139 64 40.6V16.8C64 14.5722 63.1205 12.4356 61.555 10.8603C59.9895 9.285 57.8662 8.4 55.6522 8.4ZM4.17391 42C3.80492 42 3.45103 41.8525 3.19011 41.5899C2.92919 41.3274 2.78261 40.9713 2.78261 40.6V22.4C2.78261 19.4296 3.95528 16.5808 6.04264 14.4804C8.13 12.38 10.9611 11.2 13.913 11.2C16.865 11.2 19.6961 12.38 21.7835 14.4804C23.8708 16.5808 25.0435 19.4296 25.0435 22.4V42H4.17391ZM41.7391 64.4H36.1739V44.8H41.7391V64.4Z" fill="#2781FF"/>
<path d="M20.8698 33.6001H6.95673C6.58774 33.6001 6.23385 33.7476 5.97293 34.0101C5.71201 34.2727 5.56543 34.6288 5.56543 35.0001C5.56543 35.3714 5.71201 35.7275 5.97293 35.9901C6.23385 36.2526 6.58774 36.4001 6.95673 36.4001H20.8698C21.2388 36.4001 21.5927 36.2526 21.8536 35.9901C22.1145 35.7275 22.2611 35.3714 22.2611 35.0001C22.2611 34.6288 22.1145 34.2727 21.8536 34.0101C21.5927 33.7476 21.2388 33.6001 20.8698 33.6001Z" fill="#2781FF"/>
</svg>
