<svg width="53" height="66" viewBox="0 0 53 66" fill="none" xmlns="http://www.w3.org/2000/svg">
<path d="M26.5016 2.63965C25.4416 2.63965 24.6466 2.90365 23.8516 3.43165C26.5016 4.75165 27.2966 7.91965 25.7066 10.5596C25.4416 11.3516 24.6466 11.8796 23.8516 12.4076C24.6466 12.9356 25.4416 13.1996 26.5016 13.1996C29.4166 13.1996 31.8016 10.8236 31.8016 7.91965C31.8016 5.01565 29.4166 2.63965 26.5016 2.63965Z" fill="#CDECF9"/>
<path d="M26.5016 21.1201C25.7066 21.1201 24.6466 21.3841 23.8516 21.3841C28.6216 22.7041 31.8016 26.6641 31.8016 31.6801V38.2801C31.8016 39.0721 31.2716 39.6001 30.4766 39.6001H29.1516C27.5616 39.6001 26.5016 40.6561 26.5016 42.2401V56.7601C26.5016 57.5521 25.9716 58.0801 25.1766 58.0801H30.4766C31.2716 58.0801 31.8016 57.5521 31.8016 56.7601V42.2401C31.8016 40.6561 32.8616 39.6001 34.4516 39.6001H35.7766C36.5716 39.6001 37.1016 39.0721 37.1016 38.2801V31.6801C37.1016 25.8721 32.3316 21.1201 26.5016 21.1201Z" fill="#CDECF9"/>
<path d="M26.4998 15.84C31.0048 15.84 34.4498 12.408 34.4498 7.92C34.4498 3.432 31.0048 0 26.4998 0C21.9948 0 18.5498 3.432 18.5498 7.92C18.5498 12.408 21.9948 15.84 26.4998 15.84ZM26.4998 2.64C29.4148 2.64 31.7998 5.016 31.7998 7.92C31.7998 10.824 29.4148 13.2 26.4998 13.2C23.5848 13.2 21.1998 10.824 21.1998 7.92C21.1998 5.016 23.5848 2.64 26.4998 2.64Z" fill="#2781FF"/>
<path d="M17.225 42.24H18.55V56.76C18.55 58.872 20.405 60.72 22.525 60.72H30.475C32.595 60.72 34.45 58.872 34.45 56.76V42.24H35.775C37.895 42.24 39.75 40.392 39.75 38.28V31.68C39.75 24.288 33.92 18.48 26.5 18.48C19.08 18.48 13.25 24.288 13.25 31.68V38.28C13.25 40.392 15.105 42.24 17.225 42.24ZM15.9 31.68C15.9 25.872 20.67 21.12 26.5 21.12C32.33 21.12 37.1 25.872 37.1 31.68V38.28C37.1 39.072 36.57 39.6 35.775 39.6H34.45C32.86 39.6 31.8 40.656 31.8 42.24V56.76C31.8 57.552 31.27 58.08 30.475 58.08H22.525C21.73 58.08 21.2 57.552 21.2 56.76V42.24C21.2 40.656 20.14 39.6 18.55 39.6H17.225C16.43 39.6 15.9 39.072 15.9 38.28V31.68Z" fill="#2781FF"/>
<path d="M38.69 50.952C37.895 50.952 37.365 51.48 37.1 52.008C37.1 52.8 37.63 53.328 38.16 53.592C47.435 54.912 50.35 57.288 50.35 58.08C50.35 59.928 41.87 63.36 26.5 63.36C11.13 63.36 2.65 59.928 2.65 58.08C2.65 57.288 5.565 54.912 14.84 53.592C15.37 53.592 15.9 52.8 15.9 52.008C15.9 51.216 15.105 50.688 14.31 50.952C9.01 51.744 0 53.592 0 58.08C0 63.36 13.25 66 26.5 66C39.75 66 53 63.36 53 58.08C53 53.592 43.99 51.744 38.69 50.952Z" fill="#2781FF"/>
</svg>
