<svg width="88" height="96" viewBox="0 0 88 96" fill="none" xmlns="http://www.w3.org/2000/svg">
<g clip-path="url(#clip0)">
<path opacity="0.2" d="M71.0377 4.17383V33.3912C71.0377 51.0886 49.3509 79.3043 31.3413 79.3043C25.5229 78.9381 19.961 76.78 15.4209 73.1269C23.3184 83.4782 34.0991 91.826 43.877 91.826C61.8866 91.826 83.5734 63.6103 83.5734 45.913V4.17383H71.0377Z" fill="#2781FF"/>
<path d="M0 0V45.913C0 65.1965 22.7314 96 43.875 96C65.0186 96 87.75 65.1965 87.75 45.913V0H0ZM83.5714 45.913C83.5714 63.6104 61.8846 91.8261 43.875 91.8261C25.8654 91.8261 4.17857 63.6104 4.17857 45.913V4.17391H83.5714V45.913Z" fill="#2781FF"/>
<path d="M43.8754 83.4782C44.4295 83.4782 44.961 83.2584 45.3528 82.867C45.7446 82.4756 45.9647 81.9448 45.9647 81.3913C45.9647 80.8378 45.7446 80.307 45.3528 79.9156C44.961 79.5242 44.4295 79.3043 43.8754 79.3043C31.5486 79.3043 16.7147 60.0626 16.7147 48V16.6956H35.5183C36.0724 16.6956 36.6038 16.4758 36.9956 16.0844C37.3874 15.693 37.6076 15.1622 37.6076 14.6087C37.6076 14.0552 37.3874 13.5244 36.9956 13.133C36.6038 12.7416 36.0724 12.5217 35.5183 12.5217H14.6254C14.0713 12.5217 13.5399 12.7416 13.1481 13.133C12.7563 13.5244 12.5361 14.0552 12.5361 14.6087V48C12.5361 62.3165 29.2504 83.4782 43.8754 83.4782Z" fill="#2781FF"/>
</g>
<defs>
<clipPath id="clip0">
<rect width="87.75" height="96" fill="white"/>
</clipPath>
</defs>
</svg>
