<svg width="45" height="65" viewBox="0 0 45 65" fill="none" xmlns="http://www.w3.org/2000/svg">
<path d="M37.0602 28.6001V55.9001C37.0602 56.6801 36.5308 57.2001 35.7367 57.2001H2.64844V62.4001H42.3543V28.6001H37.0602Z" fill="#CDECF9"/>
<path d="M22.498 36.3999C21.9686 36.3999 21.1745 36.3999 20.6451 36.6599C18.5274 37.1799 16.6745 38.7399 16.1451 40.8199C15.351 43.4199 16.1451 46.0199 18.2627 47.5799L16.1451 52.7799C15.8804 53.5599 16.4098 54.0799 16.9392 54.3399C17.2039 54.3399 17.2039 54.3399 17.4686 54.3399H28.0568C28.851 54.3399 29.3804 53.8199 29.3804 53.0399C29.3804 52.7799 29.3804 52.7799 29.3804 52.5199L27.2627 47.3199C29.9098 44.9799 30.4392 40.8199 28.0568 38.2199C26.2039 37.1799 24.351 36.3999 22.498 36.3999ZM25.9392 51.9999H19.0568L21.1745 47.0599L19.851 46.0199C18.5274 44.9799 18.2627 43.4199 18.5274 41.8599C18.7921 40.5599 19.851 39.7799 21.1745 39.2599C21.7039 38.9999 22.2333 38.9999 22.498 38.9999C24.6157 38.9999 26.4686 40.8199 26.4686 42.8999C26.4686 43.9399 25.9392 44.9799 25.1451 45.7599L23.8216 47.0599L25.9392 51.9999Z" fill="#2781FF"/>
<path d="M41.0294 26H10.5882V14.3C10.5882 7.8 15.8824 2.6 22.5 2.6C29.1176 2.6 34.4118 7.8 34.4118 14.3V16.9C34.4118 17.68 34.9412 18.2 35.7353 18.2C36.5294 18.2 37.0588 17.68 37.0588 16.9V14.3C37.0588 6.5 30.4412 0 22.5 0C14.5588 0 7.94118 6.5 7.94118 14.3V26H3.97059C1.85294 26 0 27.82 0 29.9V61.1C0 63.18 1.85294 65 3.97059 65H41.0294C43.1471 65 45 63.18 45 61.1V29.9C45 27.82 43.1471 26 41.0294 26ZM42.3529 61.1C42.3529 61.88 41.8235 62.4 41.0294 62.4H3.97059C3.17647 62.4 2.64706 61.88 2.64706 61.1V29.9C2.64706 29.12 3.17647 28.6 3.97059 28.6H41.0294C41.8235 28.6 42.3529 29.12 42.3529 29.9V61.1Z" fill="#2781FF"/>
</svg>
