<svg width="64" height="64" viewBox="0 0 64 64" fill="none" xmlns="http://www.w3.org/2000/svg">
<g clip-path="url(#clip0)">
<path d="M2.56006 38.3999H51.2001V48.6399H2.56006V38.3999Z" fill="#C1F1D0"/>
<path d="M58.8802 53.7599H10.2402V48.6399H51.2002C52.6141 48.6399 53.7602 47.4937 53.7602 46.0799V15.3599H58.8802V53.7599Z" fill="#C1F1D0"/>
<path d="M58.88 12.8001H53.76V7.68012C53.76 6.26627 52.6138 5.12012 51.2 5.12012H2.56C1.14615 5.12012 0 6.26627 0 7.68012V46.0801H0C-2.13485e-07 47.494 1.14615 48.6401 2.56 48.6401H7.68V53.7601C7.68 55.174 8.82615 56.3201 10.24 56.3201H58.88C60.2938 56.3201 61.44 55.174 61.44 53.7601V15.3601C61.44 13.9463 60.2938 12.8001 58.88 12.8001ZM2.56 46.0801V40.9601H44.8C45.5069 40.9601 46.08 40.387 46.08 39.6801C46.08 38.9732 45.5069 38.4001 44.8 38.4001H40.96V14.0801C40.96 13.3732 40.3869 12.8001 39.68 12.8001C38.9731 12.8001 38.4 13.3732 38.4 14.0801V38.4001H33.28V32.0001C33.28 31.2932 32.7069 30.7201 32 30.7201C31.2931 30.7201 30.72 31.2932 30.72 32.0001V38.4001H25.6V26.8801C25.6 26.1732 25.0269 25.6001 24.32 25.6001C23.6131 25.6001 23.04 26.1732 23.04 26.8801V38.4001H17.92V19.2001C17.92 18.4932 17.3469 17.9201 16.64 17.9201C15.9331 17.9201 15.36 18.4932 15.36 19.2001V38.4001H10.24V32.0001C10.24 31.2932 9.66692 30.7201 8.96 30.7201C8.25308 30.7201 7.68 31.2932 7.68 32.0001V38.4001H2.56V7.68012H51.2V46.0801H2.56ZM58.88 53.7601H10.24V48.6401H51.2C52.6138 48.6401 53.76 47.494 53.76 46.0801V15.3601H58.88V53.7601Z" fill="#04DE47"/>
</g>
<defs>
<clipPath id="clip0">
<rect width="64" height="64" fill="white"/>
</clipPath>
</defs>
</svg>
