<svg width="96" height="97" viewBox="0 0 96 97" fill="none" xmlns="http://www.w3.org/2000/svg">
<g clip-path="url(#clip0)">
<path d="M93.2051 8.82232L87.1857 2.9927C85.3004 1.16057 82.8024 0.0944296 80.1761 0.00107677C77.5499 -0.0922761 74.9826 0.793809 72.9721 2.48747L62.7585 11.3485L62.409 11.7371L52.5061 28.3321L46.0983 30.4308C45.835 30.5248 45.6003 30.685 45.4167 30.896C45.2331 31.107 45.1068 31.3617 45.0498 31.6356C44.9709 31.9028 44.9691 32.187 45.0447 32.4552C45.1203 32.7234 45.2701 32.9647 45.477 33.1513L62.875 50.5235C63.0217 50.6732 63.197 50.7917 63.3905 50.8719C63.5841 50.952 63.7918 50.9922 64.0013 50.9899H64.3896C64.661 50.938 64.913 50.8128 65.1183 50.6278C65.3237 50.4428 65.4746 50.2052 65.5547 49.9406L67.6906 43.528L84.5061 33.3845C84.6518 33.3029 84.783 33.1979 84.8945 33.0735L93.5158 23.0466C95.2258 21.0546 96.1399 18.5004 96.0826 15.8749C96.0252 13.2494 95.0005 10.7377 93.2051 8.82232ZM91.2246 20.9091L82.5644 30.7028L65.477 41.0407C65.1446 41.2454 64.8966 41.5625 64.778 41.9346L63.3022 46.3651L59.4187 42.4787L53.5935 36.649L49.71 32.7626L54.0983 31.0915C54.4701 30.9727 54.787 30.7245 54.9916 30.3919L65.0886 13.5249L75.1081 4.81932C76.4926 3.65371 78.2604 3.04413 80.0686 3.10876C81.8767 3.17338 83.5965 3.90761 84.8945 5.1691L90.6809 10.9599C91.985 12.2669 92.746 14.0197 92.8109 15.8657C92.8757 17.7116 92.2396 19.5136 91.0304 20.9091H91.2246Z" fill="#2781FF"/>
<path d="M88.3506 66.0691C86.0093 63.6593 83.0392 61.9556 79.7781 61.1517C76.517 60.3479 73.0959 60.4762 69.904 61.522L34.9526 26.5443C35.9338 23.3455 36.0063 19.9365 35.1619 16.6987C34.3176 13.461 32.5897 10.5222 30.1716 8.21116C27.7534 5.90013 24.7405 4.30799 21.4697 3.61287C18.199 2.91775 14.7995 3.14707 11.6516 4.27517C11.3974 4.37767 11.1724 4.54119 10.9963 4.7513C10.8202 4.96141 10.6985 5.21165 10.6419 5.47996C10.5828 5.7422 10.591 6.01514 10.6657 6.27335C10.7404 6.53157 10.8792 6.76668 11.0691 6.9568L21.3215 17.4113L14.37 24.3679L3.8846 13.9135C3.69462 13.7234 3.45969 13.5846 3.20166 13.5098C2.94364 13.4351 2.67091 13.4269 2.40887 13.486C2.13802 13.5358 1.88471 13.6551 1.6737 13.8322C1.4627 14.0094 1.3012 14.2382 1.20499 14.4964C-0.0525793 17.6845 -0.376234 21.1652 0.271941 24.5307C0.920117 27.8962 2.51328 31.0072 4.86477 33.4991C7.21625 35.991 10.2287 37.7607 13.5491 38.6008C16.8695 39.4408 20.3604 39.3165 23.6128 38.2424L36.6225 51.3008L20.3895 67.5071L10.0982 73.2979C9.79574 73.4365 9.559 73.6873 9.438 73.9974L4.7778 83.286C4.62649 83.5966 4.57512 83.9465 4.63076 84.2875C4.6864 84.6286 4.84631 84.944 5.08848 85.1903L10.8749 90.981C11.0287 91.1319 11.2108 91.2508 11.4108 91.3308C11.6108 91.4109 11.8246 91.4505 12.0399 91.4474C12.2825 91.5052 12.5352 91.5052 12.7778 91.4474L22.0594 86.7837C22.3613 86.6504 22.6081 86.4171 22.7584 86.123L28.506 75.7852L44.739 59.5788L58.4477 73.259C57.5636 75.9691 57.3342 78.8505 57.7782 81.6665C58.2223 84.4826 59.3272 87.1531 61.0024 89.4591C62.6775 91.7651 64.875 93.6407 67.4148 94.9321C69.9545 96.2236 72.764 96.894 75.6128 96.8884C77.8597 96.8971 80.0876 96.475 82.1759 95.6447C82.4382 95.5555 82.671 95.3961 82.849 95.1836C83.0271 94.9712 83.1435 94.714 83.1856 94.44C83.2411 94.1776 83.2311 93.9056 83.1566 93.648C83.0821 93.3905 82.9453 93.1552 82.7584 92.9631L72.3118 82.5087L79.2632 75.552L89.7098 86.0064C89.9077 86.1968 90.1495 86.3354 90.4137 86.4099C90.6778 86.4845 90.9563 86.4927 91.2244 86.4339C91.4882 86.378 91.7335 86.256 91.9373 86.0792C92.1411 85.9025 92.2967 85.6769 92.3895 85.4235C93.6779 82.1551 93.982 78.5808 93.2643 75.1414C92.5466 71.7021 90.8385 68.5483 88.3506 66.0691ZM26.2147 73.6477C26.1011 73.7444 26.0085 73.8634 25.9429 73.9974L20.1176 83.9466L12.3506 87.8331L8.23411 83.6746L12.1176 75.9018L22.2147 70.2665L22.5642 69.9556L38.8361 53.5938L42.3312 57.0915L26.2147 73.6477ZM90.0982 81.6148L80.4283 71.9765C80.2798 71.8225 80.1018 71.7001 79.905 71.6164C79.7081 71.5328 79.4965 71.4897 79.2827 71.4897C79.0688 71.4897 78.8572 71.5328 78.6603 71.6164C78.4635 71.7001 78.2855 71.8225 78.137 71.9765L68.8555 81.2262C68.697 81.368 68.5701 81.5417 68.4831 81.7359C68.3961 81.9301 68.351 82.1404 68.3506 82.3532C68.3526 82.5715 68.3983 82.7871 68.485 82.9874C68.5717 83.1876 68.6977 83.3684 68.8555 83.5191L78.4865 93.274C75.8905 93.7902 73.2036 93.5982 70.7072 92.7181C68.2108 91.838 65.9969 90.3022 64.2974 88.2716C62.5979 86.241 61.4754 83.7904 61.0475 81.1765C60.6196 78.5626 60.902 75.8816 61.8652 73.4145C61.9779 73.1197 62.0049 72.799 61.943 72.4895C61.8812 72.18 61.733 71.8943 61.5157 71.6656L25.205 35.211C24.8983 34.8957 24.4796 34.7141 24.0399 34.7058C23.7765 34.7392 23.5242 34.8322 23.3021 34.9778C20.8285 35.9259 18.1456 36.1903 15.5349 35.7432C12.9241 35.2961 10.4816 34.154 8.46386 32.4368C6.44608 30.7196 4.92732 28.4906 4.06693 25.9836C3.20654 23.4766 3.03625 20.7841 3.57392 18.1885L13.205 27.8268C13.3569 27.982 13.5381 28.1052 13.7382 28.1893C13.9382 28.2734 14.153 28.3168 14.37 28.3168C14.587 28.3168 14.8018 28.2734 15.0019 28.1893C15.202 28.1052 15.3832 27.982 15.5351 27.8268L24.7778 18.5772C24.9328 18.4252 25.0559 18.2438 25.14 18.0436C25.2241 17.8434 25.2674 17.6284 25.2674 17.4113C25.2674 17.1941 25.2241 16.9791 25.14 16.7789C25.0559 16.5787 24.9328 16.3973 24.7778 16.2453L15.1467 6.60702C17.7428 6.09083 20.4297 6.28285 22.9261 7.16295C25.4225 8.04306 27.6364 9.57887 29.3359 11.6095C31.0354 13.64 32.1579 16.0907 32.5858 18.7046C33.0137 21.3185 32.7313 23.9995 31.7681 26.4666C31.6502 26.7635 31.6242 27.089 31.6934 27.4008C31.7627 27.7127 31.924 27.9965 32.1564 28.2155L68.4671 64.5534C68.6888 64.7817 68.9724 64.9401 69.2829 65.0091C69.5934 65.0782 69.9173 65.0549 70.2147 64.9421C72.6854 63.9793 75.3691 63.6986 77.9853 64.1293C80.6015 64.56 83.054 65.6863 85.0863 67.3904C87.1186 69.0945 88.656 71.3138 89.5376 73.8161C90.4193 76.3185 90.6129 79.0119 90.0982 81.6148Z" fill="#2781FF"/>
<path opacity="0.2" d="M41.4379 55.2258L22.1369 74.5413L18.1369 82.0421L9.16602 86.4726L12.5447 89.4263L21.3214 85.3067L27.4184 74.347L44.933 57.9852L41.4379 55.2258Z" fill="#2781FF"/>
<path opacity="0.2" d="M60.9336 45.8599L62.953 39.0976L80.3511 28.6431C80.3511 28.6431 95.885 14.1856 88.4676 7.11238C81.0501 0.039104 94.5647 15.1573 94.5647 15.1573L92.4676 22.4248L83.8462 31.9077L66.2151 42.3621L63.6909 48.697L60.9336 45.8599Z" fill="#2781FF"/>
<path opacity="0.2" d="M70.3703 92.8468C69.4837 92.8353 68.5999 92.7443 67.7295 92.5748C70.0818 93.972 72.7612 94.7228 75.4965 94.7512C77.3245 94.7287 79.136 94.4003 80.8557 93.7796L77.9042 90.8259C75.6011 92.1188 73.0109 92.8136 70.3703 92.8468Z" fill="#2781FF"/>
<path opacity="0.2" d="M78.2539 63.1543C80.6907 64.5302 82.7189 66.5289 84.1313 68.946C85.5436 71.3631 86.2895 74.1122 86.2927 76.9122C86.283 78.0883 86.1529 79.2604 85.9044 80.41L90.3316 84.8405C91.1293 82.9326 91.5386 80.8847 91.5355 78.8165C91.5311 75.0554 90.1942 71.4177 87.7624 68.55C85.3306 65.6823 81.9615 63.7704 78.2539 63.1543Z" fill="#2781FF"/>
</g>
<defs>
<clipPath id="clip0">
<rect width="96" height="96.7328" fill="white"/>
</clipPath>
</defs>
</svg>
