<svg width="62" height="64" viewBox="0 0 62 64" fill="none" xmlns="http://www.w3.org/2000/svg">
<path opacity="0.2" d="M17.9196 52.48C17.9196 53.248 17.4076 53.76 16.6396 53.76H8.95957C8.19157 53.76 7.67957 53.248 7.67957 52.48V40.96C7.67957 39.424 6.65557 38.4 5.11957 38.4H3.83957C3.07157 38.4 2.55957 37.888 2.55957 37.12V30.72C2.55957 25.088 7.16757 20.48 12.7996 20.48C16.1276 20.48 19.1996 22.016 21.2476 24.832C19.1996 27.136 17.9196 30.208 17.9196 33.28V52.48Z" fill="#06A0E3"/>
<path opacity="0.2" d="M58.8804 37.12C58.8804 37.888 58.3684 38.4 57.6004 38.4H56.3204C54.7844 38.4 53.7604 39.424 53.7604 40.96V52.48C53.7604 53.248 53.2484 53.76 52.4804 53.76H44.8004C44.0324 53.76 43.5204 53.248 43.5204 52.48V33.28C43.5204 30.208 42.2404 27.136 40.1924 24.832C43.5204 20.224 49.9204 19.2 54.5284 22.272C57.3444 24.064 58.8804 27.392 58.8804 30.72V37.12V37.12Z" fill="#06A0E3"/>
<path d="M30.72 17.9201C35.072 17.9201 38.4 14.5921 38.4 10.2401C38.4 5.88806 35.072 2.56006 30.72 2.56006C26.368 2.56006 23.04 5.88806 23.04 10.2401C23.04 14.5921 26.368 17.9201 30.72 17.9201ZM30.72 5.12006C33.536 5.12006 35.84 7.42406 35.84 10.2401C35.84 13.0561 33.536 15.3601 30.72 15.3601C27.904 15.3601 25.6 13.0561 25.6 10.2401C25.6 7.42406 27.904 5.12006 30.72 5.12006Z" fill="#06A0E3"/>
<path d="M48.64 15.36C52.992 15.36 56.32 12.032 56.32 7.68C56.32 3.328 52.992 0 48.64 0C44.288 0 40.96 3.328 40.96 7.68C40.96 12.032 44.288 15.36 48.64 15.36ZM48.64 2.56C51.456 2.56 53.76 4.864 53.76 7.68C53.76 10.496 51.456 12.8 48.64 12.8C45.824 12.8 43.52 10.496 43.52 7.68C43.52 4.864 45.824 2.56 48.64 2.56Z" fill="#06A0E3"/>
<path d="M12.8001 15.36C17.1521 15.36 20.4801 12.032 20.4801 7.68C20.4801 3.328 17.1521 0 12.8001 0C8.44812 0 5.12012 3.328 5.12012 7.68C5.12012 12.032 8.44812 15.36 12.8001 15.36ZM12.8001 2.56C15.6161 2.56 17.9201 4.864 17.9201 7.68C17.9201 10.496 15.6161 12.8 12.8001 12.8C9.98412 12.8 7.68012 10.496 7.68012 7.68C7.68012 4.864 9.98412 2.56 12.8001 2.56Z" fill="#06A0E3"/>
<path d="M48.64 17.92C44.544 17.92 40.704 19.968 38.4 23.04C33.792 19.456 27.648 19.456 23.04 23.04C18.944 17.408 10.752 16.128 5.12 20.48C1.792 22.784 0 26.624 0 30.72V37.12C0 39.168 1.792 40.96 3.84 40.96H5.12V52.48C5.12 54.528 6.912 56.32 8.96 56.32H16.64C18.688 56.32 20.48 54.528 20.48 52.48V45.824C20.992 46.08 21.248 46.08 21.76 46.08H23.04V60.16C23.04 62.208 24.832 64 26.88 64H34.56C36.608 64 38.4 62.208 38.4 60.16V46.08H39.68C40.192 46.08 40.448 46.08 40.96 45.824V52.48C40.96 54.528 42.752 56.32 44.8 56.32H52.48C54.528 56.32 56.32 54.528 56.32 52.48V40.96H57.6C59.648 40.96 61.44 39.168 61.44 37.12V30.72C61.44 23.552 55.808 17.92 48.64 17.92ZM17.92 52.48C17.92 53.248 17.408 53.76 16.64 53.76H8.96C8.192 53.76 7.68 53.248 7.68 52.48V40.96C7.68 39.424 6.656 38.4 5.12 38.4H3.84C3.072 38.4 2.56 37.888 2.56 37.12V30.72C2.56 25.088 7.168 20.48 12.8 20.48C16.128 20.48 19.2 22.016 21.248 24.832C19.2 27.136 17.92 30.208 17.92 33.28V52.48ZM39.68 43.52H38.4C36.864 43.52 35.84 44.544 35.84 46.08V60.16C35.84 60.928 35.328 61.44 34.56 61.44H26.88C26.112 61.44 25.6 60.928 25.6 60.16V46.08C25.6 44.544 24.576 43.52 23.04 43.52H21.76C20.992 43.52 20.48 43.008 20.48 42.24V33.28C20.48 27.648 25.088 23.04 30.72 23.04C36.352 23.04 40.96 27.648 40.96 33.28V42.24C40.96 43.008 40.448 43.52 39.68 43.52ZM58.88 37.12C58.88 37.888 58.368 38.4 57.6 38.4H56.32C54.784 38.4 53.76 39.424 53.76 40.96V52.48C53.76 53.248 53.248 53.76 52.48 53.76H44.8C44.032 53.76 43.52 53.248 43.52 52.48V33.28C43.52 30.208 42.24 27.136 40.192 24.832C43.52 20.224 49.92 19.2 54.528 22.272C57.344 24.064 58.88 27.392 58.88 30.72V37.12V37.12Z" fill="#06A0E3"/>
</svg>
