<svg viewBox="0 0 25 25" xmlns="http://www.w3.org/2000/svg"><g fill="#eee"><path d="m1.5 15.002a.5006.5006 0 0 1 -.5-.5v-6.5a4 4 0 0 1 8 0v7z"/><path d="m13 16.002h2v7h-2z"/><path d="m10 13h12v2h-12z"/></g><path d="m20 3.002h-4v1h4a2.0023 2.0023 0 0 1 2 2v8.5a.5006.5006 0 0 1 -.5.5h-11.5v-7a4.9776 4.9776 0 0 0 -2.0273-4h6.0273v3.5a.5.5 0 0 0 1 0v-6a.5007.5007 0 0 1 .5-.5h2a.5.5 0 0 0 0-1h-2a1.5016 1.5016 0 0 0 -1.5 1.5v1.5h-9a5 5 0 0 0 -5 5v6.5a1.5 1.5 0 0 0 1.5 1.5h10.5v7h-.5a.5.5 0 1 0 0 1h5a.5.5 0 0 0 0-1h-.5v-7h5.5a1.5 1.5 0 0 0 1.5-1.5v-8.5a3 3 0 0 0 -3-3zm-18.5 12a.5006.5006 0 0 1 -.5-.5v-6.5a4 4 0 0 1 8 0v7zm13.5 8h-2v-7h2z" fill="#334146"/><path d="m7.5 12.002h-5a.5.5 0 0 0 0 1h5a.5.5 0 0 0 0-1z" fill="#334146"/></svg>
