<svg width="66" height="75" viewBox="0 0 66 75" fill="none" xmlns="http://www.w3.org/2000/svg">
<path opacity="0.2" d="M42 3H36V15H42V3Z" fill="#2781FF"/>
<path opacity="0.2" d="M37.5 47.82C36.9945 47.8187 36.4908 47.8791 36 48V72H42V47.82H37.5Z" fill="#2781FF"/>
<path opacity="0.2" d="M63 18H57V45H63V18Z" fill="#2781FF"/>
<path d="M19.5 63C19.1022 63 18.7206 63.158 18.4393 63.4393C18.158 63.7206 18 64.1022 18 64.5C18 64.8978 18.158 65.2794 18.4393 65.5607C18.7206 65.842 19.1022 66 19.5 66H25.5C25.8978 66 26.2794 65.842 26.5607 65.5607C26.842 65.2794 27 64.8978 27 64.5C27 64.1022 26.842 63.7206 26.5607 63.4393C26.2794 63.158 25.8978 63 25.5 63H19.5Z" fill="#2781FF"/>
<path d="M61.5 15H45V4.5C45 3.30653 44.5259 2.16193 43.682 1.31802C42.8381 0.474106 41.6935 0 40.5 0L4.5 0C3.30653 0 2.16193 0.474106 1.31802 1.31802C0.474106 2.16193 0 3.30653 0 4.5L0 70.5C0 71.6935 0.474106 72.8381 1.31802 73.682C2.16193 74.5259 3.30653 75 4.5 75H40.5C41.6935 75 42.8381 74.5259 43.682 73.682C44.5259 72.8381 45 71.6935 45 70.5V48H61.5C62.6935 48 63.8381 47.5259 64.682 46.682C65.5259 45.8381 66 44.6935 66 43.5V19.5C66 18.3065 65.5259 17.1619 64.682 16.318C63.8381 15.4741 62.6935 15 61.5 15ZM42 70.5C42 70.8978 41.842 71.2794 41.5607 71.5607C41.2794 71.842 40.8978 72 40.5 72H4.5C4.10218 72 3.72064 71.842 3.43934 71.5607C3.15804 71.2794 3 70.8978 3 70.5V4.5C3 4.10218 3.15804 3.72064 3.43934 3.43934C3.72064 3.15804 4.10218 3 4.5 3H40.5C40.8978 3 41.2794 3.15804 41.5607 3.43934C41.842 3.72064 42 4.10218 42 4.5V15H25.5C24.3065 15 23.1619 15.4741 22.318 16.318C21.4741 17.1619 21 18.3065 21 19.5V43.5C21 44.6935 21.4741 45.8381 22.318 46.682C23.1619 47.5259 24.3065 48 25.5 48H42V70.5ZM61.5 45H25.5C25.1022 45 24.7206 44.842 24.4393 44.5607C24.158 44.2794 24 43.8978 24 43.5V19.5C24 19.1022 24.158 18.7206 24.4393 18.4393C24.7206 18.158 25.1022 18 25.5 18H61.5C61.8978 18 62.2794 18.158 62.5607 18.4393C62.842 18.7206 63 19.1022 63 19.5V24H31.5C31.1022 24 30.7206 24.158 30.4393 24.4393C30.158 24.7206 30 25.1022 30 25.5C30 25.8978 30.158 26.2794 30.4393 26.5607C30.7206 26.842 31.1022 27 31.5 27H63V43.5C63 43.8978 62.842 44.2794 62.5607 44.5607C62.2794 44.842 61.8978 45 61.5 45Z" fill="#2781FF"/>
<path d="M55.5 36H49.5C49.1022 36 48.7206 36.158 48.4393 36.4393C48.158 36.7206 48 37.1022 48 37.5C48 37.8978 48.158 38.2794 48.4393 38.5607C48.7206 38.842 49.1022 39 49.5 39H55.5C55.8978 39 56.2794 38.842 56.5607 38.5607C56.842 38.2794 57 37.8978 57 37.5C57 37.1022 56.842 36.7206 56.5607 36.4393C56.2794 36.158 55.8978 36 55.5 36Z" fill="#2781FF"/>
</svg>
