<svg width="88" height="59" viewBox="0 0 88 59" fill="none" xmlns="http://www.w3.org/2000/svg">
<path d="M79.7808 15.7523C79.7808 13.4874 79.9074 11.6514 80.0636 11.6514H85.7201C85.8762 11.6514 86.0029 13.4874 86.0029 15.7523V52.6607C86.0029 54.9256 85.8762 56.7617 85.7201 56.7617H80.0636C79.9074 56.7617 79.7808 54.9256 79.7808 52.6607V15.7523Z" fill="#CDECF9"/>
<path d="M50.2261 47.428L50.2261 39.6504" stroke="#2781FF" stroke-width="3" stroke-linecap="round"/>
<path d="M57.9995 47.4281L57.9995 28.7617" stroke="#2781FF" stroke-width="3" stroke-linecap="round"/>
<path d="M65.7769 47.4286L65.7769 34.9844" stroke="#2781FF" stroke-width="3" stroke-linecap="round"/>
<path d="M73.5542 47.4285L73.5542 22.54" stroke="#2781FF" stroke-width="3" stroke-linecap="round"/>
<path d="M25.3354 45.095C25.3354 43.8064 26.3801 42.7617 27.6687 42.7617V42.7617C28.9574 42.7617 30.002 43.8064 30.002 45.095V45.095C30.002 46.3837 28.9574 47.4283 27.6687 47.4283V47.4283C26.3801 47.4283 25.3354 46.3837 25.3354 45.095V45.095Z" fill="#2781FF"/>
<path d="M17.5553 47.4283C17.5553 48.3513 17.2816 49.2535 16.7689 50.0209C16.2561 50.7883 15.5273 51.3865 14.6746 51.7397C13.8219 52.0929 12.8836 52.1853 11.9783 52.0052C11.0731 51.8252 10.2416 51.3807 9.58898 50.7281C8.93635 50.0754 8.4919 49.2439 8.31184 48.3387C8.13178 47.4335 8.22419 46.4952 8.57739 45.6425C8.9306 44.7898 9.52872 44.061 10.2961 43.5482C11.0636 43.0354 11.9658 42.7617 12.8888 42.7617V47.4283H17.5553Z" fill="#CDECF9"/>
<path d="M8.22217 8.54053H23.7775" stroke="#2781FF" stroke-width="3" stroke-linecap="round"/>
<path d="M2 28.3179V4.31836C2 3.21379 2.89543 2.31836 4 2.31836H34.2216C35.3262 2.31836 36.2216 3.21379 36.2216 4.31836V28.3179C36.2216 29.4224 35.3262 30.3179 34.2216 30.3179H4C2.89543 30.3179 2 29.4224 2 28.3179Z" stroke="#2781FF" stroke-width="3" stroke-linecap="round" stroke-linejoin="round"/>
<path d="M2 54.762V40.0957C2 38.9911 2.89543 38.0957 4 38.0957H34.2216C35.3262 38.0957 36.2216 38.9911 36.2216 40.0957V54.762C36.2216 55.8666 35.3262 56.762 34.2216 56.762H4C2.89543 56.762 2 55.8666 2 54.762Z" stroke="#2781FF" stroke-width="3" stroke-linecap="round" stroke-linejoin="round"/>
<path d="M6.66504 25.6513V13.207H31.5535V25.6513H6.66504Z" fill="#CDECF9"/>
<path d="M44.0039 55.2617C43.1755 55.2617 42.5039 55.9333 42.5039 56.7617C42.5039 57.5901 43.1755 58.2617 44.0039 58.2617V55.2617ZM44.0039 10.1514C43.1755 10.1514 42.5039 10.8229 42.5039 11.6514C42.5039 12.4798 43.1755 13.1514 44.0039 13.1514V10.1514ZM44.0039 58.2617H84.0032V55.2617H44.0039V58.2617ZM87.5032 54.7617V13.6514H84.5032V54.7617H87.5032ZM84.0032 10.1514H44.0039V13.1514H84.0032V10.1514ZM87.5032 13.6514C87.5032 11.7184 85.9362 10.1514 84.0032 10.1514V13.1514C84.2793 13.1514 84.5032 13.3752 84.5032 13.6514H87.5032ZM84.0032 58.2617C85.9362 58.2617 87.5032 56.6947 87.5032 54.7617H84.5032C84.5032 55.0378 84.2793 55.2617 84.0032 55.2617V58.2617Z" fill="#2781FF"/>
</svg>
