<svg width="64" height="64" viewBox="0 0 64 64" fill="none" xmlns="http://www.w3.org/2000/svg">
<g clip-path="url(#clip0)">
<path d="M49.9202 25.6001H43.5202V52.4801C43.5194 53.1867 42.9468 53.7592 42.2402 53.7601H10.2402V60.1601C10.2411 60.8667 10.8137 61.4392 11.5202 61.4401H49.9202C50.6268 61.4392 51.1994 60.8667 51.2002 60.1601V26.8801V26.8801C51.1994 26.1735 50.6268 25.6009 49.9202 25.6001H49.9202Z" fill="#C1F1D0"/>
<path d="M33.2802 43.52C33.2802 44.9338 32.134 46.08 30.7202 46.08C29.3063 46.08 28.1602 44.9338 28.1602 43.52C28.1602 42.1061 29.3063 40.96 30.7202 40.96C32.134 40.96 33.2802 42.1061 33.2802 43.52ZM17.9202 40.96C16.5063 40.96 15.3602 42.1061 15.3602 43.52C15.3602 44.9338 16.5063 46.08 17.9202 46.08C19.334 46.08 20.4802 44.9338 20.4802 43.52C20.4802 42.1061 19.334 40.96 17.9202 40.96ZM43.5202 40.96C42.1063 40.96 40.9602 42.1061 40.9602 43.52C40.9602 44.9338 42.1063 46.08 43.5202 46.08C44.934 46.08 46.0802 44.9338 46.0802 43.52C46.0802 42.1061 44.934 40.96 43.5202 40.96ZM53.7602 26.88V60.16C53.7602 62.2808 52.0409 64 49.9202 64H11.5202C9.3994 64 7.68018 62.2808 7.68018 60.16V26.88C7.68018 24.7592 9.3994 23.04 11.5202 23.04H15.3602V15.36V15.36C15.3602 6.8769 22.2371 0 30.7202 0C39.2033 -1.28091e-06 46.0802 6.8769 46.0802 15.36V23.04H49.9202C52.0409 23.04 53.7602 24.7592 53.7602 26.88V26.88ZM17.9202 23.04H43.5202V15.36C43.5202 8.29076 37.7894 2.56 30.7202 2.56C23.6509 2.56 17.9202 8.29076 17.9202 15.36V23.04ZM51.2002 26.88V26.88C51.1993 26.1734 50.6268 25.6008 49.9202 25.6H11.5202C10.8136 25.6008 10.241 26.1734 10.2402 26.88V60.16V60.16C10.241 60.8666 10.8136 61.4392 11.5202 61.44H49.9202C50.6267 61.4392 51.1993 60.8666 51.2002 60.16V26.88Z" fill="#04DE47"/>
</g>
<defs>
<clipPath id="clip0">
<rect width="64" height="64" fill="white"/>
</clipPath>
</defs>
</svg>
