<svg width="64" height="54" viewBox="0 0 64 54" fill="none" xmlns="http://www.w3.org/2000/svg">
<path opacity="0.2" d="M53.3337 34.6667H2.66699V45.3334H53.3337V34.6667Z" fill="#06A0E3"/>
<path opacity="0.2" d="M61.3337 50.6667H10.667V45.3334H53.3337C54.9337 45.3334 56.0003 44.2667 56.0003 42.6667V10.6667H61.3337V50.6667Z" fill="#06A0E3"/>
<path d="M61.3333 8H56V2.66667C56 1.06667 54.9333 0 53.3333 0H2.66667C1.06667 0 0 1.06667 0 2.66667V42.6667C0 44.2667 1.06667 45.3333 2.66667 45.3333H8V50.6667C8 52.2667 9.06667 53.3333 10.6667 53.3333H61.3333C62.9333 53.3333 64 52.2667 64 50.6667V10.6667C64 9.06667 62.9333 8 61.3333 8ZM2.66667 42.6667V37.3333H46.6667C47.4667 37.3333 48 36.8 48 36C48 35.2 47.4667 34.6667 46.6667 34.6667H42.6667V9.33333C42.6667 8.53333 42.1333 8 41.3333 8C40.5333 8 40 8.53333 40 9.33333V34.6667H34.6667V28C34.6667 27.2 34.1333 26.6667 33.3333 26.6667C32.5333 26.6667 32 27.2 32 28V34.6667H26.6667V22.6667C26.6667 21.8667 26.1333 21.3333 25.3333 21.3333C24.5333 21.3333 24 21.8667 24 22.6667V34.6667H18.6667V14.6667C18.6667 13.8667 18.1333 13.3333 17.3333 13.3333C16.5333 13.3333 16 13.8667 16 14.6667V34.6667H10.6667V28C10.6667 27.2 10.1333 26.6667 9.33333 26.6667C8.53333 26.6667 8 27.2 8 28V34.6667H2.66667V2.66667H53.3333V42.6667H2.66667ZM61.3333 50.6667H10.6667V45.3333H53.3333C54.9333 45.3333 56 44.2667 56 42.6667V10.6667H61.3333V50.6667Z" fill="#06A0E3"/>
</svg>
