<svg width="96" height="85" viewBox="0 0 96 85" fill="none" xmlns="http://www.w3.org/2000/svg">
<g clip-path="url(#clip0)">
<path opacity="0.2" d="M90.2398 53.8789H84.4798V71.1971C84.4798 71.7074 84.2776 72.1969 83.9175 72.5577C83.5574 72.9186 83.0691 73.1213 82.5598 73.1213H3.83984V78.8941C3.83984 79.4044 4.04213 79.8938 4.4022 80.2547C4.76227 80.6156 5.25063 80.8183 5.75984 80.8183H90.2398C90.7491 80.8183 91.2374 80.6156 91.5975 80.2547C91.9576 79.8938 92.1598 79.4044 92.1598 78.8941V55.8031C92.1598 55.2928 91.9576 54.8034 91.5975 54.4425C91.2374 54.0816 90.7491 53.8789 90.2398 53.8789Z" fill="#2781FF"/>
<path d="M24.9595 61.5759H13.4395C12.9303 61.5759 12.442 61.7787 12.0819 62.1395C11.7218 62.5004 11.5195 62.9898 11.5195 63.5002V71.1971C11.5195 71.7075 11.7218 72.1969 12.0819 72.5578C12.442 72.9186 12.9303 73.1214 13.4395 73.1214H24.9595C25.4687 73.1214 25.9571 72.9186 26.3172 72.5578C26.6772 72.1969 26.8795 71.7075 26.8795 71.1971V63.5002C26.8795 62.9898 26.6772 62.5004 26.3172 62.1395C25.9571 61.7787 25.4687 61.5759 24.9595 61.5759ZM23.0395 69.2729H15.3595V65.4244H23.0395V69.2729Z" fill="#2781FF"/>
<path d="M90.24 50.0303H5.76C4.23235 50.0303 2.76727 50.6385 1.68706 51.7211C0.606855 52.8037 0 54.272 0 55.803L0 78.8939C0 80.4249 0.606855 81.8932 1.68706 82.9758C2.76727 84.0584 4.23235 84.6666 5.76 84.6666H90.24C91.7676 84.6666 93.2327 84.0584 94.3129 82.9758C95.3931 81.8932 96 80.4249 96 78.8939V55.803C96 54.272 95.3931 52.8037 94.3129 51.7211C93.2327 50.6385 91.7676 50.0303 90.24 50.0303ZM92.16 78.8939C92.16 79.4043 91.9577 79.8937 91.5976 80.2546C91.2376 80.6154 90.7492 80.8182 90.24 80.8182H5.76C5.25078 80.8182 4.76242 80.6154 4.40235 80.2546C4.04228 79.8937 3.84 79.4043 3.84 78.8939V55.803C3.84 55.2927 4.04228 54.8032 4.40235 54.4424C4.76242 54.0815 5.25078 53.8788 5.76 53.8788H90.24C90.7492 53.8788 91.2376 54.0815 91.5976 54.4424C91.9577 54.8032 92.16 55.2927 92.16 55.803V78.8939Z" fill="#2781FF"/>
<path d="M78.7202 65.4243H44.1602C43.651 65.4243 43.1627 65.627 42.8026 65.9879C42.4425 66.3488 42.2402 66.8382 42.2402 67.3486C42.2402 67.8589 42.4425 68.3483 42.8026 68.7092C43.1627 69.0701 43.651 69.2728 44.1602 69.2728H78.7202C79.2294 69.2728 79.7178 69.0701 80.0779 68.7092C80.4379 68.3483 80.6402 67.8589 80.6402 67.3486C80.6402 66.8382 80.4379 66.3488 80.0779 65.9879C79.7178 65.627 79.2294 65.4243 78.7202 65.4243Z" fill="#2781FF"/>
<path d="M47.9989 30.7879C44.7305 30.7848 41.5067 31.549 38.586 33.0193C35.6653 34.4896 33.1288 36.625 31.1797 39.2545C30.8839 39.6662 30.7586 40.1768 30.8302 40.679C30.9018 41.1813 31.1647 41.6362 31.5637 41.9485C31.9711 42.2547 32.4831 42.3861 32.9872 42.314C33.4913 42.2418 33.9462 41.9719 34.2517 41.5636C35.5896 39.7556 37.27 38.2296 39.1968 37.073C41.1236 35.9163 43.259 35.1517 45.4809 34.8229C47.7028 34.494 49.9676 34.6074 52.1458 35.1565C54.3239 35.7056 56.3727 36.6797 58.1749 38.023C59.5397 39.0124 60.7442 40.2066 61.7461 41.5636C62.0516 41.9719 62.5065 42.2418 63.0106 42.314C63.5147 42.3861 64.0267 42.2547 64.4341 41.9485C64.8331 41.6362 65.096 41.1813 65.1676 40.679C65.2392 40.1768 65.1139 39.6662 64.8181 39.2545C62.869 36.625 60.3325 34.4896 57.4118 33.0193C54.4911 31.549 51.2674 30.7848 47.9989 30.7879Z" fill="#2781FF"/>
<path d="M72.2681 30.1337C72.6108 30.4913 73.078 30.7025 73.5723 30.7233C74.0666 30.7441 74.5498 30.5729 74.9212 30.2453C75.2926 29.9178 75.5235 29.4592 75.5658 28.9652C75.6081 28.4712 75.4584 27.9799 75.1481 27.5937C71.9739 24.0163 68.1269 21.1015 63.8272 19.016C59.5276 16.9305 54.8598 15.7154 50.091 15.4401C45.3221 15.1649 40.546 15.8349 36.0359 17.4119C31.5258 18.9889 27.3703 21.4419 23.8073 24.6304C22.7649 25.5596 21.7776 26.5491 20.8505 27.5937C20.5402 27.9799 20.3905 28.4712 20.4328 28.9652C20.4751 29.4592 20.706 29.9178 21.0774 30.2453C21.4488 30.5729 21.932 30.7441 22.4263 30.7233C22.9206 30.7025 23.3878 30.4913 23.7305 30.1337C26.5765 26.9167 30.0294 24.2957 33.8904 22.4217C37.7513 20.5477 41.944 19.4577 46.2271 19.2144C50.5101 18.9712 54.7989 19.5795 58.8464 21.0044C62.8939 22.4293 66.6201 24.6426 69.8105 27.5168C70.7376 28.3304 71.6099 29.2046 72.4217 30.1337H72.2681Z" fill="#2781FF"/>
<path d="M13.4034 18.6654C22.1826 9.46964 34.247 4.14549 46.9429 3.86402C59.6387 3.58255 71.9262 8.36681 81.1026 17.1645L82.6002 18.6654C82.7754 18.8446 82.9845 18.9869 83.2153 19.0841C83.4461 19.1813 83.6939 19.2314 83.9442 19.2314C84.1945 19.2314 84.4423 19.1813 84.6731 19.0841C84.9039 18.9869 85.113 18.8446 85.2882 18.6654C85.4681 18.4865 85.611 18.2737 85.7085 18.0392C85.8059 17.8047 85.8561 17.5532 85.8561 17.2992C85.8561 17.0451 85.8059 16.7936 85.7085 16.5591C85.611 16.3247 85.4681 16.1118 85.2882 15.9329C75.8054 6.0568 62.8059 0.34635 49.1332 0.0506541C35.4604 -0.245042 22.2272 4.89809 12.3282 14.3551L10.7154 15.9329C10.5354 16.1118 10.3926 16.3247 10.2951 16.5591C10.1976 16.7936 10.1475 17.0451 10.1475 17.2992C10.1475 17.5532 10.1976 17.8047 10.2951 18.0392C10.3926 18.2737 10.5354 18.4865 10.7154 18.6654C10.8906 18.8446 11.0997 18.9869 11.3305 19.0841C11.5613 19.1813 11.8091 19.2314 12.0594 19.2314C12.3097 19.2314 12.5575 19.1813 12.7883 19.0841C13.0191 18.9869 13.2282 18.8446 13.4034 18.6654Z" fill="#2781FF"/>
</g>
<defs>
<clipPath id="clip0">
<rect width="96" height="84.6667" fill="white"/>
</clipPath>
</defs>
</svg>
