<svg width="54" height="52" viewBox="0 0 54 52" fill="none" xmlns="http://www.w3.org/2000/svg">
<path d="M47.5181 6.5V17.3333H2.15812V19.5H47.5181V44.2H1.07812V49.8333H51.8381V19.5V17.3333V6.5H47.5181Z" fill="#CDECF9"/>
<path d="M51.84 4.33333H41.04V1.08333C41.04 0.433333 40.608 0 39.96 0C39.312 0 38.88 0.433333 38.88 1.08333V4.33333H15.12V1.08333C15.12 0.433333 14.688 0 14.04 0C13.392 0 12.96 0.433333 12.96 1.08333V4.33333H2.16C0.864 4.33333 0 5.2 0 6.5V49.8333C0 51.1333 0.864 52 2.16 52H51.84C53.136 52 54 51.1333 54 49.8333V6.5C54 5.2 53.136 4.33333 51.84 4.33333ZM51.84 49.8333H2.16V17.3333H51.84V49.8333ZM51.84 15.1667H2.16V6.5H51.84V15.1667Z" fill="#2781FF"/>
<path d="M27.0011 45.5003C33.4811 45.5003 38.8811 40.0837 38.8811 33.5837C38.8811 27.0837 33.4811 21.667 27.0011 21.667C20.5211 21.667 15.1211 27.0837 15.1211 33.5837C15.1211 40.0837 20.5211 45.5003 27.0011 45.5003ZM27.0011 23.8337C32.4011 23.8337 36.7211 28.167 36.7211 33.5837C36.7211 39.0003 32.4011 43.3337 27.0011 43.3337C21.6011 43.3337 17.2811 39.0003 17.2811 33.5837C17.2811 28.167 21.6011 23.8337 27.0011 23.8337Z" fill="#2781FF"/>
<path d="M30.6739 38.7838C31.1059 39.2171 31.7539 39.0005 32.1859 38.5671C32.6179 38.1338 32.4019 37.4838 31.9699 37.0505L28.0819 34.2338V29.4671C28.0819 28.8171 27.6499 28.3838 27.0019 28.3838C26.3539 28.3838 25.9219 28.6005 25.9219 29.2505V34.6671C25.9219 35.1005 26.1379 35.3171 26.3539 35.5338L30.6739 38.7838Z" fill="#2781FF"/>
</svg>
