<svg width="96" height="96" viewBox="0 0 96 96" fill="none" xmlns="http://www.w3.org/2000/svg">
<path opacity="0.2" d="M42.432 52.5715C41.736 52.5715 41.272 52.8001 41.04 53.4858C41.04 54.1715 41.272 54.6287 41.968 54.8572L48.928 56.2287C49.16 56.0001 49.16 55.543 49.16 55.3144C49.16 54.4001 50.784 53.4858 49.856 53.0287C49.392 53.2572 48.928 53.2572 48.464 53.2572L42.432 52.5715Z" fill="#2781FF"/>
<path opacity="0.2" d="M72.5923 48.6858L54.9603 64.2287C54.0323 65.1429 52.6403 65.3715 51.4803 64.9144L32.2243 58.2858C31.9923 58.2858 31.5283 58.2858 31.2963 58.2858L28.2803 59.8858V64.4572L31.2963 63.0858C31.5283 62.8572 31.7603 62.8572 32.2243 62.8572L51.7123 69.4858C52.8723 69.9429 54.2643 69.4858 55.1923 68.8001L74.2163 51.8858C74.6803 51.4286 74.9123 50.9715 74.6803 50.5144C74.6803 49.3715 73.7523 48.6858 72.5923 48.6858Z" fill="#2781FF"/>
<path d="M59.6003 40H54.9603C54.2643 40 53.8003 40.4571 53.8003 41.1429C53.8003 41.8286 54.2643 42.2857 54.9603 42.2857H58.4403V43.4286C58.4403 44.1143 58.9043 44.5714 59.6003 44.5714C60.2963 44.5714 60.7603 44.1143 60.7603 43.4286V42.2857H63.0803C64.4723 42.2857 65.4003 41.3714 65.4003 40V35.4286C65.4003 34.0571 64.4723 33.1429 63.0803 33.1429H56.1203V28.5714H64.2403C64.9363 28.5714 65.4003 28.1143 65.4003 27.4286C65.4003 26.7429 64.9363 26.2857 64.2403 26.2857H60.7603V25.1429C60.7603 24.4571 60.2963 24 59.6003 24C58.9043 24 58.4403 24.4571 58.4403 25.1429V26.2857H56.1203C54.7283 26.2857 53.8003 27.2 53.8003 28.5714V33.1429C53.8003 34.5143 54.7283 35.4286 56.1203 35.4286H63.0803V40H59.6003Z" fill="#2781FF"/>
<path d="M75.376 47.3144C73.984 46.1715 72.128 46.1715 70.504 47.0858L53.568 57.143L49.856 56.4572C51.712 54.6287 51.944 51.6572 50.088 49.6001C49.624 49.143 48.928 48.6858 48 48.4572L36.864 44.5715C36.632 44.5715 36.4 44.5715 36.168 44.5715L28.28 46.6287C28.048 45.4858 27.12 44.5715 25.96 44.5715H20.16C19.464 44.5715 19 45.0287 19 45.7144C19 46.4001 19.464 46.8572 20.16 46.8572H25.96V67.4287H20.16C19.464 67.4287 19 67.8858 19 68.5715C19 69.2572 19.464 69.7144 20.16 69.7144H25.96C27.352 69.7144 28.28 68.8001 28.28 67.4287V66.9715L31.76 65.143L50.784 71.543C52.872 72.2287 54.96 71.7715 56.584 70.1715L75.608 53.2572C77.232 51.6572 77.464 49.143 75.84 47.3144C75.608 47.543 75.608 47.3144 75.376 47.3144ZM74.216 51.8858L55.192 68.8001C54.264 69.7144 52.872 69.943 51.712 69.4858L32.224 62.8572C31.992 62.8572 31.528 62.8572 31.296 62.8572L28.28 64.4572V48.9144L36.4 46.8572L47.536 50.5144C48.928 50.9715 49.624 52.343 49.16 53.7144C48.696 54.8572 47.536 55.543 46.376 55.3144L42.432 54.8572C41.736 54.8572 41.272 55.0858 41.04 55.7715C41.04 56.4572 41.272 56.9144 41.968 57.143L53.568 59.4287C53.8 59.4287 54.032 59.4287 54.496 59.2001L71.896 48.9144C72.824 48.2287 73.984 48.6858 74.448 49.3715C74.68 49.6001 74.68 50.0572 74.68 50.2858C74.68 50.9715 74.448 51.4287 74.216 51.8858Z" fill="#2781FF"/>
</svg>
