<svg width="64" height="64" viewBox="0 0 64 64" fill="none" xmlns="http://www.w3.org/2000/svg">
<path opacity="0.2" d="M52.8703 33.3914H44.5225V44.5218H52.8703V33.3914Z" fill="#2781FF"/>
<path opacity="0.2" d="M52.8703 11.1304H44.5225V22.2608H52.8703V11.1304Z" fill="#2781FF"/>
<path d="M59.8261 0H4.17391C3.06692 0 2.00527 0.43975 1.22251 1.22251C0.43975 2.00527 0 3.06692 0 4.17391L0 61.2174C0 61.9554 0.293167 62.6632 0.815007 63.185C1.33685 63.7068 2.04461 64 2.78261 64H5.34261C6.20946 64.0075 7.05684 63.7431 7.76561 63.2439C8.47438 62.7448 9.00886 62.0361 9.29391 61.2174L11.1304 55.6522H52.8696L54.7061 61.2174C54.9911 62.0361 55.5256 62.7448 56.2344 63.2439C56.9432 63.7431 57.7905 64.0075 58.6574 64H61.2174C61.9554 64 62.6632 63.7068 63.185 63.185C63.7068 62.6632 64 61.9554 64 61.2174V4.17391C64 3.06692 63.5602 2.00527 62.7775 1.22251C61.9947 0.43975 60.9331 0 59.8261 0V0ZM61.2174 61.2174H58.6574C58.3681 61.2152 58.0867 61.123 57.8523 60.9534C57.6178 60.7838 57.4421 60.5454 57.3496 60.2713L55.513 54.7061L54.873 52.8696H9.12696L8.48696 54.7617L6.65044 60.327C6.55786 60.6011 6.38215 60.8395 6.14775 61.009C5.91334 61.1786 5.63191 61.2709 5.34261 61.273H2.78261V4.17391C2.78261 3.80492 2.92919 3.45103 3.19011 3.19011C3.45103 2.92919 3.80492 2.78261 4.17391 2.78261H59.8261C60.1951 2.78261 60.549 2.92919 60.8099 3.19011C61.0708 3.45103 61.2174 3.80492 61.2174 4.17391V61.2174Z" fill="#2781FF"/>
<path d="M54.2607 30.6084H9.73896C9.36996 30.6084 9.01608 30.755 8.75516 31.0159C8.49424 31.2768 8.34766 31.6307 8.34766 31.9997V45.9127C8.34766 46.2817 8.49424 46.6356 8.75516 46.8965C9.01608 47.1575 9.36996 47.304 9.73896 47.304H54.2607C54.6297 47.304 54.9836 47.1575 55.2445 46.8965C55.5054 46.6356 55.652 46.2817 55.652 45.9127V31.9997C55.652 31.6307 55.5054 31.2768 55.2445 31.0159C54.9836 30.755 54.6297 30.6084 54.2607 30.6084ZM52.8694 44.5214H11.1303V33.391H52.8694V44.5214Z" fill="#2781FF"/>
<path d="M54.2607 8.3479H9.73896C9.36996 8.3479 9.01608 8.49448 8.75516 8.7554C8.49424 9.01632 8.34766 9.37021 8.34766 9.7392V23.6522C8.34766 24.0212 8.49424 24.3751 8.75516 24.636C9.01608 24.897 9.36996 25.0436 9.73896 25.0436H54.2607C54.6297 25.0436 54.9836 24.897 55.2445 24.636C55.5054 24.3751 55.652 24.0212 55.652 23.6522V9.7392C55.652 9.37021 55.5054 9.01632 55.2445 8.7554C54.9836 8.49448 54.6297 8.3479 54.2607 8.3479ZM52.8694 22.2609H11.1303V11.1305H52.8694V22.2609Z" fill="#2781FF"/>
<path d="M31.9997 16.6955C32.7681 16.6955 33.391 16.0725 33.391 15.3041C33.391 14.5357 32.7681 13.9128 31.9997 13.9128C31.2313 13.9128 30.6084 14.5357 30.6084 15.3041C30.6084 16.0725 31.2313 16.6955 31.9997 16.6955Z" fill="#2781FF"/>
<path d="M31.9997 38.9564C32.7681 38.9564 33.391 38.3335 33.391 37.5651C33.391 36.7967 32.7681 36.1738 31.9997 36.1738C31.2313 36.1738 30.6084 36.7967 30.6084 37.5651C30.6084 38.3335 31.2313 38.9564 31.9997 38.9564Z" fill="#2781FF"/>
</svg>
