<svg width="64" height="49" viewBox="0 0 64 49" fill="none" xmlns="http://www.w3.org/2000/svg">
<path opacity="0.2" d="M48.6398 40.96V42.24C48.6398 44.288 46.8478 46.08 44.7998 46.08H57.5998C59.6478 46.08 61.4398 44.288 61.4398 42.24V40.96H48.6398Z" fill="#06A0E3"/>
<path d="M61.44 38.4V3.84C61.44 1.792 59.648 0 57.6 0H6.4C4.352 0 2.56 1.792 2.56 3.84V38.4H0V42.24C0 45.824 2.816 48.64 6.4 48.64H57.6C61.184 48.64 64 45.824 64 42.24V38.4H61.44ZM5.12 3.84C5.12 3.072 5.632 2.56 6.4 2.56H57.6C58.368 2.56 58.88 3.072 58.88 3.84V38.4H5.12V3.84ZM61.44 42.24C61.44 44.288 59.648 46.08 57.6 46.08H6.4C4.352 46.08 2.56 44.288 2.56 42.24V40.96H25.6V43.52H38.4V40.96H61.44V42.24Z" fill="#06A0E3"/>
<path opacity="0.2" d="M53.7602 7.67993H10.2402V33.2799H53.7602V7.67993Z" fill="#06A0E3"/>
</svg>
