<svg width="70" height="69" viewBox="0 0 70 69" fill="none" xmlns="http://www.w3.org/2000/svg">
<path d="M54.9244 31.7399C53.8204 23.7359 48.3004 17.1119 40.2964 14.6279L41.9524 3.58789C55.2004 6.89989 64.5844 18.2159 65.6884 31.4639L54.9244 31.7399Z" fill="#CDECF9"/>
<path d="M34.5012 66.2398C17.1132 66.2398 2.76123 52.1638 2.76123 34.4998C2.76123 17.9398 15.4572 4.41577 31.7412 2.75977V13.7998C20.4252 15.1798 12.4212 25.6678 14.0772 36.9838C15.7332 48.2998 25.9452 56.3038 37.2612 54.6478C39.7452 54.3718 41.9532 53.5438 44.1612 52.4398L50.5092 61.5478C45.5412 64.8598 40.0212 66.2398 34.5012 66.2398Z" fill="#CDECF9"/>
<path d="M47.198 47.1959L58.79 58.7879C64.034 53.5439 67.346 46.9199 68.45 39.4679L52.166 36.9839C51.614 40.8479 49.958 44.4359 47.198 47.1959ZM65.414 41.9519C64.31 46.6439 62.102 51.0599 58.79 54.9239L51.062 46.9199C52.718 44.9879 53.822 42.5039 54.374 40.2959L65.414 41.9519Z" fill="#2781FF"/>
<path d="M40.0212 0.551758L37.2612 16.8358C45.8172 18.2158 52.4412 25.6678 52.4412 34.4998H69.0012C69.0012 17.6638 56.8572 3.03576 40.0212 0.551758ZM54.9252 31.7398C53.8212 23.7358 48.3012 17.1118 40.2972 14.6278L41.9532 3.58776C55.2012 6.89976 64.5852 18.2158 65.6892 31.4638L54.9252 31.7398Z" fill="#2781FF"/>
<path d="M34.4995 52.44C24.5635 52.44 16.5595 44.436 16.5595 34.5C16.5595 24.564 24.5635 16.56 34.4995 16.56V0C15.4555 0 -0.000488281 15.456 -0.000488281 34.5C-0.000488281 53.544 15.4555 69 34.4995 69C41.6755 69 48.5755 66.792 54.3715 62.652L44.7115 49.128C41.9515 51.336 38.3635 52.44 34.4995 52.44ZM34.4995 66.24C17.1115 66.24 2.75951 52.164 2.75951 34.5C2.75951 17.94 15.4555 4.416 31.7395 2.76V13.8C20.4235 15.18 12.4195 25.668 14.0755 36.984C15.7315 48.3 25.9435 56.304 37.2595 54.648C39.7435 54.372 41.9515 53.544 44.1595 52.44L50.5075 61.548C45.5395 64.86 40.0195 66.24 34.4995 66.24Z" fill="#2781FF"/>
</svg>
