<svg width="50" height="50" fill="none" xmlns="http://www.w3.org/2000/svg"><g clip-path="url(#clip0)"><path d="M20.14 29.01a.999.999 0 1 0-.281 1.98l.01.001 5.941 1.189c.122-.274.187-.57.19-.87 0-.892 1.457-1.67.648-2.012a2.178 2.178 0 0 1-1.16.19l-5.348-.478z" fill="#CDECF9"/><path d="M46.15 25.624L31.021 39.178a2.995 2.995 0 0 1-2.94.69l-16.754-5.814a.991.991 0 0 0-.776.05L8 35.38v4l2.553-1.277a.992.992 0 0 1 .775-.05l16.754 5.815a2.995 2.995 0 0 0 2.94-.691L47.51 28.404A1.615 1.615 0 0 0 48 27.138a1.613 1.613 0 0 0-1.85-1.515v.001z" fill="#CDECF9"/><path d="M35 18h-4a1 1 0 0 0 0 2h3v1a1 1 0 0 0 2 0v-1h2a2 2 0 0 0 2-2v-4a2 2 0 0 0-2-2h-6V8h7a1 1 0 1 0 0-2h-3V5a1 1 0 0 0-2 0v1h-2a2 2 0 0 0-2 2v4a2 2 0 0 0 2 2h6v4h-3zm13.541 6.32a3.624 3.624 0 0 0-4.162-.142l-14.563 8.764-3.112-.622a4.181 4.181 0 0 0-1.575-6.998l-9.813-3.27a1.005 1.005 0 0 0-.558-.022l-6.812 1.704A1.979 1.979 0 0 0 6 22H1a1 1 0 0 0 0 2h5v18H1a1 1 0 0 0 0 2h5a2.002 2.002 0 0 0 2-2v-.383l3.07-1.535 16.383 5.685a4.99 4.99 0 0 0 4.924-1.119l16.488-14.772a3.64 3.64 0 0 0-.324-5.556zm-1.031 4.085L31.022 43.177a2.995 2.995 0 0 1-2.94.692l-16.754-5.815a.99.99 0 0 0-.776.05L8 39.38v-13.6l6.96-1.74 9.535 3.178a2.202 2.202 0 0 1-1.008 4.27l-3.347-.478a.999.999 0 1 0-.281 1.98l.01.001 9.935 1.988a.996.996 0 0 0 .711-.124l14.934-8.99a1.643 1.643 0 0 1 2.06 2.54z" fill="#06A0E3"/></g><defs><clipPath id="clip0"><path fill="#fff" d="M0 0H50V50H0z"/></clipPath></defs></svg>