<svg width="66" height="66" viewBox="0 0 66 66" fill="none" xmlns="http://www.w3.org/2000/svg">
<path opacity="0.2" d="M3.56055 62.4398L41.9605 24.0398L46.3125 28.3918L10.7285 63.9758L3.56055 62.4398Z" fill="#2781FF"/>
<path d="M62.4404 11.2406C62.7824 11.2632 63.1253 11.2125 63.4462 11.0919C63.767 10.9712 64.0584 10.7834 64.3008 10.541C64.5432 10.2987 64.731 10.0073 64.8516 9.68643C64.9723 9.36557 65.023 9.02265 65.0004 8.68061V3.56061C65.023 3.21857 64.9723 2.87565 64.8516 2.55479C64.731 2.23394 64.5432 1.94257 64.3008 1.70018C64.0584 1.45779 63.767 1.26999 63.4462 1.14934C63.1253 1.02869 62.7824 0.977983 62.4404 1.00061H57.3204C56.9783 0.977983 56.6354 1.02869 56.3145 1.14934C55.9937 1.26999 55.7023 1.45779 55.4599 1.70018C55.2175 1.94257 55.0297 2.23394 54.9091 2.55479C54.7884 2.87565 54.7377 3.21857 54.7604 3.56061V6.12061H11.2404V3.56061C11.263 3.21857 11.2123 2.87565 11.0916 2.55479C10.971 2.23394 10.7832 1.94257 10.5408 1.70018C10.2984 1.45779 10.007 1.26999 9.68618 1.14934C9.36533 1.02869 9.0224 0.977983 8.68037 1.00061H3.56037C3.21833 0.977983 2.8754 1.02869 2.55455 1.14934C2.2337 1.26999 1.94232 1.45779 1.69994 1.70018C1.45755 1.94257 1.26974 2.23394 1.1491 2.55479C1.02845 2.87565 0.977738 3.21857 1.00037 3.56061V8.68061C0.977738 9.02265 1.02845 9.36557 1.1491 9.68643C1.26974 10.0073 1.45755 10.2987 1.69994 10.541C1.94232 10.7834 2.2337 10.9712 2.55455 11.0919C2.8754 11.2125 3.21833 11.2632 3.56037 11.2406H6.12037V30.4406C6.10905 30.6116 6.13441 30.7831 6.19473 30.9435C6.25505 31.1039 6.34896 31.2496 6.47015 31.3708C6.59134 31.492 6.73703 31.5859 6.89746 31.6462C7.05788 31.7066 7.22935 31.7319 7.40037 31.7206C7.57139 31.7319 7.74285 31.7066 7.90327 31.6462C8.0637 31.5859 8.20939 31.492 8.33058 31.3708C8.45177 31.2496 8.54568 31.1039 8.606 30.9435C8.66633 30.7831 8.69168 30.6116 8.68037 30.4406V11.2406C9.0224 11.2632 9.36533 11.2125 9.68618 11.0919C10.007 10.9712 10.2984 10.7834 10.5408 10.541C10.7832 10.2987 10.971 10.0073 11.0916 9.68643C11.2123 9.36557 11.263 9.02265 11.2404 8.68061H54.7604C54.7377 9.02265 54.7884 9.36557 54.9091 9.68643C55.0297 10.0073 55.2175 10.2987 55.4599 10.541C55.7023 10.7834 55.9937 10.9712 56.3145 11.0919C56.6354 11.2125 56.9783 11.2632 57.3204 11.2406V54.7606C56.9783 54.738 56.6354 54.7887 56.3145 54.9093C55.9937 55.03 55.7023 55.2178 55.4599 55.4602C55.2175 55.7026 55.0297 55.9939 54.9091 56.3148C54.7884 56.6356 54.7377 56.9786 54.7604 57.3206H35.5604C35.2209 57.3206 34.8953 57.4555 34.6553 57.6955C34.4152 57.9356 34.2804 58.2611 34.2804 58.6006C34.2804 58.9401 34.4152 59.2657 34.6553 59.5057C34.8953 59.7458 35.2209 59.8806 35.5604 59.8806H54.7604V62.4406C54.7377 62.7826 54.7884 63.1256 54.9091 63.4464C55.0297 63.7673 55.2175 64.0587 55.4599 64.301C55.7023 64.5434 55.9937 64.7312 56.3145 64.8519C56.6354 64.9725 56.9783 65.0232 57.3204 65.0006H62.4404C62.7824 65.0232 63.1253 64.9725 63.4462 64.8519C63.767 64.7312 64.0584 64.5434 64.3008 64.301C64.5432 64.0587 64.731 63.7673 64.8516 63.4464C64.9723 63.1256 65.023 62.7826 65.0004 62.4406V57.3206C65.023 56.9786 64.9723 56.6356 64.8516 56.3148C64.731 55.9939 64.5432 55.7026 64.3008 55.4602C64.0584 55.2178 63.767 55.03 63.4462 54.9093C63.1253 54.7887 62.7824 54.738 62.4404 54.7606H59.8804V11.2406H62.4404ZM8.68037 8.68061H3.56037V3.56061H8.68037V8.68061ZM62.4404 57.3206V62.4406H57.3204V57.3206H62.4404ZM57.3204 8.68061V3.56061H62.4404V8.68061H57.3204Z" fill="#2781FF"/>
<path d="M46.0564 25.5759L40.6804 20.1999C40.3337 19.8358 39.9167 19.546 39.4546 19.348C38.9925 19.15 38.4951 19.0479 37.9924 19.0479C37.4897 19.0479 36.9922 19.15 36.5301 19.348C36.0681 19.546 35.6511 19.8358 35.3044 20.1999L2.02437 52.9678C1.42305 53.7905 1.06792 54.7671 1.00037 55.7838V62.4399C0.977738 62.7819 1.02845 63.1248 1.1491 63.4457C1.26974 63.7665 1.45755 64.0579 1.69994 64.3003C1.94232 64.5427 2.2337 64.7305 2.55455 64.8511C2.8754 64.9718 3.21833 65.0225 3.56037 64.9999H10.2164C11.2331 64.9323 12.2097 64.5772 13.0324 63.9758L46.0564 30.9518C46.676 30.1931 47.0145 29.2435 47.0145 28.2639C47.0145 27.2842 46.676 26.3346 46.0564 25.5759ZM11.2404 62.1838C10.9844 62.1838 10.7284 62.4399 10.2164 62.4399H3.56037V55.7838C3.56037 55.5279 3.81637 55.0159 3.81637 54.7598L32.4884 26.3439L39.6564 33.5119L11.2404 62.1838ZM44.2644 29.1599L41.4484 31.7199L34.2804 24.5519L36.8404 21.7359C36.9553 21.6134 37.0941 21.5158 37.2482 21.4491C37.4023 21.3824 37.5684 21.348 37.7364 21.348C37.9043 21.348 38.0704 21.3824 38.2245 21.4491C38.3787 21.5158 38.5174 21.6134 38.6324 21.7359L44.0084 27.1119C44.2285 27.4 44.3682 27.7414 44.4132 28.1012C44.4582 28.4611 44.4068 28.8264 44.2644 29.1599Z" fill="#2781FF"/>
</svg>
