<svg width="64" height="64" viewBox="0 0 64 64" fill="none" xmlns="http://www.w3.org/2000/svg">
<g clip-path="url(#clip0)">
<path d="M38.3999 0H46.0799V61.44H38.3999V0Z" fill="#C1F1D0"/>
<path d="M44.7998 0H16.6398V0C14.52 0.0022575 12.8021 1.72016 12.7998 3.84V60.16V60.1599C12.802 62.2797 14.5199 63.9977 16.6397 64H44.7997C46.9196 63.9978 48.6376 62.2799 48.6398 60.16V3.83999V3.8401C48.6376 1.72026 46.9198 0.00230424 44.7999 2.44141e-07L44.7998 0ZM46.0798 60.16C46.0798 60.8669 45.5067 61.44 44.7998 61.44H16.6398C15.9329 61.44 15.3598 60.8669 15.3598 60.16V51.2H46.0798V60.16ZM46.0798 48.64H15.3598V3.84V3.84C15.3598 3.13308 15.9329 2.56 16.6398 2.56H44.7998C45.5067 2.56 46.0798 3.13308 46.0798 3.84V48.64Z" fill="#04DE47"/>
<path d="M32.5303 54.5101C33.5301 55.5098 33.5301 57.1307 32.5303 58.1304C31.5306 59.1302 29.9097 59.1302 28.91 58.1304C27.9102 57.1307 27.9102 55.5098 28.91 54.5101C29.9097 53.5103 31.5306 53.5103 32.5303 54.5101Z" fill="#04DE47"/>
<path d="M34.5601 7.68018H26.8801C26.1732 7.68018 25.6001 8.25325 25.6001 8.96018C25.6001 9.6671 26.1732 10.2402 26.8801 10.2402H34.5601C35.267 10.2402 35.8401 9.6671 35.8401 8.96018C35.8401 8.25325 35.267 7.68018 34.5601 7.68018Z" fill="#04DE47"/>
</g>
<defs>
<clipPath id="clip0">
<rect width="64" height="64" fill="white"/>
</clipPath>
</defs>
</svg>
