<svg width="64" height="49" viewBox="0 0 64 49" fill="none" xmlns="http://www.w3.org/2000/svg">
<path opacity="0.2" d="M55.0397 10.157V39.3586H7.67969V43.1675H53.7597C55.1176 43.1675 56.4199 42.6325 57.3801 41.68C58.3403 40.7276 58.8797 39.4359 58.8797 38.089V10.157H55.0397Z" fill="#2781FF"/>
<path opacity="0.2" d="M52.4803 1.26978H51.2003V34.2803C51.2003 34.617 51.0654 34.94 50.8254 35.1781C50.5853 35.4162 50.2598 35.5499 49.9203 35.5499H1.28027V36.8196C1.28027 37.1563 1.41513 37.4792 1.65518 37.7173C1.89522 37.9554 2.2208 38.0892 2.56027 38.0892H52.4803C52.8197 38.0892 53.1453 37.9554 53.3854 37.7173C53.6254 37.4792 53.7603 37.1563 53.7603 36.8196V2.53941C53.7603 2.20268 53.6254 1.87975 53.3854 1.64164C53.1453 1.40354 52.8197 1.26978 52.4803 1.26978Z" fill="#2781FF"/>
<path d="M61.44 7.61781H56.32V3.80891C56.32 2.79872 55.9154 1.82991 55.1953 1.1156C54.4751 0.401294 53.4984 0 52.48 0L3.84 0C2.82157 0 1.84485 0.401294 1.12471 1.1156C0.40457 1.82991 0 2.79872 0 3.80891L0 36.8194C0 37.8296 0.40457 38.7984 1.12471 39.5127C1.84485 40.227 2.82157 40.6283 3.84 40.6283H7.68V44.4372C7.68 46.5448 10.6752 48.2462 12.8 48.2462H61.44C63.5648 48.2462 64 46.5448 64 44.4372V11.4267C64 9.31913 63.5648 7.61781 61.44 7.61781ZM3.84 38.0891C3.50052 38.0891 3.17495 37.9553 2.9349 37.7172C2.69486 37.4791 2.56 37.1562 2.56 36.8194V3.80891C2.56 3.47218 2.69486 3.14924 2.9349 2.91114C3.17495 2.67304 3.50052 2.53927 3.84 2.53927H52.48C52.8195 2.53927 53.1451 2.67304 53.3851 2.91114C53.6251 3.14924 53.76 3.47218 53.76 3.80891V36.8194C53.76 37.1562 53.6251 37.4791 53.3851 37.7172C53.1451 37.9553 52.8195 38.0891 52.48 38.0891H3.84ZM61.44 45.7069H12.8C12.0832 45.7069 10.24 45.1482 10.24 44.4372V40.6283H52.48C53.4984 40.6283 54.4751 40.227 55.1953 39.5127C55.9154 38.7984 56.32 37.8296 56.32 36.8194V10.1571H61.44C62.1568 10.1571 61.44 10.7157 61.44 11.4267V44.4372C61.44 45.1482 62.1568 45.7069 61.44 45.7069Z" fill="#2781FF"/>
<path d="M29.4402 10.157C27.4149 10.157 25.4351 10.7527 23.7512 11.8688C22.0672 12.9848 20.7547 14.5712 19.9797 16.4271C19.2046 18.2831 19.0018 20.3253 19.397 22.2956C19.7921 24.2659 20.7673 26.0757 22.1994 27.4962C23.6315 28.9167 25.4561 29.8841 27.4425 30.276C29.4288 30.6679 31.4878 30.4668 33.3589 29.698C35.23 28.9292 36.8293 27.6274 37.9544 25.957C39.0796 24.2867 39.6802 22.3229 39.6802 20.3141C39.6802 17.6202 38.6013 15.0367 36.681 13.1319C34.7606 11.2271 32.156 10.157 29.4402 10.157ZM29.4402 27.9319C27.9212 27.9319 26.4364 27.4851 25.1734 26.648C23.9104 25.811 22.9261 24.6213 22.3448 23.2293C21.7635 21.8373 21.6114 20.3056 21.9078 18.8279C22.2041 17.3502 22.9356 15.9928 24.0096 14.9275C25.0837 13.8621 26.4521 13.1366 27.9419 12.8426C29.4317 12.5487 30.9759 12.6996 32.3792 13.2761C33.7825 13.8527 34.982 14.8291 35.8259 16.0818C36.6698 17.3346 37.1202 18.8074 37.1202 20.3141C37.1202 22.3344 36.3111 24.2721 34.8708 25.7007C33.4305 27.1293 31.4771 27.9319 29.4402 27.9319Z" fill="#2781FF"/>
<path d="M49.9205 5.07861H44.8005C44.461 5.07861 44.1355 5.21238 43.8954 5.45048C43.6554 5.68858 43.5205 6.01152 43.5205 6.34825C43.5205 6.68498 43.6554 7.00791 43.8954 7.24602C44.1355 7.48412 44.461 7.61788 44.8005 7.61788H49.9205C50.26 7.61788 50.5856 7.48412 50.8256 7.24602C51.0657 7.00791 51.2005 6.68498 51.2005 6.34825C51.2005 6.01152 51.0657 5.68858 50.8256 5.45048C50.5856 5.21238 50.26 5.07861 49.9205 5.07861Z" fill="#2781FF"/>
<path d="M11.5201 33.0105H6.40012C6.06064 33.0105 5.73507 33.1443 5.49502 33.3824C5.25497 33.6205 5.12012 33.9434 5.12012 34.2801C5.12012 34.6169 5.25497 34.9398 5.49502 35.1779C5.73507 35.416 6.06064 35.5498 6.40012 35.5498H11.5201C11.8596 35.5498 12.1852 35.416 12.4252 35.1779C12.6653 34.9398 12.8001 34.6169 12.8001 34.2801C12.8001 33.9434 12.6653 33.6205 12.4252 33.3824C12.1852 33.1443 11.8596 33.0105 11.5201 33.0105Z" fill="#2781FF"/>
</svg>
