<svg width="46" height="46" viewBox="0 0 46 46" fill="none" xmlns="http://www.w3.org/2000/svg">
<g clip-path="url(#clip0)">
<path opacity="0.2" d="M43.2398 31.28H40.4798V39.56C40.4798 40.112 40.1118 40.48 39.5598 40.48H1.83984V43.24C1.83984 43.792 2.20784 44.16 2.75984 44.16H43.2398C43.7918 44.16 44.1598 43.792 44.1598 43.24V32.2C44.1598 31.648 43.7918 31.28 43.2398 31.28Z" fill="#06A0E3"/>
<path d="M11.9595 34.9601H6.43953C5.88753 34.9601 5.51953 35.3281 5.51953 35.8801V39.5601C5.51953 40.1121 5.88753 40.4801 6.43953 40.4801H11.9595C12.5115 40.4801 12.8795 40.1121 12.8795 39.5601V35.8801C12.8795 35.3281 12.5115 34.9601 11.9595 34.9601ZM11.0395 38.6401H7.35953V36.8001H11.0395V38.6401Z" fill="#06A0E3"/>
<path d="M43.24 29.4401H2.76C1.288 29.4401 0 30.7281 0 32.2001V43.2401C0 44.7121 1.288 46.0001 2.76 46.0001H43.24C44.712 46.0001 46 44.7121 46 43.2401V32.2001C46 30.7281 44.712 29.4401 43.24 29.4401ZM44.16 43.2401C44.16 43.7921 43.792 44.1601 43.24 44.1601H2.76C2.208 44.1601 1.84 43.7921 1.84 43.2401V32.2001C1.84 31.6481 2.208 31.2801 2.76 31.2801H43.24C43.792 31.2801 44.16 31.6481 44.16 32.2001V43.2401Z" fill="#06A0E3"/>
<path d="M37.7183 36.8H21.1583C20.6063 36.8 20.2383 37.168 20.2383 37.72C20.2383 38.272 20.6063 38.64 21.1583 38.64H37.7183C38.2703 38.64 38.6383 38.272 38.6383 37.72C38.6383 37.168 38.2703 36.8 37.7183 36.8Z" fill="#06A0E3"/>
<path d="M23.002 20.24C19.874 20.24 16.93 21.712 14.906 24.288C14.722 24.656 14.722 25.208 15.09 25.576C15.458 25.944 16.01 25.76 16.378 25.392C19.138 21.712 24.29 20.976 27.786 23.736C28.522 24.288 29.074 24.84 29.442 25.392C29.81 25.76 30.362 25.944 30.73 25.576C31.098 25.208 31.282 24.656 30.914 24.288C29.074 21.712 26.13 20.24 23.002 20.24Z" fill="#06A0E3"/>
<path d="M34.5926 19.8721C34.9606 20.2401 35.5126 20.2401 35.8806 19.8721C36.2486 19.5041 36.2486 18.9521 35.8806 18.5841C29.4406 11.4081 18.4006 10.8561 11.2246 17.1121C10.6726 17.4801 10.3046 18.0321 9.75256 18.5841C9.38456 18.9521 9.38456 19.5041 9.75256 19.8721C10.1206 20.2401 10.6726 20.2401 11.0406 19.8721C16.7446 13.4321 26.6806 12.8801 33.1206 18.5841C33.8566 19.1361 34.2246 19.5041 34.5926 19.8721Z" fill="#06A0E3"/>
<path d="M6.439 14.3521C15.271 5.15208 29.807 4.96808 38.823 13.6161C39.007 13.8001 39.375 14.1681 39.559 14.3521C39.927 14.7201 40.479 14.7201 40.847 14.3521C41.215 13.9841 41.215 13.4321 40.847 13.0641C31.463 3.12808 15.639 2.76008 5.887 12.3281C5.519 12.6961 5.335 12.8801 5.151 13.2481C4.783 13.6161 4.783 14.1681 5.151 14.5361C5.519 14.9041 6.071 14.7201 6.439 14.3521Z" fill="#06A0E3"/>
</g>
<defs>
<clipPath id="clip0">
<rect width="46" height="46" fill="white"/>
</clipPath>
</defs>
</svg>
