<svg width="50" height="39" viewBox="0 0 50 39" fill="none" xmlns="http://www.w3.org/2000/svg">
<path d="M36 16.64H42V6.64001H8V26.64H36V16.64Z" fill="#CDECF9"/>
<path d="M48 16.6399H44V36.6399H48V16.6399Z" fill="#CDECF9"/>
<path d="M31 32.64C31.2652 32.64 31.5196 32.5347 31.7071 32.3471C31.8946 32.1596 32 31.9052 32 31.64C32 31.3748 31.8946 31.1204 31.7071 30.9329C31.5196 30.7454 31.2652 30.64 31 30.64H4V3.64001C4 3.3748 4.10536 3.12044 4.29289 2.93291C4.48043 2.74537 4.73478 2.64001 5 2.64001H45C45.2652 2.64001 45.5196 2.74537 45.7071 2.93291C45.8946 3.12044 46 3.3748 46 3.64001V11.64C46 11.9052 46.1054 12.1596 46.2929 12.3471C46.4804 12.5347 46.7348 12.64 47 12.64C47.2652 12.64 47.5196 12.5347 47.7071 12.3471C47.8946 12.1596 48 11.9052 48 11.64V3.64001C47.9992 2.84463 47.6828 2.08206 47.1204 1.51963C46.558 0.957204 45.7954 0.640862 45 0.640015H5C4.20461 0.640862 3.44204 0.957204 2.87962 1.51963C2.31719 2.08206 2.00085 2.84463 2 3.64001V30.64H1C0.734784 30.64 0.48043 30.7454 0.292893 30.9329C0.105357 31.1204 0 31.3748 0 31.64L0 33.64C0 34.9661 0.526784 36.2379 1.46447 37.1755C2.40215 38.1132 3.67392 38.64 5 38.64H31C31.2652 38.64 31.5196 38.5347 31.7071 38.3471C31.8946 38.1596 32 37.9052 32 37.64C32 37.3748 31.8946 37.1204 31.7071 36.9329C31.5196 36.7454 31.2652 36.64 31 36.64H5C4.20461 36.6392 3.44204 36.3228 2.87962 35.7604C2.31719 35.198 2.00085 34.4354 2 33.64V32.64H31Z" fill="#06A0E3"/>
<path d="M48 14.6399H36C35.4696 14.6399 34.9609 14.8506 34.5858 15.2257C34.2107 15.6008 34 16.1095 34 16.6399V36.6399C34 37.1703 34.2107 37.679 34.5858 38.0541C34.9609 38.4292 35.4696 38.6399 36 38.6399H48C48.5304 38.6399 49.0391 38.4292 49.4142 38.0541C49.7893 37.679 50 37.1703 50 36.6399V16.6399C50 16.1095 49.7893 15.6008 49.4142 15.2257C49.0391 14.8506 48.5304 14.6399 48 14.6399ZM48 36.6399H36V16.6399H48V36.6399Z" fill="#06A0E3"/>
<path d="M41 34.64H43C43.2652 34.64 43.5196 34.5347 43.7071 34.3471C43.8946 34.1596 44 33.9052 44 33.64C44 33.3748 43.8946 33.1204 43.7071 32.9329C43.5196 32.7454 43.2652 32.64 43 32.64H41C40.7348 32.64 40.4804 32.7454 40.2929 32.9329C40.1054 33.1204 40 33.3748 40 33.64C40 33.9052 40.1054 34.1596 40.2929 34.3471C40.4804 34.5347 40.7348 34.64 41 34.64Z" fill="#06A0E3"/>
</svg>
