<svg width="64" height="64" viewBox="0 0 64 64" fill="none" xmlns="http://www.w3.org/2000/svg">
<g clip-path="url(#clip0)">
<path d="M55.5914 23.0849C55.1161 22.585 54.4569 22.3014 53.7671 22.3C53.5777 22.3006 53.3889 22.3215 53.2039 22.3625C52.5089 22.5161 51.7918 22.6623 51.0678 22.8049V22.8049C50.7748 31.0286 49.7366 39.2088 47.9659 47.2449V47.2449C47.4229 49.5686 45.3468 51.209 42.9606 51.1999H16.0166L12.8601 49.6306L12.855 52.2024L21.1366 56.3199H48.0806C50.4667 56.3289 52.5427 54.6885 53.0856 52.3649V52.3649C55.06 43.3653 56.1429 34.1931 56.3189 24.9811C56.3456 24.2762 56.0827 23.5911 55.5914 23.0849L55.5914 23.0849Z" fill="#06A0E3" fill-opacity="0.2"/>
<path d="M53.7673 19.74C53.3922 19.7405 53.0182 19.7817 52.6519 19.8626C45.6408 21.4076 36.4033 22.4513 36.4033 22.4513C36.2358 22.4848 36.0655 22.502 35.8946 22.5025C34.4818 22.4999 33.3372 21.3553 33.3346 19.9425V5.32489V5.32495C33.3314 2.3809 30.9422 -0.00312844 27.9981 7.15621e-05C27.9976 7.21242e-05 27.9971 7.27609e-05 27.9966 7.34722e-05V7.34718e-05C25.3564 -0.0134901 23.0796 1.85231 22.5742 4.44372C21.1616 11.88 16.9189 22.4551 12.3629 25.0351H12.3629C11.6951 23.8086 10.4117 23.0438 9.01518 23.0401H3.89518H3.89518C1.7744 23.0401 0.0551758 24.7593 0.0551758 26.8801V57.6001C0.0551761 59.7208 1.7744 61.4401 3.89518 61.4401H9.01518C11.1359 61.4401 12.8552 59.7208 12.8552 57.6001V55.0613L20.5352 58.8801H48.0808H48.0808C51.6527 58.8853 54.7581 56.4305 55.5777 52.9539V52.9539C57.5913 43.7886 58.6965 34.4472 58.8773 25.065C58.9773 22.2258 56.7568 19.8431 53.9175 19.7431C53.8675 19.7413 53.8174 19.7403 53.7673 19.74L53.7673 19.74ZM10.2952 57.6001C10.2952 58.307 9.72208 58.8801 9.01516 58.8801H3.89516C3.18824 58.8801 2.61516 58.307 2.61516 57.6001V26.8801V26.8801C2.61628 26.1736 3.18868 25.6012 3.89514 25.6001H9.01514C9.7216 25.6012 10.294 26.1736 10.2951 26.8801L10.2401 53.7601L10.2952 53.7875L10.2952 57.6001ZM53.0856 52.3651V52.3651C52.5426 54.6887 50.4666 56.3291 48.0805 56.3201H21.1365L12.8552 52.2026L12.9033 27.6163C19.3389 24.745 23.8102 11.6537 25.0881 4.92143V4.92143C25.3658 3.53866 26.5862 2.54783 27.9965 2.56009C29.5261 2.55838 30.7684 3.79528 30.7734 5.32489V19.9389V19.9389C30.777 22.7651 33.0672 25.0552 35.8933 25.0589C36.1897 25.0582 36.4855 25.0325 36.7776 24.9821C37.8036 24.8646 46.4288 23.8534 53.203 22.3609C53.388 22.3199 53.5768 22.299 53.7662 22.2985C54.456 22.2998 55.1152 22.5834 55.5905 23.0833C56.0818 23.5895 56.3445 24.2747 56.3178 24.9795V24.9797C56.1423 34.1922 55.0596 43.365 53.0855 52.3653L53.0856 52.3651Z" fill="#06A0E3"/>
</g>
<defs>
<clipPath id="clip0">
<rect width="64" height="64" fill="white"/>
</clipPath>
</defs>
</svg>
