<svg height="22" viewBox="0 0 56 22" width="56" xmlns="http://www.w3.org/2000/svg"><path d="m86.6503067 58.3244357 6.9199917-6.6141518c2.3852467-2.279827 6.2544252-2.2808002 8.6402826-.0003893 2.386265 2.2808003 2.385654 5.9776119-.000407 8.2582175l-10.7988773 10.321604c-1.3049322 1.2471522-3.0538101 1.8123559-4.76099 1.6951968-1.7071798.1171591-3.4560577-.4480446-4.7609899-1.6951968l-10.7988773-10.321604c-2.3860613-2.2806056-2.3866722-5.9774172-.0004073-8.2582175 2.3858577-2.2804109 6.2550362-2.2794377 8.6402829.0003893zm-36.8604807 1.6436764c-2.3860613-2.2806056-2.3866722-5.9774172-.0004073-8.2582175 2.3858577-2.2804109 6.2550362-2.2794377 8.6402829.0003893l10.7988773 10.321604c2.3860613 2.2806056 2.3866722 5.9774172.0004073 8.2582175-2.3858577 2.2804109-6.2548326 2.2794377-8.6402829-.0003893z" fill="#fff" fill-rule="evenodd" transform="translate(-48 -50)"/></svg>