<svg height="126" viewBox="0 0 200 126" width="200" xmlns="http://www.w3.org/2000/svg"><path d="m58.4532473 26.150374c-5.6444929-.4191556-6.597047-3.2485392-5.8058481-8.5121598.8279374-5.5050436 3.9695143-7.4634372 7.9963405-8.17436777 6.8195349-1.20344674 6.6270255 5.39166807 5.6206863 9.70293517-1.0277944 4.4026343-3.201534 7.3260529-7.8111787 6.9835924zm71.5167977 17.5661875c4.370404-.7226016 7.14489-2.7783647 8.496865-4.4239756 2.847963-3.4619518-.170467-7.0939667-3.374058-4.6210487-2.12789 1.6436101-4.155851 4.4393146-5.122807 9.0450243zm-19.130437 11.1481383c.849393 9.233761-3.218287 19.4372153-8.085394 25.8449273-3.6150622 4.7601003-7.5504832 7.2903729-11.2537173 7.2903729-8.4442554 0-10.0413486-10.1491008-11.888557-19.4258778-.9452064-4.746762-1.6984912-8.7795924-2.1037896-10.2031208-.3920726-1.376511-.8934787-1.629605-1.4695374-.0553539-2.4141559 6.5954483-6.2352469 22.2836053-13.6373064 22.4276587-6.2890319.1227122-8.8222204-8.6171988-9.042651-11.7850414-2.9878633 12.0324666-6.7598717 19.0070557-14.22953 18.5028685-7.5066906-.5065214-9.8021079-10.1787785-10.2891125-31.0238498-.0658353-2.8100431-.2274844-7.0652894-.3268251-9.9987116-.1008103-2.9811066-1.2655656-2.7833666-2.3832957-.1667286-1.2414651 2.9070792-3.4440077 8.2123819-4.5743758 11.1364674-5.9836621 15.4807466-7.8687846 22.5013527-13.96031072 22.5013527-6.98235968 0-7.84321465-9.1303893-7.54548638-23.2636357.25569949-12.1438413 1.74522253-31.1989148 4.25107759-56.6460277l11.75482911 1.53090162c-1.9715313 20.02476678-3.081032 34.18068828-3.6723738 44.18473528 4.7657096-13.9838577 11.7310226-20.2045002 18.2880982-19.3788604 8.6864351 1.0937394 10.3952131 11.4956007 11.2269713 29.4222553.1005163 2.1097831.1957423 8.0183098.4020654 11.2401725.0734769 1.1460921.5263883 1.0683966.8082455.2707671 3.4413625-9.7326128 5.1557248-20.8477389 6.5221006-28.840706.9119949-5.3353139 2.7974113-7.3460603 7.1569407-6.4570636 4.3933288.8959993 5.072549 3.3839228 5.1051727 8.3674394.0320359 4.805784.1851617 14.307978 1.6097312 20.7483687 3.7188112-8.9413191 6.2414189-20.3068714 14.470828-19.8066858 9.8650041.5995559 11.1972866 14.3289858 13.2184883 24.8545597.3879578 2.0217505.946382 4.681071 1.5018671 6.7405021 3.109541-2.5562822 11.853288-14.9498829 2.5834467-30.0945047-1.5577096-2.547279-2.5599341-5.5160477.6994997-8.7949315 2.6598626-2.678661 4.7377886-2.8760676 7.4299806.081697 5.451984 5.9882229 9.108193 8.3354275 14.16634 9.2904487 1.878069-11.3465453 7.691558-18.3581481 15.133295-21.080492 10.310274-3.7707331 20.955603 3.689703 17.951868 16.8445863-1.883946 8.2573985-9.472637 15.6521436-20.32664 17.3114262 1.284376 3.953801 3.888396 6.7675122 7.938441 6.7675122 6.677577 0 10.16332-5.9315352 11.315437-7.8162349l8.414571 8.2644012c-2.242514 4.1882214-8.693783 12.9831529-20.55001 12.9831529-9.111131 0-18.504414-6.8412062-20.235529-20.4112436-2.651045-.3758062-4.726032-.8869959-6.374853-1.3575039z" fill="#011c16" fill-rule="evenodd" transform="translate(20 18)"/></svg>