<svg height="75" viewBox="0 0 212 75" width="212" xmlns="http://www.w3.org/2000/svg"><path d="m91.9794859 15.063572c-.5487835 1.9112155-1.1435782 4.1411487-1.7839373 6.6904547-.4735128 1.879562-2.3928033 9.8922591-2.4680739 10.2125051-.5366608 2.3183783-1.0573135 4.6402686-1.5619223 6.9655125-.3189511 1.4632641-.6316483 2.9121204-.9416652 4.3485337-.3429491 1.5922537-.6836404 3.1849711-1.0220729 4.7781477-.6121587 2.8722806-1.2106824 5.747321-1.7955517 8.6250283-.5049922 2.4864666-1.005234 4.9738526-1.500723 7.4621448-.2501577.9764554-.362282 1.4060696-.7131729 1.8420144-.352231.4344168-1.1636801.9544071-2.0533035 1.0054893-.2233551.0133163-.4913812.0061124-.8051952-.0183372-.3138139-.0255411-.6749791-.0925591-1.0846124-.1995261-1.0899729-.2859728-2.342995-.2885924-3.3867335-.5771849-1.0475354-.2872826-2.3021211-.315225-3.1774497-.7668875-.8777856-.4503526-1.8299484-.724319-2.386326-1.3927532-.5550375-.6645048-.154115-2.4150516-.2182179-3.417048-.0279194-.4344168.0703568-1.7079783.134013-2.105939.1583588-1.7127808.4237047-3.8591053.7951442-6.4361354.3712162-2.5783398.8203833-5.3673391 1.3423642-8.3704906.5455297-3.1290418 1.1168161-6.253742 1.7138037-9.3737968.2845545-1.4973189 1.5134543-7.8249593 1.8399994-9.4794541.6086427-3.0714793 1.2061176-5.9589318 1.7928715-8.6577732.5869772-2.6988414 1.1333038-5.0045248 1.6371929-6.91224744.3714396-1.15764427.8103324-1.98063482 1.3155616-2.46875335.5054526-.48942834 1.2023206-.75837379 2.0928374-.80945596.5782664-.03405478 1.2865254.04627957 2.1261173.23620047.8371349.1921039 4.5401392.60119787 5.2982065.5575379.9660108-.05719457 4.0936524.5479327 4.0936524.5479327.9278171.55862939 1.1051611 1.12708228 1.5185914 1.64925559.4120902.52239162.1072104 1.68003589.1556785 2.42007249.040874.6538081-.7439959 2.8036254-.9570766 3.6449531zm33.6642841 34.4659037s.454686 3.7770221.336676 6.1206881c-.074191 1.4418697-.823902 4.6161662-1.283578 4.9864025-.460977.3739475-1.314816.7677602-2.563251 1.187114 0 0-16.427062 4.4574623-16.970907 4.5532959-.543627.0973617-3.188661.9103099-4.543826.515624-4.6164978-1.338614-6.5254861-6.1551794-6.9211674-6.8637803-.3943796-.708601-.624109-1.5551674-.6855003-2.543192-.0190899-.2988523-.0151852-.612549.0073756-.937379.0238624-.32483.0878568-.7035801.1922004-1.1417077l-.0564019.1329446c.2360204-1.865153 1.8912001-11.481038 2.4463252-14.2270304.5763945-2.8514674 1.1800678-5.697282 1.8109358-8.5370478.2876499-1.3054324.5792044-2.5958022.8742299-3.8752569.0577035-.2497349 2.4990397-10.2779882 3.1975557-12.839299.698082-2.5602193 1.356249-4.8707037 1.975369-6.93276305.756003-1.98216161 1.924174-3.02039515 3.500174-3.11513724 1.049943-.06265202 2.28059.10216428 3.689987.49095611 1.408964.39119312 2.748944.91402099 4.021241 1.5697934 1.269694.65708221 2.35977 1.37681644 3.265238 2.16291378.905468.7850059 1.382715 1.5649908 1.43044 2.3362438.022127.3366873-.001078.6748396-.068984 1.0052703-.0679.3272313-.196105.7332688-.385703 1.219204l.061609-.0689827c-.733443 2.3696436-1.514609 4.9888039-2.347188 7.8590088-.834098 2.8704232-1.657783 5.8796851-2.471707 9.0280039-.829271 3.1985014-1.641831 6.4013666-2.437648 9.6084629-.788912 3.1739653-1.558812 6.3526854-2.309659 9.5359874 1.647804-.3567018 3.262852-.7112206 4.847746-1.0642113 1.581424-.3518991 4.591551-1.2499842 6.519413-1.3656831 1.093763-.0639618 4.29262-.9397804 4.869005 1.199557zm31.810517-32.2747983c-.381837 1.1777614-.751846 2.3593329-1.10997 3.5445355-.108381.3580118-1.433803 4.6903916-1.884552 6.0517098 2.000204-.3248426 4.013363-.5639537 6.033967-.7166786l.486293-.0266326c1.346576-.07575 2.426235.056758 3.241594.3929399.814052.3372733 1.616109.6433298 2.197481 1.6721772 0 0 .96997 2.1565847 1.259348 3.0107922.289595.8555173.535359 2.5770303.559128 2.9590551.10838 1.7468358-1.576638 2.309613-2.666982 2.7119397-.671216.2471155-9.433661 1.7529482-10.798772 2.0566033-1.636014.3634076-3.264055.7618965-4.882999 1.195192-.314455.8675238-.701746 3.7204852-1.007042 4.7349248-.305296 1.0157494-.602524 1.9819448-.64483 2.7492689 1.744333-.3927215 8.203752-1.8902588 10.270609-2.1891114 1.597573-.2300881 3.436984-1.0238265 4.773092-.2468971 2.383929 1.3879507 3.011532 3.5578517 3.425208 4.7157144 0 0 1.451031 3.1216885.984581 5.2143114-.214143.9565901-.529907 1.5180575-1.013584 1.9275881-.486294.4084391-1.392806.7784574-2.722154 1.1061256-2.442372.6313233-12.428619 3.1854321-13.078682 3.3517766-1.136575.2927402-3.683184.7251923-3.683184.7251923-1.280282.367617-3.225675.737417-4.107109.7867528-1.021435.056758-1.922714-.0203019-2.704927-.2324894-.783739-.2119692-7.961913-4.0638709-8.178674-6.4095033-.079377-.853116-1.108662-1.6023213-1.182805-2.7036443-.042235-.639571-.015182-1.2818398.080685-1.9155816 0 0 4.687173-21.6540402 7.40562-34.2178543.145234-.6662513 1.838321-8.49404906 1.889567-8.73243255.212835-.97951164.826045-1.43488523.826045-1.43488523 1.509037-1.36022668 2.738073-2.01207018 4.914618-2.57812181 1.544801-.40254502 14.005039-1.80861467 15.240618-2.02538647 2.486857-.4350717 9.496028-1.42768134 11.220516.04693448.740126.63241481 1.519941 1.2975746 2.01016 2.3733565l-.002835-.06374357c.528599.94807647.90673 1.7348293 1.135266 2.35763891.227228.62542922-.260374 1.38816906-.074143 2.09895354 0 0 .280218 1.0469663.319907 1.638559.07676 1.1421451-.148069 1.9625161-.673833 2.4589301-.527291.4977238-1.550252.8723264-3.071282 1.1264275-2.398322.345787-4.170568.6337246-6.705183 1.0493676-2.534614.4169528-5.227765.8952479-8.080761 1.4364133zm-89.6188724-3.1885206c.9790243 1.3439548 1.351391 2.6743893 1.0767733 3.8493411-.525127 2.2450128-1.2071784 5.2155387-1.9768971 8.5822946-1.1438312 5.0110976-2.2839445 10.0230346-3.4203387 15.0358069-.101694.4466038-.2031689.8921173-.3035479 1.3376308-.1391718.6097188-.7808963 3.4358836-.9614909 4.2318327-1.3678286 6.0191203-2.6216898 11.5196742-3.4628573 15.1393894-.5152644 2.2153555-1.4004847 5.4698063-2.3157311 8.1566254-.8587009 2.5175981-4.7228552 1.4414312-7.3281075.8809958-3.7098599-.7946408-5.9552379-2.536134-5.5589819-5.0846978.4175154-2.6842023.4124746-3.3741703.4940051-4.4058512.0876673-1.1230516 1.4342366-7.5320779 2.0597426-10.3458127 1.128497-5.0711776 4.0283113-15.0109472 3.411572-18.9418457-1.5810793 2.7077536-3.7449268 7.9084637-5.8425855 12.9510743-2.3380862 5.6180927-4.5473015 10.9274008-6.1671736 13.4696406-.12909.2023673-.2393316.4158562-.3497924.6269463-.5880283 1.1267587-1.3189542 2.5215233-4.1948791 2.0943276-4.1900574-.6330522-6.4141762-1.8745148-7.0449422-4.2479698-.7333368-2.7581275-2.9361962-11.9366207-3.2934403-13.4596095-.330944-1.4141727-.661888-2.8274731-.996777-4.2405555-.0111775-.0505918-.0238893-.1011837-.0350669-.1504671 0 0-3.9831626 17.5359596-4.6463655 20.4164233-.2445917 1.0615563-.5479205 2.3464145-.8727277 3.7185-.7296109 3.0867563-1.5569708 6.5843533-2.0435242 8.9663129-.2042648 1.0044225-.6656138 1.7004964-1.3715545 2.0672872-.3160406.1652957-.6732847.2614638-1.0743625.2847971-.7385968.044486-3.61079586-.964952-4.08485664-1.1514004-.81618233-.3196881-4.87079379-3.1853232-5.63174573-3.7420514-1.44563336-1.0563227-1.98851296-3.6740142-1.88813393-5.0561309.13150091-1.8265397.39998194-3.8172849.75108938-6.2461293.15407523-1.070061.43987055-.380093.63054687-1.5338922.28206946-1.7118358.60052083-3.5039209.94790241-5.3439809.57794651-3.0594977 1.23742358-6.2509268 1.94183013-9.4227297.12054251-.5418997.57926152-2.5570685.68709227-3.0211178 1.80156249-7.743168 3.82404652-15.0728785 5.56687194-19.7168603 2.2477889-5.983139 2.9035401-5.9646032 10.8334835-3.8369111 1.1521671.3083485 2.1776551.9280985 3.1693911 1.5242972.3473816.210872.693229.4193452 1.0406106.6105911.3022329.1679126.5654539.3914325.7960188.5874759.2570843.2185044.5216203.4418063.7085708.4753888 5.152644.8700924 5.5364075 3.5468804 5.486218 6.4482786-.0550112 3.2841081.5805765 12.0391129.6469845 13.0869309 1.8958048-3.1371301 4.3868704-8.7340702 6.8014463-14.1630977 2.5789521-5.7942919 5.0150065-11.266497 6.8343216-14.1013844 1.3601578-2.12027778 3.4540906-2.79170997 6.7876388-2.17850201 1.6374055.30006194 3.3263155.47778757 5.0577442.65049764 3.2833586.32339524 7.21151 2.55859497 9.1360259 5.19831127zm137.0279454-10.13335614c7.31767 5.34907708 8.919981 11.35524894 5.210874 19.53819644-1.089889 2.4042065-1.699768 4.1054845-3.396891 4.8027652-1.485451.6095233-3.6165-.1181684-5.525515-.8347819-1.246659-.4672432-4.024851-1.4419156-4.764379-2.7621873-1.13487-2.0271102-.174629-4.2271285.64185-6.35655.37241-.972283 1.167062-1.9930063 1.590626-2.9483461.410996-1.4625517-.765106-2.2134861-2.154202-1.7571039-1.189992.8519423-2.660008 1.934791-3.434154 3.0469646-2.454731 3.5298478-1.690728 7.7167904.721448 11.2468554 1.210498 1.7703545 2.545794 3.484883 3.977225 5.1190396.349258.3990357 1.861609 2.0294996 2.268636 2.4433064.890785.9064649 1.681688 1.819012 2.36874 2.7352519 5.439523 7.2606254 4.327585 14.7256562-5.252106 20.5541409-4.143035 2.5212888-8.025227 5.2248264-13.37898 3.8839187-5.811713-1.4538628-10.205005-4.7988552-12.814962-9.7232645-1.878367-3.5420122-.657505-7.4237587 1.616202-10.6336394 1.314791-1.8555052 3.357203-1.5661663 4.878594.1144757 1.53925 1.7021469 2.70102 3.7839969 4.46892 5.2067971 1.25173 1.0072556 3.578135 2.3155801 4.895351 1.7471117 1.09496.2726129.84338-3.6054408.163164-4.8792272-.905338-1.6901997-1.941207-3.3169708-3.019631-4.9244092-1.222404-1.8203153-2.499711-3.6139125-3.701389-5.4463922-1.698446-2.5881931-2.790981-5.3416916-3.317294-8.1208222-.268338-1.4104186-.286418-6.1145653-.151478-7.0416663.961343-6.5707302 4.991486-12.62794908 11.510756-16.26358372.337572-.1898515 1.631636-.83717129 1.935915-.97467244 4.815533-2.17330014 9.506708-2.8253988 13.606085 1.42714463.300309.31279882.698297.53914352 1.056595.80067809z" fill-rule="evenodd"/></svg>