<svg xmlns="http://www.w3.org/2000/svg" viewBox="0 0 644.81 270.09"><defs><style>.cls-1{fill-rule:evenodd;}</style></defs><title>Manager-Lounge</title><g id="Layer_2" data-name="Layer 2"><g id="Layer_1-2" data-name="Layer 1"><path id="svg_1" data-name="svg 1" class="cls-1" d="M416.84,184.57a19.18,19.18,0,0,1,36.89,0Zm-27,6.84a46.12,46.12,0,0,0,45.88,46,42,42,0,0,0,24.66-7.83A51,51,0,0,0,478,207.36H450.39s-8.88,8.44-14.79,8.29c-9.53,0-19-15.13-19-15.13h60.89s.61-4.59.59-6.75c0-24.83-18.2-44.49-42.9-44.49s-42.61,42.13-42.61,42.13ZM237,152.67h-22.8v82h25.06V190.26c0-5,0-17,14.28-17,13.06,0,13.06,11.15,13.06,16.88V234.7h22.79v-51c0-15.95-5-22.44-9.36-26.25a34.82,34.82,0,0,0-20.67-7.09c-14.47,0-19.58,7.48-22.08,11.4H237ZM56.53,192.74A19.49,19.49,0,1,1,76,213.27a19.8,19.8,0,0,1-19.47-20.53Zm-24.32,0c0,20,14.19,43.35,43.79,43.35s43.76-23.37,43.76-43.35S105.57,149.39,76,149.39s-43.79,23.34-43.79,43.35Zm-7.15-67.41H0V234.7H25.06Zm75.19-41h25.07V39.75c0-18-1.17-23.44-8.83-31.53A29.79,29.79,0,0,0,95,0,29.77,29.77,0,0,0,69.09,14.53,25.52,25.52,0,0,0,45.65,0c-15.3,0-20.58,8.07-22.52,11.4h-.35V4.57H0v82H25.06V43.25c0-4.86,0-18.07,13.3-18.07,11.77,0,11.77,12.64,11.77,17V86.6l25.06-2.28V39.69c0-4.56,0-16.88,13-16.88,12,0,12,11.41,12,18.07Zm50.13,68.35H127.59v48.89c0,11.19.87,17.09,7.31,25.17,7.15,9.15,18.83,10.29,23.8,10.29,6.12,0,16.06-.87,21-11.44H180v9.12h22.78v-82H177.72v44.79c0,12.91-6.93,16.58-14.11,16.58-13.23,0-13.23-10.7-13.23-16.29ZM197.17,44.4c0,7.94-5.14,20.85-20.47,20.85-14.65,0-20.2-12.91-20.2-20.53,0-9.13,6.14-21,20-21S197,34.59,197,44.42Zm-1.29,42.2H221v-82H196v6.84h-.3C192.73,6.43,185.3.05,172,.05c-21.59,0-40.78,16.67-40.78,43.28,0,23.26,15,43.44,40.78,43.44,9.47,0,19.52-3.66,23.62-11.57h.3Zm88.93-2.28h22.78v-51c0-16-5-22.47-9.35-26.28a34.86,34.86,0,0,0-20.69-7C263.09,0,258,7.48,255.48,11.41h-.29V4.57H232.4v82h25.07V40.89c0-5,0-17,13.92-17,12.74,0,12.74,11.16,13.42,16.89Zm56.62,88.86c10.83,0,19.77,7.92,19.77,21a19.35,19.35,0,0,1-20,20.26c-10.1,0-19.48-7.92-19.48-21A19.94,19.94,0,0,1,336,173.91a18.28,18.28,0,0,1,5.35-.73Zm-3.83-23.84c-20.74,0-40.27,15.71-40.27,43.2,0,25.69,18.57,42.17,40.27,42.17,12.53,0,19.45-6.74,21.88-11.4H360V226c0,24-18.32,24.37-21.72,24.37-1.75,0-11.73,0-15.6-8.88H295.79c1.67,11.56,12.7,28.56,41.84,28.56,20.7,0,36-8.94,42.46-19.18,4.08-6.83,5-14.66,5-26.81V152.67H360v6.84h-.29c-4.32-6.94-13.11-10.12-22-10.12l-.07,0ZM381,44.47c0,7.94-5.12,20.85-20.36,20.85-14.65,0-20.2-12.91-20.2-20.53,0-9.13,6.14-21,20.06-21s20.47,10.86,20.47,20.69Zm-.49,42.13h25.09v-82H380.51v6.84h-.3C377.29,6.43,369.86.05,356.58.05c-21.56,0-40.77,16.67-40.77,43.28,0,23.26,15,43.44,40.77,43.44,9.5,0,19.55-3.66,23.63-11.57h.3ZM476.2,45a19.31,19.31,0,0,1-19.77,20.17c-10.09,0-19.47-7.94-19.47-21a19.78,19.78,0,0,1,19.47-20.35c10.86,0,19.77,7.94,19.77,21V45Zm20.09,57.43c4.06-6.58,5-14.1,5-25.84v-72H476.2v6.84h-.3C471.43,4.23,462.35.93,453.11.93c-21.46,0-41.68,16.26-41.68,44.71,0,26.62,19.25,43.64,41.68,43.64,13,0,20.13-7,22.65-11.8h.44V79.9c0,21-17.13,21.3-20.28,21.3-1.65,0-11,0-14.56-7.77H412.52c1.65,11.17,12.6,27.56,41.61,27.56,20.56,0,35.75-8.62,42.19-18.52l0-.09Zm73.25-65.91h-36.9a19.16,19.16,0,0,1,36.9,0Zm23.72,16a43.41,43.41,0,0,0,.6-7c0-24.8-18.2-44.49-42.9-44.49s-42.61,21-42.61,43.76a43.29,43.29,0,0,0,43,43.16,39.46,39.46,0,0,0,23.13-7.32,46.66,46.66,0,0,0,16.54-21.28H566.17a16.73,16.73,0,0,1-14.78,8.05c-9.51,0-17.56-5.73-19-14.89Zm51.55-27.34V0c-13.88,0-18.08,7.48-20.22,11.41h-.29V4.57H601.52v82h25.06V40.48c0-12.68,7.49-15.1,18.16-15.4Z"/></g></g></svg>