<svg xmlns="http://www.w3.org/2000/svg" viewBox="0 0 970.63 137.26"><defs><style>.cls-1{fill:#1d1d1b;fill-rule:evenodd;}</style></defs><title>Manager-Magazine</title><g id="Layer_2" data-name="Layer 2"><g id="Layer_1-2" data-name="Layer 1"><path class="cls-1" d="M909.11,29.62h20.51V40.45c3.25-6.62,7.48-12.61,20-12.61,3.08,0,12.2,0,17.74,8.41,3.25,5,3.25,12.78,3.25,20.7v52.42H947.85V56.88c0-7.13-.59-11.82-7-11.82-9,0-9,7.77-9,17.49v46.82H909.11V29.62Z"/><polygon class="cls-1" points="902.28 22.79 879.49 22.79 879.49 0 902.28 0 902.28 22.79 902.28 22.79"/><polygon class="cls-1" points="879.49 29.62 902.28 29.62 902.28 109.37 879.49 109.37 879.49 29.62 879.49 29.62"/><polygon class="cls-1" points="822.53 29.62 872.66 29.62 872.66 43.84 843.7 93.42 872.66 93.42 872.66 109.37 820.25 109.37 820.25 92.94 849.48 45.57 822.53 45.57 822.53 28.94 822.53 29.62"/><path class="cls-1" d="M792.91,74.15c0,7.31-.32,12.32-3.33,16.86-2.07,3.07-4.44,4.37-7.15,4.37-5.23,0-7.3-4.37-7.3-10,0-10.37,5.24-13.44,17.78-15.06v3.88Zm22.79,17.4V59.8c0-9.72-.34-18.79-5.32-23.65-6.17-6.32-15.14-8.43-23.79-8.43-6.82,0-13.62,1.13-19.45,4.39-11.64,6.47-13,16-13.63,20.56L775,54.78c.67-6.32,2.16-12.3,9.82-12.3,8.14,0,8.14,7.27,8.14,14.24V59.8c-24.45,1.3-42.23,7.13-42.23,29.31,0,15.73,10.47,21.88,21.45,21.88,14.3,0,19.62-8.75,22.6-13.94,0,7.29.18,9.08,1.17,12.32H817c-.83-2.77-1.32-4.21-1.32-17.82Z"/><path class="cls-1" d="M717.23,64.91c-7,0-7.46-7.47-7.46-12.32,0-9.23,2.07-13.44,7.78-13.44,4.44,0,6.83,3.08,6.83,13,0,8.43-1.43,12.81-7.15,12.81Zm-9.51,40.19c2.85.31,15.38,1.14,17.92,1.46,3.34.16,8.58,1.62,8.58,7.77s-4.76,8.42-16,8.42c-11.75,0-17.31-2.42-17.31-8.09,0-6,4.29-8.27,6.84-9.56Zm41.69-75.52a18.07,18.07,0,0,1,4.77.65V15.82a23.88,23.88,0,0,0-6-.81c-11.9,0-13.65,7.61-14.76,15.88a35,35,0,0,0-16.82-3.73c-13.51,0-29.22,5.67-29.22,24.62,0,13.46,6.84,17.33,11.59,19.92-5.24,3.09-13.49,7.94-13.49,17.66,0,8.91,7.62,12.48,10.16,13.77-4.91,1.79-12.7,5-12.7,14.91,0,19,25.41,19,32.07,19,12.7,0,38.25-1.78,38.25-26.56,0-6.81-2.07-13.45-8.09-17.66-5.56-4-11-4.38-28.74-5.36-8.41-.64-13-1-13-5.34,0-.64,0-3.72,5.08-6.64a38.26,38.26,0,0,0,10.32,1.46c14.93,0,28.26-7.93,28.26-24,0-1.79,0-9.88-5.88-16,1.43-7,5.71-7.3,8.25-7.3Z"/><path class="cls-1" d="M658.48,74.15c0,7.31-.31,12.32-3.33,16.86-2.06,3.07-4.45,4.37-7.14,4.37-5.24,0-7.3-4.37-7.3-10,0-10.37,5.23-13.44,17.77-15.06v3.88Zm22.78,17.4V59.8c0-9.72-.33-18.79-5.31-23.65-6.16-6.32-15.14-8.43-23.79-8.43-6.82,0-13.64,1.13-19.47,4.39-11.63,6.47-13,16-13.63,20.56l21.45,2.11c.67-6.32,2.17-12.3,9.82-12.3,8.15,0,8.15,7.27,8.15,14.24V59.8c-24.45,1.3-42.25,7.13-42.25,29.31,0,15.73,10.48,21.88,21.46,21.88,14.3,0,19.63-8.75,22.62-13.94,0,7.29.16,9.08,1.17,12.32H682.6c-.83-2.77-1.34-4.21-1.34-17.82Z"/><path class="cls-1" d="M333.48,65.18c-7,0-7.46-7.47-7.46-12.32,0-9.22,2.07-13.44,7.78-13.44,4.44,0,6.83,3.08,6.83,12.95,0,8.43-1.42,12.81-7.15,12.81ZM324,105.37c2.85.31,15.38,1.14,17.93,1.46,3.33.16,8.57,1.63,8.57,7.77s-4.76,8.42-16,8.42c-11.74,0-17.31-2.42-17.31-8.09,0-6,4.29-8.27,6.84-9.56Zm42.66-75.52a17.47,17.47,0,0,1,4.76.66V16.09a23.71,23.71,0,0,0-6-.81c-11.9,0-13.65,7.61-14.76,15.88a35,35,0,0,0-16.82-3.73c-13.51,0-29.22,5.67-29.22,24.62,0,13.46,6.84,17.33,11.59,19.92-5.24,3.09-13.5,7.94-13.5,17.66,0,8.91,7.63,12.48,10.17,13.78-4.92,1.78-12.7,5-12.7,14.9,0,18.95,25.4,18.95,32.07,18.95,12.69,0,38.25-1.78,38.25-26.57,0-6.8-2.07-13.44-8.1-17.64-5.55-4.06-10.95-4.38-28.73-5.37-8.41-.64-13-1-13-5.33,0-.65,0-3.73,5.08-6.65A37.8,37.8,0,0,0,336,77.16c14.92,0,28.26-7.93,28.26-24,0-1.79,0-9.87-5.88-16,1.43-7,5.71-7.3,8.25-7.3Z"/><path class="cls-1" d="M141.27,74.2c0,7.3-.32,12.31-3.33,16.85-2.06,3.08-4.45,4.37-7.15,4.37-5.24,0-7.3-4.37-7.3-10,0-10.37,5.24-13.44,17.78-15.06V74.2Zm22.78,17.35V59.8c0-9.72-.34-18.79-5.32-23.65-6.15-6.32-15.13-8.43-23.78-8.43-6.82,0-13.64,1.13-19.47,4.39-11.63,6.47-13,16-13.63,20.56l21.45,2.11c.67-6.32,2.17-12.3,9.82-12.3,8.15,0,8.15,7.27,8.15,14.24V59.8C116.82,61.1,99,66.93,99,89.11,99,104.84,109.5,111,120.48,111c14.3,0,19.62-8.75,22.62-13.94,0,7.29.16,9.08,1.17,12.32h21.11c-.83-2.77-1.33-4.21-1.33-17.82Z"/><path class="cls-1" d="M517.21,109.37V29.62H540V40.45c2.22-4.52,6.2-12.61,19.08-12.61,13.35,0,15.57,7.93,16.85,12.61,2.38-5.33,6.51-12.61,19.23-12.61,20,0,20,14.88,20,29.27v52.26H592.4V59.32c0-9.08,0-14.26-7.3-14.26-8.32,0-8.65,6.31-8.65,17.81v46.5H556V58.83c0-9.72-.34-13.61-7.15-13.61-8.14,0-8.8,6.47-8.8,17.65v46.5Z"/><path class="cls-1" d="M168.61,29.62h20.5V40.45c3.25-6.62,7.49-12.61,20-12.61,3.08,0,12.2,0,17.73,8.41,3.26,5,3.26,12.78,3.26,20.7v52.42H209.62V56.88c0-7.13-.67-11.82-7.94-11.82-10.29,0-10.29,7.77-10.29,17.49v46.82H168.61V29.62Z"/><path class="cls-1" d="M0,109.37V29.62H20.51V40.45c2.22-4.52,6.2-12.61,19.08-12.61,13.35,0,15.57,7.93,16.85,12.61C58.82,35.12,63,27.84,75.67,27.84c20,0,20,14.88,20,29.27v52.26H75.19V59.32c0-9.08,0-14.26-7.31-14.26-8.32,0-8.64,6.31-8.64,17.81v46.5H38.73V58.83c0-9.72-.33-13.61-7.14-13.61-8.14,0-8.81,6.47-8.81,17.65v46.5Z"/><path class="cls-1" d="M275.7,74.27c0,7.31-.32,12.32-3.33,16.86-2.06,3.07-4.45,4.37-7.15,4.37-5.23,0-7.3-4.37-7.3-10,0-10.37,5.24-13.44,17.78-15.06v3.88Zm22.78,17.28V59.8c0-9.72-.34-18.79-5.32-23.65C287,29.83,278,27.72,269.38,27.72c-6.82,0-13.64,1.13-19.47,4.39-11.63,6.47-13,16-13.63,20.56l21.45,2.11c.67-6.31,2.17-12.3,9.82-12.3,8.15,0,8.15,7.27,8.15,14.24V59.8c-24.45,1.3-42.25,7.13-42.25,29.31,0,15.73,10.48,21.88,21.46,21.88,14.3,0,19.63-8.75,22.62-13.94,0,7.29.16,9.08,1.17,12.32h21.11c-.83-2.77-1.33-4.21-1.33-17.82Z"/><path class="cls-1" d="M399.48,41.38c10.72,0,10.4,13.48,10.24,17.86H389.23c.16-5.68.32-17.86,10.25-17.86Zm.16,54.1c-10.89,0-10.73-11.69-10.57-22.57h41.47c0-9.74-.17-20-5.77-30.84-3.52-6.82-12-14.61-25.77-14.61-10.73,0-21.13,5-26.73,15.25-5.29,9.75-5.93,22.41-5.93,27.6,0,21.27,8.64,40.59,32.82,40.59,25.45,0,29.77-20.45,31.38-27.92l-19.7-1.3c-.64,5.19-1.76,13.8-11.2,13.8Z"/><path class="cls-1" d="M435.19,29.62h18.23V48.94c1.95-6.82,5.86-20.46,18.88-20.46a13.63,13.63,0,0,1,3.9.49V50.76a18,18,0,0,0-3.38-.29C458,50.47,458,67.46,458,73.13v36.24H435.19V29.62Z"/></g></g></svg>