<svg width="76" height="57" viewBox="0 0 76 57" fill="none" xmlns="http://www.w3.org/2000/svg">
<path opacity="0.2" d="M54.7199 24H63.8399V9H12.1599V39H54.7199V24Z" fill="#2781FF"/>
<path opacity="0.2" d="M66.8799 24H72.9599V54H66.8799V24Z" fill="#2781FF"/>
<path d="M47.12 48C47.5231 48 47.9097 47.842 48.1948 47.5607C48.4799 47.2794 48.64 46.8978 48.64 46.5C48.64 46.1022 48.4799 45.7206 48.1948 45.4393C47.9097 45.158 47.5231 45 47.12 45H6.08V4.5C6.08 4.10218 6.24014 3.72064 6.5252 3.43934C6.81025 3.15804 7.19687 3 7.6 3H68.4C68.8031 3 69.1898 3.15804 69.4748 3.43934C69.7599 3.72064 69.92 4.10218 69.92 4.5V16.5C69.92 16.8978 70.0801 17.2794 70.3652 17.5607C70.6503 17.842 71.0369 18 71.44 18C71.8431 18 72.2297 17.842 72.5148 17.5607C72.7999 17.2794 72.96 16.8978 72.96 16.5V4.5C72.96 3.30653 72.4796 2.16193 71.6244 1.31802C70.7692 0.474106 69.6094 0 68.4 0L7.6 0C6.39061 0 5.23076 0.474106 4.37559 1.31802C3.52043 2.16193 3.04 3.30653 3.04 4.5V45H1.52C1.11687 45 0.730253 45.158 0.445198 45.4393C0.160142 45.7206 0 46.1022 0 46.5H0V49.5C0 51.4891 0.800712 53.3968 2.22599 54.8033C3.65126 56.2098 5.58435 57 7.6 57H47.12C47.5231 57 47.9097 56.842 48.1948 56.5607C48.4799 56.2794 48.64 55.8978 48.64 55.5C48.64 55.1022 48.4799 54.7206 48.1948 54.4393C47.9097 54.158 47.5231 54 47.12 54H7.6C6.39061 54 5.23076 53.5259 4.37559 52.682C3.52043 51.8381 3.04 50.6935 3.04 49.5V48H47.12Z" fill="#2781FF"/>
<path d="M72.9599 21H54.7199C53.9137 21 53.1404 21.3161 52.5703 21.8787C52.0002 22.4413 51.6799 23.2044 51.6799 24V54C51.6799 54.7957 52.0002 55.5587 52.5703 56.1213C53.1404 56.6839 53.9137 57 54.7199 57H72.9599C73.7662 57 74.5394 56.6839 75.1095 56.1213C75.6797 55.5587 75.9999 54.7957 75.9999 54V24C75.9999 23.2044 75.6797 22.4413 75.1095 21.8787C74.5394 21.3161 73.7662 21 72.9599 21ZM72.9599 54H54.7199V24H72.9599V54Z" fill="#2781FF"/>
<path d="M62.32 51H65.36C65.7632 51 66.1498 50.842 66.4348 50.5607C66.7199 50.2794 66.88 49.8978 66.88 49.5C66.88 49.1022 66.7199 48.7206 66.4348 48.4393C66.1498 48.158 65.7632 48 65.36 48H62.32C61.9169 48 61.5303 48.158 61.2452 48.4393C60.9602 48.7206 60.8 49.1022 60.8 49.5C60.8 49.8978 60.9602 50.2794 61.2452 50.5607C61.5303 50.842 61.9169 51 62.32 51Z" fill="#2781FF"/>
</svg>
