<svg width="64" height="64" viewBox="0 0 64 64" fill="none" xmlns="http://www.w3.org/2000/svg">
<path opacity="0.2" d="M44.7974 8.19204C39.9334 3.07204 32.7654 1.28004 26.1094 3.58404C28.9254 4.60804 31.2294 6.14404 33.2774 8.19204C36.8614 11.776 38.6534 16.64 38.1414 21.76L36.8614 47.616C36.8614 48.384 36.3494 48.896 35.5814 48.896H47.1014C47.8694 48.896 48.3814 48.384 48.3814 47.616L49.6614 21.76C50.1734 16.64 48.3814 11.776 44.7974 8.19204Z" fill="#06A0E3"/>
<path d="M31.9995 0C20.7355 0 11.5195 9.216 11.5195 20.736C11.5195 20.992 11.5195 21.504 11.5195 21.76L12.7995 47.616C12.7995 49.664 14.5915 51.2 16.6395 51.2H28.1595V64H35.8395V51.2H47.3595C49.4075 51.2 50.9435 49.664 51.1995 47.616L52.4795 21.76C52.9915 10.496 44.2875 0.768 33.0235 0C32.7675 0 32.2555 0 31.9995 0ZM33.2795 61.44H30.7195V51.2H33.2795V61.44ZM48.6395 47.36C48.6395 48.128 48.1275 48.64 47.3595 48.64H16.6395C15.8715 48.64 15.3595 48.128 15.3595 47.36L14.0795 21.504C13.8235 16.384 15.6155 11.52 19.1995 7.936C25.8555 0.768 37.1195 0.512 44.2875 7.168C44.5435 7.424 44.7995 7.68 45.0555 7.936C48.6395 11.52 50.4315 16.384 50.1755 21.504L48.6395 47.36Z" fill="#06A0E3"/>
<path d="M31.9969 5.12012C23.5489 5.12012 16.6369 12.0321 16.3809 20.4801H47.6129C47.3569 12.0321 40.4449 5.12012 31.9969 5.12012ZM35.0689 17.9201L37.8849 15.1041C38.3969 14.5921 38.3969 13.8241 37.8849 13.3121C37.3729 12.8001 36.6049 12.8001 36.0929 13.3121L31.4849 17.9201H19.1969C19.7089 15.6161 20.7329 13.5681 22.5249 11.7761C27.3889 6.65612 35.8369 6.40012 40.9569 11.2641C41.2129 11.5201 41.2129 11.5201 41.4689 11.7761C43.0049 13.5681 44.2849 15.6161 44.7969 17.9201H35.0689Z" fill="#06A0E3"/>
<path d="M31.9996 30.72C28.4156 30.72 25.5996 33.536 25.5996 37.12C25.5996 40.704 28.4156 43.52 31.9996 43.52C35.5836 43.52 38.3996 40.704 38.3996 37.12C38.3996 33.536 35.5836 30.72 31.9996 30.72ZM31.9996 40.96C29.9516 40.96 28.1596 39.168 28.1596 37.12C28.1596 35.072 29.9516 33.28 31.9996 33.28C34.0476 33.28 35.8396 35.072 35.8396 37.12C35.8396 39.168 34.0476 40.96 31.9996 40.96Z" fill="#06A0E3"/>
<path d="M37.1196 25.6001H26.8796C26.1116 25.6001 25.5996 26.1121 25.5996 26.8801C25.5996 27.6481 26.1116 28.1601 26.8796 28.1601H37.1196C37.8876 28.1601 38.3996 27.6481 38.3996 26.8801C38.3996 26.1121 37.8876 25.6001 37.1196 25.6001Z" fill="#06A0E3"/>
</svg>
