<?xml version="1.0" encoding="UTF-8" standalone="no"?>
<!-- Created with Keyshape -->
<svg xmlns="http://www.w3.org/2000/svg" shape-rendering="geometricPrecision" text-rendering="geometricPrecision" viewBox="0 0 824 1048" style="white-space: pre;">
    <style>
@keyframes a0_t { 0% { transform: translate(0px,0px); } 100% { transform: translate(0px,0px); } }
@keyframes a0_w { 0% { width: 824px; } 100% { width: 824px; } }
@keyframes a0_h { 0% { height: 1048px; } 100% { height: 1048px; } }
@keyframes a1_t { 0% { transform: translate(78.666667px,980.666687px); } 100% { transform: translate(78.666667px,980.666687px); } }
@keyframes a2_t { 0% { transform: translate(120.062931px,980.667px); } 100% { transform: translate(120.062931px,980.667px); } }
@keyframes a3_t { 0% { transform: translate(161.459195px,980.667px); } 100% { transform: translate(161.459195px,980.667px); } }
@keyframes a4_t { 0% { transform: translate(202.855459px,980.667px); } 100% { transform: translate(202.855459px,980.667px); } }
@keyframes a5_t { 0% { transform: translate(244.251723px,980.667px); } 100% { transform: translate(244.251723px,980.667px); } }
@keyframes a6_t { 0% { transform: translate(285.647987px,980.667px); } 100% { transform: translate(285.647987px,980.667px); } }
@keyframes a7_t { 0% { transform: translate(327.04425px,980.667px); } 100% { transform: translate(327.04425px,980.667px); } }
@keyframes a8_t { 0% { transform: translate(413.126314px,522.337772px) rotate(217.114564deg); animation-timing-function: cubic-bezier(0.25,0,0.75,1); } 7.7777% { transform: translate(413.126314px,522.337772px) rotate(-0.119713deg); } 22.2222% { transform: translate(413.126314px,522.337772px) rotate(-0.119713deg); } 81.1111% { transform: translate(413.126314px,522.337772px) rotate(-0.119713deg); animation-timing-function: cubic-bezier(0.25,0,0.75,1); } 88.8888% { transform: translate(413.126314px,522.337772px) rotate(217.114564deg); } 100% { transform: translate(413.126314px,522.337772px) rotate(217.114564deg); } }
@keyframes a9_t { 0% { transform: scale(1,1); } 1.1111% { transform: scale(1.1,1.1); animation-timing-function: cubic-bezier(0.25,0,0.75,1); } 7.7777% { transform: scale(1,1); } 22.2222% { transform: scale(1,1); } 100% { transform: scale(1,1); } }
@keyframes orange_t { 0% { transform: translate(-1.13253px,1.6587px); } 100% { transform: translate(-1.13253px,1.6587px); } }
@keyframes orange_o { 0% { opacity: 0; } 1.1111% { opacity: 1; } 100% { opacity: 1; } }
@keyframes orange_d { 0% { d: path('M1.13253,265.331C0.74969,265.332,0.366656,265.333,-0.0165664,265.333C-74.4092,265.333,-141.65,234.712,-189.826,185.385L0.7788,-1.6587Z'); } 77.7778% { d: path('M1.13253,265.331C0.74969,265.332,0.366656,265.333,-0.0165664,265.333C-74.4092,265.333,-141.65,234.712,-189.826,185.385L1.47878,-1.76675Z'); } 100% { d: path('M1.13253,265.331C0.74969,265.332,0.366656,265.333,-0.0165664,265.333C-74.4092,265.333,-141.65,234.712,-189.826,185.385L1.47878,-1.76675Z'); } }
@keyframes a10_t { 0% { transform: translate(412.786751px,522.356102px) rotate(-240.096958deg); animation-timing-function: cubic-bezier(0.25,0,1,1); } 13.3333% { transform: translate(412.786751px,522.356102px) rotate(-360.151353deg); } 22.2222% { transform: translate(412.786751px,522.356102px) rotate(-360.151353deg); } 75.5555% { transform: translate(412.786751px,522.356102px) rotate(-360.151353deg); animation-timing-function: cubic-bezier(0,0,0.75,1); } 88.8888% { transform: translate(412.786751px,522.356102px) rotate(-240.096958deg); } 100% { transform: translate(412.786751px,522.356102px) rotate(-240.096958deg); } }
@keyframes a11_t { 0% { transform: scale(1,1); } 1.1111% { transform: scale(1.1,1.1); animation-timing-function: cubic-bezier(0,0,0.355,1); } 13.3333% { transform: scale(1,1); } 22.2222% { transform: scale(1,1); } 100% { transform: scale(1,1); } }
@keyframes yellow_t { 0% { transform: translate(-0.792967px,1.64037px); } 100% { transform: translate(-0.792967px,1.64037px); } }
@keyframes yellow_o { 0% { opacity: 0; } 1.1111% { opacity: 1; } 100% { opacity: 1; } }
@keyframes yellow_f { 0% { fill: #f2c80f; } 100% { fill: #f2c80f; } }
@keyframes yellow_d { 0% { d: path('M-189.459,185.761C-236.392,137.899,-265.333,72.3293,-265.333,0C-265.333,-0.454757,-265.332,-0.909247,-265.33,-1.36347L0.792967,-1.64037C0.28821,-1.13561,-91.3434,88.5502,-189.459,185.761Z'); } 77.7778% { d: path('M-189.459,185.761C-236.392,137.899,-265.333,72.3293,-265.333,0C-265.333,-0.454757,-265.332,-0.909247,-265.33,-1.36347L0.67067,-1.57004C0.165913,-1.06528,-91.3434,88.5502,-189.459,185.761Z'); } 100% { d: path('M-189.459,185.761C-236.392,137.899,-265.333,72.3293,-265.333,0C-265.333,-0.454757,-265.332,-0.909247,-265.33,-1.36347L0.67067,-1.57004C0.165913,-1.06528,-91.3434,88.5502,-189.459,185.761Z'); } }
@keyframes a12_t { 0% { transform: translate(412.780084px,522.857142px) rotate(279.057126deg); animation-timing-function: cubic-bezier(0.22,0,0.295,0.965); } 8.8888% { transform: translate(412.780084px,522.857142px) rotate(-0.319829deg); } 22.2222% { transform: translate(412.780084px,522.857142px) rotate(-0.319829deg); } 77.7777% { transform: translate(412.780084px,522.857142px) rotate(-0.319829deg); } 80% { transform: translate(412.780084px,522.857142px) rotate(-0.319829deg); animation-timing-function: cubic-bezier(0.705,0.035,0.78,1); } 88.8888% { transform: translate(412.780084px,522.857142px) rotate(279.057126deg); } 100% { transform: translate(412.780084px,522.857142px) rotate(279.057126deg); } }
@keyframes a13_t { 0% { transform: scale(1,1); } 1.1111% { transform: scale(1.1,1.1); animation-timing-function: cubic-bezier(0.695,0,1,1); } 8.8888% { transform: scale(1,1); } 22.2222% { transform: scale(1,1); } 100% { transform: scale(1,1); } }
@keyframes light-gray_t { 0% { transform: translate(-0.7863px,1.13933px); } 100% { transform: translate(-0.7863px,1.13933px); } }
@keyframes light-gray_o { 0% { opacity: 0; } 1.1111% { opacity: 1; } 100% { opacity: 1; } }
@keyframes light-gray_f { 0% { fill: #5f6b6d; } 11.1111% { fill: #5f6b6d; } 100% { fill: #5f6b6d; } }
@keyframes light-gray_d { 0% { d: path('M-163.691,-208.837L0.7863,-1.6437L-265.331,-1.13933C-264.976,-85.4501,-225.299,-160.48,-163.691,-208.837Z'); } 11.1111% { d: path('M-163.691,-208.837L0.7863,-1.6437L-265.331,-1.13933C-264.976,-85.4501,-225.299,-160.48,-163.691,-208.837Z'); } 100% { d: path('M-163.691,-208.837L0.7863,-1.6437L-265.331,-1.13933C-264.976,-85.4501,-225.299,-160.48,-163.691,-208.837Z'); } }
@keyframes a14_t { 0% { transform: translate(412.790084px,522.352772px) rotate(-130.975423deg); animation-timing-function: cubic-bezier(1,0,0.305,1); } 12.2222% { transform: translate(412.790084px,522.352772px) rotate(-0.269479deg); } 22.2222% { transform: translate(412.790084px,522.352772px) rotate(-0.269479deg); } 76.6666% { transform: translate(412.790084px,522.352772px) rotate(-0.269479deg); animation-timing-function: cubic-bezier(0.695,0,0,1); } 88.8888% { transform: translate(412.790084px,522.352772px) rotate(-130.975423deg); } 100% { transform: translate(412.790084px,522.352772px) rotate(-130.975423deg); } }
@keyframes a15_t { 0% { transform: scale(1,1); } 1.1111% { transform: scale(1.1,1.1); animation-timing-function: cubic-bezier(0.5,0,0.5,1); } 12.2222% { transform: scale(1,1); } 22.2222% { transform: scale(1,1); } 100% { transform: scale(1,1); } }
@keyframes light-blue_t { 0% { transform: translate(-0.7963px,1.6437px); } 100% { transform: translate(-0.7963px,1.6437px); } }
@keyframes light-blue_o { 0% { opacity: 0; } 1.1111% { opacity: 1; } 100% { opacity: 1; } }
@keyframes light-blue_f { 0% { fill: #8ad4eb; } 11.1111% { fill: #8ad4eb; } 100% { fill: #8ad4eb; } }
@keyframes light-blue_d { 0% { d: path('M-98.658,-246.385L0.7963,-1.6437L-164.147,-208.479C-144.392,-224.054,-122.37,-236.881,-98.658,-246.385Z'); } 11.1111% { d: path('M-98.658,-246.385L0.7963,-1.6437L-164.147,-208.479C-144.392,-224.054,-122.37,-236.881,-98.658,-246.385Z'); } 77.7778% { d: path('M-98.658,-246.385L0.893317,-1.55291L-164.147,-208.479C-144.392,-224.054,-122.37,-236.881,-98.658,-246.385Z'); } 100% { d: path('M-98.658,-246.385L0.893317,-1.55291L-164.147,-208.479C-144.392,-224.054,-122.37,-236.881,-98.658,-246.385Z'); } }
@keyframes a16_t { 0% { transform: translate(413.260084px,522.347772px) rotate(146.310719deg); animation-timing-function: cubic-bezier(0.5,-0.03,0.37,1); } 10% { transform: translate(413.260084px,522.347772px) rotate(-0.336577deg); } 22.2222% { transform: translate(413.260084px,522.347772px) rotate(-0.336577deg); } 78.8888% { transform: translate(413.260084px,522.347772px) rotate(-0.336577deg); animation-timing-function: cubic-bezier(0.63,0,0.5,1.03); } 88.8888% { transform: translate(413.260084px,522.347772px) rotate(146.310719deg); } 100% { transform: translate(413.260084px,522.347772px) rotate(146.310719deg); } }
@keyframes pink_t { 0% { transform: scale(1,1) translate(-1.2663px,1.6487px); } 1.1111% { transform: scale(1.1,1.1) translate(-1.2663px,1.6487px); animation-timing-function: cubic-bezier(0.25,0,0.75,1); } 10% { transform: scale(1,1) translate(-1.2663px,1.6487px); } 22.2222% { transform: scale(1,1) translate(-1.2663px,1.6487px); } 100% { transform: scale(1,1) translate(-1.2663px,1.6487px); } }
@keyframes pink_o { 0% { opacity: 0; } 1.1111% { opacity: 1; } 100% { opacity: 1; } }
@keyframes pink_f { 0% { fill: #ec008c; } 11.1111% { fill: #ec008c; } 100% { fill: #ec008c; } }
@keyframes pink_d { 0% { d: path('M1.2663,-265.33L0.7813,-1.6487L-98.861,-246.304C-68.3079,-258.578,-34.9428,-265.333,0,-265.333C0.422331,-265.333,0.844432,-265.332,1.2663,-265.33Z'); } 11.1111% { d: path('M1.2663,-265.33L0.7813,-1.6487L-98.861,-246.304C-68.3079,-258.578,-34.9428,-265.333,0,-265.333C0.422331,-265.333,0.844432,-265.332,1.2663,-265.33Z'); } 77.7778% { d: path('M1.2663,-265.33L1.58378,-1.27748L-98.861,-246.304C-68.3079,-258.578,-34.9428,-265.333,0,-265.333C0.422331,-265.333,0.844432,-265.332,1.2663,-265.33Z'); } 100% { d: path('M1.2663,-265.33L1.58378,-1.27748L-98.861,-246.304C-68.3079,-258.578,-34.9428,-265.333,0,-265.333C0.422331,-265.333,0.844432,-265.332,1.2663,-265.33Z'); } }
@keyframes a17_t { 0% { transform: translate(412.772584px,523.263113px) rotate(-174.215483deg); animation-timing-function: cubic-bezier(0,0,0.303891,1); } 8.8888% { transform: translate(412.772584px,523.263113px) rotate(-0.373012deg); } 22.2222% { transform: translate(412.772584px,523.263113px) rotate(-0.373012deg); } 80% { transform: translate(412.772584px,523.263113px) rotate(-0.373012deg); animation-timing-function: cubic-bezier(0.696109,0,1,1); } 88.8888% { transform: translate(412.772584px,523.263113px) rotate(-174.215483deg); } 100% { transform: translate(412.772584px,523.263113px) rotate(-174.215483deg); } }
@keyframes a18_t { 0% { transform: scale(1,1); animation-timing-function: cubic-bezier(0.355,0,0.5,0.965); } 4.4444% { transform: scale(1.2,1.2); animation-timing-function: cubic-bezier(0.375,0,0.565,1); } 8.8888% { transform: scale(1,1); } 22.2222% { transform: scale(1,1); } 100% { transform: scale(1,1); } }
@keyframes teal_t { 0% { transform: translate(-0.7788px,0.733359px); } 100% { transform: translate(-0.7788px,0.733359px); } }
@keyframes teal_o { 0% { opacity: 0; } 1.1111% { opacity: 1; } 100% { opacity: 1; } }
@keyframes teal_f { 0% { fill: #02b8aa; } 11.1111% { fill: #02b8aa; } 100% { fill: #02b8aa; } }
@keyframes teal_d { 0% { d: path('M265.332,-0.733359C264.938,-146.491,147.015,-264.613,1.33297,-265.33L0.7788,-1.6587Z'); } 11.1111% { d: path('M265.332,-0.733359C264.938,-146.491,147.015,-264.613,1.33297,-265.33L0.7788,-1.6587Z'); } 77.7778% { d: path('M265.332,-0.733359C264.938,-146.491,147.015,-264.613,1.33297,-265.33L0.862639,0.31666Z'); } 100% { d: path('M265.332,-0.733359C264.938,-146.491,147.015,-264.613,1.33297,-265.33L0.862639,0.31666Z'); } }
@keyframes a19_t { 0% { transform: translate(412.660084px,521.662417px) rotate(-215.050669deg); animation-timing-function: cubic-bezier(0,0,0.4,0.96); } 14.4444% { transform: translate(412.660084px,521.662417px) rotate(-0.201614deg); } 74.4444% { transform: translate(412.660084px,521.662417px) rotate(-0.201614deg); animation-timing-function: cubic-bezier(0.6,0.04,1,1); } 88.8888% { transform: translate(412.660084px,521.662417px) rotate(-215.050669deg); } 100% { transform: translate(412.660084px,521.662417px) rotate(-215.050669deg); } }
@keyframes dark-gray_t { 0% { transform: scale(1,1) translate(-0.6663px,2.33403px); animation-timing-function: cubic-bezier(0,0,1,1); } 1.1111% { transform: scale(1.1,1.1) translate(-0.6663px,2.33403px); animation-timing-function: cubic-bezier(0.37,0,0.585,0.965); } 14.4444% { transform: scale(1,1) translate(-0.6663px,2.33403px); } 22.2222% { transform: scale(1,1) translate(-0.6663px,2.33403px); } 100% { transform: scale(1,1) translate(-0.6663px,2.33403px); } }
@keyframes dark-gray_o { 0% { opacity: 0; } 1.1111% { opacity: 1; } 100% { opacity: 1; } }
@keyframes dark-gray_d { 0% { d: path('M0.6663,265.332C146.899,264.973,265.333,146.317,265.333,0C265.333,-0.778799,265.33,-1.55681,265.323,-2.33403L0.7788,-1.6587Z'); } 77.7778% { d: path('M0.6663,265.332C146.899,264.973,265.333,146.317,265.333,0C265.333,-0.778799,265.33,-1.55681,265.323,-2.33403L0.783925,-2.55052Z'); } 100% { d: path('M0.6663,265.332C146.899,264.973,265.333,146.317,265.333,0C265.333,-0.778799,265.33,-1.55681,265.323,-2.33403L0.783925,-2.55052Z'); } }
@keyframes pink-circle_t { 0% { transform: translate(78.666667px,932.666667px) scale(1,1); } 5.5555% { transform: translate(78.666667px,932.666667px) scale(1,1); } 6.6666% { transform: translate(78.666667px,932.666667px) scale(1.2,1.2); } 10% { transform: translate(78.666667px,932.666667px) scale(1,1); } 100% { transform: translate(78.666667px,932.666667px) scale(1,1); } }
@keyframes pink-circle_f { 0% { fill: #ec008c; } 100% { fill: #ec008c; } }
@keyframes orange-circle_t { 0% { transform: translate(120.062931px,932.666626px) scale(1,1); } 3.3333% { transform: translate(120.062931px,932.666626px) scale(1,1); } 4.4444% { transform: translate(120.062931px,932.666626px) scale(1.2,1.2); } 7.7777% { transform: translate(120.062931px,932.666626px) scale(1,1); } 100% { transform: translate(120.062931px,932.666626px) scale(1,1); } }
@keyframes orange-circle_f { 0% { fill: #fd625d; } 100% { fill: #fd625d; } }
@keyframes yellow-circle_t { 0% { transform: translate(161.459195px,932.666626px) scale(1,1); } 8.8888% { transform: translate(161.459195px,932.666626px) scale(1,1); } 10% { transform: translate(161.459195px,932.666626px) scale(1.2,1.2); } 13.3333% { transform: translate(161.459195px,932.666626px) scale(1,1); } 100% { transform: translate(161.459195px,932.666626px) scale(1,1); } }
@keyframes yellow-circle_f { 0% { fill: #f2c80f; } 100% { fill: #f2c80f; } }
@keyframes teal-2_t { 0% { transform: translate(202.855459px,932.666626px) scale(1,1); } 4.4444% { transform: translate(202.855459px,932.666626px) scale(1,1); } 5.5555% { transform: translate(202.855459px,932.666626px) scale(1.2,1.2); } 8.8888% { transform: translate(202.855459px,932.666626px) scale(1,1); } 100% { transform: translate(202.855459px,932.666626px) scale(1,1); } }
@keyframes teal-2_f { 0% { fill: #02b8aa; } 100% { fill: #02b8aa; } }
@keyframes light-blue-2_t { 0% { transform: translate(244.251723px,932.666626px) scale(1,1); } 7.7777% { transform: translate(244.251723px,932.666626px) scale(1,1); } 8.8888% { transform: translate(244.251723px,932.666626px) scale(1.2,1.2); } 12.2222% { transform: translate(244.251723px,932.666626px) scale(1,1); } 100% { transform: translate(244.251723px,932.666626px) scale(1,1); } }
@keyframes light-blue-2_f { 0% { fill: #8ad4eb; } 100% { fill: #8ad4eb; } }
@keyframes light-gray-2_t { 0% { transform: translate(285.647987px,932.666626px) scale(1,1); } 4.4444% { transform: translate(285.647987px,932.666626px) scale(1,1); } 5.5555% { transform: translate(285.647987px,932.666626px) scale(1.2,1.2); } 8.8888% { transform: translate(285.647987px,932.666626px) scale(1,1); } 100% { transform: translate(285.647987px,932.666626px) scale(1,1); } }
@keyframes light-gray-2_f { 0% { fill: #5f6b6d; } 100% { fill: #5f6b6d; } }
@keyframes dark-gray-2_t { 0% { transform: translate(327.04425px,932.666626px) scale(1,1); } 10% { transform: translate(327.04425px,932.666626px) scale(1,1); } 11.1111% { transform: translate(327.04425px,932.666626px) scale(1.2,1.2); } 14.4444% { transform: translate(327.04425px,932.666626px) scale(1,1); } 100% { transform: translate(327.04425px,932.666626px) scale(1,1); } }
@keyframes dark-gray-2_f { 0% { fill: #374649; } 100% { fill: #374649; } }
    </style>
    <rect width="824" height="1048" fill="#ffffff" stroke="none" transform="translate(390,503) translate(-390,-503)" style="animation: 9s linear infinite both a0_t, 9s linear infinite both a0_w, 9s linear infinite both a0_h;"/>
    <path fill="#1f1f1f" stroke="none" d="M9.32,0L14.16,0L14.16,-24.08L22.32,-24.08L22.32,-28.4L1.28,-28.4L1.28,-24.08L9.32,-24.08ZM31.9219,0.32C37.9219,0.32,42.1619,-3.8,42.1619,-9.72C42.1619,-15.72,37.9219,-19.8,31.9219,-19.8C25.7619,-19.8,21.6819,-15.48,21.6819,-9.72C21.6819,-4,25.7619,0.32,31.9219,0.32ZM31.9219,-3.76C28.5619,-3.76,26.2419,-6.4,26.2419,-9.72C26.2419,-13.12,28.5219,-15.76,31.9219,-15.76C35.1219,-15.76,37.6019,-13.32,37.6019,-9.72C37.6019,-6.2,35.0819,-3.76,31.9219,-3.76ZM52.6419,0.32C55.2019,0.32,56.4419,-0.2,57.6019,-0.84L56.4419,-4.72C55.4019,-4.16,54.3219,-3.88,53.5619,-3.88C52.2819,-3.88,51.6819,-4.6,51.6819,-6.6L51.6819,-15.72L57.4019,-15.72L57.4019,-19.52L51.6819,-19.52L51.6819,-26.48L47.2019,-26L47.2019,-19.52L44.8019,-19.52L44.8019,-15.72L47.2019,-15.72L47.2019,-6.16C47.2019,-1.8,49.2819,0.32,52.6419,0.32ZM68.8319,0.32C71.5519,0.32,73.6319,-0.72,75.0319,-2.6L75.1119,-2.56L75.1119,0L79.3919,0L79.3919,-19.52L74.9119,-19.52L74.9119,-17.16L74.8319,-17.12C73.4319,-18.88,71.2719,-19.8,68.7919,-19.8C63.4319,-19.8,59.3919,-15.56,59.3919,-9.68C59.3919,-3.64,63.4319,0.32,68.8319,0.32ZM69.5519,-3.76C66.2319,-3.76,63.9519,-6.2,63.9519,-9.64C63.9519,-13.4,66.4319,-15.76,69.5519,-15.76C72.7519,-15.76,75.1119,-13.12,75.1119,-9.64C75.1119,-6.12,72.5919,-3.76,69.5519,-3.76ZM85.3094,0L89.7894,0L89.7894,-29.44L85.3094,-29.44ZM104.623,0L109.663,0L111.783,-6.12L123.383,-6.12L125.543,0L130.583,0L119.943,-28.4L115.223,-28.4ZM113.263,-10.28L117.543,-22.6L117.623,-22.6L121.943,-10.28ZM142.658,0.32C146.897,0.32,149.417,-1.2,151.057,-3.32L147.978,-6.04C146.977,-4.72,145.217,-3.76,143.057,-3.76C139.617,-3.76,137.258,-6.16,137.258,-9.76C137.258,-13.32,139.577,-15.76,143.057,-15.76C145.178,-15.76,146.857,-14.84,147.978,-13.52L151.018,-16.16C149.057,-18.56,145.857,-19.8,142.818,-19.8C136.898,-19.8,132.697,-15.72,132.697,-9.72C132.697,-3.76,136.898,0.32,142.658,0.32ZM160.939,0.32C163.499,0.32,164.739,-0.2,165.899,-0.84L164.739,-4.72C163.699,-4.16,162.619,-3.88,161.859,-3.88C160.579,-3.88,159.979,-4.6,159.979,-6.6L159.979,-15.72L165.699,-15.72L165.699,-19.52L159.979,-19.52L159.979,-26.48L155.499,-26L155.499,-19.52L153.099,-19.52L153.099,-15.72L155.499,-15.72L155.499,-6.16C155.499,-1.8,157.579,0.32,160.939,0.32ZM172.253,-22.4C173.932,-22.4,175.292,-23.76,175.292,-25.4C175.292,-27,173.932,-28.36,172.253,-28.36C170.572,-28.36,169.253,-27,169.253,-25.4C169.253,-23.76,170.572,-22.4,172.253,-22.4ZM170.012,0L174.492,0L174.492,-19.52L170.012,-19.52ZM186.208,0L190.488,0L198.247,-19.52L193.488,-19.52L188.408,-5.6L188.367,-5.6L183.288,-19.52L178.488,-19.52ZM218.604,-10C218.604,-15.68,214.884,-19.8,209.404,-19.8C203.684,-19.8,199.604,-15.76,199.604,-9.76C199.604,-3.64,203.804,0.32,209.724,0.32C213.924,0.32,216.364,-1.24,218.004,-3.36L214.884,-6.04C213.884,-4.8,212.284,-3.76,209.964,-3.76C206.924,-3.76,204.804,-5.44,204.244,-8.28L218.484,-8.28C218.524,-8.6,218.604,-9.28,218.604,-10ZM209.364,-15.76C211.924,-15.76,213.524,-14.16,214.084,-11.8L204.324,-11.8C204.964,-14.36,206.884,-15.76,209.364,-15.76ZM234.527,0L243.687,0C252.807,0,258.327,-5.8,258.327,-14.16C258.327,-22.56,252.567,-28.4,243.567,-28.4L234.527,-28.4ZM239.367,-4.32L239.367,-24.08L243.647,-24.08C249.367,-24.08,253.327,-19.92,253.327,-14.16C253.327,-8.52,249.407,-4.32,243.407,-4.32ZM271.644,0.32C274.364,0.32,276.444,-0.72,277.844,-2.6L277.924,-2.56L277.924,0L282.204,0L282.204,-19.52L277.724,-19.52L277.724,-17.16L277.644,-17.12C276.244,-18.88,274.084,-19.8,271.604,-19.8C266.244,-19.8,262.204,-15.56,262.204,-9.68C262.204,-3.64,266.244,0.32,271.644,0.32ZM272.364,-3.76C269.044,-3.76,266.764,-6.2,266.764,-9.64C266.764,-13.4,269.244,-15.76,272.364,-15.76C275.564,-15.76,277.924,-13.12,277.924,-9.64C277.924,-6.12,275.404,-3.76,272.364,-3.76ZM290.162,7.92L294.802,7.92L305.522,-19.52L300.922,-19.52L295.922,-6.44L295.842,-6.44L290.482,-19.52L285.682,-19.52L293.682,-1.08ZM314.926,0.32C319.886,0.32,322.206,-2.32,322.206,-5.6C322.206,-9.48,319.606,-10.24,315.446,-11.88C313.566,-12.6,312.366,-13.28,312.366,-14.24C312.366,-15.44,313.606,-15.92,314.486,-15.92C316.006,-15.92,317.806,-15.32,319.366,-13.84L321.606,-17.36C319.446,-19.12,317.206,-19.8,314.726,-19.8C310.726,-19.8,307.846,-17.48,307.846,-14.28C307.846,-10.44,310.606,-9,313.806,-7.88C316.366,-7,317.646,-6.52,317.646,-5.52C317.646,-4.36,316.646,-3.6,314.926,-3.6C312.526,-3.6,310.846,-4.36,309.286,-5.88L307.046,-2.52C309.086,-0.72,311.766,0.32,314.926,0.32ZM337.358,7.92L341.837,7.92L341.837,-2.36L341.918,-2.4C343.358,-0.64,345.397,0.32,348.038,0.32C353.478,0.32,357.518,-3.64,357.518,-9.68C357.518,-15.56,353.478,-19.8,348.078,-19.8C345.517,-19.8,343.358,-18.88,341.918,-17.2L341.837,-17.2L341.837,-19.52L337.358,-19.52ZM347.358,-3.76C344.158,-3.76,341.638,-6.12,341.638,-9.64C341.638,-13.12,343.957,-15.76,347.318,-15.76C350.438,-15.76,352.957,-13.4,352.957,-9.64C352.957,-6.2,350.638,-3.76,347.358,-3.76ZM380.041,-10C380.041,-15.68,376.321,-19.8,370.841,-19.8C365.121,-19.8,361.041,-15.76,361.041,-9.76C361.041,-3.64,365.241,0.32,371.161,0.32C375.361,0.32,377.801,-1.24,379.441,-3.36L376.321,-6.04C375.321,-4.8,373.721,-3.76,371.401,-3.76C368.361,-3.76,366.241,-5.44,365.681,-8.28L379.921,-8.28C379.961,-8.6,380.041,-9.28,380.041,-10ZM370.801,-15.76C373.361,-15.76,374.961,-14.16,375.521,-11.8L365.761,-11.8C366.401,-14.36,368.321,-15.76,370.801,-15.76ZM384.686,0L389.166,0L389.166,-9.24C389.166,-12.44,391.086,-14.88,394.486,-14.88C394.806,-14.88,395.326,-14.84,395.846,-14.8L395.846,-19.8L395.286,-19.8C392.926,-19.8,390.766,-18.64,389.246,-16.6L389.166,-16.6L389.166,-19.52L384.686,-19.52ZM419.159,0L423.439,0L434.039,-28.4L428.879,-28.4L421.359,-6.96L421.319,-6.96L413.759,-28.4L408.559,-28.4ZM452.635,-10C452.635,-15.68,448.915,-19.8,443.435,-19.8C437.715,-19.8,433.635,-15.76,433.635,-9.76C433.635,-3.64,437.835,0.32,443.755,0.32C447.955,0.32,450.395,-1.24,452.035,-3.36L448.915,-6.04C447.915,-4.8,446.315,-3.76,443.995,-3.76C440.955,-3.76,438.835,-5.44,438.275,-8.28L452.515,-8.28C452.555,-8.6,452.635,-9.28,452.635,-10ZM443.395,-15.76C445.955,-15.76,447.555,-14.16,448.115,-11.8L438.355,-11.8C438.995,-14.36,440.915,-15.76,443.395,-15.76ZM457.279,0L461.759,0L461.759,-9.92C461.759,-13.76,463.759,-15.76,466.999,-15.76C469.679,-15.76,471.239,-14.4,471.239,-10.52L471.239,0L475.719,0L475.719,-11.68C475.719,-17.52,472.719,-19.8,468.439,-19.8C465.799,-19.8,463.439,-18.88,461.799,-17.08L461.759,-17.08L461.759,-29.44L457.279,-29.44ZM483.721,-22.4C485.401,-22.4,486.761,-23.76,486.761,-25.4C486.761,-27,485.401,-28.36,483.721,-28.36C482.041,-28.36,480.721,-27,480.721,-25.4C480.721,-23.76,482.041,-22.4,483.721,-22.4ZM481.481,0L485.961,0L485.961,-19.52L481.481,-19.52ZM500.876,0.32C505.116,0.32,507.636,-1.2,509.276,-3.32L506.196,-6.04C505.196,-4.72,503.436,-3.76,501.276,-3.76C497.836,-3.76,495.476,-6.16,495.476,-9.76C495.476,-13.32,497.796,-15.76,501.276,-15.76C503.396,-15.76,505.076,-14.84,506.196,-13.52L509.236,-16.16C507.276,-18.56,504.076,-19.8,501.036,-19.8C495.116,-19.8,490.916,-15.72,490.916,-9.72C490.916,-3.76,495.116,0.32,500.876,0.32ZM513.638,0L518.117,0L518.117,-29.44L513.638,-29.44ZM542.073,-10C542.073,-15.68,538.352,-19.8,532.872,-19.8C527.153,-19.8,523.073,-15.76,523.073,-9.76C523.073,-3.64,527.273,0.32,533.193,0.32C537.393,0.32,539.833,-1.24,541.472,-3.36L538.352,-6.04C537.352,-4.8,535.753,-3.76,533.432,-3.76C530.393,-3.76,528.273,-5.44,527.713,-8.28L541.953,-8.28C541.992,-8.6,542.073,-9.28,542.073,-10ZM532.833,-15.76C535.393,-15.76,536.992,-14.16,537.552,-11.8L527.792,-11.8C528.432,-14.36,530.352,-15.76,532.833,-15.76Z" transform="translate(68,108.12)"/>
    <path fill="#b2b2b2" stroke="none" d="M8.94,0L11.28,0L19.32,-21.3L16.53,-21.3L10.14,-3.78L10.11,-3.78L3.72,-21.3L0.9,-21.3ZM33.27,-7.56C33.27,-11.73,30.54,-14.79,26.55,-14.79C22.38,-14.79,19.35,-11.7,19.35,-7.29C19.35,-2.82,22.41,0.18,26.73,0.18C29.67,0.18,31.5,-0.93,32.76,-2.55L31.05,-3.99C30.15,-2.88,28.77,-2.04,26.82,-2.04C24.06,-2.04,22.14,-3.84,21.81,-6.57L33.21,-6.57C33.21,-6.75,33.27,-7.17,33.27,-7.56ZM26.52,-12.57C28.92,-12.57,30.48,-10.95,30.84,-8.55L21.87,-8.55C22.32,-11.04,24.18,-12.57,26.52,-12.57ZM36.8425,0L39.2725,0L39.2725,-7.35C39.2725,-10.65,41.0725,-12.57,43.9825,-12.57C46.1125,-12.57,47.5825,-11.37,47.5825,-8.07L47.5825,0L50.0125,0L50.0125,-8.76C50.0125,-12.93,47.8525,-14.79,44.7025,-14.79C42.3625,-14.79,40.4425,-13.8,39.3025,-12.06L39.2725,-12.06L39.2725,-22.08L36.8425,-22.08ZM55.69,-17.28C56.68,-17.28,57.46,-18.06,57.46,-19.02C57.46,-19.98,56.68,-20.76,55.69,-20.76C54.7,-20.76,53.92,-19.98,53.92,-19.02C53.92,-18.06,54.7,-17.28,55.69,-17.28ZM54.46,0L56.89,0L56.89,-14.61L54.46,-14.61ZM67.9837,0.18C70.8337,0.18,72.7838,-0.9,74.0137,-2.37L72.3337,-3.9C71.4337,-2.79,69.9037,-2.04,68.1637,-2.04C65.1937,-2.04,63.1838,-4.17,63.1838,-7.29C63.1838,-10.38,65.1937,-12.57,68.1937,-12.57C69.9337,-12.57,71.3737,-11.79,72.3037,-10.71L73.9538,-12.18C72.5137,-13.89,70.2637,-14.79,68.0738,-14.79C63.7238,-14.79,60.6937,-11.7,60.6937,-7.29C60.6937,-2.85,63.7238,0.18,67.9837,0.18ZM77.4287,0L79.8587,0L79.8587,-22.08L77.4287,-22.08ZM97.5825,-7.56C97.5825,-11.73,94.8525,-14.79,90.8625,-14.79C86.6925,-14.79,83.6625,-11.7,83.6625,-7.29C83.6625,-2.82,86.7225,0.18,91.0425,0.18C93.9825,0.18,95.8125,-0.93,97.0725,-2.55L95.3625,-3.99C94.4625,-2.88,93.0825,-2.04,91.1325,-2.04C88.3725,-2.04,86.4525,-3.84,86.1225,-6.57L97.5225,-6.57C97.5225,-6.75,97.5825,-7.17,97.5825,-7.56ZM90.8325,-12.57C93.2325,-12.57,94.7925,-10.95,95.1525,-8.55L86.1825,-8.55C86.6325,-11.04,88.4925,-12.57,90.8325,-12.57ZM105.565,0.18C109.075,0.18,110.815,-1.71,110.815,-3.99C110.845,-6.84,108.805,-7.38,105.715,-8.58C104.125,-9.15,102.955,-9.72,102.955,-10.86C102.955,-11.97,104.065,-12.63,105.205,-12.63C106.465,-12.63,107.815,-12.24,109.075,-11.07L110.335,-12.99C108.715,-14.31,107.065,-14.79,105.295,-14.79C102.535,-14.79,100.495,-13.11,100.495,-10.86C100.495,-8.19,102.505,-7.23,104.875,-6.39C107.005,-5.61,108.355,-5.25,108.355,-3.96C108.355,-2.85,107.335,-1.98,105.565,-1.98C103.525,-1.98,102.235,-2.64,101.095,-3.75L99.865,-1.89C101.275,-0.66,103.135,0.18,105.565,0.18Z" transform="translate(68,898)"/>
    <path fill="#b2b2b2" stroke="none" d="M0.24125,0L1.92125,0L1.92125,-13.74L0.52125,-13.74L-3.31875,-10.9L-2.49875,-9.64L0.24125,-11.72Z" transform="translate(78.6667,980.667)" style="animation: 9s linear infinite both a1_t;"/>
    <path fill="#b2b2b2" stroke="none" d="M-4.39625,0L4.24375,0L4.24375,-1.54L-1.83625,-1.54L-1.85625,-1.6L1.72375,-5.2C3.42375,-6.92,4.08375,-8.26,4.08375,-9.8C4.08375,-12.34,2.08375,-13.84,-0.11625,-13.84C-2.25625,-13.84,-3.63625,-12.76,-4.39625,-11.24L-3.15625,-10.38C-2.51625,-11.62,-1.51625,-12.26,-0.21625,-12.26C1.30375,-12.26,2.36375,-11.14,2.36375,-9.62C2.36375,-8.26,1.44375,-7.16,0.283751,-5.96L-4.41625,-1.16Z" transform="translate(120.063,980.667)" style="animation: 9s linear infinite both a2_t;"/>
    <path fill="#b2b2b2" stroke="none" d="M-0.108125,0.12C2.43188,0.12,4.33187,-1.4,4.33187,-3.68C4.33187,-5.32,3.41187,-6.56,1.95187,-7.12L1.95187,-7.18C3.25187,-7.74,3.97188,-8.98,3.97188,-10.26C3.97188,-12.54,2.09188,-13.86,-0.248125,-13.86C-2.22813,-13.86,-3.62812,-12.94,-4.34812,-11.68L-2.98813,-10.92C-2.44813,-11.72,-1.64812,-12.3,-0.288125,-12.3C1.15188,-12.3,2.27187,-11.4,2.27187,-10.04C2.27187,-8.94,1.55188,-7.84,-0.208125,-7.84L-1.54813,-7.84L-1.54813,-6.4L-0.408125,-6.4C1.63188,-6.4,2.61188,-5.24,2.61188,-3.92C2.61188,-2.42,1.37188,-1.44,-0.228125,-1.44C-1.82812,-1.44,-2.86812,-2.16,-3.34812,-3.26L-4.80813,-2.6C-4.12813,-1.02,-2.44813,0.12,-0.108125,0.12Z" transform="translate(161.459,980.667)" style="animation: 9s linear infinite both a3_t;"/>
    <path fill="#b2b2b2" stroke="none" d="M1.32719,0L3.00719,0L3.00719,-2.42L5.00719,-2.42L5.00719,-3.94L3.00719,-3.94L3.00719,-13.74L1.58719,-13.74L-5.05281,-3.62L-5.05281,-2.42L1.32719,-2.42ZM-3.09281,-3.9L1.38719,-10.88L1.38719,-3.9Z" transform="translate(202.855,980.667)" style="animation: 9s linear infinite both a4_t;"/>
    <path fill="#b2b2b2" stroke="none" d="M0.136562,-8.72C-0.423438,-8.72,-1.24344,-8.58,-1.96344,-8.32L-1.74344,-12.18L3.93656,-12.18L3.93656,-13.74L-3.32344,-13.74L-3.72344,-6.8L-2.74344,-6.5C-2.04344,-7.04,-1.22344,-7.26,-0.323438,-7.26C1.35656,-7.26,2.85656,-6.22,2.85656,-4.36C2.85656,-2.66,1.57656,-1.44,-0.343437,-1.44C-1.74344,-1.44,-2.90344,-2.1,-3.52344,-3.1L-4.78344,-2.16C-3.82344,-0.72,-2.10344,0.12,-0.203437,0.12C2.57656,0.12,4.57656,-1.68,4.57656,-4.34C4.57656,-7.1,2.57656,-8.72,0.136562,-8.72Z" transform="translate(244.252,980.667)" style="animation: 9s linear infinite both a5_t;"/>
    <path fill="#b2b2b2" stroke="none" d="M0.563125,-8.66C-0.756875,-8.66,-1.95687,-8.2,-2.81687,-7.44C-2.03688,-10.44,0.243125,-12.1,2.74312,-12.74L2.24312,-14.16C-1.37687,-13.5,-4.73688,-10.14,-4.73688,-5.26C-4.73688,-2,-2.63687,0.12,0.0831251,0.12C2.82312,0.12,4.84313,-1.78,4.84313,-4.3C4.84313,-7.04,3.04313,-8.66,0.563125,-8.66ZM0.183125,-1.44C-1.63688,-1.44,-3.09687,-2.92,-3.09687,-5.08L-3.09687,-5.2C-2.47688,-6.2,-1.33687,-7.12,0.183125,-7.12C1.98312,-7.12,3.16313,-5.98,3.16313,-4.32C3.16313,-2.76,1.98312,-1.44,0.183125,-1.44Z" transform="translate(285.648,980.667)" style="animation: 9s linear infinite both a6_t;"/>
    <path fill="#b2b2b2" stroke="none" d="M-4.39844,-13.74L-4.39844,-12.2L2.24156,-12.2L-2.99844,-0.1L-1.31844,0.24L4.12156,-12.56L4.12156,-13.74Z" transform="translate(327.044,980.667)" style="animation: 9s linear infinite both a7_t;"/>
    <g id="orange" style="animation: 9s linear infinite both a8_t;">
        <g style="animation: 9s linear infinite both a9_t;">
            <path fill="#fd625d" stroke="none" d="M1.13253,265.331C0.74969,265.332,0.366656,265.333,-0.0165664,265.333C-74.4092,265.333,-141.65,234.712,-189.826,185.385L0.7788,-1.6587Z" fill-rule="evenodd" opacity="0" transform="translate(413.126,522.338) rotate(217.115) translate(-1.13253,1.6587)" style="animation: 9s linear infinite both orange_t, 9s linear infinite both orange_o, 9s linear infinite both orange_d;"/>
        </g>
    </g>
    <g id="yellow" style="animation: 9s linear infinite both a10_t;">
        <g style="animation: 9s linear infinite both a11_t;">
            <path fill="#f2c80f" stroke="none" d="M-189.459,185.761C-236.392,137.899,-265.333,72.3293,-265.333,0C-265.333,-0.454757,-265.332,-0.909247,-265.33,-1.36347L0.792967,-1.64037C0.28821,-1.13561,-91.3434,88.5502,-189.459,185.761Z" fill-rule="evenodd" opacity="0" transform="translate(412.787,522.356) rotate(-240.097) translate(-0.792967,1.64037)" style="animation: 9s linear infinite both yellow_t, 9s linear infinite both yellow_o, 9s linear infinite both yellow_f, 9s linear infinite both yellow_d;"/>
        </g>
    </g>
    <g id="light-gray" style="animation: 9s linear infinite both a12_t;">
        <g style="animation: 9s linear infinite both a13_t;">
            <path fill="#5f6b6d" stroke="none" d="M-163.691,-208.837L0.7863,-1.6437L-265.331,-1.13933C-264.976,-85.4501,-225.299,-160.48,-163.691,-208.837Z" fill-rule="evenodd" opacity="0" transform="translate(412.78,522.857) rotate(279.057) translate(-0.7863,1.13933)" style="animation: 9s linear infinite both light-gray_t, 9s linear infinite both light-gray_o, 9s linear infinite both light-gray_f, 9s linear infinite both light-gray_d;"/>
        </g>
    </g>
    <g id="light-blue" style="animation: 9s linear infinite both a14_t;">
        <g style="animation: 9s linear infinite both a15_t;">
            <path fill="#8ad4eb" stroke="none" d="M-98.658,-246.385L0.7963,-1.6437L-164.147,-208.479C-144.392,-224.054,-122.37,-236.881,-98.658,-246.385Z" fill-rule="evenodd" opacity="0" transform="translate(412.79,522.353) rotate(-130.975) translate(-0.7963,1.6437)" style="animation: 9s linear infinite both light-blue_t, 9s linear infinite both light-blue_o, 9s linear infinite both light-blue_f, 9s linear infinite both light-blue_d;"/>
        </g>
    </g>
    <g id="pink" style="animation: 9s linear infinite both a16_t;">
        <path fill="#ec008c" stroke="none" d="M1.2663,-265.33L0.7813,-1.6487L-98.861,-246.304C-68.3079,-258.578,-34.9428,-265.333,0,-265.333C0.422331,-265.333,0.844432,-265.332,1.2663,-265.33Z" fill-rule="evenodd" opacity="0" transform="translate(413.26,522.348) rotate(146.311) translate(-1.2663,1.6487)" style="animation: 9s linear infinite both pink_t, 9s linear infinite both pink_o, 9s linear infinite both pink_f, 9s linear infinite both pink_d;"/>
    </g>
    <g id="teal" style="animation: 9s linear infinite both a17_t;">
        <g style="animation: 9s linear infinite both a18_t;">
            <path fill="#02b8aa" stroke="none" d="M265.332,-0.733359C264.938,-146.491,147.015,-264.613,1.33297,-265.33L0.7788,-1.6587Z" fill-rule="evenodd" opacity="0" transform="translate(412.773,523.263) rotate(-174.215) translate(-0.7788,0.733359)" style="animation: 9s linear infinite both teal_t, 9s linear infinite both teal_o, 9s linear infinite both teal_f, 9s linear infinite both teal_d;"/>
        </g>
    </g>
    <g id="dark-gray" style="animation: 9s linear infinite both a19_t;">
        <path fill="#374649" stroke="none" d="M0.6663,265.332C146.899,264.973,265.333,146.317,265.333,0C265.333,-0.778799,265.33,-1.55681,265.323,-2.33403L0.7788,-1.6587Z" fill-rule="evenodd" opacity="0" transform="translate(412.66,521.662) rotate(-215.051) translate(-0.6663,2.33403)" style="animation: 9s linear infinite both dark-gray_t, 9s linear infinite both dark-gray_o, 9s linear infinite both dark-gray_d;"/>
    </g>
    <ellipse id="pink-circle" rx="10.6667" ry="10.6667" fill="#ec008c" stroke="none" transform="translate(78.6667,932.667)" style="animation: 9s linear infinite both pink-circle_t, 9s linear infinite both pink-circle_f;"/>
    <ellipse id="orange-circle" rx="10.6667" ry="10.6667" fill="#fd625d" stroke="none" transform="translate(120.063,932.667)" style="animation: 9s linear infinite both orange-circle_t, 9s linear infinite both orange-circle_f;"/>
    <ellipse id="yellow-circle" rx="10.6667" ry="10.6667" fill="#f2c80f" stroke="none" transform="translate(161.459,932.667)" style="animation: 9s linear infinite both yellow-circle_t, 9s linear infinite both yellow-circle_f;"/>
    <ellipse id="teal-2" rx="10.6667" ry="10.6667" fill="#02b8aa" stroke="none" transform="translate(202.855,932.667)" style="animation: 9s linear infinite both teal-2_t, 9s linear infinite both teal-2_f;"/>
    <ellipse id="light-blue-2" rx="10.6667" ry="10.6667" fill="#8ad4eb" stroke="none" transform="translate(244.252,932.667)" style="animation: 9s linear infinite both light-blue-2_t, 9s linear infinite both light-blue-2_f;"/>
    <ellipse id="light-gray-2" rx="10.6667" ry="10.6667" fill="#5f6b6d" stroke="none" transform="translate(285.648,932.667)" style="animation: 9s linear infinite both light-gray-2_t, 9s linear infinite both light-gray-2_f;"/>
    <ellipse id="dark-gray-2" rx="10.6667" ry="10.6667" fill="#374649" stroke="none" transform="translate(327.044,932.667)" style="animation: 9s linear infinite both dark-gray-2_t, 9s linear infinite both dark-gray-2_f;"/>
</svg>
