<svg height="446" viewBox="0 0 446 446" width="446" xmlns="http://www.w3.org/2000/svg"><g fill="none" transform="translate(15 15)"><path d="m208 0c-114.8 0-208 93.2-208 208s93.2 208 208 208 208-93.2 208-208-93.2-208-208-208z" stroke="#334146" stroke-width="30"/><path d="m178.732157 125.005455 106.354561 74.4005c4.525446 3.165783 5.627671 9.400756 2.461888 13.926202-.670361.958272-1.503617 1.791528-2.461888 2.461888l-106.354561 74.4005c-4.525446 3.165783-10.760419 2.063558-13.926202-2.461888-1.17549-1.680348-1.805955-3.681463-1.805955-5.732157v-148.801c0-5.522847 4.477153-10 10-10 2.050694 0 4.051809.630465 5.732157 1.805955z" fill="#334146"/></g></svg>