<?xml version="1.0" encoding="UTF-8"?>
<svg width="446px" height="446px" viewBox="0 0 446 446" version="1.1" xmlns="http://www.w3.org/2000/svg" xmlns:xlink="http://www.w3.org/1999/xlink">
    <!-- Generator: Sketch 52.5 (67469) - http://www.bohemiancoding.com/sketch -->
    <title>_ionicons_svg_md-play-circle</title>
    <desc>Created with Sketch.</desc>
    <g id="Page-1" stroke="none" stroke-width="1" fill="none" fill-rule="evenodd">
        <g id="_ionicons_svg_md-play-circle" transform="translate(15.000000, 15.000000)" fill-rule="nonzero">
            <path d="M208,0 C93.2,0 0,93.2 0,208 C0,322.8 93.2,416 208,416 C322.8,416 416,322.8 416,208 C416,93.2 322.8,0 208,0 Z" id="Shape" stroke="#334146" stroke-width="30"></path>
            <path d="M178.732157,125.005455 L285.086718,199.405955 C289.612164,202.571738 290.714389,208.806711 287.548606,213.332157 C286.878245,214.290429 286.044989,215.123685 285.086718,215.794045 L178.732157,290.194545 C174.206711,293.360328 167.971738,292.258103 164.805955,287.732657 C163.630465,286.052309 163,284.051194 163,282.0005 L163,133.1995 C163,127.676653 167.477153,123.1995 173,123.1995 C175.050694,123.1995 177.051809,123.829965 178.732157,125.005455 Z" id="Path" fill="#334146"></path>
        </g>
    </g>
</svg>