<svg width="58" height="43" viewBox="0 0 58 43" fill="none" xmlns="http://www.w3.org/2000/svg">
<path d="M53.5391 11.2081C53.5391 9.80804 53.6072 8.6731 53.6912 8.6731H56.7331C56.8171 8.6731 56.8852 9.80804 56.8852 11.2081V34.0227C56.8852 35.4228 56.8171 36.5577 56.7331 36.5577H53.6912C53.6072 36.5577 53.5391 35.4228 53.5391 34.0227V11.2081Z" fill="#CDECF9"/>
<path d="M49.0763 31.2286V17.3482C49.0763 17.1182 49.0176 16.8975 48.913 16.7348C48.8084 16.5721 48.6665 16.4807 48.5186 16.4807C48.3707 16.4807 48.2289 16.5721 48.1243 16.7348C48.0197 16.8975 47.9609 17.1182 47.9609 17.3482V31.2286C47.9609 31.4587 48.0197 31.6793 48.1243 31.842C48.2289 32.0047 48.3707 32.0961 48.5186 32.0961C48.6665 32.0961 48.8084 32.0047 48.913 31.842C49.0176 31.6793 49.0763 31.4587 49.0763 31.2286Z" fill="#06A0E3"/>
<path d="M32.3459 31.2596V26.2403C32.3459 26.0185 32.2871 25.8057 32.1825 25.6488C32.0779 25.4919 31.9361 25.4038 31.7882 25.4038C31.6403 25.4038 31.4984 25.4919 31.3938 25.6488C31.2892 25.8057 31.2305 26.0185 31.2305 26.2403V31.2596C31.2305 31.4814 31.2892 31.6942 31.3938 31.8511C31.4984 32.008 31.6403 32.0961 31.7882 32.0961C31.9361 32.0961 32.0779 32.008 32.1825 31.8511C32.2871 31.6942 32.3459 31.4814 32.3459 31.2596Z" fill="#06A0E3"/>
<path d="M43.4982 31.2597V22.8943C43.4982 22.6724 43.4394 22.4596 43.3349 22.3028C43.2303 22.1459 43.0884 22.0577 42.9405 22.0577C42.7926 22.0577 42.6507 22.1459 42.5462 22.3028C42.4416 22.4596 42.3828 22.6724 42.3828 22.8943V31.2597C42.3828 31.4815 42.4416 31.6943 42.5462 31.8512C42.6507 32.0081 42.7926 32.0962 42.9405 32.0962C43.0884 32.0962 43.2303 32.0081 43.3349 31.8512C43.4394 31.6943 43.4982 31.4815 43.4982 31.2597Z" fill="#06A0E3"/>
<path d="M37.924 31.2596V16.2019C37.924 15.98 37.8652 15.7673 37.7606 15.6104C37.656 15.4535 37.5142 15.3654 37.3663 15.3654C37.2184 15.3654 37.0765 15.4535 36.9719 15.6104C36.8674 15.7673 36.8086 15.98 36.8086 16.2019V31.2596C36.8086 31.4815 36.8674 31.6942 36.9719 31.8511C37.0765 32.008 37.2184 32.0961 37.3663 32.0961C37.5142 32.0961 37.656 32.008 37.7606 31.8511C37.8652 31.6942 37.924 31.4815 37.924 31.2596Z" fill="#06A0E3"/>
<path d="M55.2812 8.6731H29.9062C29.6659 8.6731 29.4354 8.7595 29.2654 8.91331C29.0955 9.06711 29 9.27572 29 9.49323C29 9.71074 29.0955 9.91935 29.2654 10.0732C29.4354 10.227 29.6659 10.3134 29.9062 10.3134H55.2812C55.5215 10.3137 55.7518 10.4002 55.9217 10.5539C56.0916 10.7077 56.1872 10.9161 56.1875 11.1335V34.0973C56.1872 34.3147 56.0916 34.5232 55.9217 34.6769C55.7518 34.8306 55.5215 34.9171 55.2812 34.9174H29.9062C29.6659 34.9174 29.4354 35.0038 29.2654 35.1576C29.0955 35.3115 29 35.5201 29 35.7376C29 35.9551 29.0955 36.1637 29.2654 36.3175C29.4354 36.4713 29.6659 36.5577 29.9062 36.5577H55.2812C56.0023 36.5577 56.6938 36.2985 57.2037 35.8371C57.7136 35.3757 58 34.7498 58 34.0973V11.1335C58 10.481 57.7136 9.85515 57.2037 9.39373C56.6938 8.93232 56.0023 8.6731 55.2812 8.6731Z" fill="#06A0E3"/>
<mask id="path-7-inside-1" fill="white">
<path fill-rule="evenodd" clip-rule="evenodd" d="M20.6674 2.69528H2.75566C2.18494 2.69528 1.72229 3.18686 1.72229 3.79324V21.3605C1.72229 21.9669 2.18494 22.4585 2.75566 22.4585H20.6674C21.2381 22.4585 21.7008 21.9669 21.7008 21.3605V3.79324C21.7008 3.18686 21.2381 2.69528 20.6674 2.69528ZM2.75566 0.865356C1.23375 0.865356 0 2.17622 0 3.79324V21.3605C0 22.9776 1.23375 24.2884 2.75566 24.2884H20.6674C22.1893 24.2884 23.4231 22.9776 23.4231 21.3605V3.79324C23.4231 2.17622 22.1893 0.865356 20.6674 0.865356H2.75566Z"/>
</mask>
<path fill-rule="evenodd" clip-rule="evenodd" d="M20.6674 2.69528H2.75566C2.18494 2.69528 1.72229 3.18686 1.72229 3.79324V21.3605C1.72229 21.9669 2.18494 22.4585 2.75566 22.4585H20.6674C21.2381 22.4585 21.7008 21.9669 21.7008 21.3605V3.79324C21.7008 3.18686 21.2381 2.69528 20.6674 2.69528ZM2.75566 0.865356C1.23375 0.865356 0 2.17622 0 3.79324V21.3605C0 22.9776 1.23375 24.2884 2.75566 24.2884H20.6674C22.1893 24.2884 23.4231 22.9776 23.4231 21.3605V3.79324C23.4231 2.17622 22.1893 0.865356 20.6674 0.865356H2.75566Z" fill="#06A0E3"/>
<path d="M2.75566 5.19528H20.6674V0.195284H2.75566V5.19528ZM4.22228 3.79324C4.22228 4.42262 3.70627 5.19528 2.75566 5.19528V0.195284C0.663608 0.195284 -0.777715 1.95109 -0.777715 3.79324H4.22228ZM4.22228 21.3605V3.79324H-0.777715V21.3605H4.22228ZM2.75566 19.9585C3.70628 19.9585 4.22228 20.7312 4.22228 21.3605H-0.777715C-0.777715 23.2027 0.663607 24.9585 2.75566 24.9585V19.9585ZM20.6674 19.9585H2.75566V24.9585H20.6674V19.9585ZM19.2008 21.3605C19.2008 20.7312 19.7168 19.9585 20.6674 19.9585V24.9585C22.7595 24.9585 24.2008 23.2027 24.2008 21.3605H19.2008ZM19.2008 3.79324V21.3605H24.2008V3.79324H19.2008ZM20.6674 5.19528C19.7168 5.19528 19.2008 4.42262 19.2008 3.79324H24.2008C24.2008 1.95109 22.7595 0.195284 20.6674 0.195284V5.19528ZM2.5 3.79324C2.5 3.62622 2.5622 3.50583 2.62761 3.43633C2.69056 3.36944 2.73582 3.36536 2.75566 3.36536V-1.63464C-0.287584 -1.63464 -2.5 0.940451 -2.5 3.79324H2.5ZM2.5 21.3605V3.79324H-2.5V21.3605H2.5ZM2.75566 21.7884C2.73582 21.7884 2.69056 21.7843 2.62761 21.7175C2.5622 21.648 2.5 21.5276 2.5 21.3605H-2.5C-2.5 24.2133 -0.287584 26.7884 2.75566 26.7884V21.7884ZM20.6674 21.7884H2.75566V26.7884H20.6674V21.7884ZM20.9231 21.3605C20.9231 21.5276 20.8609 21.648 20.7955 21.7175C20.7325 21.7843 20.6873 21.7884 20.6674 21.7884V26.7884C23.7107 26.7884 25.9231 24.2133 25.9231 21.3605H20.9231ZM20.9231 3.79324V21.3605H25.9231V3.79324H20.9231ZM20.6674 3.36536C20.6873 3.36536 20.7325 3.36944 20.7955 3.43633C20.8609 3.50583 20.9231 3.62622 20.9231 3.79324H25.9231C25.9231 0.940451 23.7107 -1.63464 20.6674 -1.63464V3.36536ZM2.75566 3.36536H20.6674V-1.63464H2.75566V3.36536Z" fill="#06A0E3" mask="url(#path-7-inside-1)"/>
<mask id="path-9-inside-2" fill="white">
<path fill-rule="evenodd" clip-rule="evenodd" d="M20.6674 28.3783H2.75566C2.18494 28.3783 1.72229 28.8776 1.72229 29.4936V39.1603C1.72229 39.7763 2.18494 40.2757 2.75566 40.2757H20.6674C21.2381 40.2757 21.7008 39.7763 21.7008 39.1603V29.4936C21.7008 28.8776 21.2381 28.3783 20.6674 28.3783ZM2.75566 26.5193C1.23375 26.5193 0 27.851 0 29.4936V39.1603C0 40.803 1.23375 42.1347 2.75566 42.1347H20.6674C22.1893 42.1347 23.4231 40.803 23.4231 39.1603V29.4936C23.4231 27.851 22.1893 26.5193 20.6674 26.5193H2.75566Z"/>
</mask>
<path fill-rule="evenodd" clip-rule="evenodd" d="M20.6674 28.3783H2.75566C2.18494 28.3783 1.72229 28.8776 1.72229 29.4936V39.1603C1.72229 39.7763 2.18494 40.2757 2.75566 40.2757H20.6674C21.2381 40.2757 21.7008 39.7763 21.7008 39.1603V29.4936C21.7008 28.8776 21.2381 28.3783 20.6674 28.3783ZM2.75566 26.5193C1.23375 26.5193 0 27.851 0 29.4936V39.1603C0 40.803 1.23375 42.1347 2.75566 42.1347H20.6674C22.1893 42.1347 23.4231 40.803 23.4231 39.1603V29.4936C23.4231 27.851 22.1893 26.5193 20.6674 26.5193H2.75566Z" fill="#06A0E3"/>
<path d="M2.75566 30.8783H20.6674V25.8783H2.75566V30.8783ZM4.22228 29.4936C4.22228 30.0751 3.74202 30.8783 2.75566 30.8783V25.8783C0.627864 25.8783 -0.777715 27.6801 -0.777715 29.4936H4.22228ZM4.22228 39.1603V29.4936H-0.777715V39.1603H4.22228ZM2.75566 37.7757C3.74202 37.7757 4.22228 38.5788 4.22228 39.1603H-0.777715C-0.777715 40.9738 0.627863 42.7757 2.75566 42.7757V37.7757ZM20.6674 37.7757H2.75566V42.7757H20.6674V37.7757ZM19.2008 39.1603C19.2008 38.5788 19.6811 37.7757 20.6674 37.7757V42.7757C22.7952 42.7757 24.2008 40.9738 24.2008 39.1603H19.2008ZM19.2008 29.4936V39.1603H24.2008V29.4936H19.2008ZM20.6674 30.8783C19.6811 30.8783 19.2008 30.0751 19.2008 29.4936H24.2008C24.2008 27.6801 22.7952 25.8783 20.6674 25.8783V30.8783ZM2.5 29.4936C2.5 29.3018 2.57091 29.1652 2.64102 29.0895C2.70813 29.0171 2.74974 29.0193 2.75566 29.0193V24.0193C-0.323327 24.0193 -2.5 26.6535 -2.5 29.4936H2.5ZM2.5 39.1603V29.4936H-2.5V39.1603H2.5ZM2.75566 39.6347C2.74974 39.6347 2.70813 39.6369 2.64102 39.5644C2.57091 39.4888 2.5 39.3521 2.5 39.1603H-2.5C-2.5 42.0005 -0.323328 44.6347 2.75566 44.6347V39.6347ZM20.6674 39.6347H2.75566V44.6347H20.6674V39.6347ZM20.9231 39.1603C20.9231 39.3521 20.8522 39.4888 20.7821 39.5644C20.715 39.6369 20.6733 39.6347 20.6674 39.6347V44.6347C23.7464 44.6347 25.9231 42.0005 25.9231 39.1603H20.9231ZM20.9231 29.4936V39.1603H25.9231V29.4936H20.9231ZM20.6674 29.0193C20.6733 29.0193 20.715 29.0171 20.7821 29.0895C20.8522 29.1652 20.9231 29.3018 20.9231 29.4936H25.9231C25.9231 26.6535 23.7464 24.0193 20.6674 24.0193V29.0193ZM2.75566 29.0193H20.6674V24.0193H2.75566V29.0193Z" fill="#06A0E3" mask="url(#path-9-inside-2)"/>
<path d="M15.6172 33.2115C15.6172 31.9795 16.6159 30.9807 17.848 30.9807C19.08 30.9807 20.0787 31.9795 20.0787 33.2115C20.0787 34.4435 19.08 35.4423 17.848 35.4423C16.6159 35.4423 15.6172 34.4435 15.6172 33.2115Z" fill="#06A0E3"/>
<path d="M3.34766 6.99995C3.34766 6.69195 3.69098 6.44226 4.11448 6.44226H14.8501C15.2736 6.44226 15.6169 6.69195 15.6169 6.99995C15.6169 7.30796 15.2736 7.55765 14.8501 7.55765H4.11448C3.69098 7.55765 3.34766 7.30796 3.34766 6.99995Z" fill="#06A0E3"/>
<path d="M3.34766 11.6136C3.34766 11.2216 3.68814 10.9038 4.10815 10.9038H19.3179C19.7379 10.9038 20.0784 11.2216 20.0784 11.6136V18.0017C20.0784 18.3937 19.7379 18.7115 19.3179 18.7115H4.10815C3.68814 18.7115 3.34766 18.3937 3.34766 18.0017V11.6136Z" fill="#CDECF9"/>
<path d="M11.1553 34.8846C11.1553 35.6567 10.9264 36.4114 10.4974 37.0534C10.0685 37.6954 9.45877 38.1958 8.74544 38.4912C8.03211 38.7867 7.24717 38.864 6.4899 38.7134C5.73263 38.5628 5.03703 38.191 4.49107 37.645C3.94511 37.099 3.5733 36.4034 3.42267 35.6462C3.27204 34.8889 3.34935 34.104 3.64482 33.3906C3.94029 32.6773 4.44066 32.0676 5.08264 31.6386C5.72463 31.2097 6.4794 30.9807 7.2515 30.9807V34.8846H11.1553Z" fill="#CDECF9"/>
</svg>
