<svg width="39" height="53" viewBox="0 0 39 53" fill="none" xmlns="http://www.w3.org/2000/svg">
<path d="M24.3811 12.72H21.2011V45.58C21.2011 45.8611 21.0894 46.1307 20.8906 46.3295C20.6918 46.5283 20.4222 46.64 20.1411 46.64H2.12109V49.82C2.12109 50.1011 2.23277 50.3707 2.43156 50.5695C2.63035 50.7683 2.89996 50.88 3.18109 50.88H24.3811C24.6622 50.88 24.9318 50.7683 25.1306 50.5695C25.3294 50.3707 25.4411 50.1011 25.4411 49.82V13.78C25.4411 13.4988 25.3294 13.2292 25.1306 13.0304C24.9318 12.8316 24.6622 12.72 24.3811 12.72Z" fill="#CDECF9"/>
<path d="M24.38 10.6H3.18C2.33661 10.6 1.52777 10.935 0.9314 11.5314C0.335034 12.1277 0 12.9366 0 13.78V49.82C0 50.6634 0.335034 51.4722 0.9314 52.0686C1.52777 52.6649 2.33661 53 3.18 53H24.38C25.2234 53 26.0322 52.6649 26.6286 52.0686C27.225 51.4722 27.56 50.6634 27.56 49.82V13.78C27.56 12.9366 27.225 12.1277 26.6286 11.5314C26.0322 10.935 25.2234 10.6 24.38 10.6ZM25.44 49.82C25.44 50.1011 25.3283 50.3707 25.1295 50.5695C24.9307 50.7683 24.6611 50.88 24.38 50.88H3.18C2.89887 50.88 2.62926 50.7683 2.43047 50.5695C2.23168 50.3707 2.12 50.1011 2.12 49.82V13.78C2.12 13.4988 2.23168 13.2292 2.43047 13.0304C2.62926 12.8317 2.89887 12.72 3.18 12.72H24.38C24.6611 12.72 24.9307 12.8317 25.1295 13.0304C25.3283 13.2292 25.44 13.4988 25.44 13.78V49.82Z" fill="#06A0E3"/>
<path d="M13.7805 19.08C12.7322 19.08 11.7075 19.3908 10.8359 19.9732C9.96437 20.5555 9.28505 21.3833 8.88391 22.3517C8.48277 23.3202 8.37781 24.3858 8.58231 25.4139C8.78681 26.442 9.29159 27.3864 10.0328 28.1276C10.774 28.8688 11.7184 29.3736 12.7465 29.5781C13.7746 29.7826 14.8402 29.6777 15.8087 29.2765C16.7771 28.8754 17.6049 28.1961 18.1873 27.3245C18.7696 26.4529 19.0805 25.4282 19.0805 24.38C19.0805 22.9743 18.5221 21.6262 17.5281 20.6323C16.5342 19.6383 15.1861 19.08 13.7805 19.08ZM13.7805 27.56C13.1515 27.56 12.5367 27.3735 12.0138 27.024C11.4908 26.6746 11.0832 26.178 10.8425 25.5969C10.6018 25.0158 10.5389 24.3764 10.6616 23.7596C10.7843 23.1427 11.0871 22.5761 11.5319 22.1314C11.9766 21.6866 12.5432 21.3838 13.1601 21.2611C13.7769 21.1384 14.4163 21.2013 14.9974 21.442C15.5785 21.6827 16.0751 22.0903 16.4245 22.6132C16.774 23.1362 16.9605 23.751 16.9605 24.38C16.9595 25.2231 16.6242 26.0313 16.028 26.6275C15.4319 27.2237 14.6236 27.559 13.7805 27.56Z" fill="#06A0E3"/>
<path d="M7.41938 36.04C8.0048 36.04 8.47938 35.5655 8.47938 34.98C8.47938 34.3946 8.0048 33.92 7.41938 33.92C6.83395 33.92 6.35938 34.3946 6.35938 34.98C6.35938 35.5655 6.83395 36.04 7.41938 36.04Z" fill="#06A0E3"/>
<path d="M13.7788 36.04C14.3642 36.04 14.8388 35.5655 14.8388 34.98C14.8388 34.3946 14.3642 33.92 13.7788 33.92C13.1933 33.92 12.7188 34.3946 12.7188 34.98C12.7188 35.5655 13.1933 36.04 13.7788 36.04Z" fill="#06A0E3"/>
<path d="M20.1381 36.04C20.7235 36.04 21.1981 35.5655 21.1981 34.98C21.1981 34.3946 20.7235 33.92 20.1381 33.92C19.5527 33.92 19.0781 34.3946 19.0781 34.98C19.0781 35.5655 19.5527 36.04 20.1381 36.04Z" fill="#06A0E3"/>
<path d="M7.41938 42.4C8.0048 42.4 8.47938 41.9255 8.47938 41.34C8.47938 40.7546 8.0048 40.28 7.41938 40.28C6.83395 40.28 6.35938 40.7546 6.35938 41.34C6.35938 41.9255 6.83395 42.4 7.41938 42.4Z" fill="#06A0E3"/>
<path d="M13.7788 42.4C14.3642 42.4 14.8388 41.9255 14.8388 41.34C14.8388 40.7546 14.3642 40.28 13.7788 40.28C13.1933 40.28 12.7188 40.7546 12.7188 41.34C12.7188 41.9255 13.1933 42.4 13.7788 42.4Z" fill="#06A0E3"/>
<path d="M20.1381 42.4C20.7235 42.4 21.1981 41.9255 21.1981 41.34C21.1981 40.7546 20.7235 40.28 20.1381 40.28C19.5527 40.28 19.0781 40.7546 19.0781 41.34C19.0781 41.9255 19.5527 42.4 20.1381 42.4Z" fill="#06A0E3"/>
<path d="M26.5014 6.35999C26.2203 6.35999 25.9507 6.47166 25.7519 6.67045C25.5531 6.86924 25.4414 7.13886 25.4414 7.41999C25.4414 7.70111 25.5531 7.97073 25.7519 8.16952C25.9507 8.36831 26.2203 8.47999 26.5014 8.47999C27.3445 8.48088 28.1528 8.81621 28.749 9.41238C29.3452 10.0085 29.6805 10.8169 29.6814 11.66C29.6814 11.9411 29.7931 12.2107 29.9919 12.4095C30.1907 12.6083 30.4603 12.72 30.7414 12.72C31.0225 12.72 31.2922 12.6083 31.4909 12.4095C31.6897 12.2107 31.8014 11.9411 31.8014 11.66C31.7999 10.2548 31.2411 8.90756 30.2475 7.91393C29.2538 6.9203 27.9066 6.36144 26.5014 6.35999Z" fill="#06A0E3"/>
<path d="M26.5014 0C26.2203 0 25.9507 0.111678 25.7519 0.310467C25.5531 0.509255 25.4414 0.77887 25.4414 1.06C25.4414 1.34113 25.5531 1.61074 25.7519 1.80953C25.9507 2.00832 26.2203 2.12 26.5014 2.12C29.0307 2.12275 31.4557 3.12874 33.2442 4.91724C35.0327 6.70574 36.0387 9.13068 36.0414 11.66C36.0414 11.9411 36.1531 12.2107 36.3519 12.4095C36.5507 12.6083 36.8203 12.72 37.1014 12.72C37.3825 12.72 37.6522 12.6083 37.8509 12.4095C38.0497 12.2107 38.1614 11.9411 38.1614 11.66C38.1578 8.5687 36.9281 5.60505 34.7422 3.41916C32.5564 1.23328 29.5927 0.0036469 26.5014 0Z" fill="#06A0E3"/>
</svg>
