<svg id="Layer_1" data-name="Layer 1" xmlns="http://www.w3.org/2000/svg" viewBox="0 0 206.84 275.79"><defs><style>.cls-1{fill:#02b8aa;}.cls-2{fill:#374649;}.cls-3{fill:#fd625d;}.cls-4{fill:#f2c80f;}.cls-5{fill:#5f6b6d;}.cls-6{fill:#8ad4eb;}.cls-7{fill:#ec008c;}.cls-8{font-size:8px;}.cls-10,.cls-8{fill:#d8d8d8;font-family:AvertaPE-Regular, Averta PE;}.cls-9{letter-spacing:-0.03em;}.cls-10{font-size:6px;}</style></defs><path class="cls-1" d="M169.69,136.53,103.8,150.16V82.75A67.28,67.28,0,0,1,169.69,136.53Z"/><path class="cls-2" d="M171,150a67.25,67.25,0,0,1-67.24,67.25V150.16l65.85-13.8A67.25,67.25,0,0,1,171,150Z"/><path class="cls-3" d="M103.8,150.16V217.4a67.22,67.22,0,0,1-57.11-31.71Z"/><path class="cls-4" d="M103.8,150.16,46.7,185.69a67.35,67.35,0,0,1-7.12-55.53Z"/><path class="cls-5" d="M103.8,150.16l-64.22-20A67.36,67.36,0,0,1,64.44,95.63Z"/><path class="cls-6" d="M103.8,150.16,64.44,95.63a67.07,67.07,0,0,1,18.16-9.3Z"/><path class="cls-7" d="M103.8,82.92v67.24L82.6,86.33A66.93,66.93,0,0,1,103.8,82.92Z"/><path d="M24.39,21.19H22v-1.3h6.31v1.3H25.84v7.22H24.39Z"/><path d="M28.09,25.5a3.07,3.07,0,1,1,3.07,3A2.93,2.93,0,0,1,28.09,25.5Zm4.78,0a1.71,1.71,0,1,0-1.71,1.78A1.71,1.71,0,0,0,32.87,25.5Z"/><path d="M35.75,26.56V23.7H35V22.56h.72V20.61l1.34-.14v2.09h1.72V23.7H37.09v2.73c0,.6.18.82.57.82a2,2,0,0,0,.86-.26l.35,1.17a2.76,2.76,0,0,1-1.49.34C36.37,28.5,35.75,27.87,35.75,26.56Z"/><path d="M39.41,25.51a2.85,2.85,0,0,1,2.82-3,2.25,2.25,0,0,1,1.81.81l0,0v-.7h1.35v5.85H44.12v-.77h0a2.2,2.2,0,0,1-1.86.87A2.79,2.79,0,0,1,39.41,25.51Zm4.71,0a1.72,1.72,0,0,0-1.66-1.84,1.69,1.69,0,0,0-1.68,1.84,1.64,1.64,0,0,0,1.68,1.76A1.67,1.67,0,0,0,44.12,25.52Z"/><path d="M47.19,19.58h1.34v8.83H47.19Z"/><path d="M56.16,19.89h1.41l3.2,8.52H59.25l-.64-1.84H55.13l-.64,1.84H53Zm2,5.44-1.29-3.7h0l-1.29,3.7Z"/><path d="M61.4,25.5a2.9,2.9,0,0,1,3-3,3.21,3.21,0,0,1,2.46,1.09l-.91.8a1.9,1.9,0,0,0-1.48-.68,1.8,1.8,0,0,0,0,3.6A1.85,1.85,0,0,0,66,26.6l.92.81a2.93,2.93,0,0,1-2.52,1.09A2.87,2.87,0,0,1,61.4,25.5Z"/><path d="M68.25,26.56V23.7h-.72V22.56h.72V20.61l1.34-.14v2.09H71.3V23.7H69.59v2.73c0,.6.18.82.56.82A2,2,0,0,0,71,27l.34,1.17a2.72,2.72,0,0,1-1.48.34C68.87,28.5,68.25,27.87,68.25,26.56Z"/><path d="M72.37,20.79a.89.89,0,0,1,.9-.88.89.89,0,1,1-.9.88Zm.23,1.77h1.34v5.85H72.6Z"/><path d="M75.15,22.56h1.43l1.53,4.17h0l1.52-4.17h1.43l-2.33,5.85H77.46Z"/><path d="M87.14,25.93H82.87a1.63,1.63,0,0,0,1.72,1.35,1.83,1.83,0,0,0,1.47-.68l.94.8a3.14,3.14,0,0,1-5.52-1.92,2.84,2.84,0,0,1,2.94-3,2.74,2.74,0,0,1,2.76,2.94A4.59,4.59,0,0,1,87.14,25.93ZM82.9,24.87h2.92a1.4,1.4,0,0,0-1.41-1.19A1.47,1.47,0,0,0,82.9,24.87Z"/><path d="M92,19.89h2.71a4.1,4.1,0,0,1,4.42,4.27,4,4,0,0,1-4.39,4.25H92Zm2.66,7.22a2.83,2.83,0,0,0,3-2.95,2.82,2.82,0,0,0-2.9-3H93.41v5.92Z"/><path d="M100.26,25.51a2.85,2.85,0,0,1,2.82-3,2.25,2.25,0,0,1,1.81.81l0,0v-.7h1.35v5.85H105v-.77h0a2.2,2.2,0,0,1-1.86.87A2.79,2.79,0,0,1,100.26,25.51Zm4.72,0a1.72,1.72,0,0,0-1.67-1.84,1.69,1.69,0,0,0-1.68,1.84,1.64,1.64,0,0,0,1.68,1.76A1.68,1.68,0,0,0,105,25.52Z"/><path d="M109.7,28.08l-2.4-5.52h1.44l1.61,3.92h0l1.5-3.92h1.38L110,30.78h-1.39Z"/><path d="M113.71,27.65l.67-1a2.28,2.28,0,0,0,1.69.68c.52,0,.82-.23.82-.58s-.38-.44-1.15-.7c-1-.34-1.79-.77-1.79-1.92,0-1,.87-1.66,2.07-1.66a3.16,3.16,0,0,1,2.06.73l-.67,1.06a2.17,2.17,0,0,0-1.47-.62c-.26,0-.63.14-.63.5s.36.49.92.71c1.25.49,2,.72,2,1.88,0,1-.7,1.77-2.19,1.77A3.5,3.5,0,0,1,113.71,27.65Z"/><path d="M22.47,37h1.34v.69h0a2.39,2.39,0,0,1,1.85-.78,2.85,2.85,0,0,1,2.83,3,2.8,2.8,0,0,1-2.84,3,2.27,2.27,0,0,1-1.84-.82h0v3.08H22.47Zm4.67,3a1.7,1.7,0,0,0-1.69-1.84,1.72,1.72,0,0,0-1.7,1.84,1.68,1.68,0,0,0,1.71,1.76A1.65,1.65,0,0,0,27.14,39.92Z"/><path d="M35.23,40.33H31a1.63,1.63,0,0,0,1.72,1.35A1.83,1.83,0,0,0,34.15,41l.94.8a2.88,2.88,0,0,1-2.48,1.11,2.88,2.88,0,0,1-3-3,2.84,2.84,0,0,1,2.94-3,2.74,2.74,0,0,1,2.76,2.94A4.59,4.59,0,0,1,35.23,40.33ZM31,39.27h2.92a1.4,1.4,0,0,0-1.41-1.19A1.47,1.47,0,0,0,31,39.27Z"/><path d="M36.66,37H38v.87h0a2.24,2.24,0,0,1,1.81-1H40v1.5l-.41,0A1.55,1.55,0,0,0,38,40v2.77H36.66Z"/><path d="M43.83,34.29h1.56l2.26,6.43h0l2.26-6.43h1.55l-3.18,8.52H47Z"/><path d="M57,40.33H52.74a1.62,1.62,0,0,0,1.72,1.35A1.83,1.83,0,0,0,55.93,41l.94.8a3.13,3.13,0,0,1-5.52-1.92,2.84,2.84,0,0,1,2.94-3,2.74,2.74,0,0,1,2.76,2.94A4.59,4.59,0,0,1,57,40.33Zm-4.24-1.06h2.92a1.4,1.4,0,0,0-1.41-1.19A1.47,1.47,0,0,0,52.77,39.27Z"/><path d="M58.44,34h1.34v3.71h0a2.63,2.63,0,0,1,2-.82c1.28,0,2.18.69,2.18,2.44v3.5H62.63V39.66c0-1.17-.47-1.58-1.27-1.58-1,0-1.58.6-1.58,1.75v3H58.44Z"/><path d="M65.47,35.19a.91.91,0,1,1,.9.9A.89.89,0,0,1,65.47,35.19ZM65.7,37H67v5.85H65.7Z"/><path d="M68.53,39.9a2.9,2.9,0,0,1,3-3A3.24,3.24,0,0,1,74,38l-.92.8a1.88,1.88,0,0,0-1.47-.68,1.8,1.8,0,0,0,0,3.6A1.82,1.82,0,0,0,73.11,41l.93.81a2.93,2.93,0,0,1-2.52,1.1A2.88,2.88,0,0,1,68.53,39.9Z"/><path d="M75.35,34h1.34v8.83H75.35Z"/><path d="M83.84,40.33H79.57a1.63,1.63,0,0,0,1.72,1.35A1.83,1.83,0,0,0,82.76,41l.94.8a3.13,3.13,0,0,1-5.52-1.92,2.84,2.84,0,0,1,2.94-3,2.74,2.74,0,0,1,2.76,2.94A4.59,4.59,0,0,1,83.84,40.33ZM79.6,39.27h2.92a1.39,1.39,0,0,0-1.41-1.19A1.47,1.47,0,0,0,79.6,39.27Z"/><text class="cls-8" transform="translate(21.59 244.11)"><tspan class="cls-9">v</tspan><tspan x="3.94" y="0">ehicles</tspan></text><text class="cls-10" transform="translate(23.96 265.55)">1</text><text class="cls-10" transform="translate(37.55 265.55)">2</text><text class="cls-10" transform="translate(51.53 265.55)">3</text><text class="cls-10" transform="translate(65.46 265.55)">4</text><text class="cls-10" transform="translate(79.52 265.55)">5</text><text class="cls-10" transform="translate(93.46 265.55)">6</text><text class="cls-10" transform="translate(107.76 265.55)">7</text><circle class="cls-1" cx="67.15" cy="254.14" r="3.49"/><circle class="cls-2" cx="109.23" cy="254.14" r="3.49"/><circle class="cls-3" cx="39.1" cy="254.14" r="3.49"/><circle class="cls-4" cx="53.13" cy="254.14" r="3.49"/><circle class="cls-5" cx="95.2" cy="254.14" r="3.49"/><circle class="cls-6" cx="81.18" cy="254.14" r="3.49"/><circle class="cls-7" cx="25.08" cy="254.14" r="3.49"/></svg>