<svg width="852" height="577" viewBox="0 0 852 577" fill="none" xmlns="http://www.w3.org/2000/svg">
<g filter="url(#filter0_d)">
<rect x="45" y="46" width="364" height="479" rx="15" fill="white"/>
<path d="M332.06 270.654L218.654 294.08V178.222C245.326 178.231 271.176 187.433 291.839 204.274C312.501 221.115 326.708 244.562 332.06 270.654V270.654Z" fill="#02B8AA"/>
<path d="M334.313 293.805C334.313 324.456 322.121 353.853 300.418 375.528C278.715 397.203 249.279 409.383 218.584 409.387V294.08L331.921 270.362C333.516 278.074 334.318 285.93 334.313 293.805Z" fill="#374649"/>
<path d="M218.654 294.08V409.645C198.981 409.655 179.63 404.656 162.431 395.12C145.232 385.583 130.752 371.825 120.359 355.145L218.654 294.08Z" fill="#FD625D"/>
<path d="M218.655 294.08L120.378 355.145C111.601 341.045 105.964 325.225 103.849 308.757C101.735 292.29 103.193 275.561 108.123 259.706L218.655 294.08Z" fill="#F2C80F"/>
<path d="M218.654 294.08L108.123 259.706C115.59 235.827 130.602 215.006 150.911 200.359L218.654 294.08Z" fill="#5F6B6D"/>
<path d="M218.654 294.08L150.91 200.359C160.452 193.471 170.992 188.08 182.166 184.375L218.654 294.08Z" fill="#8AD4EB"/>
<path d="M218.654 178.515V294.08L182.166 184.375C193.934 180.474 206.255 178.494 218.654 178.515Z" fill="#EC008C"/>
<path d="M81.9787 72.4191H77.8652V70.1848H88.7256V72.4191H84.4744V84.8281H81.9787V72.4191Z" fill="black"/>
<path d="M88.3473 79.8269C88.3233 78.7785 88.6128 77.7468 89.1786 76.8634C89.7445 75.98 90.5611 75.2851 91.5242 74.8672C92.4874 74.4493 93.5534 74.3275 94.5862 74.5173C95.619 74.7071 96.5717 75.1999 97.3228 75.9328C98.0738 76.6657 98.5892 77.6055 98.803 78.6322C99.0168 79.6588 98.9195 80.7258 98.5233 81.697C98.1272 82.6682 97.4502 83.4994 96.5789 84.0847C95.7075 84.67 94.6813 84.9827 93.6312 84.983C92.9387 85.0163 92.2467 84.9066 91.5986 84.6609C90.9504 84.4151 90.36 84.0386 89.8641 83.5547C89.3682 83.0708 88.9776 82.49 88.7166 81.8486C88.4557 81.2072 88.3299 80.519 88.3473 79.8269V79.8269ZM96.5743 79.8269C96.5507 79.2513 96.3582 78.6954 96.0208 78.2282C95.6834 77.7609 95.2159 77.403 94.6765 77.1989C94.1371 76.9948 93.5494 76.9535 92.9867 77.0801C92.4239 77.2067 91.9109 77.4957 91.5112 77.9111C91.1116 78.3265 90.843 78.8501 90.7389 79.4166C90.6347 79.9832 90.6996 80.5679 90.9255 81.0979C91.1513 81.628 91.5282 82.0801 92.0093 82.398C92.4903 82.7159 93.0543 82.8857 93.6312 82.8862C94.028 82.8865 94.4208 82.8067 94.786 82.6515C95.1512 82.4964 95.4811 82.2691 95.7561 81.9833C96.031 81.6975 96.2452 81.3591 96.3858 80.9886C96.5265 80.618 96.5906 80.2228 96.5743 79.8269Z" fill="black"/>
<path d="M101.531 81.6485V76.733H100.24V74.7737H101.479V71.4223L103.786 71.1816V74.7737H106.746V76.733H103.837V81.4251C103.837 82.4563 104.147 82.8344 104.818 82.8344C105.339 82.7995 105.846 82.6467 106.299 82.3876L106.901 84.3984C106.118 84.8304 105.229 85.0329 104.337 84.9828C102.598 84.9828 101.531 83.9 101.531 81.6485Z" fill="black"/>
<path d="M107.829 79.8441C107.794 79.1838 107.894 78.5233 108.121 77.9024C108.349 77.2814 108.7 76.713 109.154 76.2312C109.607 75.7494 110.154 75.3643 110.76 75.0991C111.367 74.8339 112.021 74.694 112.683 74.688C113.274 74.667 113.862 74.7816 114.402 75.0229C114.942 75.2642 115.42 75.6259 115.798 76.0801V76.0801V74.877H118.122V84.9314H115.936V83.608C115.564 84.0985 115.079 84.491 114.521 84.7515C113.963 85.0121 113.35 85.1328 112.735 85.1033C112.054 85.1211 111.378 84.9944 110.75 84.7314C110.123 84.4684 109.559 84.0752 109.095 83.5779C108.631 83.0806 108.278 82.4906 108.06 81.8469C107.842 81.2031 107.763 80.5205 107.829 79.8441ZM115.936 79.8441C115.964 79.4474 115.911 79.0492 115.782 78.6732C115.652 78.2973 115.448 77.9513 115.181 77.6561C114.914 77.3608 114.591 77.1224 114.229 76.9549C113.868 76.7875 113.477 76.6946 113.079 76.6817C112.676 76.6825 112.277 76.767 111.908 76.9299C111.539 77.0927 111.208 77.3304 110.936 77.6278C110.665 77.9252 110.458 78.2758 110.329 78.6573C110.2 79.0388 110.152 79.443 110.187 79.8441C110.158 80.2371 110.212 80.6318 110.345 81.0027C110.478 81.3736 110.688 81.7125 110.961 81.9976C111.233 82.2826 111.562 82.5075 111.927 82.6575C112.292 82.8076 112.684 82.8797 113.079 82.869C113.467 82.8671 113.85 82.7869 114.206 82.6331C114.562 82.4793 114.883 82.2551 115.15 81.9741C115.417 81.6931 115.624 81.361 115.759 80.9979C115.894 80.6348 115.954 80.2482 115.936 79.8613V79.8441Z" fill="black"/>
<path d="M121.221 69.6521H123.527V84.8282H121.221V69.6521Z" fill="black"/>
<path d="M136.659 70.1848H139.086L144.594 84.8281H141.978L140.876 81.6657H134.887L133.785 84.8281H131.221L136.659 70.1848ZM140.102 79.5345L137.882 73.1754L135.661 79.5345H140.102Z" fill="black"/>
<path d="M145.677 79.8269C145.653 79.1433 145.77 78.4621 146.021 77.8257C146.272 77.1893 146.652 76.6112 147.136 76.1276C147.62 75.6439 148.199 75.265 148.837 75.0144C149.474 74.7637 150.156 74.6468 150.841 74.6708C151.64 74.6585 152.433 74.8197 153.164 75.1431C153.895 75.4666 154.547 75.9446 155.075 76.5442L153.508 77.9191C153.197 77.548 152.807 77.2505 152.366 77.0484C151.926 76.8463 151.446 76.7445 150.961 76.7504C150.139 76.7504 149.351 77.0764 148.77 77.6565C148.189 78.2367 147.863 79.0236 147.863 79.8441C147.863 80.6646 148.189 81.4515 148.77 82.0316C149.351 82.6118 150.139 82.9377 150.961 82.9377C151.465 82.9573 151.967 82.8569 152.425 82.6447C152.883 82.4326 153.284 82.1147 153.594 81.7175L155.178 83.1096C154.663 83.7519 153.999 84.2584 153.243 84.585C152.486 84.9116 151.662 85.0482 150.841 84.983C150.154 85.0148 149.468 84.9032 148.828 84.6554C148.187 84.4075 147.605 84.0288 147.119 83.5436C146.633 83.0583 146.253 82.4771 146.005 81.8371C145.757 81.1971 145.645 80.5125 145.677 79.8269Z" fill="black"/>
<path d="M157.468 81.6485V76.733H156.229V74.7737H157.468V71.4223L159.774 71.1816V74.7737H162.717V76.733H159.774V81.4251C159.774 82.4563 160.084 82.8344 160.738 82.8344C161.252 82.8022 161.752 82.6554 162.201 82.4048L162.786 84.4156C162.01 84.848 161.126 85.0506 160.239 85C158.535 84.9828 157.468 83.9 157.468 81.6485Z" fill="black"/>
<path d="M164.559 71.7318C164.561 71.5309 164.603 71.3324 164.682 71.1477C164.761 70.963 164.876 70.7956 165.019 70.6552C165.163 70.5147 165.333 70.404 165.52 70.3292C165.707 70.2544 165.907 70.2171 166.108 70.2193C166.411 70.2228 166.706 70.3158 166.956 70.4867C167.206 70.6576 167.399 70.8987 167.512 71.1795C167.625 71.4603 167.652 71.7681 167.589 72.0642C167.527 72.3602 167.378 72.6311 167.161 72.8426C166.945 73.0541 166.67 73.1967 166.372 73.2524C166.075 73.3081 165.767 73.2743 165.488 73.1554C165.21 73.0365 164.973 72.8378 164.807 72.5844C164.642 72.331 164.555 72.0343 164.559 71.7318V71.7318ZM164.955 74.7739H167.261V84.8283H164.955V74.7739Z" fill="black"/>
<path d="M169.344 74.7739H171.805L174.438 81.9409L177.054 74.7739H179.516L175.505 84.8283H173.32L169.344 74.7739Z" fill="black"/>
<path d="M189.98 80.5659H182.631C182.749 81.2502 183.117 81.8665 183.664 82.2952C184.211 82.7239 184.897 82.9345 185.591 82.8861C186.074 82.8983 186.554 82.7992 186.993 82.5965C187.431 82.3938 187.818 82.093 188.121 81.7174L189.739 83.0924C189.032 83.9148 188.093 84.5056 187.045 84.7878C185.997 85.0699 184.888 85.0304 183.863 84.6743C182.838 84.3182 181.944 83.662 181.297 82.7913C180.651 81.9205 180.282 80.8756 180.238 79.7925C180.2 79.114 180.303 78.4349 180.542 77.7987C180.781 77.1624 181.151 76.5831 181.627 76.0977C182.104 75.6124 182.676 75.2317 183.308 74.98C183.941 74.7284 184.618 74.6113 185.299 74.6364C185.951 74.6299 186.597 74.7586 187.197 75.0143C187.797 75.2701 188.337 75.6473 188.784 76.1222C189.23 76.5971 189.573 77.1593 189.791 77.7733C190.009 78.3873 190.097 79.0397 190.049 79.6893C190.042 79.9826 190.019 80.2752 189.98 80.5659V80.5659ZM182.682 78.7441H187.708C187.621 78.1673 187.326 77.642 186.88 77.2658C186.433 76.8895 185.865 76.6881 185.281 76.6988C184.674 76.6713 184.078 76.8628 183.601 77.2384C183.123 77.6139 182.798 78.1484 182.682 78.7441V78.7441Z" fill="black"/>
<path d="M198.344 70.1849H203.008C204.005 70.1059 205.008 70.2396 205.949 70.5769C206.891 70.9142 207.749 71.4475 208.469 72.1415C209.188 72.8355 209.752 73.6742 210.122 74.6021C210.492 75.53 210.66 76.5259 210.615 77.5237C210.683 78.5213 210.532 79.5215 210.173 80.4547C209.813 81.3879 209.255 82.2316 208.535 82.9271C207.816 83.6225 206.953 84.1528 206.008 84.4812C205.062 84.8095 204.056 84.928 203.06 84.8282H198.344V70.1849ZM202.922 82.5939C203.604 82.6355 204.286 82.5336 204.926 82.2947C205.565 82.0558 206.148 81.6852 206.634 81.2071C207.121 80.729 207.502 80.154 207.752 79.5195C208.002 78.8849 208.116 78.205 208.085 77.5237C208.129 76.85 208.031 76.1746 207.798 75.5408C207.565 74.9071 207.201 74.329 206.731 73.8435C206.262 73.3581 205.695 72.9761 205.069 72.7219C204.443 72.4678 203.77 72.3471 203.094 72.3676H200.771V82.5423L202.922 82.5939Z" fill="black"/>
<path d="M212.56 79.8441C212.525 79.1838 212.624 78.5233 212.852 77.9024C213.08 77.2814 213.431 76.713 213.884 76.2312C214.338 75.7494 214.884 75.3643 215.491 75.0991C216.097 74.8339 216.751 74.694 217.414 74.688C218.005 74.667 218.593 74.7816 219.133 75.0229C219.673 75.2642 220.151 75.6259 220.529 76.0801V74.877H222.852V84.9314H220.718V83.608C220.347 84.0985 219.861 84.491 219.303 84.7515C218.745 85.0121 218.132 85.1328 217.517 85.1033C216.832 85.1286 216.15 85.0074 215.516 84.7477C214.883 84.4881 214.312 84.096 213.842 83.5979C213.373 83.0997 213.015 82.507 212.794 81.8596C212.573 81.2121 212.493 80.5249 212.56 79.8441ZM220.684 79.8441C220.712 79.446 220.659 79.0464 220.528 78.6693C220.397 78.2923 220.191 77.9455 219.923 77.65C219.654 77.3546 219.329 77.1164 218.965 76.95C218.602 76.7836 218.209 76.6923 217.809 76.6817C217.406 76.6825 217.007 76.767 216.639 76.9299C216.27 77.0927 215.939 77.3304 215.667 77.6278C215.395 77.9252 215.188 78.2758 215.059 78.6573C214.93 79.0388 214.882 79.443 214.918 79.8441C214.889 80.2371 214.943 80.6318 215.076 81.0027C215.209 81.3736 215.419 81.7125 215.691 81.9976C215.964 82.2826 216.293 82.5075 216.658 82.6575C217.023 82.8076 217.415 82.8797 217.809 82.869C218.201 82.8717 218.589 82.7949 218.95 82.6434C219.311 82.4918 219.637 82.2687 219.909 81.9874C220.181 81.7062 220.393 81.3727 220.532 81.0073C220.671 80.6418 220.734 80.2519 220.718 79.8613L220.684 79.8441Z" fill="black"/>
<path d="M228.808 84.2611L224.678 74.7739H227.156L229.927 81.5112L232.509 74.7739H234.884L229.325 88.9016H226.932L228.808 84.2611Z" fill="black"/>
<path d="M235.711 83.5219L236.864 81.8032C237.242 82.1872 237.696 82.4892 238.196 82.6903C238.697 82.8914 239.234 82.9873 239.773 82.972C240.668 82.972 241.184 82.5767 241.184 81.9751C241.184 81.3736 240.53 81.2189 239.205 80.772C237.484 80.1877 236.124 79.4486 236.124 77.4721C236.124 75.7534 237.621 74.6191 239.687 74.6191C240.98 74.6029 242.238 75.0477 243.232 75.8737L242.079 77.6956C241.402 77.0324 240.497 76.6515 239.549 76.63C239.102 76.63 238.465 76.8706 238.465 77.4893C238.465 78.108 239.084 78.3315 240.048 78.7096C242.2 79.5518 243.49 79.9471 243.49 81.9407C243.49 83.6594 242.286 84.9828 239.721 84.9828C238.251 85.001 236.824 84.4814 235.711 83.5219V83.5219Z" fill="black"/>
<path d="M78.6738 99.5919H80.9802V100.778C81.3818 100.337 81.8746 99.989 82.4244 99.7575C82.9742 99.526 83.5679 99.4167 84.1643 99.4373C84.8278 99.441 85.4838 99.5791 86.0923 99.8433C86.7009 100.108 87.2494 100.492 87.7048 100.974C88.1601 101.456 88.5128 102.026 88.7415 102.648C88.9701 103.27 89.07 103.932 89.0351 104.593C89.0829 105.259 88.9915 105.928 88.7664 106.557C88.5414 107.186 88.1877 107.761 87.728 108.246C87.2682 108.731 86.7124 109.115 86.0959 109.374C85.4794 109.633 84.8157 109.761 84.147 109.749C83.5462 109.774 82.9478 109.659 82.3985 109.415C81.8492 109.17 81.3638 108.803 80.9802 108.34V108.34V113.634H78.6738V99.5919ZM86.7115 104.748C86.7448 104.346 86.6944 103.942 86.5634 103.56C86.4324 103.178 86.2237 102.828 85.9505 102.531C85.6772 102.234 85.3453 101.997 84.9757 101.834C84.6061 101.671 84.2068 101.587 83.8028 101.586C83.399 101.589 83.0001 101.676 82.6309 101.839C82.2616 102.002 81.9297 102.239 81.6556 102.536C81.3816 102.832 81.1711 103.181 81.0372 103.561C80.9032 103.942 80.8487 104.346 80.8769 104.748C80.858 105.143 80.9205 105.538 81.0606 105.907C81.2006 106.277 81.4153 106.615 81.6912 106.898C81.9672 107.182 82.2985 107.406 82.6647 107.556C83.0309 107.707 83.4241 107.78 83.82 107.773C84.2265 107.783 84.6303 107.706 85.0043 107.547C85.3783 107.387 85.7137 107.15 85.9879 106.85C86.262 106.55 86.4685 106.195 86.5933 105.809C86.7182 105.422 86.7585 105.014 86.7115 104.611V104.748Z" fill="black"/>
<path d="M100.636 105.315H93.3554C93.4732 105.999 93.8412 106.616 94.3882 107.044C94.9352 107.473 95.6221 107.684 96.3158 107.635C96.7875 107.637 97.2535 107.533 97.6795 107.331C98.1055 107.128 98.4806 106.833 98.777 106.467L100.395 107.842C99.8955 108.486 99.2447 108.997 98.5001 109.33C97.7555 109.663 96.9402 109.807 96.1264 109.749C95.4406 109.779 94.7561 109.665 94.1164 109.416C93.4767 109.168 92.8958 108.789 92.4104 108.304C91.925 107.819 91.5456 107.239 91.2965 106.6C91.0474 105.962 90.9338 105.278 90.963 104.593C90.9242 103.915 91.0277 103.236 91.2669 102.599C91.5061 101.963 91.8757 101.384 92.352 100.899C92.8283 100.413 93.4009 100.032 94.0331 99.7808C94.6653 99.5292 95.3431 99.4121 96.0232 99.4372C96.6754 99.4307 97.3219 99.5594 97.9218 99.8151C98.5217 100.071 99.062 100.448 99.5084 100.923C99.9549 101.398 100.298 101.96 100.516 102.574C100.733 103.188 100.821 103.841 100.774 104.49C100.742 104.767 100.696 105.043 100.636 105.315ZM93.3554 103.493H98.3811C98.2936 102.917 97.9993 102.391 97.5529 102.015C97.1064 101.639 96.5384 101.437 95.9543 101.448C95.3474 101.421 94.7508 101.612 94.2736 101.988C93.7964 102.363 93.4705 102.898 93.3554 103.493V103.493Z" fill="black"/>
<path d="M103.098 99.5918H105.404V101.087C105.747 100.572 106.209 100.146 106.751 99.8473C107.293 99.5481 107.9 99.3839 108.519 99.3684H108.846V101.946H108.141C107.773 101.936 107.407 102.003 107.065 102.141C106.724 102.279 106.415 102.486 106.158 102.749C105.901 103.012 105.702 103.326 105.572 103.67C105.442 104.014 105.385 104.381 105.404 104.748V109.509H103.098V99.5918Z" fill="black"/>
<path d="M115.438 94.9343H118.122L122.012 105.986L125.902 94.9343H128.57L123.097 109.578H120.894L115.438 94.9343Z" fill="black"/>
<path d="M138.105 105.315H130.773C130.887 106.001 131.255 106.62 131.802 107.049C132.35 107.479 133.039 107.688 133.734 107.635C134.217 107.648 134.697 107.548 135.135 107.346C135.574 107.143 135.96 106.842 136.264 106.467L137.882 107.842C137.179 108.673 136.24 109.272 135.189 109.559C134.138 109.847 133.025 109.81 131.996 109.452C130.967 109.095 130.07 108.434 129.425 107.557C128.78 106.681 128.416 105.629 128.381 104.542C128.342 103.863 128.446 103.184 128.685 102.548C128.924 101.912 129.294 101.332 129.77 100.847C130.246 100.362 130.819 99.9809 131.451 99.7293C132.083 99.4777 132.761 99.3606 133.441 99.3856C134.093 99.3791 134.74 99.5078 135.34 99.7636C135.94 100.019 136.48 100.397 136.926 100.871C137.373 101.346 137.716 101.909 137.934 102.523C138.151 103.137 138.239 103.789 138.191 104.439C138.179 104.732 138.15 105.025 138.105 105.315V105.315ZM130.808 103.493H135.834C135.746 102.917 135.452 102.391 135.005 102.015C134.559 101.639 133.991 101.437 133.407 101.448C132.803 101.425 132.21 101.618 131.737 101.993C131.263 102.369 130.94 102.901 130.825 103.493H130.808Z" fill="black"/>
<path d="M140.582 94.4358H142.888V100.812C143.329 100.347 143.864 99.981 144.458 99.738C145.051 99.4951 145.69 99.3808 146.331 99.4028C148.534 99.4028 150.083 100.589 150.083 103.596V109.612H147.794V104.164C147.794 102.153 146.985 101.448 145.608 101.448C143.887 101.448 142.888 102.479 142.888 104.456V109.612H140.582V94.4358Z" fill="black"/>
<path d="M152.684 96.481C152.68 96.1702 152.77 95.8655 152.94 95.6057C153.111 95.3459 153.356 95.1427 153.643 95.0222C153.929 94.9017 154.246 94.8693 154.551 94.9291C154.857 94.9889 155.137 95.1382 155.357 95.358C155.577 95.5778 155.727 95.858 155.787 96.163C155.847 96.468 155.814 96.7839 155.694 97.0703C155.573 97.3568 155.369 97.6009 155.109 97.7714C154.849 97.942 154.544 98.0312 154.233 98.0278C154.029 98.0301 153.826 97.9917 153.637 97.9148C153.448 97.8379 153.277 97.724 153.132 97.5799C152.988 97.4358 152.874 97.2644 152.797 97.0757C152.72 96.887 152.681 96.6848 152.684 96.481ZM153.08 99.5919H155.317V109.646H153.08V99.5919Z" fill="black"/>
<path d="M157.951 104.576C157.926 103.893 158.044 103.211 158.295 102.575C158.546 101.939 158.925 101.36 159.409 100.877C159.894 100.393 160.473 100.014 161.11 99.7636C161.747 99.513 162.429 99.3961 163.114 99.4201C163.917 99.4109 164.713 99.575 165.446 99.9013C166.18 100.228 166.835 100.708 167.365 101.311L165.782 102.686C165.474 102.315 165.087 102.017 164.649 101.815C164.211 101.613 163.734 101.511 163.252 101.517C162.43 101.517 161.642 101.843 161.061 102.423C160.48 103.003 160.154 103.79 160.154 104.611C160.154 105.431 160.48 106.218 161.061 106.798C161.642 107.378 162.43 107.704 163.252 107.704C163.749 107.718 164.243 107.613 164.692 107.397C165.141 107.182 165.533 106.863 165.833 106.467L167.434 107.859C166.921 108.504 166.257 109.014 165.501 109.344C164.745 109.673 163.919 109.813 163.097 109.749C162.411 109.776 161.727 109.661 161.088 109.41C160.449 109.159 159.869 108.778 159.385 108.292C158.902 107.805 158.524 107.224 158.277 106.584C158.03 105.945 157.919 105.261 157.951 104.576Z" fill="black"/>
<path d="M169.688 94.4358H171.994V109.612H169.688V94.4358Z" fill="black"/>
<path d="M184.3 105.315H176.951C177.069 105.999 177.437 106.616 177.984 107.044C178.531 107.473 179.218 107.684 179.911 107.635C180.395 107.648 180.874 107.548 181.313 107.346C181.752 107.143 182.138 106.842 182.442 106.467L184.059 107.842C183.356 108.673 182.418 109.272 181.367 109.559C180.316 109.847 179.202 109.81 178.173 109.452C177.144 109.095 176.248 108.434 175.603 107.557C174.957 106.681 174.593 105.629 174.559 104.542C174.52 103.863 174.623 103.184 174.863 102.548C175.102 101.912 175.471 101.332 175.948 100.847C176.424 100.362 176.997 99.9809 177.629 99.7293C178.261 99.4777 178.939 99.3606 179.619 99.3856C180.271 99.3791 180.918 99.5078 181.518 99.7636C182.117 100.019 182.658 100.397 183.104 100.871C183.551 101.346 183.894 101.909 184.111 102.523C184.329 103.137 184.417 103.789 184.369 104.439C184.363 104.732 184.34 105.024 184.3 105.315V105.315ZM177.003 103.493H182.028C181.944 102.915 181.651 102.388 181.204 102.011C180.757 101.634 180.187 101.434 179.602 101.448C178.995 101.421 178.398 101.612 177.921 101.988C177.444 102.363 177.118 102.898 177.003 103.493Z" fill="black"/>
<path d="M79.556 454H80.84L83.168 448.144H81.74L80.216 452.32H80.204L78.68 448.144H77.24L79.556 454ZM89.2749 451C89.2749 449.296 88.1589 448.06 86.5149 448.06C84.7989 448.06 83.5749 449.272 83.5749 451.072C83.5749 452.908 84.8349 454.096 86.6109 454.096C87.8709 454.096 88.6029 453.628 89.0949 452.992L88.1589 452.188C87.8589 452.56 87.3789 452.872 86.6829 452.872C85.7709 452.872 85.1349 452.368 84.9669 451.516H89.2389C89.2509 451.42 89.2749 451.216 89.2749 451ZM86.5029 449.272C87.2709 449.272 87.7509 449.752 87.9189 450.46H84.9909C85.1829 449.692 85.7589 449.272 86.5029 449.272ZM90.6612 454H92.0052V451.024C92.0052 449.872 92.6052 449.272 93.5772 449.272C94.3812 449.272 94.8492 449.68 94.8492 450.844V454H96.1932V450.496C96.1932 448.744 95.2932 448.06 94.0092 448.06C93.2172 448.06 92.5092 448.336 92.0172 448.876H92.0052V445.168H90.6612V454ZM98.589 447.28C99.093 447.28 99.501 446.872 99.501 446.38C99.501 445.9 99.093 445.492 98.589 445.492C98.085 445.492 97.689 445.9 97.689 446.38C97.689 446.872 98.085 447.28 98.589 447.28ZM97.917 454H99.261V448.144H97.917V454ZM103.743 454.096C105.015 454.096 105.771 453.64 106.263 453.004L105.339 452.188C105.039 452.584 104.511 452.872 103.863 452.872C102.831 452.872 102.123 452.152 102.123 451.072C102.123 450.004 102.819 449.272 103.863 449.272C104.499 449.272 105.003 449.548 105.339 449.944L106.251 449.152C105.663 448.432 104.703 448.06 103.791 448.06C102.015 448.06 100.755 449.284 100.755 451.084C100.755 452.872 102.015 454.096 103.743 454.096ZM107.573 454H108.917V445.168H107.573V454ZM116.111 451C116.111 449.296 114.995 448.06 113.351 448.06C111.635 448.06 110.411 449.272 110.411 451.072C110.411 452.908 111.671 454.096 113.447 454.096C114.707 454.096 115.439 453.628 115.931 452.992L114.995 452.188C114.695 452.56 114.215 452.872 113.519 452.872C112.607 452.872 111.971 452.368 111.803 451.516H116.075C116.087 451.42 116.111 451.216 116.111 451ZM113.339 449.272C114.107 449.272 114.587 449.752 114.755 450.46H111.827C112.019 449.692 112.595 449.272 113.339 449.272ZM119.369 454.096C120.857 454.096 121.553 453.304 121.553 452.32C121.553 451.156 120.773 450.928 119.525 450.436C118.961 450.22 118.601 450.016 118.601 449.728C118.601 449.368 118.973 449.224 119.237 449.224C119.693 449.224 120.233 449.404 120.701 449.848L121.373 448.792C120.725 448.264 120.053 448.06 119.309 448.06C118.109 448.06 117.245 448.756 117.245 449.716C117.245 450.868 118.073 451.3 119.033 451.636C119.801 451.9 120.185 452.044 120.185 452.344C120.185 452.692 119.885 452.92 119.369 452.92C118.649 452.92 118.145 452.692 117.677 452.236L117.005 453.244C117.617 453.784 118.421 454.096 119.369 454.096Z" fill="#D8D8D8"/>
<path d="M85.5098 496.776H84.4199V489.552L82.2344 490.354V489.37L85.3398 488.204H85.5098V496.776Z" fill="#D8D8D8"/>
<path d="M110.928 496.776H105.338V495.997L108.291 492.716C108.729 492.219 109.029 491.817 109.193 491.509C109.361 491.196 109.445 490.874 109.445 490.542C109.445 490.096 109.311 489.731 109.041 489.446C108.771 489.161 108.412 489.018 107.963 489.018C107.424 489.018 107.004 489.173 106.703 489.481C106.406 489.786 106.258 490.212 106.258 490.759H105.174C105.174 489.973 105.426 489.339 105.93 488.854C106.438 488.37 107.115 488.128 107.963 488.128C108.756 488.128 109.383 488.337 109.844 488.755C110.305 489.169 110.535 489.721 110.535 490.413C110.535 491.253 110 492.253 108.93 493.413L106.645 495.891H110.928V496.776Z" fill="#D8D8D8"/>
<path d="M130.975 491.983H131.789C132.301 491.975 132.703 491.841 132.996 491.579C133.289 491.317 133.436 490.964 133.436 490.518C133.436 489.518 132.938 489.018 131.941 489.018C131.473 489.018 131.098 489.153 130.816 489.423C130.539 489.688 130.4 490.042 130.4 490.483H129.316C129.316 489.807 129.562 489.247 130.055 488.802C130.551 488.352 131.18 488.128 131.941 488.128C132.746 488.128 133.377 488.341 133.834 488.766C134.291 489.192 134.52 489.784 134.52 490.542C134.52 490.913 134.398 491.272 134.156 491.62C133.918 491.968 133.592 492.227 133.178 492.399C133.646 492.548 134.008 492.794 134.262 493.137C134.52 493.481 134.648 493.901 134.648 494.397C134.648 495.163 134.398 495.77 133.898 496.219C133.398 496.669 132.748 496.893 131.947 496.893C131.146 496.893 130.494 496.677 129.99 496.243C129.49 495.809 129.24 495.237 129.24 494.526H130.33C130.33 494.975 130.477 495.335 130.77 495.604C131.062 495.874 131.455 496.009 131.947 496.009C132.471 496.009 132.871 495.872 133.148 495.598C133.426 495.325 133.564 494.932 133.564 494.421C133.564 493.925 133.412 493.544 133.107 493.278C132.803 493.012 132.363 492.876 131.789 492.868H130.975V491.983Z" fill="#D8D8D8"/>
<path d="M157.951 493.911H159.135V494.796H157.951V496.776H156.861V494.796H152.977V494.157L156.797 488.245H157.951V493.911ZM154.207 493.911H156.861V489.727L156.732 489.962L154.207 493.911Z" fill="#D8D8D8"/>
<path d="M178.072 492.499L178.506 488.245H182.877V489.247H179.426L179.168 491.573C179.586 491.327 180.061 491.204 180.592 491.204C181.369 491.204 181.986 491.462 182.443 491.977C182.9 492.489 183.129 493.182 183.129 494.057C183.129 494.936 182.891 495.63 182.414 496.137C181.941 496.641 181.279 496.893 180.428 496.893C179.674 496.893 179.059 496.684 178.582 496.266C178.105 495.848 177.834 495.27 177.768 494.532H178.793C178.859 495.02 179.033 495.389 179.314 495.639C179.596 495.885 179.967 496.009 180.428 496.009C180.932 496.009 181.326 495.837 181.611 495.493C181.9 495.149 182.045 494.675 182.045 494.069C182.045 493.499 181.889 493.042 181.576 492.698C181.268 492.35 180.855 492.177 180.34 492.177C179.867 492.177 179.496 492.28 179.227 492.487L178.939 492.721L178.072 492.499Z" fill="#D8D8D8"/>
<path d="M205.82 488.239V489.159H205.621C204.777 489.175 204.105 489.425 203.605 489.909C203.105 490.393 202.816 491.075 202.738 491.954C203.188 491.438 203.801 491.18 204.578 491.18C205.32 491.18 205.912 491.442 206.354 491.966C206.799 492.489 207.021 493.165 207.021 493.993C207.021 494.872 206.781 495.575 206.301 496.102C205.824 496.63 205.184 496.893 204.379 496.893C203.562 496.893 202.9 496.581 202.393 495.956C201.885 495.327 201.631 494.518 201.631 493.53V493.114C201.631 491.544 201.965 490.344 202.633 489.516C203.305 488.684 204.303 488.259 205.627 488.239H205.82ZM204.396 492.083C204.025 492.083 203.684 492.194 203.371 492.417C203.059 492.639 202.842 492.919 202.721 493.255V493.653C202.721 494.356 202.879 494.923 203.195 495.352C203.512 495.782 203.906 495.997 204.379 495.997C204.867 495.997 205.25 495.817 205.527 495.458C205.809 495.098 205.949 494.628 205.949 494.046C205.949 493.46 205.807 492.987 205.521 492.628C205.24 492.264 204.865 492.083 204.396 492.083Z" fill="#D8D8D8"/>
<path d="M231.686 488.854L228.152 496.776H227.016L230.537 489.135H225.92V488.245H231.686V488.854Z" fill="#D8D8D8"/>
<path d="M155.575 478.788C158.893 478.788 161.582 476.103 161.582 472.79C161.582 469.477 158.893 466.792 155.575 466.792C152.258 466.792 149.568 469.477 149.568 472.79C149.568 476.103 152.258 478.788 155.575 478.788Z" fill="#02B8AA"/>
<path d="M228.001 478.788C231.318 478.788 234.008 476.103 234.008 472.79C234.008 469.477 231.318 466.792 228.001 466.792C224.683 466.792 221.994 469.477 221.994 472.79C221.994 476.103 224.683 478.788 228.001 478.788Z" fill="#374649"/>
<path d="M107.296 478.788C110.613 478.788 113.303 476.103 113.303 472.79C113.303 469.477 110.613 466.792 107.296 466.792C103.978 466.792 101.289 469.477 101.289 472.79C101.289 476.103 103.978 478.788 107.296 478.788Z" fill="#FD625D"/>
<path d="M131.444 478.788C134.762 478.788 137.451 476.103 137.451 472.79C137.451 469.477 134.762 466.792 131.444 466.792C128.127 466.792 125.438 469.477 125.438 472.79C125.438 476.103 128.127 478.788 131.444 478.788Z" fill="#F2C80F"/>
<path d="M203.852 478.788C207.17 478.788 209.859 476.103 209.859 472.79C209.859 469.477 207.17 466.792 203.852 466.792C200.535 466.792 197.846 469.477 197.846 472.79C197.846 476.103 200.535 478.788 203.852 478.788Z" fill="#5F6B6D"/>
<path d="M179.722 478.788C183.039 478.788 185.728 476.103 185.728 472.79C185.728 469.477 183.039 466.792 179.722 466.792C176.404 466.792 173.715 469.477 173.715 472.79C173.715 476.103 176.404 478.788 179.722 478.788Z" fill="#8AD4EB"/>
<path d="M83.1669 478.788C86.4844 478.788 89.1737 476.103 89.1737 472.79C89.1737 469.477 86.4844 466.792 83.1669 466.792C79.8495 466.792 77.1602 469.477 77.1602 472.79C77.1602 476.103 79.8495 478.788 83.1669 478.788Z" fill="#EC008C"/>
</g>
<g filter="url(#filter1_d)">
<rect x="448" y="46" width="364" height="479" rx="15" fill="white"/>
</g>
<path d="M483.953 73.6689H486.505L491.45 82.6377L496.395 73.6689H499.035V88.6521H496.43V78.6282L492.295 85.768H490.535L486.434 78.6282V88.6521H483.953V73.6689Z" fill="black"/>
<path d="M501.814 75.2516C501.856 74.8584 502.042 74.4944 502.336 74.2298C502.63 73.9652 503.011 73.8188 503.407 73.8188C503.803 73.8188 504.184 73.9652 504.479 74.2298C504.773 74.4944 504.958 74.8584 505 75.2516C504.958 75.6449 504.773 76.0089 504.479 76.2735C504.184 76.538 503.803 76.6844 503.407 76.6844C503.011 76.6844 502.63 76.538 502.336 76.2735C502.042 76.0089 501.856 75.6449 501.814 75.2516ZM502.219 78.3643H504.577V88.652H502.219V78.3643Z" fill="black"/>
<path d="M507.957 73.1238H510.333V88.6521H507.957V73.1238Z" fill="black"/>
<path d="M522.914 84.2907H515.4C515.512 84.988 515.881 85.6182 516.435 86.0574C516.988 86.4967 517.686 86.7133 518.391 86.6648C518.888 86.6786 519.382 86.5779 519.833 86.3706C520.285 86.1632 520.683 85.8547 520.996 85.469L522.632 86.8759C521.911 87.721 520.951 88.3284 519.878 88.6181C518.805 88.9078 517.669 88.8663 516.62 88.4992C515.571 88.132 514.658 87.4562 514 86.5608C513.343 85.6653 512.972 84.5919 512.936 83.4818C512.896 82.7876 513.002 82.0927 513.247 81.4417C513.491 80.7907 513.869 80.1979 514.356 79.7013C514.843 79.2047 515.429 78.8152 516.075 78.5577C516.721 78.3002 517.414 78.1804 518.11 78.206C518.777 78.1967 519.44 78.3266 520.054 78.5874C520.669 78.8481 521.222 79.2341 521.679 79.7206C522.137 80.2071 522.487 80.7834 522.709 81.4128C522.93 82.0423 523.018 82.711 522.967 83.3763C522.965 83.6818 522.947 83.987 522.914 84.2907ZM515.435 82.4266H520.591C520.498 81.8351 520.193 81.2972 519.734 80.9126C519.274 80.5279 518.691 80.3223 518.092 80.3339C517.472 80.3094 516.864 80.5068 516.377 80.8904C515.89 81.274 515.556 81.8188 515.435 82.4266V82.4266Z" fill="black"/>
<path d="M524.553 87.3155L525.749 85.5569C526.134 85.9533 526.597 86.2646 527.109 86.4706C527.622 86.6766 528.172 86.7727 528.723 86.7527C529.621 86.7527 530.149 86.3482 530.149 85.7327C530.149 85.1172 529.48 84.959 528.125 84.5017C526.365 83.9038 524.975 83.1476 524.975 81.1253C524.975 79.3667 526.506 78.206 528.618 78.206C529.941 78.1894 531.226 78.6446 532.243 79.4898L531.064 81.3539C530.376 80.6794 529.458 80.29 528.495 80.2635C528.02 80.2635 527.368 80.5097 527.368 81.1428C527.368 81.7759 528.002 82.0045 528.987 82.3914C531.187 83.2531 532.507 83.6576 532.507 85.6976C532.507 87.4562 531.275 88.8279 528.671 88.8279C527.16 88.841 525.696 88.3033 524.553 87.3155V87.3155Z" fill="black"/>
<path d="M543.944 75.9551H539.703V73.6689H550.808V75.9551H546.549V88.6521H543.944V75.9551Z" fill="black"/>
<path d="M551.688 78.3643H554.063V79.9646C554.415 79.4384 554.888 79.004 555.442 78.698C555.996 78.392 556.616 78.2233 557.249 78.2061H557.548V80.8439H556.826C556.44 80.8295 556.054 80.898 555.697 81.0447C555.339 81.1914 555.016 81.413 554.751 81.6945C554.486 81.9761 554.284 82.311 554.16 82.677C554.035 83.0429 553.99 83.4312 554.028 83.8159V88.6872H551.688V78.3643Z" fill="black"/>
<path d="M558.623 83.4819C558.587 82.8063 558.689 82.1304 558.921 81.4951C559.154 80.8598 559.513 80.2781 559.977 79.7851C560.44 79.2922 560.999 78.8981 561.619 78.6268C562.24 78.3554 562.908 78.2123 563.585 78.2061C564.19 78.1846 564.791 78.3018 565.343 78.5488C565.896 78.7957 566.384 79.1658 566.771 79.6306V79.6306V78.3996H569.146V88.6873H566.911V87.3332C566.532 87.8371 566.036 88.2412 565.466 88.5108C564.896 88.7805 564.268 88.9074 563.638 88.8807C562.941 88.8993 562.248 88.7691 561.605 88.499C560.962 88.2289 560.384 87.825 559.909 87.3142C559.435 86.8033 559.074 86.1974 558.853 85.5366C558.631 84.8758 558.552 84.1753 558.623 83.4819V83.4819ZM566.911 83.4819C566.94 83.076 566.886 82.6685 566.754 82.2839C566.621 81.8992 566.412 81.5452 566.139 81.2431C565.867 80.941 565.536 80.697 565.166 80.5257C564.797 80.3544 564.397 80.2593 563.99 80.2461C563.578 80.2469 563.17 80.3334 562.793 80.5C562.416 80.6667 562.078 80.9099 561.8 81.2141C561.522 81.5184 561.31 81.8771 561.178 82.2675C561.046 82.6579 560.997 83.0715 561.034 83.4819C561.004 83.884 561.059 84.2878 561.195 84.6674C561.331 85.0469 561.546 85.3937 561.824 85.6853C562.103 85.977 562.439 86.207 562.813 86.3606C563.186 86.5142 563.587 86.5879 563.99 86.577C564.381 86.5748 564.767 86.4948 565.126 86.3418C565.485 86.1888 565.81 85.9658 566.082 85.6858C566.354 85.4058 566.567 85.0745 566.71 84.7112C566.852 84.3479 566.921 83.9599 566.911 83.5698V83.4819Z" fill="black"/>
<path d="M571.047 78.3643H573.581L576.256 85.6976L578.931 78.3643H581.447L577.347 88.652H575.112L571.047 78.3643Z" fill="black"/>
<path d="M592.146 84.2907H584.632C584.752 84.9909 585.129 85.6215 585.688 86.0602C586.247 86.4988 586.95 86.7143 587.659 86.6648C588.153 86.6772 588.643 86.5758 589.092 86.3685C589.541 86.1611 589.935 85.8533 590.246 85.469L591.9 86.8759C591.18 87.7274 590.219 88.3406 589.143 88.6342C588.067 88.9279 586.927 88.8881 585.874 88.5202C584.821 88.1523 583.905 87.4736 583.246 86.5739C582.587 85.6743 582.218 84.596 582.186 83.4818C582.146 82.7876 582.252 82.0927 582.497 81.4417C582.741 80.7907 583.119 80.1979 583.606 79.7013C584.093 79.2047 584.679 78.8152 585.325 78.5577C585.971 78.3002 586.664 78.1804 587.36 78.206C588.034 78.187 588.705 78.3095 589.329 78.5657C589.952 78.8219 590.516 79.206 590.982 79.6933C591.448 80.1806 591.806 80.7601 592.034 81.3945C592.262 82.0289 592.354 82.704 592.305 83.3763C592.27 83.6839 592.217 83.9892 592.146 84.2907V84.2907ZM584.685 82.4266H589.823C589.738 81.8349 589.438 81.2952 588.98 80.9095C588.523 80.5239 587.94 80.3191 587.342 80.3339C586.722 80.3094 586.114 80.5068 585.627 80.8904C585.14 81.274 584.806 81.8188 584.685 82.4266Z" fill="black"/>
<path d="M594.82 73.1238H597.178V88.6521H594.82V73.1238Z" fill="black"/>
<path d="M600.559 73.1238H602.864V88.6521H600.559V73.1238Z" fill="black"/>
<path d="M615.5 84.2907H607.986C608.106 84.9909 608.482 85.6215 609.042 86.0602C609.601 86.4988 610.303 86.7143 611.012 86.6648C611.509 86.6786 612.003 86.5779 612.454 86.3706C612.906 86.1632 613.304 85.8547 613.617 85.469L615.254 86.8759C614.534 87.7274 613.572 88.3406 612.496 88.6342C611.42 88.9279 610.28 88.8881 609.227 88.5202C608.174 88.1523 607.258 87.4736 606.6 86.5739C605.941 85.6743 605.571 84.596 605.539 83.4818C605.5 82.7876 605.606 82.0927 605.85 81.4417C606.095 80.7907 606.473 80.1979 606.96 79.7013C607.447 79.2047 608.032 78.8152 608.678 78.5577C609.325 78.3002 610.018 78.1804 610.713 78.206C611.381 78.1967 612.043 78.3266 612.658 78.5874C613.272 78.8481 613.826 79.2341 614.283 79.7206C614.74 80.2071 615.09 80.7834 615.312 81.4128C615.534 82.0423 615.622 82.711 615.57 83.3763C615.573 83.6826 615.55 83.9885 615.5 84.2907V84.2907ZM608.038 82.4266H613.195C613.101 81.8351 612.797 81.2972 612.337 80.9126C611.878 80.5279 611.295 80.3223 610.696 80.3339C610.076 80.3094 609.468 80.5068 608.981 80.8904C608.493 81.274 608.159 81.8188 608.038 82.4266Z" fill="black"/>
<path d="M617.399 83.4818C617.366 82.8053 617.47 82.1291 617.704 81.4937C617.939 80.8583 618.3 80.2768 618.765 79.7842C619.23 79.2915 619.79 78.8977 620.411 78.6266C621.032 78.3554 621.702 78.2124 622.379 78.2061C622.999 78.1852 623.616 78.3022 624.185 78.5485C624.754 78.7949 625.261 79.1644 625.67 79.6305V79.6305V73.1238H628.011V88.6521H625.741V87.2628C625.349 87.7722 624.841 88.1802 624.26 88.4525C623.678 88.7249 623.039 88.8537 622.397 88.8279C621.707 88.8403 621.022 88.7077 620.386 88.4387C619.751 88.1696 619.179 87.7702 618.708 87.2661C618.236 86.7621 617.877 86.1648 617.651 85.5129C617.426 84.861 617.34 84.169 617.399 83.4818V83.4818ZM625.776 83.4818C625.805 83.0687 625.748 82.6541 625.61 82.2636C625.472 81.873 625.256 81.515 624.973 81.2117C624.691 80.9083 624.35 80.6661 623.97 80.5C623.591 80.3339 623.181 80.2474 622.766 80.246C622.353 80.2471 621.945 80.3335 621.567 80.5C621.189 80.6665 620.85 80.9094 620.571 81.2133C620.291 81.5173 620.078 81.8758 619.944 82.2662C619.81 82.6566 619.758 83.0705 619.792 83.4818C619.768 83.8827 619.827 84.2843 619.965 84.6614C620.103 85.0386 620.318 85.3831 620.595 85.6737C620.873 85.9642 621.207 86.1943 621.578 86.3497C621.948 86.5052 622.347 86.5825 622.749 86.577C623.144 86.5793 623.535 86.503 623.901 86.3525C624.266 86.202 624.597 85.9803 624.876 85.7004C625.154 85.4204 625.374 85.0878 625.523 84.722C625.671 84.3562 625.745 83.9645 625.741 83.5698L625.776 83.4818Z" fill="black"/>
<path d="M483.637 103.688H485.995V104.901C486.402 104.451 486.903 104.095 487.462 103.858C488.021 103.621 488.626 103.509 489.233 103.53C489.911 103.536 490.58 103.679 491.201 103.95C491.822 104.221 492.382 104.615 492.847 105.108C493.312 105.601 493.673 106.182 493.908 106.817C494.143 107.453 494.246 108.129 494.213 108.806C494.262 109.487 494.169 110.171 493.938 110.815C493.708 111.458 493.347 112.047 492.877 112.543C492.407 113.039 491.838 113.432 491.208 113.697C490.578 113.962 489.899 114.093 489.215 114.081C488.603 114.108 487.994 113.991 487.435 113.741C486.876 113.49 486.383 113.113 485.995 112.639V112.639V118.073H483.637V103.688ZM491.873 108.964C491.907 108.552 491.855 108.139 491.721 107.748C491.587 107.358 491.374 106.999 491.094 106.695C490.815 106.391 490.476 106.148 490.098 105.982C489.72 105.816 489.312 105.729 488.899 105.728C488.484 105.729 488.074 105.816 487.695 105.982C487.315 106.148 486.974 106.39 486.692 106.694C486.409 106.997 486.193 107.355 486.055 107.746C485.917 108.136 485.86 108.551 485.889 108.964C485.87 109.369 485.934 109.775 486.079 110.154C486.223 110.534 486.444 110.88 486.728 111.17C487.012 111.461 487.353 111.69 487.729 111.843C488.106 111.995 488.51 112.069 488.916 112.059C489.324 112.065 489.729 111.986 490.105 111.826C490.481 111.667 490.819 111.43 491.097 111.132C491.376 110.834 491.589 110.48 491.722 110.095C491.856 109.709 491.907 109.3 491.873 108.893V108.964Z" fill="black"/>
<path d="M506.074 109.614H498.577C498.698 110.314 499.074 110.945 499.633 111.384C500.193 111.822 500.895 112.038 501.604 111.988C502.098 112.002 502.589 111.901 503.038 111.694C503.487 111.486 503.881 111.178 504.191 110.792L505.845 112.199C505.336 112.86 504.67 113.383 503.909 113.724C503.147 114.065 502.313 114.212 501.481 114.151C500.78 114.181 500.08 114.065 499.426 113.811C498.772 113.556 498.178 113.168 497.681 112.673C497.185 112.177 496.797 111.583 496.542 110.929C496.288 110.276 496.172 109.576 496.201 108.876C496.162 108.181 496.268 107.487 496.512 106.836C496.757 106.185 497.135 105.592 497.622 105.095C498.109 104.598 498.694 104.209 499.341 103.951C499.987 103.694 500.68 103.574 501.375 103.6C502.042 103.593 502.703 103.725 503.317 103.987C503.93 104.248 504.482 104.634 504.939 105.12C505.395 105.606 505.746 106.181 505.969 106.81C506.191 107.438 506.281 108.105 506.232 108.77C506.203 109.055 506.15 109.338 506.074 109.614ZM498.63 107.75H503.769C503.683 107.158 503.383 106.619 502.926 106.233C502.468 105.847 501.886 105.643 501.287 105.657C500.668 105.633 500.059 105.83 499.572 106.214C499.085 106.597 498.751 107.142 498.63 107.75V107.75Z" fill="black"/>
<path d="M508.607 103.688H510.983V105.218C511.335 104.692 511.807 104.257 512.362 103.951C512.916 103.645 513.535 103.477 514.168 103.459H514.468V106.097H513.746C513.36 106.083 512.974 106.151 512.616 106.298C512.259 106.445 511.936 106.666 511.671 106.948C511.406 107.229 511.204 107.564 511.08 107.93C510.955 108.296 510.91 108.685 510.948 109.069V113.941H508.607V103.688Z" fill="black"/>
<path d="M521.225 98.9924H523.97L527.947 110.3L531.907 98.9924H534.634L529.038 113.976H526.821L521.225 98.9924Z" fill="black"/>
<path d="M544.421 109.614H536.907C537.027 110.315 537.404 110.945 537.963 111.384C538.522 111.823 539.225 112.038 539.934 111.989C540.428 112.001 540.918 111.9 541.367 111.692C541.816 111.485 542.21 111.177 542.521 110.793L544.175 112.2C543.624 112.921 542.899 113.492 542.068 113.86C541.238 114.227 540.328 114.379 539.422 114.302C538.517 114.225 537.646 113.921 536.89 113.419C536.133 112.916 535.516 112.231 535.094 111.426C534.673 110.622 534.462 109.724 534.48 108.817C534.497 107.909 534.744 107.021 535.197 106.233C535.649 105.446 536.293 104.786 537.069 104.313C537.845 103.841 538.727 103.571 539.635 103.53C540.302 103.523 540.963 103.655 541.576 103.916C542.189 104.178 542.742 104.564 543.198 105.05C543.655 105.536 544.005 106.111 544.228 106.74C544.451 107.368 544.541 108.035 544.492 108.7C544.486 109.006 544.462 109.311 544.421 109.614ZM536.96 107.75H542.098C542.013 107.159 541.713 106.619 541.255 106.233C540.798 105.848 540.215 105.643 539.617 105.658C538.997 105.633 538.389 105.831 537.902 106.214C537.415 106.598 537.081 107.143 536.96 107.75V107.75Z" fill="black"/>
<path d="M546.938 98.4473H549.313V104.972C549.764 104.496 550.311 104.121 550.918 103.873C551.525 103.624 552.177 103.507 552.833 103.53C555.085 103.53 556.669 104.743 556.669 107.821V113.976H554.311V108.436C554.311 106.378 553.484 105.657 552.076 105.657C550.316 105.657 549.313 106.713 549.313 108.753V114.028H546.938V98.4473Z" fill="black"/>
<path d="M559.326 100.575C559.329 100.37 559.371 100.167 559.452 99.9776C559.533 99.7886 559.65 99.6173 559.797 99.4736C559.945 99.3299 560.118 99.2166 560.309 99.1401C560.5 99.0636 560.704 99.0254 560.91 99.0277C561.326 99.0277 561.724 99.1926 562.018 99.4861C562.311 99.7796 562.476 100.178 562.476 100.593C562.476 101.008 562.311 101.406 562.018 101.7C561.724 101.993 561.326 102.158 560.91 102.158C560.701 102.16 560.494 102.121 560.301 102.042C560.108 101.964 559.932 101.847 559.785 101.7C559.637 101.552 559.521 101.377 559.442 101.184C559.363 100.991 559.324 100.784 559.326 100.575V100.575ZM559.713 103.688H562.089V113.976H559.713V103.688Z" fill="black"/>
<path d="M564.71 108.858C564.683 108.158 564.801 107.46 565.057 106.808C565.312 106.155 565.7 105.563 566.196 105.067C566.692 104.572 567.285 104.184 567.938 103.929C568.59 103.673 569.289 103.555 569.99 103.582C570.807 103.573 571.616 103.74 572.363 104.071C573.11 104.401 573.777 104.889 574.319 105.499L572.717 106.906C572.399 106.526 572 106.222 571.55 106.015C571.099 105.808 570.608 105.704 570.113 105.71C569.273 105.71 568.467 106.044 567.873 106.637C567.279 107.231 566.945 108.036 566.945 108.876C566.945 109.715 567.279 110.52 567.873 111.114C568.467 111.708 569.273 112.041 570.113 112.041C570.61 112.058 571.104 111.958 571.556 111.751C572.008 111.543 572.406 111.233 572.717 110.845L574.336 112.287C573.803 112.937 573.123 113.449 572.351 113.783C571.58 114.116 570.74 114.261 569.902 114.204C569.201 114.225 568.503 114.1 567.853 113.836C567.203 113.573 566.616 113.177 566.127 112.674C565.639 112.171 565.261 111.572 565.017 110.915C564.773 110.258 564.668 109.558 564.71 108.858V108.858Z" fill="black"/>
<path d="M576.695 98.4473H579.071V113.976H576.695V98.4473Z" fill="black"/>
<path d="M591.636 109.614H584.139C584.252 110.315 584.624 110.948 585.181 111.387C585.738 111.827 586.441 112.041 587.149 111.988C587.646 112.002 588.139 111.901 588.591 111.694C589.042 111.487 589.44 111.178 589.753 110.792L591.39 112.199C590.838 112.921 590.114 113.492 589.283 113.859C588.453 114.227 587.542 114.379 586.637 114.302C585.732 114.225 584.861 113.921 584.104 113.418C583.348 112.916 582.73 112.23 582.309 111.426C581.888 110.622 581.677 109.724 581.694 108.816C581.712 107.909 581.959 107.02 582.412 106.233C582.864 105.446 583.508 104.785 584.284 104.313C585.06 103.84 585.942 103.571 586.85 103.53C587.517 103.52 588.179 103.65 588.794 103.911C589.409 104.172 589.962 104.558 590.419 105.044C590.876 105.531 591.227 106.107 591.448 106.736C591.67 107.366 591.758 108.034 591.707 108.7C591.71 109.006 591.686 109.312 591.636 109.614V109.614ZM584.175 107.75H589.331C589.237 107.159 588.933 106.621 588.474 106.236C588.014 105.851 587.431 105.646 586.832 105.657C586.212 105.633 585.604 105.83 585.117 106.214C584.63 106.598 584.296 107.142 584.175 107.75V107.75Z" fill="black"/>
<path d="M482.088 171.534H780.236" stroke="#D8D8D8" stroke-width="0.5" stroke-miterlimit="10"/>
<path d="M481.058 162.19H482.218V155.32H481.278L479.268 156.78L479.818 157.64L481.058 156.71V162.19ZM486.242 162.27C487.902 162.27 488.882 160.83 488.882 158.76C488.882 156.52 487.792 155.25 486.242 155.25C484.592 155.25 483.602 156.68 483.602 158.76C483.602 160.99 484.692 162.27 486.242 162.27ZM486.242 161.19C485.362 161.19 484.782 160.28 484.782 158.76C484.782 157.22 485.342 156.32 486.242 156.32C487.142 156.32 487.702 157.22 487.702 158.76C487.702 160.29 487.162 161.19 486.242 161.19ZM490.27 162.19H491.48V160.18L492.29 159.22L494.34 162.19H495.84L493.09 158.26L495.76 155.09H494.22L491.5 158.49H491.48V155.09H490.27V162.19Z" fill="#D8D8D8"/>
<path d="M482.088 234.896H780.236" stroke="#D8D8D8" stroke-width="0.5" stroke-miterlimit="10"/>
<path d="M481.968 225.622C483.348 225.622 484.438 224.872 484.438 223.662C484.438 222.722 483.908 222.092 483.248 221.842V221.822C483.658 221.652 484.098 221.082 484.098 220.382C484.098 219.292 483.218 218.612 481.968 218.612C480.768 218.612 479.858 219.252 479.858 220.382C479.858 221.072 480.288 221.622 480.698 221.822V221.842C480.048 222.102 479.518 222.732 479.518 223.662C479.518 224.822 480.548 225.622 481.968 225.622ZM481.968 221.342C481.378 221.342 480.958 221.002 480.958 220.492C480.958 220.032 481.368 219.632 481.968 219.632C482.558 219.632 482.988 220.002 482.988 220.492C482.988 221.002 482.568 221.342 481.968 221.342ZM481.968 224.592C481.258 224.592 480.698 224.122 480.698 223.512C480.698 222.862 481.208 222.402 481.968 222.402C482.728 222.402 483.248 222.862 483.248 223.512C483.248 224.082 482.738 224.592 481.968 224.592ZM485.72 225.552H486.93V223.542L487.74 222.582L489.79 225.552H491.29L488.54 221.622L491.21 218.452H489.67L486.95 221.852H486.93V218.452H485.72V225.552Z" fill="#D8D8D8"/>
<path d="M482.088 298.258H780.236" stroke="#D8D8D8" stroke-width="0.5" stroke-miterlimit="10"/>
<path d="M482.368 284.533C481.868 284.533 481.388 284.653 480.998 284.893L480.978 284.873C481.388 283.773 482.318 283.143 483.538 282.803L483.168 281.833C481.138 282.203 479.598 283.943 479.598 286.223C479.598 287.903 480.678 288.993 482.048 288.993C483.428 288.993 484.498 288.053 484.498 286.743C484.498 285.343 483.568 284.533 482.368 284.533ZM482.128 287.913C481.368 287.913 480.728 287.283 480.728 286.363V286.273C481.018 285.903 481.498 285.583 482.078 285.583C482.838 285.583 483.338 286.063 483.338 286.723C483.338 287.363 482.848 287.913 482.128 287.913ZM485.856 288.913H487.066V286.903L487.876 285.943L489.926 288.913H491.426L488.676 284.983L491.346 281.813H489.806L487.086 285.213H487.066V281.813H485.856V288.913Z" fill="#D8D8D8"/>
<path d="M482.088 361.637H780.236" stroke="#D8D8D8" stroke-width="0.5" stroke-miterlimit="10"/>
<path d="M482.408 352.293H483.568V351.133H484.518V350.103H483.568V345.423H482.598L479.408 350.343V351.133H482.408V352.293ZM480.758 350.133L482.448 347.383V350.133H480.758ZM485.739 352.293H486.949V350.283L487.759 349.323L489.809 352.293H491.309L488.559 348.363L491.229 345.193H489.689L486.969 348.593H486.949V345.193H485.739V352.293Z" fill="#D8D8D8"/>
<path d="M482.088 424.999H780.236" stroke="#D8D8D8" stroke-width="0.5" stroke-miterlimit="10"/>
<path d="M479.508 415.654H483.918V414.594H481.268L481.258 414.564L482.708 413.054C483.578 412.154 483.848 411.504 483.848 410.744C483.848 409.484 482.828 408.724 481.698 408.724C480.578 408.724 479.868 409.284 479.478 410.024L480.308 410.614C480.618 410.074 481.068 409.804 481.618 409.804C482.238 409.804 482.668 410.264 482.668 410.874C482.668 411.464 482.258 411.964 481.698 412.554L479.488 414.884L479.508 415.654ZM485.28 415.654H486.49V413.644L487.3 412.684L489.35 415.654H490.85L488.1 411.724L490.77 408.554H489.23L486.51 411.954H486.49V408.554H485.28V415.654Z" fill="#D8D8D8"/>
<path d="M482.088 483.876H780.236" stroke="#D8D8D8" stroke-width="0.5" stroke-miterlimit="10"/>
<path d="M482.248 474.612C483.908 474.612 484.888 473.172 484.888 471.102C484.888 468.862 483.798 467.592 482.248 467.592C480.598 467.592 479.608 469.022 479.608 471.102C479.608 473.332 480.698 474.612 482.248 474.612ZM482.248 473.532C481.368 473.532 480.788 472.622 480.788 471.102C480.788 469.562 481.348 468.662 482.248 468.662C483.148 468.662 483.708 469.562 483.708 471.102C483.708 472.632 483.168 473.532 482.248 473.532ZM486.276 474.532H487.486V472.522L488.296 471.562L490.346 474.532H491.846L489.096 470.602L491.766 467.432H490.226L487.506 470.832H487.486V467.432H486.276V474.532Z" fill="#D8D8D8"/>
<path d="M550.174 171.534H522.703V483.876H550.174V171.534Z" fill="#374649"/>
<path d="M588.521 213.564H561.051V483.876H588.521V213.564Z" fill="#02B8AA"/>
<path d="M626.867 246.643H599.396V483.894H626.867V246.643Z" fill="#FD625D"/>
<path d="M665.215 254.821H637.744V483.876H665.215V254.821Z" fill="#F2C80F"/>
<path d="M703.543 327.697H676.072V483.876H703.543V327.697Z" fill="#5F6B6D"/>
<path d="M741.889 405.795H714.418V483.876H741.889V405.795Z" fill="#8AD4EB"/>
<path d="M780.234 411.599H752.764V483.876H780.234V411.599Z" fill="#EC008C"/>
<path d="M46.7911 562.001H47.3407L47.3101 560.79L48.3278 561.431L48.5924 560.942L47.5238 560.393L48.5924 559.823L48.3278 559.344L47.2898 559.975L47.3407 558.775H46.7911L46.8318 559.975L45.8141 559.344L45.519 559.823L46.5977 560.393L45.5292 560.942L45.8141 561.431L46.8318 560.79L46.7911 562.001ZM54.3143 563.435C54.3143 562.021 53.3882 560.983 52.0347 560.983C50.6201 560.983 49.5923 562.031 49.5923 563.527C49.5923 565.043 50.6303 566.061 52.0957 566.061C53.0931 566.061 53.7138 565.685 54.1413 565.135L53.5612 564.646C53.2559 565.023 52.7878 565.308 52.1263 565.308C51.19 565.308 50.5387 564.697 50.4268 563.771H54.2939C54.2939 563.71 54.3143 563.568 54.3143 563.435ZM52.0245 561.736C52.8386 561.736 53.3678 562.285 53.49 563.1H50.4471C50.5998 562.255 51.2307 561.736 52.0245 561.736ZM54.8259 566H55.752L57.1055 564.199H57.1157L58.459 566H59.3952L57.5838 563.497L59.3749 561.044H58.4081L57.1055 562.855H57.0851L55.8029 561.044H54.8259L56.6272 563.486L54.8259 566ZM62.2602 566.061C63.0641 566.061 63.6747 565.695 64.0309 565.104H64.0411V566H64.8349V561.044H64.0106V561.919L63.9902 561.929C63.634 561.329 62.9929 560.983 62.2602 560.983C60.8558 560.983 59.8483 562.092 59.8483 563.558C59.8483 565.064 60.8965 566.061 62.2602 566.061ZM62.3823 565.308C61.3646 565.308 60.6828 564.555 60.6828 563.558C60.6828 562.458 61.446 561.736 62.3823 561.736C63.3593 561.736 64.0411 562.54 64.0411 563.558C64.0411 564.606 63.2982 565.308 62.3823 565.308ZM66.3158 566H67.1401V563.537C67.1401 562.428 67.7507 561.736 68.5648 561.736C69.3077 561.736 69.7148 562.316 69.7148 563.374V566H70.5391V563.537C70.5391 562.428 71.1599 561.736 71.9333 561.736C72.6864 561.736 73.0629 562.316 73.0629 563.374V566H73.8873V563.151C73.8873 561.736 73.2767 560.983 72.1776 560.983C71.4041 560.983 70.7325 561.37 70.3559 562.041H70.3458C70.0913 561.359 69.552 560.983 68.8091 560.983C68.1476 560.983 67.5268 561.339 67.1503 561.939H67.1401V561.044H66.3158V566ZM75.3198 568.015H76.1441V565.145H76.1543C76.5207 565.715 77.1313 566.061 77.9149 566.061C79.2786 566.061 80.3268 565.064 80.3268 563.558C80.3268 562.092 79.3193 560.983 77.9149 560.983C77.1618 560.983 76.5308 561.329 76.1543 561.919H76.1441V561.044H75.3198V568.015ZM77.8029 565.308C76.8565 565.308 76.1034 564.606 76.1034 563.558C76.1034 562.54 76.7852 561.736 77.7927 561.736C78.729 561.736 79.4923 562.458 79.4923 563.558C79.4923 564.555 78.8002 565.308 77.8029 565.308ZM81.632 566H82.4563V558.51H81.632V566ZM88.472 563.435C88.472 562.021 87.5459 560.983 86.1924 560.983C84.7778 560.983 83.75 562.031 83.75 563.527C83.75 565.043 84.788 566.061 86.2534 566.061C87.2508 566.061 87.8715 565.685 88.299 565.135L87.7189 564.646C87.4136 565.023 86.9455 565.308 86.284 565.308C85.3477 565.308 84.6964 564.697 84.5845 563.771H88.4516C88.4516 563.71 88.472 563.568 88.472 563.435ZM86.1822 561.736C86.9963 561.736 87.5255 562.285 87.6477 563.1H84.6048C84.7575 562.255 85.3884 561.736 86.1822 561.736ZM92.4533 566H93.2776V563.608C93.2776 562.611 93.8373 561.889 94.7838 561.889C94.8652 561.889 94.9873 561.899 95.1094 561.909V560.993C95.0382 560.983 94.9771 560.983 94.9059 560.983C94.2241 560.983 93.6542 561.349 93.298 561.95H93.2776V561.044H92.4533V566ZM100.289 563.435C100.289 562.021 99.3624 560.983 98.0089 560.983C96.5944 560.983 95.5665 562.031 95.5665 563.527C95.5665 565.043 96.6045 566.061 98.07 566.061C99.0673 566.061 99.6881 565.685 100.116 565.135L99.5354 564.646C99.2301 565.023 98.762 565.308 98.1005 565.308C97.1643 565.308 96.513 564.697 96.401 563.771H100.268C100.268 563.71 100.289 563.568 100.289 563.435ZM97.9988 561.736C98.8129 561.736 99.3421 562.285 99.4642 563.1H96.4214C96.574 562.255 97.205 561.736 97.9988 561.736ZM101.497 568.015H102.321V565.145H102.332C102.698 565.715 103.309 566.061 104.092 566.061C105.456 566.061 106.504 565.064 106.504 563.558C106.504 562.092 105.497 560.983 104.092 560.983C103.339 560.983 102.708 561.329 102.332 561.919H102.321V561.044H101.497V568.015ZM103.98 565.308C103.034 565.308 102.281 564.606 102.281 563.558C102.281 562.54 102.963 561.736 103.97 561.736C104.906 561.736 105.67 562.458 105.67 563.558C105.67 564.555 104.978 565.308 103.98 565.308ZM109.997 566.061C111.463 566.061 112.552 565.033 112.552 563.527C112.552 562.021 111.463 560.983 109.997 560.983C108.461 560.983 107.433 562.102 107.433 563.527C107.433 564.952 108.461 566.061 109.997 566.061ZM109.997 565.308C108.969 565.308 108.277 564.514 108.277 563.527C108.277 562.54 108.959 561.736 109.997 561.736C110.954 561.736 111.707 562.469 111.707 563.527C111.707 564.585 110.944 565.308 109.997 565.308ZM113.781 566H114.605V563.608C114.605 562.611 115.165 561.889 116.111 561.889C116.193 561.889 116.315 561.899 116.437 561.909V560.993C116.366 560.983 116.305 560.983 116.233 560.983C115.552 560.983 114.982 561.349 114.625 561.95H114.605V561.044H113.781V566ZM118.763 566.061C119.353 566.061 119.689 565.919 119.964 565.756L119.75 565.033C119.506 565.166 119.2 565.288 118.905 565.288C118.437 565.288 118.305 565.003 118.305 564.402V561.756H119.943V561.044H118.305V559.263L117.48 559.355V561.044H116.839V561.756H117.48V564.524C117.48 565.522 117.887 566.061 118.763 566.061ZM122.542 566.061C123.732 566.061 124.323 565.42 124.323 564.646C124.333 563.68 123.641 563.497 122.592 563.089C122.053 562.896 121.656 562.703 121.656 562.316C121.656 561.939 122.033 561.716 122.419 561.716C122.847 561.716 123.305 561.848 123.732 562.245L124.16 561.593C123.61 561.146 123.05 560.983 122.45 560.983C121.514 560.983 120.822 561.553 120.822 562.316C120.822 563.222 121.504 563.547 122.308 563.832C123.03 564.097 123.488 564.219 123.488 564.657C123.488 565.033 123.142 565.328 122.542 565.328C121.85 565.328 121.412 565.104 121.025 564.728L120.608 565.359C121.086 565.776 121.717 566.061 122.542 566.061Z" fill="#939A9C"/>
<defs>
<filter id="filter0_d" x="0" y="0" width="449" height="569" filterUnits="userSpaceOnUse" color-interpolation-filters="sRGB">
<feFlood flood-opacity="0" result="BackgroundImageFix"/>
<feColorMatrix in="SourceAlpha" type="matrix" values="0 0 0 0 0 0 0 0 0 0 0 0 0 0 0 0 0 0 127 0"/>
<feOffset dy="4"/>
<feGaussianBlur stdDeviation="20"/>
<feColorMatrix type="matrix" values="0 0 0 0 0 0 0 0 0 0 0 0 0 0 0 0 0 0 0.1 0"/>
<feBlend mode="normal" in2="BackgroundImageFix" result="effect1_dropShadow"/>
<feBlend mode="normal" in="SourceGraphic" in2="effect1_dropShadow" result="shape"/>
</filter>
<filter id="filter1_d" x="408" y="10" width="444" height="559" filterUnits="userSpaceOnUse" color-interpolation-filters="sRGB">
<feFlood flood-opacity="0" result="BackgroundImageFix"/>
<feColorMatrix in="SourceAlpha" type="matrix" values="0 0 0 0 0 0 0 0 0 0 0 0 0 0 0 0 0 0 127 0"/>
<feOffset dy="4"/>
<feGaussianBlur stdDeviation="20"/>
<feColorMatrix type="matrix" values="0 0 0 0 0 0 0 0 0 0 0 0 0 0 0 0 0 0 0.1 0"/>
<feBlend mode="normal" in2="BackgroundImageFix" result="effect1_dropShadow"/>
<feBlend mode="normal" in="SourceGraphic" in2="effect1_dropShadow" result="shape"/>
</filter>
</defs>
</svg>
