<svg fill="none" height="42" viewBox="0 0 42 42" width="42" xmlns="http://www.w3.org/2000/svg"><g fill="#fff"><path d="m1.68018 40.32 25.20002-25.2 2.856 2.856-23.35202 23.352z" opacity=".2"/><path d="m40.32 6.72c1.008 0 1.68-.672 1.68-1.68v-3.36c0-1.008-.672-1.68-1.68-1.68h-3.36c-1.008 0-1.68.672-1.68 1.68v1.68h-28.56v-1.68c0-1.008-.672-1.68-1.68-1.68h-3.36c-1.008 0-1.68.672-1.68 1.68v3.36c0 1.008.672 1.68 1.68 1.68h1.68v12.6c0 .504.336.84.84.84s.84-.336.84-.84v-12.6c1.008 0 1.68-.672 1.68-1.68h28.56c0 1.008.672 1.68 1.68 1.68v28.56c-1.008 0-1.68.672-1.68 1.68h-12.6c-.504 0-.84.336-.84.84s.336.84.84.84h12.6v1.68c0 1.008.672 1.68 1.68 1.68h3.36c1.008 0 1.68-.672 1.68-1.68v-3.36c0-1.008-.672-1.68-1.68-1.68h-1.68v-28.56zm-35.28-1.68h-3.36v-3.36h3.36zm35.28 31.92v3.36h-3.36v-3.36zm-3.36-31.92v-3.36h3.36v3.36z"/><path d="m29.568 16.128-3.528-3.528c-1.008-1.008-2.52-1.008-3.528 0l-21.84 21.504c-.336.504-.672 1.176-.672 1.848v4.368c0 1.008.672 1.68 1.68 1.68h4.368c.672 0 1.344-.336 1.848-.672l21.672-21.672c.84-1.008.84-2.688 0-3.528zm-22.848 24.024c-.168 0-.336.168-.672.168h-4.368v-4.368c0-.168.168-.504.168-.672l18.816-18.648 4.704 4.704zm21.672-21.672-1.848 1.68-4.704-4.704 1.68-1.848c.336-.336.84-.336 1.176 0l3.528 3.528c.336.504.336 1.008.168 1.344z"/></g></svg>