<svg id="Layer_1" data-name="Layer 1" xmlns="http://www.w3.org/2000/svg" viewBox="0 0 206.84 275.79"><defs><style>.cls-1{fill:none;stroke:#d8d8d8;stroke-miterlimit:10;stroke-width:0.5px;}.cls-2{font-size:6px;fill:#d8d8d8;font-family:AvertaPE-Regular, Averta PE;}.cls-3{fill:#374649;}.cls-4{fill:#02b8aa;}.cls-5{fill:#fd625d;}.cls-6{fill:#f2c80f;}.cls-7{fill:#5f6b6d;}.cls-8{fill:#8ad4eb;}.cls-9{fill:#ec008c;}</style></defs><path d="M20.43,21.42h1.45l2.81,5.1h0l2.81-5.1H29v8.52H27.52v-5.7h0L25.17,28.3h-1l-2.33-4.06h0v5.7H20.43Z"/><path d="M30.58,22.32a.91.91,0,0,1,1.81,0,.91.91,0,0,1-1.81,0Zm.23,1.77h1.34v5.85H30.81Z"/><path d="M34.07,21.11h1.35v8.83H34.07Z"/><path d="M42.57,27.46H38.3A1.61,1.61,0,0,0,40,28.81a1.84,1.84,0,0,0,1.48-.68l.93.8A3.13,3.13,0,0,1,36.9,27a2.84,2.84,0,0,1,2.94-3,2.73,2.73,0,0,1,2.76,2.94A5.2,5.2,0,0,1,42.57,27.46ZM38.32,26.4h2.93a1.41,1.41,0,0,0-1.42-1.19A1.48,1.48,0,0,0,38.32,26.4Z"/><path d="M43.5,29.18l.68-1a2.24,2.24,0,0,0,1.69.68c.51,0,.81-.23.81-.58s-.38-.44-1.15-.7c-1-.34-1.79-.77-1.79-1.92,0-1,.87-1.66,2.07-1.66a3.16,3.16,0,0,1,2.06.73l-.67,1.06a2.17,2.17,0,0,0-1.46-.62c-.27,0-.64.14-.64.5s.36.49.92.71c1.25.49,2,.72,2,1.88,0,1-.7,1.78-2.18,1.78A3.53,3.53,0,0,1,43.5,29.18Z"/><path d="M54.52,22.72H52.11v-1.3h6.31v1.3H56v7.22H54.52Z"/><path d="M58.92,24.09h1.35V25h0a2.25,2.25,0,0,1,1.81-1h.17v1.5l-.41,0a1.54,1.54,0,0,0-1.59,1.69v2.77H58.92Z"/><path d="M62.86,27a2.85,2.85,0,0,1,2.82-3,2.25,2.25,0,0,1,1.81.81l0,0v-.7h1.35v5.85H67.57v-.77h0a2.21,2.21,0,0,1-1.86.88A2.79,2.79,0,0,1,62.86,27Zm4.71,0a1.72,1.72,0,0,0-1.66-1.84,1.69,1.69,0,0,0-1.68,1.84,1.64,1.64,0,0,0,1.68,1.76A1.67,1.67,0,0,0,67.57,27.05Z"/><path d="M69.92,24.09h1.44l1.52,4.17h0l1.52-4.17h1.43l-2.33,5.85H72.23Z"/><path d="M81.91,27.46H77.64a1.63,1.63,0,0,0,1.72,1.35,1.83,1.83,0,0,0,1.47-.68l.94.8A3.13,3.13,0,0,1,76.25,27a2.84,2.84,0,0,1,2.94-3A2.74,2.74,0,0,1,82,26.94,4.59,4.59,0,0,1,81.91,27.46ZM77.67,26.4h2.92a1.39,1.39,0,0,0-1.41-1.19A1.48,1.48,0,0,0,77.67,26.4Z"/><path d="M83.43,21.11h1.34v8.83H83.43Z"/><path d="M86.69,21.11H88v8.83H86.69Z"/><path d="M95.18,27.46H90.91a1.63,1.63,0,0,0,1.72,1.35,1.84,1.84,0,0,0,1.48-.68l.93.8A3.13,3.13,0,0,1,89.52,27a2.84,2.84,0,0,1,2.94-3,2.73,2.73,0,0,1,2.76,2.94A3,3,0,0,1,95.18,27.46ZM90.94,26.4h2.93a1.41,1.41,0,0,0-1.42-1.19A1.48,1.48,0,0,0,90.94,26.4Z"/><path d="M96.26,27a2.86,2.86,0,0,1,2.83-3,2.38,2.38,0,0,1,1.87.81h0v-3.7h1.33v8.83H101v-.79h0a2.28,2.28,0,0,1-1.9.89A2.8,2.8,0,0,1,96.26,27Zm4.76,0a1.72,1.72,0,0,0-1.71-1.84,1.7,1.7,0,0,0-1.69,1.84,1.66,1.66,0,0,0,1.68,1.76A1.69,1.69,0,0,0,101,27.05Z"/><path d="M20.25,38.49h1.34v.69h0a2.37,2.37,0,0,1,1.84-.78,2.86,2.86,0,0,1,2.83,3,2.8,2.8,0,0,1-2.84,3,2.24,2.24,0,0,1-1.83-.82h0v3.09H20.25Zm4.68,3a1.7,1.7,0,0,0-1.69-1.84,1.72,1.72,0,0,0-1.71,1.84,1.68,1.68,0,0,0,1.72,1.76A1.66,1.66,0,0,0,24.93,41.45Z"/><path d="M33,41.86H28.74a1.63,1.63,0,0,0,1.72,1.35,1.82,1.82,0,0,0,1.47-.68l.94.8a2.87,2.87,0,0,1-2.48,1.11,2.88,2.88,0,0,1-3-3,2.84,2.84,0,0,1,2.94-3,2.74,2.74,0,0,1,2.76,2.94A3,3,0,0,1,33,41.86ZM28.77,40.8h2.92a1.39,1.39,0,0,0-1.41-1.19A1.48,1.48,0,0,0,28.77,40.8Z"/><path d="M34.44,38.49h1.35v.87h0a2.25,2.25,0,0,1,1.81-1h.17v1.5l-.41,0a1.54,1.54,0,0,0-1.59,1.69v2.77H34.44Z"/><path d="M41.61,35.82h1.56l2.26,6.43h0l2.25-6.43h1.55l-3.18,8.52H44.79Z"/><path d="M54.79,41.86H50.52a1.63,1.63,0,0,0,1.72,1.35,1.83,1.83,0,0,0,1.47-.68l.94.8a3.07,3.07,0,1,1-2.58-4.93,2.74,2.74,0,0,1,2.76,2.94A4.59,4.59,0,0,1,54.79,41.86ZM50.55,40.8h2.92a1.39,1.39,0,0,0-1.41-1.19A1.48,1.48,0,0,0,50.55,40.8Z"/><path d="M56.22,35.51h1.35v3.71h0a2.63,2.63,0,0,1,2-.82c1.28,0,2.18.69,2.18,2.44v3.5H60.41V41.19c0-1.17-.47-1.58-1.27-1.58-1,0-1.57.6-1.57,1.76v3H56.22Z"/><path d="M63.26,36.72a.89.89,0,0,1,.9-.88.89.89,0,1,1,0,1.78A.89.89,0,0,1,63.26,36.72Zm.22,1.77h1.35v5.85H63.48Z"/><path d="M66.32,41.43a2.89,2.89,0,0,1,3-3,3.24,3.24,0,0,1,2.46,1.09l-.91.8a1.9,1.9,0,0,0-1.48-.68,1.8,1.8,0,0,0,0,3.6,1.82,1.82,0,0,0,1.48-.68l.92.82a3,3,0,0,1-2.52,1.09A2.87,2.87,0,0,1,66.32,41.43Z"/><path d="M73.13,35.51h1.35v8.83H73.13Z"/><path d="M81.62,41.86H77.36a1.61,1.61,0,0,0,1.71,1.35,1.84,1.84,0,0,0,1.48-.68l.93.8A3.07,3.07,0,1,1,78.9,38.4a2.73,2.73,0,0,1,2.76,2.94A3,3,0,0,1,81.62,41.86ZM77.38,40.8h2.93a1.41,1.41,0,0,0-1.42-1.19A1.48,1.48,0,0,0,77.38,40.8Z"/><line class="cls-1" x1="19.37" y1="77.07" x2="188.79" y2="77.07"/><text class="cls-2" transform="translate(19.37 72.07)">10K</text><line class="cls-1" x1="19.37" y1="113.1" x2="188.79" y2="113.1"/><text class="cls-2" transform="translate(19.37 108.1)">8K</text><line class="cls-1" x1="19.37" y1="149.13" x2="188.79" y2="149.13"/><text class="cls-2" transform="translate(19.37 144.13)">6K</text><line class="cls-1" x1="19.37" y1="185.17" x2="188.79" y2="185.17"/><text class="cls-2" transform="translate(19.37 180.17)">4K</text><line class="cls-1" x1="19.37" y1="221.2" x2="188.79" y2="221.2"/><text class="cls-2" transform="translate(19.37 216.2)">2K</text><line class="cls-1" x1="19.37" y1="254.68" x2="188.79" y2="254.68"/><text class="cls-2" transform="translate(19.37 249.68)">0K</text><rect class="cls-3" x="42.45" y="77.07" width="15.61" height="177.61"/><rect class="cls-4" x="64.24" y="100.97" width="15.61" height="153.71"/><rect class="cls-5" x="86.03" y="119.78" width="15.61" height="134.91"/><rect class="cls-6" x="107.82" y="124.43" width="15.61" height="130.25"/><rect class="cls-7" x="129.6" y="165.87" width="15.61" height="88.81"/><rect class="cls-8" x="151.39" y="210.28" width="15.61" height="44.4"/><rect class="cls-9" x="173.18" y="213.58" width="15.61" height="41.1"/></svg>