<svg width="42" height="42" viewBox="0 0 42 42" fill="none" xmlns="http://www.w3.org/2000/svg">
<path opacity="0.2" d="M20.1598 11.76V20.16H11.7598V23.52H23.5198V11.76H20.1598Z" fill="white"/>
<path opacity="0.2" d="M26.88 18.48V26.88H18.48V30.24H30.24V18.48H26.88Z" fill="white"/>
<path d="M40.32 6.72C41.328 6.72 42 6.048 42 5.04V1.68C42 0.672 41.328 0 40.32 0H36.96C35.952 0 35.28 0.672 35.28 1.68V3.36H6.72V1.68C6.72 0.672 6.048 0 5.04 0H1.68C0.672 0 0 0.672 0 1.68V5.04C0 6.048 0.672 6.72 1.68 6.72H3.36V35.28H1.68C0.672 35.28 0 35.952 0 36.96V40.32C0 41.328 0.672 42 1.68 42H5.04C6.048 42 6.72 41.328 6.72 40.32V38.64H35.28V40.32C35.28 41.328 35.952 42 36.96 42H40.32C41.328 42 42 41.328 42 40.32V36.96C42 35.952 41.328 35.28 40.32 35.28H38.64V6.72H40.32ZM1.68 5.04V1.68H5.04V5.04H1.68ZM5.04 40.32H1.68V36.96H5.04V40.32ZM35.28 36.96H6.72C6.72 35.952 6.048 35.28 5.04 35.28V6.72C6.048 6.72 6.72 6.048 6.72 5.04H35.28C35.28 6.048 35.952 6.72 36.96 6.72V35.28C35.952 35.28 35.28 35.952 35.28 36.96ZM40.32 36.96V40.32H36.96V36.96H40.32ZM36.96 5.04V1.68H40.32V5.04H36.96Z" fill="white"/>
<path d="M30.2401 16.8H25.2001V11.76C25.2001 10.752 24.5281 10.08 23.5201 10.08H11.7601C10.7521 10.08 10.0801 10.752 10.0801 11.76V23.52C10.0801 24.528 10.7521 25.2 11.7601 25.2H16.8001V30.24C16.8001 31.248 17.4721 31.92 18.4801 31.92H30.2401C31.2481 31.92 31.9201 31.248 31.9201 30.24V18.48C31.9201 17.472 31.2481 16.8 30.2401 16.8ZM11.7601 11.76H23.5201V23.52H11.7601V11.76ZM30.2401 30.24H18.4801V25.2H23.5201C24.5281 25.2 25.2001 24.528 25.2001 23.52V18.48H30.2401V30.24Z" fill="white"/>
</svg>
