<svg fill="none" height="40" viewBox="0 0 44 40" width="44" xmlns="http://www.w3.org/2000/svg" xmlns:xlink="http://www.w3.org/1999/xlink"><clipPath id="a"><path d="m0 0h44v40h-44z"/></clipPath><g clip-path="url(#a)" fill="#fff"><path d="m11.4073 26.484c-.5432-.5479-1.44852-.7306-2.1728-.7306-1.08642 0-2.17284.548-2.71605 1.2786s-.90535 1.6438-.72428 2.557c.18107.9133.54321 1.8265 1.26749 2.3745.54321.7306 1.44856.9132 2.17284.9132 1.0864 0 2.1728-.5479 2.7161-1.2785.5432-.7306.9053-1.6439.7242-2.5571 0-1.0959-.3621-1.8265-1.2675-2.5571zm-.5432 4.0183c-.3621.5479-.90532.7306-1.44853.7306-.36214 0-.90535-.1827-1.26749-.3653-.36214-.3653-.72428-.7306-.72428-1.2786 0-.5479 0-1.0959.36214-1.4612s.90535-.7305 1.44856-.7305c.36214 0 .9054.1826 1.2675.3652.3621.3653.7243.9133.7243 1.4612 0 .3653-.1811.9133-.3622 1.2786z"/><path d="m25.7119 18.2648c.5433 0 1.0865-.1826 1.6297-.3653.9053-.3653 1.4485-1.0959 1.8107-2.0091.3621-.9133.181-1.8265-.1811-2.7398-.5432-1.2785-1.8107-2.1917-3.2593-2.1917-.5432 0-1.0864.1826-1.6296.3653-.9053.3653-1.4485 1.0959-1.8107 2.0091-.3621.9132-.1811 1.8265.1811 2.7397.7243 1.2786 1.9918 2.1918 3.2592 2.1918zm-1.8107-4.3836c.1811-.5479.5433-.9132.9054-1.0959.1811-.1826.5432-.1826.9053-.1826.7243 0 1.4486.3653 1.8107 1.0959.1811.5479.1811.9132 0 1.4612-.181.5479-.5432.9132-.9053 1.0959-.1811.1826-.5432.1826-.9054.1826-.7242 0-1.4485-.3653-1.8107-1.0959-.181-.3653-.181-.9132 0-1.4612z"/><path d="m17.0205 12.4202h.7243c1.6296 0 3.0782-1.0959 3.4403-2.73976.1811-.91324 0-1.82649-.5432-2.73973-.5432-.73059-1.2675-1.46119-2.1729-1.64383-.181 0-.5432 0-.7242 0-1.6297 0-3.0782 1.09589-3.4404 2.73972-.181.91324 0 1.82649.3622 2.7397.5432.9133 1.2675 1.4612 2.3539 1.6439zm-1.2675-4.0183c.1811-.91324.9053-1.46119 1.8107-1.46119h.3621c.5432.18265.9054.3653 1.2675.91324.3622.3653.3622.91324.1811 1.46119-.1811.91326-.9054 1.46116-1.8107 1.46116-.1811 0-.3621 0-.3621 0-.3622-.1826-.9054-.3653-1.0865-.91321-.3621-.3653-.3621-.91325-.3621-1.46119z"/><path d="m10.502 14.4292c.7243-.548 1.2675-1.4612 1.2675-2.3744.181-.9133-.1811-1.8265-.7243-2.55711-.7243-.91325-1.62963-1.46119-2.71605-1.46119-.72428 0-1.62963.3653-2.17284.73059-.90535.7306-1.26749 1.46121-1.44856 2.37441-.18107 1.0959.18107 2.0092.72428 2.7397.72428.9133 1.8107 1.2786 2.89712 1.2786.72428 0 1.44856-.1827 2.17285-.7306zm-3.80248-1.6438c-.36214-.3653-.36214-.9133-.36214-1.4612 0-.548.36214-.9133.72428-1.2786.36214-.36527.72428-.36527 1.26749-.36527.5432 0 1.08642.18265 1.44856.73057.36209.3653.54319.9133.36209 1.4612 0 .548-.3621.9133-.72423 1.2786-.36215.1826-.72428.3653-1.08642.3653-.72428 0-1.26749-.1827-1.62963-.7306z"/><path d="m43.8189 6.39269c-.181-.18264-.3621-.36529-.7242-.36529-.5433 0-1.6297 0-9.2346 6.3927-.1811.1826-.3622.1826-.5432.3653-1.2675-3.47033-3.6214-6.57535-6.6996-8.94978-3.4403-2.37443-7.605-3.83562-11.9506-3.83562-2.8972 0-6.51855 1.09589-9.41567 2.73973-3.44033 2.00913-5.25103 4.74885-5.25103 7.67127 0 3.4703 1.99177 4.9315 3.6214 6.21 1.26749.9132 2.35391 1.6438 2.35391 3.4703 0 1.6439-1.08642 2.3745-2.35391 3.4703-1.62963 1.0959-3.6214 2.7398-3.6214 6.2101 0 2.9224 1.8107 5.6621 5.25103 7.6712 2.89712 1.6439 6.33747 2.7397 9.23457 2.7397 5.251 0 10.321-2.0091 14.1235-5.8447 3.8024-3.653 5.7942-8.5845 5.7942-13.8813 1.2675-1.4612 2.535-2.9224 3.6214-4.2009 1.9918-2.3744 3.4403-4.2009 4.3457-5.6621 1.4485-2.37442 1.9917-3.47031 1.4485-4.20091zm-16.1152 26.48401c-3.4403 3.4703-8.1481 5.2968-13.037 5.2968-5.25106 0-13.03707-3.653-13.03707-8.7671 0-2.7397 1.44856-3.653 2.89712-4.9315 1.44856-1.0959 2.89712-2.1918 2.89712-4.7489s-1.62963-3.6529-2.89712-4.7488c-1.44856-.9133-2.89712-1.8265-2.89712-4.5662 0-3.10506 2.89712-5.29685 4.52675-6.21009 2.53498-1.46118 5.79422-2.55707 8.51032-2.55707 3.9835 0 7.786 1.27853 11.0452 3.65296 2.8972 2.19178 5.2511 5.2968 6.3375 8.7671-3.4403 3.105-7.4239 6.758-10.1399 9.4977-4.7079.548-5.4321 3.8357-5.7943 6.2101-.3621 2.0091-.7243 2.9224-2.1728 3.105-.3622 0-.7243.3653-.7243.7306s.1811.7306.5432.9132c.1811 0 2.3539.9133 5.07.9133 1.8107 0 3.4403-.548 4.8889-1.4612 1.6296-1.0959 2.716-2.9224 3.2592-5.2968 1.8107-1.8265 3.9836-4.2009 6.1564-6.5753-.7243 4.2009-2.535 7.8538-5.4321 10.7762zm-2.535-4.3835c-.9053 3.4703-3.0782 5.1141-6.5185 5.1141-.9053 0-1.8107-.1826-2.535-.3653.9054-.9132 1.0864-2.1918 1.4486-3.4703.3621-2.1918.9053-4.3836 4.3457-4.7489zm11.2264-12.9681c-3.2593 3.8356-7.0618 8.2192-10.321 11.5069l-.5432-.548-2.1729-2.1918c2.8971-2.9223 6.6996-6.3927 10.1399-9.4977.3622-.3653.7243-.7306 1.2675-1.0959 3.9836-3.4703 6.1564-4.93148 7.2428-5.66207-.7242 1.27854-2.1728 3.47027-5.6131 7.48857z"/><path d="m24.6255 26.4841s14.4856-14.7945 15.7531-17.53426c.7243-1.46119 2.3539-1.46119 2.3539-1.46119v1.46119l-2.535 3.83566-5.6132 6.5753-6.8806 7.1233-1.6297 1.6438z" opacity=".2"/><path d="m9.41559 31.7808c1.40001 0 2.53501-1.1449 2.53501-2.5571s-1.135-2.5571-2.53501-2.5571c-1.40003 0-2.53497 1.1449-2.53497 2.5571s1.13494 2.5571 2.53497 2.5571z" opacity=".2"/><path d="m8.32917 14.2466c1.40003 0 2.53493-1.1448 2.53493-2.5571 0-1.4122-1.1349-2.55705-2.53493-2.55705s-2.53498 1.14485-2.53498 2.55705c0 1.4123 1.13495 2.5571 2.53498 2.5571z" opacity=".2"/><path d="m17.5638 11.5069c1.4 0 2.535-1.1449 2.535-2.55712 0-1.41224-1.135-2.55708-2.535-2.55708s-2.535 1.14484-2.535 2.55708c0 1.41222 1.135 2.55712 2.535 2.55712z" opacity=".2"/><path d="m25.712 17.169c1.4 0 2.535-1.1449 2.535-2.5571s-1.135-2.5571-2.535-2.5571-2.535 1.1449-2.535 2.5571 1.135 2.5571 2.535 2.5571z" opacity=".2"/><path d="m24.0823 27.2146s-1.8107 5.8447-7.4239 4.5662c-.7242.548-1.6296 2.0091-1.6296 2.0091l1.2675.548 4.5267.3653 3.2593-1.4612 1.2675-2.1918.9053-2.9224z" opacity=".2"/></g></svg>