<?xml version="1.0" encoding="UTF-8"?><svg version="1.1" viewBox="0 0 25 25" xmlns="http://www.w3.org/2000/svg" xmlns:xlink="http://www.w3.org/1999/xlink"><!--Generated by IJSVG (https://github.com/iconjar/IJSVG)--><path d="M12.5,10l-1.09278e-07,3.55271e-15c-1.38071,6.03528e-08 -2.5,1.11929 -2.5,2.5c6.03528e-08,1.38071 1.11929,2.5 2.5,2.5c1.38071,-6.03528e-08 2.5,-1.11929 2.5,-2.5v1.09278e-07c0,-1.38071 -1.11929,-2.5 -2.5,-2.5Zm0,4l-6.55671e-08,-1.77636e-15c-0.828427,-3.62117e-08 -1.5,-0.671573 -1.5,-1.5c3.62117e-08,-0.828427 0.671573,-1.5 1.5,-1.5c0.828427,3.62117e-08 1.5,0.671573 1.5,1.5l6.61464e-08,-5.95033e-05c-0.000904078,0.828039 -0.671902,1.49909 -1.49994,1.50006Zm-0.5,-7.5l7.10543e-15,7.54979e-08c-4.16963e-08,-0.276142 0.223858,-0.5 0.5,-0.5c0.276142,-4.16963e-08 0.5,0.223858 0.5,0.5c4.16963e-08,0.276142 -0.223858,0.5 -0.5,0.5l2.18557e-08,-3.55271e-15c-0.276142,5.37669e-08 -0.5,-0.223858 -0.5,-0.5c0,-2.54893e-08 -7.10543e-15,-5.00086e-08 -7.10543e-15,-7.54979e-08Zm6.9286,4.4617c-0.7004,-5.3423 -6.4286,-10.9617 -6.4286,-10.9617c0,0 -5.7282,5.6194 -6.4286,10.9617c-1.2014,1.2733 -3.0714,3.3676 -3.0714,4.0383c0,1.25 1.2917,10 2,10c0.5939,-0.5939 0.6645,-4.8828 3.0292,-5.8125l5.11259e-08,7.29569e-08c0.288054,0.411054 0.613,0.794978 0.9708,1.147v2.6655l7.10543e-15,1.50996e-07c8.33927e-08,0.552285 0.447715,1 1,1h1.0918l-1.99853e-09,-5.72631e-09c0.271433,0.777727 1.12194,1.18816 1.89967,0.916728c0.429349,-0.149846 0.766882,-0.487379 0.916728,-0.916728h1.0918h-4.37114e-08c0.552285,2.41411e-08 1,-0.447715 1,-1v-2.6655l1.1466e-07,-1.12808e-07c0.3578,-0.352022 0.682746,-0.735946 0.9708,-1.147c2.3647,0.9297 2.4353,5.2186 3.0292,5.8125c0.7084,0 2,-8.75 2,-10c0,-0.6707 -1.87,-2.765 -3.0714,-4.0383Zm-13.9534,10.7077l-6.01855e-07,-2.99308e-06c-0.438196,-2.17919 -0.763264,-4.3796 -0.9739,-6.5924l8.55062e-07,-1.40108e-06c0.571316,-0.936141 1.24781,-1.80388 2.0163,-2.5863l6.82459e-08,8.04957e-06c0.0172486,2.03439 0.52188,4.03501 1.4716,5.8342l-8.23721e-07,4.70719e-07c-1.26247,0.721446 -2.17186,1.93125 -2.514,3.3445Zm5.0248,1.3306v-1.8505l-6.80099e-08,-4.5758e-08c0.314326,0.211483 0.649391,0.390374 1,0.5339v1.3166Zm2.5,1l-7.03651e-09,-8.42704e-12c-0.276005,-0.000330616 -0.499669,-0.223995 -0.5,-0.5v-1.5382l-3.08209e-08,-4.73804e-09c0.331387,0.0509435 0.668613,0.0509435 1,9.47609e-09v1.5382l1.08121e-09,-9.03307e-07c-0.000330114,0.276005 -0.223994,0.49967 -0.499999,0.500001Zm2.5,-1h-1v-1.3167l7.39473e-09,-3.02711e-09c0.350609,-0.143526 0.685674,-0.322417 1,-0.5339Zm-2.5,-2c-2.3058,0 -5.5,-3.1277 -5.5,-9c0,-4.0807 3.8772,-8.7654 5.5,-10.5472c1.6228,1.7818 5.5,6.4665 5.5,10.5472c0,5.8723 -3.1942,9 -5.5,9Zm7.5248,0.6694l-2.70075e-08,-1.11558e-07c-0.342138,-1.41325 -1.25153,-2.62305 -2.514,-3.3445l2.19359e-07,-4.15561e-07c0.949722,-1.79919 1.45435,-3.79981 1.4716,-5.8342l1.43143e-07,1.45745e-07c0.76847,0.78244 1.44496,1.65017 2.0163,2.5863l-6.05558e-07,6.3616e-06c-0.210636,2.2128 -0.535705,4.41322 -0.973901,6.5924Z" fill="#334146"></path></svg>