<svg height="41" viewBox="0 0 41 41" width="41" xmlns="http://www.w3.org/2000/svg"><g fill="#04de47" transform="translate(4 5)"><path d="m30.5565579 0h-28.42470502c-1.17738983 0-2.13185288.95397788-2.13185288 2.13076923v28.41025637c0 1.1767914.95446305 2.1307693 2.13185288 2.1307693h28.42470502c1.1773899 0 2.1318529-.9539779 2.1318529-2.1307693v-28.41025637c0-1.17679135-.954463-2.13076923-2.1318529-2.13076923zm.7106177 30.5410256c0 .3922638-.3181544.7102565-.7106177.7102565h-28.42470502c-.39246328 0-.71061763-.3179927-.71061763-.7102565v-28.41025637c0-.39226378.31815435-.71025641.71061763-.71025641h28.42470502c.3924633 0 .7106177.31799263.7106177.71025641z"/><path d="m23.4503817 18.4666667c-1.9623164 0-3.5530882 1.5899631-3.5530882 3.551282s1.5907718 3.5512821 3.5530882 3.5512821 3.5530881-1.5899632 3.5530881-3.5512821-1.5907717-3.551282-3.5530881-3.551282zm0 5.6820512c-1.1773899 0-2.1318529-.9539778-2.1318529-2.1307692 0-1.1767913.954463-2.1307692 2.1318529-2.1307692 1.1773898 0 2.1318529.9539779 2.1318529 2.1307692-.0012534 1.1762721-.9549826 2.1295166-2.1318529 2.1307692z"/><path d="m7.31424511 12.5765103c.27749608.2772712.72731724.2772712 1.00481332 0l1.62958834-1.628618 1.62944623 1.628618c.2788313.2691674.7220477.2653179.996157-.008652.2741092-.2739699.2779606-.716961.0086563-.9956506l-1.6295883-1.62861796 1.6294462-1.62861795c.2693043-.27868961.2654529-.72168072-.0086563-.99565062-.2741093-.27396991-.7173257-.27781938-.996157-.00865194l-1.62930413 1.62861795-1.62958834-1.62861795c-.27883135-.26916744-.72204775-.26531797-.99615699.00865194-.27410923.2739699-.27796066.71696101-.00865633.99565062l1.62930409 1.62861795-1.62930409 1.62861796c-.27741229.277355-.27741229.7269475 0 1.0043026z"/><path d="m25.5822346 8.10686667v3.96749233c0 .3922638.3181543.7102564.7106176.7102564s.7106176-.3179926.7106176-.7102564v-5.68205131c-.00306-.12519699-.0401-.24720984-.1071611-.35299743-.0142541-.02436861-.0301121-.04776387-.0474693-.07003129-.0721063-.10105233-.1696849-.18123196-.2828258-.23239589h-.0009949-.0065376c-.084157-.03529101-.1743696-.05391291-.2656289-.0548318h-5.684941c-.3924633 0-.7106177.31799263-.7106177.71025641 0 .39226379.3181544.71025641.7106177.71025641h3.96951l-13.585872 13.5788241c-1.81447603-1.2903807-4.31562546-.9754329-5.75318103.7244476-1.43755558 1.6998805-1.33168079 4.2172967.24353476 5.7905981s4.09398632 1.6773414 5.79371387.2393143c1.6997276-1.4380271 2.013066-3.9381273.7207457-5.7507677zm-17.05482308 18.88287693c-1.56985311 0-2.84247051-1.2719705-2.84247051-2.8410257 0-1.5690551 1.2726174-2.8410256 2.84247051-2.8410256 1.56985308 0 2.84247048 1.2719705 2.84247048 2.8410256-.001645 1.5683736-1.2732993 2.8393815-2.84247048 2.8410257z"/></g></svg>