<svg height="40" viewBox="0 0 40 40" width="40" xmlns="http://www.w3.org/2000/svg"><g fill="#04de47" fill-rule="evenodd" transform="translate(2.534351 5.064103)"><path d="m30.8919695 2.76801128c.253345.95050911.3795125 1.93038991.3752061 2.91404 0 10.06206052-16.3442054 21.00057742-16.3442054 21.00057742-4.3856772-3.0591082-8.35436147-6.6757091-11.80605917-10.75868 4.17686829 7.930581 14.64852967 15.0203605 14.64852967 15.0203605s16.3442054-10.9385169 16.3442054-21.00071946c.1762071-2.77571749-1.0274528-5.45993862-3.2176766-7.17557846z" opacity=".15"/><path d="m26.2928522 1.42051282c4.9743234 0 7.8167939 3.55128205 7.8167939 8.52307692 0 10.06191846-16.3442054 21.00057746-16.3442054 21.00057746s-16.34420545-11.0569877-16.34420545-21.00057746c0-4.97179487 2.84247051-8.52307692 7.8167939-8.52307692 4.91505785 0 8.52741155 5.68205128 8.52741155 5.68205128s3.671477-5.68205128 8.5274115-5.68205128zm0-1.42051282c-3.8323609 0-6.9168677 2.87937949-8.521016 4.75729744-1.592352-1.88047488-4.6610831-4.75729744-8.53380705-4.75729744-5.52562054 0-9.23802915 3.99618667-9.23802915 9.94358974 0 10.56435386 16.2614895 21.68526466 16.9539153 22.16667646l.8072617.5615287.8101041-.4608144c.6925679-.4767241 16.9596002-11.581441 16.9596002-22.26739076 0-5.94754512-3.7124086-9.94358974-9.2380291-9.94358974z" fill-rule="nonzero"/></g></svg>