<?xml version="1.0" encoding="UTF-8"?>
<svg width="38px" height="37px" viewBox="0 0 38 37" version="1.1" xmlns="http://www.w3.org/2000/svg" xmlns:xlink="http://www.w3.org/1999/xlink">
    <!-- Generator: Sketch 52.5 (67469) - http://www.bohemiancoding.com/sketch -->
    <title>Group</title>
    <desc>Created with Sketch.</desc>
    <g id="Page-1" stroke="none" stroke-width="1" fill="none" fill-rule="evenodd">
        <g id="Artboard-4" transform="translate(-87.000000, -319.000000)" stroke="#0AD93E" stroke-width="1.3">
            <g id="Group" transform="translate(88.000000, 319.000000)">
                <path d="M23.4989259,26.8293143 C23.2629838,26.5282733 22.8349606,26.4530131 22.5082716,26.6486897 C20.958011,27.5969687 19.1884452,28.0936863 17.3931678,28.0936863 C11.9725492,28.0936863 7.56224687,23.6984883 7.56224687,18.3098551 C7.56224687,13.4781478 11.1845631,9.32378252 15.9881023,8.63138831 C16.3601649,8.58623217 16.6369431,8.27013916 16.6369431,7.89383796 L16.6369431,1.7526024 C16.6369431,1.33114505 16.2981545,1 15.8807184,1 C7.12363655,1 2.11386464e-13,8.76685674 2.11386464e-13,18.3098551 C2.11386464e-13,27.8528535 7.80272632,35.6197103 17.3931678,35.6197103 C21.6839867,35.6197103 24.0055965,34.8520558 26.9473105,32.4437282 C27.2634124,32.1727913 27.3163481,31.7212299 27.0652815,31.3900848 L23.4989259,26.8293143" id="Fill-4771" fill="#CDF8DA"></path>
                <path d="M28.5,14.5 C28.5520946,14.9167567 28.586,16 29,16 L35.5,16 C35.914,16 35.5474004,12.9174817 35.5,12.5 C34.7052275,5.5 27.7448831,0.8286 20.75,1 C20.3361325,1.01014126 20,1.33 20,1.75 L20,7.75 C20,8.17 20.336,8.5 20.75,8.5 C25,8.5 28,10.5 28.5,14.5 Z" id="Fill-4772" fill="#DAF9E2"></path>
                <path d="M29,19 C28.6813658,19 28.6039086,20.7255461 28.5,21.0442008 C27.9411765,22.7579352 27.783011,22.9810186 26.2269498,24.3757292 C25.9607815,24.6059241 25.9236715,25.0256914 26.1424926,25.3100499 L30,30.197 C30.11133,30.3459497 30.9058788,29.6218679 31.0248867,29.5 C33,27.5 35.6479574,25.3100499 35.5,21.3814356 C35.4857358,21.002688 35.6479574,19 35.2947725,19 L29,19 Z" id="Fill-4773"></path>
            </g>
        </g>
    </g>
</svg>