<svg height="41" viewBox="0 0 41 41" width="41" xmlns="http://www.w3.org/2000/svg"><g fill="#04de47" fill-rule="evenodd" transform="translate(9 3)"><path d="m15.6335878 1.42051282v30.54102568c-.0012533 1.176272-.9549826 2.1295165-2.1318529 2.1307692h5.684941c1.1768703-.0012527 2.1305996-.9544972 2.1318529-2.1307692v-30.54102568z" opacity=".15"/><path d="m14.9229702 4.26153846h-7.10617631c-.39246328 0-.71061762.31799263-.71061762.71025641 0 .39226379.31815434.71025641.71061762.71025641h7.10617631c.3924632 0 .7106176-.31799262.7106176-.71025641 0-.39226378-.3181544-.71025641-.7106176-.71025641z"/><path d="m19.1866759 0h-15.63358777c-1.96137484.00227009-3.55081688 1.5909042-3.55308813 3.55128205v28.41025645c.00227125 1.9603778 1.59171329 3.5490119 3.55308813 3.551282h15.63358777c1.9613749-.0022701 3.5508169-1.5909042 3.5530882-3.551282v-28.41025645c-.0022713-1.96037785-1.5917133-3.54901196-3.5530882-3.55128205zm2.1318529 31.9615385c-.0012533 1.176272-.9549826 2.1295165-2.1318529 2.1307692h-15.63358777c-1.1768703-.0012527-2.13059955-.9544972-2.13185288-2.1307692v-2.1307693h19.89729355zm-19.89729355-3.5512821v-24.85897435c.00125333-1.17627208.95498258-2.12951654 2.13185288-2.13076923h15.63358777c1.1768703.00125269 2.1305996.95449715 2.1318529 2.13076923v24.85897435z" fill-rule="nonzero"/><path d="m9.23802915 32.6717949h4.26370575c.3924633 0 .7106176-.3179927.7106176-.7102564 0-.3922638-.3181543-.7102564-.7106176-.7102564h-4.26370575c-.39246328 0-.71061763.3179926-.71061763.7102564 0 .3922637.31815435.7102564.71061763.7102564z"/></g></svg>