<svg height="37" viewBox="0 0 38 37" width="38" xmlns="http://www.w3.org/2000/svg"><g fill="none" fill-rule="evenodd" stroke="#0ad93e" stroke-width="1.3" transform="translate(1)"><path d="m23.4989259 26.8293143c-.2359421-.301041-.6639653-.3763012-.9906543-.1806246-1.5502606.948279-3.3198264 1.4449966-5.1151038 1.4449966-5.4206186 0-9.83092093-4.395198-9.83092093-9.7838312 0-4.8317073 3.62231623-8.98607258 8.42585543-9.67846679.3720626-.04515614.6488408-.36124915.6488408-.73755035v-6.14123556c0-.42145735-.3387886-.7526024-.7562247-.7526024-8.75708185 0-15.8807184 7.76685674-15.8807184 17.3098551 0 9.5429984 7.80272632 17.3098552 17.3931678 17.3098552 4.2908189 0 6.6124287-.7676545 9.5541427-3.1759821.3161019-.2709369.3690376-.7224983.117971-1.0536434z" fill="#cdf8da"/><path d="m28.5 14.5c.0520946.4167567.086 1.5.5 1.5h6.5c.414 0 .0474004-3.0825183 0-3.5-.7947725-7-7.7551169-11.6714-14.75-11.5-.4138675.01014126-.75.33-.75.75v6c0 .42.336.75.75.75 4.25 0 7.25 2 7.75 6z" fill="#daf9e2"/><path d="m29 19c-.3186342 0-.3960914 1.7255461-.5 2.0442008-.5588235 1.7137344-.716989 1.9368178-2.2730502 3.3315284-.2661683.2301949-.3032783.6499622-.0844572.9343207l3.8575074 4.8869501c.11133.1489497.9058788-.5751321 1.0248867-.697 1.9751133-2 4.6230707-4.1899501 4.4751133-8.1185644-.0142642-.3787476.1479574-2.3814356-.2052275-2.3814356z"/></g></svg>