<svg height="40" viewBox="0 0 40 40" width="40" xmlns="http://www.w3.org/2000/svg"><g fill="#04de47" transform="translate(2.534351 2.092308)"><path d="m1.42123525 34.0923077 21.31852885-21.3076923 2.3691991 2.3679949-19.66136847 19.7678564z" opacity=".2"/><path d="m34.1096461 5.68205128c.7849265 0 1.4212352-.63598525 1.4212352-1.42051282v-2.84102564c0-.78452757-.6363087-1.42051282-1.4212352-1.42051282h-2.8424705c-.7849266 0-1.4212353.63598525-1.4212353 1.42051282v1.42051282h-24.16099929v-1.42051282c0-.78452757-.63630869-1.42051282-1.42123525-1.42051282h-2.84247051c-.78492655 0-1.42123525.63598525-1.42123525 1.42051282v2.84102564c0 .78452757.6363087 1.42051282 1.42123525 1.42051282h1.42123526v10.65384612c0 .3922638.31815435.7102564.71061762.7102564.39246328 0 .71061763-.3179926.71061763-.7102564v-10.65384612c.78492656 0 1.42123525-.63598525 1.42123525-1.42051282h24.16099929c0 .78452757.6363087 1.42051282 1.4212353 1.42051282v24.14871792c-.7849266 0-1.4212353.6359853-1.4212353 1.4205129h-10.6592644c-.3924633 0-.7106176.3179926-.7106176.7102564 0 .3922637.3181543.7102564.7106176.7102564h10.6592644v1.4205128c0 .7845276.6363087 1.4205128 1.4212353 1.4205128h2.8424705c.7849265 0 1.4212352-.6359852 1.4212352-1.4205128v-2.8410256c0-.7845276-.6363087-1.4205129-1.4212352-1.4205129h-1.4212353v-24.14871792zm-29.84594034-1.42051282h-2.84247051v-2.84102564h2.84247051zm29.84594034 26.98974364v2.8410256h-2.8424705v-2.8410256zm-2.8424705-26.98974364v-2.84102564h2.8424705v2.84102564z"/><path d="m24.9577438 13.5808128-3.0148664-3.0129077c-.8325207-.83200316-2.1822034-.83200316-3.0147242 0l-18.30380455 18.2939323c-.39989758.3997243-.62449178.9418899-.62434865 1.5071641v3.7233062c0 .7845276.6363087 1.4205128 1.42123525 1.4205128h3.72548397c.56543619-.0001389 1.10767461-.2247007 1.50750424-.6243154l18.30352034-18.2939323c.3999215-.3996129.624604-.9416675.624604-1.50688s-.2246825-1.1072671-.624604-1.50688zm-19.30847579 20.3033898c-.13289469.1338038-.31391622.2087647-.50254879.2081051l-3.7254861.0000043.00000213-3.7233105c-.00046292-.1886646.07449427-.3696978.20821097-.5028615l15.79106068-15.7830338 4.020106 4.0180625zm18.30352029-18.2946426-1.5072199 1.5071641-4.0201061-4.0180626 1.5075043-1.5064538c.277496-.2772713.7273172-.2772713 1.0048133 0l3.0148663 3.0130497c.2774516.2773158.2775152.7269084.0001421 1.0043026z"/></g></svg>