<svg height="40" viewBox="0 0 40 40" width="40" xmlns="http://www.w3.org/2000/svg"><g fill="#04de47" fill-rule="evenodd" transform="translate(2.534351 5.064103)"><path d="m17.7654407 1.42051282c-1.1954622.00286796-2.3869847.1371081-3.5530882.40030051 5.0134108 1.10496723 9.2131205 4.50587437 11.3344468 9.17858687 2.1213263 4.6727126 1.9163889 10.0712169-.5530983 14.5698306h7.1061763c2.7744961-5.0567329 2.6703925-11.2021152-.2737877-16.16207138-2.9441802-4.95995615-8.2905286-7.9967573-14.0606489-7.9866466z" opacity=".15"/><path d="m17.7654407 0c-6.4245165-.00981314-12.35219689 3.45317795-15.49620069 9.05298546-3.1440038 5.59980754-3.01285586 12.46106164.34284826 17.93675814h30.30670483c3.3557041-5.4756965 3.486852-12.3369506.3428482-17.93675814-3.1440038-5.59980751-9.0716842-9.0627986-15.4962006-9.05298546zm14.3344366 25.5692308h-28.66887328c-3.76622291-6.8720143-2.12022788-15.4489306 3.92271156-20.44038286 6.04293942-4.99145231 14.78065282-4.99145231 20.82359232 0 6.0429394 4.99145226 7.6889344 13.56836856 3.9227115 20.44038286z" fill-rule="nonzero"/><path d="m24.2977221 14.4846851-5.618285 5.6155713c-.9453763-.4551339-2.0813487-.1623308-2.6886014.6930019-.6072526.8553326-.5086738 2.0237279.2333147 2.7653393.7419886.7416113 1.9109781.84014 2.7667457.233196.8557676-.6069439 1.1487197-1.7423389.6933543-2.6872346l5.6182851-5.6154293c.2693043-.2786896.2654529-.7216807-.0086564-.9956506-.2741092-.2739699-.7173256-.2778194-.996157-.0086519zm-6.5322814 8.24352c-.3924633 0-.7106177-.3179926-.7106177-.7102564s.3181544-.7102564.7106177-.7102564c.3924632 0 .7106176.3179926.7106176.7102564s-.3181544.7102564-.7106176.7102564z" fill-rule="nonzero"/><path d="m17.7654407 2.84102564c-8.23799485.0090032-14.91396242 6.68157728-14.92297019 14.91538466 0 .3922637.31815435.7102564.71061762.7102564.39246328 0 .71061763-.3179927.71061763-.7102564 0-7.4530119 6.04493264-13.49487184 13.50173494-13.49487184s13.5017349 6.04185994 13.5017349 13.49487184c0 .3922637.3181543.7102564.7106176.7102564s.7106176-.3179927.7106176-.7102564c-.0090077-8.23380738-6.6849753-14.90638146-14.9229701-14.91538466z"/></g></svg>