<?xml version="1.0" encoding="UTF-8"?>
<svg width="40px" height="40px" viewBox="0 0 40 40" version="1.1" xmlns="http://www.w3.org/2000/svg" xmlns:xlink="http://www.w3.org/1999/xlink">
    <!-- Generator: Sketch 52.4 (67378) - http://www.bohemiancoding.com/sketch -->
    <title>assets/homepage/teams_11</title>
    <desc>Created with Sketch.</desc>
    <g id="Page-1" stroke="none" stroke-width="1" fill="none" fill-rule="evenodd">
        <g id="Wunder-Careers-03-Teams" transform="translate(-40.000000, -5659.000000)" fill="#04DE47">
            <g id="Enginiering-Copy-9" transform="translate(10.000000, 5413.000000)">
                <g id="Group-22" transform="translate(30.000000, 246.000000)">
                    <g id="dashboard" transform="translate(2.534351, 5.064103)">
                        <path d="M17.7654407,1.42051282 C16.5699785,1.42338078 15.378456,1.55762092 14.2123525,1.82081333 C19.2257633,2.92578056 23.425473,6.3266877 25.5467993,10.9994002 C27.6681256,15.6721128 27.4631882,21.0706171 24.993701,25.5692308 L32.0998773,25.5692308 C34.8743734,20.5124979 34.7702698,14.3671156 31.8260896,9.40715942 C28.8819094,4.44720327 23.535561,1.41040212 17.7654407,1.42051282 Z" id="Path" opacity="0.149999991"></path>
                        <path d="M17.7654407,6.77626358e-21 C11.3409242,-0.00981313893 5.41324381,3.45317795 2.26924001,9.05298546 C-0.874763794,14.652793 -0.743615845,21.5140471 2.61208827,26.9897436 L32.9187931,26.9897436 C36.2744972,21.5140471 36.4056451,14.652793 33.2616413,9.05298546 C30.1176375,3.45317795 24.1899571,-0.00981313893 17.7654407,6.77626358e-21 Z M32.0998773,25.5692308 L3.43100402,25.5692308 C-0.335218889,18.6972165 1.31077614,10.1203002 7.35371558,5.12884794 C13.396655,0.137395627 22.1343684,0.137395627 28.1773079,5.12884794 C34.2202473,10.1203002 35.8662423,18.6972165 32.1000194,25.5692308 L32.0998773,25.5692308 Z" id="Shape" fill-rule="nonzero"></path>
                        <path d="M24.2977221,14.4846851 L18.6794371,20.1002564 C17.7340608,19.6451225 16.5980884,19.9379256 15.9908357,20.7932583 C15.3835831,21.6485909 15.4821619,22.8169862 16.2241504,23.5585976 C16.966139,24.3002089 18.1351285,24.3987376 18.9908961,23.7917936 C19.8466637,23.1848497 20.1396158,22.0494547 19.6842504,21.104559 L25.3025355,15.4891297 C25.5718398,15.2104401 25.5679884,14.767449 25.2938791,14.4934791 C25.0197699,14.2195092 24.5765535,14.2156597 24.2977221,14.4848272 L24.2977221,14.4846851 Z M17.7654407,22.7282051 C17.3729774,22.7282051 17.054823,22.4102125 17.054823,22.0179487 C17.054823,21.6256849 17.3729774,21.3076923 17.7654407,21.3076923 C18.1579039,21.3076923 18.4760583,21.6256849 18.4760583,22.0179487 C18.4760583,22.4102125 18.1579039,22.7282051 17.7654407,22.7282051 Z" id="Shape" fill-rule="nonzero"></path>
                        <path d="M17.7654407,2.84102564 C9.52744585,2.85002884 2.85147828,9.52260292 2.84247051,17.7564103 C2.84247051,18.148674 3.16062486,18.4666667 3.55308813,18.4666667 C3.94555141,18.4666667 4.26370576,18.148674 4.26370576,17.7564103 C4.26370576,10.3033984 10.3086384,4.26153846 17.7654407,4.26153846 C25.222243,4.26153846 31.2671756,10.3033984 31.2671756,17.7564103 C31.2671756,18.148674 31.5853299,18.4666667 31.9777932,18.4666667 C32.3702565,18.4666667 32.6884108,18.148674 32.6884108,17.7564103 C32.6794031,9.52260292 26.0034355,2.85002884 17.7654407,2.84102564 Z" id="Path"></path>
                    </g>
                </g>
            </g>
        </g>
    </g>
</svg>