<?xml version="1.0" encoding="UTF-8"?>
<svg width="41px" height="41px" viewBox="0 0 41 41" version="1.1" xmlns="http://www.w3.org/2000/svg" xmlns:xlink="http://www.w3.org/1999/xlink">
    <!-- Generator: Sketch 52.4 (67378) - http://www.bohemiancoding.com/sketch -->
    <title>assets/homepage/teams_01</title>
    <desc>Created with Sketch.</desc>
    <g id="Page-1" stroke="none" stroke-width="1" fill="none" fill-rule="evenodd">
        <g id="Wunder-Careers-03-Teams" transform="translate(-40.000000, -922.000000)" fill="#04DE47">
            <g id="Enginiering" transform="translate(10.000000, 676.000000)">
                <g id="android" transform="translate(30.000000, 246.000000)">
                    <g id="Group-13" transform="translate(9.000000, 3.000000)">
                        <path d="M15.6335878,1.42051282 L15.6335878,31.9615385 C15.6323345,33.1378105 14.6786052,34.091055 13.5017349,34.0923077 L19.1866759,34.0923077 C20.3635462,34.091055 21.3172755,33.1378105 21.3185288,31.9615385 L21.3185288,1.42051282 L15.6335878,1.42051282 Z" id="Path" opacity="0.149999991"></path>
                        <path d="M14.9229702,4.26153846 L7.81679389,4.26153846 C7.42433061,4.26153846 7.10617627,4.57953109 7.10617627,4.97179487 C7.10617627,5.36405866 7.42433061,5.68205128 7.81679389,5.68205128 L14.9229702,5.68205128 C15.3154334,5.68205128 15.6335878,5.36405866 15.6335878,4.97179487 C15.6335878,4.57953109 15.3154334,4.26153846 14.9229702,4.26153846 Z" id="Path"></path>
                        <path d="M19.1866759,-9.23705556e-14 L3.55308813,-9.23705556e-14 C1.59171329,0.00227009063 0.00227124514,1.5909042 -4.26325641e-14,3.55128205 L-4.26325641e-14,31.9615385 C0.00227124514,33.9219163 1.59171329,35.5105504 3.55308813,35.5128205 L19.1866759,35.5128205 C21.1480508,35.5105504 22.7374928,33.9219163 22.7397641,31.9615385 L22.7397641,3.55128205 C22.7374928,1.5909042 21.1480508,0.00227009063 19.1866759,-9.23705556e-14 Z M21.3185288,31.9615385 C21.3172755,33.1378105 20.3635462,34.091055 19.1866759,34.0923077 L3.55308813,34.0923077 C2.37621783,34.091055 1.42248858,33.1378105 1.42123525,31.9615385 L1.42123525,29.8307692 L21.3185288,29.8307692 L21.3185288,31.9615385 Z M1.42123525,28.4102564 L1.42123525,3.55128205 C1.42248858,2.37500997 2.37621783,1.42176551 3.55308813,1.42051282 L19.1866759,1.42051282 C20.3635462,1.42176551 21.3172755,2.37500997 21.3185288,3.55128205 L21.3185288,28.4102564 L1.42123525,28.4102564 Z" id="Shape" fill-rule="nonzero"></path>
                        <path d="M9.23802915,32.6717949 L13.5017349,32.6717949 C13.8941982,32.6717949 14.2123525,32.3538022 14.2123525,31.9615385 C14.2123525,31.5692747 13.8941982,31.2512821 13.5017349,31.2512821 L9.23802915,31.2512821 C8.84556587,31.2512821 8.52741152,31.5692747 8.52741152,31.9615385 C8.52741152,32.3538022 8.84556587,32.6717949 9.23802915,32.6717949 Z" id="Path"></path>
                    </g>
                </g>
            </g>
        </g>
    </g>
</svg>