<svg height="41" viewBox="0 0 41 41" width="41" xmlns="http://www.w3.org/2000/svg"><g fill="#04de47"><path d="m31.0034698 7.42051282v17.75641028c0 .3922638-.3181543.7102564-.7106176.7102564h-24.16099932v2.1307692c0 .3922638.31815435.7102564.71061763.7102564h26.29285219c.3924633 0 .7106176-.3179926.7106176-.7102564v-20.59743588z" opacity=".2"/><path d="m35.9777932 6h-31.26717557c-.39246328 0-.71061763.31799263-.71061763.71025641s.31815435.71025641.71061763.71025641h.71061762v20.59743588c.00125333 1.1762721.95498258 2.1295166 2.13185288 2.1307692h9.05710587l-2.5724358 4.6270365c-.0915681.1646871-.1139163.3589903-.0621264.5401493.0517898.181159.1734736.3343281.3382724.4257994.1055324.0589014.2244895.0895796.3453602.0890661.2583238.0001827.4964001-.1397622.6217904-.3654979l2.954606-5.3165534h4.2172314l2.9550323 5.3165534c.1252915.2255578.3631017.3654741.6212219.3654979.1205236.0001879.239067-.0306314.3442232-.0894923.1647988-.0914713.2864826-.2446404.3382724-.4257994.0517899-.181159.0294417-.3754622-.0621264-.5401493l-2.5712988-4.6266103h9.0571059c1.1768703-.0012526 2.1305995-.9544971 2.1318529-2.1307692v-20.59743588h.7106176c.3924633 0 .7106176-.31799263.7106176-.71025641s-.3181543-.71025641-.7106176-.71025641zm-2.1318529 22.0179487c0 .3922638-.3181543.7102564-.7106176.7102564h-25.58223457c-.39246327 0-.71061762-.3179926-.71061762-.7102564v-20.59743588h27.00346979z"/><path d="m23.1866759 25.8871795c.3924633 0 .7106176-.3179926.7106176-.7102564v-12.7846154c0-.3922638-.3181543-.7102564-.7106176-.7102564s-.7106176.3179926-.7106176.7102564v12.7846154c0 .3922638.3181543.7102564.7106176.7102564z"/><path d="m17.5017349 25.8871795c.3924633 0 .7106176-.3179926.7106176-.7102564v-5.6820513c0-.3922638-.3181543-.7102564-.7106176-.7102564s-.7106176.3179926-.7106176.7102564v5.6820513c0 .3922638.3181543.7102564.7106176.7102564z"/><path d="m11.8167939 25.8871795c.3924633 0 .7106176-.3179926.7106176-.7102564v-5.6820513c0-.3922638-.3181543-.7102564-.7106176-.7102564s-.7106176.3179926-.7106176.7102564v5.6820513c0 .3922638.3181543.7102564.7106176.7102564z"/><path d="m28.8716169 25.8871795c.3924633 0 .7106177-.3179926.7106177-.7102564v-8.5230769c0-.3922638-.3181544-.7102565-.7106177-.7102565-.3924632 0-.7106176.3179927-.7106176.7102565v8.5230769c0 .3922638.3181544.7102564.7106176.7102564z"/></g></svg>