<svg height="40" viewBox="0 0 40 40" width="40" xmlns="http://www.w3.org/2000/svg"><g fill="#04de47" transform="translate(3.244969 3.802564)"><path d="m4.97432339 17.0461538c-.92965877-.0106826-1.78990725-.4937208-2.28264594-1.2817287-.30898074-.466284-.49675279-1.0022169-.54632284-1.5592969h5.65793755c-.04961272.5570927-.23743395 1.0930265-.54646496 1.5592969-.49271155.7879658-1.35289575 1.270998-2.28250381 1.2817287z" opacity=".2"/><path d="m29.1353227 17.0461538c-.9296588-.0106826-1.7899073-.4937208-2.2826459-1.2817287-.3089808-.466284-.4967528-1.0022169-.5463229-1.5592969h5.6580797c-.0496127.5570927-.237434 1.0930265-.546465 1.5592969-.4927387.7880079-1.3529871 1.2710461-2.2826459 1.2817287z" opacity=".2"/><path d="m21.3185288 28.4102564c.3924633 0 .7106176-.3179926.7106176-.7102564s-.3181543-.7102564-.7106176-.7102564h-8.5274115c-.3924633 0-.7106176.3179926-.7106176.7102564s.3181543.7102564.7106176.7102564z"/><path d="m25.5822346 29.8307692h-17.05482308c-.39246328 0-.71061763.3179927-.71061763.7102564 0 .3922638.31815435.7102565.71061763.7102565h17.05482308c.3924632 0 .7106176-.3179927.7106176-.7102565 0-.3922637-.3181544-.7102564-.7106176-.7102564z"/><path d="m33.0124525 12.0007764-3.2759473-7.73923794h1.5306704c.3924633 0 .7106176-.31799262.7106176-.71025641 0-.39226378-.3181543-.71025641-.7106176-.71025641h-13.5017349v-2.13076923c0-.39226378-.3181544-.71025641-.7106177-.71025641-.3924632 0-.7106176.31799263-.7106176.71025641v2.13076923h-13.50173489c-.39246328 0-.71061763.31799263-.71061763.71025641 0 .39226379.31815435.71025641.71061763.71025641h1.53067036l-3.27594725 7.73923794c-.63353878 1.3695047-.54826781 2.9635702.22775881 4.25775.77602662 1.2941797 2.14232017 2.1208888 3.64937096 2.2081403 1.50705079-.0872515 2.87334433-.9139606 3.64937095-2.2081403.77602662-1.2941798.86129759-2.8882453.22775882-4.25775l-3.27594726-7.73923794h10.7686995v20.59743594c0 .3922637.3181544.7102564.7106176.7102564.3924633 0 .7106177-.3179927.7106177-.7102564v-20.59743594h10.7686995l-3.2759473 7.73923794c-.6335388 1.3695047-.5482678 2.9635702.2277588 4.25775.7760267 1.2941797 2.1423202 2.1208888 3.649371 2.2081403 1.5070508-.0872515 2.8733443-.9139606 3.6493709-2.2081403.7760267-1.2941798.8612976-2.8882453.2277589-4.25775zm-28.03812911 5.0453774c-.92965877-.0106826-1.78990725-.4937208-2.28264594-1.2817287-.30898074-.466284-.49675279-1.0022169-.54632284-1.5592969h5.65793755c-.04961272.5570927-.23743395 1.0930265-.54646496 1.5592969-.49271155.7879658-1.35289575 1.270998-2.28250381 1.2817287zm2.63397529-4.2615384h-5.26795059c.02615073-.0762816.03410965-.1554041.06580319-.2302651l2.56817211-6.0672944 2.5681721 6.0672944c.03169355.074861.03965246.1539835.06580319.2302651zm21.52702402-6.2975595 2.5681721 6.0672944c.0316935.074861.0396525.1539835.0658032.2302651h-5.2679506c.0261507-.0762816.0341096-.1554041.0658032-.2302651zm0 10.5590979c-.9296588-.0106826-1.7899073-.4937208-2.2826459-1.2817287-.3089808-.466284-.4967528-1.0022169-.5463229-1.5592969h5.6580797c-.0496127.5570927-.237434 1.0930265-.546465 1.5592969-.4927387.7880079-1.3529871 1.2710461-2.2826459 1.2817287z"/></g></svg>