<svg height="40" viewBox="0 0 40 40" width="40" xmlns="http://www.w3.org/2000/svg"><g fill="#04de47" fill-rule="evenodd" transform="translate(2.955586 4.223077)"><path d="m11.4764747 9.79585641 2.6662373-.40768718.7504122-.11364102.3226204-.6861077 1.1284608-2.40350769 1.1284608 2.40350769.3226204.6861077.7504122.11364102 2.6662374.40768718-1.9769383 2.02565129-.5002748.5128051.1151201.7074154.4519528 2.7657385-2.2697127-1.2528923-.6878779-.3806975-.6878778.3806975-2.2697127 1.2528923.4519528-2.7657385.11512-.7074154-.5002748-.5128051z" opacity=".15"/><path d="m29.8459403 1.42051282v18.46666668h-8.5274115-12.79111728-7.10617627v1.4205128h8.52741152 12.79111733 8.5274115v-19.88717948z" opacity=".15"/><path d="m11.369882 22.728205h9.948647v1.420513h-9.948647z" opacity=".15"/><g fill-rule="nonzero"><path d="m31.2671756 0h-29.84594035c-.78492655 0-1.42123525.63598525-1.42123525 1.42051282v19.88717948c0 .7845276.6363087 1.4205128 1.42123525 1.4205128h8.52741152v9.9435898l6.39555863-2.8410257 6.3955587 2.8410257v-9.9435898h8.5274115c.7849265 0 1.4212352-.6359852 1.4212352-1.4205128v-19.88717948c0-.78452757-.6363087-1.42051282-1.4212352-1.42051282zm-19.8972936 22.7282051h4.2637058v5.8637349l-4.2637058 1.8939697zm9.9486468 7.7577046-4.2637058-1.8939697v-5.8637349h4.2637058zm9.9486468-9.1782174h-29.84594035v-19.88717948h29.84594035z"/><path d="m11.5131425 18.4666667 4.8310629-2.6690016 4.8310629 2.6690016-.9226659-5.6536411 3.9083969-4.00343124-5.400694-.82474974-2.4160999-5.14381898-2.4160999 5.14381898-5.40069398.82474974 3.90839698 4.00343124zm-.0369521-8.67052619 2.6670901-.40754513.7498437-.11449333.3221941-.68596564 1.1288871-2.40393385 1.1288872 2.4040759.322194.68596564.7498437.11449334 2.6670901.40754512-1.9769382 2.02494104-.5007012.5132313.1154043.7074154.4513843 2.7661646-2.2695706-1.2537446-.6875936-.3799872-.6875936.3801292-2.2695706 1.2537446.4513843-2.7661646.1154043-.7074154-.5007011-.5132313z"/></g></g></svg>