<svg height="40" viewBox="0 0 40 40" width="40" xmlns="http://www.w3.org/2000/svg"><g fill="#04de47" fill-rule="evenodd" transform="translate(4.376822 1.961538)"><path d="m6.51352117 34.8025641h-2.96043304v-2.1307692l2.96043304-2.8410257z" opacity=".15"/><path d="m16.3442054 34.8025641h-2.960433v-9.2333333l2.960433-2.8410257z" opacity=".15"/><path d="m26.4108147 34.8025641h-2.960433v-16.3358974l2.960433-2.8410257z" opacity=".15"/><g fill-rule="nonzero"><path d="m5.68494101 25.5692308h-1.42123525c-1.17738983 0-2.13185288.9539778-2.13185288 2.1307692v5.6820513c0 1.1767913.95446305 2.1307692 2.13185288 2.1307692h1.42123525c1.17738984 0 2.13185288-.9539779 2.13185288-2.1307692v-5.6820513c0-1.1767914-.95446304-2.1307692-2.13185288-2.1307692zm.71061763 7.8128205c-.00046988.3920691-.31834914.7097868-.71061763.7102564h-1.42123525c-.39226848-.0004696-.71014775-.3181873-.71061763-.7102564v-5.6820513c.00046988-.3920691.31834915-.7097868.71061763-.7102564h1.42123525c.39226849.0004696.71014775.3181873.71061763.7102564z"/><path d="m15.6335878 18.4666667h-1.4212353c-1.1773898 0-2.1318528.9539778-2.1318528 2.1307692v12.7846154c0 1.1767913.954463 2.1307692 2.1318528 2.1307692h1.4212353c1.1773898 0 2.1318529-.9539779 2.1318529-2.1307692v-12.7846154c0-1.1767914-.9544631-2.1307692-2.1318529-2.1307692zm.7106176 14.9153846c-.0004699.3920691-.3183491.7097868-.7106176.7102564h-1.4212353c-.3922685-.0004696-.7101477-.3181873-.7106176-.7102564v-12.7846154c.0004699-.3920691.3183491-.7097868.7106176-.7102564h1.4212353c.3922685.0004696.7101477.3181873.7106176.7102564z"/><path d="m25.5822346 9.94358974h-1.4212353c-1.1773898 0-2.1318529.95397786-2.1318529 2.13076926v21.3076923c0 1.1767913.9544631 2.1307692 2.1318529 2.1307692h1.4212353c1.1773898 0 2.1318528-.9539779 2.1318528-2.1307692v-21.3076923c0-1.1767914-.954463-2.13076926-2.1318528-2.13076926zm.7106176 23.43846156c-.0004699.3920691-.3183492.7097868-.7106176.7102564h-1.4212353c-.3922685-.0004696-.7101477-.3181873-.7106176-.7102564v-21.3076923c.0004699-.3920691.3183491-.7097868.7106176-.7102564h1.4212353c.3922684.0004696.7101477.3181873.7106176.7102564z"/></g><path d="m29.1323381.69605128c-.0044647-.05802243-.0160641-.11527413-.034536-.17046154-.0054305-.03364987-.0132191-.06687694-.0233083-.09943589-.0202138-.03651959-.0435624-.07121573-.0697826-.10369744-.0251386-.0439119-.0549696-.0849682-.0889694-.1224482l-.0095222-.01278462c-.029662-.02139399-.0609807-.04039417-.0936594-.05682051-.040544-.03112591-.0845074-.05752865-.1310379-.07869641-.0503711-.01653688-.1025065-.02712076-.155341-.03153539-.0332507-.00934478-.0671785-.0160889-.1014762-.02017128h-5.684941c-.3924633 0-.7106177.31799263-.7106177.71025641s.3181544.71025641.7106177.71025641h4.0283492c-10.0101863 10.24189748-25.51742628 18.46382568-25.67731524 18.54848818-.23356839.1129635-.3869665.3441875-.40017082.6031958-.01320433.2590084.11588459.504619.33675527.6407264s.49840491.1410706.72400569.0129476c.16401055-.0860831 15.784523-8.3663944 25.9626992-18.74167798v3.90811487c0 .39226379.3181544.71025641.7106177.71025641.3924632 0 .7106176-.31799262.7106176-.71025641v-5.68205128z"/></g></svg>