<?xml version="1.0" encoding="UTF-8" standalone="no"?>
<!-- Created with Keyshape -->
<svg xmlns="http://www.w3.org/2000/svg" width="103" height="48" viewBox="0 0 103 48" fill="none">
    <defs>
        <clipPath id="ClipPath-5">
            <rect width="0.533333" height="3.4" fill="none" stroke="#000000" transform="translate(35.1333,40.1667) translate(-18.6,-1.7)" style="animation: 1.7s 5.5s linear both a7_w;"/>
        </clipPath>
        <clipPath id="ClipPath-6">
            <rect width="0.866667" height="2.86667" fill="none" stroke="#000000" transform="translate(51.6,40) translate(-9.46667,-1.53333)" style="animation: 1.7s 5.5s linear both a9_w;"/>
        </clipPath>
        <clipPath id="ClipPath-4">
            <rect width="0.933333" height="3.26667" fill="none" stroke="#000000" transform="translate(10.6667,39.9333) translate(-8.8,-1.66667)" style="animation: 1.7s 5.5s linear both a11_w;"/>
        </clipPath>
        <clipPath id="ClipPath-1">
            <ellipse rx="1.84135" ry="1.84135" stroke="#000000" fill="none" transform="translate(26.6309,14.8133) scale(0,0)" style="animation: 1.7s 5.5s linear both a14_t;"/>
        </clipPath>
        <clipPath id="ClipPath-2">
            <ellipse rx="2.33605" ry="2.33605" fill="none" stroke="#000000" transform="translate(26.4111,8.05249) scale(0,0)" style="animation: 1.7s 5.5s linear both a16_t;"/>
        </clipPath>
        <clipPath id="ClipPath-3">
            <ellipse rx="1.84135" ry="1.84135" fill="none" stroke="#000000" transform="translate(26.6859,1.1268) scale(0,0)" style="animation: 1.7s 5.5s linear both a18_t;"/>
        </clipPath>
    </defs>
    <style>
@keyframes a1_t { 0% { transform: translate(66.638157px,29.5343px); } 41.1764% { transform: translate(66.638157px,29.5343px); animation-timing-function: cubic-bezier(0.42,0,1,1); } 70.5882% { transform: translate(16.94756px,29.5343px); animation-timing-function: cubic-bezier(0,0,0.58,1); } 100% { transform: translate(48.695288px,29.5343px); } }
@keyframes a0_t { 0% { transform: scale(0,0) translate(-16.96px,-29.5343px); animation-timing-function: cubic-bezier(0,0,0.58,1); } 17.647% { transform: scale(1,1) translate(-16.96px,-29.5343px); } 100% { transform: scale(1,1) translate(-16.96px,-29.5343px); } }
@keyframes a3_t { 0% { transform: translate(49.699999px,-0.054966px); } 41.1764% { transform: translate(49.699999px,-0.054966px); animation-timing-function: cubic-bezier(0.42,0,1,1); } 70.5882% { transform: translate(0.26239px,-0.054966px); animation-timing-function: cubic-bezier(0,0,0.58,1); } 100% { transform: translate(32.010088px,-0.054966px); } }
@keyframes a2_t { 0% { transform: scale(0,0); animation-timing-function: cubic-bezier(0,0,0.58,1); } 17.647% { transform: scale(1,1); } 100% { transform: scale(1,1); } }
@keyframes a5_t { 0% { transform: translate(63.729585px,42.4487px); } 41.1764% { transform: translate(63.729585px,42.4487px); animation-timing-function: cubic-bezier(0.42,0,1,1); } 70.5882% { transform: translate(13.97286px,42.4487px); animation-timing-function: cubic-bezier(0,0,0.58,1); } 100% { transform: translate(45.720588px,42.4487px); } }
@keyframes a4_t { 0% { transform: scale(0,0) translate(-39.1597px,-42.5037px); animation-timing-function: cubic-bezier(0,0,0.58,1); } 17.647% { transform: scale(1,1) translate(-39.1597px,-42.5037px); } 100% { transform: scale(1,1) translate(-39.1597px,-42.5037px); } }
@keyframes a6_t { 0% { transform: translate(49.7px,0px); } 41.1764% { transform: translate(49.7px,0px); animation-timing-function: cubic-bezier(0.42,0,1,1); } 70.5882% { transform: translate(-0.01244px,0px); animation-timing-function: cubic-bezier(0,0,0.58,1); } 100% { transform: translate(31.735288px,0px); } }
@keyframes a7_w { 0% { width: 0.533333px; animation-timing-function: cubic-bezier(0,0,0.58,1); } 17.6471% { width: 18.0667px; } 100% { width: 18.0667px; } }
@keyframes a8_t { 0% { transform: translate(49.7px,0px); } 41.1764% { transform: translate(49.7px,0px); animation-timing-function: cubic-bezier(0.42,0,1,1); } 70.5882% { transform: translate(-0.01244px,0px); animation-timing-function: cubic-bezier(0,0,0.58,1); } 100% { transform: translate(31.735288px,0px); } }
@keyframes a9_w { 0% { width: 0.866667px; animation-timing-function: cubic-bezier(0,0,0.58,1); } 17.6471% { width: 9.06667px; } 100% { width: 9.06667px; } }
@keyframes a10_t { 0% { transform: translate(49.7px,0px); } 41.1764% { transform: translate(49.7px,0px); animation-timing-function: cubic-bezier(0.42,0,1,1); } 70.5882% { transform: translate(-1.01244px,0px); animation-timing-function: cubic-bezier(0,0,0.58,1); } 100% { transform: translate(30.735288px,0px); } }
@keyframes a11_w { 0% { width: 0.933333px; animation-timing-function: cubic-bezier(0,0,0.58,1); } 17.6471% { width: 8.46667px; } 100% { width: 8.46667px; } }
@keyframes a12_t { 0% { transform: translate(49.7px,0px); } 41.1764% { transform: translate(49.7px,0px); animation-timing-function: cubic-bezier(0.42,0,1,1); } 70.5882% { transform: translate(-0.01244px,0px); animation-timing-function: cubic-bezier(0,0,0.58,1); } 100% { transform: translate(31.735288px,0px); } }
@keyframes a13_t { 0% { transform: translate(49.7px,0px); } 41.1764% { transform: translate(49.7px,0px); animation-timing-function: cubic-bezier(0.42,0,1,1); } 70.5882% { transform: translate(-0.01244px,0px); animation-timing-function: cubic-bezier(0,0,0.58,1); } 100% { transform: translate(31.735288px,0px); } }
@keyframes a14_t { 0% { transform: translate(26.6309px,14.8133px) scale(0,0); } 5.8823% { transform: translate(26.6309px,14.8133px) scale(0,0); animation-timing-function: cubic-bezier(0.25,0,0,1); } 35.2941% { transform: translate(26.6309px,14.8133px) scale(6.1,6.1); } 100% { transform: translate(26.6309px,14.8133px) scale(6.1,6.1); } }
@keyframes a15_t { 0% { transform: translate(49.7px,0px); } 41.1764% { transform: translate(49.7px,0px); animation-timing-function: cubic-bezier(0.42,0,1,1); } 70.5882% { transform: translate(-0.01244px,0px); animation-timing-function: cubic-bezier(0,0,0.58,1); } 100% { transform: translate(31.735288px,0px); } }
@keyframes a16_t { 0% { transform: translate(26.4111px,8.05249px) scale(0,0); } 11.7647% { transform: translate(26.4111px,8.05249px) scale(0,0); animation-timing-function: cubic-bezier(0.25,0,0.09,0.905); } 41.1764% { transform: translate(26.4111px,8.05249px) scale(6.7,6.7); } 100% { transform: translate(26.4111px,8.05249px) scale(6.7,6.7); } }
@keyframes a17_t { 0% { transform: translate(49.7px,0px); } 41.1764% { transform: translate(49.7px,0px); animation-timing-function: cubic-bezier(0.42,0,1,1); } 70.5882% { transform: translate(-0.01244px,0px); animation-timing-function: cubic-bezier(0,0,0.58,1); } 100% { transform: translate(31.735288px,0px); } }
@keyframes a18_t { 0% { transform: translate(26.6859px,1.1268px) scale(0,0); } 17.647% { transform: translate(26.6859px,1.1268px) scale(0,0); animation-timing-function: cubic-bezier(0.25,0,0.215,1); } 41.1764% { transform: translate(26.6859px,1.1268px) scale(10.7,10.7); } 100% { transform: translate(26.6859px,1.1268px) scale(10.7,10.7); } }
    </style>
    <g style="animation: 1.7s 5.5s linear both a1_t;">
        <path d="M23.32,32.7102L13.78,32.7102L10.6,28.4757C14.628,27.2053,18.868,26.5701,23.32,26.3584L23.32,32.7102Z" fill="#D4E6FF" transform="translate(66.6382,29.5343) scale(0,0) translate(-16.96,-29.5343)" style="animation: 1.7s 5.5s linear both a0_t;"/>
    </g>
    <g style="animation: 1.7s 5.5s linear both a3_t;">
        <path d="M39.896,39.2734C39.896,39.5001,40.1229,39.9532,40.1229,40.1798C40.1229,41.9928,38.5346,43.579,36.7194,43.579C36.4925,43.579,36.0387,43.579,35.8118,43.3524C36.2656,45.1652,38.3077,46.0717,40.1229,45.6185C41.9381,45.1652,42.8457,43.1258,42.3919,41.3129C41.9381,40.4065,41.0305,39.5001,39.896,39.2734Z" fill="#D4E6FF" transform="translate(49.7,-0.0549658) scale(0,0)" style="animation: 1.7s 5.5s linear both a2_t;"/>
    </g>
    <g style="animation: 1.7s 5.5s linear both a5_t;">
        <path d="M39.896,39.2734C39.896,39.5001,40.1229,39.9532,40.1229,40.1798C40.1229,41.9928,38.5346,43.579,36.7194,43.579C36.4925,43.579,36.0387,43.579,35.8118,43.3524C36.2656,45.1652,38.3077,46.0717,40.1229,45.6185C41.9381,45.1652,42.8457,43.1258,42.3919,41.3129C41.9381,40.4065,41.0305,39.5001,39.896,39.2734Z" fill="#D4E6FF" transform="translate(63.7296,42.4487) scale(0,0) translate(-39.1597,-42.5037)" style="animation: 1.7s 5.5s linear both a4_t;"/>
    </g>
    <path d="M36.04,39.062L16.96,39.062L16.96,41.1793L36.04,41.1793L36.04,39.062Z" fill="#D4E6FF" clip-path="url(#ClipPath-5)" transform="translate(49.7,0)" style="animation: 1.7s 5.5s linear both a6_t;"/>
    <path d="M50.88,39.062L42.4,39.062L42.4,41.1793L50.88,41.1793L50.88,39.062Z" fill="#D4E6FF" clip-path="url(#ClipPath-6)" transform="translate(49.7,0)" style="animation: 1.7s 5.5s linear both a8_t;"/>
    <path d="M10.8115,39.062L2.33154,39.062L2.33154,41.1793L10.8115,41.1793L10.8115,39.062Z" fill="#D4E6FF" clip-path="url(#ClipPath-4)" transform="translate(49.7,0)" style="animation: 1.7s 5.5s linear both a10_t;"/>
    <path d="M49.6085,34.1923L42.4005,32.7103C39.8565,32.7103,32.6485,24.6647,25.4405,24.2412L23.3205,24.2412C15.4765,24.8764,7.84452,26.7819,0.636521,29.9578C0.0005205,30.3813,-0.211479,31.0165,0.000520516,31.4399C0.000520516,31.4399,0.000520516,31.4399,0.000520516,31.6516L1.48452,33.7689L0.000520516,40.1207C-0.211479,40.7559,0.0005205,41.6028,0.636521,42.238L1.27252,42.8731C1.69652,43.2966,2.12052,43.5083,2.75652,43.5083L8.48052,43.5083C9.11652,46.4725,11.8725,48.1663,14.6285,47.7428C16.7485,47.3194,18.2325,45.6256,18.8685,43.5083L33.9205,43.5083C34.5565,46.4725,37.3125,48.1663,40.0685,47.7428C42.1885,47.3194,43.6725,45.6256,44.3085,43.5083L50.8805,43.5083C52.1525,43.5083,53.0005,42.6614,53.0005,41.391L53.0005,38.4269C53.0005,36.3096,51.5165,34.6158,49.6085,34.1923ZM36.4645,31.8634C36.8885,32.2868,37.3125,32.4985,37.7365,32.7103L25.4405,32.7103L25.4405,26.3585C29.2565,26.5702,33.4965,29.5344,36.4645,31.8634ZM23.3205,32.7103L13.7805,32.7103L10.6005,28.4757C14.6285,27.2054,18.8685,26.5702,23.3205,26.3585L23.3205,32.7103ZM13.7805,45.4138C12.0845,45.4138,10.6005,43.9318,10.6005,42.238C10.6005,40.5441,12.0845,39.0621,13.7805,39.0621C15.4765,39.0621,16.9605,40.5441,16.9605,42.238C16.9605,43.9318,15.4765,45.4138,13.7805,45.4138ZM39.2205,45.4138C37.5245,45.4138,36.0405,43.9318,36.0405,42.238C36.0405,40.5441,37.5245,39.0621,39.2205,39.0621C40.9165,39.0621,42.4005,40.5441,42.4005,42.238C42.4005,43.9318,40.9165,45.4138,39.2205,45.4138ZM50.8805,41.1793L44.3085,41.1793C43.6725,38.2152,40.9165,36.5213,38.1605,36.9448C36.0405,37.3682,34.3445,39.0621,33.9205,41.1793L18.8685,41.1793C18.2325,38.2152,15.4765,36.5213,12.7205,36.9448C10.6005,37.3682,8.90452,39.0621,8.48052,41.1793L2.75652,41.1793L2.12052,40.5441L3.60452,34.4041L3.81652,33.3454L3.39252,32.4985L2.54452,31.4399C3.81652,30.8047,5.72452,30.1695,8.48052,29.3226L12.7205,34.8275L42.1885,34.8275L49.1845,36.3096C50.2445,36.5213,50.8805,37.3682,50.8805,38.4269L50.8805,41.1793Z" fill="#2781FF" transform="translate(49.7,0)" style="animation: 1.7s 5.5s linear both a12_t;"/>
    <path d="M26.4991,13.8667C23.5311,13.8667,20.7751,15.3488,19.0791,17.6778C18.8671,18.1012,18.8671,18.5247,19.2911,18.9481C19.7151,19.1599,20.1391,19.1599,20.5631,18.7364C23.1071,15.3488,27.7711,14.7136,31.1631,17.2543C31.7991,17.6778,32.2231,18.313,32.6471,18.7364C32.8591,19.1599,33.4951,19.1599,33.9191,18.9481C34.3431,18.7364,34.3431,18.1012,34.1311,17.6778C32.2231,15.3488,29.4671,13.8667,26.4991,13.8667Z" fill="#2781FF" clip-path="url(#ClipPath-1)" transform="translate(49.7,0)" style="animation: 1.7s 5.5s linear both a13_t;"/>
    <path d="M37.3115,13.6548C37.5235,14.0782,38.1595,14.0782,38.5835,13.6548C39.0075,13.4431,39.0075,12.8079,38.5835,12.3844C32.6475,5.82092,22.4715,5.18574,15.6875,11.1141C15.2635,11.5375,14.8395,11.961,14.4155,12.5962C14.2035,13.0196,14.2035,13.4431,14.4155,13.8665C14.8395,14.0782,15.2635,14.0782,15.6875,13.8665C20.9875,7.93818,30.1035,7.51473,36.0395,12.5962C36.4635,12.8079,36.8875,13.2313,37.3115,13.6548Z" fill="#2781FF" clip-path="url(#ClipPath-2)" transform="translate(49.7,0)" style="animation: 1.7s 5.5s linear both a15_t;"/>
    <path d="M11.2354,8.57312C19.2914,0.104067,32.8594,-0.10766,41.1274,7.93794C41.3394,8.14967,41.5514,8.36139,41.7634,8.57312C42.1874,8.99657,42.6114,8.99657,43.0354,8.57312C43.4594,8.14967,43.4594,7.72621,43.0354,7.30276C34.3434,-1.80147,19.7154,-2.0132,10.5994,6.66758C10.3874,6.87931,10.1754,7.09104,9.96342,7.30276C9.53942,7.72621,9.75142,8.14967,9.96342,8.57312C10.3874,8.99657,10.8114,8.99657,11.2354,8.57312Z" fill="#2781FF" clip-path="url(#ClipPath-3)" transform="translate(49.7,0)" style="animation: 1.7s 5.5s linear both a17_t;"/>
</svg>
