<svg fill="none" height="69" viewBox="0 0 69 69" width="69" xmlns="http://www.w3.org/2000/svg" xmlns:xlink="http://www.w3.org/1999/xlink"><clipPath id="a"><path d="m0 0h69v69h-69z"/></clipPath><g clip-path="url(#a)"><path d="m52.4396 8.28003v52.43997h-41.4v5.52h46.92v-57.95997z" fill="#cdecf9"/><g fill="#06a0e3"><path d="m57.9598 5.52002h-46.92c-.732 0-1.43403.29078-1.95163.80838-.5176.51761-.80838 1.21962-.80838 1.95162v57.95998c0 .732.29078 1.434.80838 1.9516s1.21963.8084 1.95163.8084h46.92c.732 0 1.434-.2908 1.9516-.8084s.8084-1.2196.8084-1.9516v-57.95998c0-.732-.2908-1.43401-.8084-1.95162-.5176-.5176-1.2196-.80838-1.9516-.80838zm0 60.71998h-46.92v-57.95998h46.92z"/><path d="m34.4996 30.3601c1.3647 0 2.6988-.4047 3.8335-1.1629s2.019-1.8358 2.5413-3.0966c.5222-1.2608.6589-2.6482.3926-3.9867-.2662-1.3384-.9234-2.5679-1.8883-3.5329-.965-.965-2.1945-1.6221-3.533-1.8884-1.3384-.2662-2.7258-.1296-3.9866.3927-1.2608.5222-2.3384 1.4066-3.0966 2.5413s-1.1629 2.4688-1.1629 3.8335c0 1.83.727 3.585 2.021 4.879s3.049 2.021 4.879 2.021zm0-11.04c.8188 0 1.6193.2428 2.3001.6977s1.2114 1.1015 1.5248 1.858c.3133.7564.3953 1.5889.2356 2.3919-.1598.8031-.5541 1.5408-1.1331 2.1198s-1.3166.9733-2.1197 1.133c-.8031.1598-1.6355.0778-2.392-.2356-.7565-.3133-1.4031-.844-1.858-1.5248s-.6977-1.4812-.6977-2.3c.0013-1.0977.4378-2.15 1.214-2.9261.7761-.7761 1.8284-1.2127 2.926-1.2139z"/><path d="m46.7816 46.92c.072-.457.1181-.9178.138-1.38 0-3.294-1.3085-6.4531-3.6377-8.7823s-5.4883-3.6377-8.7823-3.6377-6.4531 1.3085-8.7823 3.6377-3.6377 5.4883-3.6377 8.7823c.0199.4622.066.923.138 1.38zm-12.282-11.04c2.3221.003 4.5658.8411 6.3212 2.3612s2.9056 3.6209 3.2405 5.9188h-19.1235c.3349-2.2979 1.4851-4.3987 3.2405-5.9189 1.7555-1.5201 3.9991-2.3581 6.3213-2.3611z"/><path d="m23.4596 55.1999h22.08c.366 0 .717-.1453.9758-.4041s.4042-.6099.4042-.9759-.1454-.717-.4042-.9758-.6098-.4042-.9758-.4042h-22.08c-.366 0-.717.1454-.9758.4042s-.4042.6098-.4042.9758.1454.7171.4042.9759.6098.4041.9758.4041z"/><path d="m26.2198 2.76h16.56c.366 0 .7171-.14539.9759-.40419s.4041-.60981.4041-.97581-.1453-.717007-.4041-.975807c-.2588-.258801-.6099-.404193-.9759-.404193h-16.56c-.366 0-.717.145392-.9758.404193-.2588.2588-.4042.609807-.4042.975807s.1454.71701.4042.97581.6098.40419.9758.40419z"/></g></g></svg>