<?xml version="1.0" encoding="UTF-8" standalone="no"?>
<!-- Created with Keyshape -->
<svg xmlns="http://www.w3.org/2000/svg" shape-rendering="geometricPrecision" text-rendering="geometricPrecision" viewBox="0 0 200 200" style="white-space: pre;">
    <style>
@keyframes a0_t { 0% { transform: scale(1.81,1.81); } 100% { transform: scale(1.81,1.81); } }
@keyframes a0_o { 0% { opacity: 0; } 55% { opacity: 0; animation-timing-function: cubic-bezier(0.25,0,0.75,1); } 65% { opacity: 1; } 100% { opacity: 1; } }
@keyframes a0_mo { 0% { offset-distance: 0%; } 25% { offset-distance: 15.306%; animation-timing-function: cubic-bezier(0.42,0,1,1); } 65% { offset-distance: 60.81%; animation-timing-function: cubic-bezier(0,0,0.58,1); } 95% { offset-distance: 100%; } 100% { offset-distance: 100%; } }
@keyframes a1_t { 0% { transform: scale(1.81,1.81); } 100% { transform: scale(1.81,1.81); } }
@keyframes a1_o { 0% { opacity: 0; } 50% { opacity: 0; animation-timing-function: cubic-bezier(0.25,0,0.75,1); } 60% { opacity: 1; } 100% { opacity: 1; } }
@keyframes a1_mo { 0% { offset-distance: 0%; } 30% { offset-distance: 16.251%; animation-timing-function: cubic-bezier(0.42,0,1,1); } 70% { offset-distance: 63.649%; animation-timing-function: cubic-bezier(0,0,0.58,1); } 100% { offset-distance: 100%; } }
@keyframes a2_t { 0% { transform: scale(1.81,1.81); } 100% { transform: scale(1.81,1.81); } }
@keyframes a2_o { 0% { opacity: 0; } 45% { opacity: 0; animation-timing-function: cubic-bezier(0.25,0,0.75,1); } 55% { opacity: 1; } 100% { opacity: 1; } }
@keyframes a2_mo { 0% { offset-distance: 0%; } 10% { offset-distance: 12.202%; animation-timing-function: cubic-bezier(0.42,0,1,1); } 50% { offset-distance: 54.847%; animation-timing-function: cubic-bezier(0,0,0.58,1); } 75% { offset-distance: 100%; } 100% { offset-distance: 100%; } }
    </style>
    <g id="wallet-back-2" transform="translate(18.7002,57.0132)">
        <path class="st0" d="M20.3,5.8L121.8,5.8L121.8,17.4L29,17.4C22.6,17.4,17.4,22.6,17.4,29C17.4,31,17.9,32.9,18.9,34.7C10.9,34,5.1,26.9,5.8,19C6.5,11.5,12.8,5.8,20.3,5.8Z" fill="#D4E6FF"/>
        <path class="st1" d="M121.8,0L20.3,0C9.1,0,0,9.1,0,20.3L0,36.8L5.8,36.8L5.8,36.5C5.9,36.6,6,36.8,6.2,36.8L30.9,36.8C27.7,36.8,23.2,34.7,23.2,29C23.2,25.8,25.8,23.2,29,23.2L121.8,23.2L121.8,36.8L127.6,36.8L127.6,5.8C127.6,2.6,124.9,0,121.8,0ZM121.8,17.4L29,17.4C22.6,17.4,17.4,22.6,17.4,29C17.4,31,17.9,32.9,18.9,34.7C11,33.9,5.1,26.9,5.9,18.9C6.6,11.5,12.9,5.8,20.3,5.8L121.8,5.8L121.8,17.4Z" fill="#2781FF"/>
    </g>
    <g opacity="0" style="transform: scale(1.81,1.81); animation: 2s linear infinite both a0_t, 2s linear infinite both a0_o, 2s linear infinite both a0_mo; offset-path: path('M172.417,112.417L207.083,112.417C207.083,112.417,208,37.3333,153,38C108.002,38.5454,99.0833,99.4167,99.0833,99.4167L99.0833,99.4167'); offset-rotate: 0deg;">
        <ellipse class="st0" rx="12.5" ry="12.5" fill="#FFFFFF" transform="translate(0,0) translate(12.5,12.5)"/>
        <g id="budicon-dollar-sign_1_">
            <path class="st1" d="M19.6,3.4C23.5,8.4,22.6,15.6,17.6,19.5C13.4,22.8,7.6,22.8,3.4,19.5C7.3,24.5,14.5,25.4,19.5,21.5C24.5,17.6,25.4,10.4,21.5,5.4C21,4.7,20.3,4,19.6,3.4Z" fill="#D4E6FF"/>
            <path class="st2" d="M12.5,0C5.6,0,0,5.6,0,12.5C0,19.4,5.6,25,12.5,25C19.4,25,25,19.4,25,12.5C25,5.6,19.4,0,12.5,0ZM12.5,24C6.1,24,1,18.9,1,12.5C1,6.1,6.1,1,12.5,1C18.9,1,24,6.1,24,12.5C24,18.8,18.8,24,12.5,24Z" fill="#2781FF"/>
            <path class="st2" d="M14,7L13,7L13,6.5C13,6.2,12.8,6,12.5,6C12.2,6,12,6.2,12,6.5L12,7L11.8,7C10.3,7,9,8.3,9,9.8C9,11,9.8,12.1,10.9,12.5L13.7,13.4C14.7,13.7,15.2,14.8,14.9,15.7C14.7,16.5,14,17,13.2,17L11,17C10.4,17,10,16.6,10,16L10,15.5C10,15.2,9.8,15,9.5,15C9.2,15,9,15.2,9,15.5L9,16C9,17.1,9.9,18,11,18L12,18L12,18.5C12,18.8,12.2,19,12.5,19C12.8,19,13,18.8,13,18.5L13,18L13.2,18C14.8,18,16,16.7,16,15.2C16,14,15.2,12.9,14.1,12.5L11.3,11.6C10.3,11.3,9.8,10.2,10.1,9.3C10.3,8.5,11,8,11.8,8L14,8C14.6,8,15,8.4,15,9L15,9.5C15,9.8,15.2,10,15.5,10C15.8,10,16,9.8,16,9.5L16,9C16,7.9,15.1,7,14,7Z" fill="#2781FF"/>
        </g>
    </g>
    <g opacity="0" style="transform: scale(1.81,1.81); animation: 2s linear infinite both a1_t, 2s linear infinite both a1_o, 2s linear infinite both a1_mo; offset-path: path('M203.75,30.0837L238.416,63.0837C238.416,63.0837,206.301,-15.3529,123,12C78.3333,26.6667,75.0837,101.417,75.0837,101.417'); offset-rotate: 0deg;">
        <ellipse class="st0" rx="12.5" ry="12.5" fill="#FFFFFF" transform="translate(0,0) translate(12.5,12.5)"/>
        <g id="budicon-dollar-sign_1_-3">
            <path class="st1" d="M19.6,3.4C23.5,8.4,22.6,15.6,17.6,19.5C13.4,22.8,7.6,22.8,3.4,19.5C7.3,24.5,14.5,25.4,19.5,21.5C24.5,17.6,25.4,10.4,21.5,5.4C21,4.7,20.3,4,19.6,3.4Z" fill="#D4E6FF"/>
            <path class="st2" d="M12.5,0C5.6,0,0,5.6,0,12.5C0,19.4,5.6,25,12.5,25C19.4,25,25,19.4,25,12.5C25,5.6,19.4,0,12.5,0ZM12.5,24C6.1,24,1,18.9,1,12.5C1,6.1,6.1,1,12.5,1C18.9,1,24,6.1,24,12.5C24,18.8,18.8,24,12.5,24Z" fill="#2781FF"/>
            <path class="st2" d="M14,7L13,7L13,6.5C13,6.2,12.8,6,12.5,6C12.2,6,12,6.2,12,6.5L12,7L11.8,7C10.3,7,9,8.3,9,9.8C9,11,9.8,12.1,10.9,12.5L13.7,13.4C14.7,13.7,15.2,14.8,14.9,15.7C14.7,16.5,14,17,13.2,17L11,17C10.4,17,10,16.6,10,16L10,15.5C10,15.2,9.8,15,9.5,15C9.2,15,9,15.2,9,15.5L9,16C9,17.1,9.9,18,11,18L12,18L12,18.5C12,18.8,12.2,19,12.5,19C12.8,19,13,18.8,13,18.5L13,18L13.2,18C14.8,18,16,16.7,16,15.2C16,14,15.2,12.9,14.1,12.5L11.3,11.6C10.3,11.3,9.8,10.2,10.1,9.3C10.3,8.5,11,8,11.8,8L14,8C14.6,8,15,8.4,15,9L15,9.5C15,9.8,15.2,10,15.5,10C15.8,10,16,9.8,16,9.5L16,9C16,7.9,15.1,7,14,7Z" fill="#2781FF"/>
        </g>
    </g>
    <g opacity="0" style="transform: scale(1.81,1.81); animation: 2s linear infinite both a2_t, 2s linear infinite both a2_o, 2s linear infinite both a2_mo; offset-path: path('M223.416,79.4167L258.083,79.4167C258.083,79.4167,251.333,14.5971,168.333,15C99.6667,15.3333,91.75,103.083,91.75,103.083L91.75,103.083'); offset-rotate: 0deg;">
        <ellipse class="st0" rx="12.5" ry="12.5" fill="#FFFFFF" transform="translate(0,0) translate(12.5,12.5)"/>
        <g id="budicon-dollar-sign_1_-2">
            <path class="st1" d="M19.6,3.4C23.5,8.4,22.6,15.6,17.6,19.5C13.4,22.8,7.6,22.8,3.4,19.5C7.3,24.5,14.5,25.4,19.5,21.5C24.5,17.6,25.4,10.4,21.5,5.4C21,4.7,20.3,4,19.6,3.4Z" fill="#D4E6FF"/>
            <path class="st2" d="M12.5,0C5.6,0,0,5.6,0,12.5C0,19.4,5.6,25,12.5,25C19.4,25,25,19.4,25,12.5C25,5.6,19.4,0,12.5,0ZM12.5,24C6.1,24,1,18.9,1,12.5C1,6.1,6.1,1,12.5,1C18.9,1,24,6.1,24,12.5C24,18.8,18.8,24,12.5,24Z" fill="#2781FF"/>
            <path class="st2" d="M14,7L13,7L13,6.5C13,6.2,12.8,6,12.5,6C12.2,6,12,6.2,12,6.5L12,7L11.8,7C10.3,7,9,8.3,9,9.8C9,11,9.8,12.1,10.9,12.5L13.7,13.4C14.7,13.7,15.2,14.8,14.9,15.7C14.7,16.5,14,17,13.2,17L11,17C10.4,17,10,16.6,10,16L10,15.5C10,15.2,9.8,15,9.5,15C9.2,15,9,15.2,9,15.5L9,16C9,17.1,9.9,18,11,18L12,18L12,18.5C12,18.8,12.2,19,12.5,19C12.8,19,13,18.8,13,18.5L13,18L13.2,18C14.8,18,16,16.7,16,15.2C16,14,15.2,12.9,14.1,12.5L11.3,11.6C10.3,11.3,9.8,10.2,10.1,9.3C10.3,8.5,11,8,11.8,8L14,8C14.6,8,15,8.4,15,9L15,9.5C15,9.8,15.2,10,15.5,10C15.8,10,16,9.8,16,9.5L16,9C16,7.9,15.1,7,14,7Z" fill="#2781FF"/>
        </g>
    </g>
    <g id="wallet-front" transform="translate(18.7002,90.6)">
        <path class="st0" d="M130.4,3.2L30.9,3.2C28.8,3.2,26.1,2.3,24.5,0L18.3,0C18.5,0.4,18.6,0.7,18.8,1L18.8,1C18.8,1,18.8,1,18.8,1C17.4,0.9,16,0.6,14.7,0L0,0L0,93C0,97.8,3.9,101.7,8.7,101.7L130.5,101.7C135.3,101.7,139.2,97.7,139.2,93L139.2,11.9C139.1,7.1,135.3,3.2,130.4,3.2ZM133.3,61.2L110.1,61.2L110.1,43.8L133.3,43.8L133.3,61.2ZM133.3,38L121.7,38L121.7,38L110.1,38C106.9,38,104.3,40.6,104.3,43.8L104.3,61.2C104.3,64.4,106.9,67,110.1,67L133.3,67L133.3,93C133.3,94.6,132,95.9,130.4,95.9L8.7,95.9C7.1,95.9,5.8,94.6,5.8,93L5.8,2.8C5.9,3,6,3,6.1,3.2C9.9,6.9,15,9,20.3,9L130.5,9C132.1,9,133.4,10.3,133.4,11.9L133.4,38Z" fill="#2781FF"/>
        <path class="st0" d="M133.3,11.9L133.3,38L121.7,38L121.7,9L130.4,9C132,9,133.3,10.3,133.3,11.9Z" fill="#2781FF"/>
        <path class="st0" d="M121.8,67L133.4,67L133.4,93C133.4,94.6,132.1,95.9,130.5,95.9L8.7,95.9C7.1,95.9,5.8,94.6,5.8,93L5.8,84.6L118.9,84.6C120.5,84.6,121.8,83.3,121.8,81.7L121.8,67Z" fill="#2781FF"/>
        <rect class="st0" width="23.2" height="17.4" fill="#2781FF" transform="translate(0,0) translate(110.2,43.8)"/>
        <path class="st1" d="M133.3,67L133.3,67L121.7,67L121.7,81.8C121.7,83.4,120.4,84.7,118.8,84.7L5.8,84.7L5.8,2.8C5.9,3,6,3,6.1,3.2C9.9,6.9,15,9,20.3,9L121.8,9L121.8,38L110.2,38C107,38,104.4,40.6,104.4,43.8L104.4,61.2C104.4,64.4,107,67,110.2,67L133.3,67Z" fill="#FFFFFF"/>
        <path class="st1" d="M133.3,11.9L133.3,38L121.7,38L121.7,9L130.4,9C132,9,133.3,10.3,133.3,11.9Z" fill="#FFFFFF"/>
        <path class="st1" d="M121.8,67L133.4,67L133.4,93C133.4,94.6,132.1,95.9,130.5,95.9L8.7,95.9C7.1,95.9,5.8,94.6,5.8,93L5.8,84.6L118.9,84.6C120.5,84.6,121.8,83.3,121.8,81.7L121.8,67Z" fill="#FFFFFF"/>
        <path class="st2" d="M133.3,67L133.3,93C133.3,94.6,132,95.9,130.4,95.9L8.7,95.9C7.1,95.9,5.8,94.6,5.8,93L5.8,84.6L118.9,84.6C120.5,84.6,121.8,83.3,121.8,81.7L121.8,67L133.3,67Z" fill="#D4E6FF"/>
        <path class="st2" d="M133.3,11.9L133.3,38L121.7,38L121.7,9L130.4,9C132,9,133.3,10.3,133.3,11.9Z" fill="#D4E6FF"/>
        <rect class="st1" width="23.2" height="17.4" fill="#FFFFFF" transform="translate(0,0) translate(110.2,43.8)"/>
    </g>
</svg>
