<svg height="22" viewBox="0 0 224 22" width="224" xmlns="http://www.w3.org/2000/svg"><g fill="#fff"><path d="m15.7083095 15.6771983c1.7692052-1.7733935 1.7692052-4.6358895 0-6.40928303l-7.96169382-7.94511355c-1.7744351-1.76373563-4.6483491-1.76373563-6.4227842 0-1.76510864 1.77507276-1.76510864 4.63421025 0 6.40928301l7.96169383 7.94511357c1.77443509 1.7637356 4.64834909 1.7637356 6.42278419 0zm23.967859-14.35439658c-1.7761431-1.75962091-4.646641-1.75962091-6.4227842 0l-4.8424858 4.8359932-4.8462484-4.8359932c-1.7761431-1.75962091-4.6466411-1.75962091-6.4227842 0-1.7651086 1.77507276-1.7651086 4.63421025 0 6.40928301l7.9616938 7.94885947c1.8519525 1.7528599 4.7589625 1.7528599 6.610915 0l7.9616938-7.94885947c1.7651087-1.77507276 1.7651087-4.63421025 0-6.40928301z"/><path d="m48 .63889369h4.7310407l2.3976144 9.36663781h.0717396l2.2126017-9.36663781h4.659301l2.1672924 9.34001729h.0717397l2.3900628-9.34001729h4.7272649l-5.1350481 16.70630941h-4.0325231l-2.4466995-10.16525496h-.049085l-2.5864029 10.16525496h-4.0287474zm23.2700749 11.92981851v-6.75401903h4.1533478v5.74243733c0 1.6466724.4417651 2.3273985 1.4914294 2.3273985.8835303 0 1.5593933-.7035437 1.5593933-2.2817632v-5.78807263h4.1722266v11.53050993h-4.1760024v-1.2245462l-.0453092-.0228177c-.7543832.9576317-1.9090642 1.5060789-3.1225624 1.4831461-2.3296505 0-4.0325231-1.2701815-4.0325231-5.0122731zm13.1510093-6.75401903h4.1533478v1.22454624h.0453093c.8008976-.94768068 1.9815562-1.48363735 3.2169566-1.46032843 2.3069959 0 4.0551778 1.06101988 4.0551778 4.80311152v6.9631806h-4.1533478v-5.9363872c0-1.65047536-.4681956-2.09541918-1.4914295-2.09541918-1.0232338 0-1.646236.66551426-1.646236 2.24373378v5.7880726h-4.1533478zm21.1707468-5.7880726v6.91754538l-.04531.02281763c-.765816-.89066681-1.881049-1.39807922-3.050822-1.3880726-2.8695861 0-5.0595331 2.44909248-5.0595331 6.00103712 0 3.5519447 2.1672924 6.0010372 5.3125091 6.0010372 1.306417 0 2.306996-.4259291 3.020617-1.2968021h.045309v1.0610199h3.930577v-17.31858253zm-1.933195 13.88452893c-1.162937 0-2.027589-.9203111-2.027589-2.3312014 0-1.4108902.864652-2.30458077 2.027589-2.30458077s2.099329.93932587 2.099329 2.30458077c0 1.365255-.898634 2.3312014-2.110656 2.3312014zm19.30174-2.4262748c0-3.45687124-2.4467-5.90596372-5.73162-5.90596372-3.451055 0-5.920409 2.51754537-5.920409 6.00103712 0 3.5519447 2.563749 6.0010372 5.988373 6.0010372 2.643039 0 4.334585-.8480553 5.286079-2.0231633l-2.235256-2.4947278c-.647685.7468389-1.579331 1.1821555-2.563749 1.1979257-1.257331 0-2.216377-.5400173-2.40139-1.6466724h7.479802c.057218-.3739228.090012-.7512244.09817-1.1294728zm-7.574196-1.1408816c.116468-.91211076.903682-1.58465646 1.816146-1.55159898.90996 0 1.540514.56283492 1.725527 1.55159898zm9.16002-4.52929993h4.172226v1.5554019h.045309c.692724-1.09430973 1.883339-1.76670781 3.171648-1.79118409h.022654v4.49507342c-.351146-.0228176-.698517-.0228176-.887306-.0228176-1.608478 0-2.352305.9165082-2.352305 2.2589456v5.0350907h-4.172226zm13.030184-5.17960242h4.474289l4.153347 8.30561798h.049085l4.092936-8.30561798h4.496943v16.70630945h-4.379894v-8.21434748h-.07174l-2.771416 5.19861708h-2.8205l-2.771416-5.24805528h-.07174v8.26378568h-4.379894zm19.037436 10.94105445c0-3.55194468 2.559973-6.00103716 6.26778-6.00103716 3.707806 0 6.245124 2.44909248 6.245124 6.00103716 0 3.5519447-2.586403 6.0010372-6.245124 6.0010372-3.658722 0-6.26778-2.4490925-6.26778-6.0010372zm8.306696 0c0-1.3424373-.838221-2.28176318-2.050244-2.28176318-1.212022 0-2.072898.93932588-2.072898 2.28176318s.88353 2.3045808 2.072898 2.3045808 2.061571-.9507346 2.061571-2.3045808zm9.767919 4.6814175-.04531.0228176v1.0610199h-3.957007v-17.31858257h4.172226v6.94036301h.045309c.763819-.89553448 1.882534-1.40390166 3.054599-1.3880726 2.86581 0 5.055757 2.44909248 5.055757 6.00103716 0 3.5519447-2.189947 6.0010372-5.304958 6.0010372-1.313968 0-2.340978-.4259292-3.020616-1.3196197zm4.153347-4.6814175c0-1.365255-.860875-2.30458081-2.027589-2.30458081-1.234677 0-2.121983.93932581-2.121983 2.30458081s.887306 2.3312014 2.121983 2.3312014c1.144059 0 2.004935-.9203112 2.004935-2.3312014zm5.546608-9.34001728c0-1.24736387 1.000579-2.23612792 2.382511-2.23612792s2.378735.96594641 2.378735 2.23612792c.008579.62790746-.243174 1.23098161-.69466 1.66406224s-1.061813.65694212-1.684075.61770094c-.620849.03235178-1.227618-.19368825-1.678139-.62515838-.450521-.43147014-.705203-1.03045273-.704372-1.6566048zm.279407 3.57476231h4.153347v11.53050997h-4.153347zm6.407482-5.7880726h4.153348v17.31858257h-4.153348zm6.128076 2.21331029c0-1.24736387 1.00058-2.23612792 2.405166-2.23612792 1.404587 0 2.378736.96594641 2.378736 2.23612792.008578.62790746-.243174 1.23098161-.69466 1.66406224s-1.061814.65694212-1.684076.61770094c-.624655.0388727-1.237448-.1842538-1.693021-.61645287-.455574-.43219907-.713336-1.03496187-.712145-1.66531031zm.279407 3.57476231h4.153348v11.53050997h-4.153348zm6.754854 7.90630947v-4.56352641h-1.230901v-3.34278306h1.234677v-3.62420052l4.153348-.42212618v4.0463267h2.469354v3.34278306h-2.469354v3.66983581c0 .5400173.071739 1.1408816.755154 1.1408816.286221-.0096376.569126-.0648288.838221-.1635264l1.030785 2.9320657c-1.010031.6097872-2.176649.9048636-3.352884.8480553-1.93697-.0038029-3.4284-1.2283492-3.4284-3.8637856zm11.791732 2.7761452-4.338361-10.68245467h4.451634l1.861455 5.43439927h.07174l1.816145-5.43439927h4.108039l-5.848669 16.18910977h-4.055178z"/></g></svg>