<svg height="17" viewBox="0 0 205 17" width="205" xmlns="http://www.w3.org/2000/svg"><path d="m47.1805996.59636749h4.7472464l2.4153322 9.05595072h.0682512l2.2257457-9.05595072h4.6903704l2.180245 9.03386304h.0682511l2.4153323-9.03386304h4.7586215l-5.1719202 16.15714131h-4.0571514l-2.4570413-9.83270093h-.0455007l-2.6049188 9.83270093h-4.0533597zm23.4063514 11.55185911v-6.54531725h4.1709034v5.55137145c0 1.5939945.4436325 2.2529438 1.4977335 2.2529438.8910566 0 1.5735681-.6810369 1.5735681-2.2087685v-5.59554675h4.1936538v11.15059945h-4.1898621v-1.1853724l-.0492925-.0220877c-.7587591.9275796-1.9197279 1.458484-3.1395527 1.4356995-2.3432894 0-4.0571515-1.2295477-4.0571515-4.8335216zm13.2293472-6.54531725h4.1936538v1.18169113h.0492925c.8065178-.91614565 1.9932473-1.43347007 3.2343459-1.40993054 2.320539 0 4.0761102 1.02339606 4.0761102 4.64209506v6.7367438h-4.1936538v-5.7575231c0-1.59399458-.4701746-2.02470443-1.5166921-2.02470443-1.0465176 0-1.6645697.65894926-1.6645697 2.18299953v5.599228h-4.1784868zm21.2829828-5.60290935v6.69256846l-.045501.02576897c-.772266-.86430945-1.896631-1.35560311-3.075093-1.34366749-2.8817155 0-5.0847108 2.36706355-5.0847108 5.80169856 0 3.4346349 2.1802449 5.8053797 5.3425478 5.8053797 1.311939 0 2.320539-.4123034 3.033384-1.2516354h.045501v1.023396h3.981317v-16.7535088zm-1.945158 13.4293123c-1.171645 0-2.039951-.8871887-2.039951-2.2529438 0-1.36575521.864515-2.2308562 2.039951-2.2308562s2.111994.91295764 2.111994 2.2308562c0 1.3178985-.891057 2.2529438-2.111994 2.2529438zm19.425035-2.3412946c0-3.34628421-2.460833-5.71334776-5.767222-5.71334776-3.465642 0-5.953017 2.4333266-5.953017 5.80169856 0 3.4383162 2.578377 5.8053797 6.02506 5.8053797 2.654211 0 4.360489-.8209256 5.308422-1.9584413l-2.248496-2.4112389c-.651888.7231335-1.588687 1.1444511-2.578377 1.1596034-1.266438 0-2.225745-.5227419-2.415332-1.5939946h7.522793c.059846-.3605809.095312-.7245791.106169-1.0896591zm-7.617587-1.10438422c.111589-.88937267.905353-1.54809632 1.827614-1.51668768.913807 0 1.547026.54482956 1.736613 1.50196256zm9.213905-4.36968029h4.197445v1.49091872h.045501c.698237-1.05797991 1.894833-1.70722827 3.188845-1.73020197h.022751v4.34759261c-.352631-.02208769-.705262-.02208769-.891057-.02208769-1.619069 0-2.36604.88718864-2.36604 2.18299954v4.8703344h-4.197445zm9.373157 8.77985471 1.782114-2.1167365c1.03156 1.2809006 2.592153 2.0553027 4.265696 2.1167365 1.827614 0 2.767963-.773069 2.767963-1.9584414 0-1.4099306-1.103393-1.8664094-3.211595-2.57689656-2.532876-.86510099-5.03921-1.95844138-5.03921-4.91819113 0-2.52535862 2.38879-4.50588768 5.274297-4.50588768 2.015122.02615242 3.959429.72557899 5.505593 1.98052906l-1.68732 2.16091182c-1.35744-1.10438423-2.695921-1.66025763-3.818273-1.66025763-1.289188 0-2.320539.68471823-2.347081 1.88849704-.026542 1.20377882 1.103394 1.59399458 3.120594 2.34497586 2.858965 1.10438423 5.156753 1.84064039 5.156753 4.95868522 0 3.3462842-3.071301 4.8482468-5.744471 4.8482468-2.288673-.0109309-4.47024-.9426464-6.02506-2.5732153zm13.858775-14.3938079h2.623877v7.03124629h.026542c1.010339-1.03040895 2.425779-1.5929508 3.890316-1.54613792 2.506333 0 4.265696 1.29581083 4.265696 4.62000733v6.6447119h-2.627669v-5.9857626c0-2.20876846-.913807-2.98183743-2.483583-2.98183743-1.895865 0-3.071302 1.13751577-3.071302 3.31315273v5.6544473h-2.623877zm12.660587 12.402235v-6.75883156h2.62767v6.07779456c0 2.2087685.70147 2.8898054 2.275038 2.8898054s2.931007-1.2516354 2.931007-3.6407867v-5.32681326h2.627669v11.10642416h-2.627669v-1.3878429l-.0455-.0220877c-.856945 1.0174384-2.142282 1.6034896-3.495976 1.5939946-2.532876 0-4.292239-1.2332291-4.292239-4.5316566zm13.327933.8503758v-5.44829554h-1.406732v-2.16091182h1.406732v-3.68128078l2.623877-.27609606v3.95737684h3.35189v2.16091182h-3.35189v5.19060594c0 1.1375157.352631 1.5461379 1.103394 1.5461379.593075-.0302127 1.170762-.1940593 1.68732-.4785665l.678719 2.2087685c-.882997.4859153-1.89097.7158763-2.904465.6626305-1.9717 0-3.188845-1.2074601-3.188845-3.6812808zm8.611019 0v-5.44829554h-1.406732v-2.16091182h1.406732v-3.68128078l2.631461-.27977734v3.96105812h3.35189v2.16091182h-3.35189v5.19060594c0 1.1375157.348839 1.5461379 1.099602 1.5461379.593287-.0289963 1.171258-.1929233 1.68732-.4785665l.682511 2.2087685c-.885202.4872928-1.896013.7173007-2.912049.6626305-1.967908 0-3.188845-1.2074601-3.188845-3.6812808zm7.610003-13.2526108h2.623877v16.7498276h-2.623877zm15.314799 12.0377882h-8.341807c.329881 1.6160822 1.569776 2.5768965 3.35189 2.5768965 1.122742.0309424 2.195337-.4515687 2.896882-1.3031734l1.827614 1.5240503c-.978267 1.2074601-2.407749 2.09833-4.860999 2.09833-3.469433 0-5.930266-2.2529438-5.930266-5.7354355 0-3.41254725 2.392582-5.70966645 5.744472-5.70966645 3.219179-.00368128 5.380465 2.34129457 5.380465 5.55505265-.002135.3323466-.024927.6642652-.068251.9939459zm-8.296306-2.0026168h5.717929c-.32988-1.34366747-1.266438-2.25294383-2.767963-2.25294383-1.42026-.05575302-2.671319.89970413-2.949966 2.25294383zm-180.8655375 5.6581286c1.7746617-1.7460758 1.7746617-4.5525956 0-6.29867144l-7.99296761-7.80799654c-1.78251439-1.72223884-4.66342721-1.72223884-6.44594159 0-1.77466173 1.74607581-1.77466173 4.55259561 0 6.29867142l7.99296757 7.80799656c.85435233.8362956 2.01733313 1.3067 3.23055423 1.3067 1.2132212 0 2.3762019-.4704044 3.2305543-1.3067zm24.198823-14.10666798c-1.7924826-1.73010632-4.6875845-1.73010632-6.4800672 0l-4.8913321 4.75253349-4.8875404-4.75253349c-1.7924826-1.73010632-4.6875846-1.73010632-6.4800672 0-1.7812709 1.74487312-1.7812709 4.55747957 0 6.3023527l8.0346766 7.80799658c1.8688278 1.7235477 4.8008259 1.7235477 6.6696537 0l8.0346766-7.80799658c1.781271-1.74487313 1.781271-4.55747958 0-6.3023527z" fill="#fff"/></svg>