<svg fill="none" height="18" viewBox="0 0 211 18" width="211" xmlns="http://www.w3.org/2000/svg"><path d="m47.9566.629614h4.9039l2.4906 9.602586h.0696l2.2973-9.602586h4.8304l2.247 9.579386h.0696l2.4907-9.579386h4.9l-5.3216 17.138586h-4.1768l-2.5371-10.42914h-.0502l-2.6802 10.42914h-4.1768zm24.1405 12.233086v-6.92579h4.2968v5.88669c0 1.6919.4602 2.391 1.547 2.391.9165 0 1.6204-.7262 1.6204-2.3408v-5.93689h4.3238v11.83129h-4.3238v-1.263l-.0503-.0232c-.3866.4843-.8797.8732-1.441 1.1364-.5614.2633-1.176.3939-1.796.3816-2.4056 0-4.1769-1.3017-4.1769-5.1373zm13.6289-6.92579h4.3238v1.25537h.0619c.4092-.48038.9203-.86376 1.4962-1.12232.576-.25855 1.2023-.38581 1.8337-.37253 2.3939 0 4.2039 1.0854 4.2039 4.92107v7.1497h-4.3354v-6.1107c0-1.68797-.4835-2.14763-1.547-2.14763s-1.7133.69913-1.7133 2.31763v5.9407h-4.3238zm21.936-5.93691v7.09571l-.05.02704c-.392-.45258-.878-.81449-1.425-1.06062-.546-.24613-1.139-.37058-1.739-.3647-2.97 0-5.2401 2.51072-5.2401 6.15317 0 3.6425 2.2431 6.1494 5.5071 6.1494 1.35 0 2.39-.4326 3.113-1.3249h.051v1.0931h4.103v-17.7682zm-2.007 14.2339c-1.207 0-2.1-.9425-2.1-2.3871 0-1.4447.893-2.36397 2.1-2.36397s2.173.96177 2.173 2.36397c0 1.4021-.916 2.391-2.173 2.391zm20.037-2.4798c0-3.54595-2.537-6.05667-5.94-6.05667-3.578 0-6.138 2.58025-6.138 6.15317 0 3.6425 2.657 6.1494 6.188 6.1494 2.73 0 4.494-.8691 5.484-2.0742l-2.32-2.5571c-.332.3795-.74.6852-1.198.8975-.458.2122-.955.3262-1.459.3347-1.308 0-2.298-.5563-2.491-1.6919h7.758c.064-.382.103-.7678.116-1.1549zm-7.851-1.182c.059-.4525.284-.86683.633-1.16192.348-.29508.794-.44962 1.251-.43336.943 0 1.597.5794 1.79 1.59528zm9.495-4.63519h4.324v1.59528h.05c.351-.5499.833-1.00492 1.402-1.3249.57-.31998 1.209-.49509 1.862-.50986h.023v4.60817c-.359-.0232-.723-.0232-.916-.0232-1.667 0-2.441.9386-2.441 2.3176v5.1682h-4.323zm10.055 9.30899 1.837-2.2442c.525.6709 1.19 1.2193 1.949 1.607.759.3876 1.593.6051 2.445.6372 1.887 0 2.85-.8189 2.85-2.0742 0-1.4949-1.133-1.9777-3.307-2.7502-2.61-.91549-5.194-2.07429-5.194-5.21077 0-2.67682 2.464-4.778112 5.434-4.778112 2.078.027356 4.083.769482 5.677 2.101292l-1.74 2.29055c-1.4-1.15879-2.777-1.76137-3.937-1.76137-1.326 0-2.39.72618-2.413 2.00472s1.133 1.68798 3.21 2.48369c2.947 1.1588 5.314 1.95451 5.314 5.2571 0 3.5498-3.164 5.1412-5.918 5.1412-1.168.0009-2.325-.2388-3.397-.704s-2.036-1.146-2.833-1.9999zm14.259-15.2459h2.708v7.45494h.023c.515-.54034 1.138-.96589 1.83-1.2488.691-.28291 1.434-.41677 2.18-.39283 2.584 0 4.398 1.3751 4.398 4.89789v7.057h-2.708v-6.3579c0-2.34077-.939-3.15966-2.56-3.15966-1.957 0-3.163 1.20515-3.163 3.52276v5.9948h-2.708zm13.049 13.133v-7.14974h2.707v6.43904c0 2.3408.724 3.067 2.344 3.067 1.621 0 3.021-1.3288 3.021-3.8627v-5.64334h2.707v11.78494h-2.707v-1.4832l-.051-.0232c-.436.5318-.986.9593-1.609 1.2514s-1.303.4413-1.991.4366c-2.611 0-4.421-1.3056-4.421-4.8168zm13.73.8923v-5.75148h-1.447v-2.29056h1.447v-3.90901l2.707-.2897v4.19871h3.453v2.29056h-3.453v5.50038c0 1.2091.36 1.6417 1.133 1.6417.611-.0323 1.207-.2055 1.74-.506l.7 2.3407c-.91.5138-1.949.7564-2.993.6992-2.03 0-3.287-1.2786-3.287-3.909zm8.875 0v-5.75148h-1.45v-2.29056h1.45v-3.90901l2.708-.2897v4.19871h3.453v2.29056h-3.453v5.50038c0 1.2091.359 1.6417 1.133 1.6417.611-.0329 1.207-.206 1.74-.506l.7 2.3407c-.91.5138-1.949.7564-2.993.6992-2.031 0-3.288-1.2786-3.288-3.909zm7.84-14.0253h2.707v17.7682h-2.707zm15.783 12.7468h-8.598c.337 1.7111 1.617 2.727 3.454 2.727.568.0145 1.131-.102 1.646-.3405s.969-.5926 1.324-1.0346l1.884 1.6146c-.99 1.2785-2.464 2.221-5.001 2.221-3.573 0-6.11-2.391-6.11-6.0798 0-3.61931 2.463-6.05665 5.921-6.05665 3.306 0 5.553 2.4837 5.553 5.90985-.003.3475-.028.6945-.073 1.0391zm-8.551-2.1245h5.894c-.337-1.42144-1.303-2.38711-2.85-2.38711-.711-.02723-1.408.19982-1.966.64027-.558.44046-.94 1.0654-1.078 1.76234zm-186.2872 5.9871c.4297-.4188.7711-.9192 1.0042-1.4718s.3532-1.1461.3532-1.7458c0-.5996-.1201-1.1931-.3532-1.7457s-.5745-1.053-1.0042-1.4719l-8.15255-7.97248c-.88289-.84971-2.06123-1.324456-3.28732-1.324456s-2.40443.474746-3.28733 1.324456c-.429758.41915-.77126.9199-1.00442 1.4728-.233161.5529-.35327375 1.14679-.35327375 1.74672 0 .59994.12011275 1.19383.35327375 1.74673.23316.55289.574662 1.05365 1.00442 1.4728l8.1487 7.96863c.8831.8509 2.0622 1.3264 3.2893 1.3264 1.227 0 2.4061-.4755 3.2892-1.3264zm24.5467-14.40382c-.8829-.8497-2.0612-1.324453-3.2873-1.324453s-2.4045.474753-3.2874 1.324453l-4.9658 4.8515-4.9619-4.8515c-.8829-.8497-2.0612-1.324453-3.2873-1.324453s-2.4044.474753-3.2873 1.324453c-.4287.41936-.7693.91997-1.0018 1.47247-.2325.55251-.3523 1.1458-.3523 1.74513 0 .59932.1198 1.19262.3523 1.74512.2325.55251.5731 1.05311 1.0018 1.47247l8.1525 7.96863c.9212.8536 2.1313 1.3279 3.3879 1.3279s2.4667-.4743 3.3879-1.3279l8.1564-7.97635c.427-.41975.766-.92028.9972-1.47235.2311-.55207.3498-1.14461.3491-1.74301-.0008-.59839-.1209-1.19065-.3533-1.74216-.2325-.55151-.5727-1.05123-1.0007-1.46995z" fill="#fff"/></svg>