<svg width="176" height="18" viewBox="0 0 176 18" fill="none" xmlns="http://www.w3.org/2000/svg">
<g clip-path="url(#clip0)">
<path d="M164.77 12.6458L165.836 11.0627C166.573 11.7684 167.387 12.1308 168.531 12.1308C169.345 12.1308 169.829 11.7684 169.829 11.2343C169.829 10.7575 169.228 10.5477 168.007 10.1281C166.476 9.59401 165.158 8.92643 165.158 7.11444C165.158 5.60763 166.534 4.52044 168.434 4.52044C169.616 4.52044 170.682 4.84469 171.709 5.66485L170.643 7.32425C169.907 6.6376 169.034 6.3515 168.317 6.3515C167.891 6.3515 167.309 6.58038 167.309 7.13352C167.309 7.59128 167.891 7.89646 168.783 8.23978C170.76 9.00272 172 9.36512 172 11.1962C172 12.7411 170.895 13.9809 168.531 13.9809C167.019 13.9809 165.739 13.485 164.77 12.6458ZM157.231 8.27793H161.882C161.611 7.17166 160.855 6.40872 159.634 6.40872C158.452 6.42779 157.541 7.07629 157.231 8.27793ZM163.976 9.93733H157.192C157.463 11.2725 158.471 12.0545 159.925 12.0545C161.03 12.0545 161.785 11.5586 162.27 10.9864L163.762 12.2452C162.987 13.2371 161.824 13.9809 159.808 13.9809C156.979 13.9809 154.982 12.1117 154.982 9.25068C154.982 6.42779 156.92 4.53951 159.653 4.53951C162.27 4.53951 164.034 6.46594 164.034 9.13624C164.034 9.46049 163.995 9.78474 163.976 9.93733ZM151.241 0H153.373V13.8283H151.241V0ZM141.279 9.25068C141.279 6.42779 143.275 4.52044 146.105 4.52044C147.559 4.52044 149.09 5.09264 150.02 6.23706L148.567 7.47684C148.024 6.86649 147.229 6.42779 146.221 6.42779C144.554 6.42779 143.45 7.57221 143.45 9.25068C143.45 10.9482 144.574 12.0736 146.221 12.0736C147.249 12.0736 148.082 11.6158 148.567 11.0055L150.04 12.2834C149.264 13.2752 148.063 14 146.027 14C143.275 13.9809 141.279 12.0545 141.279 9.25068ZM137.654 4.65395H139.786V13.8093H137.654V4.65395ZM137.286 1.88828C137.286 1.14441 137.926 0.495913 138.72 0.495913C139.515 0.495913 140.174 1.12534 140.174 1.88828C140.174 2.65123 139.534 3.29973 138.72 3.29973C137.906 3.29973 137.286 2.6703 137.286 1.88828ZM126.897 0H129.029V5.79837H129.048C129.824 4.95913 130.948 4.52044 132.208 4.52044C134.243 4.52044 135.677 5.58856 135.677 8.33515V13.8093H133.545V8.88828C133.545 7.05722 132.809 6.42779 131.529 6.42779C129.979 6.42779 129.029 7.3624 129.029 9.17439V13.8283H126.897V0ZM118.563 8.27793H123.214C122.943 7.17166 122.187 6.40872 120.966 6.40872C119.784 6.42779 118.873 7.07629 118.563 8.27793ZM125.308 9.93733H118.504C118.776 11.2725 119.784 12.0545 121.237 12.0545C122.342 12.0545 123.098 11.5586 123.583 10.9864L125.075 12.2452C124.3 13.2371 123.137 13.9809 121.121 13.9809C118.291 13.9809 116.295 12.1117 116.295 9.25068C116.295 6.42779 118.233 4.53951 120.966 4.53951C123.583 4.53951 125.346 6.46594 125.346 9.13624C125.366 9.46049 125.327 9.78474 125.308 9.93733ZM104.665 0.495913H107.146L110.751 10.5668H110.771L114.357 0.495913H116.818L111.759 13.8283H109.705L104.665 0.495913ZM31.4577 1.52589C30.0428 0.152589 27.7557 0.152589 26.3602 1.52589L22.5224 5.32153L18.6653 1.52589C17.2698 0.152589 14.9633 0.152589 13.5677 1.52589C12.1722 2.89918 12.1722 5.16894 13.5677 6.54223L19.8864 12.7793C20.6036 13.485 21.5533 13.8283 22.503 13.8093C23.4528 13.8283 24.4025 13.485 25.1197 12.7793L31.4384 6.56131C32.8533 5.16894 32.8533 2.89918 31.4577 1.52589ZM12.4242 12.7602C13.8197 11.3869 13.8197 9.11717 12.4242 7.74387L6.12486 1.52589C4.72932 0.152589 2.44219 0.152589 1.04665 1.52589C-0.348884 2.89918 -0.348884 5.16894 1.04665 6.54223L7.34595 12.7602C8.74149 14.1526 11.0286 14.1526 12.4242 12.7602ZM97.6682 4.73025H100.963V5.91281H101.002C101.642 4.99728 102.553 4.53951 103.502 4.53951H103.522V8.0109C103.25 7.99183 102.96 7.99183 102.824 7.99183C101.545 7.99183 100.963 8.69755 100.963 9.72752V13.6185H97.6682V4.73025ZM90.4192 8.20164C90.5743 7.43869 91.117 7 91.8535 7C92.5706 7 93.0746 7.43869 93.2103 8.20164H90.4192ZM96.4084 9.09809C96.4084 6.42779 94.4701 4.53951 91.8729 4.53951C89.14 4.53951 87.1823 6.48501 87.1823 9.17439C87.1823 11.921 89.2175 13.8093 91.9117 13.8093C93.9856 13.8093 95.3423 13.1608 96.0983 12.2452L94.3345 10.3188C93.6561 11.0436 92.8808 11.2534 92.2993 11.2534C91.3108 11.2534 90.5549 10.8338 90.3998 9.97548H96.3115C96.389 9.74659 96.4084 9.3079 96.4084 9.09809ZM81.135 10.9673C80.2046 10.9673 79.5263 10.2616 79.5263 9.17439C79.5263 8.12534 80.2046 7.40055 81.135 7.40055C82.0847 7.40055 82.8019 8.12534 82.8019 9.17439C82.8019 10.2616 82.1041 10.9673 81.135 10.9673ZM82.6662 0.26703V5.60763L82.6274 5.6267C82.0072 4.92098 81.135 4.55858 80.2046 4.55858C77.9369 4.55858 76.2119 6.44687 76.2119 9.19346C76.2119 11.9401 77.9175 13.8283 80.4178 13.8283C81.4451 13.8283 82.2398 13.5041 82.8019 12.8365H82.8407V13.6567H85.9806V0.305177H82.6662V0.26703ZM65.9391 4.73025H69.2342V5.66485H69.2729C69.9319 4.90191 70.8429 4.53951 71.812 4.53951C73.634 4.53951 75.0101 5.35967 75.0101 8.23978V13.6185H71.7151V9.0218C71.7151 7.74387 71.3469 7.40055 70.5328 7.40055C69.7381 7.40055 69.2148 7.93461 69.2148 9.13624V13.5995H65.9198V4.73025H65.9391ZM55.5308 9.93733V4.73025H58.8064V9.15531C58.8064 10.4332 59.1553 10.9482 59.9887 10.9482C60.6865 10.9482 61.2292 10.3951 61.2292 9.19346V4.73025H64.5242V13.6185H61.2292V12.6839L61.1904 12.6649C60.5702 13.4278 59.698 13.8093 58.7289 13.8093C56.8682 13.7902 55.5308 12.8174 55.5308 9.93733ZM37.1174 0.724796H40.8582L42.7577 7.95368H42.8159L44.5603 0.724796H48.243L49.9486 7.9346H50.0068L51.9062 0.724796H55.6471L51.5767 13.5995H48.3786L46.4404 5.76022H46.4016L44.3858 13.6185H41.1877L37.1174 0.724796Z" fill="white"/>
</g>
<defs>
<clipPath id="clip0">
<rect width="176" height="18" fill="white"/>
</clipPath>
</defs>
</svg>
