<svg width="114" height="15" viewBox="0 0 114 15" fill="none" xmlns="http://www.w3.org/2000/svg">
<path d="M0 0.583984H3.00733L5.77579 10.1797H5.81458L8.3605 0.583984H11.329L13.8341 10.1674H13.8954L16.6618 0.583984H19.6691L15.1775 14.8183H12.5724L9.8856 4.6938H9.84477L7.09877 14.8183H4.4916L0 0.583984Z" fill="#1F1F1F"/>
<path d="M19.5977 10.9286V5.00781H22.2048V10.2405C22.2048 12.0249 22.7459 12.6272 23.9688 12.6272C25.1121 12.6272 26.1329 11.6656 26.1329 9.78116V5.01394H28.7871V14.8138H26.1329V13.6521L26.0941 13.6317C25.7463 14.0616 25.3063 14.4077 24.8065 14.6445C24.3068 14.8813 23.7602 15.0026 23.2073 14.9996C21.0819 14.9996 19.5977 13.9114 19.5977 10.9286Z" fill="#1F1F1F"/>
<path d="M30.7144 5.01404H33.3399V6.27782H33.3807C33.7666 5.82805 34.247 5.46909 34.7877 5.22662C35.3284 4.98415 35.916 4.86415 36.5085 4.87521C38.593 4.87521 40.0569 5.99811 40.0569 9.00545V14.818H37.4293V9.66693C37.4293 7.80088 36.7678 7.21697 35.5449 7.21697C34.2219 7.21697 33.3399 8.13775 33.3399 9.90172V14.8139H30.7144V5.01404Z" fill="#1F1F1F"/>
<path d="M41.5166 9.94704C41.5166 6.98054 43.5235 4.87562 46.1491 4.87562C46.7071 4.85719 47.2624 4.96219 47.7752 5.18312C48.2879 5.40405 48.7456 5.73545 49.1156 6.15368H49.1564V0.0634766H51.7636V14.8184H49.2564V13.6159H49.236C48.5541 14.4979 47.5333 15.0001 46.2083 15.0001C43.5031 15.0001 41.5166 12.9748 41.5166 9.94704ZM49.2564 9.96746C49.2564 8.38315 48.1948 7.22146 46.6901 7.22146C45.2875 7.22146 44.185 8.28311 44.185 9.96746C44.185 11.5314 45.2263 12.6338 46.6901 12.6338C48.154 12.6338 49.2564 11.5722 49.2564 9.96746Z" fill="#1F1F1F"/>
<path d="M62.7293 10.7696H55.8531C56.1736 11.9518 57.1148 12.6541 58.4378 12.6541C58.8941 12.6691 59.3475 12.5772 59.7619 12.3858C60.1763 12.1944 60.5402 11.9087 60.8245 11.5516L62.5293 13.1339C61.7126 14.1976 60.4427 14.9999 58.2582 14.9999C55.2508 14.9999 53.1255 12.9746 53.1255 9.89583C53.1255 6.90891 55.1916 4.86523 58.0989 4.86523C60.8653 4.86523 62.7947 6.94975 62.7947 9.8162C62.7886 10.1469 62.7498 10.6084 62.7293 10.7696ZM55.8735 8.88522H60.1834C59.9221 7.84194 59.2218 7.16003 58.0785 7.16003C57.0148 7.16003 56.1737 7.76232 55.8735 8.88522Z" fill="#1F1F1F"/>
<path d="M64.2319 5.01414H66.8595V6.44329H66.8983C67.2305 5.9675 67.6711 5.57755 68.1837 5.30562C68.6963 5.0337 69.2662 4.8876 69.8464 4.87939H70.0506V7.73769C69.7709 7.71727 69.5096 7.71727 69.3483 7.71727C67.715 7.71727 66.8636 8.79934 66.8636 10.2836V14.814H64.2319V5.01414Z" fill="#1F1F1F"/>
<path d="M77.1064 0.522949H82.1799C85.4772 0.522949 86.9063 2.41759 86.9063 4.9533C86.9063 7.35018 85.5976 8.7385 83.3436 9.20195L87.2901 14.8185H85.1975L81.4123 9.36324H78.8561V14.8185H77.1064V0.522949ZM81.696 7.7728C84.0725 7.7728 85.0995 6.56415 85.0995 4.91451C85.0995 3.07704 83.9112 2.11747 81.937 2.11747H78.8561V7.77484L81.696 7.7728Z" fill="#1F1F1F"/>
<path d="M88.5784 1.64566C88.5744 1.40973 88.6407 1.17795 88.7688 0.97983C88.897 0.781713 89.0812 0.626242 89.2981 0.533228C89.5149 0.440214 89.7546 0.413869 89.9864 0.457551C90.2183 0.501233 90.432 0.612963 90.6001 0.778504C90.7683 0.944045 90.8833 1.1559 90.9306 1.38707C90.9779 1.61824 90.9553 1.85826 90.8657 2.07654C90.7761 2.29481 90.6235 2.48147 90.4274 2.61271C90.2313 2.74396 90.0006 2.81385 89.7646 2.81348C89.6099 2.81509 89.4565 2.78612 89.313 2.72823C89.1696 2.67034 89.039 2.58468 88.9288 2.47616C88.8185 2.36763 88.7308 2.23839 88.6707 2.09587C88.6106 1.95335 88.5792 1.80034 88.5784 1.64566ZM88.948 5.01436H90.5813V14.8142H88.948V5.01436Z" fill="#1F1F1F"/>
<path d="M92.4453 9.98769C92.4453 7.08652 94.4869 4.8836 97.237 4.8836C97.9341 4.86677 98.6235 5.03144 99.2377 5.36145C99.8519 5.69146 100.37 6.17546 100.74 6.76599H100.761V0H102.394V14.8182H100.824V13.0073H100.804C100.099 14.1955 98.852 14.9407 97.2615 14.9407C94.538 14.9325 92.4453 12.9664 92.4453 9.98769ZM100.816 9.98769C100.816 7.97259 99.4685 6.38216 97.4943 6.38216C95.6221 6.38216 94.1113 7.8113 94.1113 9.98769C94.1113 11.9599 95.4812 13.4585 97.4739 13.4585C99.3318 13.4503 100.82 12.0599 100.82 9.98769H100.816Z" fill="#1F1F1F"/>
<path d="M113.344 10.4105H105.689C105.912 12.2479 107.2 13.4505 109.052 13.4505C109.594 13.4661 110.133 13.356 110.625 13.129C111.118 12.902 111.552 12.5641 111.892 12.1418L113.039 13.1075C112.194 14.1957 110.965 14.9449 108.993 14.9449C106.094 14.9449 104.04 12.9298 104.04 9.93067C104.04 6.9703 106.081 4.896 108.872 4.896C111.549 4.896 113.382 6.94988 113.382 9.74897C113.384 10.0062 113.344 10.288 113.344 10.4105ZM105.732 9.08135H111.753C111.512 7.4705 110.465 6.38231 108.854 6.38231C107.284 6.38231 106.034 7.40925 105.732 9.08135Z" fill="#1F1F1F"/>
</svg>
