<svg width="120" height="16" viewBox="0 0 120 16" fill="none" xmlns="http://www.w3.org/2000/svg">
<path d="M0 0.589355H3.03544L5.82977 10.2747H5.86892L8.43864 0.589355H11.4349L13.9634 10.2624H14.0252L16.8175 0.589355H19.8529L15.3194 14.9567H12.6899L9.97799 4.73758H9.93678L7.16511 14.9567H4.53358L0 0.589355Z" fill="white"/>
<path d="M19.7808 11.0308V5.05469H22.4123V10.3363C22.4123 12.1374 22.9584 12.7453 24.1928 12.7453C25.3468 12.7453 26.3771 11.7747 26.3771 9.87264V5.06087H29.056V14.9523H26.3771V13.7798L26.338 13.7592C25.9869 14.1931 25.5427 14.5424 25.0383 14.7814C24.5339 15.0204 23.9822 15.1429 23.4241 15.1398C21.2789 15.1398 19.7808 14.0415 19.7808 11.0308Z" fill="white"/>
<path d="M31.0015 5.06125H33.6515V6.33683H33.6928C34.0822 5.88286 34.5671 5.52054 35.1129 5.27581C35.6587 5.03107 36.2518 4.90995 36.8498 4.92112C38.9538 4.92112 40.4313 6.05451 40.4313 9.08995V14.9568H37.7792V9.75762C37.7792 7.87413 37.1115 7.28476 35.8771 7.28476C34.5418 7.28476 33.6515 8.21414 33.6515 9.9946V14.9527H31.0015V5.06125Z" fill="white"/>
<path d="M41.9043 10.0399C41.9043 7.04567 43.93 4.92107 46.5801 4.92107C47.1433 4.90248 47.7038 5.00846 48.2213 5.23145C48.7389 5.45445 49.2009 5.78895 49.5743 6.21108H49.6155V0.0639648H52.247V14.9568H49.7165V13.743H49.6959C49.0076 14.6332 47.9772 15.1402 46.6398 15.1402C43.9094 15.1402 41.9043 13.0959 41.9043 10.0399ZM49.7165 10.0605C49.7165 8.46139 48.6449 7.28884 47.1262 7.28884C45.7104 7.28884 44.5977 8.36041 44.5977 10.0605C44.5977 11.639 45.6486 12.7518 47.1262 12.7518C48.6037 12.7518 49.7165 11.6802 49.7165 10.0605Z" fill="white"/>
<path d="M63.3152 10.8702H56.3747C56.6982 12.0634 57.6482 12.7723 58.9836 12.7723C59.4441 12.7874 59.9017 12.6947 60.32 12.5015C60.7383 12.3083 61.1056 12.0199 61.3925 11.6595L63.1132 13.2586C62.289 14.3302 61.0072 15.14 58.8022 15.14C55.7668 15.14 53.6216 13.0958 53.6216 9.98825C53.6216 6.97342 55.707 4.91064 58.6415 4.91064C61.4338 4.91064 63.3811 7.01464 63.3811 9.90788C63.375 10.2417 63.3358 10.7074 63.3152 10.8702ZM56.3953 8.9682H60.7455C60.4817 7.91517 59.7749 7.22689 58.6209 7.22689C57.5472 7.22689 56.6982 7.8348 56.3953 8.9682Z" fill="white"/>
<path d="M64.8325 5.0613H67.4847V6.5038H67.5238C67.8591 6.02357 68.3038 5.62997 68.8212 5.3555C69.3386 5.08104 69.9139 4.93357 70.4995 4.92529H70.7056V7.8103C70.4232 7.78969 70.1595 7.78969 69.9967 7.78969C68.3481 7.78969 67.4888 8.88187 67.4888 10.38V14.9527H64.8325V5.0613Z" fill="white"/>
<path d="M77.8271 0.529785H87.0324V2.13508H79.5932V7.21475H85.8928V8.82005H79.5932V14.9569H77.8271V0.529785Z" fill="white"/>
<path d="M88.5942 0H90.2428V14.9567H88.5942V0Z" fill="white"/>
<path d="M101.336 10.5078H93.6144C93.8369 12.3624 95.1373 13.5762 97.0084 13.5762C97.5554 13.5919 98.0986 13.4809 98.5955 13.2517C99.0924 13.0226 99.5296 12.6815 99.8728 12.2553L101.031 13.23C100.178 14.3284 98.9393 15.0846 96.9466 15.0846C94.0203 15.0846 91.9473 13.0507 91.9473 10.0235C91.9473 7.03548 94.008 4.94385 96.825 4.94385C99.5286 4.94385 101.377 7.00457 101.377 9.84011C101.377 10.0998 101.336 10.3841 101.336 10.5078ZM93.6535 9.16626H99.7306C99.4874 7.54035 98.4303 6.44199 96.8044 6.44199C95.2197 6.44199 93.9585 7.47853 93.6535 9.16626Z" fill="white"/>
<path d="M112.187 10.5078H104.466C104.689 12.3624 105.989 13.5762 107.858 13.5762C108.405 13.5919 108.949 13.4809 109.446 13.2517C109.943 13.0226 110.381 12.6816 110.724 12.2553L111.882 13.23C111.029 14.3284 109.789 15.0846 107.798 15.0846C104.872 15.0846 102.799 13.0507 102.799 10.0235C102.799 7.03548 104.86 4.94385 107.677 4.94385C110.378 4.94385 112.229 7.00457 112.229 9.84011C112.229 10.0998 112.187 10.3841 112.187 10.5078ZM104.505 9.16626H110.592C110.349 7.54035 109.292 6.44199 107.666 6.44199C106.071 6.44199 104.81 7.47853 104.505 9.16626Z" fill="white"/>
<path d="M114.302 12.0094V6.4826H113.022V5.0607H114.302V1.68731L115.951 1.50391V5.0607H119.223V6.4826H115.951V11.7745C115.951 12.9739 116.215 13.5426 117.15 13.5426C117.745 13.5113 118.323 13.3375 118.836 13.0357L119.264 14.4782C118.542 14.9129 117.708 15.1277 116.866 15.0964C115.114 15.0717 114.302 14.0022 114.302 12.0094Z" fill="white"/>
</svg>
