<svg xmlns="http://www.w3.org/2000/svg" viewBox="0 0 590.6 57.85"><defs><style>.cls-1{fill:#fff;}</style></defs><title>Wunder Mobility_White</title><g id="Layer_2" data-name="Layer 2"><g id="Layer_1-2" data-name="Layer 1"><path class="cls-1" d="M41.75,42.74h0a12.14,12.14,0,0,0,0-17.11L20.59,4.42a12.08,12.08,0,0,0-17.07,0h0a12.16,12.16,0,0,0,0,17.11L24.68,42.74A12.08,12.08,0,0,0,41.75,42.74Zm63.7-38.32a12.1,12.1,0,0,0-17.07,0L75.51,17.33,62.63,4.42a12.1,12.1,0,0,0-17.07,0h0a12.16,12.16,0,0,0,0,17.11L66.72,42.75a12.75,12.75,0,0,0,17.57,0l21.16-21.22A12.16,12.16,0,0,0,105.45,4.42Z"/><path class="cls-1" d="M124.47,1.68H137l6.35,24.63h.19L149.4,1.68h12.34l5.74,24.56h.19L174,1.68h12.52L172.92,45.61H162.24l-6.48-26.73h-.13l-6.85,26.73H138.11ZM186.1,33.05V15.29h11v15.1c0,4.33,1.17,6.12,3.95,6.12,2.34,0,4.13-1.85,4.13-6V15.29h11.05V45.61H205.17V42.39l-.12-.06a10.31,10.31,0,0,1-8.27,3.9C190.61,46.23,186.1,42.89,186.1,33.05Zm34.83-17.76h11v3.22h.12a10.92,10.92,0,0,1,8.52-3.84c6.11,0,10.74,2.79,10.74,12.63V45.61H240.31V30c0-4.34-1.24-5.51-3.95-5.51S232,26.24,232,30.39V45.61h-11ZM277,.07V18.26l-.12.06a10.57,10.57,0,0,0-8.08-3.65c-7.6,0-13.4,6.44-13.4,15.78s5.74,15.78,14.07,15.78c3.46,0,6.11-1.12,8-3.41h.12v2.79H288V.07Zm-5.12,36.51c-3.08,0-5.37-2.42-5.37-6.13s2.29-6.06,5.37-6.06,5.56,2.47,5.56,6.06S275.06,36.58,271.85,36.58ZM323,30.2c0-9.09-6.48-15.53-15.18-15.53-9.14,0-15.68,6.62-15.68,15.78,0,9.34,6.79,15.78,15.86,15.78,7,0,11.48-2.23,14-5.32l-5.92-6.56a9.21,9.21,0,0,1-6.79,3.15c-3.33,0-5.87-1.42-6.36-4.33h19.81A22.74,22.74,0,0,0,323,30.2Zm-20.06-3a4.68,4.68,0,0,1,4.81-4.08c2.41,0,4.08,1.48,4.57,4.08ZM327.2,15.29h11.05v4.09h.12a10.19,10.19,0,0,1,8.4-4.71h.06V26.49c-.93-.06-1.85-.06-2.35-.06-4.26,0-6.23,2.41-6.23,5.94V45.61H327.2ZM361.71,1.67h11.85l11,21.84h.13L395.53,1.67h11.91V45.6h-11.6V24h-.19l-7.34,13.67h-7.47l-7.34-13.8h-.19V45.6h-11.6Zm50.42,28.77c0-9.34,6.78-15.78,16.6-15.78s16.54,6.44,16.54,15.78-6.85,15.78-16.54,15.78S412.13,39.78,412.13,30.44Zm22,0c0-3.53-2.22-6-5.43-6s-5.49,2.47-5.49,6,2.34,6.06,5.49,6.06S434.16,34,434.16,30.44ZM460,42.75l-.12.06V45.6H449.4V.06h11.05V18.31h.12a10.48,10.48,0,0,1,8.09-3.65c7.59,0,13.39,6.44,13.39,15.78S476.25,46.22,468,46.22C464.52,46.22,461.8,45.1,460,42.75Zm11-12.31c0-3.59-2.28-6.06-5.37-6.06-3.27,0-5.62,2.47-5.62,6.06s2.35,6.13,5.62,6.13C468.66,36.57,470.94,34.15,470.94,30.44ZM485.69,5.88C485.69,2.6,488.34,0,492,0s6.3,2.54,6.3,5.88a5.93,5.93,0,0,1-6.3,6A6,6,0,0,1,485.69,5.88Zm.74,9.4h11V45.6h-11ZM503.4.06h11V45.6h-11Zm16.23,5.82C519.63,2.6,522.28,0,526,0s6.3,2.54,6.3,5.88a5.93,5.93,0,0,1-6.3,6A6,6,0,0,1,519.63,5.88Zm.74,9.4h11V45.6h-11Zm17.89,20.79v-12H535V15.28h3.27V5.75l11-1.11V15.28h6.54v8.79h-6.54v9.65c0,1.42.19,3,2,3a7.19,7.19,0,0,0,2.22-.43L556.22,44a15.8,15.8,0,0,1-8.88,2.23C542.21,46.22,538.26,43,538.26,36.07Zm31.23,7.3L558,15.28h11.79l4.93,14.29h.19l4.81-14.29H590.6L575.11,57.85H564.37Z"/></g></g></svg>