<svg width="243" height="24" viewBox="0 0 243 24" fill="none" xmlns="http://www.w3.org/2000/svg">
<g id="Wunder Mobility Logo">
<path id="Vector" fill-rule="evenodd" clip-rule="evenodd" d="M16.4237 17.4822C17.3104 16.5377 17.8079 15.2614 17.8079 13.9313C17.8079 12.6012 17.3104 11.325 16.4237 10.3805L8.10067 1.58238C7.20996 0.642968 6.00267 0.115329 4.74394 0.115329C3.4852 0.115329 2.27791 0.642968 1.38721 1.58238C0.498768 2.52517 0 3.80123 0 5.13142C0 6.46161 0.498768 7.73767 1.38721 8.68046L9.70905 17.4822C10.601 18.4196 11.8081 18.9458 13.0664 18.9458C14.3246 18.9458 15.5317 18.4196 16.4237 17.4822ZM41.4752 1.58238C40.5833 0.64533 39.3765 0.119321 38.1185 0.119321C36.8605 0.119321 35.6537 0.64533 34.7618 1.58238L29.6992 6.92109L24.6365 1.58116C23.7442 0.641164 22.5354 0.113281 21.2752 0.113281C20.015 0.113281 18.8062 0.641164 17.9139 1.58116C17.0256 2.52453 16.5269 3.80093 16.5269 5.13142C16.5269 6.46191 17.0256 7.73831 17.9139 8.68168L26.2449 17.481C27.1768 18.4167 28.4134 18.9385 29.6992 18.9385C30.9849 18.9385 32.2215 18.4167 33.1534 17.481L41.4752 8.68289C42.3619 7.73839 42.8595 6.46214 42.8595 5.13203C42.8595 3.80192 42.3619 2.52688 41.4752 1.58238Z" fill="#212529"/>
<mask id="mask0" mask-type="alpha" maskUnits="userSpaceOnUse" x="56" y="0" width="187" height="24">
<path id="Vector_2" fill-rule="evenodd" clip-rule="evenodd" d="M56.2109 0.697935H61.2198L63.7628 10.9125H63.8374L66.1821 0.697935H71.1198L73.4166 10.8883H73.4878L76.0307 0.697935H81.0432L75.5863 18.9194H71.317L68.725 7.82754H68.6784L65.9371 18.9182H61.6689L56.2109 0.697935ZM80.8612 13.7115V6.34442H85.2565V12.604C85.2565 14.4034 85.7231 15.1474 86.8406 15.1474C87.7738 15.1474 88.4912 14.3743 88.4912 12.6573V6.34442H92.911V18.9182H88.4877V17.5865L88.441 17.5586C88.0461 18.0748 87.5417 18.4893 86.9674 18.7698C86.393 19.0504 85.764 19.1895 85.1294 19.1763C82.6622 19.1763 80.86 17.7925 80.86 13.7091L80.8612 13.7115ZM94.7914 6.34564H99.2065V7.67729H99.2579C99.6768 7.1667 100.2 6.7592 100.789 6.48426C101.378 6.20932 102.018 6.07382 102.664 6.08754C105.107 6.08754 106.96 7.24108 106.96 11.3245V18.9194H102.542V12.4295C102.542 10.6302 102.046 10.1407 100.957 10.1407C99.8679 10.1407 99.2031 10.8883 99.2031 12.6052V18.9182H94.7914V6.34564ZM117.204 0.0290806V7.57308L117.158 7.60216C116.757 7.12067 116.259 6.73567 115.701 6.47391C115.142 6.21214 114.535 6.07989 113.922 6.08633C110.884 6.08633 108.564 8.75569 108.564 12.6331C108.564 16.5105 110.861 19.1763 114.195 19.1763C115.577 19.1763 116.637 18.7122 117.363 17.7634H117.421V18.9182H121.619V0.0290806H117.204ZM115.157 15.1728C113.921 15.1728 113.007 14.1707 113.007 12.6343C113.007 11.0979 113.922 10.1164 115.157 10.1164C116.392 10.1164 117.378 11.1439 117.378 12.6343C117.378 14.1247 116.44 15.1728 115.157 15.1728ZM135.614 12.5313C135.614 8.7569 133.02 6.08754 129.539 6.08754C125.888 6.08754 123.271 8.83566 123.271 12.6343C123.271 16.5081 125.983 19.1775 129.606 19.1775C132.378 19.1775 134.195 18.2529 135.209 16.9722L132.834 14.2483C132.496 14.6526 132.08 14.9783 131.612 15.2043C131.144 15.4302 130.636 15.5511 130.121 15.5593C128.786 15.5593 127.776 14.968 127.578 13.76H135.498C135.56 13.3529 135.599 12.9433 135.614 12.5313ZM127.591 11.2712C127.651 10.7907 127.882 10.3508 128.238 10.0377C128.594 9.72457 129.049 9.5608 129.515 9.57843C130.478 9.57843 131.143 10.1952 131.341 11.2712H127.591ZM137.292 6.342H141.711V8.03352H141.759C142.121 7.44675 142.617 6.96178 143.203 6.62152C143.789 6.28126 144.446 6.0962 145.117 6.0827H145.141V10.9901C144.772 10.961 144.4 10.961 144.203 10.961C142.5 10.961 141.711 11.9643 141.711 13.4256V18.9182H137.292V6.342ZM151.08 0.6943H155.833L160.223 9.75534H160.276L164.63 0.6943H169.381V18.9145H164.741V9.96012H164.67L161.73 15.6333H158.745L155.807 9.9068H155.732V18.9145H151.079V0.6943H151.08ZM171.276 12.6258C171.276 8.75327 173.992 6.0827 177.917 6.0827C181.841 6.0827 184.533 8.75327 184.533 12.6258C184.533 16.4996 181.793 19.1738 177.917 19.1738C174.039 19.1738 171.276 16.5033 171.276 12.6258ZM180.09 12.6258C180.09 11.1645 179.2 10.137 177.917 10.137C176.633 10.137 175.719 11.1645 175.719 12.6258C175.719 14.0884 176.657 15.1437 177.917 15.1437C179.176 15.1437 180.07 14.0932 180.07 12.6258H180.09ZM190.405 17.7355L190.354 17.7598V18.9145H186.165V0.0242339H190.583V7.59853H190.63C191.03 7.11534 191.527 6.72924 192.086 6.46752C192.645 6.2058 193.253 6.07484 193.866 6.08391C196.899 6.08391 199.22 8.75327 199.22 12.6271C199.22 16.4996 196.899 19.1738 193.593 19.1738C192.211 19.1738 191.126 18.7097 190.385 17.7355H190.405ZM194.797 12.6258C194.797 11.1391 193.887 10.1128 192.65 10.1128C191.344 10.1128 190.405 11.1391 190.405 12.6258C190.405 14.1126 191.344 15.1692 192.65 15.1692C193.866 15.1692 194.777 14.1671 194.777 12.6258H194.797ZM200.697 2.44035C200.697 1.07598 201.758 0 203.24 0C204.721 0 205.726 1.05175 205.726 2.44035C205.73 2.7782 205.667 3.11331 205.541 3.42482C205.415 3.73632 205.228 4.01755 204.993 4.25101C204.758 4.48447 204.479 4.66515 204.174 4.78182C203.869 4.89849 203.544 4.94865 203.219 4.92917C202.893 4.94773 202.566 4.8972 202.259 4.78065C201.953 4.6641 201.672 4.48396 201.434 4.25118C201.196 4.01839 201.007 3.73783 200.876 3.42654C200.746 3.11524 200.678 2.77972 200.677 2.44035H200.697ZM200.99 6.33837H205.41V18.9157H200.975L200.99 6.33837ZM207.758 0.0254456H212.176V18.9194H207.758V0.0242339V0.0254456ZM214.252 2.44035C214.252 1.07598 215.313 0 216.813 0C218.314 0 219.333 1.05175 219.333 2.44035C219.333 3.82774 218.275 4.92917 216.813 4.92917C216.485 4.95064 216.157 4.90227 215.848 4.78703C215.538 4.67179 215.255 4.49212 215.015 4.25904C214.775 4.02596 214.584 3.74439 214.452 3.43164C214.321 3.11889 214.253 2.78156 214.252 2.44035ZM214.544 6.33837H218.964V18.9157H214.544V6.33837ZM221.704 14.9632V9.98556H220.398V6.33715H221.704V2.38582L226.123 1.92538V6.33837H228.736V9.98556H226.123V13.9902C226.123 14.5779 226.194 15.2467 226.916 15.2467C227.219 15.2346 227.52 15.174 227.806 15.065L228.891 18.2493C227.818 18.9157 226.577 19.2368 225.327 19.1738C223.284 19.1738 221.704 17.8385 221.704 14.9632ZM234.193 17.99L229.576 6.33837H234.292L236.272 12.2684H236.347L238.272 6.33837H242.628L236.43 24H232.142L234.193 17.99Z" fill="#212529"/>
</mask>
<g mask="url(#mask0)">
<rect id="Rectangle" x="53.1523" y="-3.48828" width="195.97" height="26.3858" fill="#212529"/>
</g>
</g>
</svg>
