<svg width="176" height="15" viewBox="0 0 176 15" fill="none" xmlns="http://www.w3.org/2000/svg">
<g clip-path="url(#clip0)">
<path d="M40.5187 0.52643H44.594L46.6674 8.52037H46.726L48.6367 0.52643H52.6632L54.5349 8.50087H54.5934L56.6669 0.52643H60.752L56.3121 14.7888H52.8292L50.72 6.10919H50.6809L48.4447 14.7888H44.965L40.5187 0.52643ZM60.612 10.7236V4.94584H64.1926V9.84619C64.1926 11.2533 64.5734 11.8349 65.4783 11.8349C66.2432 11.8349 66.8291 11.2338 66.8291 9.88518V4.94584H70.4292V14.7888H66.8324V13.7424L66.7901 13.7229C66.4687 14.1269 66.0584 14.4514 65.5909 14.6712C65.1235 14.891 64.6115 15.0002 64.0949 14.9903C62.0833 14.9903 60.612 13.9049 60.612 10.7236ZM71.9688 4.94584H75.5689V5.98895H75.6112C75.9532 5.58957 76.3795 5.27081 76.8596 5.0556C77.3397 4.8404 77.8616 4.73411 78.3878 4.74437C80.3799 4.74437 81.887 5.64775 81.887 8.84207V14.7888H78.2869V9.70646C78.2869 8.2994 77.8833 7.9192 76.9849 7.9192C76.0865 7.9192 75.5559 8.50087 75.5559 9.84619V14.7888H71.9688V4.94584ZM90.2394 0V5.90771L90.2003 5.93046C89.8728 5.5535 89.467 5.25217 89.0112 5.04736C88.5553 4.84255 88.0603 4.73916 87.5605 4.74437C85.0867 4.74437 83.1955 6.83384 83.1955 9.86569C83.1955 12.8975 85.0671 14.9903 87.7818 14.9903C88.9081 14.9903 89.7739 14.6263 90.3859 13.8854H90.4249V14.7888H93.8427V0H90.2394ZM88.5696 11.8544C87.5638 11.8544 86.8183 11.0713 86.8183 9.86569C86.8183 8.6601 87.5605 7.89645 88.5696 7.89645C89.5786 7.89645 90.3826 8.70234 90.3826 9.86569C90.3826 11.029 89.6177 11.8544 88.5696 11.8544ZM105.245 9.7877C105.245 6.83384 103.133 4.74437 100.294 4.74437C97.3191 4.74437 95.1838 6.89233 95.1838 9.86569C95.1838 12.9008 97.3972 14.9903 100.356 14.9903C102.635 14.9903 104.099 14.2656 104.913 13.2615L102.983 11.133C102.706 11.4487 102.366 11.7029 101.985 11.8792C101.604 12.0555 101.19 12.15 100.769 12.1566C99.6823 12.1566 98.8587 11.6952 98.696 10.7496H105.154C105.205 10.4313 105.236 10.11 105.245 9.7877ZM98.7057 8.81283C98.752 8.43413 98.9388 8.0865 99.2292 7.83862C99.5197 7.59074 99.8928 7.46063 100.275 7.47401C101.059 7.47401 101.603 7.95494 101.765 8.79983L98.7057 8.81283ZM106.615 4.95559H110.219V6.27167H110.258C110.553 5.81183 110.957 5.43183 111.435 5.16541C111.912 4.89898 112.448 4.75435 112.995 4.74437H113.015V8.58211C112.712 8.56261 112.409 8.56261 112.25 8.56261C110.86 8.56261 110.219 9.34576 110.219 10.4896V14.7888H106.615V4.95559ZM114.662 12.7058L116.192 10.8373C116.629 11.3959 117.184 11.8525 117.816 12.1752C118.449 12.4979 119.144 12.679 119.854 12.7058C121.423 12.7058 122.23 12.0234 122.23 10.977C122.23 9.73245 121.283 9.32951 119.473 8.70234C117.299 7.93869 115.147 6.97357 115.147 4.36092C115.147 2.13172 117.198 0.383449 119.675 0.383449C121.405 0.406534 123.074 1.02394 124.401 2.13172L122.953 4.03921C121.787 3.06434 120.638 2.57366 119.675 2.57366C118.568 2.57366 117.683 3.17808 117.66 4.24069C117.637 5.30329 118.607 5.64775 120.339 6.31066C122.793 7.28553 124.766 7.93544 124.766 10.6878C124.766 13.6417 122.129 14.9675 119.834 14.9675C118.862 14.9627 117.902 14.7587 117.012 14.3679C116.122 13.9772 115.322 13.4081 114.662 12.6961V12.7058ZM126.559 0H128.812V6.20667H128.834C129.263 5.75698 129.782 5.4029 130.358 5.16768C130.934 4.93246 131.552 4.82142 132.174 4.84186C134.326 4.84186 135.836 5.9857 135.836 8.92006V14.7855H133.58V9.50173C133.58 7.55199 132.796 6.86959 131.448 6.86959C129.821 6.86959 128.812 7.8737 128.812 9.7942V14.7855H126.559V0ZM137.428 10.9478V4.98159H139.683V10.3466C139.683 12.2964 140.286 12.8975 141.636 12.8975C142.987 12.8975 144.153 11.7927 144.153 9.68371V4.98159H146.408V14.7855H144.153V13.5604L144.114 13.5409C143.75 13.9844 143.292 14.3409 142.773 14.5844C142.254 14.8279 141.686 14.9521 141.112 14.948C138.938 14.948 137.428 13.8594 137.428 10.9478ZM148.869 11.6984V6.88908H147.662V4.98159H148.869V1.73202L151.122 1.4883V4.98159H153.999V6.88908H151.122V11.471C151.122 12.4751 151.424 12.8358 152.069 12.8358C152.578 12.8091 153.074 12.6645 153.517 12.4133L154.1 14.3631C153.342 14.792 152.477 14.995 151.607 14.948C149.914 14.948 148.869 13.8822 148.869 11.6984ZM156.261 11.6984V6.88908H155.054V4.98159H156.261V1.73202L158.52 1.48505V4.98159H161.398V6.88908H158.52V11.471C158.52 12.4751 158.82 12.8358 159.464 12.8358C159.974 12.8102 160.47 12.6655 160.913 12.4133L161.499 14.3631C160.739 14.7932 159.871 14.9963 158.999 14.948C157.309 14.948 156.261 13.8822 156.261 11.6984ZM162.794 0H165.047V14.7855H162.794V0ZM175.941 10.6261H168.78C169.063 12.0526 170.128 12.9008 171.658 12.9008C172.133 12.9143 172.605 12.8174 173.037 12.6178C173.468 12.4181 173.847 12.1212 174.145 11.7504L175.713 13.0958C174.874 14.1616 173.647 14.948 171.541 14.948C168.562 14.948 166.45 12.9593 166.45 9.88518C166.45 6.87284 168.504 4.84511 171.381 4.84511C174.145 4.84186 176 6.91183 176 9.7487C175.998 10.0421 175.979 10.3351 175.941 10.6261ZM168.819 8.85832H173.728C173.445 7.67223 172.641 6.86959 171.352 6.86959C170.762 6.84576 170.182 7.03298 169.718 7.39754C169.254 7.76211 168.935 8.2801 168.819 8.85832ZM13.5539 13.8529C14.286 13.1122 14.6965 12.1135 14.6965 11.0729C14.6965 10.0323 14.286 9.03359 13.5539 8.2929L6.69228 1.40056C5.95726 0.670316 4.96248 0.260363 3.9255 0.260363C2.88852 0.260363 1.89374 0.670316 1.15872 1.40056C0.426598 2.14125 0.0161133 3.13998 0.0161133 4.18057C0.0161133 5.22116 0.426598 6.21988 1.15872 6.96057L8.02034 13.8529C8.38346 14.2184 8.81547 14.5085 9.29146 14.7065C9.76745 14.9044 10.278 15.0064 10.7936 15.0064C11.3093 15.0064 11.8198 14.9044 12.2958 14.7065C12.7718 14.5085 13.2038 14.2184 13.5669 13.8529H13.5539ZM34.3276 1.40056C33.5884 0.66694 32.5884 0.255154 31.5461 0.255154C30.5038 0.255154 29.5039 0.66694 28.7647 1.40056L24.5657 5.59576L20.37 1.40056C19.6308 0.66694 18.6308 0.255154 17.5885 0.255154C16.5462 0.255154 15.5463 0.66694 14.8071 1.40056C14.0724 2.14057 13.6602 3.1403 13.6602 4.18219C13.6602 5.22409 14.0724 6.22382 14.8071 6.96382L21.7045 13.8562C22.477 14.5888 23.5018 14.9972 24.5673 14.9972C25.6328 14.9972 26.6576 14.5888 27.4301 13.8562L34.3276 6.96382C35.0622 6.22382 35.4744 5.22409 35.4744 4.18219C35.4744 3.1403 35.0622 2.14057 34.3276 1.40056Z" fill="#141414"/>
</g>
<defs>
<clipPath id="clip0">
<rect width="176" height="15" fill="white"/>
</clipPath>
</defs>
</svg>
