<svg width="188" height="18" viewBox="0 0 188 18" fill="none" xmlns="http://www.w3.org/2000/svg">
<path d="M16.0261 16.6495C16.8865 15.7778 17.369 14.6022 17.369 13.3773C17.369 12.1525 16.8865 10.9769 16.0261 10.1052L7.89189 1.95944C7.02113 1.09715 5.8452 0.613431 4.61974 0.613431C3.39427 0.613431 2.21834 1.09715 1.34758 1.95944V1.95944C0.484363 2.82971 0 4.00583 0 5.2316C0 6.45737 0.484363 7.63349 1.34758 8.50376L9.46638 16.6495C10.3388 17.5146 11.5176 18 12.7462 18C13.9748 18 15.1537 17.5146 16.0261 16.6495V16.6495ZM40.5018 1.95944C39.6311 1.09715 38.4551 0.613431 37.2297 0.613431C36.0042 0.613431 34.8283 1.09715 33.9575 1.95944L28.9954 6.90617L24.0486 1.95944C23.1779 1.09715 22.002 0.613431 20.7765 0.613431C19.551 0.613431 18.3751 1.09715 17.5043 1.95944V1.95944C16.6411 2.82971 16.1568 4.00583 16.1568 5.2316C16.1568 6.45737 16.6411 7.63349 17.5043 8.50376L25.6193 16.6495C26.5304 17.5132 27.738 17.9947 28.9934 17.9947C30.2489 17.9947 31.4565 17.5132 32.3676 16.6495L40.5018 8.51915C41.3651 7.64578 41.8492 6.46729 41.8492 5.2393C41.8492 4.0113 41.3651 2.83282 40.5018 1.95944V1.95944ZM47.816 0.627484H52.6973L55.1726 10.1976H55.2458L57.5286 0.627484H62.3637L64.6003 10.1745H64.6734L67.1487 0.627484H72.03L66.6829 17.7081H62.5215L60 7.31423H59.95L57.2822 17.7081H53.1246L47.816 0.627484ZM71.8183 12.8192V5.91683H76.099V11.7836C76.099 13.4697 76.5571 14.1665 77.6389 14.1665C78.5512 14.1665 79.248 13.4428 79.248 11.8337V5.91683H83.5364V17.7081H79.248V16.4493L79.2018 16.4262C78.8166 16.9085 78.3257 17.2957 77.767 17.558C77.2083 17.8204 76.5968 17.9507 75.9797 17.9391C73.5737 17.9391 71.8183 16.6418 71.8183 12.8192ZM85.3881 5.91683H89.6958V7.16795H89.742C90.1511 6.69036 90.6607 6.30914 91.2344 6.05159C91.8081 5.79403 92.4316 5.66651 93.0603 5.67815C95.4432 5.67815 97.2448 6.75989 97.2448 10.5825V17.7081H92.9371V11.6181C92.9371 9.9358 92.4559 9.4777 91.3973 9.4777C90.3387 9.4777 89.6919 10.1745 89.6919 11.7875V17.7081H85.3881V5.91683ZM107.219 0V7.07171L107.173 7.09865C106.782 6.64821 106.298 6.28794 105.754 6.04269C105.211 5.79745 104.62 5.67308 104.024 5.67815C101.064 5.67815 98.8039 8.18039 98.8039 11.8106C98.8039 15.4407 101.041 17.9391 104.324 17.9391C105.672 17.9391 106.707 17.508 107.427 16.6187H107.473V17.7081H111.561V0H107.219ZM105.225 14.1896C104.024 14.1896 103.135 13.2503 103.135 11.8106C103.135 10.3708 104.024 9.4546 105.225 9.4546C106.426 9.4546 107.385 10.417 107.385 11.8144C107.385 13.2118 106.476 14.1896 105.225 14.1896ZM119.234 5.6743C115.677 5.6743 113.128 8.24583 113.128 11.8067C113.128 15.4369 115.773 17.9353 119.307 17.9353C122.025 17.9353 123.78 17.0691 124.766 15.868L122.456 13.3196C122.126 13.6982 121.72 14.0032 121.264 14.2147C120.808 14.4263 120.313 14.5397 119.811 14.5476C118.514 14.5476 117.528 13.9933 117.336 12.8615H125.035C125.097 12.4792 125.135 12.0936 125.151 11.7066V11.7066C125.151 8.17654 122.625 5.6743 119.234 5.6743V5.6743ZM117.336 10.5325C117.393 10.0812 117.618 9.66771 117.964 9.37346C118.311 9.07921 118.756 8.92551 119.211 8.94261C120.15 8.94261 120.797 9.52005 120.989 10.5325H117.336ZM126.787 5.91298H131.09V7.50671H131.141C131.492 6.95552 131.974 6.5 132.544 6.18089C133.115 5.86179 133.755 5.68905 134.409 5.67815H134.432V10.2707C134.074 10.2476 133.712 10.2476 133.52 10.2476C131.86 10.2476 131.09 11.1831 131.09 12.5574V17.7081H126.787V5.91298ZM137.377 0.461951H143.733C147.832 0.461951 149.626 2.83715 149.626 6.04001C149.626 8.73473 148.317 10.5248 145.777 11.2524L150.242 17.6812H146.724L142.616 11.5488H140.306V17.6812H137.373L137.377 0.461951ZM143.101 8.90026C145.453 8.90026 146.593 7.68764 146.593 5.98997C146.593 4.17296 145.407 3.07968 143.294 3.07968H140.31V8.90026H143.101ZM163.546 12.6613H154.912C155.251 14.3821 156.536 15.4022 158.376 15.4022C158.947 15.417 159.513 15.2996 160.031 15.0592C160.548 14.8187 161.003 14.4618 161.36 14.0164L163.25 15.6448C162.257 16.9305 160.779 17.8737 158.246 17.8737C154.658 17.8737 152.109 15.4754 152.109 11.7644C152.109 8.12649 154.585 5.6743 158.053 5.6743C161.375 5.6743 163.631 8.17269 163.631 11.6181C163.623 11.9672 163.595 12.3155 163.546 12.6613V12.6613ZM154.962 10.5248H160.879C160.54 9.09659 159.57 8.1265 158.015 8.1265C157.303 8.09705 156.605 8.32247 156.045 8.76216C155.486 9.20185 155.102 9.82692 154.962 10.5248V10.5248ZM166.434 5.84369H169.148V7.46821H169.198C169.683 6.89532 170.289 6.43725 170.973 6.12704C171.656 5.81682 172.4 5.66219 173.151 5.6743C175.746 5.6743 177.493 7.15255 177.493 10.7211V17.6812H174.772V11.4217C174.772 8.92336 173.825 8.1265 172.2 8.1265C170.356 8.1265 169.144 9.40841 169.144 11.7374V17.6812H166.43L166.434 5.84369ZM181.031 13.9278V8.14959H179.576V5.83984H181.031V1.9248L183.749 1.63223V5.86678H187.214V8.17654H183.749V13.6776C183.749 14.8902 184.111 15.3291 184.904 15.3291C185.517 15.2976 186.115 15.1222 186.648 14.8171L187.352 17.173C186.437 17.687 185.394 17.9299 184.346 17.8737C182.294 17.8737 181.031 16.5879 181.031 13.9471V13.9278Z" fill="white"/>
</svg>
