<svg xmlns="http://www.w3.org/2000/svg" viewBox="0 0 540.7 46.16"><defs><style>.cls-1{fill:#fff;}</style></defs><title>Wunder Shuttle_White</title><g id="Layer_2" data-name="Layer 2"><g id="Layer_1-2" data-name="Layer 1"><path class="cls-1" d="M124.48,1.62H137l6.37,24.6h.18l5.87-24.6h12.37l5.75,24.54h.18l6.37-24.54h12.55L173,45.51h-10.7L155.82,18.8h-.12l-6.87,26.71H138.14ZM186.21,33V15.22h11V30.3c0,4.33,1.17,6.12,3.95,6.12,2.35,0,4.15-1.85,4.15-6V15.22h11.06V45.51H205.32V42.29l-.13-.06a10.32,10.32,0,0,1-8.28,3.9C190.73,46.13,186.21,42.79,186.21,33ZM221.1,15.22h11.06v3.21h.13a10.94,10.94,0,0,1,8.53-3.83c6.12,0,10.75,2.78,10.75,12.61v18.3H240.51V29.87c0-4.33-1.24-5.5-4-5.5s-4.39,1.79-4.39,5.93V45.51H221.1ZM277.23,0V18.18l-.12.07A10.59,10.59,0,0,0,269,14.6c-7.6,0-13.41,6.43-13.41,15.76s5.75,15.77,14.09,15.77c3.46,0,6.12-1.12,8-3.4h.12v2.78H288.3V0ZM272.1,36.48c-3.09,0-5.38-2.41-5.38-6.12S269,24.3,272.1,24.3s5.57,2.48,5.57,6.06S275.32,36.48,272.1,36.48Zm51.23-6.36c0-9.09-6.49-15.52-15.21-15.52-9.14,0-15.7,6.61-15.7,15.76,0,9.34,6.8,15.77,15.89,15.77,7,0,11.5-2.23,14-5.32l-5.93-6.55a9.23,9.23,0,0,1-6.8,3.15c-3.34,0-5.87-1.42-6.37-4.33h19.84A22.73,22.73,0,0,0,323.33,30.12Zm-20.09-3A4.69,4.69,0,0,1,308.06,23c2.41,0,4.08,1.48,4.58,4.08Zm24.3-11.87h11.07V19.3h.12a10.21,10.21,0,0,1,8.41-4.7h.06V26.41c-.93-.06-1.86-.06-2.35-.06-4.27,0-6.24,2.41-6.24,5.93V45.51H327.54Zm24.72,23.85,4.7-5.75a15,15,0,0,0,11.25,5.75c4.82,0,7.3-2.1,7.3-5.32,0-3.83-2.91-5.07-8.47-7-6.68-2.35-13.29-5.32-13.29-13.36,0-6.86,6.3-12.24,13.91-12.24a23.12,23.12,0,0,1,14.52,5.38l-4.45,5.87c-3.58-3-7.11-4.51-10.07-4.51-3.4,0-6.12,1.86-6.19,5.13s2.91,4.33,8.23,6.37c7.54,3,13.6,5,13.6,13.47,0,9.09-8.1,13.17-15.15,13.17A21.8,21.8,0,0,1,352.26,39.07ZM388.81,0h6.92V19.1h.07a13.55,13.55,0,0,1,10.26-4.2c6.61,0,11.25,3.52,11.25,12.55V45.5h-6.93V29.24c0-6-2.41-8.1-6.55-8.1-5,0-8.1,3.09-8.1,9V45.5h-6.92ZM422.2,33.69V15.33h6.93V31.84c0,6,1.85,7.85,6,7.85s7.73-3.4,7.73-9.89V15.33h6.93V45.5h-6.93V41.73l-.12-.06A11.8,11.8,0,0,1,433.52,46C426.84,46,422.2,42.65,422.2,33.69ZM457.35,36V21.2h-3.71V15.33h3.71v-10l6.92-.75V15.33h8.84V21.2h-8.84V35.3c0,3.09.93,4.2,2.91,4.2a10.09,10.09,0,0,0,4.45-1.3l1.79,6A14,14,0,0,1,465.76,46C460.56,46,457.35,42.72,457.35,36Zm22.71,0V21.2h-3.71V15.33h3.71v-10L487,4.57V15.33h8.84V21.2H487V35.3c0,3.09.92,4.2,2.9,4.2a10,10,0,0,0,4.45-1.3l1.8,6A14,14,0,0,1,488.47,46C483.28,46,480.06,42.72,480.06,36ZM500.13,0h6.92V45.5h-6.92Zm40.39,32.7h-22c.87,4.39,4.14,7,8.84,7A9.44,9.44,0,0,0,535,36.16l4.82,4.14C537.24,43.58,533.47,46,527,46c-9.15,0-15.64-6.12-15.64-15.58,0-9.27,6.31-15.51,15.15-15.51C535,14.9,540.7,21.27,540.7,30A22.44,22.44,0,0,1,540.52,32.7Zm-21.88-5.44h15.08c-.87-3.65-3.34-6.12-7.3-6.12A7.62,7.62,0,0,0,518.64,27.26Zm-477,15.37h0a12.18,12.18,0,0,0,0-17.11L20.56,4.31a12.05,12.05,0,0,0-17,0h0a12.18,12.18,0,0,0,0,17.11L24.64,42.63A12,12,0,0,0,41.68,42.63ZM105.46,4.31a12.12,12.12,0,0,0-17.09,0L75.47,17.22,62.58,4.31a12.12,12.12,0,0,0-17.09,0h0a12.16,12.16,0,0,0,0,17.12L66.68,42.64a12.77,12.77,0,0,0,17.59,0l21.19-21.21A12.16,12.16,0,0,0,105.46,4.31Z"/></g></g></svg>