<svg width="176" height="18" viewBox="0 0 176 18" fill="none" xmlns="http://www.w3.org/2000/svg">
<g clip-path="url(#clip0)">
<path d="M12.8439 13.3452C13.5394 12.6475 13.9301 11.7018 13.9301 10.7159C13.9301 9.72996 13.5394 8.78432 12.8439 8.0866L6.33529 1.56803C5.63864 0.871427 4.69444 0.480173 3.71001 0.480173C2.72558 0.480173 1.78138 0.871427 1.08473 1.56803C0.389191 2.26575 -0.00146484 3.21139 -0.00146484 4.19733C-0.00146484 5.18327 0.389191 6.12891 1.08473 6.82663L7.59334 13.3452C8.28999 14.0418 9.23419 14.4331 10.2186 14.4331C11.203 14.4331 12.1472 14.0418 12.8439 13.3452ZM32.4343 1.57111C31.7365 0.876758 30.7927 0.487055 29.809 0.487055C28.8253 0.487055 27.8816 0.876758 27.1837 1.57111L23.2251 5.5451L19.2664 1.57111C18.5685 0.876758 17.6248 0.487055 16.6411 0.487055C15.6574 0.487055 14.7137 0.876758 14.0158 1.57111C13.3218 2.26963 12.9322 3.21497 12.9322 4.20041C12.9322 5.18585 13.3218 6.13119 14.0158 6.82971L20.5244 13.3452C21.2529 14.0391 22.2197 14.4261 23.2251 14.4261C24.2304 14.4261 25.1973 14.0391 25.9257 13.3452L32.4343 6.82971C33.1276 6.1308 33.5167 5.1856 33.5167 4.20041C33.5167 3.21522 33.1276 2.27002 32.4343 1.57111ZM38.2785 0.763991H42.1388L44.0951 8.34537H44.1535L45.959 0.763991H49.7639L51.5234 8.31765H51.5787L53.5381 0.75783H57.3983L53.212 14.2879H49.9208L47.9246 6.05956H47.8876L45.7745 14.2879H42.471L38.2785 0.763991ZM57.2722 10.4217V4.95362H60.6557V9.60226C60.6557 10.9362 61.0156 11.4876 61.8861 11.4876C62.6089 11.4876 63.1626 10.9146 63.1626 9.63923V4.95362H66.5645V14.2879H63.138V13.2959L63.098 13.2774C62.7942 13.6602 62.4063 13.9677 61.9647 14.1761C61.523 14.3844 61.0393 14.488 60.5511 14.4789C58.6471 14.4789 57.2599 13.4499 57.2599 10.4217H57.2722ZM68.004 4.95362H71.4091V5.94558H71.446C71.7696 5.56739 72.1725 5.26532 72.626 5.06085C73.0795 4.85639 73.5724 4.75456 74.0697 4.76262C75.9522 4.76262 77.3794 5.62211 77.3794 8.65035V14.2879H73.9621V9.46671C73.9621 8.13589 73.5837 7.77238 72.7317 7.77238C71.8797 7.77238 71.3814 8.32381 71.3814 9.60226V14.2879H67.9917L68.004 4.95362ZM85.2598 0.268013V5.86856L85.2229 5.88704C84.9137 5.53008 84.5308 5.24465 84.1006 5.05051C83.6704 4.85636 83.2033 4.75813 82.7314 4.76262C80.3938 4.76262 78.6036 6.74345 78.6036 9.62074C78.6036 12.498 80.3722 14.4789 82.9406 14.4789C84.0049 14.4789 84.8231 14.1338 85.4013 13.4284H85.4382V14.2879H88.671V0.268013H85.2598ZM83.6819 11.5061C82.7314 11.5061 82.0271 10.7636 82.0271 9.62074C82.0271 8.47784 82.7314 7.75389 83.6819 7.75389C84.6324 7.75389 85.3952 8.5148 85.3952 9.62074C85.3952 10.7267 84.6723 11.5061 83.6819 11.5061ZM99.4428 9.54989C99.4428 6.74961 97.4466 4.76878 94.7644 4.76878C91.9499 4.76878 89.9352 6.80815 89.9352 9.6269C89.9352 12.5011 92.0268 14.485 94.8228 14.485C96.9759 14.485 98.3601 13.798 99.1291 12.8461L97.3051 10.8253C97.0441 11.1254 96.723 11.3671 96.3626 11.5348C96.0023 11.7025 95.6108 11.7925 95.2134 11.7987C94.1861 11.7987 93.4048 11.3613 93.2541 10.4648H99.3567C99.4052 10.1621 99.434 9.85642 99.4428 9.54989ZM93.2633 8.62571C93.3062 8.26777 93.4811 7.93881 93.7537 7.7034C94.0263 7.468 94.3769 7.34317 94.7367 7.35341C95.478 7.35341 95.9917 7.81243 96.1424 8.6103L93.2633 8.62571ZM100.738 4.96902H104.143V6.22591H104.18C104.459 5.79055 104.841 5.43075 105.292 5.17825C105.744 4.92575 106.25 4.7883 106.767 4.77802H106.785V8.40082C106.502 8.38234 106.216 8.38234 106.062 8.38234C104.752 8.38234 104.143 9.12476 104.143 10.2122V14.2879H100.738V4.96902ZM108.797 7.39346C108.797 3.49957 111.257 0.360431 115.65 0.360431C116.686 0.362339 117.709 0.59884 118.642 1.05227C119.575 1.50569 120.393 2.16432 121.036 2.97895L119.322 4.42684C118.304 3.17303 117.092 2.55691 115.65 2.55691C113.051 2.55691 111.224 4.50385 111.224 7.39346C111.224 10.2091 113.088 12.1345 115.687 12.1345C116.401 12.1226 117.103 11.9481 117.74 11.6241C118.377 11.3001 118.932 10.8352 119.362 10.2646L121.076 11.7063C120.435 12.5209 119.615 13.1773 118.681 13.6249C117.747 14.0725 116.722 14.2993 115.687 14.2879C111.962 14.3002 108.797 11.8727 108.797 7.39346ZM122.284 9.54989C122.284 6.71573 124.228 4.67328 126.806 4.67328C127.357 4.65155 127.905 4.7566 128.409 4.98037C128.913 5.20414 129.359 5.54066 129.713 5.96406L129.75 5.94558V4.78111H131.903V14.1862H129.842V12.9386H129.802C129.457 13.3989 129.005 13.7678 128.485 14.0132C127.965 14.2585 127.393 14.3729 126.818 14.3464C124.228 14.3402 122.284 12.4303 122.284 9.52216V9.54989ZM129.845 9.56837C129.845 7.89252 128.71 6.62023 127.172 6.62023C125.634 6.62023 124.478 7.75697 124.478 9.56837C124.478 11.2257 125.576 12.3995 127.172 12.3995C128.633 12.3717 129.845 11.235 129.845 9.54989V9.56837ZM133.656 4.80883H135.809V6.21359H135.846C136.174 5.74473 136.609 5.3606 137.114 5.09282C137.62 4.82504 138.181 4.68125 138.753 4.67328H139.03V7.05459C138.777 7.03611 138.528 7.01455 138.374 7.01455C136.738 7.01455 135.815 8.19134 135.815 9.73164V14.1862H133.662L133.656 4.80883ZM140.423 4.80883H142.576V5.92401H142.613C142.986 5.51093 143.445 5.18483 143.957 4.96872C144.469 4.75261 145.023 4.65176 145.578 4.67328C148.174 4.67328 150.118 6.71573 150.118 9.54989C150.118 12.458 148.174 14.368 145.56 14.368C145.001 14.3917 144.444 14.2856 143.933 14.0579C143.422 13.8302 142.97 13.4872 142.613 13.0556L142.576 13.0741V18H140.423V4.80883ZM147.913 9.54989C147.913 7.73849 146.701 6.60175 145.2 6.60175C143.585 6.60175 142.469 7.87404 142.469 9.54989C142.451 9.91987 142.509 10.2896 142.64 10.636C142.771 10.9824 142.971 11.2982 143.229 11.5637C143.487 11.8292 143.797 12.0388 144.139 12.1794C144.481 12.32 144.849 12.3886 145.218 12.381C146.796 12.3717 147.913 11.198 147.913 9.54989ZM151.466 9.50984C151.466 6.73729 153.428 4.6548 156.387 4.6548C159.272 4.6548 161.308 6.62023 161.308 9.50984C161.308 12.3995 159.269 14.3495 156.387 14.3495C153.428 14.3402 151.466 12.2577 151.466 9.5006V9.50984ZM159.125 9.50984C159.125 7.77546 157.931 6.60175 156.393 6.60175C154.757 6.60175 153.659 7.87404 153.659 9.50984C153.659 11.1456 154.775 12.381 156.393 12.381C157.913 12.3717 159.125 11.198 159.125 9.5006V9.50984ZM162.665 9.50984C162.665 6.73729 164.63 4.6548 167.586 4.6548C170.472 4.6548 172.508 6.62023 172.508 9.50984C172.508 12.3995 170.465 14.3495 167.586 14.3495C164.63 14.3402 162.665 12.2577 162.665 9.5006V9.50984ZM170.324 9.50984C170.324 7.77546 169.133 6.60175 167.592 6.60175C165.956 6.60175 164.861 7.87404 164.861 9.50984C164.861 11.1456 165.978 12.381 167.592 12.381C169.112 12.3717 170.324 11.198 170.324 9.5006V9.50984ZM173.843 0H175.996V14.1862H173.843V0Z" fill="white"/>
</g>
<defs>
<clipPath id="clip0">
<rect width="176" height="18" fill="white"/>
</clipPath>
</defs>
</svg>
