<svg fill="none" height="22" viewBox="0 0 224 22" width="224" xmlns="http://www.w3.org/2000/svg"><g fill="#fff"><path d="m15.8442 15.9455c.8556-.8663 1.3355-2.036 1.3355-3.255 0-1.2189-.4799-2.3886-1.3355-3.25498l-8.02881-8.06503c-.42529-.426243-.93019-.764358-1.48587-.99504s-1.15125-.3494128-1.75272-.3494128-1.19705.1187308-1.75273.3494128-1.06058.568797-1.48586.99504c-.857152.86478-1.33821 2.03421-1.33821 3.25312s.481058 2.38834 1.33821 3.25312l8.02884 8.06877c.85985.859 2.02445 1.3414 3.23855 1.3414 1.2142 0 2.3788-.4824 3.2386-1.3414zm24.1692-14.57501c-.8598-.858995-2.0244-1.3413418-3.2386-1.3413418-1.2141 0-2.3787.4823468-3.2385 1.3413418l-4.8842 4.89474-4.8842-4.89474c-.8602-.861294-2.0264-1.3450994-3.2424-1.3450994-1.2159 0-2.3821.4838054-3.2423 1.3450994-.8574.86542-1.3385 2.03548-1.3385 3.255 0 1.21953.4811 2.38959 1.3385 3.25501l8.0364 8.065c.8984.8577 2.0916 1.3361 3.3325 1.3361 1.2408 0 2.4341-.4784 3.3325-1.3361l8.0288-8.065c.8556-.86638 1.3355-2.03608 1.3355-3.25501 0-1.21892-.4799-2.38862-1.3355-3.255z"/><path d="m47.1211.640082h4.7527l2.412 9.364018h.0714l2.2242-9.364018h4.685l2.1791 9.341438h.0677l2.412-9.341438h4.7565l-5.1773 16.702418h-4.0501l-2.4609-10.16605h-.0451l-2.5999 10.16605h-4.0501zm23.3877 11.928118v-6.75098h4.1704v5.73818c0 1.6491.4433 2.3306 1.5028 2.3306.8867 0 1.5667-.7078 1.5667-2.2817v-5.78708h4.1929v11.52528h-4.1967v-1.22l-.0451-.0263c-.3742.4729-.8523.8529-1.3971 1.1102s-1.1416.3851-1.7438.3733c-2.3406 0-4.0501-1.2689-4.0501-5.0115zm13.2174-6.75098h4.1891v1.21992h.0489c.397-.46776.8929-.84116 1.4518-1.09318.5588-.25201 1.1665-.37633 1.7792-.36395 2.3181 0 4.0764 1.05802 4.0764 4.80059v6.9619h-4.1928v-5.949c0-1.64919-.4697-2.09725-1.5029-2.09725s-1.6643.68527-1.6643 2.25915v5.7871h-4.1854zm21.2648-5.7908637v6.9166537l-.045.02636c-.38-.44107-.852-.79383-1.382-1.03377-.53-.23993-1.106-.36127-1.687-.35559-2.8821 0-5.0837 2.44737-5.0837 6.00169 0 3.5544 2.1791 5.998 5.3427 5.998 1.311 0 2.318-.4255 3.005-1.2953h.057v1.0581h3.982v-17.3161437zm-1.942 13.8822437c-1.172 0-2.04-.9187-2.04-2.3269s.868-2.30804 2.04-2.30804 2.107.94134 2.107 2.30804c0 1.3668-.89 2.3269-2.107 2.3269zm19.409-2.421c0-3.46022-2.461-5.90759-5.764-5.90759-3.464 0-5.947 2.51891-5.947 6.00169 0 3.5506 2.574 5.998 6.011 5.998 2.63 0 4.355-.8472 5.317-2.0219l-2.255-2.4964c-.32.3703-.715.6687-1.159.8756-.443.207-.925.3179-1.414.3255-1.266 0-2.224-.5422-2.412-1.6491h7.514c.058-.3728.095-.7487.109-1.1258zm-7.612-1.1559c.057-.44008.275-.84303.613-1.12996.338-.28694.77-.43718 1.213-.42132.913 0 1.544.56478 1.732 1.55128zm9.205-4.51825h4.193v1.55126h.045c.343-.53765.814-.98214 1.369-1.2941.556-.31196 1.18-.48176 1.817-.49436h.022v4.49935c-.349-.0263-.702-.0263-.89-.0263-1.616 0-2.363.9187-2.363 2.2591v5.0341h-4.193zm13.082-5.177133h4.508l4.167 8.306003h.049l4.133-8.306003h4.508v16.702383h-4.403v-8.20812h-.068l-2.788 5.19972h-2.832l-2.788-5.24866h-.072v8.25706h-4.414zm19.161 10.937883c0-3.55058 2.577-5.99795 6.3-5.99795 3.724 0 6.279 2.44737 6.279 5.99795 0 3.5506-2.6 6.0017-6.279 6.0017-3.678 0-6.3-2.4474-6.3-6.0017zm8.363 0c0-1.3404-.845-2.28171-2.063-2.28171-1.217 0-2.085.94131-2.085 2.28171s.891 2.3081 2.085 2.3081c1.195 0 2.044-.9639 2.044-2.3081zm9.787 4.6839-.049.0226v1.058h-3.975v-17.3161089h4.193v6.9430089h.045c.379-.44286.851-.79686 1.381-1.03695s1.107-.36039 1.689-.3524c2.878 0 5.08 2.44737 5.08 5.99795 0 3.5506-2.202 6.0017-5.339 6.0017-1.311 0-2.341-.4255-3.043-1.3178zm4.167-4.6839c0-1.363-.864-2.3043-2.036-2.3043-1.24 0-2.131.9413-2.131 2.3043s.891 2.3306 2.131 2.3306c1.153 0 2.017-.9187 2.017-2.3306zm5.598-9.33768c0-1.25004 1.007-2.23652 2.412-2.23652s2.359.963888 2.359 2.23652c.004.30932-.056.61607-.176.90125-.119.28518-.296.54271-.519.75663s-.487.37967-.777.48697c-.289.10731-.598.15389-.906.13686-.31.01739-.62-.02869-.912-.13545-.291-.10676-.558-.27194-.784-.48547-.225-.21353-.405-.47092-.528-.75647-.124-.28554-.187-.59324-.188-.90432zm.278 3.57317h4.193v11.52901h-4.208zm6.421-5.7870989h4.193v17.3199089h-4.193zm6.161 2.2139289c0-1.25004 1.007-2.23652 2.431-2.23652s2.39.963888 2.39 2.23652c0 1.27264-1.003 2.28171-2.39 2.28171-.311.02006-.624-.02405-.917-.1296-.294-.10555-.563-.27031-.791-.48412-.228-.2138-.409-.47211-.534-.75899-.124-.28688-.188-.59624-.189-.909zm.278 3.57317h4.193v11.52901h-4.193zm6.793 7.90691v-4.56343h-1.24v-3.34348h1.24v-3.62212l4.193-.4217v4.04382h2.48v3.34348h-2.48v3.67103c0 .5385.068 1.1522.751 1.1522.289-.011.574-.0668.846-.1657l1.029 2.918c-1.019.6109-2.195.9057-3.381.8472-1.939 0-3.438-1.2237-3.438-3.8593zm11.85 2.7749-4.381-10.68181h4.475l1.878 5.43691h.072l1.826-5.43691h4.132l-5.879 16.19031h-4.069z"/></g></svg>