<svg width="188" height="24" viewBox="0 0 188 24" fill="none" xmlns="http://www.w3.org/2000/svg">
<path d="M98.2383 0.662842H101.863L107.417 11.0297H107.464L113.018 0.662842H116.643V18.8877H113.018V7.57408H112.971L108.594 15.4321H106.287L101.91 7.57408H101.863V18.8877H98.2383V0.662842Z" fill="#1F1F1F"/>
<path d="M118.383 12.639C118.383 8.8994 121.019 6.20117 125.02 6.20117C128.927 6.20117 131.61 8.85206 131.61 12.639C131.61 16.426 128.88 19.1242 125.02 19.1242C121.066 19.1716 118.383 16.3787 118.383 12.639ZM128.268 12.639C128.268 10.6035 126.856 9.18342 125.02 9.18342C123.043 9.18342 121.772 10.6509 121.772 12.639C121.772 14.6272 123.137 16.0947 125.02 16.0947C126.808 16.142 128.268 14.7219 128.268 12.639Z" fill="#1F1F1F"/>
<path d="M136.599 17.3728L136.552 18.8876H133.398V0H136.74V7.81065C137.635 6.72189 139 6.20118 140.506 6.20118C143.848 6.20118 146.437 8.89941 146.437 12.6864C146.437 16.568 143.942 19.1243 140.459 19.1243C138.812 19.1716 137.494 18.5562 136.599 17.3728ZM143.048 12.6864C143.048 10.5562 141.636 9.18343 139.8 9.18343C137.917 9.18343 136.552 10.6509 136.552 12.6864C136.552 14.7219 137.964 16.142 139.847 16.142C141.73 16.142 143.048 14.7219 143.048 12.6864Z" fill="#1F1F1F"/>
<path d="M148.414 6.39062H151.756V18.9823H148.414V6.39062Z" fill="#1F1F1F"/>
<path d="M154.672 0H158.014V18.8876H154.672V0Z" fill="#1F1F1F"/>
<path d="M160.84 6.39062H164.182V18.9823H160.84V6.39062Z" fill="#1F1F1F"/>
<path d="M167.901 14.9586V9.13611H166.301V6.29587H167.901V2.17753L171.243 1.79883V6.20119H172.844L174.02 9.04143H171.196V14.3905C171.196 15.4793 171.479 16 172.279 16C172.702 16 173.314 15.8107 173.879 15.574L174.726 18.2722C173.926 18.6982 173.126 19.0769 171.431 19.0769C169.313 19.1716 167.901 17.7988 167.901 14.9586Z" fill="#1F1F1F"/>
<path d="M179.997 18.1776L175.008 6.39062H178.632L181.692 14.0593H181.739L184.563 6.39062H187.999L181.268 24.0001H177.832L179.997 18.1776Z" fill="#1F1F1F"/>
<path d="M150.109 3.78703C151.123 3.78703 151.945 2.96048 151.945 1.94088C151.945 0.921278 151.123 0.0947266 150.109 0.0947266C149.095 0.0947266 148.273 0.921278 148.273 1.94088C148.273 2.96048 149.095 3.78703 150.109 3.78703Z" fill="#1F1F1F"/>
<path d="M162.535 3.78703C163.549 3.78703 164.371 2.96048 164.371 1.94088C164.371 0.921278 163.549 0.0947266 162.535 0.0947266C161.521 0.0947266 160.699 0.921278 160.699 1.94088C160.699 2.96048 161.521 3.78703 162.535 3.78703Z" fill="#1F1F1F"/>
<path d="M0 0.662842H3.85979L7.39008 12.9232H7.43716L10.685 0.662842H14.4507L17.6044 12.9232H17.6515L21.1818 0.662842H25.0416L19.2989 18.8877H16.004L12.5679 5.91728H12.5208L9.03756 18.8877H5.74261L0 0.662842Z" fill="#1F1F1F"/>
<path d="M24.9922 13.9172V6.34324H28.2871V13.0178C28.2871 15.29 28.9461 16.0947 30.5465 16.0947C32.0057 16.0947 33.2766 14.8639 33.2766 12.4497V6.2959H36.6186V18.8876H33.2766V17.4202H33.2295C32.3352 18.6036 30.9702 19.1243 29.558 19.1243C26.875 19.1716 24.9922 17.7515 24.9922 13.9172Z" fill="#1F1F1F"/>
<path d="M39.1643 6.39052H42.5063V7.99999H42.5533C43.5418 6.81656 45.001 6.20117 46.5073 6.20117C49.1432 6.20117 51.0261 7.62129 51.0261 11.5029V18.9349H47.684V12.355C47.684 9.94082 46.8368 9.23076 45.2834 9.23076C43.5889 9.23076 42.4592 10.4142 42.4592 12.6864V18.9349H39.1172V6.39052H39.1643Z" fill="#1F1F1F"/>
<path d="M52.9062 12.6864C52.9062 8.89943 55.4481 6.20121 58.8371 6.20121C60.3434 6.20121 61.7085 6.76926 62.6028 7.85801H62.6499V0.0473633H65.9448V18.9349H62.7911V17.4201C61.9438 18.5089 60.5788 19.219 58.9313 19.219C55.4481 19.1716 52.9062 16.5681 52.9062 12.6864ZM62.7911 12.6864C62.7911 10.6509 61.426 9.18346 59.4961 9.18346C57.7075 9.18346 56.3424 10.5562 56.3424 12.6864C56.3424 14.7219 57.7075 16.142 59.4961 16.142C61.2848 16.142 62.7911 14.7219 62.7911 12.6864Z" fill="#1F1F1F"/>
<path d="M79.9253 13.7278H71.2172C71.6408 15.2426 72.8176 16.142 74.5121 16.142C75.9243 16.142 76.9127 15.5266 77.5717 14.7219L79.784 16.7574C78.7485 18.1302 77.1481 19.1716 74.3709 19.1716C70.5111 19.1716 67.8281 16.6154 67.8281 12.6864C67.8281 8.89942 70.4641 6.24854 74.1827 6.24854C77.7129 6.24854 80.1606 8.89942 80.1606 12.5917C80.0194 12.9704 79.9253 13.4911 79.9253 13.7278ZM71.2172 11.3136H76.6774C76.395 9.94084 75.4536 9.08877 73.9944 9.08877C72.6764 9.08877 71.5938 9.89351 71.2172 11.3136Z" fill="#1F1F1F"/>
<path d="M81.8088 6.39052H85.1508V8.23667H85.1979C86.0922 6.95857 87.5043 6.20117 88.9164 6.20117H89.1518V9.89348C88.7752 9.89348 88.4928 9.89348 88.2575 9.89348C86.1864 9.89348 85.1037 11.3136 85.1037 13.2071V19.0296H81.7617V6.39052H81.8088Z" fill="#1F1F1F"/>
</svg>
