<svg width="186" height="18" viewBox="0 0 186 18" fill="none" xmlns="http://www.w3.org/2000/svg">
<path d="M15.8767 16.6621C16.7291 15.7985 17.2071 14.6339 17.2071 13.4204C17.2071 12.207 16.7291 11.0424 15.8767 10.1788L7.81832 2.10898C6.95568 1.25473 5.79071 0.775516 4.57667 0.775516C3.36263 0.775516 2.19766 1.25473 1.33502 2.10898V2.10898C0.479848 2.97114 0 4.13629 0 5.35063C0 6.56498 0.479848 7.73013 1.33502 8.59228L9.37813 16.6621C10.2424 17.5191 11.4103 18 12.6274 18C13.8446 18 15.0124 17.5191 15.8767 16.6621V16.6621ZM40.1242 2.10898C39.2616 1.25473 38.0966 0.775516 36.8826 0.775516C35.6685 0.775516 34.5036 1.25473 33.6409 2.10898L28.7251 7.00959L23.8245 2.10898C22.9618 1.25473 21.7968 0.775516 20.5828 0.775516C19.3688 0.775516 18.2038 1.25473 17.3412 2.10898V2.10898C16.486 2.97114 16.0061 4.13629 16.0061 5.35063C16.0061 6.56498 16.486 7.73013 17.3412 8.59228L25.3804 16.6621C26.2822 17.5195 27.4789 17.9976 28.7232 17.9976C29.9674 17.9976 31.1642 17.5195 32.0659 16.6621L40.1242 8.60754C40.9794 7.74231 41.459 6.57481 41.459 5.35826C41.459 4.14171 40.9794 2.97421 40.1242 2.10898V2.10898ZM47.3703 0.789437H52.2061L54.6583 10.2703H54.7307L56.9923 0.789437H61.7823L63.998 10.2474H64.0705L66.5227 0.789437H71.3585L66.0613 17.7109H61.9386L59.4407 7.41385H59.3911L56.7482 17.7109H52.6294L47.3703 0.789437ZM71.1487 12.8674V6.02947H75.3896V11.8416C75.3896 13.512 75.8434 14.2022 76.9151 14.2022C77.8189 14.2022 78.5092 13.4853 78.5092 11.8911V6.02947H82.7577V17.7109H78.5092V16.4638L78.4634 16.4409C78.0803 16.9159 77.5933 17.2966 77.0399 17.5538C76.4865 17.811 75.8815 17.9378 75.2714 17.9244C72.8878 17.9244 71.1487 16.6545 71.1487 12.8674ZM84.5921 6.02947H88.8596V7.26893H88.9054C89.3106 6.7958 89.8155 6.41813 90.3839 6.16298C90.9522 5.90782 91.5699 5.78149 92.1928 5.79302C94.5535 5.79302 96.3383 6.86467 96.3383 10.6517V17.7109H92.0707V11.6776C92.0707 10.011 91.594 9.55715 90.5453 9.55715C89.4965 9.55715 88.8558 10.2474 88.8558 11.8454V17.7109H84.5921V6.02947ZM106.22 0.167803V7.17358L106.174 7.20028C105.787 6.75403 105.307 6.39712 104.769 6.15416C104.23 5.91121 103.645 5.78799 103.054 5.79302C100.121 5.79302 97.8828 8.27193 97.8828 11.8683C97.8828 15.4646 100.099 17.9244 103.352 17.9244C104.686 17.9244 105.712 17.4973 106.426 16.6163H106.471V17.6956H110.521V0.167803H106.22ZM104.244 14.2251C103.054 14.2251 102.173 13.2946 102.173 11.8683C102.173 10.4419 103.054 9.53427 104.244 9.53427C105.434 9.53427 106.384 10.4877 106.384 11.8721C106.384 13.2564 105.484 14.2251 104.244 14.2251ZM118.122 5.78921C114.598 5.78921 112.074 8.33676 112.074 11.8644C112.074 15.4608 114.694 17.9359 118.195 17.9359C120.887 17.9359 122.626 17.0778 123.602 15.8879L121.314 13.3632C120.987 13.7383 120.585 14.0404 120.134 14.25C119.682 14.4596 119.192 14.572 118.694 14.5798C117.409 14.5798 116.433 14.0306 116.242 12.9094H123.869C123.931 12.5307 123.969 12.1486 123.984 11.7653V11.7653C123.984 8.26812 121.482 5.78921 118.122 5.78921V5.78921ZM116.242 10.6021C116.299 10.155 116.521 9.74539 116.865 9.45388C117.209 9.16238 117.649 9.01011 118.099 9.02705C119.03 9.02705 119.671 9.5991 119.861 10.6021H116.242ZM125.605 6.02566H129.868V7.60453H129.918C130.266 7.05896 130.744 6.60804 131.309 6.29197C131.874 5.97591 132.509 5.8045 133.156 5.79302H133.179V10.3428C132.824 10.3199 132.466 10.3199 132.275 10.3199C130.631 10.3199 129.868 11.2466 129.868 12.6081V17.7109H125.605V6.02566ZM136.096 0.625448H142.271C146.355 0.625448 148.109 2.97851 148.109 6.15151C148.109 9.85081 145.611 11.6051 141.935 11.6051H139.002V17.6842H136.096V0.625448ZM141.645 8.98509C144.025 8.98509 145.108 7.78378 145.108 6.10193C145.108 4.30186 143.964 3.21877 141.863 3.21877H139.002V8.98509H141.645ZM149.936 11.8683C149.936 8.33676 152.362 5.78921 155.58 5.78921C156.269 5.76203 156.954 5.89336 157.584 6.17306C158.213 6.45277 158.77 6.87337 159.211 7.40241L159.257 7.37571V5.95701H161.949V17.6842H159.379V16.1587L159.329 16.1358C158.897 16.7079 158.331 17.1655 157.68 17.4686C157.03 17.7717 156.316 17.9112 155.599 17.8748C152.362 17.8748 149.936 15.4989 149.936 11.8683V11.8683ZM159.379 11.895C159.379 9.80504 157.96 8.21854 156.038 8.21854C154.116 8.21854 152.674 9.63343 152.674 11.895C152.674 13.9582 154.043 15.4264 156.038 15.4264C157.865 15.4264 159.379 14.0077 159.379 11.895ZM165.336 5.95701H168.028V7.71132H168.074C168.486 7.12948 169.029 6.65337 169.66 6.32195C170.292 5.99052 170.992 5.81319 171.705 5.80446H172.04V8.80966C171.728 8.78678 171.415 8.76009 171.224 8.76009C169.18 8.76009 168.028 10.2284 168.028 12.1505V17.6842H165.336V5.95701ZM174.287 0H176.956V11.3648L177.006 11.3877L181.762 5.95701H184.965L180.736 10.6784L185.037 17.6956H182.009L178.863 12.5166L176.956 14.5836V17.6842H174.287V0Z" fill="white"/>
</svg>
