<svg height="22" viewBox="0 0 215 22" width="215" xmlns="http://www.w3.org/2000/svg"><path d="m15.6190342 16.3107992c1.760979-1.7756489 1.760979-4.6515288 0-6.42717777l-7.91399496-7.96714017c-1.76380439-1.77280448-4.62050066-1.77280448-6.38430506 0-1.76097891 1.77564893-1.76097891 4.65152889 0 6.42717782l7.91399502 7.96714012c1.7638044 1.7728045 4.6205007 1.7728045 6.384305 0zm23.8205266-14.39055275c-1.766346-1.76660938-4.617959-1.76660938-6.384305 0l-4.8134743 4.85709396-4.8134743-4.85709396c-1.766346-1.76660938-4.617959-1.76660938-6.384305 0-1.7568707 1.77735813-1.7568707 4.64981969 0 6.42717782l7.913995 7.96337493c1.839602 1.7613934 4.7279666 1.7613934 6.5675686 0l7.913995-7.96337493c1.7548252-1.77820764 1.7548252-4.64897018 0-6.42717782zm8.1061392-.98647955h4.693792l2.3786866 9.2661304h.0710613l2.195423-9.2661304h4.6264707l2.1393219 9.2322437h.0673213l2.3824267-9.23977408h4.6937919l-5.0902397 16.53671058h-4.0018784l-2.4273075-10.05682011h-.0448809l-2.5694304 10.05682011h-4.0168386zm23.0949524 11.8038679v-6.6832107h4.1140806v5.6816704c0 1.6303269.4375885 2.3042957 1.4960293 2.3042957.8789172 0 1.5521304-.7003252 1.5521304-2.2591135v-5.7268526h4.136521v11.408523h-4.1664416v-1.2123909l-.048621-.0225911c-.7487895.948255-1.893698 1.4911449-3.0967806 1.4684237-2.3151054 0-4.0018784-1.2575731-4.0018784-4.958754zm13.0491156-6.6832107h4.1402611v1.21239089h.0448809c.7967548-.93582272 1.9661317-1.46578307 3.1902825-1.44583262 2.2889248 0 4.0243188 1.05048777 4.0243188 4.75166863v6.8902961h-4.1552214v-5.8925209c0-1.62656175-.460029-2.07085406-1.4960293-2.07085406s-1.6418922.67396886-1.6418922 2.23652236v5.7268526h-4.1215607zm20.981811-5.72685265v6.84511381l-.044881.02259114c-.760895-.88300194-1.868354-1.38539354-3.029459-1.37429403-2.8424559 0-5.0191786 2.4210166-5.0191786 5.93770323 0 3.5166866 2.1505422 5.9377032 5.2735036 5.9377032 1.294065 0 2.288925-.4217011 2.992058-1.2839294h.044881v1.0504877h3.930817v-17.13537565zm-1.918658 13.73540985c-1.155682 0-2.012159-.9074105-2.012159-2.3042957s.856477-2.2817046 2.012159-2.2817046c1.155683 0 2.083221.9300017 2.083221 2.2817046s-.878917 2.3042957-2.083221 2.3042957zm19.164136-2.390895c0-3.42255695-2.427308-5.84357355-5.688652-5.84357355-3.422167 0-5.871915 2.49255519-5.871915 5.93770325 0 3.5129214 2.54325 5.9377032 5.942977 5.9377032 2.618051 0 4.301084-.8396372 5.236102-2.0030806l-2.217863-2.469964c-.641749.7417914-1.566243 1.1742941-2.54325 1.1897997-1.249184 0-2.199163-.5346568-2.382427-1.6303269h7.420306c.059034-.3700634.094016-.7436109.104722-1.1182611zm-7.513807-1.1295568c.107943-.90669796.884766-1.58098276 1.791495-1.55502308.901357 0 1.52595.56101318 1.709213 1.53619718zm9.088378-4.46927946h4.140261v1.53619716h.044881c.690136-1.08058293 1.869556-1.74413801 3.145401-1.76963888h.022441v4.42786238c-.344087-.0225911-.691914-.0225911-.878918-.0225911-1.593271 0-2.333805.9074106-2.333805 2.2365223v4.9813452h-4.140261zm9.798992 2.96320384c0-4.75919905 2.992058-8.59592675 8.332883-8.59592675 2.553731.00472323 4.965488 1.18334093 6.548868 3.20041074l-2.083221 1.76963889c-1.237964-1.53243197-2.711553-2.28546979-4.465647-2.28546979-3.160362 0-5.381966 2.37959952-5.381966 5.91134691 0 3.44138282 2.266485 5.79462602 5.426847 5.79462602 1.759632-.0294047 3.407954-.8722918 4.469387-2.2854698l2.083221 1.7621085c-1.57991 2.0178996-4.00053 3.183483-6.552608 3.1552285-4.529229.0150608-8.377764-2.9519083-8.377764-8.42649322zm16.400221 2.63563242c0-3.46397403 2.363726-5.96029441 5.497907-5.96029441 1.357296-.05383966 2.662696.52884361 3.53437 1.57761424l.044881-.02259114v-1.42324148h2.618051v11.49512239h-2.505849v-1.5249016h-.048621c-.852158 1.1423289-2.210316 1.7865001-3.627871 1.7206914-3.149142-.0075304-5.512868-2.3419476-5.512868-5.8962861zm9.1931.0225911c0-2.04826289-1.380087-3.60328599-3.250124-3.60328599-1.870036 0-3.276304 1.38935478-3.276304 3.60328599 0 2.0256717 1.335206 3.4602088 3.276304 3.4602088 1.776535-.0338867 3.250124-1.4232415 3.250124-3.4827999zm4.633951-5.81721719h2.618051v1.71692624h.044881c.809468-1.16249671 2.124304-1.86284879 3.534369-1.88259456h.336607v2.91049118c-.306686-.02259113-.609632-.04894745-.796636-.04894745-1.989719 0-3.111741 1.43830228-3.111741 3.32089678v5.4444635h-2.618051zm8.228161 0h2.618051v1.36299846h.044881c.917543-1.02206057 2.238023-1.58193096 3.605431-1.52866678 3.156621 0 5.520348 2.49632038 5.520348 5.96029441 0 3.5543385-2.363727 5.8887557-5.542789 5.8887557-1.377758.0587714-2.703494-.5347109-3.58299-1.6039705l-.044881.0225911v6.0205374h-2.618051zm9.107078 5.79462609c0-2.21393124-1.473589-3.60328603-3.298744-3.60328603-1.963539 0-3.321186 1.55502311-3.321186 3.60328603-.043724.9140562.291303 1.8053907.925148 2.4613356.633844.6559448 1.509659 1.0176713 2.418478.9988732 1.918658-.0112956 3.276304-1.4458327 3.276304-3.4602088zm4.319785-.0489475c0-3.38867021 2.386167-5.93393805 5.984117-5.93393805 3.508189 0 5.984117 2.40219066 5.984117 5.93393805 0 3.5317474-2.479668 5.9151121-5.984117 5.9151121-3.59795-.0112956-5.984117-2.5565634-5.984117-5.9264077zm9.312782 0c0-2.11980147-1.451148-3.55433853-3.321185-3.55433853-1.989719 0-3.324925 1.55502311-3.324925 3.55433853 0 1.9993154 1.357647 3.5091563 3.324925 3.5091563 1.847596-.0112956 3.321185-1.4458327 3.321185-3.5204519zm4.304824 0c0-3.38867021 2.389907-5.93393805 5.984118-5.93393805 3.508188 0 5.984117 2.40219066 5.984117 5.93393805 0 3.5317474-2.483409 5.9151121-5.984117 5.9151121-3.594211-.0112956-5.984118-2.5565634-5.984118-5.9264077zm9.312783 0c0-2.11980147-1.447408-3.55433853-3.321185-3.55433853-1.989719 0-3.321185 1.55502311-3.321185 3.55433853 0 1.9993154 1.357646 3.5091563 3.321185 3.5091563 1.847596-.0112956 3.321185-1.4458327 3.321185-3.5204519zm4.278644-11.28444292h2.618051v17.00000002h-2.618051z" fill="#fff"/></svg>