<svg width="242" height="24" viewBox="0 0 242 24" fill="none" xmlns="http://www.w3.org/2000/svg">
<path d="M17.1065 17.7313C18.0321 16.7878 18.5515 15.512 18.5515 14.1822C18.5515 12.8523 18.0321 11.5765 17.1065 10.633L8.43615 1.83367C7.50811 0.895555 6.2503 0.368652 4.93891 0.368652C3.62751 0.368652 2.36971 0.895555 1.44167 1.83367V1.83367C0.518084 2.77825 0 4.0537 0 5.38285C0 6.712 0.518084 7.98745 1.44167 8.93203L10.112 17.7313C11.0401 18.6695 12.2979 19.1964 13.6093 19.1964C14.9207 19.1964 16.1785 18.6695 17.1065 17.7313ZM43.2078 1.83367C42.2787 0.897577 41.0213 0.37207 39.7105 0.37207C38.3998 0.37207 37.1424 0.897577 36.2133 1.83367L30.9398 7.18959L25.6622 1.83367C24.7331 0.897577 23.4757 0.37207 22.1649 0.37207C20.8542 0.37207 19.5968 0.897577 18.6677 1.83367V1.83367C17.7441 2.77825 17.226 4.0537 17.226 5.38285C17.226 6.712 17.7441 7.98745 18.6677 8.93203L27.338 17.7355C28.3091 18.6702 29.5978 19.1915 30.9377 19.1915C32.2776 19.1915 33.5663 18.6702 34.5374 17.7355L43.2078 8.93203C44.1313 7.98745 44.6494 6.712 44.6494 5.38285C44.6494 4.0537 44.1313 2.77825 43.2078 1.83367V1.83367Z" fill="#141414"/>
<path d="M51 0.696975H56.1342L58.7361 10.9151H58.814L61.2151 0.696975H66.2715L68.6235 10.8861H68.7013L71.2951 0.696975H76.4252L70.8525 18.922H66.4764L63.8212 7.83267H63.7679L60.9611 18.922H56.589L51 0.696975ZM76.2531 13.7113V6.3433H80.7603V12.6078C80.7603 14.4041 81.2398 15.1468 82.3789 15.1468C83.3377 15.1468 84.0711 14.3793 84.0711 12.6576V6.3433H88.5989V18.922H84.067V17.5862L84.0179 17.5613C83.614 18.0767 83.0981 18.4908 82.5104 18.7714C81.9227 19.052 81.2789 19.1916 80.6292 19.1793C78.101 19.1793 76.2531 17.7936 76.2531 13.7113ZM90.5248 6.3433H95.032V7.67917H95.0812C95.5104 7.16862 96.0462 6.7609 96.6499 6.4854C97.2536 6.20991 97.9102 6.07353 98.5723 6.08608C101.076 6.08608 102.973 7.24356 102.973 11.3258V18.922H98.4658V12.446C98.4658 10.6455 97.9577 10.1601 96.8472 10.1601C95.7368 10.1601 95.0607 10.8861 95.0607 12.6078V18.922H90.5534L90.5248 6.3433ZM113.5 0.0290406V7.57545L113.45 7.60035C113.04 7.12026 112.531 6.73621 111.959 6.47476C111.388 6.21331 110.767 6.08069 110.14 6.08608C107.025 6.08608 104.649 8.75782 104.649 12.6327C104.649 16.5075 107.001 19.1793 110.414 19.1793C111.832 19.1793 112.918 18.7146 113.692 17.7646H113.741V18.922H118.007V0.0290406H113.5ZM111.402 15.1758C110.14 15.1758 109.201 14.1718 109.201 12.6327C109.201 11.0935 110.14 10.1186 111.402 10.1186C112.664 10.1186 113.68 11.1433 113.68 12.6327C113.68 14.122 112.705 15.1758 111.389 15.1758H111.402ZM132.348 12.529C132.348 8.75782 129.693 6.08608 126.128 6.08608C122.383 6.08608 119.703 8.8325 119.703 12.6327C119.703 16.5075 122.485 19.1793 126.202 19.1793C129.07 19.1793 130.906 18.2541 131.938 16.9722L129.513 14.2506C129.165 14.6535 128.738 14.978 128.259 15.2031C127.779 15.4283 127.259 15.549 126.731 15.5575C125.366 15.5575 124.325 14.9684 124.124 13.7611H132.242C132.304 13.3532 132.339 12.9416 132.348 12.529V12.529ZM124.129 11.2844C124.19 10.8042 124.425 10.3645 124.79 10.0514C125.155 9.73824 125.622 9.5743 126.099 9.5917C127.087 9.5917 127.771 10.2057 127.972 11.2844H124.129ZM134.069 6.3433H138.597V8.0401H138.646C139.016 7.45234 139.524 6.96636 140.125 6.62544C140.725 6.28451 141.4 6.09923 142.088 6.08608H142.113V10.9898C141.732 10.9649 141.355 10.9649 141.15 10.9649C139.404 10.9649 138.597 11.9647 138.597 13.4292V18.922H134.069V6.3433ZM148.21 0.692826H153.065L157.573 9.7535H157.626L162.068 0.692826H166.948V18.9179H162.195V9.95678H162.117L159.109 15.628H156.048L153.041 9.90285H152.963V18.9179H148.21V0.692826ZM168.869 12.6285C168.869 8.75367 171.648 6.08194 175.671 6.08194C179.695 6.08194 182.449 8.75367 182.449 12.6285C182.449 16.5034 179.642 19.1751 175.671 19.1751C171.701 19.1751 168.869 16.5034 168.869 12.6285V12.6285ZM177.884 12.6285C177.884 11.164 176.974 10.1393 175.659 10.1393C174.344 10.1393 173.41 11.164 173.41 12.6285C173.41 14.093 174.368 15.1426 175.659 15.1426C176.95 15.1426 177.896 14.1054 177.896 12.6285H177.884ZM188.484 17.7355L188.435 17.7604V18.9179H184.141V0.024892H188.669V7.5962H188.718C189.127 7.11361 189.636 6.72788 190.209 6.46624C190.782 6.20459 191.405 6.07341 192.033 6.08194C195.143 6.08194 197.519 8.75367 197.519 12.6285C197.519 16.5034 195.143 19.1751 191.762 19.1751C190.336 19.1751 189.222 18.7105 188.484 17.7355ZM192.992 12.6285C192.992 11.1392 192.057 10.1144 190.791 10.1144C189.451 10.1144 188.488 11.1392 188.488 12.6285C188.488 14.1179 189.451 15.1717 190.791 15.1717C192.033 15.1717 192.967 14.1677 192.967 12.6285H192.992ZM199.011 2.43941C199.011 1.07865 200.097 0 201.596 0C203.096 0 204.178 1.05376 204.178 2.43941C204.182 2.77825 204.118 3.1144 203.988 3.42678C203.858 3.73917 203.666 4.02105 203.424 4.25475C203.182 4.48846 202.894 4.66895 202.58 4.7849C202.265 4.90086 201.93 4.94978 201.596 4.92861C201.263 4.94607 200.93 4.89461 200.617 4.77736C200.303 4.66011 200.017 4.47952 199.775 4.24662C199.533 4.01371 199.341 3.73336 199.209 3.42266C199.078 3.11195 199.01 2.77741 199.011 2.43941V2.43941ZM199.314 6.33915H203.821V18.9179H199.314V6.33915ZM206.268 0.024892H210.775V18.9179H206.268V0.024892ZM212.918 2.43941C212.918 1.07865 214.004 0 215.528 0C217.052 0 218.109 1.05376 218.109 2.43941C218.114 2.77825 218.05 3.1144 217.92 3.42678C217.79 3.73917 217.598 4.02105 217.356 4.25475C217.113 4.48846 216.826 4.66895 216.511 4.7849C216.197 4.90086 215.862 4.94978 215.528 4.92861C215.193 4.94959 214.857 4.90074 214.541 4.78507C214.225 4.66941 213.935 4.48938 213.691 4.25611C213.446 4.02285 213.251 3.74129 213.118 3.42882C212.986 3.11636 212.917 2.77963 212.918 2.43941V2.43941ZM213.221 6.33915H217.728V18.9179H213.221V6.33915ZM220.552 14.9642V9.98583H219.216V6.33915H220.556V2.38548L225.063 1.92498V6.33915H227.743V9.98583H225.063V13.9893C225.063 14.5784 225.141 15.2339 225.882 15.2339C226.193 15.2234 226.5 15.1632 226.792 15.0555L227.911 18.2541C226.815 18.9193 225.549 19.2412 224.272 19.1793C222.17 19.1751 220.552 17.8392 220.552 14.9642ZM233.348 17.9927L228.64 6.33915H233.471L235.491 12.2676H235.569L237.54 6.33915H241.998L235.651 24H231.25L233.348 17.9927Z" fill="#141414"/>
</svg>
