<svg width="181" height="22" viewBox="0 0 181 22" fill="none" xmlns="http://www.w3.org/2000/svg">
<g clip-path="url(#clip0)">
<path d="M15.9714 16.2928C16.829 15.4397 17.3098 14.2894 17.3098 13.0908C17.3098 11.8921 16.829 10.7418 15.9714 9.8887L7.86448 1.91747C6.99663 1.07365 5.82464 0.60029 4.60328 0.60029C3.38192 0.60029 2.20993 1.07365 1.34209 1.91747V1.91747C0.481764 2.76909 -0.000976562 3.92001 -0.000976562 5.11952C-0.000976563 6.31903 0.481764 7.46995 1.34209 8.32158L9.43368 16.2928C10.3032 17.1394 11.4781 17.6144 12.7025 17.6144C13.927 17.6144 15.1019 17.1394 15.9714 16.2928V16.2928ZM40.3651 1.91747C39.4973 1.07365 38.3253 0.60029 37.1039 0.60029C35.8826 0.60029 34.7106 1.07365 33.8427 1.91747L28.8972 6.75822L23.9671 1.91747C23.0992 1.07365 21.9273 0.60029 20.7059 0.60029C19.4845 0.60029 18.3125 1.07365 17.4447 1.91747V1.91747C16.5844 2.76909 16.1016 3.92001 16.1016 5.11952C16.1016 6.31903 16.5844 7.46995 17.4447 8.32158L25.5325 16.2928C26.4405 17.138 27.6441 17.6092 28.8953 17.6092C30.1466 17.6092 31.3501 17.138 32.2582 16.2928L40.3651 8.33664C41.2255 7.48198 41.708 6.32874 41.708 5.12705C41.708 3.92537 41.2255 2.77213 40.3651 1.91747V1.91747ZM47.6549 0.614041H52.5198L54.9868 9.97911H55.0597L57.3348 0.614041H62.1537L64.3828 9.95651H64.4557L66.9227 0.614041H71.7877L66.4585 17.3288H62.311L59.798 7.15753H59.7481L57.0893 17.3288H52.9457L47.6549 0.614041ZM71.5767 12.5445V5.79007H75.8431V11.5312C75.8431 13.1812 76.2996 13.863 77.3777 13.863C78.287 13.863 78.9815 13.1548 78.9815 11.5801V5.79007H83.2556V17.3288H78.9815V16.0969L78.9354 16.0743C78.5515 16.5462 78.0623 16.9252 77.5054 17.1819C76.9486 17.4386 76.3392 17.5662 75.7241 17.5548C73.3262 17.5548 71.5767 16.2853 71.5767 12.5445ZM85.101 5.79007H89.3943V7.01438H89.4403C89.848 6.54703 90.356 6.17398 90.9277 5.92194C91.4995 5.6699 92.1209 5.54511 92.7475 5.55651C95.1225 5.55651 96.918 6.61507 96.918 10.3558V17.3288H92.6248V11.3692C92.6248 9.72295 92.1452 9.27466 91.0901 9.27466C90.035 9.27466 89.3904 9.95651 89.3904 11.5349V17.3288H85.101V5.79007ZM106.859 0V6.92021L106.813 6.94658C106.423 6.50578 105.941 6.15323 105.399 5.91324C104.857 5.67325 104.269 5.55154 103.674 5.55651C100.724 5.55651 98.4719 8.00514 98.4719 11.5575C98.4719 15.1099 100.701 17.5548 103.974 17.5548C105.317 17.5548 106.349 17.1329 107.066 16.2627H107.112V17.3288H111.187V0H106.859ZM104.872 13.8856C103.674 13.8856 102.788 12.9664 102.788 11.5575C102.788 10.1486 103.674 9.25205 104.872 9.25205C106.069 9.25205 107.024 10.1938 107.024 11.5613C107.024 12.9288 106.118 13.8856 104.872 13.8856ZM118.833 5.55274C115.288 5.55274 112.748 8.06918 112.748 11.5538C112.748 15.1062 115.384 17.551 118.906 17.551C121.615 17.551 123.364 16.7034 124.347 15.5281L122.045 13.0342C121.716 13.4047 121.311 13.7032 120.857 13.9102C120.403 14.1172 119.909 14.2282 119.409 14.236C118.116 14.236 117.134 13.6935 116.942 12.586H124.615C124.677 12.2119 124.715 11.8345 124.73 11.4558V11.4558C124.73 8.00137 122.213 5.55274 118.833 5.55274V5.55274ZM116.942 10.3068C116.999 9.86521 117.222 9.46059 117.568 9.17265C117.914 8.8847 118.357 8.73429 118.81 8.75103C119.746 8.75103 120.391 9.3161 120.583 10.3068H116.942ZM126.361 5.7863H130.65V7.34589H130.7C131.05 6.80651 131.531 6.36075 132.099 6.04848C132.668 5.73621 133.306 5.56717 133.957 5.55651H133.981V10.0507C133.624 10.0281 133.263 10.0281 133.071 10.0281C131.418 10.0281 130.65 10.9435 130.65 12.2884V17.3288H126.361V5.7863ZM136.524 8.92432C136.524 4.12877 139.62 0.259932 145.13 0.259932C146.433 0.262425 147.718 0.554105 148.89 1.11316C150.062 1.67222 151.091 2.48419 151.898 3.48836L149.749 5.27397C148.468 3.72945 146.945 2.96849 145.145 2.96849C141.884 2.96849 139.586 5.36815 139.586 8.92808C139.586 12.3938 141.93 14.7671 145.195 14.7671C146.09 14.7501 146.969 14.5341 147.766 14.1354C148.564 13.7368 149.259 13.1658 149.799 12.4654L151.932 14.2623C151.129 15.2675 150.101 16.0775 148.927 16.6295C147.753 17.1815 146.466 17.4608 145.164 17.4455C140.514 17.4455 136.524 14.4545 136.524 8.92432V8.92432ZM154.618 2.23014C154.623 1.76152 154.817 1.31391 155.157 0.985008C155.497 0.656109 155.956 0.472641 156.433 0.474658C156.912 0.472577 157.373 0.655442 157.716 0.983827C158.059 1.31221 158.257 1.75982 158.267 2.23014C158.262 2.70444 158.066 3.15762 157.723 3.49125C157.38 3.82489 156.916 4.01201 156.433 4.01199C155.952 4.01199 155.49 3.82426 155.15 3.49009C154.809 3.15593 154.618 2.70271 154.618 2.23014ZM155.079 5.71849H157.764V17.3024H155.079V5.71849ZM161.701 13.6295V7.975H160.25V5.71473H161.701V1.88356L164.409 1.59726V5.7411H167.862V8.00137H164.409V13.3846C164.409 14.5712 164.77 15.0007 165.56 15.0007C166.165 14.966 166.753 14.7945 167.279 14.4997L167.981 16.8051C167.069 17.308 166.03 17.5458 164.985 17.4908C162.971 17.4908 161.712 16.2325 161.712 13.6483L161.701 13.6295ZM173.832 16.6432L168.998 5.71849H171.899L175.141 13.4788H175.187L178.21 5.71849H180.988L174.523 22H171.718L173.832 16.6432Z" fill="white"/>
</g>
<defs>
<clipPath id="clip0">
<rect width="181" height="22" fill="white"/>
</clipPath>
</defs>
</svg>
