<svg height="17" viewBox="0 0 183 17" width="183" xmlns="http://www.w3.org/2000/svg"><path d="m47.0825532.59278583h4.7395029l2.401903 9.06851868h.071868l2.2165592-9.06851868h4.667635l2.171169 9.04642728h.071868l2.3943379-9.04642728h4.7357204l-5.1442331 16.17826677h-4.0397359l-2.4510758-9.84539948h-.0491728l-2.5910292 9.84539948h-4.0359535zm23.3116974 11.55748277v-6.54641743h4.1607768v5.56335023c0 1.5942626.4425553 2.2533226 1.4940971 2.2533226.8851107 0 1.5621825-.6811514 1.5621825-2.2091398v-5.60753303h4.1796894v11.16720143h-4.1834719v-1.1855717l-.0453903-.0220914c-.7557325.9271524-1.9124789 1.4581437-3.1281476 1.4359409-2.3338175 0-4.039736-1.2297545-4.039736-4.8490618zm13.1745323-6.54273553h4.1607767v1.18557166h.0453903c.8027251-.91657582 1.9856102-1.43417303 3.2227108-1.41016754 2.3111223 0 4.0624311 1.02356809 4.0624311 4.64655731v6.7415581h-4.1607768v-5.7658547c0-1.59426256-.469033-2.02872671-1.4940971-2.02872671s-1.6491806.66274192-1.6491806 2.19073021v5.6038512h-4.1607768zm21.2086141-5.60753307v6.70105724l-.04539.0220914c-.765926-.86396274-1.883981-1.35558868-3.05628-1.34389335-2.8747186 0-5.0685828 2.36746143-5.0685828 5.81003751 0 3.4425761 2.171169 5.8100376 5.3220118 5.8100376 1.308753 0 2.311122-.4086909 3.026019-1.2518459h.045391v1.0235681h3.937608v-16.7710526zm-1.936653 13.4462973c-1.165017 0-2.031215-.8910197-2.031215-2.2570045 0-1.36598471.866198-2.23491301 2.031215-2.23491301 1.165018 0 2.103084.91311109 2.103084 2.23491301 0 1.321802-.900241 2.2570045-2.114431 2.2570045zm19.336265-2.349052c0-3.35052858-2.451076-5.71799001-5.741872-5.71799001-3.457227 0-5.930998 2.43741753-5.930998 5.81003751 0 3.4388942 2.568334 5.8100376 5.999083 5.8100376 2.647767 0 4.342338-.8210636 5.295534-1.9587706l-2.239254-2.4153261c-.648844.7230687-1.582156 1.1445301-2.568334 1.1597983-1.259581 0-2.220342-.5228297-2.405686-1.5942625h7.493181c.057171-.3620392.090022-.7273225.098346-1.0935242zm-7.587744-1.10456983c.107599-.89100486.898221-1.55339566 1.819394-1.52430643.911588 0 1.54327.54860304 1.728614 1.50589693zm9.176404-4.3888243h4.179689v1.50589693h.045391c.695801-1.05708569 1.887799-1.70629425 3.17732-1.73049281h.022695v4.35200531c-.351775-.0220914-.699767-.0220914-.888893-.0220914-1.611355 0-2.356513.8873378-2.356513 2.1870484v4.874835h-4.179689zm10.364117-5.00370154h10.859627v2.45950892h-8.026517v4.83065226h6.740459v2.48528219h-6.740459v6.4028234h-2.83311zm12.610936-.60014963h2.625072v16.7784164h-2.625072zm15.300311 12.0545392h-8.321554c.32908 1.616354 1.569748 2.5773297 3.347534 2.5773297 1.116492.0283566 2.182553-.4523633 2.882284-1.2997105l1.823176 1.5279883c-.956978 1.2076631-2.386772 2.0950009-4.845413 2.0950009-3.464793 0-5.923433-2.2533226-5.923433-5.7400815 0-3.41680278 2.390555-5.72167192 5.738089-5.72167192 3.207581 0 5.382532 2.34905193 5.382532 5.58544162-.00791.328994-.035697.6572501-.083215.9830672zm-8.287511-2.0066352h5.711612c-.32908-1.34389338-1.263364-2.25332258-2.765026-2.25332258-1.420054-.05542287-2.670194.90371234-2.946586 2.26068638zm21.034618 2.0066352h-8.321554c.32908 1.616354 1.569748 2.5773297 3.347534 2.5773297 1.115664.0294935 2.18107-.4515622 2.878501-1.2997105l1.826959 1.5279883c-.960761 1.2076631-2.386772 2.0950009-4.845413 2.0950009-3.464793 0-5.923433-2.2533226-5.923433-5.7400815 0-3.41680278 2.386773-5.72167192 5.734307-5.72167192 3.20758 0 5.386314 2.34905193 5.386314 5.58544162-.007473.3290163-.035262.6572976-.083215.9830672zm-8.287511-2.0066352h5.711612c-.325297-1.34389338-1.263364-2.25332258-2.761243-2.25332258-1.421459-.0572811-2.673764.90228301-2.950369 2.26068638zm10.401942 3.2069345v-5.43080188h-1.391969v-2.16495696h1.403316v-3.68189958l2.62129-.27246057v3.95436015h3.347534v2.16495696h-3.347534v5.19516028c0 1.137707.351774 1.5500798 1.100714 1.5500798.592627-.0313766 1.169874-.1951565 1.687006-.478647l.677072 2.2091398c-.882347.4854046-1.889264.7141443-2.901196.65906-1.97826 0-3.196233-1.2076631-3.196233-3.703991zm-161.086364 2.4226899c1.7781271-1.7418216 1.7781271-4.5542266 0-6.29604826l-8.01516904-7.80194522c-1.78813061-1.73039713-4.67620347-1.73039713-6.46433409 0-1.78227183 1.74015605-1.78227183 4.55589224 0 6.29604829l8.01138654 7.80194519c1.78942489 1.7308245 4.67869169 1.7308245 6.46811659 0zm24.0719849-14.09431158c-1.7864176-1.73443489-4.6779166-1.73443489-6.4643341 0l-4.8756739 4.74596856-4.8756738-4.74596856c-1.7877138-1.73485888-4.6804029-1.73485888-6.4681166 0-1.7776882 1.7405618-1.7776882 4.55180459 0 6.29236639l8.015169 7.80194519c1.866321 1.7224493 4.7909219 1.7224493 6.6572428 0l8.0113866-7.80194519c1.7818362-1.73889429 1.7818362-4.5534721 0-6.29236639z" fill="#fff"/></svg>