<svg clip-rule="evenodd" fill-rule="evenodd" stroke-linejoin="round" stroke-miterlimit="1.41421" viewBox="0 0 340 100" xmlns="http://www.w3.org/2000/svg"><path d="m281.781 31.688-.339.094c-1.224-1.502-2.449-2.628-4.392-2.628-5.152 0-5.997 6.663-5.997 11.074 0 4.036 1.098 9.808 5.702 9.808 2.027 0 3.59-.985 4.899-2.628l.338.141c-.169 1.079-.296 2.159-.423 3.238l-.211.328c-2.069 1.174-4.012 1.502-6.293 1.502-7.095 0-11.023-4.646-11.023-12.435 0-8.025 4.604-13.328 11.868-13.328 1.9 0 4.392.376 6.039 1.455l.212.422c-.169.986-.254 1.971-.38 2.957zm46.748 7.649c-.803.047-1.647 0-2.449 0h-10.686v.657c0 4.458 1.521 10.042 6.42 10.042 2.28 0 4.307-.938 5.912-2.769l.465.188c-.169.986-.296 1.971-.38 3.003l-.211.376c-2.196 1.267-5.026 1.783-7.476 1.783-7.39 0-11.783-4.786-11.783-12.905 0-7.555 3.97-12.905 11.023-12.905 7.18 0 9.461 5.068 9.461 12.248zm-78.043 13.28c-7.307 0-11.446-5.068-11.446-12.952 0-8.446 4.857-12.858 12.206-12.858 7.518 0 10.854 5.115 10.854 13.046 0 8.071-4.224 12.764-11.614 12.764zm-102.556 0c-7.306 0-11.445-5.068-11.445-12.952 0-8.446 4.857-12.858 12.205-12.858 7.518 0 10.855 5.115 10.855 13.046 0 8.071-4.224 12.764-11.615 12.764zm-61.28 0c-7.307 0-11.446-5.068-11.446-12.952 0-8.446 4.857-12.858 12.206-12.858 7.518 0 10.854 5.115 10.854 13.046 0 8.071-4.224 12.764-11.614 12.764zm-27.95-.657h-6.505l-.253-.281c0-.751-.042-1.455-.042-2.206-2.027 1.877-4.097 3.05-6.8 3.05-6.208 0-6.926-4.88-6.926-10.464 0-3.145.042-6.242.042-9.386 0-1.642-.042-3.285-.126-4.927l.253-.282h6.715l.295.282c-.168 3.942-.211 7.931-.211 11.872 0 1.502 0 6.054.507 7.227.55 1.267 1.52 1.924 2.788 1.924 1.309 0 2.491-.798 3.379-1.783v-8.072c0-3.707-.085-7.461-.254-11.168l.296-.282h6.757l.254.329c-.085 1.689-.127 3.379-.127 5.068v10.277c0 2.862.085 5.678.253 8.541zm16.526-.657-.253.282c-1.521.516-2.914.751-4.519.751-5.744 0-6.842-2.535-6.842-8.588 0-4.74.127-9.526.127-14.266-1.014.047-2.028.047-3.041.047l-.254-.281c0-.61.043-1.22.085-1.831l.253-.328c.971 0 1.985.094 2.957.094v-1.314c0-1.455-.085-2.957-.127-4.411l.253-.282c2.196-.657 4.393-1.361 6.589-2.018l.338.282c-.296 2.159-.211 4.551-.211 6.71v.985c1.52 0 3.04-.046 4.561-.046l.253.328c-.084.657-.084 1.314-.126 1.971l-.296.282c-1.478-.094-2.914-.188-4.392-.188-.043.986-.043 1.971-.043 2.957 0 1.689-.253 14.5.465 16.002.422.844.929 1.314 1.816 1.314.845 0 1.647-.47 2.281-1.033l.422.235c-.127.798-.211 1.548-.296 2.346zm-60.703.657h-3.167l-.212-.375c1.098-3.097 2.07-6.288 3.083-9.433 2.492-7.649 4.815-15.345 7.138-23.087l.295-.235h6.293l.296.235c2.787 10.84 5.575 21.68 8.658 32.426l-.254.328c-2.364.094-4.687.141-7.053.282l-.295-.235c-.591-3.472-1.563-7.555-2.45-10.981-1.52 0-3.083-.047-4.603-.047-1.563 0-3.084.047-4.646.047-1.14 3.52-1.985 7.18-2.83 10.794zm277.347 0h-6.63l-.254-.328c.169-4.787.127-9.667.127-14.454v-3.754c0-5.49-.169-10.981-.422-16.471l.253-.329c2.239-.375 4.477-.797 6.716-1.22l.295.234c-.085 2.394-.127 4.787-.127 7.227v6.711c1.985-1.689 4.435-2.769 6.969-2.769 4.73 0 6.377 3.379 6.377 8.213 0 .985-.042 2.017-.042 3.05v4.27c0 3.097.085 6.194.211 9.292l-.253.328h-6.631l-.212-.328c0-1.267.043-2.487.043-3.755 0-3.191 0-6.382-.043-9.619 0-1.737.085-3.708-.21-5.444-.085-.61-.296-1.267-.718-1.736-.465-.516-1.225-.751-1.858-.751-1.31 0-2.619.845-3.591 1.736v4.834c0 4.927.254 9.854.254 14.782zm-124.555 0h-5.279l-.253-.281c.211-5.866.126-11.779.126-17.692 0-5.631 0-11.309-.38-16.941l.254-.328c2.28-.422 4.519-.844 6.799-1.314l.338.282c0 4.551-.084 9.104-.211 13.655 2.069-1.454 4.392-2.534 6.884-2.534 5.533 0 7.982 5.491 7.982 10.934 0 3.379-.802 6.945-2.787 9.573-3.463 4.693-8.447 4.646-13.473 4.646zm49.793 0h-5.026l-.338-.235c-1.14-4.176-2.153-8.352-3.336-12.529-1.056-3.754-2.196-7.508-3.294-11.262l.253-.329c2.238-.047 4.434-.094 6.673-.234l.295.281c1.479 5.866 2.577 11.779 4.224 17.551 1.563-5.819 2.998-11.732 4.688-17.504l.296-.235h5.448l.295.282c1.183 5.913 2.619 11.732 4.223 17.551 1.774-5.819 3.253-11.498 4.309-17.551l.295-.282c.465 0 .93.047 1.393.047.508 0 1.057-.047 1.563-.047l.212.376c-1.689 5.584-3.463 11.121-5.068 16.753-.676 2.346-1.267 4.786-1.943 7.132l-.296.235h-4.983l-.254-.281c-1.352-5.96-3.041-11.873-4.434-17.833-1.985 5.819-3.379 11.92-4.9 17.879zm-13.304 0h-6.799l-.296-.281c0-4.505.127-8.963.127-13.468v-6.523c0-4.881-.127-9.808-.38-14.689l.296-.328c2.238-.375 4.476-.797 6.715-1.267l.295.282c-.084 1.876-.084 3.754-.084 5.677 0 10.043-.127 20.273.422 30.316zm-96.165 0h-6.673l-.253-.281c.085-2.534.126-5.115.126-7.65v-3.003c0-4.129-.041-8.447-.464-12.529l.254-.329c2.323-.328 4.603-.751 6.884-1.22l.253.282c0 .891 0 1.736-.042 2.628 2.407-1.83 4.265-3.051 7.306-3.051 2.197 0 3.885.939 5.068 3.051 2.028-1.877 4.477-3.051 7.138-3.051 1.14 0 2.534.235 3.547.845 2.957 1.736 3.126 4.599 3.168 7.884.085 5.256.296 10.887.296 16.096l-.254.328h-6.715l-.296-.281c.085-1.502.085-2.957.085-4.458 0-2.769.38-13.468-.929-15.533-.55-.845-1.309-1.267-2.239-1.267-1.224 0-2.365.704-3.294 1.548.38 2.863.296 5.866.296 8.729 0 3.66.042 7.273.169 10.934l-.254.328h-6.715l-.253-.281c0-2.769.084-5.491.084-8.26 0-2.581.169-6.898-.169-9.338-.253-1.736-.844-3.426-2.703-3.426-1.309 0-2.323.798-3.336 1.596 0 3.144.042 6.241.042 9.385 0 3.332-.042 6.711.169 10.043zm85.354 0h-6.969l-.253-.281c.212-3.755.212-7.65.212-11.404 0-3.941-.043-7.977-.381-11.919l.253-.282c2.324-.328 4.646-.703 6.969-1.126l.296.235c0 3.754-.127 7.461-.127 11.215 0 4.411.253 8.869.253 13.281zm-44.978-23.041c-4.139 0-4.35 6.523-4.35 9.761 0 3.613-.043 11.919 4.603 11.919 4.393 0 4.139-7.93 4.139-11.168 0-3.426-.085-10.512-4.392-10.512zm102.555 0c-4.138 0-4.35 6.523-4.35 9.761 0 3.613-.042 11.919 4.603 11.919 4.393 0 4.139-7.93 4.139-11.168 0-3.426-.084-10.512-4.392-10.512zm-163.836 0c-4.139 0-4.35 6.523-4.35 9.761 0 3.613-.043 11.919 4.603 11.919 4.393 0 4.139-7.93 4.139-11.168 0-3.426-.084-10.512-4.392-10.512zm85.142 1.502c-1.14 0-2.196.657-3.125 1.314 0 1.267-.042 2.581-.042 3.848 0 4.692.127 9.432.127 14.125.422.047.802.047 1.225.047 5.11 0 6.25-6.007 6.25-10.559 0-3.285-.549-8.775-4.435-8.775zm-149.202-6.664-4.308 14.454c1.394 0 2.83.047 4.224.047h1.098c.844 0 1.647 0 2.492-.047zm296.775 5.068c-3.379 0-3.928 5.725-4.055 8.4 1.225 0 2.407.047 3.632.047 1.267 0 2.492-.047 3.759-.047 0-2.44-.169-8.4-3.336-8.4zm-129.919-4.599c-2.196 0-3.421-1.689-3.421-4.082 0-2.3 1.267-4.13 3.421-4.13 2.069 0 3.421 1.877 3.421 4.083 0 2.205-1.352 4.129-3.421 4.129z" fill="#002f66" fill-rule="nonzero"/><path d="m10 61.917359616h319.99973232v6.64056h-319.99973232z" fill="#f99d1b" stroke-width=".442704"/><path d="m272.613 81.828c0 1.262-.112 1.995-.611 2.616-.417.519-1.16.957-2.259.957-1.11 0-1.833-.336-2.301-.977-.428-.58-.54-1.344-.54-2.627v-3.736h.754v3.716c0 1.018.081 1.71.448 2.219.335.448.844.723 1.699.723.713 0 1.273-.244 1.609-.682.366-.478.489-1.069.489-2.097v-3.879h.712zm-126.369 0c0 1.262-.112 1.995-.611 2.616-.417.519-1.161.957-2.26.957-1.109 0-1.832-.336-2.301-.977-.427-.58-.539-1.344-.539-2.627v-3.736h.753v3.716c0 1.018.082 1.71.448 2.219.336.448.845.723 1.7.723.713 0 1.273-.244 1.609-.682.366-.478.488-1.069.488-2.097v-3.879h.713zm140.645 3.563c-.987 0-1.832-.183-2.525-.692-.875-.642-1.415-1.751-1.415-3.034 0-1.446.591-2.402 1.344-2.952.662-.479 1.527-.753 2.637-.753.743 0 1.588.132 2.27.407l-.061.692c-.763-.295-1.578-.418-2.239-.418-.938 0-1.67.214-2.179.642-.641.54-.988 1.282-.988 2.311 0 1.73 1.059 3.115 3.217 3.115.458 0 1.039-.072 1.65-.224v-2.484h.763v2.107c0 .387.01.845.01.845-.855.285-1.7.438-2.484.438zm-177.779-.56c-.845.407-1.7.56-2.464.56-.977 0-1.812-.194-2.504-.703-.875-.641-1.425-1.73-1.425-2.982 0-1.497.631-2.484 1.405-3.034.661-.478 1.527-.712 2.514-.712.733 0 1.466.112 2.281.457l-.062.683c-.875-.326-1.537-.459-2.26-.459-.824 0-1.537.194-2.046.601-.692.539-1.048 1.323-1.048 2.423 0 1.649 1.109 3.044 3.206 3.044.601 0 1.497-.133 2.464-.601zm98.735 0c-.845.407-1.7.56-2.463.56-.977 0-1.812-.194-2.504-.703-.876-.641-1.426-1.73-1.426-2.982 0-1.497.632-2.484 1.406-3.034.661-.478 1.526-.712 2.514-.712.733 0 1.466.112 2.28.457l-.061.683c-.875-.326-1.537-.459-2.26-.459-.825 0-1.537.194-2.046.601-.692.539-1.049 1.323-1.049 2.423 0 1.649 1.11 3.044 3.207 3.044.601 0 1.496-.133 2.464-.601zm-10.639.56c-.611 0-1.231-.092-1.873-.346l-.02-.733c.835.305 1.333.376 1.904.376 1.231 0 1.649-.682 1.649-1.272 0-.479-.194-.927-1.212-1.405l-.6-.275c-1.161-.529-1.537-1.13-1.537-1.924 0-.977.814-1.852 2.382-1.852.437 0 .977.05 1.567.254l-.061.682c-.641-.204-1.119-.265-1.506-.265-1.1 0-1.578.53-1.578 1.13 0 .479.214.886 1.221 1.344l.611.265c1.181.529 1.557 1.201 1.557 1.985 0 .946-.743 2.036-2.504 2.036zm42.378 0c-.611 0-1.231-.092-1.874-.346l-.02-.733c.835.305 1.334.376 1.904.376 1.232 0 1.65-.682 1.65-1.272 0-.479-.194-.927-1.212-1.405l-.6-.275c-1.161-.529-1.538-1.13-1.538-1.924 0-.977.815-1.852 2.382-1.852.438 0 .977.05 1.567.254l-.06.682c-.642-.204-1.12-.265-1.507-.265-1.099 0-1.578.53-1.578 1.13 0 .479.214.886 1.222 1.344l.61.265c1.181.529 1.558 1.201 1.558 1.985 0 .946-.743 2.036-2.504 2.036zm-159.136-.102h-.763v-7.228h1.385c1.109 0 1.781.224 2.28.672.407.377.631.886.631 1.476 0 .774-.326 1.527-1.252 1.955l.906 1.191c.794 1.038 1.313 1.293 1.903 1.394l-.091.571c-.998-.031-1.517-.275-2.504-1.588l-.988-1.314h-1.507zm102.962 0h-.764v-7.228h1.384c1.11 0 1.782.224 2.281.672.407.377.631.886.631 1.476 0 .774-.326 1.527-1.253 1.955l.907 1.191c.793 1.038 1.313 1.293 1.903 1.394l-.091.571c-.998-.031-1.517-.275-2.504-1.588l-.988-1.314h-1.506zm-20.732-1.425c-.672.875-1.67 1.445-3.451 1.445-.682 0-1.476 0-2.291-.02v-7.228c.733-.01 1.232-.01 1.904-.01 1.537 0 2.942.254 3.817 1.303.53.631.764 1.344.764 2.179 0 .763-.204 1.618-.743 2.331zm-105.171 0c-.672.875-1.669 1.445-3.451 1.445-.682 0-1.476 0-2.29-.02v-7.228c.733-.01 1.231-.01 1.903-.01 1.538 0 2.942.254 3.818 1.303.529.631.763 1.344.763 2.179 0 .763-.203 1.618-.743 2.331zm117.898 1.415-.866.02-1.587-4.398-1.507 4.378-.855.02-2.586-7.238h.814l2.26 6.434 1.528-4.571-.682-1.863h.803l2.271 6.424 2.168-6.424h.764zm-100.883.01h-1.507v-7.228h1.11c.743 0 1.262.082 1.69.244.702.265 1.181.825 1.181 1.64 0 .743-.499 1.374-1.242 1.557 1.171.173 1.751.977 1.751 1.822 0 .672-.387 1.263-.978 1.599-.406.234-1.038.366-2.005.366zm18.327 0h-.814l-.845-2.199h-3.044l-.763 2.199h-.774l2.616-7.217.825-.021zm161.926-6.576h-3.023v2.575h2.799v.641h-2.799v2.708h3.247l-.061.652h-3.95v-7.228h3.787zm20.864 6.576h-.713v-7.228h.814l4.51 6.078c-.021-.235-.021-.591-.021-1.079v-4.999h.714v7.228h-.784l-4.541-6.138c.021.244.021.712.021 1.19zm-26.638 0h-5.303v-.621l4.011-5.945h-3.981v-.662h4.958v.55l-4.062 5.996h4.439zm16.241-6.576h-2.383v6.576h-.753v-6.576h-2.382v-.652h5.569zm-71.091 0h-2.382v6.576h-.753v-6.576h-2.383v-.652h5.569zm29.63 6.576h-.815l-.845-2.199h-3.044l-.763 2.199h-.773l2.616-7.217.824-.021zm-111.626 0h-.763v-7.228h.763v3.258h4.062v-3.258h.763v7.228h-.763v-3.308h-4.062zm10.976-6.576h-3.023v2.575h2.799v.641h-2.799v2.708h3.247l-.061.652h-3.95v-7.228h3.787zm87.76 6.576h-.763v-7.228h.763v3.258h4.062v-3.258h.764v7.228h-.764v-3.308h-4.062zm-61.622 0h-.713v-7.228h.815l4.509 6.078c-.02-.235-.02-.591-.02-1.079v-4.999h.713v7.228h-.784l-4.54-6.138c.02.244.02.712.02 1.19zm-82.048-6.576h-3.023v2.575h2.799v.641h-2.799v2.708h3.247l-.061.652h-3.95v-7.228h3.787zm169.308 0h-2.382v6.576h-.754v-6.576h-2.382v-.652h5.569zm-7.117 0h-3.023v2.829h2.921v.652h-2.921v3.095h-.764v-7.228h3.787zm-103.083 6.576h-.713v-7.228h.815l4.51 6.078c-.021-.235-.021-.591-.021-1.079v-4.999h.713v7.228h-.784l-4.54-6.138c.02.244.02.712.02 1.19zm131.695 0h-.764v-7.228h.764zm-196.952 0h-.764v-7.228h.764zm119.212 0h-.764v-7.228h.764zm-84.878 0h-.713v-7.228h.815l4.509 6.078c-.02-.235-.02-.591-.02-1.079v-4.999h.713v7.228h-.784l-4.54-6.138c.02.244.02.712.02 1.19zm-20.924-3.431h-.703v2.82h.815c.437 0 .885-.01 1.292-.173.448-.173.825-.529.825-1.16 0-.866-.774-1.487-2.229-1.487zm87.534-2.066c-.682-.794-1.619-1.079-3.217-1.079-.377 0-.723 0-1.1.01v5.904c.591.021 1.019.021 1.579.021 1.445 0 2.269-.448 2.819-1.212.377-.529.54-1.211.54-1.812 0-.621-.143-1.272-.621-1.832zm-105.17 0c-.683-.794-1.619-1.079-3.217-1.079-.377 0-.723 0-1.1.01v5.904c.59.021 1.018.021 1.578.021 1.446 0 2.27-.448 2.82-1.212.377-.529.54-1.211.54-1.812 0-.621-.143-1.272-.621-1.832zm78.932 2.993h-2.657v-.591h2.657zm85.081-3.054c-.224-.58-.306-.835-.315-.866-.011.021-.082.275-.296.876l-.956 2.718h2.595zm-130.931 0c-.224-.58-.306-.835-.316-.866-.01.021-.081.275-.295.876l-.957 2.718h2.596zm94.072-1.008h-.59v3.054s.61.02 1.201.02c.417 0 .804-.101 1.14-.478.254-.275.386-.58.386-1.049 0-.377-.142-.794-.448-1.069-.406-.366-.916-.478-1.689-.478zm-102.961 0h-.591v3.054s.611.02 1.201.02c.418 0 .805-.101 1.141-.478.254-.275.386-.58.386-1.049 0-.377-.142-.794-.447-1.069-.407-.366-.917-.478-1.69-.478zm-6.771-.061h-.489v2.616h.611c.468 0 .845-.02 1.15-.193.418-.234.682-.621.682-1.11 0-.417-.203-.733-.448-.936-.397-.336-.987-.377-1.506-.377z" fill="#231f20" fill-rule="nonzero"/></svg>